<?xml version="1.0" encoding="utf-8"?>
<!-- Generator: Adobe Illustrator 22.0.1, SVG Export Plug-In . SVG Version: 6.00 Build 0)  -->
<svg version="1.1" id="Layer_1" xmlns="http://www.w3.org/2000/svg" xmlns:xlink="http://www.w3.org/1999/xlink" x="0px" y="0px"
	 viewBox="0 0 3840 2160" style="enable-background:new 0 0 3840 2160;" xml:space="preserve">
<style type="text/css">
	.st0{fill:#111216;}
	.st1{fill:#808080;}
	.st2{fill:#BC2032;}
	.st3{fill:#FFFFFF;}
	.st4{fill:#FFFFFF;stroke:#111216;stroke-width:2.45;stroke-miterlimit:10;}
</style>
<title>Asset 2</title>
<g id="Layer_2_1_">
	<g id="Layer_1-2">
		<g id="Layer_2-2">
			<g id="Layer_1-2-2">
				<rect class="st0" width="3840" height="2160"/>
			</g>
		</g>
		<path class="st1" d="M1610.9,1496.9c10.9-0.1,16.4,5.4,16.5,16.6l0.2,28.8c0.1,11.2-5.3,16.8-16.2,16.8l-29.8,0.3l-0.1-6.4
			l29.1-0.3c7.1-0.1,10.5-3.7,10.5-10.8l-0.2-28c-0.1-7.2-3.6-10.7-10.7-10.7l-23.3,0.2l0.5,55.8l-6.5,0.1l-0.5-62.2L1610.9,1496.9z
			"/>
		<path class="st1" d="M1756.6,1495.7l0.1,6.4l-32.2,0.3l0.2,21.2l31.7-0.3l0.1,6.1l-31.7,0.3l0.2,22.2l32.6-0.3l0.1,6.4l-39,0.3
			l-0.5-62.2L1756.6,1495.7z"/>
		<path class="st1" d="M1886.4,1494.6v6.4l-27.6,0.2c-5.1,0-7.6,2.7-7.6,8v6c0,4.7,2.4,7.1,7,7l18.3-0.2c8.1-0.1,12.1,4,12.2,12.3
			l0.1,8.9c0.1,9.1-4.4,13.7-13.3,13.8l-29.9,0.3v-6.4l29.2-0.3c5.2,0,7.7-2.7,7.7-8l-0.1-7.7c0-4.7-2.4-7-7-7l-18.4,0.2
			c-8.1,0.1-12.1-4-12.2-12.3l-0.1-7.2c-0.1-9.1,4.3-13.7,13.3-13.8L1886.4,1494.6z"/>
		<path class="st1" d="M1984.7,1493.7l0.5,62.2h-6.5l-0.5-62.2H1984.7z"/>
		<path class="st1" d="M2119.3,1492.6l0.1,6.4l-29.1,0.3c-5.7,0-8.6,3-8.5,8.8l0.3,31.9c0.1,5.9,2.9,8.8,8.7,8.7l16.7-0.1
			c4.3,0,7.7-3.5,7.7-7.8l-0.1-15.5l-14.8,0.1c-1.6,0-2.9-1.3-2.9-2.8l0,0c0-1.6,1.3-2.9,2.8-2.9h0l20.8-0.2l0.2,22.8
			c0.1,8.4-4.1,12.6-12.4,12.7l-19.2,0.2c-9.3,0.1-13.9-4.6-14-14l-0.3-33.9c-0.1-9.4,4.5-14.2,13.8-14.3L2119.3,1492.6z"/>
		<path class="st1" d="M2218.5,1491.8l34.6,50.4l-0.4-50.7h6.3l0.5,62.2h-5.7l-36-51.9l0.4,52.2h-6.3l-0.5-62.2L2218.5,1491.8z"/>
		<path class="st2" d="M2187.3,1092.1l-13.6-49.4c-0.1-0.4-0.6-0.7-1-0.6c0,0,0,0,0,0l-345.2,94.8l-126.8-461.8l-48.2,13.2
			l140.8,512.8l20.8-5.7l372.6-102.3C2187.2,1093,2187.5,1092.6,2187.3,1092.1C2187.3,1092.1,2187.3,1092.1,2187.3,1092.1z"/>
		<path class="st3" d="M1952.4,606c62-17,101.7,6,119.1,69.2l10.7,38.8c4.9,17.9,5.3,33.9,1.3,48.2c-4.1,14.2-12.9,26.5-26.4,36.8
			c35.5,2.5,58.5,23.2,69.2,62l12.4,45.1c16.5,60.1-6.4,98.8-68.9,115.9l-206.6,56.7L1748.6,662L1952.4,606z M1994.9,794.5
			c39.6-10.9,55-32.3,46.2-64.3l-10-36.5c-10.8-39.2-35.4-53.5-73.8-43l-153.6,42.2l90.9,331.1l155.8-42.8
			c38.4-10.6,52.7-33.9,42.8-70.1l-12.1-44c-9.4-34.2-34.7-45.7-75.8-34.5"/>
		<path class="st2" d="M1341.6,1310.8v93.5h66.6v7.2h-74v-100.7H1341.6z"/>
		<path class="st3" d="M1426.4,1350.1c6.8-6.5,7.2-7,1.4-1.3c14.8-12.8,36.9-12.2,51,1.3c7,6.6,10.9,15.8,10.8,25.5v3.6h-66.4
			c0.7,6.4,3.7,12.4,8.4,16.8c11.7,11.2,30.2,11.2,41.9,0l5.3,5.1c-14.7,14-37.7,14-52.4,0c-13.9-13.4-14.5-35.4-1.3-49.6
			C1419.3,1357.1,1419.7,1356.6,1426.4,1350.1z M1482,1371.9c-0.7-6.4-3.7-12.4-8.4-16.8c-11.7-11.2-30.2-11.2-41.9,0
			c-4.7,4.4-7.7,10.4-8.4,16.8H1482z"/>
		<path class="st3" d="M1534,1411.5c-9.8,0.2-19.2-3.6-26.2-10.5c-14-13.5-14.5-35.8-1-49.8c0.3-0.4,0.7-0.7,1-1
			c14.6-14.1,37.7-14.1,52.3,0c14,13.5,14.5,35.8,1,49.9c-0.3,0.3-0.7,0.7-1,1C1553.2,1407.9,1543.8,1411.7,1534,1411.5z
			 M1534,1346.8c-7.8-0.1-15.4,2.9-20.9,8.4c-11.2,10.8-11.6,28.7-0.8,40c0.2,0.3,0.5,0.5,0.8,0.8c11.7,11.2,30.2,11.2,41.9,0
			c11.2-10.8,11.6-28.7,0.8-40c-0.2-0.3-0.5-0.5-0.8-0.8C1549.4,1349.6,1541.8,1346.6,1534,1346.8z"/>
		<path class="st3" d="M1578.4,1339.6h7.4v9.7c0.4-0.4,0.8-0.9,1.3-1.3c11.7-11.2,30.2-11.2,41.9,0c5.6,5.3,8.8,12.7,8.7,20.4v43.2
			h-7.4v-43.2c0.1-5.8-2.3-11.3-6.5-15.3c-8.8-8.4-22.6-8.4-31.4,0c-4.2,3.9-6.6,9.5-6.5,15.3v43.2h-7.4V1339.6z"/>
		<path class="st3" d="M1711.6,1393.5c-1,3.7-2.2,6.2-3.4,7.4c-14.6,14.1-37.7,14.1-52.3,0c-14-13.5-14.5-35.8-1-49.9
			c0.3-0.3,0.7-0.7,1-1c14.6-14,37.7-14,52.3,0c1.2,1.3,2.4,3.8,3.4,7.5v-18h7.4v72h-7.4L1711.6,1393.5z M1682,1346.8
			c-7.8-0.2-15.4,2.9-21,8.4c-11.2,10.8-11.6,28.8-0.7,40c0.2,0.2,0.5,0.5,0.7,0.7c11.7,11.2,30.2,11.2,41.9,0
			c11.2-10.8,11.6-28.7,0.8-40c-0.2-0.3-0.5-0.5-0.8-0.8C1697.4,1349.7,1689.8,1346.6,1682,1346.8L1682,1346.8z"/>
		<path class="st3" d="M1762.5,1347.6c-2.1-0.6-4.3-0.9-6.4-0.9c-5.9-0.1-11.5,2.2-15.7,6.3c-4.2,3.9-6.6,9.5-6.5,15.3v43.2h-7.4
			v-72h7.4v10.8c0.2-0.9,0.7-1.7,1.3-2.4c5.6-5.5,13.1-8.6,20.9-8.4c2.6,0,5.3,0.3,7.8,0.9L1762.5,1347.6z"/>
		<path class="st3" d="M1837.4,1393.5c-1,3.7-2.2,6.2-3.4,7.4c-14.6,14.1-37.7,14.1-52.4,0c-14-13.5-14.5-35.8-1-49.9
			c0.3-0.3,0.7-0.7,1-1c14.6-14,37.7-14,52.4,0c1.2,1.3,2.4,3.8,3.4,7.5v-46.8h7.4v100.7h-7.4V1393.5z M1807.8,1346.8
			c-7.8-0.1-15.4,2.9-20.9,8.4c-11.2,10.8-11.6,28.7-0.8,40c0.2,0.3,0.5,0.5,0.8,0.8c11.7,11.2,30.2,11.2,41.9,0
			c11.2-10.8,11.6-28.7,0.8-40c-0.2-0.3-0.5-0.5-0.8-0.8C1823.2,1349.6,1815.7,1346.6,1807.8,1346.8L1807.8,1346.8z"/>
		<path class="st3" d="M1889.2,1411.5c-9.8,0.2-19.2-3.6-26.2-10.5c-14-13.5-14.5-35.8-1-49.9c0.3-0.3,0.7-0.7,1-1
			c14.6-14.1,37.7-14.1,52.3,0c14,13.5,14.5,35.8,1,49.9c-0.3,0.3-0.7,0.7-1,1C1908.4,1407.9,1899,1411.7,1889.2,1411.5z
			 M1889.2,1346.8c-7.8-0.1-15.4,2.9-20.9,8.4c-11.2,10.8-11.6,28.7-0.8,40c0.2,0.3,0.5,0.5,0.8,0.8c11.7,11.2,30.2,11.2,41.9,0
			c11.2-10.8,11.6-28.7,0.8-40c-0.2-0.3-0.5-0.5-0.8-0.8C1904.6,1349.6,1897.1,1346.6,1889.2,1346.8z"/>
		<path class="st3" d="M2143.2,1411.5h-7.4v-9.7c-0.4,0.4-0.8,0.9-1.3,1.3c-11.7,11.2-30.2,11.2-41.9,0c-5.6-5.3-8.8-12.7-8.6-20.4
			v-43.2h7.4v43.2c-0.1,5.8,2.3,11.3,6.5,15.3c8.8,8.4,22.6,8.4,31.4,0c4.2-3.9,6.6-9.5,6.5-15.3v-43.2h7.4L2143.2,1411.5z"/>
		<path class="st3" d="M2186.6,1347.6c-2.1-0.6-4.3-0.9-6.4-0.9c-5.9-0.1-11.5,2.2-15.7,6.3c-4.2,3.9-6.6,9.5-6.5,15.3v43.2h-7.4
			v-72h7.4v10.8c0.2-0.9,0.7-1.7,1.3-2.4c5.6-5.5,13.1-8.6,20.9-8.4c2.6,0,5.3,0.3,7.9,0.9L2186.6,1347.6z"/>
		<path class="st3" d="M2261.6,1404.3v-10.8c-1,3.7-2.2,6.2-3.4,7.4c-14.6,14.1-37.7,14.1-52.4,0c-14-13.5-14.5-35.8-1-49.9
			c0.3-0.3,0.7-0.7,1-1c14.6-14,37.7-14,52.4,0c1.2,1.3,2.4,3.8,3.4,7.5v-18h7.4v64.8c0.1,9.6-3.8,18.8-10.8,25.4
			c-14.6,14.1-37.8,14.1-52.4,0l5.3-5c11.7,11.2,30.2,11.2,41.9,0C2258.5,1419.4,2261.7,1412,2261.6,1404.3z M2252.9,1395.9
			c11.2-10.8,11.6-28.7,0.8-40c-0.2-0.3-0.5-0.5-0.8-0.8c-11.7-11.2-30.2-11.2-41.9,0c-11.2,10.8-11.6,28.7-0.8,40
			c0.2,0.3,0.5,0.5,0.8,0.8C2222.7,1407.1,2241.2,1407.1,2252.9,1395.9z"/>
		<path class="st3" d="M2343,1393.5c-1,3.7-2.2,6.2-3.4,7.4c-14.6,14.1-37.7,14.1-52.4,0c-14-13.5-14.5-35.8-1-49.9
			c0.3-0.3,0.7-0.7,1-1c14.6-14,37.7-14,52.4,0c1.2,1.3,2.4,3.8,3.4,7.5v-18h7.4v72h-7.4V1393.5z M2313.4,1346.8
			c-7.8-0.1-15.4,2.9-20.9,8.4c-11.2,10.8-11.6,28.7-0.8,40c0.2,0.3,0.5,0.5,0.8,0.8c11.7,11.2,30.2,11.2,41.9,0
			c11.2-10.8,11.6-28.7,0.8-40c-0.2-0.3-0.5-0.5-0.8-0.8C2328.8,1349.6,2321.2,1346.6,2313.4,1346.8L2313.4,1346.8z"/>
		<path class="st3" d="M2368.9,1339.6v-28.8h7.4v28.8h11.1v7.2h-11.1v46.8c0,2.9,1.1,5.7,3.3,7.6c2.1,2.1,4.9,3.2,7.8,3.2v7.2
			c-4.9,0.1-9.6-1.8-13.1-5.3c-3.5-3.3-5.5-7.9-5.4-12.7v-46.8h-11.1v-7.2H2368.9z"/>
		<path class="st3" d="M2405.9,1339.6v-28.8h7.4v28.8h11.1v7.2h-11.1v46.8c0,2.9,1.1,5.7,3.3,7.6c2.1,2.1,4.9,3.2,7.8,3.2v7.2
			c-4.9,0.1-9.6-1.8-13.1-5.3c-3.5-3.3-5.5-7.9-5.4-12.7v-46.8h-11.1v-7.2H2405.9z"/>
		<path class="st3" d="M2442.6,1350.1c6.8-6.5,7.2-7,1.4-1.3c14.8-12.7,36.9-12.2,51,1.3c7,6.6,10.9,15.8,10.8,25.5v3.6h-66.4
			c0.7,6.4,3.7,12.4,8.4,16.8c11.7,11.2,30.2,11.2,41.9,0l5.3,5.1c-14.7,14-37.7,14-52.4,0c-13.9-13.4-14.5-35.4-1.3-49.6
			C2435.4,1357.1,2435.9,1356.6,2442.6,1350.1z M2498.1,1371.9c-0.7-6.4-3.7-12.4-8.4-16.8c-11.7-11.2-30.2-11.2-41.9,0
			c-4.7,4.4-7.7,10.4-8.4,16.8H2498.1z"/>
		<path class="st4" d="M2047.7,1310.8c14.7,0,22,7.7,22,23.2v9.5c0.1,3.8-0.8,7.6-2.6,11c-1.9,3.1-4.7,5.4-8.1,6.7
			c7.7,2.8,11.5,8.9,11.5,18.4v11c0,14.7-7.4,22-22.2,22h-48c-0.6,0-1-0.4-1-1v-99.8c0-0.6,0.4-1,1-1L2047.7,1310.8z M2009.7,1401.1
			c0,0.6,0.4,1,1,1h35.9c9.1,0,13.6-4.4,13.6-13.3v-10.7c0-8.4-4.9-12.5-14.6-12.6h-0.5c-0.6,0-1-0.4-1-1v-7.3c0-0.6,0.4-1,1-1h0.5
			c9.4,0,14.1-3.9,14.1-11.7v-8.9c0-9.6-4.6-14.4-13.7-14.4h-35.4c-0.6,0-1,0.4-1,1L2009.7,1401.1z"/>
	</g>
</g>
</svg>
