<?xml version="1.0" encoding="utf-8"?>
<!-- Generator: Adobe Illustrator 22.0.1, SVG Export Plug-In . SVG Version: 6.00 Build 0)  -->
<svg version="1.1" id="Layer_1" xmlns="http://www.w3.org/2000/svg" xmlns:xlink="http://www.w3.org/1999/xlink" x="0px" y="0px"
	 viewBox="0 0 3840 2160" style="enable-background:new 0 0 3840 2160;" xml:space="preserve">
<style type="text/css">
	.st0{fill:#111216;}
	.st1{fill:#808080;}
	.st2{fill:#CC112C;}
	.st3{fill:#FFFFFF;}
	.st4{fill:#FFFFFF;stroke:#111216;stroke-width:2.4512;stroke-miterlimit:10;}
</style>
<title>Asset 3</title>
<g>
	<g id="Layer_2_1_">
		<g id="Layer_1-2">
			<rect class="st0" width="3840" height="2160"/>
		</g>
	</g>
	<g>
		<g>
			<g>
				<g>
					<g>
						<g>
							<path class="st1" d="M1610.9,1661.9c10.9-0.1,16.4,5.4,16.5,16.6l0.2,28.8c0.1,11.1-5.3,16.8-16.2,16.8l-29.8,0.3l-0.1-6.4
								l29.1-0.2c7-0.1,10.5-3.7,10.5-10.8l-0.2-28c-0.1-7.2-3.6-10.7-10.7-10.7l-23.3,0.2l0.5,55.8l-6.5,0.1l-0.5-62.2
								L1610.9,1661.9z"/>
						</g>
					</g>
					<g>
						<g>
							<path class="st1" d="M1756.6,1660.7l0.1,6.4l-32.2,0.3l0.2,21.1l31.7-0.3l0.1,6.1l-31.7,0.3l0.2,22.2l32.6-0.3l0.1,6.4
								l-39,0.3l-0.5-62.2L1756.6,1660.7z"/>
						</g>
					</g>
					<g>
						<g>
							<path class="st1" d="M1886.4,1659.6l0.1,6.4l-27.6,0.2c-5.1,0-7.7,2.7-7.6,8l0.1,6c0,4.7,2.4,7.1,7,7l18.3-0.2
								c8.1-0.1,12.1,4,12.2,12.3l0.1,8.9c0.1,9.1-4.3,13.7-13.3,13.8l-29.9,0.3l-0.1-6.4l29.2-0.2c5.2,0,7.7-2.7,7.7-8l-0.1-7.7
								c0-4.7-2.4-7.1-7-7l-18.4,0.2c-8.1,0.1-12.1-4-12.2-12.3l-0.1-7.2c-0.1-9.1,4.3-13.7,13.3-13.8L1886.4,1659.6z"/>
						</g>
					</g>
					<g>
						<g>
							<path class="st1" d="M1984.7,1658.7l0.5,62.2l-6.5,0.1l-0.5-62.2L1984.7,1658.7z"/>
						</g>
					</g>
					<g>
						<g>
							<path class="st1" d="M2119.3,1657.6l0.1,6.4l-29.1,0.2c-5.7,0-8.6,3-8.5,8.9l0.3,31.9c0,5.9,2.9,8.8,8.7,8.7l16.7-0.1
								c4.3,0,7.7-3.5,7.7-7.8l-0.1-15.5l-14.8,0.1c-1.6,0-2.9-1.3-2.9-2.8l0,0c0-1.6,1.3-2.9,2.8-2.9l20.8-0.2l0.2,22.8
								c0.1,8.4-4.1,12.7-12.4,12.7l-19.2,0.2c-9.3,0.1-13.9-4.6-14-14l-0.3-33.9c-0.1-9.4,4.5-14.2,13.8-14.3L2119.3,1657.6z"/>
						</g>
					</g>
					<g>
						<g>
							<path class="st1" d="M2218.5,1656.8l34.6,50.4l-0.4-50.7l6.3-0.1l0.5,62.2l-5.7,0l-36-51.9l0.4,52.2l-6.3,0.1l-0.5-62.2
								L2218.5,1656.8z"/>
						</g>
					</g>
				</g>
			</g>
		</g>
		<g>
			<path class="st2" d="M2187.3,1257.1l-13.6-49.4c-0.1-0.4-0.6-0.7-1-0.6l-345.2,94.8l-126.8-461.8l-48.2,13.2l140.8,512.7
				l20.8-5.7l372.6-102.3C2187.2,1258,2187.5,1257.6,2187.3,1257.1z"/>
			<g>
				<g>
					<path class="st3" d="M1952.4,771.1c62-17,101.7,6,119.1,69.2l10.7,38.8c4.9,17.9,5.3,33.9,1.3,48.2
						c-4.1,14.2-12.9,26.5-26.4,36.7c35.5,2.5,58.6,23.2,69.2,62l12.4,45.1c16.5,60.1-6.4,98.8-68.9,115.9l-206.7,56.7L1748.6,827
						L1952.4,771.1z M1994.9,959.5c39.6-10.9,55-32.3,46.2-64.3l-10-36.5c-10.8-39.2-35.4-53.5-73.8-43l-153.6,42.2l90.9,331.1
						l155.8-42.8c38.4-10.6,52.7-33.9,42.8-70.1l-12.1-44c-9.4-34.3-34.7-45.7-75.8-34.5"/>
				</g>
			</g>
		</g>
		<g>
			<g>
				<path class="st2" d="M1341.6,1475.8v93.5h66.6v7.2h-74v-100.7H1341.6z"/>
				<path class="st3" d="M1426.4,1515.1c6.8-6.5,7.2-7,1.4-1.3c7-6.1,15.2-9.2,24.8-9.2c10.2,0,18.9,3.5,26.2,10.5
					c7.2,7.1,10.8,15.5,10.8,25.5v3.6h-66.4c0.7,6.4,3.6,12,8.4,16.8c5.8,5.6,12.7,8.4,20.9,8.4c8.2,0,15.2-2.8,21-8.4l5.3,5.1
					c-7.3,7-16,10.5-26.2,10.5c-10.2,0-18.9-3.5-26.2-10.5c-7.2-7.1-10.8-15.5-10.8-25.5c0-9.3,3.2-17.3,9.5-24.1
					C1419.3,1522.1,1419.7,1521.6,1426.4,1515.1z M1482,1536.9c-0.7-6.4-3.6-12-8.4-16.8c-5.8-5.6-12.8-8.4-20.9-8.4
					c-8.2,0-15.2,2.8-20.9,8.4c-4.9,4.7-7.7,10.3-8.4,16.8H1482z"/>
				<path class="st3" d="M1534,1576.5c-10.2,0-18.9-3.5-26.2-10.5c-7.2-7-10.8-15.5-10.8-25.4c0-9.9,3.6-18.4,10.8-25.4
					c7.2-7,15.9-10.5,26.2-10.5c10.2,0,18.9,3.5,26.2,10.5c7.2,7,10.8,15.5,10.8,25.4c0,9.9-3.6,18.4-10.8,25.4
					C1553,1573,1544.2,1576.5,1534,1576.5z M1534,1511.8c-8.2,0-15.2,2.8-20.9,8.4c-5.8,5.6-8.7,12.4-8.7,20.4
					c0,8,2.9,14.7,8.7,20.4c5.8,5.6,12.8,8.4,20.9,8.4c8.2,0,15.2-2.8,20.9-8.4c5.8-5.6,8.7-12.4,8.7-20.4c0-8-2.9-14.7-8.7-20.4
					C1549.2,1514.6,1542.2,1511.8,1534,1511.8z"/>
				<path class="st3" d="M1578.4,1504.6h7.4v9.7c0.4-0.4,0.8-0.9,1.3-1.3c5.8-5.6,12.8-8.4,20.9-8.4c8.2,0,15.2,2.8,20.9,8.4
					c5.8,5.6,8.7,12.4,8.7,20.4v43.2h-7.4v-43.2c0-5.9-2.2-11-6.5-15.3c-4.3-4.2-9.6-6.3-15.7-6.3c-6.1,0-11.3,2.1-15.7,6.3
					c-4.3,4.2-6.5,9.3-6.5,15.3v43.2h-7.4V1504.6z"/>
				<path class="st3" d="M1711.6,1558.5c-1,3.7-2.2,6.2-3.4,7.4c-7.3,7.1-16,10.6-26.2,10.6c-10.2,0-18.9-3.5-26.2-10.5
					c-7.2-7-10.8-15.5-10.8-25.4c0-9.9,3.6-18.4,10.8-25.4c7.2-7,15.9-10.5,26.2-10.5c10.2,0,18.9,3.5,26.2,10.5
					c1.2,1.2,2.4,3.7,3.4,7.5v-18h7.4v71.9h-7.4V1558.5z M1682,1511.8c-8.2,0-15.2,2.8-20.9,8.4c-5.8,5.6-8.7,12.4-8.7,20.4
					c0,8,2.9,14.7,8.7,20.4c5.8,5.6,12.8,8.4,20.9,8.4c8.2,0,15.2-2.8,20.9-8.4c5.8-5.6,8.7-12.4,8.7-20.4c0-8-2.9-14.7-8.7-20.4
					C1697.2,1514.6,1690.2,1511.8,1682,1511.8z"/>
				<path class="st3" d="M1762.5,1512.6c-2-0.6-4.2-0.9-6.4-0.9c-6.1,0-11.3,2.1-15.7,6.3c-4.3,4.2-6.5,9.3-6.5,15.3v43.2h-7.4
					v-71.9h7.4v10.8c0.4-1.2,0.8-1.9,1.3-2.4c5.8-5.6,12.8-8.4,20.9-8.4c2.8,0,5.4,0.3,7.8,0.9L1762.5,1512.6z"/>
				<path class="st3" d="M1837.4,1558.5c-1,3.7-2.2,6.2-3.4,7.4c-7.3,7.1-16,10.6-26.2,10.6c-10.2,0-18.9-3.5-26.2-10.5
					c-7.2-7-10.8-15.5-10.8-25.4c0-9.9,3.6-18.4,10.8-25.4c7.2-7,15.9-10.5,26.2-10.5c10.2,0,18.9,3.5,26.2,10.5
					c1.2,1.2,2.4,3.7,3.4,7.5v-46.8h7.4v100.7h-7.4V1558.5z M1807.8,1511.8c-8.2,0-15.2,2.8-20.9,8.4c-5.8,5.6-8.7,12.4-8.7,20.4
					c0,8,2.9,14.7,8.7,20.4c5.8,5.6,12.8,8.4,20.9,8.4c8.2,0,15.2-2.8,20.9-8.4c5.8-5.6,8.7-12.4,8.7-20.4c0-8-2.9-14.7-8.7-20.4
					C1823,1514.6,1816,1511.8,1807.8,1511.8z"/>
				<path class="st3" d="M1889.2,1576.5c-10.2,0-18.9-3.5-26.2-10.5c-7.2-7-10.8-15.5-10.8-25.4c0-9.9,3.6-18.4,10.8-25.4
					c7.2-7,15.9-10.5,26.2-10.5c10.2,0,18.9,3.5,26.2,10.5c7.2,7,10.8,15.5,10.8,25.4c0,9.9-3.6,18.4-10.8,25.4
					C1908.1,1573,1899.4,1576.5,1889.2,1576.5z M1889.2,1511.8c-8.2,0-15.2,2.8-20.9,8.4c-5.8,5.6-8.7,12.4-8.7,20.4
					c0,8,2.9,14.7,8.7,20.4c5.8,5.6,12.8,8.4,20.9,8.4c8.2,0,15.2-2.8,20.9-8.4c5.8-5.6,8.7-12.4,8.7-20.4c0-8-2.9-14.7-8.7-20.4
					C1904.4,1514.6,1897.4,1511.8,1889.2,1511.8z"/>
				<path class="st3" d="M2143.2,1576.5h-7.4v-9.7c-0.4,0.4-0.8,0.9-1.3,1.3c-5.8,5.6-12.8,8.4-20.9,8.4c-8.2,0-15.2-2.8-20.9-8.4
					c-5.8-5.6-8.7-12.4-8.7-20.4v-43.2h7.4v43.2c0,5.9,2.2,11,6.5,15.3c4.3,4.2,9.6,6.3,15.7,6.3c6.1,0,11.3-2.1,15.7-6.3
					c4.3-4.2,6.5-9.3,6.5-15.3v-43.2h7.4V1576.5z"/>
				<path class="st3" d="M2186.6,1512.6c-2-0.6-4.2-0.9-6.4-0.9c-6.1,0-11.3,2.1-15.7,6.3c-4.3,4.2-6.5,9.3-6.5,15.3v43.2h-7.4
					v-71.9h7.4v10.8c0.4-1.2,0.8-1.9,1.3-2.4c5.8-5.6,12.8-8.4,20.9-8.4c2.8,0,5.4,0.3,7.8,0.9L2186.6,1512.6z"/>
				<path class="st3" d="M2261.6,1569.3v-10.8c-1,3.7-2.2,6.2-3.4,7.4c-7.3,7.1-16,10.6-26.2,10.6c-10.2,0-18.9-3.5-26.2-10.5
					c-7.2-7-10.8-15.5-10.8-25.4c0-9.9,3.6-18.4,10.8-25.4c7.2-7,15.9-10.5,26.2-10.5c10.2,0,18.9,3.5,26.2,10.5
					c1.2,1.2,2.4,3.7,3.4,7.5v-18h7.4v64.8c0,9.9-3.6,18.4-10.8,25.4c-7.3,7.1-16,10.6-26.2,10.6c-10.2,0-18.9-3.5-26.2-10.6l5.3-5
					c5.8,5.6,12.8,8.4,20.9,8.4c8.2,0,15.2-2.8,20.9-8.4C2258.7,1584.1,2261.6,1577.3,2261.6,1569.3z M2252.9,1560.9
					c5.8-5.6,8.7-12.4,8.7-20.4c0-8-2.9-14.7-8.7-20.4c-5.8-5.6-12.8-8.4-20.9-8.4c-8.2,0-15.2,2.8-20.9,8.4
					c-5.8,5.6-8.7,12.4-8.7,20.4c0,8,2.9,14.7,8.7,20.4c5.8,5.6,12.8,8.4,20.9,8.4C2240.2,1569.3,2247.1,1566.5,2252.9,1560.9z"/>
				<path class="st3" d="M2343,1558.5c-1,3.7-2.2,6.2-3.4,7.4c-7.3,7.1-16,10.6-26.2,10.6c-10.2,0-18.9-3.5-26.2-10.5
					c-7.2-7-10.8-15.5-10.8-25.4c0-9.9,3.6-18.4,10.8-25.4c7.2-7,15.9-10.5,26.2-10.5c10.2,0,18.9,3.5,26.2,10.5
					c1.2,1.2,2.4,3.7,3.4,7.5v-18h7.4v71.9h-7.4V1558.5z M2313.4,1511.8c-8.2,0-15.2,2.8-20.9,8.4c-5.8,5.6-8.7,12.4-8.7,20.4
					c0,8,2.9,14.7,8.7,20.4c5.8,5.6,12.8,8.4,20.9,8.4c8.2,0,15.2-2.8,20.9-8.4c5.8-5.6,8.7-12.4,8.7-20.4c0-8-2.9-14.7-8.7-20.4
					C2328.5,1514.6,2321.6,1511.8,2313.4,1511.8z"/>
				<path class="st3" d="M2368.9,1504.6v-28.8h7.4v28.8h11.1v7.2h-11.1v46.8c0,3,1.1,5.5,3.3,7.6c2.2,2.1,4.8,3.2,7.8,3.2v7.2
					c-5.1,0-9.5-1.8-13.1-5.3c-3.6-3.5-5.4-7.7-5.4-12.7v-46.8h-11.1v-7.2H2368.9z"/>
				<path class="st3" d="M2405.9,1504.6v-28.8h7.4v28.8h11.1v7.2h-11.1v46.8c0,3,1.1,5.5,3.3,7.6c2.2,2.1,4.8,3.2,7.8,3.2v7.2
					c-5.1,0-9.5-1.8-13.1-5.3c-3.6-3.5-5.4-7.7-5.4-12.7v-46.8h-11.1v-7.2H2405.9z"/>
				<path class="st3" d="M2442.6,1515.1c6.8-6.5,7.2-7,1.4-1.3c7-6.1,15.2-9.2,24.8-9.2c10.2,0,18.9,3.5,26.2,10.5
					c7.2,7.1,10.8,15.5,10.8,25.5v3.6h-66.4c0.7,6.4,3.6,12,8.4,16.8c5.8,5.6,12.7,8.4,20.9,8.4c8.2,0,15.2-2.8,21-8.4l5.3,5.1
					c-7.3,7-16,10.5-26.2,10.5c-10.2,0-18.9-3.5-26.2-10.5c-7.2-7.1-10.8-15.5-10.8-25.5c0-9.3,3.2-17.3,9.5-24.1
					C2435.4,1522.1,2435.9,1521.6,2442.6,1515.1z M2498.1,1536.9c-0.7-6.4-3.6-12-8.4-16.8c-5.8-5.6-12.8-8.4-20.9-8.4
					c-8.2,0-15.2,2.8-20.9,8.4c-4.9,4.7-7.7,10.3-8.4,16.8H2498.1z"/>
			</g>
			<path class="st4" d="M2047.7,1475.8c14.7,0,22,7.7,22,23.1v9.5c0,4.4-0.9,8-2.6,11c-1.8,3-4.4,5.2-8,6.7
				c7.7,2.8,11.5,8.9,11.5,18.4v11c0,14.7-7.4,22-22.2,22h-48c-0.5,0-1-0.4-1-1v-99.8c0-0.6,0.4-1,1-1H2047.7z M2009.7,1566.1
				c0,0.6,0.4,1,1,1h35.9c9.1,0,13.7-4.4,13.7-13.2v-10.7c0-8.4-4.9-12.6-14.6-12.6h-0.5c-0.5,0-1-0.4-1-1v-7.3c0-0.6,0.4-1,1-1h0.5
				c9.4,0,14.1-3.9,14.1-11.7v-8.9c0-9.6-4.6-14.4-13.7-14.4h-35.4c-0.5,0-1,0.4-1,1V1566.1z"/>
		</g>
	</g>
</g>
</svg>
