<svg xmlns="http://www.w3.org/2000/svg" viewBox="0 0 3840 2160"><defs><style>.cls-1{fill:#111216;}.cls-2{fill:gray;}.cls-3{fill:#cc112c;}.cls-4,.cls-5{fill:#fff;}.cls-5{stroke:#111216;stroke-miterlimit:10;stroke-width:2.45px;}</style></defs><title>Asset 1</title><g id="Layer_2" data-name="Layer 2"><g id="Layer_1-2" data-name="Layer 1"><g id="Layer_2-2" data-name="Layer 2"><g id="Layer_1-2-2" data-name="Layer 1-2"><rect class="cls-1" width="3840" height="2160"/></g></g><path class="cls-2" d="M1610.93,1496.89q16.36-.14,16.51,16.57l.24,28.81q.15,16.73-16.22,16.85l-29.77.25-.06-6.39,29.09-.25q10.58-.09,10.48-10.83l-.24-28q-.09-10.74-10.66-10.65l-23.27.2.47,55.83-6.48.06-.52-62.23Z"/><path class="cls-2" d="M1756.62,1495.66l.05,6.39-32.22.27.18,21.15,31.71-.27.05,6.14-31.71.26.19,22.17,32.56-.28.06,6.4-39,.33-.53-62.24Z"/><path class="cls-2" d="M1886.45,1494.56l0,6.39-27.62.24q-7.67.06-7.6,8l0,6q.06,7.08,7,7l18.33-.15q12.11-.1,12.21,12.26l.08,8.86q.1,13.65-13.27,13.76l-29.93.25,0-6.39,29.24-.25q7.75-.06,7.69-8l-.06-7.67q-.06-7.07-7-7l-18.41.16q-12.11.1-12.21-12.26l-.06-7.16q-.12-13.63,13.27-13.75Z"/><path class="cls-2" d="M1984.65,1493.73l.53,62.23-6.48,0-.53-62.23Z"/><path class="cls-2" d="M2119.34,1492.59l.06,6.39-29.07.25q-8.61.07-8.54,8.85l.27,31.88q.08,8.79,8.69,8.71l16.7-.14a7.77,7.77,0,0,0,7.7-7.82l-.13-15.52-14.8.13a2.87,2.87,0,0,1-2.88-2.83h0a2.86,2.86,0,0,1,2.84-2.88l20.84-.18.19,22.76q.11,12.61-12.42,12.72l-19.18.17q-13.91.11-14-14l-.29-33.93q-.12-14.14,13.78-14.27Z"/><path class="cls-2" d="M2218.48,1491.75l34.62,50.43-.43-50.72,6.31,0,.52,62.23-5.71,0-36-51.88.44,52.18-6.3,0-.53-62.23Z"/><path class="cls-3" d="M2187.34,1092.13l-13.57-49.44a.8.8,0,0,0-1-.56l-345.2,94.78L1700.81,675.15l-48.18,13.22,140.78,512.75,20.76-5.7,372.61-102.31A.79.79,0,0,0,2187.34,1092.13Z"/><path class="cls-4" d="M1952.38,606q93-25.54,119.07,69.22l10.66,38.82q7.36,26.83,1.25,48.15T2056.92,799q53.2,3.81,69.21,62l12.38,45.1q24.76,90.21-68.86,115.9L1863,1078.73,1748.59,662Zm42.54,188.46q59.36-16.31,46.2-64.26l-10-36.53q-16.14-58.79-73.8-43L1803.73,692.9l90.9,331.1,155.85-42.79q57.64-15.83,42.77-70.06l-12.07-44q-14.11-51.37-75.76-34.45"/><path class="cls-3" d="M1341.64,1310.78v93.53h66.6v7.2h-74V1310.78Z"/><path class="cls-4" d="M1426.44,1350.06q10.14-9.78,1.41-1.29a37.94,37.94,0,0,1,51,1.29,34.37,34.37,0,0,1,10.8,25.47v3.6h-66.37a27.11,27.11,0,0,0,8.44,16.76,30.25,30.25,0,0,0,41.88,0l5.25,5.11a37.9,37.9,0,0,1-52.39,0,35.42,35.42,0,0,1-1.33-49.57Q1416.38,1359.92,1426.44,1350.06Zm55.57,21.88a27.2,27.2,0,0,0-8.43-16.77,30.27,30.27,0,0,0-41.88,0,27.16,27.16,0,0,0-8.44,16.77Z"/><path class="cls-4" d="M1534,1411.51a36.16,36.16,0,0,1-26.15-10.54,35.24,35.24,0,0,1,0-50.87,37.72,37.72,0,0,1,52.31,0,35.26,35.26,0,0,1,0,50.87A36.2,36.2,0,0,1,1534,1411.51Zm0-64.75a28.94,28.94,0,0,0-20.94,8.41,28.26,28.26,0,0,0,0,40.72,30.25,30.25,0,0,0,41.88,0,28.26,28.26,0,0,0,0-40.72A28.94,28.94,0,0,0,1534,1346.76Z"/><path class="cls-4" d="M1578.43,1339.56h7.4v9.71q.59-.64,1.26-1.29a30.25,30.25,0,0,1,41.88,0,27.36,27.36,0,0,1,8.66,20.36v43.17h-7.4v-43.17a20.5,20.5,0,0,0-6.51-15.25,22.61,22.61,0,0,0-31.38,0,20.5,20.5,0,0,0-6.51,15.25v43.17h-7.4Z"/><path class="cls-4" d="M1711.63,1393.52q-1.56,5.61-3.41,7.41a37.72,37.72,0,0,1-52.35,0,35.26,35.26,0,0,1,0-50.87,37.82,37.82,0,0,1,52.35,0q1.85,1.88,3.41,7.49v-18H1719v72h-7.39Zm-29.6-46.76a29,29,0,0,0-21,8.41,28.29,28.29,0,0,0,0,40.72,30.26,30.26,0,0,0,41.89,0,28.26,28.26,0,0,0,0-40.72A29,29,0,0,0,1682,1346.76Z"/><path class="cls-4" d="M1762.46,1347.62a23.25,23.25,0,0,0-6.44-.86,21.69,21.69,0,0,0-15.68,6.33,20.47,20.47,0,0,0-6.52,15.25v43.17h-7.4v-72h7.4v10.79a6.32,6.32,0,0,1,1.26-2.37,28.94,28.94,0,0,1,20.94-8.42,31.68,31.68,0,0,1,7.85.94Z"/><path class="cls-4" d="M1837.42,1393.52q-1.56,5.61-3.4,7.41a37.73,37.73,0,0,1-52.36,0,35.26,35.26,0,0,1,0-50.87,37.84,37.84,0,0,1,52.36,0q1.85,1.88,3.4,7.49v-46.77h7.4v100.73h-7.4Zm-29.6-46.76a28.94,28.94,0,0,0-20.94,8.41,28.26,28.26,0,0,0,0,40.72,30.25,30.25,0,0,0,41.88,0,28.26,28.26,0,0,0,0-40.72A28.94,28.94,0,0,0,1807.82,1346.76Z"/><path class="cls-4" d="M1889.22,1411.51a36.2,36.2,0,0,1-26.16-10.54,35.26,35.26,0,0,1,0-50.87,37.73,37.73,0,0,1,52.32,0,35.26,35.26,0,0,1,0,50.87A36.2,36.2,0,0,1,1889.22,1411.51Zm0-64.75a28.94,28.94,0,0,0-20.94,8.41,28.26,28.26,0,0,0,0,40.72,30.25,30.25,0,0,0,41.88,0,28.26,28.26,0,0,0,0-40.72A28.94,28.94,0,0,0,1889.22,1346.76Z"/><path class="cls-4" d="M2143.17,1411.51h-7.4v-9.72c-.39.43-.81.87-1.25,1.3a30.26,30.26,0,0,1-41.89,0,27.35,27.35,0,0,1-8.65-20.36v-43.17h7.4v43.17a20.5,20.5,0,0,0,6.51,15.25,22.6,22.6,0,0,0,31.37,0,20.5,20.5,0,0,0,6.51-15.25v-43.17h7.4Z"/><path class="cls-4" d="M2186.61,1347.62a23.25,23.25,0,0,0-6.44-.86,21.67,21.67,0,0,0-15.68,6.33,20.47,20.47,0,0,0-6.52,15.25v43.17h-7.4v-72h7.4v10.79a6.32,6.32,0,0,1,1.26-2.37,28.94,28.94,0,0,1,20.94-8.42,31.68,31.68,0,0,1,7.85.94Z"/><path class="cls-4" d="M2261.57,1404.31v-10.79q-1.56,5.61-3.4,7.41a37.73,37.73,0,0,1-52.36,0,35.26,35.26,0,0,1,0-50.87,37.84,37.84,0,0,1,52.36,0q1.85,1.88,3.4,7.49v-18h7.4v64.75a34.14,34.14,0,0,1-10.8,25.4,37.74,37.74,0,0,1-52.39,0l5.25-5a30.25,30.25,0,0,0,41.88,0A27.36,27.36,0,0,0,2261.57,1404.31Zm-8.66-8.42a28.26,28.26,0,0,0,0-40.72,30.27,30.27,0,0,0-41.88,0,28.26,28.26,0,0,0,0,40.72,30.25,30.25,0,0,0,41.88,0Z"/><path class="cls-4" d="M2343,1393.52q-1.56,5.61-3.41,7.41a37.72,37.72,0,0,1-52.35,0,35.26,35.26,0,0,1,0-50.87,37.82,37.82,0,0,1,52.35,0q1.84,1.88,3.41,7.49v-18h7.39v72H2343Zm-29.6-46.76a28.94,28.94,0,0,0-20.94,8.41,28.26,28.26,0,0,0,0,40.72,30.25,30.25,0,0,0,41.88,0,28.26,28.26,0,0,0,0-40.72A29,29,0,0,0,2313.37,1346.76Z"/><path class="cls-4" d="M2368.86,1339.56v-28.78h7.4v28.78h11.1v7.2h-11.1v46.76a10.27,10.27,0,0,0,3.26,7.63,10.83,10.83,0,0,0,7.84,3.16v7.2a18,18,0,0,1-13.09-5.26,17.06,17.06,0,0,1-5.41-12.73v-46.76h-11.09v-7.2Z"/><path class="cls-4" d="M2405.86,1339.56v-28.78h7.4v28.78h11.1v7.2h-11.1v46.76a10.27,10.27,0,0,0,3.26,7.63,10.83,10.83,0,0,0,7.84,3.16v7.2a18.09,18.09,0,0,1-13.1-5.26,17.09,17.09,0,0,1-5.4-12.73v-46.76h-11.1v-7.2Z"/><path class="cls-4" d="M2442.57,1350.06q10.13-9.78,1.4-1.29a38,38,0,0,1,51,1.29,34.37,34.37,0,0,1,10.8,25.47v3.6h-66.38a27.16,27.16,0,0,0,8.44,16.76,30.25,30.25,0,0,0,41.88,0L2495,1401a37.9,37.9,0,0,1-52.39,0,35.41,35.41,0,0,1-1.34-49.57Q2432.5,1359.92,2442.57,1350.06Zm55.57,21.88a27.16,27.16,0,0,0-8.44-16.77,30.27,30.27,0,0,0-41.88,0,27.21,27.21,0,0,0-8.44,16.77Z"/><path class="cls-5" d="M2047.65,1310.76q22,0,22,23.15v9.48a21.4,21.4,0,0,1-2.63,11,16.05,16.05,0,0,1-8.05,6.69q11.49,4.19,11.49,18.41v11q0,22-22.16,22h-48a1,1,0,0,1-1-1v-99.8a1,1,0,0,1,1-1Zm-38,90.34a1,1,0,0,0,1,1h35.93q13.65,0,13.65-13.25v-10.74q0-12.54-14.6-12.55h-.48a1,1,0,0,1-1-1v-7.35a1,1,0,0,1,1-1h.48q14.05,0,14.06-11.71v-8.93q0-14.36-13.65-14.36h-35.39a1,1,0,0,0-1,1Z"/></g></g></svg>