<svg xmlns="http://www.w3.org/2000/svg" viewBox="0 0 3840 2160"><defs><style>.cls-1{fill:#111216;}.cls-2{fill:#cc112c;}.cls-3{fill:#fffefe;}.cls-4{fill:#fff;}</style></defs><title>Asset 3</title><g id="Layer_2" data-name="Layer 2"><g id="Layer_1-2" data-name="Layer 1"><rect class="cls-1" width="3840" height="2160"/><path class="cls-2" d="M1642.74,1467.41q14.74-.12,14.86,14.92l.22,25.94q.14,15-14.6,15.16l-26.8.23-.05-5.75,26.18-.23q9.53-.08,9.44-9.75l-.22-25.17q-.07-9.66-9.59-9.58l-21,.17.42,50.27-5.83.05-.47-56Z"/><path class="cls-2" d="M1773.89,1466.3l0,5.76-29,.25.16,19,28.55-.24,0,5.52-28.54.24.16,20,29.32-.24.05,5.75-35.15.3-.47-56Z"/><path class="cls-2" d="M1890.75,1465.32l0,5.75-24.86.21q-6.9.06-6.85,7.2l.05,5.37q.06,6.38,6.27,6.32l16.5-.14q10.89-.1,11,11l.07,8q.1,12.29-12,12.38l-26.93.23,0-5.76,26.32-.22q7-.06,6.92-7.19l-.06-6.91q0-6.37-6.26-6.32l-16.58.14q-10.89.09-11-11l-.06-6.45q-.11-12.27,12-12.38Z"/><path class="cls-2" d="M1979.15,1464.57l.48,56-5.83.05-.48-56Z"/><path class="cls-2" d="M2100.4,1463.54l0,5.76-26.17.22q-7.76.06-7.68,8l.24,28.7q.06,7.9,7.82,7.84l15-.13a7,7,0,0,0,6.92-7l-.12-14-13.31.11a2.56,2.56,0,0,1-2.59-2.55h0a2.56,2.56,0,0,1,2.55-2.59l18.76-.16.17,20.49q.11,11.36-11.18,11.45l-17.27.15q-12.51.11-12.62-12.63l-.25-30.54q-.12-12.73,12.4-12.85Z"/><path class="cls-2" d="M2189.64,1462.79l31.16,45.39-.39-45.65,5.68,0,.48,56-5.14,0-32.4-46.69.4,47-5.68,0-.48-56Z"/><path class="cls-3" d="M1289.28,1293v66.57h37.82v7.62h-45.52V1293Z"/><path class="cls-3" d="M1394.41,1314.16q14.19,0,14.2,14v4.26q0,11.7-13.39,11.69h-30.83v-6h28.81q8.21,0,8.21-7v-2.44q0-8.13-8.31-8.13h-16q-10.44,0-10.44,10.78v18.19q0,10.47,10.13,10.46h30.11v7.22h-31q-16.53,0-16.52-17v-19.11q0-17,16.52-17Z"/><path class="cls-3" d="M1477.85,1314.16q16.51,0,16.52,17v19.11q0,17-16.52,17H1459.9q-16.53,0-16.52-17v-19.11q0-17,16.52-17ZM1450.78,1349q0,10.88,10.54,10.87h15.11q10.54,0,10.54-10.87v-16.67q0-10.77-10.54-10.77h-15.11q-10.54,0-10.54,10.77Z"/><path class="cls-3" d="M1564.32,1314.16q16.53,0,16.53,17v36.08h-7.41v-34.86q0-10.77-10.54-10.77h-25.14v45.63h-7.4v-53Z"/><path class="cls-3" d="M1648.77,1314.16q16.51,0,16.52,17v19.11q0,17-16.52,17h-18.66q-14.08,0-14.09-14V1349q0-11.79,13.38-11.79h30.74v6h-28.81q-8.2,0-8.21,7v2.44q0,8.13,8.31,8.13h16.12q10.35,0,10.34-10.77v-18.2q0-10.46-10-10.46h-30.22v-7.22Z"/><path class="cls-3" d="M1732,1314.26v7.32h-13q-10.44,0-10.44,10.87v34.76h-7.4v-36q0-17,16.52-17Z"/><path class="cls-3" d="M1814.92,1292.31v57.93q0,17-16.52,17H1781q-16.51,0-16.52-17v-19.11q0-17,16.52-17h28.81v7.42h-27.39q-10.55,0-10.54,10.77V1349q0,10.88,10.54,10.87H1797q10.55,0,10.54-10.87v-56.71Z"/><path class="cls-3" d="M1885,1314.16q16.51,0,16.52,17v19.11q0,17-16.52,17h-18q-16.53,0-16.52-17v-19.11q0-17,16.52-17ZM1857.91,1349q0,10.88,10.54,10.87h15.11q10.53,0,10.54-10.87v-16.67q0-10.77-10.54-10.77h-15.11q-10.54,0-10.54,10.77Z"/><path class="cls-3" d="M2021.53,1293q16.53,0,16.52,16.87v6.91a15.15,15.15,0,0,1-2,8,12,12,0,0,1-6,4.88q8.61,3,8.61,13.42v8q0,16.06-16.62,16.06h-36.7V1293ZM1993,1359.59h27.68q10.23,0,10.24-9.66v-7.82q0-9.15-11-9.15h-.53v-6.81h.53q10.54,0,10.54-8.53v-6.51q0-10.45-10.24-10.46H1993Z"/><path class="cls-3" d="M2079.92,1314.26V1349q0,10.88,10.44,10.87h14.5q10.54,0,10.54-10.87v-34.76h7.3v36q0,17-16.52,17h-17.13q-16.53,0-16.53-17v-36Z"/><path class="cls-3" d="M2189.82,1314.26v7.32h-13q-10.44,0-10.44,10.87v34.76H2159v-36q0-17,16.52-17Z"/><path class="cls-3" d="M2256.22,1314.16q16.52,0,16.52,17v36.08q0,18-16.52,18H2232V1378h22.81q10.54,0,10.54-11.58v-34.05q0-10.77-10.54-10.77h-14.6q-10.54,0-10.54,10.77v14.54q0,10.15,10.54,10.16h27.39V1364h-28.81q-16.53,0-16.53-16v-16.87q0-17,16.53-17Z"/><path class="cls-3" d="M2340.46,1314.16q16.53,0,16.53,17v19.11q0,17-16.53,17h-18.65q-14.1,0-14.09-14V1349q0-11.79,13.38-11.79h30.73v6H2323q-8.2,0-8.21,7v2.44q0,8.13,8.32,8.13h16.11q10.35,0,10.35-10.77v-18.2q0-10.46-10-10.46h-30.21v-7.22Z"/><path class="cls-3" d="M2406.66,1296.89v17.27h11.46v6.61h-11.46v46.44h-7.4v-46.44h-9.94v-6.61h9.94v-17.27Z"/><path class="cls-3" d="M2465.15,1296.89v17.27h11.46v6.61h-11.46v46.44h-7.4v-46.44h-9.93v-6.61h9.93v-17.27Z"/><path class="cls-3" d="M2544.23,1314.16q14.19,0,14.19,14v4.26q0,11.7-13.38,11.69H2514.2v-6H2543q8.22,0,8.21-7v-2.44q0-8.13-8.31-8.13h-16q-10.44,0-10.44,10.78v18.19q0,10.47,10.14,10.46h30.11v7.22h-31q-16.53,0-16.53-17v-19.11q0-17,16.53-17Z"/><path class="cls-2" d="M2162.74,1078.78l-12.22-44.51a.72.72,0,0,0-.88-.51l-310.73,85.32L1724.78,703.42l-43.36,11.91,126.72,461.55,19.78-5.43,334.32-91.79A.72.72,0,0,0,2162.74,1078.78Z"/><path class="cls-4" d="M1951.24,641.22q83.76-23,107.18,62.3l9.6,34.94q6.63,24.16,1.12,43.35t-23.8,33.06q47.91,3.43,62.3,55.84l11.15,40.6q22.29,81.2-62,104.33l-186,51.07-103-375.13Zm-52,376.23,140.28-38.52q51.9-14.25,38.5-63.07l-10.86-39.56q-12.7-46.26-68.2-31l-.61.12a3.81,3.81,0,0,1-4.69-2.67l-7.44-27.07a3.83,3.83,0,0,1,2.67-4.69l.62-.12Q2043,796.18,2031.12,753l-9-32.89q-14.52-52.92-66.43-38.68L1817.43,719.4Z"/></g></g></svg>