<?xml version="1.0" encoding="utf-8"?>
<!-- Generator: Adobe Illustrator 22.0.1, SVG Export Plug-In . SVG Version: 6.00 Build 0)  -->
<svg version="1.1" id="Layer_1" xmlns="http://www.w3.org/2000/svg" xmlns:xlink="http://www.w3.org/1999/xlink" x="0px" y="0px"
	 viewBox="0 0 313.9 554.3" style="enable-background:new 0 0 313.9 554.3;" xml:space="preserve">
<style type="text/css">
	.st0{display:none;}
	.st1{display:inline;fill:none;stroke:#000000;stroke-width:5;stroke-opacity:5.000000e-02;}
	.st2{display:inline;fill:none;stroke:#000000;stroke-width:3;stroke-opacity:0.1;}
	.st3{display:inline;fill:none;stroke:#000000;stroke-opacity:0.15;}
	.st4{display:inline;fill:#FFFFFF;fill-opacity:0.85;}
	.st5{fill:none;}
	.st6{fill:#2FA920;stroke:#FFFFFF;stroke-width:0.5096;stroke-linejoin:round;}
	.st7{fill:#B4ED1B;stroke:#FFFFFF;stroke-width:0.5096;stroke-linejoin:round;}
	.st8{fill:#DF6A00;stroke:#FFFFFF;stroke-width:0.5096;stroke-linejoin:round;}
	.st9{fill:#E52424;stroke:#FFFFFF;stroke-width:0.5096;stroke-linejoin:round;}
	.st10{fill:none;stroke:#2FA920;stroke-width:0.5096;}
	.st11{fill:none;stroke:#B4ED1B;stroke-width:0.5096;}
	.st12{fill:none;stroke:#DF6A00;stroke-width:0.5096;}
	.st13{fill:none;stroke:#E52424;stroke-width:0.5096;}
	.st14{enable-background:new    ;}
	.st15{fill:#333333;}
	.st16{fill:#2FA920;}
	.st17{fill:#B4ED1B;}
	.st18{fill:#DF6A00;}
	.st19{fill:#E52424;}
	.st20{fill:#B43232;stroke:#FFFFFF;stroke-width:0.5096;stroke-linejoin:round;}
	.st21{fill:#ED561B;stroke:#FFFFFF;stroke-width:0.5096;stroke-linejoin:round;}
	.st22{fill:#DDDF00;stroke:#FFFFFF;stroke-width:0.5096;stroke-linejoin:round;}
	.st23{fill:#8FE524;stroke:#FFFFFF;stroke-width:0.5096;stroke-linejoin:round;}
	.st24{fill:#0D941B;stroke:#FFFFFF;stroke-width:0.5096;stroke-linejoin:round;}
	.st25{fill:none;stroke:#B43232;stroke-width:0.5096;}
	.st26{fill:none;stroke:#ED561B;stroke-width:0.5096;}
	.st27{fill:none;stroke:#DDDF00;stroke-width:0.5096;}
	.st28{fill:none;stroke:#8FE524;stroke-width:0.5096;}
	.st29{fill:none;stroke:#0D941B;stroke-width:0.5096;}
	.st30{fill:#B43232;}
	.st31{fill:#ED561B;}
	.st32{fill:#DDDF00;}
	.st33{fill:#8FE524;}
	.st34{fill:#0D941B;}
	.st35{fill:#FFFFFF;}
	.st36{fill:#E8ECEF;}
	.st37{opacity:0.3;fill:#E8ECEF;}
	.st38{opacity:0.29;fill:none;stroke:#BC1330;stroke-width:8.274;stroke-miterlimit:10;}
	.st39{opacity:0.75;fill:#BC1330;}
	.st40{fill:#ECEBF0;}
</style>
<image style="overflow:visible;" width="1920" height="1080" xlink:href="96112D41.jpg"  transform="matrix(1 0 0 1 1923.0795 -139.823)">
</image>
<desc>Created with Highcharts 4.2.7</desc>
<g transform="translate(0,0)" class="st0">
	<path class="st1" d="M-281.6,99h10c3,0,3,0,3,3v10c0,3,0,3-3,3h-10c-3,0-3,0-3-3v-10C-284.6,99-284.6,99-281.6,99"/>
	<path class="st2" d="M-281.6,99h10c3,0,3,0,3,3v10c0,3,0,3-3,3h-10c-3,0-3,0-3-3v-10C-284.6,99-284.6,99-281.6,99"/>
	<path class="st3" d="M-281.6,99h10c3,0,3,0,3,3v10c0,3,0,3-3,3h-10c-3,0-3,0-3-3v-10C-284.6,99-284.6,99-281.6,99"/>
	<path class="st4" d="M-282.6,98h10c3,0,3,0,3,3v10c0,3,0,3-3,3h-10c-3,0-3,0-3-3v-10C-285.6,98-285.6,98-282.6,98"/>
</g>
<rect x="4.7" y="61.4" class="st5" width="304.8" height="202.8"/>
<g>
	<g transform="translate(10,10) scale(1 1)">
		<path class="st6" d="M147.1,77.2c39.8,0,72.1,32.3,72.1,72.1c0,39.8-32.3,72.1-72.1,72.1c-2.7,0-5.4-0.1-8-0.4l8-71.7l0,0
			L147.1,77.2z"/>
		<path class="st7" d="M139,220.9c-39.6-4.5-68-40.2-63.6-79.7c1.5-13.5,6.8-26.2,15.2-36.8l56.4,44.9l0,0L139,220.9z"/>
		<path class="st8" d="M90.7,104.3C102.7,89.4,120,79.8,139,77.6l8.2,71.7l0,0L90.7,104.3z"/>
		<path class="st9" d="M139,77.6c2.7-0.3,5.3-0.5,8-0.5l0.1,72.1l0,0L139,77.6z"/>
	</g>
	<g transform="translate(10,10) scale(1 1)">
	</g>
</g>
<path class="st10" d="M246.9,163.9c-2.5,0-6.6-0.2-12.2-0.5l-5.6-0.3"/>
<path class="st11" d="M73.8,192.5c2.5,0,6.3-1.6,11.5-3.7l5.2-2.1"/>
<path class="st12" d="M112.3,82.5c2.5,0,4.5,3.6,7.2,8.5l2.7,4.9"/>
<path class="st13" d="M149.7,71.6c2.5,0,2.8,4.2,3.1,9.8l0.3,5.6"/>
<g transform="translate(471,182)">
	<g class="st14">
		<path d="M-218.1-16.6c0-0.6,0.1-1.1,0.3-1.5c0.1-0.3,0.3-0.6,0.5-0.8c0.2-0.2,0.5-0.4,0.8-0.5c0.4-0.2,0.8-0.2,1.3-0.2
			c0.9,0,1.5,0.3,2.1,0.8c0.5,0.5,0.8,1.3,0.8,2.2c0,0.9-0.3,1.7-0.8,2.2c-0.5,0.5-1.2,0.8-2,0.8c-0.9,0-1.6-0.3-2.1-0.8
			C-217.8-14.9-218.1-15.7-218.1-16.6z M-216.9-16.6c0,0.7,0.2,1.2,0.5,1.5c0.3,0.3,0.7,0.5,1.2,0.5c0.5,0,0.9-0.2,1.2-0.5
			c0.3-0.3,0.5-0.8,0.5-1.5c0-0.7-0.1-1.2-0.4-1.5c-0.3-0.3-0.7-0.5-1.2-0.5c-0.5,0-0.9,0.2-1.2,0.5
			C-216.7-17.8-216.9-17.3-216.9-16.6z"/>
		<path d="M-212-17.9h0.6v-0.3c0-0.4,0-0.6,0.1-0.8c0.1-0.2,0.2-0.3,0.4-0.4c0.2-0.1,0.5-0.2,0.8-0.2c0.3,0,0.6,0,0.9,0.1l-0.2,0.8
			c-0.2,0-0.3-0.1-0.5-0.1c-0.2,0-0.3,0-0.3,0.1c-0.1,0.1-0.1,0.2-0.1,0.4v0.3h0.8v0.9h-0.8v3.3h-1.1v-3.3h-0.6V-17.9z"/>
		<path d="M-206.9-17.9v0.9h-0.8v1.7c0,0.3,0,0.5,0,0.6c0,0.1,0,0.1,0.1,0.1s0.1,0.1,0.2,0.1c0.1,0,0.3,0,0.4-0.1l0.1,0.9
			c-0.3,0.1-0.6,0.2-0.9,0.2c-0.2,0-0.4,0-0.5-0.1c-0.2-0.1-0.3-0.2-0.4-0.3c-0.1-0.1-0.1-0.3-0.2-0.4c0-0.1,0-0.4,0-0.8V-17h-0.5
			v-0.9h0.5v-0.8l1.1-0.7v1.5H-206.9z"/>
		<path d="M-203.7-15.1l1.1,0.2c-0.1,0.4-0.4,0.7-0.7,0.9c-0.3,0.2-0.7,0.3-1.2,0.3c-0.7,0-1.3-0.2-1.6-0.7
			c-0.3-0.4-0.4-0.9-0.4-1.5c0-0.7,0.2-1.2,0.5-1.6c0.4-0.4,0.8-0.6,1.4-0.6c0.6,0,1.1,0.2,1.5,0.6c0.4,0.4,0.5,1.1,0.5,1.9h-2.8
			c0,0.3,0.1,0.6,0.3,0.8c0.2,0.2,0.4,0.3,0.6,0.3c0.2,0,0.3,0,0.4-0.1C-203.8-14.7-203.7-14.8-203.7-15.1z M-203.6-16.2
			c0-0.3-0.1-0.6-0.3-0.7c-0.2-0.2-0.4-0.3-0.6-0.3c-0.2,0-0.4,0.1-0.6,0.3c-0.2,0.2-0.2,0.4-0.2,0.7H-203.6z"/>
		<path d="M-197.8-13.7h-1.1v-2.2c0-0.5,0-0.7-0.1-0.9c0-0.1-0.1-0.2-0.2-0.3c-0.1-0.1-0.2-0.1-0.4-0.1c-0.2,0-0.4,0.1-0.5,0.2
			c-0.2,0.1-0.3,0.2-0.3,0.4c-0.1,0.2-0.1,0.5-0.1,1v1.9h-1.1v-4.2h1v0.6c0.4-0.5,0.8-0.7,1.4-0.7c0.2,0,0.5,0,0.7,0.1
			c0.2,0.1,0.4,0.2,0.5,0.3c0.1,0.1,0.2,0.3,0.2,0.5c0,0.2,0.1,0.4,0.1,0.7V-13.7z"/>
		<path d="M-194.2-16.8v-1.1h1.1v1.1H-194.2z M-194.2-13.7v-1.1h1.1v1.1H-194.2z"/>
		<path d="M-185.9-14.7v1h-3.9c0-0.4,0.2-0.8,0.4-1.1c0.2-0.4,0.6-0.8,1.3-1.4c0.5-0.5,0.8-0.8,0.9-1c0.2-0.2,0.2-0.5,0.2-0.7
			c0-0.2-0.1-0.4-0.2-0.6c-0.1-0.1-0.3-0.2-0.6-0.2c-0.2,0-0.4,0.1-0.6,0.2c-0.1,0.1-0.2,0.4-0.2,0.7l-1.1-0.1
			c0.1-0.6,0.3-1.1,0.6-1.3c0.4-0.3,0.8-0.4,1.3-0.4c0.6,0,1,0.2,1.4,0.5c0.3,0.3,0.5,0.7,0.5,1.2c0,0.3,0,0.5-0.1,0.7
			c-0.1,0.2-0.2,0.5-0.4,0.7c-0.1,0.2-0.4,0.4-0.7,0.7c-0.4,0.3-0.6,0.5-0.7,0.6c-0.1,0.1-0.2,0.2-0.2,0.3H-185.9z"/>
		<path d="M-185.1-15.1l1.1-0.1c0,0.2,0.1,0.4,0.2,0.5c0.1,0.1,0.3,0.2,0.4,0.2c0.2,0,0.4-0.1,0.6-0.3c0.2-0.2,0.3-0.7,0.3-1.3
			c-0.3,0.3-0.6,0.5-1.1,0.5c-0.5,0-0.9-0.2-1.2-0.5c-0.3-0.4-0.5-0.8-0.5-1.4c0-0.6,0.2-1.1,0.5-1.4c0.4-0.4,0.8-0.5,1.3-0.5
			c0.6,0,1.1,0.2,1.5,0.7c0.4,0.5,0.6,1.2,0.6,2.3c0,1.1-0.2,1.8-0.6,2.3c-0.4,0.5-0.9,0.7-1.5,0.7c-0.5,0-0.8-0.1-1.1-0.4
			C-184.8-14.2-185-14.6-185.1-15.1z M-182.6-17.5c0-0.4-0.1-0.6-0.2-0.8c-0.2-0.2-0.4-0.3-0.6-0.3c-0.2,0-0.4,0.1-0.5,0.2
			c-0.1,0.2-0.2,0.4-0.2,0.8c0,0.4,0.1,0.7,0.2,0.8s0.3,0.3,0.6,0.3c0.2,0,0.4-0.1,0.5-0.3C-182.6-16.9-182.6-17.2-182.6-17.5z"/>
	</g>
</g>
<g transform="translate(38,238)">
	<g class="st14">
		<path d="M-26.7-43.8l1.2-0.1c0.1,0.4,0.2,0.7,0.4,0.9c0.2,0.2,0.5,0.3,0.9,0.3c0.4,0,0.7-0.1,0.9-0.2s0.3-0.4,0.3-0.6
			c0-0.1,0-0.3-0.1-0.4c-0.1-0.1-0.2-0.2-0.4-0.3c-0.1,0-0.5-0.1-1-0.3c-0.7-0.2-1.1-0.4-1.4-0.6c-0.4-0.3-0.6-0.7-0.6-1.2
			c0-0.3,0.1-0.6,0.3-0.9c0.2-0.3,0.4-0.5,0.8-0.6c0.3-0.1,0.7-0.2,1.2-0.2c0.8,0,1.3,0.2,1.7,0.5c0.4,0.3,0.6,0.8,0.6,1.3l-1.2,0.1
			c-0.1-0.3-0.2-0.5-0.3-0.7c-0.2-0.1-0.4-0.2-0.8-0.2c-0.4,0-0.6,0.1-0.8,0.2c-0.1,0.1-0.2,0.2-0.2,0.4c0,0.1,0.1,0.3,0.2,0.4
			c0.2,0.1,0.5,0.3,1.1,0.4c0.6,0.1,1,0.3,1.3,0.4c0.3,0.2,0.5,0.4,0.7,0.6c0.2,0.3,0.2,0.6,0.2,1c0,0.3-0.1,0.7-0.3,1
			c-0.2,0.3-0.5,0.5-0.8,0.7c-0.4,0.1-0.8,0.2-1.3,0.2c-0.8,0-1.4-0.2-1.8-0.5C-26.4-42.6-26.6-43.1-26.7-43.8z"/>
		<path d="M-21-44.1c0-0.4,0.1-0.8,0.3-1.1c0.2-0.4,0.5-0.6,0.8-0.8c0.3-0.2,0.7-0.3,1.2-0.3c0.7,0,1.2,0.2,1.6,0.6
			c0.4,0.4,0.6,1,0.6,1.6c0,0.7-0.2,1.2-0.6,1.7c-0.4,0.4-1,0.7-1.6,0.7c-0.4,0-0.8-0.1-1.2-0.3c-0.4-0.2-0.6-0.4-0.8-0.8
			C-20.9-43.2-21-43.6-21-44.1z M-19.8-44c0,0.4,0.1,0.8,0.3,1c0.2,0.2,0.5,0.3,0.8,0.3c0.3,0,0.6-0.1,0.8-0.3
			c0.2-0.2,0.3-0.6,0.3-1c0-0.4-0.1-0.8-0.3-1c-0.2-0.2-0.5-0.3-0.8-0.3c-0.3,0-0.6,0.1-0.8,0.3C-19.7-44.8-19.8-44.5-19.8-44z"/>
		<path d="M-15.7-46.2h1.1v0.6c0.4-0.5,0.8-0.7,1.4-0.7c0.3,0,0.5,0.1,0.7,0.2c0.2,0.1,0.4,0.3,0.5,0.5c0.2-0.2,0.4-0.4,0.6-0.5
			c0.2-0.1,0.5-0.2,0.7-0.2c0.3,0,0.6,0.1,0.8,0.2c0.2,0.1,0.4,0.3,0.5,0.6c0.1,0.2,0.1,0.5,0.1,0.9v2.8h-1.2v-2.5
			c0-0.4,0-0.7-0.1-0.8c-0.1-0.2-0.3-0.2-0.5-0.2c-0.2,0-0.3,0-0.5,0.1c-0.1,0.1-0.2,0.2-0.3,0.4c-0.1,0.2-0.1,0.5-0.1,0.9v2.1H-13
			v-2.4c0-0.4,0-0.7-0.1-0.8c0-0.1-0.1-0.2-0.2-0.3c-0.1-0.1-0.2-0.1-0.4-0.1c-0.2,0-0.3,0-0.5,0.1c-0.1,0.1-0.2,0.2-0.3,0.4
			s-0.1,0.5-0.1,0.9v2.1h-1.2V-46.2z"/>
		<path d="M-5.5-43.2l1.2,0.2c-0.1,0.4-0.4,0.7-0.7,1c-0.3,0.2-0.7,0.3-1.2,0.3C-7-41.7-7.6-42-8-42.5c-0.3-0.4-0.4-0.9-0.4-1.5
			c0-0.7,0.2-1.3,0.6-1.7c0.4-0.4,0.9-0.6,1.4-0.6c0.7,0,1.2,0.2,1.5,0.6c0.4,0.4,0.6,1.1,0.5,2h-2.9c0,0.3,0.1,0.6,0.3,0.8
			c0.2,0.2,0.4,0.3,0.7,0.3c0.2,0,0.3-0.1,0.5-0.1C-5.7-42.9-5.6-43-5.5-43.2z M-5.4-44.4c0-0.3-0.1-0.6-0.3-0.8
			c-0.2-0.2-0.4-0.3-0.6-0.3c-0.3,0-0.5,0.1-0.6,0.3c-0.2,0.2-0.2,0.4-0.2,0.8H-5.4z"/>
		<path d="M-1.3-46.2v0.9h-0.8v1.8c0,0.4,0,0.6,0,0.6c0,0.1,0,0.1,0.1,0.1s0.1,0.1,0.2,0.1c0.1,0,0.3,0,0.5-0.1l0.1,0.9
			c-0.3,0.1-0.6,0.2-0.9,0.2c-0.2,0-0.4,0-0.6-0.1C-2.9-41.9-3-42-3.1-42.1c-0.1-0.1-0.1-0.3-0.2-0.5c0-0.1,0-0.4,0-0.8v-1.9h-0.5
			v-0.9h0.5v-0.9l1.2-0.7v1.6H-1.3z"/>
		<path d="M-0.5-46.8v-1.1h1.2v1.1H-0.5z M-0.5-41.8v-4.4h1.2v4.4H-0.5z"/>
		<path d="M1.7-46.2h1.1v0.6c0.4-0.5,0.8-0.7,1.4-0.7c0.3,0,0.5,0.1,0.7,0.2c0.2,0.1,0.4,0.3,0.5,0.5C5.6-45.9,5.8-46,6-46.2
			c0.2-0.1,0.5-0.2,0.7-0.2c0.3,0,0.6,0.1,0.8,0.2C7.8-46,8-45.8,8.1-45.6c0.1,0.2,0.1,0.5,0.1,0.9v2.8H7v-2.5c0-0.4,0-0.7-0.1-0.8
			c-0.1-0.2-0.3-0.2-0.5-0.2c-0.2,0-0.3,0-0.5,0.1c-0.1,0.1-0.2,0.2-0.3,0.4c-0.1,0.2-0.1,0.5-0.1,0.9v2.1H4.4v-2.4
			c0-0.4,0-0.7-0.1-0.8c0-0.1-0.1-0.2-0.2-0.3c-0.1-0.1-0.2-0.1-0.4-0.1c-0.2,0-0.3,0-0.5,0.1c-0.1,0.1-0.2,0.2-0.3,0.4
			c-0.1,0.2-0.1,0.5-0.1,0.9v2.1H1.7V-46.2z"/>
		<path d="M11.9-43.2l1.2,0.2c-0.1,0.4-0.4,0.7-0.7,1c-0.3,0.2-0.7,0.3-1.2,0.3c-0.8,0-1.3-0.2-1.7-0.7C9.2-42.9,9-43.4,9-44
			c0-0.7,0.2-1.3,0.6-1.7c0.4-0.4,0.9-0.6,1.4-0.6c0.7,0,1.2,0.2,1.5,0.6c0.4,0.4,0.6,1.1,0.5,2h-2.9c0,0.3,0.1,0.6,0.3,0.8
			c0.2,0.2,0.4,0.3,0.7,0.3c0.2,0,0.3-0.1,0.5-0.1C11.7-42.9,11.8-43,11.9-43.2z M12-44.4c0-0.3-0.1-0.6-0.3-0.8
			c-0.2-0.2-0.4-0.3-0.6-0.3c-0.3,0-0.5,0.1-0.6,0.3c-0.2,0.2-0.2,0.4-0.2,0.8H12z"/>
		<path d="M13.7-43.1l1.2-0.2c0,0.2,0.1,0.4,0.3,0.5c0.2,0.1,0.4,0.2,0.6,0.2c0.3,0,0.5-0.1,0.7-0.2c0.1-0.1,0.2-0.2,0.2-0.3
			c0-0.1,0-0.2-0.1-0.2c-0.1-0.1-0.2-0.1-0.4-0.2c-0.9-0.2-1.5-0.4-1.8-0.6c-0.3-0.2-0.5-0.6-0.5-1c0-0.4,0.2-0.7,0.5-1
			c0.3-0.3,0.8-0.4,1.4-0.4c0.6,0,1,0.1,1.3,0.3c0.3,0.2,0.5,0.5,0.6,0.9L16.5-45c0-0.2-0.1-0.3-0.3-0.4c-0.1-0.1-0.3-0.1-0.6-0.1
			c-0.3,0-0.5,0-0.7,0.1c-0.1,0.1-0.1,0.1-0.1,0.2c0,0.1,0,0.2,0.1,0.2c0.1,0.1,0.5,0.2,1.1,0.3c0.6,0.1,1,0.3,1.3,0.5
			c0.2,0.2,0.4,0.5,0.4,0.9c0,0.4-0.2,0.7-0.5,1c-0.3,0.3-0.8,0.4-1.5,0.4c-0.6,0-1.1-0.1-1.4-0.4C14-42.3,13.8-42.7,13.7-43.1z"/>
		<path d="M21.3-45.1v-1.2h1.2v1.2H21.3z M21.3-41.8V-43h1.2v1.2H21.3z"/>
		<path d="M29-41.8h-1.2v-4.4c-0.4,0.4-0.9,0.7-1.5,0.9v-1.1c0.3-0.1,0.6-0.3,1-0.6c0.4-0.3,0.6-0.6,0.7-1H29V-41.8z"/>
		<path d="M30.8-43.2l1.1-0.1c0,0.2,0.1,0.4,0.2,0.5c0.1,0.1,0.3,0.2,0.5,0.2c0.2,0,0.4-0.1,0.6-0.3c0.2-0.2,0.3-0.7,0.3-1.4
			c-0.3,0.3-0.7,0.5-1.1,0.5c-0.5,0-0.9-0.2-1.2-0.6c-0.3-0.4-0.5-0.8-0.5-1.4c0-0.6,0.2-1.1,0.5-1.5c0.4-0.4,0.8-0.6,1.4-0.6
			c0.6,0,1.1,0.2,1.5,0.7c0.4,0.5,0.6,1.3,0.6,2.3c0,1.1-0.2,1.9-0.6,2.4c-0.4,0.5-0.9,0.7-1.6,0.7c-0.5,0-0.9-0.1-1.1-0.4
			C31-42.4,30.9-42.7,30.8-43.2z M33.4-45.8c0-0.4-0.1-0.7-0.3-0.9C33-46.9,32.8-47,32.6-47c-0.2,0-0.4,0.1-0.5,0.3
			c-0.1,0.2-0.2,0.4-0.2,0.8c0,0.4,0.1,0.7,0.2,0.9c0.2,0.2,0.3,0.3,0.6,0.3c0.2,0,0.4-0.1,0.6-0.3C33.3-45.2,33.4-45.4,33.4-45.8z"
			/>
	</g>
</g>
<g transform="translate(142,22)">
	<g class="st14">
		<path d="M-72.3,62.2v-5.8h2.5c0.6,0,1.1,0.1,1.3,0.2c0.3,0.1,0.5,0.3,0.7,0.6c0.2,0.3,0.3,0.6,0.3,0.9c0,0.4-0.1,0.8-0.4,1.1
			c-0.3,0.3-0.6,0.5-1.1,0.5c0.3,0.1,0.5,0.3,0.6,0.5c0.2,0.2,0.4,0.5,0.7,0.9l0.7,1.1h-1.4l-0.8-1.3c-0.3-0.5-0.5-0.7-0.6-0.9
			s-0.2-0.2-0.4-0.2c-0.1,0-0.3-0.1-0.6-0.1h-0.2v2.4H-72.3z M-71.2,58.9h0.9c0.6,0,0.9,0,1.1-0.1c0.1,0,0.2-0.1,0.3-0.2
			c0.1-0.1,0.1-0.3,0.1-0.4c0-0.2-0.1-0.4-0.2-0.5c-0.1-0.1-0.3-0.2-0.4-0.2c-0.1,0-0.4,0-0.9,0h-0.9V58.9z"/>
		<path d="M-65.7,59.3l-1-0.2c0.1-0.4,0.3-0.7,0.6-0.9c0.3-0.2,0.7-0.3,1.2-0.3c0.5,0,0.9,0.1,1.1,0.2s0.4,0.3,0.5,0.4
			s0.1,0.5,0.1,1l0,1.3c0,0.4,0,0.6,0.1,0.8c0,0.2,0.1,0.4,0.2,0.6H-64c0-0.1-0.1-0.2-0.1-0.3c0-0.1,0-0.1,0-0.1
			c-0.2,0.2-0.4,0.3-0.6,0.4c-0.2,0.1-0.4,0.1-0.7,0.1c-0.4,0-0.8-0.1-1-0.4c-0.2-0.2-0.4-0.5-0.4-0.9c0-0.2,0.1-0.4,0.2-0.6
			c0.1-0.2,0.3-0.3,0.5-0.4c0.2-0.1,0.5-0.2,0.9-0.3c0.5-0.1,0.9-0.2,1.1-0.3v-0.1c0-0.2-0.1-0.4-0.2-0.5c-0.1-0.1-0.3-0.1-0.6-0.1
			c-0.2,0-0.4,0-0.5,0.1C-65.5,59-65.6,59.1-65.7,59.3z M-64.2,60.2c-0.1,0-0.4,0.1-0.7,0.2c-0.3,0.1-0.5,0.1-0.6,0.2
			c-0.1,0.1-0.2,0.2-0.2,0.4c0,0.2,0.1,0.3,0.2,0.4c0.1,0.1,0.3,0.2,0.4,0.2c0.2,0,0.4-0.1,0.6-0.2c0.1-0.1,0.2-0.2,0.3-0.4
			c0-0.1,0-0.3,0-0.5V60.2z"/>
		<path d="M-60.9,62.2h-1.1v-4.2h1v0.6c0.2-0.3,0.3-0.5,0.5-0.6c0.1-0.1,0.3-0.1,0.5-0.1c0.3,0,0.5,0.1,0.7,0.2l-0.3,1
			C-59.9,59-60,59-60.2,59c-0.2,0-0.3,0-0.4,0.1c-0.1,0.1-0.2,0.2-0.3,0.5c-0.1,0.2-0.1,0.7-0.1,1.4V62.2z"/>
		<path d="M-56.4,60.9l1.1,0.2c-0.1,0.4-0.4,0.7-0.7,0.9c-0.3,0.2-0.7,0.3-1.2,0.3c-0.7,0-1.3-0.2-1.6-0.7c-0.3-0.4-0.4-0.9-0.4-1.4
			c0-0.7,0.2-1.2,0.5-1.6c0.4-0.4,0.8-0.6,1.4-0.6c0.6,0,1.1,0.2,1.5,0.6c0.4,0.4,0.5,1,0.5,1.9H-58c0,0.3,0.1,0.6,0.3,0.8
			c0.2,0.2,0.4,0.3,0.6,0.3c0.2,0,0.3,0,0.4-0.1C-56.6,61.3-56.5,61.1-56.4,60.9z M-56.4,59.8c0-0.3-0.1-0.6-0.2-0.7
			c-0.2-0.2-0.4-0.3-0.6-0.3c-0.2,0-0.4,0.1-0.6,0.3c-0.2,0.2-0.2,0.4-0.2,0.7H-56.4z"/>
		<path d="M-54.4,62.2v-5.8h1.1v5.8H-54.4z"/>
		<path d="M-52.6,58.1h1.2l1,3l1-3h1.1l-1.5,4l-0.3,0.7c-0.1,0.2-0.2,0.4-0.3,0.6c-0.1,0.1-0.2,0.2-0.3,0.3
			c-0.1,0.1-0.3,0.1-0.4,0.2c-0.2,0-0.4,0.1-0.6,0.1c-0.2,0-0.4,0-0.6-0.1l-0.1-0.9c0.2,0,0.3,0.1,0.5,0.1c0.3,0,0.4-0.1,0.6-0.2
			c0.1-0.2,0.2-0.3,0.3-0.6L-52.6,58.1z"/>
		<path d="M-45.2,59.2v-1.1h1.1v1.1H-45.2z M-45.2,62.2v-1.1h1.1v1.1H-45.2z"/>
		<path d="M-40.7,57.6v-1h3.8v0.8c-0.3,0.3-0.6,0.8-1,1.3c-0.3,0.6-0.6,1.2-0.7,1.8c-0.2,0.6-0.3,1.2-0.3,1.7h-1.1
			c0-0.8,0.2-1.6,0.5-2.4c0.3-0.8,0.7-1.6,1.3-2.2H-40.7z"/>
	</g>
</g>
<g transform="translate(218,1)">
	<g class="st14">
		<path d="M-104.6,66.3v-5.8h1.1l2.4,3.9v-3.9h1.1v5.8h-1.2l-2.3-3.8v3.8H-104.6z"/>
		<path d="M-96.3,64.9l1.1,0.2c-0.1,0.4-0.4,0.7-0.7,0.9c-0.3,0.2-0.7,0.3-1.2,0.3c-0.7,0-1.3-0.2-1.6-0.7c-0.3-0.4-0.4-0.9-0.4-1.4
			c0-0.7,0.2-1.2,0.5-1.6c0.4-0.4,0.8-0.6,1.4-0.6c0.6,0,1.1,0.2,1.5,0.6c0.4,0.4,0.5,1,0.5,1.9H-98c0,0.3,0.1,0.6,0.3,0.8
			s0.4,0.3,0.6,0.3c0.2,0,0.3,0,0.4-0.1C-96.5,65.3-96.4,65.1-96.3,64.9z M-96.3,63.8c0-0.3-0.1-0.6-0.2-0.7
			c-0.2-0.2-0.4-0.3-0.6-0.3c-0.2,0-0.4,0.1-0.6,0.3c-0.2,0.2-0.2,0.4-0.2,0.7H-96.3z"/>
		<path d="M-93.1,66.3l-1.7-4.2h1.2l0.8,2.1l0.2,0.7c0.1-0.2,0.1-0.3,0.1-0.4c0-0.1,0.1-0.2,0.1-0.4l0.8-2.1h1.1l-1.7,4.2H-93.1z"/>
		<path d="M-87.4,64.9l1.1,0.2c-0.1,0.4-0.4,0.7-0.7,0.9c-0.3,0.2-0.7,0.3-1.1,0.3c-0.7,0-1.3-0.2-1.6-0.7c-0.3-0.4-0.4-0.9-0.4-1.4
			c0-0.7,0.2-1.2,0.5-1.6c0.4-0.4,0.8-0.6,1.4-0.6c0.6,0,1.1,0.2,1.5,0.6c0.4,0.4,0.5,1,0.5,1.9H-89c0,0.3,0.1,0.6,0.3,0.8
			c0.2,0.2,0.4,0.3,0.6,0.3c0.2,0,0.3,0,0.4-0.1C-87.5,65.3-87.4,65.1-87.4,64.9z M-87.3,63.8c0-0.3-0.1-0.6-0.2-0.7
			c-0.2-0.2-0.4-0.3-0.6-0.3c-0.2,0-0.4,0.1-0.6,0.3c-0.2,0.2-0.2,0.4-0.2,0.7H-87.3z"/>
		<path d="M-84.2,66.3h-1.1v-4.2h1v0.6c0.2-0.3,0.3-0.5,0.5-0.6c0.1-0.1,0.3-0.1,0.5-0.1c0.3,0,0.5,0.1,0.7,0.2l-0.3,1
			c-0.2-0.1-0.4-0.2-0.5-0.2c-0.2,0-0.3,0-0.4,0.1c-0.1,0.1-0.2,0.2-0.3,0.5s-0.1,0.7-0.1,1.4V66.3z"/>
		<path d="M-79.7,63.2v-1.1h1.1v1.1H-79.7z M-79.7,66.3v-1.1h1.1v1.1H-79.7z"/>
		<path d="M-72.3,66.3h-1.1v-4.2c-0.4,0.4-0.9,0.7-1.4,0.8v-1c0.3-0.1,0.6-0.3,0.9-0.5c0.3-0.3,0.6-0.6,0.7-0.9h0.9V66.3z"/>
	</g>
</g>
<g transform="translate(137,356)">
	<g>
		<g>
			<g transform="translate(8,3)">
				<g class="st14">
					<path class="st15" d="M-58.5-110.8c-0.5,0-0.9-0.2-1.2-0.5c-0.3-0.3-0.5-0.8-0.5-1.4s0.2-1,0.5-1.4c0.3-0.3,0.7-0.5,1.2-0.5
						c0.5,0,0.9,0.2,1.2,0.5c0.3,0.3,0.5,0.8,0.5,1.4s-0.2,1-0.5,1.4C-57.6-110.9-58-110.8-58.5-110.8z M-58.5-111.1
						c0.4,0,0.6-0.1,0.8-0.4c0.2-0.3,0.3-0.6,0.3-1.1c0-0.5-0.1-0.8-0.3-1.1c-0.2-0.3-0.5-0.4-0.8-0.4c-0.4,0-0.6,0.1-0.8,0.4
						c-0.2,0.3-0.3,0.6-0.3,1.1c0,0.5,0.1,0.8,0.3,1.1C-59.1-111.3-58.8-111.1-58.5-111.1z"/>
					<path class="st15" d="M-56-110.8v-2.2h-0.4v-0.4h0.4v-0.3c0-0.6,0.3-0.9,0.8-0.9c0.2,0,0.3,0,0.5,0.1v0.4
						c-0.2-0.1-0.4-0.1-0.5-0.1c-0.2,0-0.3,0-0.3,0.1c-0.1,0.1-0.1,0.2-0.1,0.4v0.4h0.7v0.4h-0.7v2.2H-56z"/>
					<path class="st15" d="M-53.1-110.8c-0.1,0-0.3,0.1-0.4,0.1c-0.2,0-0.4-0.1-0.6-0.2c-0.1-0.1-0.2-0.3-0.2-0.6v-1.5h-0.3v-0.4
						h0.3v-0.5l0.5,0v0.5h0.7v0.4h-0.7v1.4c0,0.3,0.1,0.5,0.4,0.5c0.1,0,0.1,0,0.2,0V-110.8z"/>
					<path class="st15" d="M-50.6-110.9c-0.3,0.1-0.6,0.1-0.8,0.1c-0.4,0-0.7-0.1-0.9-0.4c-0.2-0.3-0.4-0.6-0.4-1
						c0-0.4,0.1-0.7,0.3-1c0.2-0.3,0.5-0.4,0.8-0.4c0.3,0,0.6,0.1,0.7,0.3c0.2,0.2,0.3,0.5,0.3,1l0,0.1h-1.6
						c0.1,0.6,0.4,0.9,0.9,0.9c0.2,0,0.4-0.1,0.7-0.2V-110.9z M-52.2-112.4h1.1c0-0.5-0.2-0.7-0.5-0.7
						C-51.9-113.1-52.1-112.9-52.2-112.4z"/>
					<path class="st15" d="M-49.7-110.8v-2.6h0.5v0.5c0.2-0.4,0.6-0.5,0.9-0.5c0.2,0,0.4,0.1,0.5,0.2c0.1,0.1,0.2,0.3,0.2,0.6v1.9
						h-0.5v-1.7c0-0.2,0-0.3-0.1-0.4c-0.1-0.1-0.2-0.1-0.3-0.1c-0.3,0-0.6,0.2-0.8,0.6v1.7H-49.7z"/>
				</g>
				<rect x="-71.8" y="-116.8" class="st16" width="8.7" height="6.5"/>
			</g>
			<g transform="translate(81.34375,3)">
				<g class="st14">
					<path class="st15" d="M-93.6-110.9v-0.5c0.4,0.2,0.7,0.3,1,0.3c0.2,0,0.4-0.1,0.5-0.2c0.1-0.1,0.2-0.2,0.2-0.4
						c0-0.1,0-0.3-0.1-0.4c-0.1-0.1-0.2-0.2-0.4-0.3l-0.2-0.1c-0.3-0.2-0.5-0.3-0.6-0.5c-0.1-0.2-0.2-0.3-0.2-0.5
						c0-0.3,0.1-0.5,0.3-0.7c0.2-0.2,0.4-0.3,0.8-0.3c0.3,0,0.6,0,0.9,0.1v0.5c-0.4-0.1-0.7-0.2-0.8-0.2c-0.2,0-0.3,0-0.4,0.1
						c-0.1,0.1-0.2,0.2-0.2,0.3c0,0.1,0,0.2,0.1,0.3c0.1,0.1,0.2,0.2,0.5,0.3l0.3,0.1c0.3,0.2,0.5,0.3,0.6,0.5
						c0.1,0.2,0.2,0.3,0.2,0.6c0,0.3-0.1,0.6-0.3,0.7c-0.2,0.2-0.5,0.3-0.9,0.3C-92.9-110.8-93.2-110.8-93.6-110.9z"/>
					<path class="st15" d="M-89.7-110.8c-0.4,0-0.7-0.1-0.9-0.4c-0.2-0.2-0.3-0.6-0.3-1c0-0.4,0.1-0.7,0.3-1
						c0.2-0.2,0.5-0.4,0.9-0.4c0.4,0,0.7,0.1,0.9,0.4c0.2,0.2,0.3,0.6,0.3,1c0,0.4-0.1,0.7-0.3,1C-89-110.9-89.3-110.8-89.7-110.8z
						 M-89.7-111.1c0.2,0,0.4-0.1,0.5-0.3c0.1-0.2,0.2-0.4,0.2-0.7s-0.1-0.6-0.2-0.7c-0.1-0.2-0.3-0.3-0.5-0.3
						c-0.2,0-0.4,0.1-0.5,0.3c-0.1,0.2-0.2,0.4-0.2,0.7s0.1,0.6,0.2,0.7C-90.1-111.2-89.9-111.1-89.7-111.1z"/>
					<path class="st15" d="M-87.7-110.8v-2.6h0.5v0.5c0.2-0.4,0.5-0.5,0.9-0.5c0.3,0,0.6,0.2,0.7,0.5c0.2-0.4,0.5-0.5,0.9-0.5
						c0.2,0,0.4,0.1,0.5,0.2c0.1,0.1,0.2,0.3,0.2,0.6v1.9h-0.5v-1.8c0-0.3-0.1-0.4-0.4-0.4c-0.2,0-0.5,0.2-0.8,0.5v1.7h-0.5v-1.8
						c0-0.3-0.1-0.4-0.4-0.4c-0.2,0-0.5,0.2-0.8,0.5v1.7H-87.7z"/>
					<path class="st15" d="M-81.3-110.9c-0.3,0.1-0.6,0.1-0.8,0.1c-0.4,0-0.7-0.1-0.9-0.4c-0.2-0.3-0.4-0.6-0.4-1
						c0-0.4,0.1-0.7,0.3-1c0.2-0.3,0.5-0.4,0.8-0.4c0.3,0,0.6,0.1,0.7,0.3c0.2,0.2,0.3,0.5,0.3,1l0,0.1h-1.6
						c0.1,0.6,0.4,0.9,0.9,0.9c0.2,0,0.4-0.1,0.7-0.2V-110.9z M-82.9-112.4h1.1c0-0.5-0.2-0.7-0.5-0.7
						C-82.6-113.1-82.8-112.9-82.9-112.4z"/>
					<path class="st15" d="M-79.3-110.8c-0.1,0-0.3,0.1-0.4,0.1c-0.2,0-0.4-0.1-0.6-0.2c-0.1-0.1-0.2-0.3-0.2-0.6v-1.5h-0.3v-0.4
						h0.3v-0.5l0.5,0v0.5h0.7v0.4h-0.7v1.4c0,0.3,0.1,0.5,0.4,0.5c0.1,0,0.1,0,0.2,0V-110.8z"/>
					<path class="st15" d="M-78.6-113.9v-0.5h0.5v0.5H-78.6z M-78.6-110.8v-2.6h0.5v2.6H-78.6z"/>
					<path class="st15" d="M-77.2-110.8v-2.6h0.5v0.5c0.2-0.4,0.5-0.5,0.9-0.5c0.3,0,0.6,0.2,0.7,0.5c0.2-0.4,0.5-0.5,0.9-0.5
						c0.2,0,0.4,0.1,0.5,0.2c0.1,0.1,0.2,0.3,0.2,0.6v1.9H-74v-1.8c0-0.3-0.1-0.4-0.4-0.4c-0.2,0-0.5,0.2-0.8,0.5v1.7h-0.5v-1.8
						c0-0.3-0.1-0.4-0.4-0.4c-0.2,0-0.5,0.2-0.8,0.5v1.7H-77.2z"/>
					<path class="st15" d="M-70.7-110.9c-0.3,0.1-0.6,0.1-0.8,0.1c-0.4,0-0.7-0.1-0.9-0.4c-0.2-0.3-0.4-0.6-0.4-1
						c0-0.4,0.1-0.7,0.3-1c0.2-0.3,0.5-0.4,0.8-0.4c0.3,0,0.6,0.1,0.7,0.3c0.2,0.2,0.3,0.5,0.3,1l0,0.1h-1.6
						c0.1,0.6,0.4,0.9,0.9,0.9c0.2,0,0.4-0.1,0.7-0.2V-110.9z M-72.3-112.4h1.1c0-0.5-0.2-0.7-0.5-0.7
						C-72.1-113.1-72.3-112.9-72.3-112.4z"/>
					<path class="st15" d="M-70-110.9v-0.4c0.3,0.2,0.6,0.2,0.8,0.2c0.1,0,0.2,0,0.3-0.1c0.1-0.1,0.1-0.2,0.1-0.3
						c0-0.2-0.1-0.3-0.4-0.4l-0.3-0.1c-0.4-0.2-0.6-0.4-0.6-0.7c0-0.2,0.1-0.4,0.2-0.5c0.2-0.1,0.4-0.2,0.7-0.2c0.1,0,0.3,0,0.5,0.1
						l0.1,0v0.4c-0.3-0.1-0.5-0.1-0.6-0.1c-0.1,0-0.2,0-0.3,0.1c-0.1,0.1-0.1,0.1-0.1,0.2c0,0.1,0.1,0.3,0.3,0.4l0.2,0.1
						c0.3,0.1,0.4,0.2,0.5,0.3c0.1,0.1,0.2,0.3,0.2,0.5c0,0.2-0.1,0.4-0.3,0.6c-0.2,0.1-0.4,0.2-0.7,0.2
						C-69.4-110.8-69.7-110.8-70-110.9z"/>
				</g>
				<rect x="-105.3" y="-116.8" class="st17" width="8.7" height="6.5"/>
			</g>
			<g transform="translate(186.015625,3)">
				<g class="st14">
					<path class="st15" d="M-141.1-110.8v-3.5h1.1c0.3,0,0.6,0.1,0.8,0.2c0.2,0.2,0.3,0.4,0.3,0.7c0,0.2-0.1,0.4-0.2,0.6
						c-0.1,0.2-0.3,0.3-0.5,0.4l1.2,1.7h-0.6l-1-1.5h-0.5v1.5H-141.1z M-140.6-112.7h0.2c0.3,0,0.5-0.1,0.7-0.2
						c0.2-0.1,0.2-0.3,0.2-0.6c0-0.4-0.3-0.5-0.8-0.5h-0.3V-112.7z"/>
					<path class="st15" d="M-136.7-111.2c-0.3,0.3-0.6,0.4-0.8,0.4c-0.2,0-0.4-0.1-0.5-0.2c-0.1-0.1-0.2-0.3-0.2-0.5
						c0-0.3,0.1-0.5,0.4-0.7c0.2-0.2,0.6-0.2,1-0.2h0.1v-0.3c0-0.3-0.2-0.5-0.5-0.5c-0.2,0-0.5,0.1-0.8,0.2v-0.4
						c0.3-0.1,0.6-0.2,0.9-0.2c0.3,0,0.5,0.1,0.6,0.2c0.1,0.1,0.2,0.3,0.2,0.6v1.2c0,0.3,0.1,0.4,0.2,0.4c0,0,0.1,0,0.1,0l0,0.3
						c-0.1,0.1-0.2,0.1-0.4,0.1C-136.5-110.8-136.6-110.9-136.7-111.2z M-136.8-111.4v-0.7l-0.2,0c-0.3,0-0.5,0-0.6,0.1
						c-0.2,0.1-0.2,0.2-0.2,0.4c0,0.1,0,0.2,0.1,0.3c0.1,0.1,0.2,0.1,0.3,0.1C-137.2-111.2-137-111.3-136.8-111.4z"/>
					<path class="st15" d="M-135.3-110.8v-2.6h0.5v0.5c0.2-0.4,0.5-0.5,0.8-0.5c0,0,0.1,0,0.2,0v0.4c-0.1,0-0.2,0-0.2,0
						c-0.3,0-0.5,0.2-0.7,0.5v1.7H-135.3z"/>
					<path class="st15" d="M-131.4-110.9c-0.3,0.1-0.6,0.1-0.8,0.1c-0.4,0-0.7-0.1-0.9-0.4c-0.2-0.3-0.4-0.6-0.4-1
						c0-0.4,0.1-0.7,0.3-1c0.2-0.3,0.5-0.4,0.8-0.4c0.3,0,0.6,0.1,0.7,0.3c0.2,0.2,0.3,0.5,0.3,1l0,0.1h-1.6
						c0.1,0.6,0.4,0.9,0.9,0.9c0.2,0,0.4-0.1,0.7-0.2V-110.9z M-133-112.4h1.1c0-0.5-0.2-0.7-0.5-0.7
						C-132.8-113.1-133-112.9-133-112.4z"/>
					<path class="st15" d="M-130.6-110.8v-3.8h0.5v3.8H-130.6z"/>
					<path class="st15" d="M-129-109.9l0.4-0.9l-1-2.6h0.5l0.7,2l0.8-2h0.4l-1.4,3.5H-129z"/>
				</g>
				<rect x="-153" y="-116.8" class="st18" width="8.7" height="6.5"/>
			</g>
			<g transform="translate(263.484375,3)">
				<g class="st14">
					<path class="st15" d="M-176.5-110.8v-3.5h0.5l1.8,2.7v-2.7h0.4v3.5h-0.5l-1.8-2.7v2.7H-176.5z"/>
					<path class="st15" d="M-171-110.9c-0.3,0.1-0.6,0.1-0.8,0.1c-0.4,0-0.7-0.1-0.9-0.4c-0.2-0.3-0.4-0.6-0.4-1
						c0-0.4,0.1-0.7,0.3-1c0.2-0.3,0.5-0.4,0.8-0.4c0.3,0,0.6,0.1,0.7,0.3c0.2,0.2,0.3,0.5,0.3,1l0,0.1h-1.6
						c0.1,0.6,0.4,0.9,0.9,0.9c0.2,0,0.4-0.1,0.7-0.2V-110.9z M-172.6-112.4h1.1c0-0.5-0.2-0.7-0.5-0.7
						C-172.3-113.1-172.5-112.9-172.6-112.4z"/>
					<path class="st15" d="M-169.6-110.8l-1-2.6h0.5l0.8,2l0.8-2h0.4l-1,2.6H-169.6z"/>
					<path class="st15" d="M-165.7-110.9c-0.3,0.1-0.6,0.1-0.8,0.1c-0.4,0-0.7-0.1-0.9-0.4c-0.2-0.3-0.4-0.6-0.4-1
						c0-0.4,0.1-0.7,0.3-1c0.2-0.3,0.5-0.4,0.8-0.4c0.3,0,0.6,0.1,0.7,0.3c0.2,0.2,0.3,0.5,0.3,1l0,0.1h-1.6
						c0.1,0.6,0.4,0.9,0.9,0.9c0.2,0,0.4-0.1,0.7-0.2V-110.9z M-167.3-112.4h1.1c0-0.5-0.2-0.7-0.5-0.7
						C-167.1-113.1-167.3-112.9-167.3-112.4z"/>
					<path class="st15" d="M-164.9-110.8v-2.6h0.5v0.5c0.2-0.4,0.5-0.5,0.8-0.5c0,0,0.1,0,0.2,0v0.4c-0.1,0-0.2,0-0.2,0
						c-0.3,0-0.5,0.2-0.7,0.5v1.7H-164.9z"/>
				</g>
				<rect x="-188.4" y="-116.8" class="st19" width="8.7" height="6.5"/>
			</g>
		</g>
	</g>
</g>
<rect x="4.7" y="330.6" class="st5" width="304.8" height="202.8"/>
<g>
	<g transform="translate(10,10) scale(1 1)">
		<path class="st20" d="M147.1,344.5c22.2,0,43.1,10.1,57,27.4l-56.9,45.5l0,0L147.1,344.5z"/>
		<path class="st21" d="M204.1,372c25.1,31.5,19.9,77.3-11.6,102.4c-6.4,5.1-13.6,9.1-21.3,11.8l-24.2-68.8l0,0L204.1,372z"/>
		<path class="st22" d="M171.2,486.2c-38,13.3-79.6-6.7-92.9-44.7c-4.5-12.9-5.3-26.9-2.3-40.2l71.1,16.1l0,0L171.2,486.2z"/>
		<path class="st23" d="M76.1,401.2c5.6-24.4,23.3-44.3,46.9-52.6l24.1,68.8l0,0L76.1,401.2z"/>
		<path class="st24" d="M123.1,348.6c7.7-2.7,15.8-4.1,24-4.1l0.1,72.9l0,0L123.1,348.6z"/>
	</g>
	<g transform="translate(10,10) scale(1 1)">
	</g>
</g>
<path class="st25" d="M197.9,348c-2.5,0-4.3,3.7-6.7,8.7l-2.4,5.1"/>
<path class="st26" d="M244.4,451.8c-2.5,0-6.5-1.1-11.9-2.7l-5.4-1.6"/>
<path class="st27" d="M95.8,493.2c2.5,0,5.3-3,9-7.2l3.7-4.2"/>
<path class="st28" d="M88.8,368.7c2.5,0,5.6,2.7,9.8,6.5l4.2,3.7"/>
<path class="st29" d="M139.8,340.5c2.5,0,3.2,4,4.2,9.5l0.9,5.5"/>
<g transform="translate(375,15)">
	<g class="st14">
		<path d="M-169.9,331.4l-2.1-5.8h1.3l1.5,4.3l1.4-4.3h1.2l-2.1,5.8H-169.9z"/>
		<path d="M-164,330.1l1.1,0.2c-0.1,0.4-0.4,0.7-0.7,0.9c-0.3,0.2-0.7,0.3-1.2,0.3c-0.7,0-1.3-0.2-1.6-0.7c-0.3-0.4-0.4-0.9-0.4-1.5
			c0-0.7,0.2-1.2,0.5-1.6c0.4-0.4,0.8-0.6,1.4-0.6c0.6,0,1.1,0.2,1.5,0.6c0.4,0.4,0.5,1.1,0.5,1.9h-2.8c0,0.3,0.1,0.6,0.3,0.8
			c0.2,0.2,0.4,0.3,0.6,0.3c0.2,0,0.3,0,0.4-0.1C-164.1,330.5-164,330.3-164,330.1z M-163.9,329c0-0.3-0.1-0.6-0.2-0.7
			c-0.2-0.2-0.4-0.3-0.6-0.3c-0.2,0-0.4,0.1-0.6,0.3c-0.2,0.2-0.2,0.4-0.2,0.7H-163.9z"/>
		<path d="M-160.8,331.4h-1.1v-4.2h1v0.6c0.2-0.3,0.3-0.5,0.5-0.6c0.1-0.1,0.3-0.1,0.5-0.1c0.3,0,0.5,0.1,0.7,0.2l-0.3,1
			c-0.2-0.1-0.4-0.2-0.5-0.2c-0.2,0-0.3,0-0.4,0.1c-0.1,0.1-0.2,0.2-0.3,0.5c-0.1,0.2-0.1,0.7-0.1,1.4V331.4z"/>
		<path d="M-159.3,327.2h1.2l1,3l1-3h1.2l-1.5,4.1l-0.3,0.7c-0.1,0.2-0.2,0.4-0.3,0.6c-0.1,0.1-0.2,0.2-0.3,0.3
			c-0.1,0.1-0.3,0.1-0.4,0.2c-0.2,0-0.4,0.1-0.6,0.1c-0.2,0-0.4,0-0.6-0.1l-0.1-0.9c0.2,0,0.3,0.1,0.5,0.1c0.3,0,0.5-0.1,0.6-0.2
			c0.1-0.2,0.2-0.3,0.3-0.6L-159.3,327.2z"/>
		<path d="M-151.9,325.6h2.2c0.5,0,0.9,0,1.1,0.1c0.3,0.1,0.6,0.3,0.9,0.5c0.2,0.3,0.4,0.6,0.6,0.9c0.1,0.4,0.2,0.8,0.2,1.4
			c0,0.5-0.1,0.9-0.2,1.2c-0.1,0.4-0.4,0.8-0.6,1c-0.2,0.2-0.5,0.4-0.8,0.5c-0.3,0.1-0.6,0.1-1,0.1h-2.2V325.6z M-150.7,326.6v3.9
			h0.9c0.3,0,0.6,0,0.7-0.1c0.2,0,0.3-0.1,0.5-0.2c0.1-0.1,0.2-0.3,0.3-0.6c0.1-0.3,0.1-0.6,0.1-1.1c0-0.5,0-0.8-0.1-1
			c-0.1-0.2-0.2-0.4-0.3-0.6c-0.1-0.1-0.3-0.2-0.5-0.3c-0.2,0-0.5-0.1-1-0.1H-150.7z"/>
		<path d="M-146,326.6v-1h1.1v1H-146z M-146,331.4v-4.2h1.1v4.2H-146z"/>
		<path d="M-144.2,330.2l1.1-0.2c0,0.2,0.1,0.4,0.3,0.5c0.1,0.1,0.3,0.2,0.6,0.2c0.3,0,0.5-0.1,0.7-0.2c0.1-0.1,0.1-0.2,0.1-0.3
			c0-0.1,0-0.2-0.1-0.2c-0.1-0.1-0.2-0.1-0.4-0.1c-0.9-0.2-1.5-0.4-1.7-0.5c-0.3-0.2-0.5-0.5-0.5-1c0-0.4,0.1-0.7,0.4-0.9
			c0.3-0.2,0.7-0.4,1.3-0.4c0.6,0,1,0.1,1.3,0.3c0.3,0.2,0.5,0.5,0.6,0.8l-1.1,0.2c0-0.2-0.1-0.3-0.3-0.4c-0.1-0.1-0.3-0.1-0.5-0.1
			c-0.3,0-0.5,0-0.6,0.1c-0.1,0.1-0.1,0.1-0.1,0.2c0,0.1,0,0.1,0.1,0.2c0.1,0.1,0.4,0.2,1,0.3c0.6,0.1,1,0.3,1.2,0.5
			c0.2,0.2,0.3,0.5,0.3,0.8c0,0.4-0.2,0.7-0.5,1c-0.3,0.3-0.8,0.4-1.4,0.4c-0.6,0-1-0.1-1.4-0.3
			C-143.8,330.9-144.1,330.6-144.2,330.2z"/>
		<path d="M-139.6,330.2l1.1-0.2c0,0.2,0.1,0.4,0.3,0.5c0.1,0.1,0.3,0.2,0.6,0.2c0.3,0,0.5-0.1,0.7-0.2c0.1-0.1,0.1-0.2,0.1-0.3
			c0-0.1,0-0.2-0.1-0.2c-0.1-0.1-0.2-0.1-0.4-0.1c-0.9-0.2-1.5-0.4-1.7-0.5c-0.3-0.2-0.5-0.5-0.5-1c0-0.4,0.1-0.7,0.4-0.9
			c0.3-0.2,0.7-0.4,1.3-0.4c0.6,0,1,0.1,1.3,0.3c0.3,0.2,0.5,0.5,0.6,0.8l-1.1,0.2c0-0.2-0.1-0.3-0.3-0.4c-0.1-0.1-0.3-0.1-0.5-0.1
			c-0.3,0-0.5,0-0.6,0.1c-0.1,0.1-0.1,0.1-0.1,0.2c0,0.1,0,0.1,0.1,0.2c0.1,0.1,0.4,0.2,1,0.3c0.6,0.1,1,0.3,1.2,0.5
			c0.2,0.2,0.3,0.5,0.3,0.8c0,0.4-0.2,0.7-0.5,1c-0.3,0.3-0.8,0.4-1.4,0.4c-0.6,0-1-0.1-1.4-0.3
			C-139.3,330.9-139.5,330.6-139.6,330.2z"/>
		<path d="M-133.9,328.5l-1-0.2c0.1-0.4,0.3-0.7,0.6-0.9c0.3-0.2,0.7-0.3,1.2-0.3c0.5,0,0.9,0.1,1.1,0.2c0.2,0.1,0.4,0.3,0.5,0.4
			c0.1,0.2,0.1,0.5,0.1,1l0,1.3c0,0.4,0,0.6,0.1,0.8s0.1,0.4,0.2,0.6h-1.1c0-0.1-0.1-0.2-0.1-0.3c0-0.1,0-0.1,0-0.1
			c-0.2,0.2-0.4,0.3-0.6,0.4c-0.2,0.1-0.4,0.1-0.7,0.1c-0.4,0-0.8-0.1-1-0.4c-0.3-0.2-0.4-0.5-0.4-0.9c0-0.2,0.1-0.5,0.2-0.6
			c0.1-0.2,0.3-0.3,0.5-0.4c0.2-0.1,0.5-0.2,0.9-0.3c0.5-0.1,0.9-0.2,1.1-0.3v-0.1c0-0.2-0.1-0.4-0.2-0.5c-0.1-0.1-0.3-0.1-0.6-0.1
			c-0.2,0-0.4,0-0.5,0.1C-133.7,328.2-133.8,328.3-133.9,328.5z M-132.4,329.4c-0.1,0-0.4,0.1-0.7,0.2c-0.3,0.1-0.5,0.1-0.6,0.2
			c-0.1,0.1-0.2,0.2-0.2,0.4c0,0.2,0.1,0.3,0.2,0.4s0.3,0.2,0.4,0.2c0.2,0,0.4-0.1,0.6-0.2c0.1-0.1,0.2-0.2,0.3-0.4
			c0-0.1,0-0.3,0-0.5V329.4z"/>
		<path d="M-128.2,327.2v0.9h-0.8v1.7c0,0.3,0,0.5,0,0.6c0,0.1,0,0.1,0.1,0.1c0.1,0,0.1,0.1,0.2,0.1c0.1,0,0.3,0,0.4-0.1l0.1,0.9
			c-0.3,0.1-0.6,0.2-0.9,0.2c-0.2,0-0.4,0-0.5-0.1c-0.2-0.1-0.3-0.2-0.4-0.3c-0.1-0.1-0.1-0.3-0.2-0.4c0-0.1,0-0.4,0-0.8v-1.8h-0.5
			v-0.9h0.5v-0.8l1.1-0.7v1.5H-128.2z"/>
		<path d="M-127.5,326.6v-1h1.1v1H-127.5z M-127.5,331.4v-4.2h1.1v4.2H-127.5z"/>
		<path d="M-125.6,330.2l1.1-0.2c0,0.2,0.1,0.4,0.3,0.5c0.1,0.1,0.3,0.2,0.6,0.2c0.3,0,0.5-0.1,0.7-0.2c0.1-0.1,0.1-0.2,0.1-0.3
			c0-0.1,0-0.2-0.1-0.2c-0.1-0.1-0.2-0.1-0.4-0.1c-0.9-0.2-1.5-0.4-1.7-0.5c-0.3-0.2-0.5-0.5-0.5-1c0-0.4,0.1-0.7,0.4-0.9
			c0.3-0.2,0.7-0.4,1.3-0.4c0.6,0,1,0.1,1.3,0.3c0.3,0.2,0.5,0.5,0.6,0.8l-1.1,0.2c0-0.2-0.1-0.3-0.3-0.4c-0.1-0.1-0.3-0.1-0.5-0.1
			c-0.3,0-0.5,0-0.6,0.1c-0.1,0.1-0.1,0.1-0.1,0.2c0,0.1,0,0.1,0.1,0.2c0.1,0.1,0.4,0.2,1,0.3c0.6,0.1,1,0.3,1.2,0.5
			c0.2,0.2,0.3,0.5,0.3,0.8c0,0.4-0.2,0.7-0.5,1c-0.3,0.3-0.8,0.4-1.4,0.4c-0.6,0-1-0.1-1.4-0.3
			C-125.3,330.9-125.5,330.6-125.6,330.2z"/>
		<path d="M-121.2,327.2h0.6v-0.3c0-0.4,0-0.6,0.1-0.8c0.1-0.2,0.2-0.3,0.4-0.4c0.2-0.1,0.5-0.2,0.8-0.2c0.3,0,0.6,0,0.9,0.1
			l-0.2,0.8c-0.2,0-0.3-0.1-0.5-0.1c-0.2,0-0.3,0-0.3,0.1c-0.1,0.1-0.1,0.2-0.1,0.4v0.3h0.8v0.9h-0.8v3.3h-1.1v-3.3h-0.6V327.2z"/>
		<path d="M-118,326.6v-1h1.1v1H-118z M-118,331.4v-4.2h1.1v4.2H-118z"/>
		<path d="M-113.2,330.1l1.1,0.2c-0.1,0.4-0.4,0.7-0.7,0.9c-0.3,0.2-0.7,0.3-1.2,0.3c-0.7,0-1.3-0.2-1.6-0.7
			c-0.3-0.4-0.4-0.9-0.4-1.5c0-0.7,0.2-1.2,0.5-1.6c0.4-0.4,0.8-0.6,1.4-0.6c0.6,0,1.1,0.2,1.5,0.6c0.4,0.4,0.5,1.1,0.5,1.9h-2.8
			c0,0.3,0.1,0.6,0.3,0.8c0.2,0.2,0.4,0.3,0.6,0.3c0.2,0,0.3,0,0.4-0.1C-113.4,330.5-113.3,330.3-113.2,330.1z M-113.2,329
			c0-0.3-0.1-0.6-0.2-0.7c-0.2-0.2-0.4-0.3-0.6-0.3c-0.2,0-0.4,0.1-0.6,0.3c-0.2,0.2-0.2,0.4-0.2,0.7H-113.2z"/>
		<path d="M-107.3,331.4h-1v-0.6c-0.2,0.2-0.4,0.4-0.6,0.5c-0.2,0.1-0.5,0.2-0.7,0.2c-0.5,0-0.9-0.2-1.2-0.6
			c-0.3-0.4-0.5-0.9-0.5-1.6c0-0.7,0.2-1.3,0.5-1.6c0.3-0.4,0.8-0.6,1.3-0.6c0.5,0,0.9,0.2,1.2,0.6v-2.1h1.1V331.4z M-110.3,329.2
			c0,0.5,0.1,0.8,0.2,1c0.2,0.3,0.4,0.4,0.8,0.4c0.3,0,0.5-0.1,0.7-0.3c0.2-0.2,0.3-0.5,0.3-1c0-0.5-0.1-0.8-0.3-1
			c-0.2-0.2-0.4-0.3-0.7-0.3c-0.3,0-0.5,0.1-0.7,0.3C-110.2,328.5-110.3,328.8-110.3,329.2z"/>
		<path d="M-103.7,328.3v-1.1h1.1v1.1H-103.7z M-103.7,331.4v-1.1h1.1v1.1H-103.7z"/>
		<path d="M-98.2,328.3c-0.3-0.1-0.5-0.3-0.6-0.5c-0.1-0.2-0.2-0.4-0.2-0.7c0-0.4,0.2-0.8,0.5-1.1c0.3-0.3,0.7-0.4,1.3-0.4
			c0.6,0,1,0.1,1.3,0.4c0.3,0.3,0.5,0.6,0.5,1.1c0,0.3-0.1,0.5-0.2,0.7c-0.1,0.2-0.3,0.4-0.6,0.5c0.3,0.1,0.6,0.3,0.7,0.6
			c0.2,0.2,0.3,0.5,0.3,0.9c0,0.5-0.2,1-0.5,1.3c-0.3,0.3-0.8,0.5-1.4,0.5c-0.5,0-1-0.1-1.3-0.4c-0.4-0.3-0.6-0.8-0.6-1.4
			c0-0.3,0.1-0.6,0.2-0.9C-98.8,328.6-98.6,328.4-98.2,328.3z M-98.1,329.7c0,0.3,0.1,0.5,0.2,0.7c0.2,0.2,0.4,0.3,0.6,0.3
			c0.2,0,0.4-0.1,0.6-0.2c0.2-0.2,0.2-0.4,0.2-0.7c0-0.3-0.1-0.5-0.2-0.7c-0.2-0.2-0.3-0.2-0.6-0.2c-0.3,0-0.5,0.1-0.6,0.3
			C-98,329.2-98.1,329.4-98.1,329.7z M-98,327.2c0,0.2,0.1,0.4,0.2,0.5c0.1,0.1,0.3,0.2,0.5,0.2c0.2,0,0.4-0.1,0.5-0.2
			c0.1-0.1,0.2-0.3,0.2-0.5c0-0.2-0.1-0.4-0.2-0.5c-0.1-0.1-0.3-0.2-0.5-0.2c-0.2,0-0.4,0.1-0.5,0.2C-97.9,326.8-98,327-98,327.2z"
			/>
	</g>
</g>
<g transform="translate(466,219)">
	<g class="st14">
		<path d="M-235.6,238.9h2.2c0.5,0,0.9,0,1.1,0.1c0.3,0.1,0.6,0.3,0.9,0.5c0.2,0.3,0.4,0.6,0.6,0.9c0.1,0.4,0.2,0.8,0.2,1.4
			c0,0.5-0.1,0.9-0.2,1.2c-0.1,0.4-0.4,0.8-0.6,1c-0.2,0.2-0.5,0.4-0.8,0.5c-0.3,0.1-0.6,0.1-1,0.1h-2.2V238.9z M-234.4,239.9v3.9
			h0.9c0.3,0,0.6,0,0.7-0.1c0.2,0,0.3-0.1,0.5-0.2c0.1-0.1,0.2-0.3,0.3-0.6c0.1-0.3,0.1-0.6,0.1-1.1s0-0.8-0.1-1
			c-0.1-0.2-0.2-0.4-0.3-0.6c-0.1-0.1-0.3-0.2-0.5-0.3c-0.2,0-0.5-0.1-1-0.1H-234.4z"/>
		<path d="M-229.7,239.9v-1h1.1v1H-229.7z M-229.7,244.7v-4.2h1.1v4.2H-229.7z"/>
		<path d="M-227.8,243.5l1.1-0.2c0,0.2,0.1,0.4,0.3,0.5c0.1,0.1,0.3,0.2,0.6,0.2c0.3,0,0.5-0.1,0.7-0.2c0.1-0.1,0.1-0.2,0.1-0.3
			c0-0.1,0-0.2-0.1-0.2c-0.1-0.1-0.2-0.1-0.4-0.1c-0.9-0.2-1.5-0.4-1.7-0.5c-0.3-0.2-0.5-0.5-0.5-1c0-0.4,0.1-0.7,0.4-0.9
			c0.3-0.2,0.7-0.4,1.3-0.4c0.6,0,1,0.1,1.3,0.3c0.3,0.2,0.5,0.5,0.6,0.8l-1.1,0.2c0-0.2-0.1-0.3-0.3-0.4c-0.1-0.1-0.3-0.1-0.5-0.1
			c-0.3,0-0.5,0-0.6,0.1c-0.1,0.1-0.1,0.1-0.1,0.2c0,0.1,0,0.1,0.1,0.2c0.1,0.1,0.4,0.2,1,0.3c0.6,0.1,1,0.3,1.2,0.5
			c0.2,0.2,0.3,0.5,0.3,0.8c0,0.4-0.2,0.7-0.5,1c-0.3,0.3-0.8,0.4-1.4,0.4c-0.6,0-1-0.1-1.4-0.3
			C-227.5,244.2-227.7,243.9-227.8,243.5z"/>
		<path d="M-223.3,243.5l1.1-0.2c0,0.2,0.1,0.4,0.3,0.5c0.1,0.1,0.3,0.2,0.6,0.2c0.3,0,0.5-0.1,0.7-0.2c0.1-0.1,0.1-0.2,0.1-0.3
			c0-0.1,0-0.2-0.1-0.2c-0.1-0.1-0.2-0.1-0.4-0.1c-0.9-0.2-1.5-0.4-1.7-0.5c-0.3-0.2-0.5-0.5-0.5-1c0-0.4,0.1-0.7,0.4-0.9
			c0.3-0.2,0.7-0.4,1.3-0.4c0.6,0,1,0.1,1.3,0.3c0.3,0.2,0.5,0.5,0.6,0.8l-1.1,0.2c0-0.2-0.1-0.3-0.3-0.4c-0.1-0.1-0.3-0.1-0.5-0.1
			c-0.3,0-0.5,0-0.6,0.1c-0.1,0.1-0.1,0.1-0.1,0.2c0,0.1,0,0.1,0.1,0.2c0.1,0.1,0.4,0.2,1,0.3c0.6,0.1,1,0.3,1.2,0.5
			c0.2,0.2,0.3,0.5,0.3,0.8c0,0.4-0.2,0.7-0.5,1c-0.3,0.3-0.8,0.4-1.4,0.4c-0.6,0-1-0.1-1.4-0.3C-223,244.2-223.2,243.9-223.3,243.5
			z"/>
		<path d="M-217.5,241.8l-1-0.2c0.1-0.4,0.3-0.7,0.6-0.9c0.3-0.2,0.7-0.3,1.2-0.3c0.5,0,0.9,0.1,1.1,0.2c0.2,0.1,0.4,0.3,0.5,0.4
			c0.1,0.2,0.1,0.5,0.1,1l0,1.3c0,0.4,0,0.6,0.1,0.8s0.1,0.4,0.2,0.6h-1.1c0-0.1-0.1-0.2-0.1-0.3c0-0.1,0-0.1,0-0.1
			c-0.2,0.2-0.4,0.3-0.6,0.4c-0.2,0.1-0.4,0.1-0.7,0.1c-0.4,0-0.8-0.1-1-0.4c-0.3-0.2-0.4-0.5-0.4-0.9c0-0.2,0.1-0.5,0.2-0.6
			c0.1-0.2,0.3-0.3,0.5-0.4c0.2-0.1,0.5-0.2,0.9-0.3c0.5-0.1,0.9-0.2,1.1-0.3v-0.1c0-0.2-0.1-0.4-0.2-0.5c-0.1-0.1-0.3-0.1-0.6-0.1
			c-0.2,0-0.4,0-0.5,0.1C-217.4,241.5-217.5,241.6-217.5,241.8z M-216.1,242.7c-0.1,0-0.4,0.1-0.7,0.2c-0.3,0.1-0.5,0.1-0.6,0.2
			c-0.1,0.1-0.2,0.2-0.2,0.4c0,0.2,0.1,0.3,0.2,0.4c0.1,0.1,0.3,0.2,0.4,0.2c0.2,0,0.4-0.1,0.6-0.2c0.1-0.1,0.2-0.2,0.3-0.4
			c0-0.1,0-0.3,0-0.5V242.7z"/>
		<path d="M-211.9,240.5v0.9h-0.8v1.7c0,0.3,0,0.5,0,0.6c0,0.1,0,0.1,0.1,0.1c0.1,0,0.1,0.1,0.2,0.1c0.1,0,0.3,0,0.4-0.1l0.1,0.9
			c-0.3,0.1-0.6,0.2-0.9,0.2c-0.2,0-0.4,0-0.5-0.1c-0.2-0.1-0.3-0.2-0.4-0.3c-0.1-0.1-0.1-0.3-0.2-0.4c0-0.1,0-0.4,0-0.8v-1.8h-0.5
			v-0.9h0.5v-0.8l1.1-0.7v1.5H-211.9z"/>
		<path d="M-211.1,239.9v-1h1.1v1H-211.1z M-211.1,244.7v-4.2h1.1v4.2H-211.1z"/>
		<path d="M-209.3,243.5l1.1-0.2c0,0.2,0.1,0.4,0.3,0.5c0.1,0.1,0.3,0.2,0.6,0.2c0.3,0,0.5-0.1,0.7-0.2c0.1-0.1,0.1-0.2,0.1-0.3
			c0-0.1,0-0.2-0.1-0.2c-0.1-0.1-0.2-0.1-0.4-0.1c-0.9-0.2-1.5-0.4-1.7-0.5c-0.3-0.2-0.5-0.5-0.5-1c0-0.4,0.1-0.7,0.4-0.9
			c0.3-0.2,0.7-0.4,1.3-0.4c0.6,0,1,0.1,1.3,0.3c0.3,0.2,0.5,0.5,0.6,0.8l-1.1,0.2c0-0.2-0.1-0.3-0.3-0.4c-0.1-0.1-0.3-0.1-0.5-0.1
			c-0.3,0-0.5,0-0.6,0.1c-0.1,0.1-0.1,0.1-0.1,0.2c0,0.1,0,0.1,0.1,0.2c0.1,0.1,0.4,0.2,1,0.3c0.6,0.1,1,0.3,1.2,0.5
			c0.2,0.2,0.3,0.5,0.3,0.8c0,0.4-0.2,0.7-0.5,1c-0.3,0.3-0.8,0.4-1.4,0.4c-0.6,0-1-0.1-1.4-0.3
			C-208.9,244.2-209.2,243.9-209.3,243.5z"/>
		<path d="M-204.8,240.5h0.6v-0.3c0-0.4,0-0.6,0.1-0.8c0.1-0.2,0.2-0.3,0.4-0.4c0.2-0.1,0.5-0.2,0.8-0.2c0.3,0,0.6,0,0.9,0.1
			l-0.2,0.8c-0.2,0-0.3-0.1-0.5-0.1c-0.2,0-0.3,0-0.3,0.1c-0.1,0.1-0.1,0.2-0.1,0.4v0.3h0.8v0.9h-0.8v3.3h-1.1v-3.3h-0.6V240.5z"/>
		<path d="M-201.6,239.9v-1h1.1v1H-201.6z M-201.6,244.7v-4.2h1.1v4.2H-201.6z"/>
		<path d="M-196.9,243.4l1.1,0.2c-0.1,0.4-0.4,0.7-0.7,0.9c-0.3,0.2-0.7,0.3-1.2,0.3c-0.7,0-1.3-0.2-1.6-0.7
			c-0.3-0.4-0.4-0.9-0.4-1.5c0-0.7,0.2-1.2,0.5-1.6c0.4-0.4,0.8-0.6,1.4-0.6c0.6,0,1.1,0.2,1.5,0.6c0.4,0.4,0.5,1.1,0.5,1.9h-2.8
			c0,0.3,0.1,0.6,0.3,0.8c0.2,0.2,0.4,0.3,0.6,0.3c0.2,0,0.3,0,0.4-0.1C-197.1,243.8-197,243.6-196.9,243.4z M-196.9,242.3
			c0-0.3-0.1-0.6-0.2-0.7c-0.2-0.2-0.4-0.3-0.6-0.3c-0.2,0-0.4,0.1-0.6,0.3c-0.2,0.2-0.2,0.4-0.2,0.7H-196.9z"/>
		<path d="M-191,244.7h-1v-0.6c-0.2,0.2-0.4,0.4-0.6,0.5c-0.2,0.1-0.5,0.2-0.7,0.2c-0.5,0-0.9-0.2-1.2-0.6c-0.3-0.4-0.5-0.9-0.5-1.6
			c0-0.7,0.2-1.3,0.5-1.6c0.3-0.4,0.8-0.6,1.3-0.6c0.5,0,0.9,0.2,1.2,0.6v-2.1h1.1V244.7z M-193.9,242.5c0,0.5,0.1,0.8,0.2,1
			c0.2,0.3,0.4,0.4,0.8,0.4c0.3,0,0.5-0.1,0.7-0.3c0.2-0.2,0.3-0.5,0.3-1c0-0.5-0.1-0.8-0.3-1c-0.2-0.2-0.4-0.3-0.7-0.3
			c-0.3,0-0.5,0.1-0.7,0.3C-193.8,241.8-193.9,242.1-193.9,242.5z"/>
		<path d="M-187.4,241.6v-1.1h1.1v1.1H-187.4z M-187.4,244.7v-1.1h1.1v1.1H-187.4z"/>
		<path d="M-180,244.7h-1.1v-4.2c-0.4,0.4-0.9,0.7-1.4,0.8v-1c0.3-0.1,0.6-0.3,1-0.5c0.3-0.3,0.6-0.6,0.7-0.9h0.9V244.7z"/>
		<path d="M-178.3,240v-1h3.8v0.8c-0.3,0.3-0.6,0.8-1,1.3c-0.3,0.6-0.6,1.2-0.7,1.9c-0.2,0.7-0.3,1.2-0.3,1.8h-1.1
			c0-0.8,0.2-1.6,0.5-2.5c0.3-0.8,0.7-1.6,1.3-2.2H-178.3z"/>
	</g>
</g>
<g transform="translate(100,300)">
	<g class="st14">
		<path d="M-51.9,195.2v-5.7h1.1l2.3,3.8v-3.8h1.1v5.7h-1.2l-2.3-3.7v3.7H-51.9z"/>
		<path d="M-43.8,193.9l1.1,0.2c-0.1,0.4-0.4,0.7-0.7,0.9c-0.3,0.2-0.7,0.3-1.1,0.3c-0.7,0-1.2-0.2-1.6-0.7
			c-0.3-0.4-0.4-0.8-0.4-1.4c0-0.7,0.2-1.2,0.5-1.6c0.4-0.4,0.8-0.6,1.4-0.6c0.6,0,1.1,0.2,1.5,0.6c0.4,0.4,0.5,1,0.5,1.9h-2.7
			c0,0.3,0.1,0.6,0.3,0.8c0.2,0.2,0.4,0.3,0.6,0.3c0.2,0,0.3,0,0.4-0.1C-44,194.3-43.9,194.1-43.8,193.9z M-43.8,192.8
			c0-0.3-0.1-0.6-0.2-0.7c-0.2-0.2-0.3-0.2-0.6-0.2c-0.2,0-0.4,0.1-0.6,0.3c-0.2,0.2-0.2,0.4-0.2,0.7H-43.8z"/>
		<path d="M-39.1,195.2v-0.6c-0.2,0.2-0.3,0.4-0.6,0.5c-0.2,0.1-0.5,0.2-0.8,0.2c-0.3,0-0.5-0.1-0.7-0.2c-0.2-0.1-0.4-0.3-0.5-0.5
			c-0.1-0.2-0.1-0.5-0.1-0.9v-2.6h1.1v1.9c0,0.6,0,0.9,0.1,1.1c0,0.1,0.1,0.2,0.2,0.3c0.1,0.1,0.2,0.1,0.4,0.1
			c0.2,0,0.4-0.1,0.5-0.2c0.1-0.1,0.2-0.2,0.3-0.4c0.1-0.2,0.1-0.5,0.1-1.1v-1.7h1.1v4.1H-39.1z"/>
		<path d="M-35.1,191.1v0.9h-0.7v1.7c0,0.3,0,0.5,0,0.6c0,0.1,0,0.1,0.1,0.1c0.1,0,0.1,0.1,0.2,0.1c0.1,0,0.2,0,0.4-0.1l0.1,0.8
			c-0.3,0.1-0.5,0.2-0.9,0.2c-0.2,0-0.4,0-0.5-0.1c-0.2-0.1-0.3-0.2-0.3-0.3c-0.1-0.1-0.1-0.2-0.2-0.4c0-0.1,0-0.4,0-0.8V192h-0.5
			v-0.9h0.5v-0.8l1.1-0.6v1.5H-35.1z"/>
		<path d="M-33.3,195.2h-1.1v-4.1h1v0.6c0.2-0.3,0.3-0.5,0.5-0.5c0.1-0.1,0.3-0.1,0.5-0.1c0.2,0,0.5,0.1,0.7,0.2l-0.3,0.9
			c-0.2-0.1-0.4-0.2-0.5-0.2c-0.2,0-0.3,0-0.4,0.1c-0.1,0.1-0.2,0.2-0.2,0.5c-0.1,0.2-0.1,0.7-0.1,1.4V195.2z"/>
		<path d="M-30.4,192.4l-1-0.2c0.1-0.4,0.3-0.7,0.6-0.9c0.3-0.2,0.7-0.3,1.2-0.3c0.5,0,0.8,0.1,1.1,0.2c0.2,0.1,0.4,0.3,0.5,0.4
			c0.1,0.2,0.1,0.5,0.1,1l0,1.3c0,0.4,0,0.6,0.1,0.8c0,0.2,0.1,0.4,0.2,0.6h-1.1c0-0.1-0.1-0.2-0.1-0.3c0-0.1,0-0.1,0-0.1
			c-0.2,0.2-0.4,0.3-0.6,0.4c-0.2,0.1-0.4,0.1-0.7,0.1c-0.4,0-0.8-0.1-1-0.3c-0.2-0.2-0.4-0.5-0.4-0.9c0-0.2,0.1-0.4,0.2-0.6
			s0.3-0.3,0.5-0.4c0.2-0.1,0.5-0.2,0.9-0.3c0.5-0.1,0.9-0.2,1.1-0.3v-0.1c0-0.2-0.1-0.4-0.2-0.4c-0.1-0.1-0.3-0.1-0.6-0.1
			c-0.2,0-0.3,0-0.5,0.1S-30.3,192.2-30.4,192.4z M-28.9,193.3c-0.1,0-0.4,0.1-0.7,0.2c-0.3,0.1-0.5,0.1-0.6,0.2
			c-0.1,0.1-0.2,0.2-0.2,0.4c0,0.2,0.1,0.3,0.2,0.4c0.1,0.1,0.3,0.2,0.4,0.2c0.2,0,0.4-0.1,0.6-0.2c0.1-0.1,0.2-0.2,0.3-0.4
			c0-0.1,0-0.3,0-0.5V193.3z"/>
		<path d="M-26.8,195.2v-5.7h1.1v5.7H-26.8z"/>
		<path d="M-22.2,192.2v-1.1h1.1v1.1H-22.2z M-22.2,195.2v-1.1h1.1v1.1H-22.2z"/>
		<path d="M-15,195.2h-1.1v-4.1c-0.4,0.4-0.9,0.6-1.4,0.8v-1c0.3-0.1,0.6-0.3,0.9-0.5c0.3-0.3,0.6-0.6,0.7-0.9h0.9V195.2z"/>
		<path d="M-13.3,193.9l1.1-0.1c0,0.2,0.1,0.4,0.2,0.5c0.1,0.1,0.3,0.2,0.4,0.2c0.2,0,0.4-0.1,0.6-0.3c0.2-0.2,0.3-0.6,0.3-1.3
			c-0.3,0.3-0.6,0.5-1,0.5c-0.4,0-0.8-0.2-1.2-0.5c-0.3-0.3-0.5-0.8-0.5-1.3c0-0.6,0.2-1,0.5-1.4c0.3-0.4,0.8-0.5,1.3-0.5
			c0.6,0,1.1,0.2,1.4,0.7c0.4,0.4,0.6,1.2,0.6,2.2c0,1-0.2,1.8-0.6,2.2c-0.4,0.5-0.9,0.7-1.5,0.7c-0.4,0-0.8-0.1-1.1-0.4
			C-13.1,194.7-13.2,194.4-13.3,193.9z M-10.9,191.5c0-0.4-0.1-0.6-0.2-0.8c-0.2-0.2-0.3-0.3-0.6-0.3c-0.2,0-0.4,0.1-0.5,0.2
			c-0.1,0.2-0.2,0.4-0.2,0.8c0,0.4,0.1,0.6,0.2,0.8c0.1,0.2,0.3,0.3,0.5,0.3c0.2,0,0.4-0.1,0.5-0.2
			C-10.9,192.1-10.9,191.9-10.9,191.5z"/>
	</g>
</g>
<g transform="translate(84,56)">
	<g class="st14">
		<path d="M-45.1,313.6l1.1-0.1c0.1,0.4,0.2,0.6,0.4,0.8c0.2,0.2,0.5,0.3,0.8,0.3c0.4,0,0.6-0.1,0.8-0.2c0.2-0.1,0.3-0.3,0.3-0.5
			c0-0.1,0-0.2-0.1-0.3s-0.2-0.2-0.4-0.2c-0.1,0-0.4-0.1-0.9-0.2c-0.6-0.1-1-0.3-1.2-0.5c-0.3-0.3-0.5-0.7-0.5-1.1
			c0-0.3,0.1-0.5,0.2-0.8c0.2-0.2,0.4-0.4,0.7-0.6c0.3-0.1,0.7-0.2,1.1-0.2c0.7,0,1.2,0.1,1.5,0.4c0.3,0.3,0.5,0.7,0.5,1.2l-1.1,0
			c0-0.3-0.1-0.5-0.3-0.6s-0.4-0.2-0.7-0.2c-0.3,0-0.6,0.1-0.7,0.2c-0.1,0.1-0.2,0.2-0.2,0.3c0,0.1,0.1,0.2,0.2,0.3
			c0.1,0.1,0.5,0.2,1,0.4c0.5,0.1,0.9,0.3,1.2,0.4c0.3,0.1,0.5,0.3,0.6,0.6s0.2,0.5,0.2,0.9c0,0.3-0.1,0.6-0.3,0.9
			c-0.2,0.3-0.4,0.5-0.7,0.6c-0.3,0.1-0.7,0.2-1.2,0.2c-0.7,0-1.2-0.2-1.6-0.5C-44.8,314.6-45,314.2-45.1,313.6z"/>
		<path d="M-38.9,312.6l-0.9-0.2c0.1-0.4,0.3-0.7,0.5-0.8c0.3-0.2,0.6-0.3,1.2-0.3c0.5,0,0.8,0.1,1,0.2c0.2,0.1,0.4,0.2,0.5,0.4
			c0.1,0.2,0.1,0.5,0.1,0.9l0,1.2c0,0.3,0,0.6,0.1,0.8c0,0.2,0.1,0.3,0.2,0.5h-1c0-0.1-0.1-0.2-0.1-0.3c0-0.1,0-0.1,0-0.1
			c-0.2,0.2-0.4,0.3-0.6,0.4c-0.2,0.1-0.4,0.1-0.6,0.1c-0.4,0-0.7-0.1-1-0.3c-0.2-0.2-0.4-0.5-0.4-0.8c0-0.2,0.1-0.4,0.2-0.6
			c0.1-0.2,0.3-0.3,0.4-0.4c0.2-0.1,0.5-0.2,0.8-0.2c0.5-0.1,0.8-0.2,1-0.3v-0.1c0-0.2,0-0.3-0.1-0.4c-0.1-0.1-0.3-0.1-0.6-0.1
			c-0.2,0-0.3,0-0.4,0.1C-38.8,312.3-38.9,312.4-38.9,312.6z M-37.6,313.4c-0.1,0-0.3,0.1-0.6,0.2c-0.3,0.1-0.5,0.1-0.6,0.2
			c-0.1,0.1-0.2,0.2-0.2,0.4c0,0.1,0.1,0.3,0.2,0.4s0.2,0.2,0.4,0.2c0.2,0,0.4-0.1,0.5-0.2c0.1-0.1,0.2-0.2,0.2-0.3
			c0-0.1,0-0.3,0-0.5V313.4z"/>
		<path d="M-33.7,311.4v0.8h-0.7v1.6c0,0.3,0,0.5,0,0.6c0,0.1,0,0.1,0.1,0.1c0,0,0.1,0.1,0.2,0.1c0.1,0,0.2,0,0.4-0.1l0.1,0.8
			c-0.2,0.1-0.5,0.2-0.8,0.2c-0.2,0-0.4,0-0.5-0.1c-0.1-0.1-0.3-0.1-0.3-0.2c-0.1-0.1-0.1-0.2-0.1-0.4c0-0.1,0-0.4,0-0.7v-1.7h-0.5
			v-0.8h0.5v-0.8l1-0.6v1.4H-33.7z"/>
		<path d="M-33,310.9v-1h1v1H-33z M-33,315.3v-3.9h1v3.9H-33z"/>
		<path d="M-31.2,314.2l1-0.2c0,0.2,0.1,0.4,0.3,0.5c0.1,0.1,0.3,0.2,0.6,0.2c0.3,0,0.5,0,0.6-0.1c0.1-0.1,0.1-0.2,0.1-0.3
			c0-0.1,0-0.1-0.1-0.2c-0.1,0-0.2-0.1-0.3-0.1c-0.8-0.2-1.4-0.4-1.6-0.5c-0.3-0.2-0.5-0.5-0.5-0.9c0-0.3,0.1-0.6,0.4-0.9
			c0.3-0.2,0.7-0.3,1.3-0.3c0.5,0,0.9,0.1,1.2,0.3s0.4,0.4,0.5,0.8l-1,0.2c0-0.2-0.1-0.3-0.2-0.4c-0.1-0.1-0.3-0.1-0.5-0.1
			c-0.3,0-0.5,0-0.6,0.1c-0.1,0.1-0.1,0.1-0.1,0.2c0,0.1,0,0.1,0.1,0.2c0.1,0.1,0.4,0.2,1,0.3s0.9,0.3,1.2,0.5
			c0.2,0.2,0.3,0.4,0.3,0.8c0,0.4-0.2,0.7-0.5,0.9c-0.3,0.3-0.7,0.4-1.3,0.4c-0.5,0-1-0.1-1.3-0.3
			C-30.9,314.9-31.1,314.6-31.2,314.2z"/>
		<path d="M-27.1,311.4h0.6v-0.3c0-0.3,0-0.6,0.1-0.7c0.1-0.2,0.2-0.3,0.4-0.4c0.2-0.1,0.4-0.2,0.7-0.2c0.3,0,0.6,0,0.9,0.1
			l-0.1,0.7c-0.2,0-0.3-0.1-0.5-0.1c-0.1,0-0.3,0-0.3,0.1c-0.1,0.1-0.1,0.2-0.1,0.4v0.3h0.8v0.8h-0.8v3.1h-1v-3.1h-0.6V311.4z"/>
		<path d="M-24.1,310.9v-1h1v1H-24.1z M-24.1,315.3v-3.9h1v3.9H-24.1z"/>
		<path d="M-19.7,314.1l1,0.2c-0.1,0.4-0.3,0.7-0.6,0.9c-0.3,0.2-0.6,0.3-1.1,0.3c-0.7,0-1.2-0.2-1.5-0.7c-0.3-0.4-0.4-0.8-0.4-1.4
			c0-0.7,0.2-1.2,0.5-1.5c0.3-0.4,0.8-0.6,1.3-0.6c0.6,0,1,0.2,1.4,0.6c0.3,0.4,0.5,1,0.5,1.8h-2.6c0,0.3,0.1,0.5,0.3,0.7
			c0.2,0.2,0.4,0.3,0.6,0.3c0.2,0,0.3,0,0.4-0.1C-19.9,314.4-19.8,314.3-19.7,314.1z M-19.7,313c0-0.3-0.1-0.5-0.2-0.7
			c-0.1-0.2-0.3-0.2-0.5-0.2c-0.2,0-0.4,0.1-0.6,0.2c-0.1,0.2-0.2,0.4-0.2,0.7H-19.7z"/>
		<path d="M-14.2,315.3h-1v-0.6c-0.2,0.2-0.3,0.4-0.6,0.5c-0.2,0.1-0.4,0.2-0.7,0.2c-0.5,0-0.8-0.2-1.2-0.5
			c-0.3-0.4-0.5-0.9-0.5-1.5c0-0.7,0.2-1.2,0.5-1.5c0.3-0.3,0.7-0.5,1.2-0.5c0.4,0,0.8,0.2,1.1,0.5v-2h1V315.3z M-17,313.3
			c0,0.4,0.1,0.7,0.2,0.9c0.2,0.3,0.4,0.4,0.7,0.4c0.2,0,0.4-0.1,0.6-0.3c0.2-0.2,0.3-0.5,0.3-0.9c0-0.5-0.1-0.8-0.2-1
			c-0.2-0.2-0.4-0.3-0.6-0.3c-0.2,0-0.5,0.1-0.6,0.3C-16.9,312.6-17,312.9-17,313.3z"/>
		<path d="M-10.9,312.4v-1h1v1H-10.9z M-10.9,315.3v-1h1v1H-10.9z"/>
		<path d="M-6.6,314.1l1-0.1c0,0.2,0.1,0.4,0.2,0.5c0.1,0.1,0.2,0.1,0.4,0.1c0.2,0,0.4-0.1,0.5-0.3c0.1-0.2,0.2-0.6,0.3-1.2
			c-0.3,0.3-0.6,0.5-1,0.5c-0.4,0-0.8-0.2-1.1-0.5c-0.3-0.3-0.5-0.8-0.5-1.3c0-0.6,0.2-1,0.5-1.3c0.3-0.3,0.7-0.5,1.3-0.5
			c0.6,0,1,0.2,1.4,0.6s0.5,1.1,0.5,2.1c0,1-0.2,1.7-0.6,2.1c-0.4,0.4-0.8,0.7-1.4,0.7c-0.4,0-0.8-0.1-1-0.3
			C-6.4,314.9-6.5,314.5-6.6,314.1z M-4.3,311.8c0-0.3-0.1-0.6-0.2-0.8c-0.2-0.2-0.3-0.3-0.5-0.3c-0.2,0-0.4,0.1-0.5,0.2
			c-0.1,0.2-0.2,0.4-0.2,0.7c0,0.4,0.1,0.6,0.2,0.8c0.1,0.2,0.3,0.2,0.5,0.2c0.2,0,0.4-0.1,0.5-0.2C-4.3,312.3-4.3,312.1-4.3,311.8z
			"/>
	</g>
</g>
<g transform="translate(160,0)">
	<g class="st14">
		<path d="M-64.6,333.5l-1.9-5.4h1.2l1.4,4l1.3-4h1.2l-1.9,5.4H-64.6z"/>
		<path d="M-59.1,332.2l1,0.2c-0.1,0.4-0.3,0.7-0.6,0.9c-0.3,0.2-0.6,0.3-1.1,0.3c-0.7,0-1.2-0.2-1.5-0.7c-0.3-0.4-0.4-0.8-0.4-1.4
			c0-0.7,0.2-1.2,0.5-1.5c0.3-0.4,0.8-0.6,1.3-0.6c0.6,0,1,0.2,1.4,0.6c0.3,0.4,0.5,1,0.5,1.8h-2.6c0,0.3,0.1,0.5,0.3,0.7
			c0.2,0.2,0.4,0.3,0.6,0.3c0.2,0,0.3,0,0.4-0.1C-59.2,332.5-59.1,332.4-59.1,332.2z M-59,331.2c0-0.3-0.1-0.5-0.2-0.7
			c-0.1-0.2-0.3-0.2-0.5-0.2c-0.2,0-0.4,0.1-0.6,0.2c-0.1,0.2-0.2,0.4-0.2,0.7H-59z"/>
		<path d="M-56.1,333.5h-1v-3.9h1v0.6c0.2-0.3,0.3-0.4,0.4-0.5c0.1-0.1,0.3-0.1,0.5-0.1c0.2,0,0.5,0.1,0.7,0.2l-0.3,0.9
			c-0.2-0.1-0.3-0.2-0.5-0.2c-0.1,0-0.3,0-0.4,0.1c-0.1,0.1-0.2,0.2-0.2,0.4s-0.1,0.6-0.1,1.3V333.5z"/>
		<path d="M-54.7,329.5h1.1l0.9,2.8l0.9-2.8h1.1l-1.4,3.8l-0.2,0.7c-0.1,0.2-0.2,0.4-0.3,0.5c-0.1,0.1-0.2,0.2-0.3,0.3
			c-0.1,0.1-0.2,0.1-0.4,0.2c-0.2,0-0.3,0.1-0.5,0.1c-0.2,0-0.4,0-0.6-0.1l-0.1-0.8c0.2,0,0.3,0,0.4,0c0.2,0,0.4-0.1,0.5-0.2
			c0.1-0.1,0.2-0.3,0.3-0.5L-54.7,329.5z"/>
		<path d="M-48.1,331.7l1.1-0.1c0.1,0.4,0.2,0.6,0.4,0.8c0.2,0.2,0.5,0.3,0.8,0.3c0.4,0,0.6-0.1,0.8-0.2c0.2-0.1,0.3-0.3,0.3-0.5
			c0-0.1,0-0.2-0.1-0.3s-0.2-0.2-0.4-0.2c-0.1,0-0.4-0.1-0.9-0.2c-0.6-0.1-1-0.3-1.2-0.5c-0.3-0.3-0.5-0.7-0.5-1.1
			c0-0.3,0.1-0.5,0.2-0.8c0.2-0.2,0.4-0.4,0.7-0.6c0.3-0.1,0.7-0.2,1.1-0.2c0.7,0,1.2,0.1,1.5,0.4c0.3,0.3,0.5,0.7,0.5,1.2l-1.1,0
			c0-0.3-0.1-0.5-0.3-0.6s-0.4-0.2-0.7-0.2c-0.3,0-0.6,0.1-0.7,0.2c-0.1,0.1-0.2,0.2-0.2,0.3c0,0.1,0.1,0.2,0.2,0.3
			c0.1,0.1,0.5,0.2,1,0.4c0.5,0.1,0.9,0.3,1.2,0.4c0.3,0.1,0.5,0.3,0.6,0.6c0.1,0.2,0.2,0.5,0.2,0.9c0,0.3-0.1,0.6-0.3,0.9
			c-0.2,0.3-0.4,0.5-0.7,0.6c-0.3,0.1-0.7,0.2-1.2,0.2c-0.7,0-1.2-0.2-1.6-0.5C-47.8,332.8-48.1,332.3-48.1,331.7z"/>
		<path d="M-42,330.7l-0.9-0.2c0.1-0.4,0.3-0.7,0.5-0.8c0.3-0.2,0.6-0.3,1.2-0.3c0.5,0,0.8,0.1,1,0.2c0.2,0.1,0.4,0.2,0.5,0.4
			c0.1,0.2,0.1,0.5,0.1,0.9l0,1.2c0,0.3,0,0.6,0.1,0.8c0,0.2,0.1,0.3,0.2,0.5h-1c0-0.1-0.1-0.2-0.1-0.3c0-0.1,0-0.1,0-0.1
			c-0.2,0.2-0.4,0.3-0.6,0.4c-0.2,0.1-0.4,0.1-0.6,0.1c-0.4,0-0.7-0.1-1-0.3c-0.2-0.2-0.4-0.5-0.4-0.8c0-0.2,0.1-0.4,0.2-0.6
			c0.1-0.2,0.3-0.3,0.4-0.4c0.2-0.1,0.5-0.2,0.8-0.2c0.5-0.1,0.8-0.2,1-0.3v-0.1c0-0.2,0-0.3-0.1-0.4c-0.1-0.1-0.3-0.1-0.6-0.1
			c-0.2,0-0.3,0-0.4,0.1C-41.9,330.4-42,330.5-42,330.7z M-40.6,331.6c-0.1,0-0.3,0.1-0.6,0.2c-0.3,0.1-0.5,0.1-0.6,0.2
			c-0.1,0.1-0.2,0.2-0.2,0.4c0,0.1,0.1,0.3,0.2,0.4c0.1,0.1,0.2,0.2,0.4,0.2c0.2,0,0.4-0.1,0.5-0.2c0.1-0.1,0.2-0.2,0.2-0.3
			c0-0.1,0-0.3,0-0.5V331.6z"/>
		<path d="M-36.8,329.5v0.8h-0.7v1.6c0,0.3,0,0.5,0,0.6c0,0.1,0,0.1,0.1,0.1c0,0,0.1,0.1,0.2,0.1c0.1,0,0.2,0,0.4-0.1l0.1,0.8
			c-0.2,0.1-0.5,0.2-0.8,0.2c-0.2,0-0.4,0-0.5-0.1c-0.1-0.1-0.3-0.1-0.3-0.2c-0.1-0.1-0.1-0.2-0.1-0.4c0-0.1,0-0.4,0-0.7v-1.7H-39
			v-0.8h0.5v-0.8l1-0.6v1.4H-36.8z"/>
		<path d="M-36.1,329v-1h1v1H-36.1z M-36.1,333.5v-3.9h1v3.9H-36.1z"/>
		<path d="M-34.3,332.3l1-0.2c0,0.2,0.1,0.4,0.3,0.5c0.1,0.1,0.3,0.2,0.6,0.2c0.3,0,0.5,0,0.6-0.1c0.1-0.1,0.1-0.2,0.1-0.3
			c0-0.1,0-0.1-0.1-0.2c-0.1,0-0.2-0.1-0.3-0.1c-0.8-0.2-1.4-0.4-1.6-0.5c-0.3-0.2-0.5-0.5-0.5-0.9c0-0.3,0.1-0.6,0.4-0.9
			c0.3-0.2,0.7-0.3,1.3-0.3c0.5,0,0.9,0.1,1.2,0.3c0.3,0.2,0.4,0.4,0.5,0.8l-1,0.2c0-0.2-0.1-0.3-0.2-0.4c-0.1-0.1-0.3-0.1-0.5-0.1
			c-0.3,0-0.5,0-0.6,0.1c-0.1,0.1-0.1,0.1-0.1,0.2c0,0.1,0,0.1,0.1,0.2c0.1,0.1,0.4,0.2,1,0.3c0.6,0.1,0.9,0.3,1.2,0.5
			c0.2,0.2,0.3,0.4,0.3,0.8c0,0.4-0.2,0.7-0.5,0.9c-0.3,0.3-0.7,0.4-1.3,0.4c-0.5,0-1-0.1-1.3-0.3C-34,333-34.2,332.7-34.3,332.3z"
			/>
		<path d="M-30.2,329.5h0.6v-0.3c0-0.3,0-0.6,0.1-0.7c0.1-0.2,0.2-0.3,0.4-0.4c0.2-0.1,0.4-0.2,0.7-0.2c0.3,0,0.6,0,0.9,0.1
			l-0.1,0.7c-0.2,0-0.3-0.1-0.5-0.1c-0.1,0-0.3,0-0.3,0.1c-0.1,0.1-0.1,0.2-0.1,0.4v0.3h0.8v0.8h-0.8v3.1h-1v-3.1h-0.6V329.5z"/>
		<path d="M-27.2,329v-1h1v1H-27.2z M-27.2,333.5v-3.9h1v3.9H-27.2z"/>
		<path d="M-22.8,332.2l1,0.2c-0.1,0.4-0.3,0.7-0.6,0.9c-0.3,0.2-0.6,0.3-1.1,0.3c-0.7,0-1.2-0.2-1.5-0.7c-0.3-0.4-0.4-0.8-0.4-1.4
			c0-0.7,0.2-1.2,0.5-1.5c0.3-0.4,0.8-0.6,1.3-0.6c0.6,0,1,0.2,1.4,0.6c0.3,0.4,0.5,1,0.5,1.8h-2.6c0,0.3,0.1,0.5,0.3,0.7
			c0.2,0.2,0.4,0.3,0.6,0.3c0.2,0,0.3,0,0.4-0.1C-23,332.5-22.9,332.4-22.8,332.2z M-22.8,331.2c0-0.3-0.1-0.5-0.2-0.7
			c-0.1-0.2-0.3-0.2-0.5-0.2c-0.2,0-0.4,0.1-0.6,0.2c-0.1,0.2-0.2,0.4-0.2,0.7H-22.8z"/>
		<path d="M-17.3,333.5h-1v-0.6c-0.2,0.2-0.3,0.4-0.6,0.5c-0.2,0.1-0.4,0.2-0.7,0.2c-0.5,0-0.8-0.2-1.2-0.5
			c-0.3-0.4-0.5-0.9-0.5-1.5c0-0.7,0.2-1.2,0.5-1.5c0.3-0.3,0.7-0.5,1.2-0.5c0.4,0,0.8,0.2,1.1,0.5v-2h1V333.5z M-20,331.4
			c0,0.4,0.1,0.7,0.2,0.9c0.2,0.3,0.4,0.4,0.7,0.4c0.2,0,0.4-0.1,0.6-0.3c0.2-0.2,0.3-0.5,0.3-0.9c0-0.5-0.1-0.8-0.2-1
			c-0.2-0.2-0.4-0.3-0.6-0.3c-0.2,0-0.5,0.1-0.6,0.3C-20,330.7-20,331-20,331.4z"/>
		<path d="M-13.9,330.6v-1h1v1H-13.9z M-13.9,333.5v-1h1v1H-13.9z"/>
		<path d="M-9.8,332l1-0.1c0,0.3,0.1,0.5,0.3,0.6c0.1,0.1,0.3,0.2,0.5,0.2c0.2,0,0.4-0.1,0.5-0.2c0.1-0.2,0.2-0.4,0.2-0.7
			c0-0.3-0.1-0.5-0.2-0.6c-0.1-0.2-0.3-0.2-0.5-0.2c-0.1,0-0.3,0-0.5,0.1l0.1-0.8c0.3,0,0.5-0.1,0.6-0.2c0.1-0.1,0.2-0.3,0.2-0.5
			c0-0.2-0.1-0.3-0.2-0.4c-0.1-0.1-0.3-0.2-0.4-0.2c-0.2,0-0.3,0.1-0.5,0.2c-0.1,0.1-0.2,0.3-0.2,0.5l-1-0.2
			c0.1-0.3,0.2-0.6,0.3-0.8c0.1-0.2,0.3-0.4,0.6-0.5c0.2-0.1,0.5-0.2,0.8-0.2c0.5,0,0.9,0.2,1.2,0.5c0.3,0.3,0.4,0.6,0.4,0.9
			c0,0.5-0.3,0.9-0.8,1.1c0.3,0.1,0.6,0.2,0.7,0.4c0.2,0.2,0.3,0.5,0.3,0.8c0,0.5-0.2,0.9-0.5,1.2c-0.3,0.3-0.8,0.5-1.3,0.5
			c-0.5,0-0.9-0.1-1.2-0.4C-9.5,332.8-9.7,332.5-9.8,332z"/>
	</g>
</g>
<g transform="translate(31,356)">
	<g>
		<g>
			<g transform="translate(8,3)">
				<g class="st14">
					<path class="st15" d="M-10.6,163.4l-1.3-3.5h0.5l1.1,2.9l1.1-2.9h0.4l-1.3,3.5H-10.6z"/>
					<path class="st15" d="M-6.4,163.3c-0.3,0.1-0.6,0.1-0.8,0.1c-0.4,0-0.7-0.1-0.9-0.4c-0.2-0.3-0.4-0.6-0.4-1
						c0-0.4,0.1-0.7,0.3-1c0.2-0.3,0.5-0.4,0.8-0.4c0.3,0,0.6,0.1,0.7,0.3c0.2,0.2,0.3,0.5,0.3,1l0,0.1H-8c0.1,0.6,0.4,0.9,0.9,0.9
						c0.2,0,0.4-0.1,0.7-0.2V163.3z M-8,161.8h1.1c0-0.5-0.2-0.7-0.5-0.7C-7.8,161.1-8,161.3-8,161.8z"/>
					<path class="st15" d="M-5.6,163.4v-2.6h0.5v0.5c0.2-0.4,0.5-0.5,0.8-0.5c0,0,0.1,0,0.2,0v0.4c-0.1,0-0.2,0-0.2,0
						c-0.3,0-0.5,0.2-0.7,0.5v1.7H-5.6z"/>
					<path class="st15" d="M-3.4,164.3l0.4-0.9l-1-2.6h0.5l0.7,2l0.8-2h0.4l-1.4,3.5H-3.4z"/>
					<path class="st15" d="M0.5,163.4v-3.5h1.2c0.4,0,0.6,0,0.9,0.1c0.2,0.1,0.4,0.2,0.6,0.4c0.3,0.3,0.4,0.7,0.4,1.2
						c0,0.5-0.1,1-0.4,1.3c-0.2,0.2-0.3,0.3-0.6,0.4c-0.2,0.1-0.5,0.1-0.8,0.1H0.5z M1,163h0.6c0.5,0,0.8-0.1,1-0.4
						c0.2-0.3,0.3-0.6,0.3-1.1c0-0.4-0.1-0.7-0.3-1c-0.1-0.1-0.3-0.2-0.4-0.3c-0.2-0.1-0.4-0.1-0.8-0.1H1V163z"/>
					<path class="st15" d="M4.2,160.3v-0.5h0.5v0.5H4.2z M4.2,163.4v-2.6h0.5v2.6H4.2z"/>
					<path class="st15" d="M5.5,163.3v-0.4c0.3,0.2,0.6,0.2,0.8,0.2c0.1,0,0.2,0,0.3-0.1c0.1-0.1,0.1-0.2,0.1-0.3
						c0-0.2-0.1-0.3-0.4-0.4l-0.3-0.1c-0.4-0.2-0.6-0.4-0.6-0.7c0-0.2,0.1-0.4,0.2-0.5c0.2-0.1,0.4-0.2,0.7-0.2c0.1,0,0.3,0,0.5,0.1
						l0.1,0v0.4c-0.3-0.1-0.5-0.1-0.6-0.1c-0.1,0-0.2,0-0.3,0.1C6,161.2,6,161.3,6,161.4c0,0.1,0.1,0.3,0.3,0.4l0.2,0.1
						c0.3,0.1,0.4,0.2,0.5,0.3c0.1,0.1,0.2,0.3,0.2,0.5c0,0.2-0.1,0.4-0.3,0.6c-0.2,0.1-0.4,0.2-0.7,0.2
						C6.1,163.4,5.8,163.4,5.5,163.3z"/>
					<path class="st15" d="M8,163.3v-0.4c0.3,0.2,0.6,0.2,0.8,0.2c0.1,0,0.2,0,0.3-0.1c0.1-0.1,0.1-0.2,0.1-0.3
						c0-0.2-0.1-0.3-0.4-0.4l-0.3-0.1C8.2,162,8,161.8,8,161.4c0-0.2,0.1-0.4,0.2-0.5c0.2-0.1,0.4-0.2,0.7-0.2c0.1,0,0.3,0,0.5,0.1
						l0.1,0v0.4c-0.3-0.1-0.5-0.1-0.6-0.1c-0.1,0-0.2,0-0.3,0.1c-0.1,0.1-0.1,0.1-0.1,0.2c0,0.1,0.1,0.3,0.3,0.4l0.2,0.1
						c0.3,0.1,0.4,0.2,0.5,0.3c0.1,0.1,0.2,0.3,0.2,0.5c0,0.2-0.1,0.4-0.3,0.6c-0.2,0.1-0.4,0.2-0.7,0.2
						C8.6,163.4,8.3,163.4,8,163.3z"/>
					<path class="st15" d="M11.9,163c-0.3,0.3-0.6,0.4-0.8,0.4c-0.2,0-0.4-0.1-0.5-0.2c-0.1-0.1-0.2-0.3-0.2-0.5
						c0-0.3,0.1-0.5,0.4-0.7s0.6-0.2,1-0.2h0.1v-0.3c0-0.3-0.2-0.5-0.5-0.5c-0.2,0-0.5,0.1-0.8,0.2v-0.4c0.3-0.1,0.6-0.2,0.9-0.2
						c0.3,0,0.5,0.1,0.6,0.2c0.1,0.1,0.2,0.3,0.2,0.6v1.2c0,0.3,0.1,0.4,0.2,0.4c0,0,0.1,0,0.1,0l0,0.3c-0.1,0.1-0.2,0.1-0.4,0.1
						C12.1,163.4,12,163.3,11.9,163z M11.8,162.8v-0.7l-0.2,0c-0.3,0-0.5,0-0.6,0.1c-0.2,0.1-0.2,0.2-0.2,0.4c0,0.1,0,0.2,0.1,0.3
						c0.1,0.1,0.2,0.1,0.3,0.1C11.4,163,11.6,163,11.8,162.8z"/>
					<path class="st15" d="M14.4,163.4c-0.1,0-0.3,0.1-0.4,0.1c-0.2,0-0.4-0.1-0.6-0.2c-0.1-0.1-0.2-0.3-0.2-0.6v-1.5H13v-0.4h0.3
						v-0.5l0.5,0v0.5h0.7v0.4h-0.7v1.4c0,0.3,0.1,0.5,0.4,0.5c0.1,0,0.1,0,0.2,0V163.4z"/>
					<path class="st15" d="M15.1,160.3v-0.5h0.5v0.5H15.1z M15.1,163.4v-2.6h0.5v2.6H15.1z"/>
					<path class="st15" d="M16.4,163.3v-0.4c0.3,0.2,0.6,0.2,0.8,0.2c0.1,0,0.2,0,0.3-0.1c0.1-0.1,0.1-0.2,0.1-0.3
						c0-0.2-0.1-0.3-0.4-0.4l-0.3-0.1c-0.4-0.2-0.6-0.4-0.6-0.7c0-0.2,0.1-0.4,0.2-0.5c0.2-0.1,0.4-0.2,0.7-0.2c0.1,0,0.3,0,0.5,0.1
						l0.1,0v0.4c-0.3-0.1-0.5-0.1-0.6-0.1c-0.1,0-0.2,0-0.3,0.1c-0.1,0.1-0.1,0.1-0.1,0.2c0,0.1,0.1,0.3,0.3,0.4l0.2,0.1
						c0.3,0.1,0.4,0.2,0.5,0.3c0.1,0.1,0.2,0.3,0.2,0.5c0,0.2-0.1,0.4-0.3,0.6c-0.2,0.1-0.4,0.2-0.7,0.2
						C17,163.4,16.7,163.4,16.4,163.3z"/>
					<path class="st15" d="M19.1,163.4v-2.2h-0.4v-0.4h0.4v-0.3c0-0.6,0.3-0.9,0.8-0.9c0.2,0,0.3,0,0.5,0.1v0.4
						c-0.2-0.1-0.4-0.1-0.5-0.1c-0.2,0-0.3,0-0.3,0.1c-0.1,0.1-0.1,0.2-0.1,0.4v0.4h0.7v0.4h-0.7v2.2H19.1z"/>
					<path class="st15" d="M20.8,160.3v-0.5h0.5v0.5H20.8z M20.8,163.4v-2.6h0.5v2.6H20.8z"/>
					<path class="st15" d="M24.1,163.3c-0.3,0.1-0.6,0.1-0.8,0.1c-0.4,0-0.7-0.1-0.9-0.4c-0.2-0.3-0.4-0.6-0.4-1
						c0-0.4,0.1-0.7,0.3-1c0.2-0.3,0.5-0.4,0.8-0.4c0.3,0,0.6,0.1,0.7,0.3c0.2,0.2,0.3,0.5,0.3,1l0,0.1h-1.6
						c0.1,0.6,0.4,0.9,0.9,0.9c0.2,0,0.4-0.1,0.7-0.2V163.3z M22.5,161.8h1.1c0-0.5-0.2-0.7-0.5-0.7
						C22.8,161.1,22.6,161.3,22.5,161.8z"/>
					<path class="st15" d="M26.6,163.4v-0.5c-0.2,0.4-0.5,0.5-0.9,0.5c-0.3,0-0.6-0.1-0.7-0.3c-0.2-0.2-0.3-0.5-0.3-0.9
						c0-0.4,0.1-0.8,0.3-1c0.2-0.3,0.5-0.4,0.8-0.4c0.3,0,0.6,0.1,0.8,0.4v-1.5h0.5v3.8H26.6z M26.6,161.4c-0.2-0.2-0.5-0.3-0.7-0.3
						c-0.2,0-0.4,0.1-0.5,0.3c-0.1,0.2-0.2,0.4-0.2,0.8c0,0.6,0.2,0.9,0.6,0.9c0.3,0,0.5-0.1,0.8-0.4V161.4z"/>
				</g>
				<rect x="-23.4" y="157.4" class="st30" width="8.7" height="6.5"/>
			</g>
			<g transform="translate(146.8125,3)">
				<g class="st14">
					<path class="st15" d="M-74.9,163.4v-3.5h1.2c0.4,0,0.6,0,0.9,0.1c0.2,0.1,0.4,0.2,0.6,0.4c0.3,0.3,0.4,0.7,0.4,1.2
						c0,0.5-0.1,1-0.4,1.3c-0.2,0.2-0.3,0.3-0.6,0.4c-0.2,0.1-0.5,0.1-0.8,0.1H-74.9z M-74.4,163h0.6c0.5,0,0.8-0.1,1-0.4
						c0.2-0.3,0.3-0.6,0.3-1.1c0-0.4-0.1-0.7-0.3-1c-0.1-0.1-0.3-0.2-0.4-0.3c-0.2-0.1-0.4-0.1-0.8-0.1h-0.4V163z"/>
					<path class="st15" d="M-71.2,160.3v-0.5h0.5v0.5H-71.2z M-71.2,163.4v-2.6h0.5v2.6H-71.2z"/>
					<path class="st15" d="M-69.9,163.3v-0.4c0.3,0.2,0.6,0.2,0.8,0.2c0.1,0,0.2,0,0.3-0.1c0.1-0.1,0.1-0.2,0.1-0.3
						c0-0.2-0.1-0.3-0.4-0.4l-0.3-0.1c-0.4-0.2-0.6-0.4-0.6-0.7c0-0.2,0.1-0.4,0.2-0.5c0.2-0.1,0.4-0.2,0.7-0.2c0.1,0,0.3,0,0.5,0.1
						l0.1,0v0.4c-0.3-0.1-0.5-0.1-0.6-0.1c-0.1,0-0.2,0-0.3,0.1c-0.1,0.1-0.1,0.1-0.1,0.2c0,0.1,0.1,0.3,0.3,0.4l0.2,0.1
						c0.3,0.1,0.4,0.2,0.5,0.3c0.1,0.1,0.2,0.3,0.2,0.5c0,0.2-0.1,0.4-0.3,0.6c-0.2,0.1-0.4,0.2-0.7,0.2
						C-69.3,163.4-69.6,163.4-69.9,163.3z"/>
					<path class="st15" d="M-67.4,163.3v-0.4c0.3,0.2,0.6,0.2,0.8,0.2c0.1,0,0.2,0,0.3-0.1c0.1-0.1,0.1-0.2,0.1-0.3
						c0-0.2-0.1-0.3-0.4-0.4l-0.3-0.1c-0.4-0.2-0.6-0.4-0.6-0.7c0-0.2,0.1-0.4,0.2-0.5c0.2-0.1,0.4-0.2,0.7-0.2c0.1,0,0.3,0,0.5,0.1
						l0.1,0v0.4c-0.3-0.1-0.5-0.1-0.6-0.1c-0.1,0-0.2,0-0.3,0.1c-0.1,0.1-0.1,0.1-0.1,0.2c0,0.1,0.1,0.3,0.3,0.4l0.2,0.1
						c0.3,0.1,0.4,0.2,0.5,0.3c0.1,0.1,0.2,0.3,0.2,0.5c0,0.2-0.1,0.4-0.3,0.6c-0.2,0.1-0.4,0.2-0.7,0.2
						C-66.8,163.4-67.1,163.4-67.4,163.3z"/>
					<path class="st15" d="M-63.5,163c-0.3,0.3-0.6,0.4-0.8,0.4c-0.2,0-0.4-0.1-0.5-0.2c-0.1-0.1-0.2-0.3-0.2-0.5
						c0-0.3,0.1-0.5,0.4-0.7c0.2-0.2,0.6-0.2,1-0.2h0.1v-0.3c0-0.3-0.2-0.5-0.5-0.5c-0.2,0-0.5,0.1-0.8,0.2v-0.4
						c0.3-0.1,0.6-0.2,0.9-0.2c0.3,0,0.5,0.1,0.6,0.2c0.1,0.1,0.2,0.3,0.2,0.6v1.2c0,0.3,0.1,0.4,0.2,0.4c0,0,0.1,0,0.1,0l0,0.3
						c-0.1,0.1-0.2,0.1-0.4,0.1C-63.3,163.4-63.4,163.3-63.5,163z M-63.5,162.8v-0.7l-0.2,0c-0.3,0-0.5,0-0.6,0.1
						c-0.2,0.1-0.2,0.2-0.2,0.4c0,0.1,0,0.2,0.1,0.3c0.1,0.1,0.2,0.1,0.3,0.1C-63.9,163-63.7,163-63.5,162.8z"/>
					<path class="st15" d="M-60.9,163.4c-0.1,0-0.3,0.1-0.4,0.1c-0.2,0-0.4-0.1-0.6-0.2c-0.1-0.1-0.2-0.3-0.2-0.6v-1.5h-0.3v-0.4
						h0.3v-0.5l0.5,0v0.5h0.7v0.4h-0.7v1.4c0,0.3,0.1,0.5,0.4,0.5c0.1,0,0.1,0,0.2,0V163.4z"/>
					<path class="st15" d="M-60.3,160.3v-0.5h0.5v0.5H-60.3z M-60.3,163.4v-2.6h0.5v2.6H-60.3z"/>
					<path class="st15" d="M-58.9,163.3v-0.4c0.3,0.2,0.6,0.2,0.8,0.2c0.1,0,0.2,0,0.3-0.1c0.1-0.1,0.1-0.2,0.1-0.3
						c0-0.2-0.1-0.3-0.4-0.4l-0.3-0.1c-0.4-0.2-0.6-0.4-0.6-0.7c0-0.2,0.1-0.4,0.2-0.5c0.2-0.1,0.4-0.2,0.7-0.2c0.1,0,0.3,0,0.5,0.1
						l0.1,0v0.4c-0.3-0.1-0.5-0.1-0.6-0.1c-0.1,0-0.2,0-0.3,0.1c-0.1,0.1-0.1,0.1-0.1,0.2c0,0.1,0.1,0.3,0.3,0.4l0.2,0.1
						c0.3,0.1,0.4,0.2,0.5,0.3c0.1,0.1,0.2,0.3,0.2,0.5c0,0.2-0.1,0.4-0.3,0.6c-0.2,0.1-0.4,0.2-0.7,0.2
						C-58.4,163.4-58.6,163.4-58.9,163.3z"/>
					<path class="st15" d="M-56.3,163.4v-2.2h-0.4v-0.4h0.4v-0.3c0-0.6,0.3-0.9,0.8-0.9c0.2,0,0.3,0,0.5,0.1v0.4
						c-0.2-0.1-0.4-0.1-0.5-0.1c-0.2,0-0.3,0-0.3,0.1c-0.1,0.1-0.1,0.2-0.1,0.4v0.4h0.7v0.4h-0.7v2.2H-56.3z"/>
					<path class="st15" d="M-54.5,160.3v-0.5h0.5v0.5H-54.5z M-54.5,163.4v-2.6h0.5v2.6H-54.5z"/>
					<path class="st15" d="M-51.2,163.3c-0.3,0.1-0.6,0.1-0.8,0.1c-0.4,0-0.7-0.1-0.9-0.4c-0.2-0.3-0.4-0.6-0.4-1
						c0-0.4,0.1-0.7,0.3-1c0.2-0.3,0.5-0.4,0.8-0.4c0.3,0,0.6,0.1,0.7,0.3c0.2,0.2,0.3,0.5,0.3,1l0,0.1h-1.6
						c0.1,0.6,0.4,0.9,0.9,0.9c0.2,0,0.4-0.1,0.7-0.2V163.3z M-52.8,161.8h1.1c0-0.5-0.2-0.7-0.5-0.7
						C-52.6,161.1-52.8,161.3-52.8,161.8z"/>
					<path class="st15" d="M-48.7,163.4v-0.5c-0.2,0.4-0.5,0.5-0.9,0.5c-0.3,0-0.6-0.1-0.7-0.3c-0.2-0.2-0.3-0.5-0.3-0.9
						c0-0.4,0.1-0.8,0.3-1c0.2-0.3,0.5-0.4,0.8-0.4c0.3,0,0.6,0.1,0.8,0.4v-1.5h0.5v3.8H-48.7z M-48.7,161.4
						c-0.2-0.2-0.5-0.3-0.7-0.3c-0.2,0-0.4,0.1-0.5,0.3c-0.1,0.2-0.2,0.4-0.2,0.8c0,0.6,0.2,0.9,0.6,0.9c0.3,0,0.5-0.1,0.8-0.4
						V161.4z"/>
				</g>
				<rect x="-86.7" y="157.4" class="st31" width="8.7" height="6.5"/>
			</g>
			<g transform="translate(255.3125,3)">
				<g class="st14">
					<path class="st15" d="M-124.4,163.4v-3.5h0.5l1.8,2.7v-2.7h0.4v3.5h-0.5l-1.8-2.7v2.7H-124.4z"/>
					<path class="st15" d="M-118.8,163.3c-0.3,0.1-0.6,0.1-0.8,0.1c-0.4,0-0.7-0.1-0.9-0.4c-0.2-0.3-0.4-0.6-0.4-1
						c0-0.4,0.1-0.7,0.3-1c0.2-0.3,0.5-0.4,0.8-0.4c0.3,0,0.6,0.1,0.7,0.3c0.2,0.2,0.3,0.5,0.3,1l0,0.1h-1.6
						c0.1,0.6,0.4,0.9,0.9,0.9c0.2,0,0.4-0.1,0.7-0.2V163.3z M-120.5,161.8h1.1c0-0.5-0.2-0.7-0.5-0.7
						C-120.2,161.1-120.4,161.3-120.5,161.8z"/>
					<path class="st15" d="M-116.4,163.4v-0.5c-0.3,0.4-0.6,0.5-0.9,0.5c-0.2,0-0.4-0.1-0.5-0.2c-0.1-0.1-0.2-0.3-0.2-0.6v-1.9h0.5
						v1.7c0,0.2,0,0.3,0.1,0.4c0.1,0.1,0.2,0.1,0.3,0.1c0.3,0,0.6-0.2,0.8-0.6v-1.7h0.5v2.6H-116.4z"/>
					<path class="st15" d="M-113.8,163.4c-0.1,0-0.3,0.1-0.4,0.1c-0.2,0-0.4-0.1-0.6-0.2c-0.1-0.1-0.2-0.3-0.2-0.6v-1.5h-0.3v-0.4
						h0.3v-0.5l0.5,0v0.5h0.7v0.4h-0.7v1.4c0,0.3,0.1,0.5,0.4,0.5c0.1,0,0.1,0,0.2,0V163.4z"/>
					<path class="st15" d="M-113.2,163.4v-2.6h0.5v0.5c0.2-0.4,0.5-0.5,0.8-0.5c0,0,0.1,0,0.2,0v0.4c-0.1,0-0.2,0-0.2,0
						c-0.3,0-0.5,0.2-0.7,0.5v1.7H-113.2z"/>
					<path class="st15" d="M-109.8,163c-0.3,0.3-0.6,0.4-0.8,0.4c-0.2,0-0.4-0.1-0.5-0.2c-0.1-0.1-0.2-0.3-0.2-0.5
						c0-0.3,0.1-0.5,0.4-0.7c0.2-0.2,0.6-0.2,1-0.2h0.1v-0.3c0-0.3-0.2-0.5-0.5-0.5c-0.2,0-0.5,0.1-0.8,0.2v-0.4
						c0.3-0.1,0.6-0.2,0.9-0.2c0.3,0,0.5,0.1,0.6,0.2c0.1,0.1,0.2,0.3,0.2,0.6v1.2c0,0.3,0.1,0.4,0.2,0.4c0,0,0.1,0,0.1,0l0,0.3
						c-0.1,0.1-0.2,0.1-0.4,0.1C-109.6,163.4-109.8,163.3-109.8,163z M-109.9,162.8v-0.7l-0.2,0c-0.3,0-0.5,0-0.6,0.1
						c-0.2,0.1-0.2,0.2-0.2,0.4c0,0.1,0,0.2,0.1,0.3c0.1,0.1,0.2,0.1,0.3,0.1C-110.3,163-110.1,163-109.9,162.8z"/>
					<path class="st15" d="M-108.5,163.4v-3.8h0.5v3.8H-108.5z"/>
				</g>
				<rect x="-136.3" y="157.4" class="st32" width="8.7" height="6.5"/>
			</g>
			<g transform="translate(338.796875,3)">
				<g class="st14">
					<path class="st15" d="M-162.7,163.3v-0.5c0.4,0.2,0.7,0.3,1,0.3c0.2,0,0.4-0.1,0.5-0.2c0.1-0.1,0.2-0.2,0.2-0.4
						c0-0.1,0-0.3-0.1-0.4c-0.1-0.1-0.2-0.2-0.4-0.3l-0.2-0.1c-0.3-0.2-0.5-0.3-0.6-0.5c-0.1-0.2-0.2-0.3-0.2-0.5
						c0-0.3,0.1-0.5,0.3-0.7s0.4-0.3,0.8-0.3c0.3,0,0.6,0,0.9,0.1v0.5c-0.4-0.1-0.7-0.2-0.8-0.2c-0.2,0-0.3,0-0.4,0.1
						c-0.1,0.1-0.2,0.2-0.2,0.3c0,0.1,0,0.2,0.1,0.3c0.1,0.1,0.2,0.2,0.5,0.3l0.3,0.1c0.3,0.2,0.5,0.3,0.6,0.5
						c0.1,0.2,0.2,0.3,0.2,0.6c0,0.3-0.1,0.6-0.3,0.7c-0.2,0.2-0.5,0.3-0.9,0.3C-162,163.5-162.3,163.4-162.7,163.3z"/>
					<path class="st15" d="M-158.5,163c-0.3,0.3-0.6,0.4-0.8,0.4c-0.2,0-0.4-0.1-0.5-0.2c-0.1-0.1-0.2-0.3-0.2-0.5
						c0-0.3,0.1-0.5,0.4-0.7s0.6-0.2,1-0.2h0.1v-0.3c0-0.3-0.2-0.5-0.5-0.5c-0.2,0-0.5,0.1-0.8,0.2v-0.4c0.3-0.1,0.6-0.2,0.9-0.2
						c0.3,0,0.5,0.1,0.6,0.2c0.1,0.1,0.2,0.3,0.2,0.6v1.2c0,0.3,0.1,0.4,0.2,0.4c0,0,0.1,0,0.1,0l0,0.3c-0.1,0.1-0.2,0.1-0.4,0.1
						C-158.3,163.4-158.4,163.3-158.5,163z M-158.6,162.8v-0.7l-0.2,0c-0.3,0-0.5,0-0.6,0.1c-0.2,0.1-0.2,0.2-0.2,0.4
						c0,0.1,0,0.2,0.1,0.3c0.1,0.1,0.2,0.1,0.3,0.1C-159,163-158.8,163-158.6,162.8z"/>
					<path class="st15" d="M-156,163.4c-0.1,0-0.3,0.1-0.4,0.1c-0.2,0-0.4-0.1-0.6-0.2c-0.1-0.1-0.2-0.3-0.2-0.6v-1.5h-0.3v-0.4h0.3
						v-0.5l0.5,0v0.5h0.7v0.4h-0.7v1.4c0,0.3,0.1,0.5,0.4,0.5c0.1,0,0.1,0,0.2,0V163.4z"/>
					<path class="st15" d="M-155.3,160.3v-0.5h0.5v0.5H-155.3z M-155.3,163.4v-2.6h0.5v2.6H-155.3z"/>
					<path class="st15" d="M-154,163.3v-0.4c0.3,0.2,0.6,0.2,0.8,0.2c0.1,0,0.2,0,0.3-0.1c0.1-0.1,0.1-0.2,0.1-0.3
						c0-0.2-0.1-0.3-0.4-0.4l-0.3-0.1c-0.4-0.2-0.6-0.4-0.6-0.7c0-0.2,0.1-0.4,0.2-0.5c0.2-0.1,0.4-0.2,0.7-0.2c0.1,0,0.3,0,0.5,0.1
						l0.1,0v0.4c-0.3-0.1-0.5-0.1-0.6-0.1c-0.1,0-0.2,0-0.3,0.1c-0.1,0.1-0.1,0.1-0.1,0.2c0,0.1,0.1,0.3,0.3,0.4l0.2,0.1
						c0.3,0.1,0.4,0.2,0.5,0.3c0.1,0.1,0.2,0.3,0.2,0.5c0,0.2-0.1,0.4-0.3,0.6c-0.2,0.1-0.4,0.2-0.7,0.2
						C-153.4,163.4-153.7,163.4-154,163.3z"/>
					<path class="st15" d="M-151.3,163.4v-2.2h-0.4v-0.4h0.4v-0.3c0-0.6,0.3-0.9,0.8-0.9c0.2,0,0.3,0,0.5,0.1v0.4
						c-0.2-0.1-0.4-0.1-0.5-0.1c-0.2,0-0.3,0-0.3,0.1c-0.1,0.1-0.1,0.2-0.1,0.4v0.4h0.7v0.4h-0.7v2.2H-151.3z"/>
					<path class="st15" d="M-149.6,160.3v-0.5h0.5v0.5H-149.6z M-149.6,163.4v-2.6h0.5v2.6H-149.6z"/>
					<path class="st15" d="M-146.3,163.3c-0.3,0.1-0.6,0.1-0.8,0.1c-0.4,0-0.7-0.1-0.9-0.4c-0.2-0.3-0.4-0.6-0.4-1
						c0-0.4,0.1-0.7,0.3-1c0.2-0.3,0.5-0.4,0.8-0.4c0.3,0,0.6,0.1,0.7,0.3c0.2,0.2,0.3,0.5,0.3,1l0,0.1h-1.6
						c0.1,0.6,0.4,0.9,0.9,0.9c0.2,0,0.4-0.1,0.7-0.2V163.3z M-147.9,161.8h1.1c0-0.5-0.2-0.7-0.5-0.7
						C-147.6,161.1-147.8,161.3-147.9,161.8z"/>
					<path class="st15" d="M-143.8,163.4v-0.5c-0.2,0.4-0.5,0.5-0.9,0.5c-0.3,0-0.6-0.1-0.7-0.3c-0.2-0.2-0.3-0.5-0.3-0.9
						c0-0.4,0.1-0.8,0.3-1c0.2-0.3,0.5-0.4,0.8-0.4c0.3,0,0.6,0.1,0.8,0.4v-1.5h0.5v3.8H-143.8z M-143.8,161.4
						c-0.2-0.2-0.5-0.3-0.7-0.3c-0.2,0-0.4,0.1-0.5,0.3c-0.1,0.2-0.2,0.4-0.2,0.8c0,0.6,0.2,0.9,0.6,0.9c0.3,0,0.5-0.1,0.8-0.4
						V161.4z"/>
				</g>
				<rect x="-174.3" y="157.4" class="st33" width="8.7" height="6.5"/>
			</g>
			<g transform="translate(429.078125,3)">
				<g class="st14">
					<path class="st15" d="M-202.7,163.4l-1.3-3.5h0.5l1.1,2.9l1.1-2.9h0.4l-1.3,3.5H-202.7z"/>
					<path class="st15" d="M-198.6,163.3c-0.3,0.1-0.6,0.1-0.8,0.1c-0.4,0-0.7-0.1-0.9-0.4c-0.2-0.3-0.4-0.6-0.4-1
						c0-0.4,0.1-0.7,0.3-1c0.2-0.3,0.5-0.4,0.8-0.4c0.3,0,0.6,0.1,0.7,0.3c0.2,0.2,0.3,0.5,0.3,1l0,0.1h-1.6
						c0.1,0.6,0.4,0.9,0.9,0.9c0.2,0,0.4-0.1,0.7-0.2V163.3z M-200.2,161.8h1.1c0-0.5-0.2-0.7-0.5-0.7
						C-199.9,161.1-200.1,161.3-200.2,161.8z"/>
					<path class="st15" d="M-197.7,163.4v-2.6h0.5v0.5c0.2-0.4,0.5-0.5,0.8-0.5c0,0,0.1,0,0.2,0v0.4c-0.1,0-0.2,0-0.2,0
						c-0.3,0-0.5,0.2-0.7,0.5v1.7H-197.7z"/>
					<path class="st15" d="M-195.6,164.3l0.4-0.9l-1-2.6h0.5l0.7,2l0.8-2h0.4l-1.4,3.5H-195.6z"/>
					<path class="st15" d="M-191.9,163.3v-0.5c0.4,0.2,0.7,0.3,1,0.3c0.2,0,0.4-0.1,0.5-0.2c0.1-0.1,0.2-0.2,0.2-0.4
						c0-0.1,0-0.3-0.1-0.4c-0.1-0.1-0.2-0.2-0.4-0.3l-0.2-0.1c-0.3-0.2-0.5-0.3-0.6-0.5c-0.1-0.2-0.2-0.3-0.2-0.5
						c0-0.3,0.1-0.5,0.3-0.7c0.2-0.2,0.4-0.3,0.8-0.3c0.3,0,0.6,0,0.9,0.1v0.5c-0.4-0.1-0.7-0.2-0.8-0.2c-0.2,0-0.3,0-0.4,0.1
						c-0.1,0.1-0.2,0.2-0.2,0.3c0,0.1,0,0.2,0.1,0.3c0.1,0.1,0.2,0.2,0.5,0.3l0.3,0.1c0.3,0.2,0.5,0.3,0.6,0.5
						c0.1,0.2,0.2,0.3,0.2,0.6c0,0.3-0.1,0.6-0.3,0.7c-0.2,0.2-0.5,0.3-0.9,0.3C-191.2,163.5-191.5,163.4-191.9,163.3z"/>
					<path class="st15" d="M-187.6,163c-0.3,0.3-0.6,0.4-0.8,0.4c-0.2,0-0.4-0.1-0.5-0.2c-0.1-0.1-0.2-0.3-0.2-0.5
						c0-0.3,0.1-0.5,0.4-0.7c0.2-0.2,0.6-0.2,1-0.2h0.1v-0.3c0-0.3-0.2-0.5-0.5-0.5c-0.2,0-0.5,0.1-0.8,0.2v-0.4
						c0.3-0.1,0.6-0.2,0.9-0.2c0.3,0,0.5,0.1,0.6,0.2c0.1,0.1,0.2,0.3,0.2,0.6v1.2c0,0.3,0.1,0.4,0.2,0.4c0,0,0.1,0,0.1,0l0,0.3
						c-0.1,0.1-0.2,0.1-0.4,0.1C-187.4,163.4-187.6,163.3-187.6,163z M-187.7,162.8v-0.7l-0.2,0c-0.3,0-0.5,0-0.6,0.1
						c-0.2,0.1-0.2,0.2-0.2,0.4c0,0.1,0,0.2,0.1,0.3c0.1,0.1,0.2,0.1,0.3,0.1C-188.1,163-187.9,163-187.7,162.8z"/>
					<path class="st15" d="M-185.1,163.4c-0.1,0-0.3,0.1-0.4,0.1c-0.2,0-0.4-0.1-0.6-0.2c-0.1-0.1-0.2-0.3-0.2-0.6v-1.5h-0.3v-0.4
						h0.3v-0.5l0.5,0v0.5h0.7v0.4h-0.7v1.4c0,0.3,0.1,0.5,0.4,0.5c0.1,0,0.1,0,0.2,0V163.4z"/>
					<path class="st15" d="M-184.5,160.3v-0.5h0.5v0.5H-184.5z M-184.5,163.4v-2.6h0.5v2.6H-184.5z"/>
					<path class="st15" d="M-183.1,163.3v-0.4c0.3,0.2,0.6,0.2,0.8,0.2c0.1,0,0.2,0,0.3-0.1c0.1-0.1,0.1-0.2,0.1-0.3
						c0-0.2-0.1-0.3-0.4-0.4l-0.3-0.1c-0.4-0.2-0.6-0.4-0.6-0.7c0-0.2,0.1-0.4,0.2-0.5c0.2-0.1,0.4-0.2,0.7-0.2c0.1,0,0.3,0,0.5,0.1
						l0.1,0v0.4c-0.3-0.1-0.5-0.1-0.6-0.1c-0.1,0-0.2,0-0.3,0.1c-0.1,0.1-0.1,0.1-0.1,0.2c0,0.1,0.1,0.3,0.3,0.4l0.2,0.1
						c0.3,0.1,0.4,0.2,0.5,0.3c0.1,0.1,0.2,0.3,0.2,0.5c0,0.2-0.1,0.4-0.3,0.6c-0.2,0.1-0.4,0.2-0.7,0.2
						C-182.6,163.4-182.8,163.4-183.1,163.3z"/>
					<path class="st15" d="M-180.5,163.4v-2.2h-0.4v-0.4h0.4v-0.3c0-0.6,0.3-0.9,0.8-0.9c0.2,0,0.3,0,0.5,0.1v0.4
						c-0.2-0.1-0.4-0.1-0.5-0.1c-0.2,0-0.3,0-0.3,0.1c-0.1,0.1-0.1,0.2-0.1,0.4v0.4h0.7v0.4h-0.7v2.2H-180.5z"/>
					<path class="st15" d="M-178.7,160.3v-0.5h0.5v0.5H-178.7z M-178.7,163.4v-2.6h0.5v2.6H-178.7z"/>
					<path class="st15" d="M-175.4,163.3c-0.3,0.1-0.6,0.1-0.8,0.1c-0.4,0-0.7-0.1-0.9-0.4c-0.2-0.3-0.4-0.6-0.4-1
						c0-0.4,0.1-0.7,0.3-1c0.2-0.3,0.5-0.4,0.8-0.4c0.3,0,0.6,0.1,0.7,0.3c0.2,0.2,0.3,0.5,0.3,1l0,0.1h-1.6
						c0.1,0.6,0.4,0.9,0.9,0.9c0.2,0,0.4-0.1,0.7-0.2V163.3z M-177,161.8h1.1c0-0.5-0.2-0.7-0.5-0.7
						C-176.8,161.1-177,161.3-177,161.8z"/>
					<path class="st15" d="M-172.9,163.4v-0.5c-0.2,0.4-0.5,0.5-0.9,0.5c-0.3,0-0.6-0.1-0.7-0.3c-0.2-0.2-0.3-0.5-0.3-0.9
						c0-0.4,0.1-0.8,0.3-1c0.2-0.3,0.5-0.4,0.8-0.4c0.3,0,0.6,0.1,0.8,0.4v-1.5h0.5v3.8H-172.9z M-172.9,161.4
						c-0.2-0.2-0.5-0.3-0.7-0.3c-0.2,0-0.4,0.1-0.5,0.3c-0.1,0.2-0.2,0.4-0.2,0.8c0,0.6,0.2,0.9,0.6,0.9c0.3,0,0.5-0.1,0.8-0.4
						V161.4z"/>
				</g>
				<rect x="-215.5" y="157.4" class="st34" width="8.7" height="6.5"/>
			</g>
		</g>
	</g>
</g>
<g>
	<path d="M81.2,33.8h-1V30h-4.3v3.8h-1v-8.4h1v3.7h4.3v-3.7h1V33.8z"/>
	<path d="M85.8,34c-0.9,0-1.6-0.3-2.1-0.8s-0.8-1.3-0.8-2.2c0-1,0.3-1.8,0.8-2.4s1.3-0.8,2.2-0.8c0.9,0,1.6,0.3,2.1,0.8
		s0.8,1.3,0.8,2.3c0,1-0.3,1.7-0.8,2.3S86.7,34,85.8,34z M85.9,28.5c-0.6,0-1.1,0.2-1.5,0.6s-0.5,1-0.5,1.7c0,0.7,0.2,1.3,0.5,1.7
		s0.8,0.6,1.5,0.6c0.6,0,1.1-0.2,1.4-0.6s0.5-1,0.5-1.7c0-0.8-0.2-1.3-0.5-1.7S86.5,28.5,85.9,28.5z"/>
	<path d="M97.9,27.8l-1.8,6h-1l-1.2-4.3c0-0.2-0.1-0.3-0.1-0.6h0c0,0.1-0.1,0.3-0.1,0.5l-1.3,4.3h-1l-1.8-6h1l1.2,4.5
		c0,0.1,0.1,0.3,0.1,0.5h0c0-0.2,0-0.4,0.1-0.6l1.4-4.5h0.9l1.2,4.5c0,0.1,0.1,0.3,0.1,0.5h0c0-0.2,0-0.3,0.1-0.5l1.2-4.5H97.9z"/>
	<path d="M104.8,34c-0.9,0-1.6-0.3-2.1-0.8s-0.8-1.3-0.8-2.2c0-1,0.3-1.8,0.8-2.4s1.3-0.8,2.2-0.8c0.9,0,1.6,0.3,2.1,0.8
		s0.8,1.3,0.8,2.3c0,1-0.3,1.7-0.8,2.3S105.7,34,104.8,34z M104.9,28.5c-0.6,0-1.1,0.2-1.5,0.6s-0.5,1-0.5,1.7
		c0,0.7,0.2,1.3,0.5,1.7s0.8,0.6,1.5,0.6c0.6,0,1.1-0.2,1.4-0.6s0.5-1,0.5-1.7c0-0.8-0.2-1.3-0.5-1.7S105.5,28.5,104.9,28.5z"/>
	<path d="M112.3,25.8c-0.2-0.1-0.4-0.2-0.6-0.2c-0.7,0-1,0.4-1,1.3v0.9h1.4v0.8h-1.4v5.2h-1v-5.2h-1v-0.8h1v-1
		c0-0.6,0.2-1.1,0.5-1.5s0.8-0.5,1.4-0.5c0.3,0,0.5,0,0.7,0.1V25.8z"/>
	<path d="M115.9,33.8c-0.2,0.1-0.5,0.2-0.9,0.2c-1.1,0-1.6-0.6-1.6-1.8v-3.6h-1v-0.8h1v-1.5l1-0.3v1.8h1.5v0.8h-1.5V32
		c0,0.4,0.1,0.7,0.2,0.9s0.4,0.3,0.7,0.3c0.2,0,0.5-0.1,0.6-0.2V33.8z"/>
	<path d="M122,31.1h-4.2c0,0.7,0.2,1.2,0.5,1.5s0.8,0.5,1.4,0.5c0.7,0,1.3-0.2,1.9-0.7v0.9c-0.5,0.4-1.2,0.6-2.1,0.6
		c-0.8,0-1.5-0.3-2-0.8s-0.7-1.3-0.7-2.3c0-0.9,0.3-1.7,0.8-2.3s1.2-0.9,2-0.9s1.4,0.3,1.8,0.8s0.6,1.2,0.6,2.1V31.1z M121,30.3
		c0-0.6-0.1-1-0.4-1.3s-0.6-0.5-1.1-0.5c-0.5,0-0.8,0.2-1.2,0.5s-0.5,0.7-0.6,1.3H121z"/>
	<path d="M128.4,33.8h-1v-3.4c0-1.3-0.5-1.9-1.4-1.9c-0.5,0-0.9,0.2-1.2,0.5s-0.5,0.8-0.5,1.4v3.4h-1v-6h1v1h0
		c0.5-0.8,1.1-1.1,2-1.1c0.7,0,1.2,0.2,1.5,0.6s0.5,1,0.5,1.8V33.8z"/>
	<path d="M138.6,33.8h-1v-1h0c-0.4,0.8-1.1,1.2-2.1,1.2c-0.8,0-1.4-0.3-1.8-0.8s-0.7-1.3-0.7-2.2c0-1,0.3-1.8,0.8-2.4s1.2-0.9,2-0.9
		c0.8,0,1.4,0.3,1.8,1h0V25h1V33.8z M137.6,31.1v-0.9c0-0.5-0.2-0.9-0.5-1.2s-0.7-0.5-1.2-0.5c-0.6,0-1,0.2-1.4,0.6s-0.5,1-0.5,1.8
		c0,0.7,0.2,1.2,0.5,1.6s0.8,0.6,1.3,0.6c0.5,0,1-0.2,1.3-0.6S137.6,31.7,137.6,31.1z"/>
	<path d="M143.1,34c-0.9,0-1.6-0.3-2.1-0.8s-0.8-1.3-0.8-2.2c0-1,0.3-1.8,0.8-2.4s1.3-0.8,2.2-0.8c0.9,0,1.6,0.3,2.1,0.8
		s0.8,1.3,0.8,2.3c0,1-0.3,1.7-0.8,2.3S144,34,143.1,34z M143.1,28.5c-0.6,0-1.1,0.2-1.5,0.6s-0.5,1-0.5,1.7c0,0.7,0.2,1.3,0.5,1.7
		s0.8,0.6,1.5,0.6c0.6,0,1.1-0.2,1.4-0.6s0.5-1,0.5-1.7c0-0.8-0.2-1.3-0.5-1.7S143.8,28.5,143.1,28.5z"/>
	<path d="M155.6,27.8l-2.8,7c-0.5,1.2-1.2,1.9-2.1,1.9c-0.3,0-0.5,0-0.6-0.1v-0.9c0.2,0.1,0.4,0.1,0.6,0.1c0.5,0,0.8-0.3,1.1-0.9
		l0.5-1.1l-2.3-6h1.1l1.6,4.6c0,0.1,0.1,0.2,0.1,0.5h0c0-0.1,0.1-0.2,0.1-0.4l1.7-4.6H155.6z"/>
	<path d="M159.2,34c-0.9,0-1.6-0.3-2.1-0.8s-0.8-1.3-0.8-2.2c0-1,0.3-1.8,0.8-2.4s1.3-0.8,2.2-0.8c0.9,0,1.6,0.3,2.1,0.8
		s0.8,1.3,0.8,2.3c0,1-0.3,1.7-0.8,2.3S160.1,34,159.2,34z M159.3,28.5c-0.6,0-1.1,0.2-1.5,0.6s-0.5,1-0.5,1.7
		c0,0.7,0.2,1.3,0.5,1.7s0.8,0.6,1.5,0.6c0.6,0,1.1-0.2,1.4-0.6s0.5-1,0.5-1.7c0-0.8-0.2-1.3-0.5-1.7S159.9,28.5,159.3,28.5z"/>
	<path d="M168.6,33.8h-1v-0.9h0c-0.4,0.7-1,1.1-1.9,1.1c-1.4,0-2.1-0.9-2.1-2.6v-3.6h1v3.4c0,1.3,0.5,1.9,1.5,1.9
		c0.5,0,0.9-0.2,1.2-0.5s0.5-0.8,0.5-1.4v-3.5h1V33.8z"/>
	<path d="M178.6,33.8h-1v-0.9h0c-0.4,0.7-1,1.1-1.9,1.1c-1.4,0-2.1-0.9-2.1-2.6v-3.6h1v3.4c0,1.3,0.5,1.9,1.5,1.9
		c0.5,0,0.9-0.2,1.2-0.5s0.5-0.8,0.5-1.4v-3.5h1V33.8z"/>
	<path d="M180.2,33.6v-1c0.5,0.4,1.1,0.6,1.7,0.6c0.8,0,1.3-0.3,1.3-0.8c0-0.2,0-0.3-0.1-0.4c-0.1-0.1-0.2-0.2-0.3-0.3
		s-0.3-0.2-0.4-0.2s-0.3-0.1-0.5-0.2c-0.3-0.1-0.5-0.2-0.7-0.3s-0.4-0.2-0.5-0.4s-0.2-0.3-0.3-0.5s-0.1-0.4-0.1-0.6
		c0-0.3,0.1-0.5,0.2-0.7s0.3-0.4,0.5-0.5s0.5-0.3,0.7-0.3s0.6-0.1,0.9-0.1c0.5,0,1,0.1,1.4,0.3v1c-0.4-0.3-0.9-0.4-1.5-0.4
		c-0.2,0-0.3,0-0.5,0.1s-0.3,0.1-0.4,0.2s-0.2,0.2-0.2,0.3s-0.1,0.2-0.1,0.3c0,0.2,0,0.3,0.1,0.4s0.1,0.2,0.2,0.3s0.2,0.2,0.4,0.2
		s0.3,0.1,0.5,0.2c0.3,0.1,0.5,0.2,0.7,0.3s0.4,0.2,0.5,0.4s0.3,0.3,0.3,0.5s0.1,0.4,0.1,0.6c0,0.3-0.1,0.6-0.2,0.8
		s-0.3,0.4-0.5,0.5s-0.5,0.3-0.8,0.3s-0.6,0.1-0.9,0.1C181.2,34,180.7,33.9,180.2,33.6z"/>
	<path d="M190.5,31.1h-4.2c0,0.7,0.2,1.2,0.5,1.5s0.8,0.5,1.4,0.5c0.7,0,1.3-0.2,1.9-0.7v0.9c-0.5,0.4-1.2,0.6-2.1,0.6
		c-0.8,0-1.5-0.3-2-0.8s-0.7-1.3-0.7-2.3c0-0.9,0.3-1.7,0.8-2.3s1.2-0.9,2-0.9s1.4,0.3,1.8,0.8s0.6,1.2,0.6,2.1V31.1z M189.5,30.3
		c0-0.6-0.1-1-0.4-1.3s-0.6-0.5-1.1-0.5c-0.5,0-0.8,0.2-1.2,0.5s-0.5,0.7-0.6,1.3H189.5z"/>
	<path d="M198,33.8c-0.2,0.1-0.5,0.2-0.9,0.2c-1.1,0-1.6-0.6-1.6-1.8v-3.6h-1v-0.8h1v-1.5l1-0.3v1.8h1.5v0.8h-1.5V32
		c0,0.4,0.1,0.7,0.2,0.9s0.4,0.3,0.7,0.3c0.2,0,0.5-0.1,0.6-0.2V33.8z"/>
	<path d="M204.3,33.8h-1v-3.5c0-1.3-0.5-1.9-1.4-1.9c-0.5,0-0.9,0.2-1.2,0.5s-0.5,0.8-0.5,1.4v3.4h-1V25h1v3.9h0
		c0.5-0.8,1.1-1.1,2-1.1c1.4,0,2,0.8,2,2.4V33.8z"/>
	<path d="M210.9,31.1h-4.2c0,0.7,0.2,1.2,0.5,1.5s0.8,0.5,1.4,0.5c0.7,0,1.3-0.2,1.9-0.7v0.9c-0.5,0.4-1.2,0.6-2.1,0.6
		c-0.8,0-1.5-0.3-2-0.8s-0.7-1.3-0.7-2.3c0-0.9,0.3-1.7,0.8-2.3s1.2-0.9,2-0.9s1.4,0.3,1.8,0.8s0.6,1.2,0.6,2.1V31.1z M209.9,30.3
		c0-0.6-0.1-1-0.4-1.3s-0.6-0.5-1.1-0.5c-0.5,0-0.8,0.2-1.2,0.5s-0.5,0.7-0.6,1.3H209.9z"/>
	<path d="M220.8,26.3h-2.4v7.5h-1v-7.5h-2.4v-0.9h5.8V26.3z"/>
	<path d="M227,26.3h-2.4v7.5h-1v-7.5h-2.4v-0.9h5.8V26.3z"/>
	<path d="M234.1,33.5c-0.6,0.3-1.4,0.5-2.3,0.5c-1.2,0-2.2-0.4-2.9-1.2s-1.1-1.8-1.1-3c0-1.3,0.4-2.4,1.2-3.3s1.8-1.2,3.1-1.2
		c0.8,0,1.5,0.1,2,0.3v1c-0.6-0.3-1.3-0.5-2-0.5c-1,0-1.7,0.3-2.3,1s-0.9,1.5-0.9,2.6c0,1,0.3,1.8,0.8,2.4c0.6,0.6,1.3,0.9,2.2,0.9
		c0.8,0,1.6-0.2,2.2-0.6V33.5z"/>
	<path d="M236.6,31.5c0-0.1-0.1-0.2-0.1-0.4s0-0.3,0-0.5c0-0.3,0-0.5,0.1-0.7s0.2-0.4,0.4-0.6s0.3-0.3,0.5-0.5s0.3-0.3,0.5-0.5
		s0.3-0.3,0.4-0.5s0.1-0.4,0.1-0.6c0-0.2,0-0.4-0.1-0.5s-0.2-0.3-0.3-0.4s-0.3-0.2-0.4-0.2s-0.3-0.1-0.5-0.1c-0.7,0-1.2,0.3-1.7,0.8
		v-1c0.6-0.4,1.2-0.6,1.9-0.6c0.3,0,0.6,0,0.8,0.1s0.5,0.2,0.7,0.3s0.4,0.3,0.5,0.6s0.2,0.5,0.2,0.8c0,0.3-0.1,0.5-0.2,0.8
		s-0.2,0.4-0.4,0.6s-0.3,0.4-0.5,0.5s-0.3,0.3-0.5,0.5s-0.3,0.3-0.4,0.5s-0.2,0.4-0.2,0.6c0,0.2,0,0.3,0.1,0.5s0.1,0.3,0.1,0.4
		H236.6z M237.2,33.9c-0.2,0-0.3-0.1-0.5-0.2c-0.1-0.1-0.2-0.3-0.2-0.5c0-0.2,0.1-0.3,0.2-0.5c0.1-0.1,0.3-0.2,0.5-0.2
		s0.3,0.1,0.5,0.2c0.1,0.1,0.2,0.3,0.2,0.5c0,0.2-0.1,0.3-0.2,0.5C237.5,33.9,237.3,33.9,237.2,33.9z"/>
</g>
<g>
	<path d="M39.3,296.7h-1v-3.8H34v3.8h-1v-8.4h1v3.7h4.3v-3.7h1V296.7z"/>
	<path d="M43.9,296.8c-0.9,0-1.6-0.3-2.1-0.8s-0.8-1.3-0.8-2.2c0-1,0.3-1.8,0.8-2.4s1.3-0.8,2.2-0.8c0.9,0,1.6,0.3,2.1,0.8
		s0.8,1.3,0.8,2.3c0,1-0.3,1.7-0.8,2.3S44.8,296.8,43.9,296.8z M44,291.4c-0.6,0-1.1,0.2-1.5,0.6s-0.5,1-0.5,1.7
		c0,0.7,0.2,1.3,0.5,1.7s0.8,0.6,1.5,0.6c0.6,0,1.1-0.2,1.4-0.6s0.5-1,0.5-1.7c0-0.8-0.2-1.3-0.5-1.7S44.6,291.4,44,291.4z"/>
	<path d="M56,290.7l-1.8,6h-1l-1.2-4.3c0-0.2-0.1-0.3-0.1-0.6h0c0,0.1-0.1,0.3-0.1,0.5l-1.3,4.3h-1l-1.8-6h1l1.2,4.5
		c0,0.1,0.1,0.3,0.1,0.5h0c0-0.2,0-0.4,0.1-0.6l1.4-4.5h0.9l1.2,4.5c0,0.1,0.1,0.3,0.1,0.5h0c0-0.2,0-0.3,0.1-0.5l1.2-4.5H56z"/>
	<path d="M60,296.5v-1c0.5,0.4,1.1,0.6,1.7,0.6c0.8,0,1.3-0.3,1.3-0.8c0-0.2,0-0.3-0.1-0.4s-0.2-0.2-0.3-0.3s-0.3-0.2-0.4-0.2
		s-0.3-0.1-0.5-0.2c-0.3-0.1-0.5-0.2-0.7-0.3s-0.4-0.2-0.5-0.4s-0.2-0.3-0.3-0.5s-0.1-0.4-0.1-0.6c0-0.3,0.1-0.5,0.2-0.7
		s0.3-0.4,0.5-0.5s0.5-0.3,0.7-0.3s0.6-0.1,0.9-0.1c0.5,0,1,0.1,1.4,0.3v1c-0.4-0.3-0.9-0.4-1.5-0.4c-0.2,0-0.3,0-0.5,0.1
		s-0.3,0.1-0.4,0.2s-0.2,0.2-0.2,0.3s-0.1,0.2-0.1,0.3c0,0.2,0,0.3,0.1,0.4s0.1,0.2,0.2,0.3s0.2,0.2,0.4,0.2s0.3,0.1,0.5,0.2
		c0.3,0.1,0.5,0.2,0.7,0.3s0.4,0.2,0.5,0.4s0.3,0.3,0.3,0.5s0.1,0.4,0.1,0.6c0,0.3-0.1,0.6-0.2,0.8s-0.3,0.4-0.5,0.5
		s-0.5,0.3-0.8,0.3s-0.6,0.1-0.9,0.1C61,296.8,60.5,296.7,60,296.5z"/>
	<path d="M69.8,296.7h-1v-0.9h0c-0.4,0.7-1,1.1-1.8,1.1c-0.6,0-1.1-0.2-1.4-0.5s-0.5-0.7-0.5-1.3c0-1.1,0.7-1.8,2-2l1.8-0.3
		c0-1-0.4-1.5-1.2-1.5c-0.7,0-1.4,0.2-2,0.7v-1c0.6-0.4,1.3-0.6,2-0.6c1.4,0,2.1,0.7,2.1,2.2V296.7z M68.8,293.6l-1.4,0.2
		c-0.4,0.1-0.8,0.2-1,0.3S66,294.6,66,295c0,0.3,0.1,0.5,0.3,0.7s0.5,0.3,0.8,0.3c0.5,0,0.9-0.2,1.2-0.5s0.5-0.8,0.5-1.3V293.6z"/>
	<path d="M74.4,296.6c-0.2,0.1-0.5,0.2-0.9,0.2c-1.1,0-1.6-0.6-1.6-1.8v-3.6h-1v-0.8h1v-1.5l1-0.3v1.8h1.5v0.8h-1.5v3.4
		c0,0.4,0.1,0.7,0.2,0.9s0.4,0.3,0.7,0.3c0.2,0,0.5-0.1,0.6-0.2V296.6z"/>
	<path d="M76.1,289.2c-0.2,0-0.3-0.1-0.4-0.2s-0.2-0.3-0.2-0.4s0.1-0.3,0.2-0.4s0.3-0.2,0.4-0.2c0.2,0,0.3,0.1,0.4,0.2
		s0.2,0.3,0.2,0.4c0,0.2-0.1,0.3-0.2,0.4S76.3,289.2,76.1,289.2z M76.6,296.7h-1v-6h1V296.7z"/>
	<path d="M78.2,296.5v-1c0.5,0.4,1.1,0.6,1.7,0.6c0.8,0,1.3-0.3,1.3-0.8c0-0.2,0-0.3-0.1-0.4s-0.2-0.2-0.3-0.3s-0.3-0.2-0.4-0.2
		s-0.3-0.1-0.5-0.2c-0.3-0.1-0.5-0.2-0.7-0.3s-0.4-0.2-0.5-0.4s-0.2-0.3-0.3-0.5s-0.1-0.4-0.1-0.6c0-0.3,0.1-0.5,0.2-0.7
		s0.3-0.4,0.5-0.5s0.5-0.3,0.7-0.3s0.6-0.1,0.9-0.1c0.5,0,1,0.1,1.4,0.3v1c-0.4-0.3-0.9-0.4-1.5-0.4c-0.2,0-0.3,0-0.5,0.1
		s-0.3,0.1-0.4,0.2s-0.2,0.2-0.2,0.3s-0.1,0.2-0.1,0.3c0,0.2,0,0.3,0.1,0.4s0.1,0.2,0.2,0.3s0.2,0.2,0.4,0.2s0.3,0.1,0.5,0.2
		c0.3,0.1,0.5,0.2,0.7,0.3s0.4,0.2,0.5,0.4s0.3,0.3,0.3,0.5s0.1,0.4,0.1,0.6c0,0.3-0.1,0.6-0.2,0.8s-0.3,0.4-0.5,0.5
		s-0.5,0.3-0.8,0.3s-0.6,0.1-0.9,0.1C79.2,296.8,78.7,296.7,78.2,296.5z"/>
	<path d="M86.6,288.6c-0.2-0.1-0.4-0.2-0.6-0.2c-0.7,0-1,0.4-1,1.3v0.9h1.4v0.8H85v5.2h-1v-5.2h-1v-0.8h1v-1c0-0.6,0.2-1.1,0.5-1.5
		s0.8-0.5,1.4-0.5c0.3,0,0.5,0,0.7,0.1V288.6z"/>
	<path d="M87.9,289.2c-0.2,0-0.3-0.1-0.4-0.2s-0.2-0.3-0.2-0.4s0.1-0.3,0.2-0.4s0.3-0.2,0.4-0.2c0.2,0,0.3,0.1,0.4,0.2
		s0.2,0.3,0.2,0.4c0,0.2-0.1,0.3-0.2,0.4S88.1,289.2,87.9,289.2z M88.4,296.7h-1v-6h1V296.7z"/>
	<path d="M95.1,293.9h-4.2c0,0.7,0.2,1.2,0.5,1.5s0.8,0.5,1.4,0.5c0.7,0,1.3-0.2,1.9-0.7v0.9c-0.5,0.4-1.2,0.6-2.1,0.6
		c-0.8,0-1.5-0.3-2-0.8s-0.7-1.3-0.7-2.3c0-0.9,0.3-1.7,0.8-2.3s1.2-0.9,2-0.9s1.4,0.3,1.8,0.8s0.6,1.2,0.6,2.1V293.9z M94.2,293.1
		c0-0.6-0.1-1-0.4-1.3s-0.6-0.5-1.1-0.5c-0.5,0-0.8,0.2-1.2,0.5s-0.5,0.7-0.6,1.3H94.2z"/>
	<path d="M101.7,296.7h-1v-1h0c-0.4,0.8-1.1,1.2-2.1,1.2c-0.8,0-1.4-0.3-1.8-0.8s-0.7-1.3-0.7-2.2c0-1,0.3-1.8,0.8-2.4
		s1.2-0.9,2-0.9c0.8,0,1.4,0.3,1.8,1h0v-3.7h1V296.7z M100.8,294v-0.9c0-0.5-0.2-0.9-0.5-1.2s-0.7-0.5-1.2-0.5c-0.6,0-1,0.2-1.4,0.6
		s-0.5,1-0.5,1.8c0,0.7,0.2,1.2,0.5,1.6s0.8,0.6,1.3,0.6c0.5,0,1-0.2,1.3-0.6S100.8,294.6,100.8,294z"/>
	<path d="M111.2,296.7h-1v-0.9h0c-0.4,0.7-1,1.1-1.8,1.1c-0.6,0-1.1-0.2-1.4-0.5s-0.5-0.7-0.5-1.3c0-1.1,0.7-1.8,2-2l1.8-0.3
		c0-1-0.4-1.5-1.2-1.5c-0.7,0-1.4,0.2-2,0.7v-1c0.6-0.4,1.3-0.6,2-0.6c1.4,0,2.1,0.7,2.1,2.2V296.7z M110.3,293.6l-1.4,0.2
		c-0.4,0.1-0.8,0.2-1,0.3s-0.3,0.4-0.3,0.8c0,0.3,0.1,0.5,0.3,0.7s0.5,0.3,0.8,0.3c0.5,0,0.9-0.2,1.2-0.5s0.5-0.8,0.5-1.3V293.6z"/>
	<path d="M116.2,291.7c-0.2-0.1-0.4-0.2-0.7-0.2c-0.4,0-0.8,0.2-1,0.6s-0.4,0.9-0.4,1.6v3.1h-1v-6h1v1.2h0c0.1-0.4,0.3-0.8,0.6-1
		s0.6-0.4,0.9-0.4c0.3,0,0.4,0,0.6,0.1V291.7z"/>
	<path d="M122,293.9h-4.2c0,0.7,0.2,1.2,0.5,1.5s0.8,0.5,1.4,0.5c0.7,0,1.3-0.2,1.9-0.7v0.9c-0.5,0.4-1.2,0.6-2.1,0.6
		c-0.8,0-1.5-0.3-2-0.8s-0.7-1.3-0.7-2.3c0-0.9,0.3-1.7,0.8-2.3s1.2-0.9,2-0.9s1.4,0.3,1.8,0.8s0.6,1.2,0.6,2.1V293.9z M121.1,293.1
		c0-0.6-0.1-1-0.4-1.3s-0.6-0.5-1.1-0.5c-0.5,0-0.8,0.2-1.2,0.5s-0.5,0.7-0.6,1.3H121.1z"/>
	<path d="M131.6,290.7l-2.8,7c-0.5,1.2-1.2,1.9-2.1,1.9c-0.3,0-0.5,0-0.6-0.1v-0.9c0.2,0.1,0.4,0.1,0.6,0.1c0.5,0,0.8-0.3,1.1-0.9
		l0.5-1.1l-2.3-6h1.1l1.6,4.6c0,0.1,0.1,0.2,0.1,0.5h0c0-0.1,0.1-0.2,0.1-0.4l1.7-4.6H131.6z"/>
	<path d="M135.1,296.8c-0.9,0-1.6-0.3-2.1-0.8s-0.8-1.3-0.8-2.2c0-1,0.3-1.8,0.8-2.4s1.3-0.8,2.2-0.8c0.9,0,1.6,0.3,2.1,0.8
		s0.8,1.3,0.8,2.3c0,1-0.3,1.7-0.8,2.3S136,296.8,135.1,296.8z M135.2,291.4c-0.6,0-1.1,0.2-1.5,0.6s-0.5,1-0.5,1.7
		c0,0.7,0.2,1.3,0.5,1.7s0.8,0.6,1.5,0.6c0.6,0,1.1-0.2,1.4-0.6s0.5-1,0.5-1.7c0-0.8-0.2-1.3-0.5-1.7S135.8,291.4,135.2,291.4z"/>
	<path d="M144.5,296.7h-1v-0.9h0c-0.4,0.7-1,1.1-1.9,1.1c-1.4,0-2.1-0.9-2.1-2.6v-3.6h1v3.4c0,1.3,0.5,1.9,1.5,1.9
		c0.5,0,0.9-0.2,1.2-0.5s0.5-0.8,0.5-1.4v-3.5h1V296.7z"/>
	<path d="M157.3,290.7l-1.8,6h-1l-1.2-4.3c0-0.2-0.1-0.3-0.1-0.6h0c0,0.1-0.1,0.3-0.1,0.5l-1.3,4.3h-1l-1.8-6h1l1.2,4.5
		c0,0.1,0.1,0.3,0.1,0.5h0c0-0.2,0-0.4,0.1-0.6l1.4-4.5h0.9l1.2,4.5c0,0.1,0.1,0.3,0.1,0.5h0c0-0.2,0-0.3,0.1-0.5l1.2-4.5H157.3z"/>
	<path d="M158.9,289.2c-0.2,0-0.3-0.1-0.4-0.2s-0.2-0.3-0.2-0.4s0.1-0.3,0.2-0.4s0.3-0.2,0.4-0.2c0.2,0,0.3,0.1,0.4,0.2
		s0.2,0.3,0.2,0.4c0,0.2-0.1,0.3-0.2,0.4S159,289.2,158.9,289.2z M159.3,296.7h-1v-6h1V296.7z"/>
	<path d="M164.1,296.6c-0.2,0.1-0.5,0.2-0.9,0.2c-1.1,0-1.6-0.6-1.6-1.8v-3.6h-1v-0.8h1v-1.5l1-0.3v1.8h1.5v0.8h-1.5v3.4
		c0,0.4,0.1,0.7,0.2,0.9s0.4,0.3,0.7,0.3c0.2,0,0.5-0.1,0.6-0.2V296.6z"/>
	<path d="M170.3,296.7h-1v-3.5c0-1.3-0.5-1.9-1.4-1.9c-0.5,0-0.9,0.2-1.2,0.5s-0.5,0.8-0.5,1.4v3.4h-1v-8.9h1v3.9h0
		c0.5-0.8,1.1-1.1,2-1.1c1.4,0,2,0.8,2,2.4V296.7z"/>
	<path d="M178.2,296.6c-0.2,0.1-0.5,0.2-0.9,0.2c-1.1,0-1.6-0.6-1.6-1.8v-3.6h-1v-0.8h1v-1.5l1-0.3v1.8h1.5v0.8h-1.5v3.4
		c0,0.4,0.1,0.7,0.2,0.9s0.4,0.3,0.7,0.3c0.2,0,0.5-0.1,0.6-0.2V296.6z"/>
	<path d="M184.5,296.7h-1v-3.5c0-1.3-0.5-1.9-1.4-1.9c-0.5,0-0.9,0.2-1.2,0.5s-0.5,0.8-0.5,1.4v3.4h-1v-8.9h1v3.9h0
		c0.5-0.8,1.1-1.1,2-1.1c1.4,0,2,0.8,2,2.4V296.7z"/>
	<path d="M191.1,293.9h-4.2c0,0.7,0.2,1.2,0.5,1.5s0.8,0.5,1.4,0.5c0.7,0,1.3-0.2,1.9-0.7v0.9c-0.5,0.4-1.2,0.6-2.1,0.6
		c-0.8,0-1.5-0.3-2-0.8s-0.7-1.3-0.7-2.3c0-0.9,0.3-1.7,0.8-2.3s1.2-0.9,2-0.9s1.4,0.3,1.8,0.8s0.6,1.2,0.6,2.1V293.9z M190.1,293.1
		c0-0.6-0.1-1-0.4-1.3s-0.6-0.5-1.1-0.5c-0.5,0-0.8,0.2-1.2,0.5s-0.5,0.7-0.6,1.3H190.1z"/>
	<path d="M200.9,289.2h-2.4v7.5h-1v-7.5h-2.4v-0.9h5.8V289.2z"/>
	<path d="M207.2,289.2h-2.4v7.5h-1v-7.5h-2.4v-0.9h5.8V289.2z"/>
	<path d="M214.3,296.3c-0.6,0.3-1.4,0.5-2.3,0.5c-1.2,0-2.2-0.4-2.9-1.2s-1.1-1.8-1.1-3c0-1.3,0.4-2.4,1.2-3.3s1.8-1.2,3.1-1.2
		c0.8,0,1.5,0.1,2,0.3v1c-0.6-0.3-1.3-0.5-2-0.5c-1,0-1.7,0.3-2.3,1s-0.9,1.5-0.9,2.6c0,1,0.3,1.8,0.8,2.4s1.3,0.9,2.2,0.9
		c0.8,0,1.6-0.2,2.2-0.6V296.3z"/>
	<path d="M224,293.9h-4.2c0,0.7,0.2,1.2,0.5,1.5s0.8,0.5,1.4,0.5c0.7,0,1.3-0.2,1.9-0.7v0.9c-0.5,0.4-1.2,0.6-2.1,0.6
		c-0.8,0-1.5-0.3-2-0.8s-0.7-1.3-0.7-2.3c0-0.9,0.3-1.7,0.8-2.3s1.2-0.9,2-0.9s1.4,0.3,1.8,0.8s0.6,1.2,0.6,2.1V293.9z M223,293.1
		c0-0.6-0.1-1-0.4-1.3s-0.6-0.5-1.1-0.5c-0.5,0-0.8,0.2-1.2,0.5s-0.5,0.7-0.6,1.3H223z"/>
	<path d="M229.8,290.7l-2,3l2,3h-1.1l-1.2-1.9c-0.1-0.1-0.2-0.3-0.3-0.5h0c0,0-0.1,0.2-0.3,0.5l-1.2,1.9h-1.1l2-2.9l-2-3.1h1.1
		l1.2,2.1c0.1,0.2,0.2,0.3,0.3,0.5h0l1.5-2.5H229.8z"/>
	<path d="M231.9,295.8L231.9,295.8l0,3.6h-1v-8.8h1v1.1h0c0.5-0.8,1.2-1.2,2.1-1.2c0.8,0,1.4,0.3,1.8,0.8s0.7,1.3,0.7,2.2
		c0,1-0.2,1.8-0.7,2.4s-1.2,0.9-2,0.9C232.9,296.8,232.3,296.5,231.9,295.8z M231.9,293.4v0.8c0,0.5,0.2,0.9,0.5,1.3
		s0.7,0.5,1.2,0.5c0.6,0,1-0.2,1.4-0.7s0.5-1.1,0.5-1.9c0-0.7-0.2-1.2-0.5-1.6s-0.7-0.6-1.3-0.6c-0.6,0-1,0.2-1.3,0.6
		S231.9,292.8,231.9,293.4z"/>
	<path d="M242.8,293.9h-4.2c0,0.7,0.2,1.2,0.5,1.5s0.8,0.5,1.4,0.5c0.7,0,1.3-0.2,1.9-0.7v0.9c-0.5,0.4-1.2,0.6-2.1,0.6
		c-0.8,0-1.5-0.3-2-0.8s-0.7-1.3-0.7-2.3c0-0.9,0.3-1.7,0.8-2.3s1.2-0.9,2-0.9s1.4,0.3,1.8,0.8s0.6,1.2,0.6,2.1V293.9z M241.8,293.1
		c0-0.6-0.1-1-0.4-1.3s-0.6-0.5-1.1-0.5c-0.5,0-0.8,0.2-1.2,0.5s-0.5,0.7-0.6,1.3H241.8z"/>
	<path d="M247.4,291.7c-0.2-0.1-0.4-0.2-0.7-0.2c-0.4,0-0.8,0.2-1,0.6s-0.4,0.9-0.4,1.6v3.1h-1v-6h1v1.2h0c0.1-0.4,0.3-0.8,0.6-1
		s0.6-0.4,0.9-0.4c0.3,0,0.4,0,0.6,0.1V291.7z"/>
	<path d="M248.9,289.2c-0.2,0-0.3-0.1-0.4-0.2s-0.2-0.3-0.2-0.4s0.1-0.3,0.2-0.4s0.3-0.2,0.4-0.2c0.2,0,0.3,0.1,0.4,0.2
		s0.2,0.3,0.2,0.4c0,0.2-0.1,0.3-0.2,0.4S249.1,289.2,248.9,289.2z M249.4,296.7h-1v-6h1V296.7z"/>
	<path d="M256.1,293.9h-4.2c0,0.7,0.2,1.2,0.5,1.5s0.8,0.5,1.4,0.5c0.7,0,1.3-0.2,1.9-0.7v0.9c-0.5,0.4-1.2,0.6-2.1,0.6
		c-0.8,0-1.5-0.3-2-0.8s-0.7-1.3-0.7-2.3c0-0.9,0.3-1.7,0.8-2.3s1.2-0.9,2-0.9s1.4,0.3,1.8,0.8s0.6,1.2,0.6,2.1V293.9z M255.2,293.1
		c0-0.6-0.1-1-0.4-1.3s-0.6-0.5-1.1-0.5c-0.5,0-0.8,0.2-1.2,0.5s-0.5,0.7-0.6,1.3H255.2z"/>
	<path d="M262.6,296.7h-1v-3.4c0-1.3-0.5-1.9-1.4-1.9c-0.5,0-0.9,0.2-1.2,0.5s-0.5,0.8-0.5,1.4v3.4h-1v-6h1v1h0
		c0.5-0.8,1.1-1.1,2-1.1c0.7,0,1.2,0.2,1.5,0.6s0.5,1,0.5,1.8V296.7z"/>
	<path d="M268.5,296.4c-0.5,0.3-1,0.4-1.6,0.4c-0.9,0-1.5-0.3-2.1-0.8s-0.8-1.3-0.8-2.2c0-1,0.3-1.8,0.8-2.4s1.3-0.9,2.3-0.9
		c0.5,0,1,0.1,1.4,0.3v1c-0.4-0.3-0.9-0.5-1.4-0.5c-0.6,0-1.1,0.2-1.5,0.7s-0.6,1-0.6,1.7c0,0.7,0.2,1.3,0.6,1.7s0.9,0.6,1.5,0.6
		c0.5,0,1-0.2,1.5-0.5V296.4z"/>
	<path d="M274.8,293.9h-4.2c0,0.7,0.2,1.2,0.5,1.5s0.8,0.5,1.4,0.5c0.7,0,1.3-0.2,1.9-0.7v0.9c-0.5,0.4-1.2,0.6-2.1,0.6
		c-0.8,0-1.5-0.3-2-0.8s-0.7-1.3-0.7-2.3c0-0.9,0.3-1.7,0.8-2.3s1.2-0.9,2-0.9s1.4,0.3,1.8,0.8s0.6,1.2,0.6,2.1V293.9z M273.8,293.1
		c0-0.6-0.1-1-0.4-1.3s-0.6-0.5-1.1-0.5c-0.5,0-0.8,0.2-1.2,0.5s-0.5,0.7-0.6,1.3H273.8z"/>
	<path d="M277.2,294.4c0-0.1-0.1-0.2-0.1-0.4s0-0.3,0-0.5c0-0.3,0-0.5,0.1-0.7s0.2-0.4,0.4-0.6s0.3-0.3,0.5-0.5s0.3-0.3,0.5-0.5
		s0.3-0.3,0.4-0.5s0.1-0.4,0.1-0.6c0-0.2,0-0.4-0.1-0.5s-0.2-0.3-0.3-0.4s-0.3-0.2-0.4-0.2s-0.3-0.1-0.5-0.1c-0.7,0-1.2,0.3-1.7,0.8
		v-1c0.6-0.4,1.2-0.6,1.9-0.6c0.3,0,0.6,0,0.8,0.1s0.5,0.2,0.7,0.3s0.4,0.3,0.5,0.6s0.2,0.5,0.2,0.8c0,0.3-0.1,0.5-0.2,0.8
		s-0.2,0.4-0.4,0.6s-0.3,0.4-0.5,0.5s-0.3,0.3-0.5,0.5s-0.3,0.3-0.4,0.5s-0.2,0.4-0.2,0.6c0,0.2,0,0.3,0.1,0.5s0.1,0.3,0.1,0.4
		H277.2z M277.7,296.8c-0.2,0-0.3-0.1-0.5-0.2c-0.1-0.1-0.2-0.3-0.2-0.5c0-0.2,0.1-0.3,0.2-0.5c0.1-0.1,0.3-0.2,0.5-0.2
		s0.3,0.1,0.5,0.2c0.1,0.1,0.2,0.3,0.2,0.5c0,0.2-0.1,0.3-0.2,0.5C278.1,296.7,277.9,296.8,277.7,296.8z"/>
</g>
<rect x="-787.9" y="-2310" class="st35" width="3378.4" height="2196.6"/>
<g>
	<defs>
		<circle id="SVGID_1_" cx="-269.6" cy="-1547.7" r="394.4"/>
	</defs>
	<clipPath id="SVGID_2_">
		<use xlink:href="#SVGID_1_"  style="overflow:visible;"/>
	</clipPath>
	<g transform="matrix(1 0 0 1 0 1.220703e-04)" style="clip-path:url(#SVGID_2_);">
		
			<image style="overflow:visible;" width="3657" height="2438" xlink:href="../../../../Downloads/beautiful-blazer-blonde-hair-975657.jpg"  transform="matrix(0.4412 0 0 0.4412 -1068.4867 -1949.5184)">
		</image>
	</g>
</g>
<rect x="-628.8" y="-626.3" class="st36" width="301.3" height="88.9"/>
<rect x="268.2" y="-2087.4" class="st37" width="2189.9" height="1974"/>
<text transform="matrix(1 0 0 1 -652.9504 -2112.7957)" style="fill:#BC1330; font-family:'Gadugi-Bold'; font-size:78.2401px;">Jessica Gold</text>
<line class="st38" x1="-661.2" y1="-2087.4" x2="2458.1" y2="-2087.4"/>
<rect x="-29.6" y="-2038.7" class="st39" width="2620.1" height="570.9"/>
<g>
	<text transform="matrix(1 0 0 1 375.7888 -1724.2389)"><tspan x="0" y="0" class="st35" style="font-family:'Gadugi-Bold'; font-size:78.2401px;">I believe that the TTC needs to improve in some areas.</tspan><tspan x="0" y="93.9" class="st35" style="font-family:'Gadugi-Bold'; font-size:78.2401px;">Waiting a long time for buses and realize that they </tspan><tspan x="0" y="187.8" class="st35" style="font-family:'Gadugi-Bold'; font-size:78.2401px;">are crowded is a frustrating morning experience...  </tspan><tspan x="1879" y="187.8" class="st35" style="font-family:'Gabriola'; font-size:78.2401px;"></tspan></text>
</g>
<g>
	<g>
		<path class="st35" d="M430.7-1970.3c-5.8,4.6-10.9,9.5-15.5,14.9c-4.6,5.3-8.4,10.8-11.6,16.4c-3.2,5.6-5.6,11.3-7.3,17.1
			c-1.7,5.8-2.5,11.3-2.5,16.7c0,4.8,0.6,8.7,1.9,11.8c1.2,3.1,2.9,5.7,4.8,7.8c2,2.2,4,4.1,6.2,5.8c2.2,1.7,4.2,3.5,6.2,5.6
			c2,2,3.6,4.4,4.8,7.2c1.3,2.8,1.9,6.3,1.9,10.5c0,3.2-0.7,6.2-2,9.2c-1.3,3-3.1,5.6-5.4,7.9s-5,4.1-8.2,5.6
			c-3.2,1.4-6.6,2.1-10.3,2.1c-5.3,0-10-1.1-14-3.2c-4-2.1-7.4-5.1-10.1-8.9c-2.7-3.8-4.8-8.3-6.1-13.6c-1.4-5.2-2-10.9-2-17
			c0-8.3,1.2-17,3.7-26.3c2.4-9.3,6.2-18.5,11.2-27.8c5-9.3,11.4-18.3,19.1-27c7.7-8.8,16.9-16.8,27.4-24.1L430.7-1970.3z
			 M515.5-1970.3c-5.8,4.6-10.9,9.5-15.5,14.9c-4.6,5.3-8.4,10.8-11.6,16.4c-3.2,5.6-5.6,11.3-7.3,17.1c-1.7,5.8-2.5,11.3-2.5,16.7
			c0,4.8,0.6,8.7,1.9,11.8c1.3,3.1,2.9,5.7,4.8,7.8c2,2.2,4,4.1,6.2,5.8c2.2,1.7,4.3,3.5,6.2,5.6s3.6,4.4,4.8,7.2
			c1.2,2.8,1.9,6.3,1.9,10.5c0,3.2-0.7,6.2-2,9.2c-1.3,3-3.1,5.6-5.4,7.9s-5,4.1-8.2,5.6c-3.2,1.4-6.6,2.1-10.3,2.1
			c-5.3,0-10-1.1-14-3.2c-4-2.1-7.4-5.1-10.1-8.9c-2.7-3.8-4.8-8.3-6.1-13.6c-1.4-5.2-2-10.9-2-17c0-8.3,1.2-17,3.7-26.3
			c2.4-9.3,6.2-18.5,11.2-27.8c5-9.3,11.4-18.3,19.1-27c7.7-8.8,16.9-16.8,27.4-24.1L515.5-1970.3z"/>
	</g>
</g>
<rect x="348.2" y="-1407.1" class="st5" width="2005.1" height="532.3"/>
<text transform="matrix(1 0 0 1 348.2097 -1366.2365)"><tspan x="0" y="0" style="font-family:'Gadugi'; font-size:55.1601px;">Jessica is a Graphic Designer working on an Advertising company in Toronto. </tspan><tspan x="0" y="74.5" style="font-family:'Gadugi'; font-size:55.1601px;">During the week she spends a great deal of time commuting and using the TTC </tspan><tspan x="0" y="148.9" style="font-family:'Gadugi'; font-size:55.1601px;">services. Jessica does not own a car and relies on public transportation to move </tspan><tspan x="0" y="223.4" style="font-family:'Gadugi'; font-size:55.1601px;">around the city. On weekends she enjoys hanging out with her friends and </tspan><tspan x="0" y="297.9" style="font-family:'Gadugi'; font-size:55.1601px;">attending music / food festivals &amp; attractions across Toronto.</tspan></text>
<text transform="matrix(1 0 0 1 351.8875 -924.4176)" style="font-family:'Gadugi'; font-size:57.9181px;">Goals</text>
<text transform="matrix(1 0 0 1 671.8162 -856.3864)"><tspan x="0" y="0" style="font-family:'Gadugi'; font-size:66.1922px;"></tspan><tspan x="26.9" y="0" style="font-family:'Gadugi'; font-size:55.1601px;">    Have a comfortable experience during her commute</tspan></text>
<text transform="matrix(1 0 0 1 671.8162 -746.066)"><tspan x="0" y="0" style="font-family:'Gadugi'; font-size:66.1922px;"></tspan><tspan x="26.9" y="0" style="font-family:'Gadugi'; font-size:55.1601px;">    Reduce her stress due to TTC delays and crowded vehicles</tspan></text>
<text transform="matrix(1 0 0 1 671.8162 -635.7457)"><tspan x="0" y="0" style="font-family:'Gadugi'; font-size:66.1922px;"></tspan><tspan x="26.9" y="0" style="font-family:'Gadugi'; font-size:55.1601px;">    Improve her skills and grow professionally</tspan></text>
<text transform="matrix(1 0 0 1 671.8162 -387.5251)"><tspan x="0" y="0" style="font-family:'Gadugi'; font-size:66.1922px;"></tspan><tspan x="26.9" y="0" style="font-family:'Gadugi'; font-size:55.1601px;">    Arriving late at work because of TTC problems</tspan></text>
<text transform="matrix(1 0 0 1 671.8162 -277.2047)"><tspan x="0" y="0" style="font-family:'Gadugi'; font-size:66.1922px;"></tspan><tspan x="26.9" y="0" style="font-family:'Gadugi'; font-size:55.1601px;">    Having to wait a long time for an available bus</tspan></text>
<text transform="matrix(1 0 0 1 351.8875 -492.3297)" style="font-family:'Gadugi'; font-size:57.9181px;">Frustrations</text>
<g>
	<text transform="matrix(1 0 0 1 541.6893 144.4925)" style="font-family:'Gadugi'; font-size:21.9692px;">What can I do?</text>
	<text transform="matrix(1 0 0 1 541.6893 192.2865)"><tspan x="0" y="0" style="font-family:'Gadugi'; font-size:21.9692px;">- UX &amp; UI Design</tspan><tspan x="0" y="33.8" style="font-family:'Gadugi'; font-size:21.9692px;">- Web Design &amp; Development</tspan><tspan x="0" y="67.5" style="font-family:'Gadugi'; font-size:21.9692px;">- Branding</tspan><tspan x="0" y="101.3" style="font-family:'Gadugi'; font-size:21.9692px;">- Case Studies</tspan><tspan x="0" y="135" style="font-family:'Gadugi'; font-size:21.9692px;">- Game Design</tspan><tspan x="0" y="168.8" style="font-family:'Gadugi'; font-size:21.9692px;">- Motion Graphics</tspan><tspan x="0" y="202.6" style="font-family:'Gadugi'; font-size:21.9692px;">- Usability Testing</tspan></text>
	<text transform="matrix(1 0 0 1 910.3836 144.4925)" style="font-family:'Gadugi'; font-size:21.9692px;">Hard Skills:</text>
	<text transform="matrix(1 0 0 1 910.3836 192.2865)"><tspan x="0" y="0" style="font-family:'Gadugi'; font-size:21.9692px;">- Adobe CC</tspan><tspan x="0" y="33.8" style="font-family:'Gadugi'; font-size:21.9692px;">- InVision &amp; Sketch </tspan><tspan x="0" y="67.5" style="font-family:'Gadugi'; font-size:21.9692px;">- HTML, CSS &amp; Javascript </tspan><tspan x="0" y="101.3" style="font-family:'Gadugi'; font-size:21.9692px;">- Autodesk Maya</tspan><tspan x="0" y="135" style="font-family:'Gadugi'; font-size:21.9692px;">- Unity</tspan><tspan x="0" y="168.8" style="font-family:'Gadugi'; font-size:21.9692px;">- SketchUp</tspan><tspan x="0" y="202.6" style="font-family:'Gadugi'; font-size:21.9692px;">- Microsoft Office</tspan></text>
</g>
<text transform="matrix(1 0 0 1 -635.4788 -676.1959)" style="font-family:'Gadugi'; font-size:55.1601px;">Personality</text>
<text transform="matrix(1 0 0 1 -540.7961 -567.8268)" style="font-family:'Gadugi'; font-size:42.0426px;">Caring</text>
<rect x="-240.6" y="-626.3" class="st36" width="301.3" height="88.9"/>
<text transform="matrix(1 0 0 1 -163.6389 -567.8268)" style="font-family:'Gadugi'; font-size:42.0426px;">Decisive</text>
<rect x="-628.8" y="-501.1" class="st36" width="301.3" height="88.9"/>
<text transform="matrix(1 0 0 1 -582.8557 -442.567)" style="font-family:'Gadugi'; font-size:42.0426px;">Extroverted</text>
<rect x="-240.6" y="-501.1" class="st36" width="301.3" height="88.9"/>
<text transform="matrix(1 0 0 1 -157.4338 -442.567)" style="font-family:'Gadugi'; font-size:42.0426px;">Friendly</text>
<text transform="matrix(1 0 0 1 -628.8127 -935.4489)" style="font-family:'Gadugi'; font-size:49.6441px;">Occupation:      Graphic Designer</text>
<text transform="matrix(1 0 0 1 -628.8127 -872.0153)" style="font-family:'Gadugi'; font-size:49.6441px;">Location:           Toronto, ON</text>
<text transform="matrix(1 0 0 1 -628.8127 -808.5807)" style="font-family:'Gadugi'; font-size:49.6441px;">Archetype:          </text>
<text transform="matrix(1 0 0 1 -281.7639 -808.5807)" style="font-family:'Gadugi'; font-size:49.6441px;">The Realist        </text>
<text transform="matrix(1 0 0 1 -628.8127 -998.8834)" style="font-family:'Gadugi'; font-size:49.6441px;">Age:                  28</text>
<line class="st40" x1="-647.4" y1="-727.2" x2="109.6" y2="-727.2"/>
</svg>
