<?xml version="1.0" encoding="utf-8"?>
<!-- Generator: Adobe Illustrator 22.0.1, SVG Export Plug-In . SVG Version: 6.00 Build 0)  -->
<svg version="1.1" id="Layer_1" xmlns="http://www.w3.org/2000/svg" xmlns:xlink="http://www.w3.org/1999/xlink" x="0px" y="0px"
	 viewBox="0 0 3840 2160" style="enable-background:new 0 0 3840 2160;" xml:space="preserve">
<style type="text/css">
	.st0{fill:#111216;}
	.st1{fill:#BC2032;}
	.st2{fill:#FFFFFF;}
	.st3{fill:#FFFFFF;stroke:#111216;stroke-width:3.2237;stroke-miterlimit:10;}
</style>
<title>Asset 2</title>
<g id="Layer_2_1_">
	<g id="Layer_1-2">
		<g id="Layer_2-2">
			<g id="Layer_1-2-2">
				<rect class="st0" width="3840" height="2160"/>
			</g>
		</g>
		<g>
			<path class="st1" d="M2271.7,1174.3l-17.9-65c-0.1-0.5-0.8-0.9-1.3-0.8l0,0l-454.2,124.7l-166.8-607.6L1568,643l185.3,674.7
				l27.4-7.5l490.3-134.6C2271.6,1175.5,2272,1175,2271.7,1174.3L2271.7,1174.3z"/>
			<path class="st2" d="M1962.6,534.7c81.6-22.4,133.8,7.9,156.7,91.1l14.1,51.1c6.4,23.6,7,44.6,1.7,63.4
				c-5.4,18.7-17,34.9-34.7,48.4c46.7,3.3,77,30.5,91.1,81.6l16.3,59.3c21.7,79.1-8.4,130-90.7,152.5l-271.8,74.6l-150.8-548.3
				L1962.6,534.7z M2018.6,782.7c52.1-14.3,72.4-42.5,60.8-84.6l-13.2-48c-14.2-51.6-46.6-70.4-97.1-56.6L1767,649l119.6,435.7
				l205-56.3c50.5-13.9,69.3-44.6,56.3-92.2l-15.9-57.9c-12.4-45-45.7-60.1-99.7-45.4"/>
			<path class="st1" d="M1158.9,1462.1v123h87.6v9.5h-97.4v-132.5H1158.9z"/>
			<path class="st2" d="M1270.5,1513.8c8.9-8.6,9.5-9.2,1.8-1.7c19.5-16.8,48.6-16.1,67.1,1.7c9.2,8.7,14.3,20.8,14.2,33.6v4.7
				h-87.4c0.9,8.4,4.9,16.3,11.1,22.1c15.4,14.7,39.7,14.7,55.1,0l7,6.7c-19.3,18.4-49.6,18.4-68.9,0c-18.3-17.6-19.1-46.6-1.7-65.3
				C1261.2,1523,1261.7,1522.3,1270.5,1513.8z M1343.7,1542.5c-0.9-8.4-4.9-16.3-11.1-22.1c-15.4-14.7-39.7-14.7-55.1,0
				c-6.2,5.8-10.1,13.7-11.1,22.1H1343.7z"/>
			<path class="st2" d="M1412.1,1594.6c-12.9,0.3-25.3-4.7-34.5-13.8c-18.4-17.8-19.1-47.1-1.3-65.5c0.4-0.5,0.9-0.9,1.3-1.3
				c19.2-18.6,49.6-18.6,68.8,0c18.4,17.8,19.1,47.1,1.3,65.7c-0.4,0.4-0.9,0.9-1.3,1.3C1437.4,1589.8,1425,1594.8,1412.1,1594.6z
				 M1412.1,1509.4c-10.3-0.1-20.3,3.8-27.5,11.1c-14.7,14.2-15.3,37.8-1.1,52.6c0.3,0.4,0.7,0.7,1.1,1.1
				c15.4,14.7,39.7,14.7,55.1,0c14.7-14.2,15.3-37.8,1.1-52.6c-0.3-0.4-0.7-0.7-1.1-1.1C1432.4,1513.1,1422.4,1509.2,1412.1,1509.4z
				"/>
			<path class="st2" d="M1470.5,1500h9.7v12.8c0.5-0.5,1.1-1.2,1.7-1.7c15.4-14.7,39.7-14.7,55.1,0c7.4,7,11.6,16.7,11.4,26.8v56.8
				h-9.7v-56.8c0.1-7.6-3-14.9-8.6-20.1c-11.6-11.1-29.7-11.1-41.3,0c-5.5,5.1-8.7,12.5-8.6,20.1v56.8h-9.7L1470.5,1500L1470.5,1500
				z"/>
			<path class="st2" d="M1645.8,1570.9c-1.3,4.9-2.9,8.2-4.5,9.7c-19.2,18.6-49.6,18.6-68.8,0c-18.4-17.8-19.1-47.1-1.3-65.7
				c0.4-0.4,0.9-0.9,1.3-1.3c19.2-18.4,49.6-18.4,68.8,0c1.6,1.7,3.2,5,4.5,9.9v-23.7h9.7v94.7h-9.7V1570.9z M1606.8,1509.4
				c-10.3-0.3-20.3,3.8-27.6,11.1c-14.7,14.2-15.3,37.9-0.9,52.6c0.3,0.3,0.7,0.7,0.9,0.9c15.4,14.7,39.7,14.7,55.1,0
				c14.7-14.2,15.3-37.8,1.1-52.6c-0.3-0.4-0.7-0.7-1.1-1.1C1627.1,1513.3,1617.1,1509.2,1606.8,1509.4L1606.8,1509.4z"/>
			<path class="st2" d="M1712.8,1510.5c-2.8-0.8-5.7-1.2-8.4-1.2c-7.8-0.1-15.1,2.9-20.7,8.3c-5.5,5.1-8.7,12.5-8.6,20.1v56.8h-9.7
				v-94.7h9.7v14.2c0.3-1.2,0.9-2.2,1.7-3.2c7.4-7.2,17.2-11.3,27.5-11.1c3.4,0,7,0.4,10.3,1.2L1712.8,1510.5z"/>
			<path class="st2" d="M1811.3,1570.9c-1.3,4.9-2.9,8.2-4.5,9.7c-19.2,18.6-49.6,18.6-68.9,0c-18.4-17.8-19.1-47.1-1.3-65.7
				c0.4-0.4,0.9-0.9,1.3-1.3c19.2-18.4,49.6-18.4,68.9,0c1.6,1.7,3.2,5,4.5,9.9v-61.6h9.7v132.5h-9.7V1570.9z M1772.4,1509.4
				c-10.3-0.1-20.3,3.8-27.5,11.1c-14.7,14.2-15.3,37.8-1.1,52.6c0.3,0.4,0.7,0.7,1.1,1.1c15.4,14.7,39.7,14.7,55.1,0
				c14.7-14.2,15.3-37.8,1.1-52.6c-0.3-0.4-0.7-0.7-1.1-1.1C1792.6,1513.1,1782.8,1509.2,1772.4,1509.4L1772.4,1509.4z"/>
			<path class="st2" d="M1879.5,1594.6c-12.9,0.3-25.3-4.7-34.5-13.8c-18.4-17.8-19.1-47.1-1.3-65.7c0.4-0.4,0.9-0.9,1.3-1.3
				c19.2-18.6,49.6-18.6,68.8,0c18.4,17.8,19.1,47.1,1.3,65.7c-0.4,0.4-0.9,0.9-1.3,1.3C1904.7,1589.8,1892.4,1594.8,1879.5,1594.6z
				 M1879.5,1509.4c-10.3-0.1-20.3,3.8-27.5,11.1c-14.7,14.2-15.3,37.8-1.1,52.6c0.3,0.4,0.7,0.7,1.1,1.1
				c15.4,14.7,39.7,14.7,55.1,0c14.7-14.2,15.3-37.8,1.1-52.6c-0.3-0.4-0.7-0.7-1.1-1.1C1899.7,1513.1,1889.9,1509.2,1879.5,1509.4z
				"/>
			<path class="st2" d="M2213.7,1594.6h-9.7v-12.8c-0.5,0.5-1.1,1.2-1.7,1.7c-15.4,14.7-39.7,14.7-55.1,0
				c-7.4-7-11.6-16.7-11.3-26.8v-56.8h9.7v56.8c-0.1,7.6,3,14.9,8.6,20.1c11.6,11.1,29.7,11.1,41.3,0c5.5-5.1,8.7-12.5,8.6-20.1
				v-56.8h9.7L2213.7,1594.6z"/>
			<path class="st2" d="M2270.8,1510.5c-2.8-0.8-5.7-1.2-8.4-1.2c-7.8-0.1-15.1,2.9-20.7,8.3c-5.5,5.1-8.7,12.5-8.6,20.1v56.8h-9.7
				v-94.7h9.7v14.2c0.3-1.2,0.9-2.2,1.7-3.2c7.4-7.2,17.2-11.3,27.5-11.1c3.4,0,7,0.4,10.4,1.2L2270.8,1510.5z"/>
			<path class="st2" d="M2369.5,1585.1v-14.2c-1.3,4.9-2.9,8.2-4.5,9.7c-19.2,18.6-49.6,18.6-68.9,0c-18.4-17.8-19.1-47.1-1.3-65.7
				c0.4-0.4,0.9-0.9,1.3-1.3c19.2-18.4,49.6-18.4,68.9,0c1.6,1.7,3.2,5,4.5,9.9v-23.7h9.7v85.3c0.1,12.6-5,24.7-14.2,33.4
				c-19.2,18.6-49.7,18.6-68.9,0l7-6.6c15.4,14.7,39.7,14.7,55.1,0C2365.4,1605,2369.6,1595.2,2369.5,1585.1z M2358,1574
				c14.7-14.2,15.3-37.8,1.1-52.6c-0.3-0.4-0.7-0.7-1.1-1.1c-15.4-14.7-39.7-14.7-55.1,0c-14.7,14.2-15.3,37.8-1.1,52.6
				c0.3,0.4,0.7,0.7,1.1,1.1C2318.3,1588.8,2342.6,1588.8,2358,1574z"/>
			<path class="st2" d="M2476.6,1570.9c-1.3,4.9-2.9,8.2-4.5,9.7c-19.2,18.6-49.6,18.6-68.9,0c-18.4-17.8-19.1-47.1-1.3-65.7
				c0.4-0.4,0.9-0.9,1.3-1.3c19.2-18.4,49.6-18.4,68.9,0c1.6,1.7,3.2,5,4.5,9.9v-23.7h9.7v94.7h-9.7V1570.9z M2437.6,1509.4
				c-10.3-0.1-20.3,3.8-27.5,11.1c-14.7,14.2-15.3,37.8-1.1,52.6c0.3,0.4,0.7,0.7,1.1,1.1c15.4,14.7,39.7,14.7,55.1,0
				c14.7-14.2,15.3-37.8,1.1-52.6c-0.3-0.4-0.7-0.7-1.1-1.1C2457.9,1513.1,2447.9,1509.2,2437.6,1509.4L2437.6,1509.4z"/>
			<path class="st2" d="M2510.7,1500v-37.9h9.7v37.9h14.6v9.5h-14.6v61.6c0,3.8,1.4,7.5,4.3,10c2.8,2.8,6.4,4.2,10.3,4.2v9.5
				c-6.4,0.1-12.6-2.4-17.2-7c-4.6-4.3-7.2-10.4-7.1-16.7v-61.6h-14.6v-9.5L2510.7,1500L2510.7,1500z"/>
			<path class="st2" d="M2559.3,1500v-37.9h9.7v37.9h14.6v9.5h-14.6v61.6c0,3.8,1.4,7.5,4.3,10c2.8,2.8,6.4,4.2,10.3,4.2v9.5
				c-6.4,0.1-12.6-2.4-17.2-7c-4.6-4.3-7.2-10.4-7.1-16.7v-61.6h-14.6v-9.5L2559.3,1500L2559.3,1500z"/>
			<path class="st2" d="M2607.6,1513.8c8.9-8.6,9.5-9.2,1.8-1.7c19.5-16.7,48.6-16.1,67.1,1.7c9.2,8.7,14.3,20.8,14.2,33.6v4.7
				h-87.4c0.9,8.4,4.9,16.3,11.1,22.1c15.4,14.7,39.7,14.7,55.1,0l7,6.7c-19.3,18.4-49.6,18.4-68.9,0c-18.3-17.6-19.1-46.6-1.7-65.3
				C2598.2,1523,2598.8,1522.3,2607.6,1513.8z M2680.7,1542.5c-0.9-8.4-4.9-16.3-11.1-22.1c-15.4-14.7-39.7-14.7-55.1,0
				c-6.2,5.8-10.1,13.7-11.1,22.1H2680.7z"/>
			<path class="st3" d="M2088,1462.1c19.3,0,28.9,10.1,28.9,30.5v12.5c0.1,5-1.1,10-3.4,14.5c-2.5,4.1-6.2,7.1-10.7,8.8
				c10.1,3.7,15.1,11.7,15.1,24.2v14.5c0,19.3-9.7,28.9-29.2,28.9h-63.2c-0.8,0-1.3-0.5-1.3-1.3v-131.3c0-0.8,0.5-1.3,1.3-1.3
				L2088,1462.1z M2038,1580.9c0,0.8,0.5,1.3,1.3,1.3h47.2c12,0,17.9-5.8,17.9-17.5v-14.1c0-11.1-6.4-16.4-19.2-16.6h-0.7
				c-0.8,0-1.3-0.5-1.3-1.3v-9.6c0-0.8,0.5-1.3,1.3-1.3h0.7c12.4,0,18.6-5.1,18.6-15.4v-11.7c0-12.6-6.1-18.9-18-18.9h-46.6
				c-0.8,0-1.3,0.5-1.3,1.3L2038,1580.9z"/>
		</g>
	</g>
</g>
</svg>
