<?xml version="1.0" encoding="utf-8"?>
<!-- Generator: Adobe Illustrator 22.0.1, SVG Export Plug-In . SVG Version: 6.00 Build 0)  -->
<svg version="1.1" id="Layer_1" xmlns="http://www.w3.org/2000/svg" xmlns:xlink="http://www.w3.org/1999/xlink" x="0px" y="0px"
	 viewBox="0 0 684.3 341.4" style="enable-background:new 0 0 684.3 341.4;" xml:space="preserve">
<style type="text/css">
	.st0{display:none;}
	.st1{display:inline;fill:none;stroke:#000000;stroke-width:5;stroke-opacity:5.000000e-02;}
	.st2{display:inline;fill:none;stroke:#000000;stroke-width:3;stroke-opacity:0.1;}
	.st3{display:inline;fill:none;stroke:#000000;stroke-opacity:0.15;}
	.st4{display:inline;fill:#FFFFFF;fill-opacity:0.85;}
	.st5{fill:#EB6758;}
</style>
<desc>Created with Highcharts 4.2.7</desc>
<g transform="translate(0,0)" class="st0">
	<path class="st1" d="M-281.6,10.5h10c3,0,3,0,3,3v10c0,3,0,3-3,3h-10c-3,0-3,0-3-3v-10C-284.6,10.5-284.6,10.5-281.6,10.5"/>
	<path class="st2" d="M-281.6,10.5h10c3,0,3,0,3,3v10c0,3,0,3-3,3h-10c-3,0-3,0-3-3v-10C-284.6,10.5-284.6,10.5-281.6,10.5"/>
	<path class="st3" d="M-281.6,10.5h10c3,0,3,0,3,3v10c0,3,0,3-3,3h-10c-3,0-3,0-3-3v-10C-284.6,10.5-284.6,10.5-281.6,10.5"/>
	<path class="st4" d="M-282.6,9.5h10c3,0,3,0,3,3v10c0,3,0,3-3,3h-10c-3,0-3,0-3-3v-10C-285.6,9.5-285.6,9.5-282.6,9.5"/>
</g>
<g>
	<g>
		<g>
			<path class="st5" d="M246.6,40.6c2.8,0,5.3,1.1,7.4,3.2c2.1,2.1,3.2,4.6,3.2,7.4v41.9c0,2.8-1.1,5.3-3.2,7.4
				c-2.1,2.1-4.6,3.2-7.4,3.2h-94.7c-2.8,0-5.3-1.1-7.4-3.2c-2.1-2.1-3.2-4.6-3.2-7.4V51.2c0-2.8,1.1-5.3,3.2-7.4
				c2.1-2.1,4.6-3.2,7.4-3.2H246.6z M194,77.4V67h-15.8V51.2h-10.6V67h-15.8v10.4h15.8v15.8h10.6V77.4H194z M212.1,85.8
				c1.6,1.5,3.4,2.2,5.6,2.2c2.1,0,4-0.7,5.6-2.2c1.6-1.5,2.3-3.4,2.3-5.7c0-2.3-0.8-4.2-2.3-5.7c-1.6-1.5-3.4-2.2-5.6-2.2
				c-2.1,0-4,0.7-5.6,2.2c-1.6,1.5-2.3,3.4-2.3,5.7C209.8,82.4,210.6,84.3,212.1,85.8z M233,70c1.5,1.5,3.4,2.2,5.7,2.2
				c2.3,0,4.2-0.7,5.7-2.2c1.5-1.5,2.2-3.4,2.2-5.7c0-2.3-0.7-4.2-2.2-5.7c-1.5-1.5-3.4-2.2-5.7-2.2c-2.3,0-4.2,0.7-5.7,2.2
				c-1.5,1.5-2.2,3.4-2.2,5.7C230.8,66.6,231.5,68.5,233,70z"/>
		</g>
		<g>
			<path class="st5" d="M199.2,182c13,0,24.1,4.1,33.4,12.3c9.3,8.2,13.9,18.2,13.9,29.9c0,7.2-2.6,13.4-7.8,18.5
				c-5.2,5.1-11.4,7.6-18.6,7.6H211c-2.3,0-4.2,0.8-5.7,2.3c-1.5,1.6-2.2,3.4-2.2,5.6c0,1.8,0.7,3.5,2,5.2c1.3,1.6,2,3.5,2,5.4
				c0,2.3-0.7,4.2-2.2,5.7c-1.5,1.5-3.4,2.2-5.7,2.2c-13.2,0-24.3-4.6-33.6-13.8c-9.2-9.2-13.8-20.4-13.8-33.6
				c0-13.2,4.6-24.3,13.8-33.6C174.8,186.7,186,182,199.2,182z M164.8,227.2c1.6,1.5,3.4,2.2,5.6,2.2c2.1,0,4-0.7,5.6-2.2
				c1.6-1.5,2.3-3.4,2.3-5.7c0-2.3-0.8-4.2-2.3-5.7c-1.6-1.5-3.4-2.2-5.6-2.2c-2.1,0-4,0.7-5.6,2.2c-1.6,1.5-2.3,3.4-2.3,5.7
				C162.4,223.8,163.2,225.7,164.8,227.2z M180.6,206.1c1.6,1.6,3.4,2.3,5.6,2.3c2.1,0,4-0.8,5.6-2.3c1.6-1.6,2.3-3.4,2.3-5.6
				c0-2.1-0.8-4-2.3-5.6c-1.6-1.6-3.4-2.3-5.6-2.3c-2.1,0-4,0.8-5.6,2.3c-1.6,1.6-2.3,3.4-2.3,5.6
				C178.2,202.7,179,204.5,180.6,206.1z M206.7,206.1c1.6,1.6,3.4,2.3,5.6,2.3c2.1,0,4-0.8,5.6-2.3c1.6-1.6,2.3-3.4,2.3-5.6
				c0-2.1-0.8-4-2.3-5.6c-1.6-1.6-3.4-2.3-5.6-2.3c-2.1,0-4,0.8-5.6,2.3c-1.6,1.6-2.3,3.4-2.3,5.6
				C204.4,202.7,205.1,204.5,206.7,206.1z M222.5,227.2c1.6,1.5,3.4,2.2,5.6,2.2c2.1,0,4-0.7,5.6-2.2c1.6-1.5,2.3-3.4,2.3-5.7
				c0-2.3-0.8-4.2-2.3-5.7c-1.6-1.5-3.4-2.2-5.6-2.2c-2.1,0-4,0.7-5.6,2.2c-1.6,1.5-2.3,3.4-2.3,5.7
				C220.2,223.8,220.9,225.7,222.5,227.2z"/>
		</g>
		<g>
			<path class="st5" d="M186.2,300.4h1.8l6.2,15.9h-2l-1.7-4.3h-6.9l-1.7,4.3h-2L186.2,300.4z M184.4,310.2h5.4l-2.7-7.1
				L184.4,310.2z"/>
			<path class="st5" d="M196.2,300.4h4.1c3.2,0,5.3,1.9,5.3,4.7c0,3.8-3.4,4.5-3.9,4.5l4.4,6.6h-2.3l-4.3-6.5h-1.5v6.5h-1.9V300.4z
				 M203.8,305.1c0-1.7-1.2-2.9-3.3-2.9h-2.3v5.8h2.3C202.6,308,203.8,306.8,203.8,305.1z"/>
			<path class="st5" d="M211.8,302.2h-4.6v-1.8h11v1.8h-4.6v14.1h-1.9V302.2z"/>
		</g>
		<g>
			<path class="st5" d="M177.6,136.8h5.9v6.9c0,0-2.1,2.1-6.2,2.1c-4.6,0-7.9-3.6-7.9-8.2s3.3-8.2,7.9-8.2c4.1,0,5.8,2.2,5.8,2.2
				l-1.4,1.3c0,0-1.5-1.8-4.4-1.8c-3.4,0-5.9,3-5.9,6.4s2.4,6.4,5.9,6.4c2.9,0,4.4-1.2,4.4-1.2v-4.2h-4V136.8z"/>
			<path class="st5" d="M191.1,129.6h1.8l6.2,15.9h-2l-1.7-4.3h-6.9l-1.7,4.3h-2L191.1,129.6z M189.3,139.4h5.4l-2.7-7.1
				L189.3,139.4z"/>
			<path class="st5" d="M203,129.6l5.5,8.9l5.4-8.9h1.8v15.9h-1.9V133l-5.4,8.8l-5.4-8.8v12.4h-1.9v-15.9H203z"/>
			<path class="st5" d="M221.4,136.4h6.7v1.8h-6.7v5.4h7.4v1.8h-9.3v-15.9h9.2v1.8h-7.3V136.4z"/>
		</g>
	</g>
	<g>
		<g>
			<path class="st5" d="M510.7,40.6h29.6v52.6h-37l-2-10.4h-29.6v36.8h-10.4V30h47.4L510.7,40.6z"/>
		</g>
		<g>
			<path class="st5" d="M498.1,182h36.8v15.8h-21v58h-0.2c-0.7,5.9-3.2,10.9-7.6,14.9c-4.4,4-9.7,6-15.8,6c-6.6,0-12.2-2.3-16.8-6.9
				c-4.6-4.6-6.9-10.2-6.9-16.8c0-6.6,2.3-12.2,6.9-16.8c4.6-4.6,10.2-6.9,16.8-6.9c2.8,0,5.4,0.5,7.9,1.5V182z"/>
		</g>
		<g>
			<path class="st5" d="M468.2,300.4l5.5,8.9l5.4-8.9h1.8v15.9h-1.9v-12.4l-5.4,8.8l-5.4-8.8v12.4h-1.9v-15.9H468.2z"/>
			<path class="st5" d="M494.4,300.4h1.9v10c0,3.6-2.2,6.1-5.8,6.1s-5.8-2.5-5.8-6.1v-10h1.9c0,0,0,4.6,0,9.8c0,2.6,1.1,4.5,3.9,4.5
				s3.9-2,3.9-4.5C494.4,305,494.4,300.4,494.4,300.4z"/>
			<path class="st5" d="M504.2,309.1c-2.3-1.1-4.4-2.1-4.4-4.8c0-1.9,1.5-4.2,4.6-4.2c3,0,4.5,2.3,4.5,2.3l-1.4,1.2
				c0,0-1.1-1.7-3.1-1.7c-1.7,0-2.7,1.2-2.7,2.4c0,1.6,1.4,2.2,3.5,3.2c2.4,1.1,3.9,2.1,3.9,4.7c0,2.6-2.1,4.3-4.9,4.3
				c-3.8,0-5.1-3.3-5.1-3.3l1.6-1c0,0,1,2.5,3.5,2.5c1.5,0,3-0.9,3-2.5C507.3,310.6,506,309.9,504.2,309.1z"/>
			<path class="st5" d="M512.6,300.4h1.9v15.9h-1.9V300.4z"/>
			<path class="st5" d="M529.8,303.8c0,0-1.5-1.9-4.4-1.9c-3.4,0-5.8,3-5.8,6.4c0,3.4,2.4,6.4,5.8,6.4c2.9,0,4.6-2.1,4.6-2.1
				l1.3,1.3c0,0-2.2,2.6-5.9,2.6c-4.6,0-7.9-3.6-7.9-8.2c0-4.6,3.3-8.2,7.9-8.2c3.7,0,5.7,2.4,5.7,2.4L529.8,303.8z"/>
		</g>
		<g>
			<path class="st5" d="M465,133c0,0-1.5-1.9-4.4-1.9c-3.4,0-5.8,3-5.8,6.4s2.4,6.4,5.8,6.4c2.9,0,4.6-2.1,4.6-2.1l1.3,1.3
				c0,0-2.2,2.6-5.9,2.6c-4.6,0-7.9-3.6-7.9-8.2s3.3-8.2,7.9-8.2c3.7,0,5.7,2.4,5.7,2.4L465,133z"/>
			<path class="st5" d="M478.5,129.6h1.9v10c0,3.6-2.2,6.1-5.8,6.1s-5.8-2.5-5.8-6.1v-10h1.9c0,0,0,4.6,0,9.8c0,2.6,1.1,4.5,3.9,4.5
				s3.9-2,3.9-4.5C478.5,134.2,478.5,129.6,478.5,129.6z"/>
			<path class="st5" d="M484.1,129.6h1.9v14.1h7.1v1.8h-9V129.6z"/>
			<path class="st5" d="M497.3,131.4h-4.6v-1.8h11v1.8h-4.6v14.1h-1.9V131.4z"/>
			<path class="st5" d="M515.6,129.6h1.9v10c0,3.6-2.2,6.1-5.8,6.1s-5.8-2.5-5.8-6.1v-10h1.9c0,0,0,4.6,0,9.8c0,2.6,1.1,4.5,3.9,4.5
				c2.7,0,3.9-2,3.9-4.5C515.6,134.2,515.6,129.6,515.6,129.6z"/>
			<path class="st5" d="M521.2,129.6h4.1c3.2,0,5.3,1.9,5.3,4.7c0,3.8-3.4,4.5-3.9,4.5l4.4,6.6h-2.3l-4.3-6.5h-1.5v6.5h-1.9V129.6z
				 M528.8,134.3c0-1.7-1.2-2.9-3.3-2.9h-2.3v5.8h2.3C527.6,137.2,528.8,136,528.8,134.3z"/>
			<path class="st5" d="M535.7,136.4h6.7v1.8h-6.7v5.4h7.4v1.8h-9.3v-15.9h9.2v1.8h-7.3V136.4z"/>
		</g>
	</g>
	<g>
		<g>
			<path class="st5" d="M380.2,24.9h10.6v94.7h-10.6V109h-10.6v10.6h-41.9V109h-10.6v10.6h-10.6V24.9h10.6v10.6h10.6V24.9h41.9v10.6
				h10.6V24.9z M327.7,56.4V45.8h-10.6v10.6H327.7z M327.7,77.4V67h-10.6v10.4H327.7z M327.7,98.6V88h-10.6v10.6H327.7z M380.2,56.4
				V45.8h-10.6v10.6H380.2z M380.2,77.4V67h-10.6v10.4H380.2z M380.2,98.6V88h-10.6v10.6H380.2z"/>
		</g>
		<g>
			<path class="st5" d="M328.2,236.6L306,214.4c-4.1-4.1-6.2-9-6.2-14.8c0-5.8,2.1-10.7,6.2-14.8l37,36.8L328.2,236.6z M363.7,227
				l-7.6,7.6l36.3,36.3l-7.4,7.4L348.6,242l-36.3,36.3l-7.4-7.4l51.3-51.3c-2-3.9-2.3-8.6-0.9-13.8c1.4-5.3,4.2-9.9,8.3-14.1
				c5.1-5.1,10.8-8,17-8.8c6.2-0.7,11.3,0.8,15,4.6c3.8,3.8,5.3,8.8,4.6,15.2c-0.7,6.3-3.7,12.1-8.8,17.1c-4.1,4.1-8.8,6.8-14.1,8.1
				C372.2,229.3,367.6,228.9,363.7,227z"/>
		</g>
		<g>
			<path class="st5" d="M321.5,307.2h6.6v1.8h-6.6v7.2h-1.9v-15.9h9v1.8h-7.1V307.2z"/>
			<path class="st5" d="M346.1,308.3c0,4.6-3.3,8.2-7.9,8.2c-4.6,0-7.9-3.6-7.9-8.2c0-4.6,3.3-8.2,7.9-8.2
				C342.9,300.1,346.1,303.7,346.1,308.3z M344.1,308.3c0-3.4-2.3-6.4-5.8-6.4s-5.8,3-5.8,6.4c0,3.4,2.3,6.4,5.8,6.4
				S344.1,311.7,344.1,308.3z"/>
			<path class="st5" d="M363.6,308.3c0,4.6-3.3,8.2-7.9,8.2c-4.6,0-7.9-3.6-7.9-8.2c0-4.6,3.3-8.2,7.9-8.2
				C360.3,300.1,363.6,303.7,363.6,308.3z M361.5,308.3c0-3.4-2.3-6.4-5.8-6.4c-3.5,0-5.8,3-5.8,6.4c0,3.4,2.3,6.4,5.8,6.4
				C359.2,314.7,361.5,311.7,361.5,308.3z"/>
			<path class="st5" d="M378.7,308.3c0,4.6-2.9,7.9-7.9,7.9h-4.6v-15.9h4.6C375.8,300.4,378.7,303.7,378.7,308.3z M376.7,308.3
				c0-3.4-2-6.1-5.9-6.1h-2.5v12.3h2.5C374.6,314.5,376.7,311.7,376.7,308.3z"/>
		</g>
		<g>
			<path class="st5" d="M328.6,136.4h6.6v1.8h-6.6v7.2h-1.9v-15.9h9v1.8h-7.1V136.4z"/>
			<path class="st5" d="M338.9,129.6h1.9v15.9h-1.9V129.6z"/>
			<path class="st5" d="M344.8,129.6h1.9v14.1h7.1v1.8h-9V129.6z"/>
			<path class="st5" d="M357.8,129.6l5.5,8.9l5.4-8.9h1.8v15.9h-1.9V133l-5.4,8.8l-5.4-8.8v12.4h-1.9v-15.9H357.8z"/>
		</g>
	</g>
</g>
</svg>
