<?xml version="1.0" encoding="utf-8"?>
<!-- Generator: Adobe Illustrator 22.0.1, SVG Export Plug-In . SVG Version: 6.00 Build 0)  -->
<svg version="1.1" id="Layer_1" xmlns="http://www.w3.org/2000/svg" xmlns:xlink="http://www.w3.org/1999/xlink" x="0px" y="0px"
	 viewBox="0 0 926.3 541.4" style="enable-background:new 0 0 926.3 541.4;" xml:space="preserve">
<style type="text/css">
	.st0{display:none;}
	.st1{display:inline;fill:none;stroke:#000000;stroke-width:5;stroke-opacity:5.000000e-02;}
	.st2{display:inline;fill:none;stroke:#000000;stroke-width:3;stroke-opacity:0.1;}
	.st3{display:inline;fill:none;stroke:#000000;stroke-opacity:0.15;}
	.st4{display:inline;fill:#FFFFFF;fill-opacity:0.85;}
	.st5{fill:#111216;}
	.st6{fill:#CC112C;}
	.st7{fill:#FFFFFF;}
	.st8{fill:#808080;}
</style>
<desc>Created with Highcharts 4.2.7</desc>
<g transform="translate(0,0)" class="st0">
	<path class="st1" d="M-160.6,53.5h10c3,0,3,0,3,3v10c0,3,0,3-3,3h-10c-3,0-3,0-3-3v-10C-163.6,53.5-163.6,53.5-160.6,53.5"/>
	<path class="st2" d="M-160.6,53.5h10c3,0,3,0,3,3v10c0,3,0,3-3,3h-10c-3,0-3,0-3-3v-10C-163.6,53.5-163.6,53.5-160.6,53.5"/>
	<path class="st3" d="M-160.6,53.5h10c3,0,3,0,3,3v10c0,3,0,3-3,3h-10c-3,0-3,0-3-3v-10C-163.6,53.5-163.6,53.5-160.6,53.5"/>
	<path class="st4" d="M-161.6,52.5h10c3,0,3,0,3,3v10c0,3,0,3-3,3h-10c-3,0-3,0-3-3v-10C-164.6,52.5-164.6,52.5-161.6,52.5"/>
</g>
<rect class="st5" width="926.3" height="541.4"/>
<g>
	<g>
		<g>
			<path class="st6" d="M629.8,62.2v10.5H624V46h5.8v11.2h4.6V46h5.8v26.7h-5.8V62.2H629.8z"/>
			<path class="st7" d="M654.3,52.6h4.7v20.1h-4.7v-1.5c-0.9,1.3-2.3,1.9-4.2,1.9h-0.9c-3.4,0-5.1-1.8-5.1-5.4V57.6
				c0-3.6,1.7-5.4,5.1-5.4h0.9c2,0,3.4,0.6,4.2,1.9V52.6z M653.4,68.3V56.9c0-0.2-0.1-0.4-0.2-0.6c-0.2-0.2-0.3-0.2-0.6-0.2h-2.3
				c-0.2,0-0.4,0.1-0.6,0.2c-0.2,0.2-0.2,0.4-0.2,0.6v11.4c0,0.2,0.1,0.4,0.2,0.6c0.2,0.2,0.3,0.2,0.6,0.2h2.3
				c0.2,0,0.4-0.1,0.6-0.2S653.4,68.5,653.4,68.3z"/>
			<path class="st7" d="M671.2,52.1h1.1v5.4h-2.7c-0.9,0-1.4,0.5-1.4,1.4v13.7h-5.5v-20h5v1.9C668.5,52.9,669.7,52.1,671.2,52.1z"/>
			<path class="st7" d="M680.8,52.1c1.4,0,2.5,0.3,3.4,1V46h5.5v26.7H685v-1.5c-0.9,1.3-2.3,1.9-4.2,1.9h-0.9
				c-3.4,0-5.1-1.8-5.1-5.4V57.6c0-3.6,1.7-5.4,5.1-5.4L680.8,52.1L680.8,52.1z M684.1,68.3V56.9c0-0.2-0.1-0.4-0.2-0.6
				c-0.2-0.2-0.3-0.2-0.6-0.2H681c-0.2,0-0.4,0.1-0.6,0.2c-0.2,0.2-0.2,0.4-0.2,0.6v11.4c0,0.2,0.1,0.4,0.2,0.6
				c0.2,0.2,0.3,0.2,0.6,0.2h2.3c0.2,0,0.4-0.1,0.6-0.2S684.1,68.5,684.1,68.3z"/>
			<path class="st7" d="M716.8,53h-5.5v-2.1c0-0.2-0.1-0.4-0.2-0.6c-0.2-0.2-0.3-0.2-0.6-0.2h-2.3c-0.2,0-0.4,0.1-0.6,0.2
				c-0.2,0.2-0.2,0.4-0.2,0.6v4.7c0,0.2,0.1,0.4,0.2,0.6c0.2,0.2,0.3,0.2,0.6,0.2h3.7c3.4,0.1,5.1,1.9,5.1,5.4v5.7
				c0,3.6-1.7,5.4-5.1,5.4H707c-3.4,0-5.1-1.8-5.1-5.4v-2.8h5.5v3c0,0.2,0.1,0.4,0.2,0.6c0.2,0.2,0.3,0.2,0.6,0.2h2.6
				c0.2,0,0.4-0.1,0.6-0.2c0.2-0.2,0.2-0.4,0.2-0.6v-5.2c0-0.2-0.1-0.4-0.2-0.6c-0.2-0.2-0.3-0.2-0.6-0.2h-3.7
				c-3.4,0-5.1-1.8-5.1-5.4V51c0-3.6,1.7-5.4,5.1-5.4h4.6c3.4,0,5.1,1.8,5.1,5.4L716.8,53L716.8,53z"/>
			<path class="st7" d="M736.5,52.6l-4.1,9.4l4.8,10.7h-5.5l-3.8-8.4h-1.6v8.4h-5.5V46h5.5v13.8h1.9l3-7.2H736.5z"/>
			<path class="st7" d="M745,50c-0.6,0.6-1.3,0.9-2.1,0.9s-1.5-0.3-2.1-0.9c-0.6-0.6-0.9-1.3-0.9-2.1s0.3-1.6,0.9-2.1
				c0.6-0.6,1.3-0.9,2.1-0.9s1.5,0.3,2.1,0.9c0.6,0.6,0.9,1.3,0.9,2.2C745.9,48.7,745.6,49.5,745,50z M740.2,72.7V52.6h5.5v20.1
				H740.2z"/>
			<path class="st7" d="M755.1,72.7h-5.5V46h5.5V72.7z"/>
			<path class="st7" d="M764.3,72.7h-5.5V46h5.5V72.7z"/>
			<path class="st7" d="M777.5,60.1c3.4,0,5.1,1.8,5.1,5.4v2.1c0,3.6-1.7,5.4-5.1,5.4h-4.6c-3.4,0-5.1-1.8-5.1-5.4v-1.3h5.1v1.8
				c0,0.2,0.1,0.4,0.2,0.6c0.2,0.2,0.3,0.2,0.6,0.2h3.4c0.2,0,0.4-0.1,0.6-0.2c0.2-0.2,0.2-0.4,0.2-0.6v-2.5c0-0.2-0.1-0.4-0.2-0.6
				c-0.2-0.2-0.3-0.2-0.6-0.2h-4.2c-3.4,0-5.1-1.8-5.1-5.4v-1.9c0-3.6,1.7-5.4,5.1-5.4h4.3c3.4,0,5.1,1.8,5.1,5.4v0.7h-5.1V57
				c0-0.2-0.1-0.4-0.2-0.6c-0.2-0.2-0.3-0.2-0.6-0.2h-3.1c-0.2,0-0.4,0.1-0.6,0.2c-0.2,0.2-0.2,0.4-0.2,0.6v2.2
				c0,0.2,0.1,0.4,0.2,0.6c0.2,0.2,0.3,0.2,0.6,0.2L777.5,60.1L777.5,60.1z"/>
		</g>
	</g>
	<g>
		<g>
			<path class="st6" d="M154.2,46h5.1l3.1,20.1l2.3-20.1h5.6L166,72.7h-6.6l-2.7-16.4L154,72.7h-6.6L143.2,46h5.6l2.3,20.1L154.2,46
				z"/>
			<path class="st7" d="M178.8,72.7h-5.5V46h5.5v7.1c0.8-0.7,2-1,3.4-1h0.9c3.4,0,5.1,1.8,5.1,5.4v15.1h-5.5V56.9
				c0-0.2-0.1-0.4-0.2-0.6c-0.2-0.2-0.3-0.2-0.6-0.2h-2.3c-0.5,0-0.7,0.2-0.8,0.7L178.8,72.7L178.8,72.7z"/>
			<path class="st7" d="M202.1,52.6h4.7v20.1h-4.7v-1.5c-0.9,1.3-2.3,1.9-4.2,1.9H197c-3.4,0-5.1-1.8-5.1-5.4V57.6
				c0-3.6,1.7-5.4,5.1-5.4h0.9c2,0,3.4,0.6,4.2,1.9L202.1,52.6L202.1,52.6z M201.3,68.3V56.9c0-0.2-0.1-0.4-0.2-0.6
				c-0.2-0.2-0.3-0.2-0.6-0.2h-2.3c-0.2,0-0.4,0.1-0.6,0.2c-0.2,0.2-0.2,0.4-0.2,0.6v11.4c0,0.2,0.1,0.4,0.2,0.6
				c0.2,0.2,0.3,0.2,0.6,0.2h2.3c0.2,0,0.4-0.1,0.6-0.2C201.2,68.7,201.3,68.5,201.3,68.3z"/>
			<path class="st7" d="M217.9,69.5h1.6v3.6h-3.9c-3.4,0-5.1-1.8-5.1-5.4V48.2h5.5v4.4h3.5v4H216v11c0,0.8,0.2,1.3,0.5,1.6
				C216.8,69.4,217.3,69.5,217.9,69.5z"/>
			<path class="st7" d="M245.6,60.5h-5.5V57c0-0.2-0.1-0.4-0.2-0.6c-0.2-0.2-0.3-0.2-0.6-0.2H237c-0.2,0-0.4,0.1-0.6,0.2
				c-0.2,0.2-0.2,0.4-0.2,0.6v11.4c0,0.2,0.1,0.4,0.2,0.6c0.2,0.2,0.3,0.2,0.6,0.2h2.3c0.2,0,0.4-0.1,0.6-0.2
				c0.2-0.2,0.2-0.4,0.2-0.6v-3.5h5.5v2.9c0,3.6-1.7,5.4-5.1,5.4h-4.7c-3.4,0-5.1-1.8-5.1-5.4V57.6c0-3.6,1.7-5.4,5.1-5.4h4.7
				c3.4,0,5.1,1.8,5.1,5.4V60.5z"/>
			<path class="st7" d="M259.3,52.6h4.7v20.1h-4.7v-1.5c-0.9,1.3-2.3,1.9-4.2,1.9h-0.9c-3.4,0-5.1-1.8-5.1-5.4V57.6
				c0-3.6,1.7-5.4,5.1-5.4h0.9c2,0,3.4,0.6,4.2,1.9V52.6z M258.5,68.3V56.9c0-0.2-0.1-0.4-0.2-0.6c-0.2-0.2-0.3-0.2-0.6-0.2h-2.3
				c-0.2,0-0.4,0.1-0.6,0.2c-0.2,0.2-0.2,0.4-0.2,0.6v11.4c0,0.2,0.1,0.4,0.2,0.6c0.2,0.2,0.3,0.2,0.6,0.2h2.3
				c0.2,0,0.4-0.1,0.6-0.2C258.4,68.7,258.5,68.5,258.5,68.3z"/>
			<path class="st7" d="M273.3,72.7h-5.5V52.6h5v1c0.9-1,2.1-1.4,3.9-1.4h0.9c3.4,0,5.1,1.8,5.1,5.4v15.1h-5.5V56.9
				c0-0.2-0.1-0.4-0.2-0.6c-0.2-0.2-0.3-0.2-0.6-0.2h-2.3c-0.2,0-0.4,0.1-0.6,0.2c-0.2,0.2-0.2,0.4-0.2,0.6L273.3,72.7L273.3,72.7z"
				/>
			<path class="st7" d="M300.7,46v26.7h-5.8V46H300.7z"/>
			<path class="st7" d="M319.1,52.1c1.4,0,2.5,0.3,3.4,1V46h5.5v26.7h-4.7v-1.5c-0.9,1.3-2.3,1.9-4.2,1.9h-0.9
				c-3.4,0-5.1-1.8-5.1-5.4V57.6c0-3.6,1.7-5.4,5.1-5.4L319.1,52.1L319.1,52.1z M322.5,68.3V56.9c0-0.2-0.1-0.4-0.2-0.6
				c-0.2-0.2-0.3-0.2-0.6-0.2h-2.3c-0.2,0-0.4,0.1-0.6,0.2c-0.2,0.2-0.2,0.4-0.2,0.6v11.4c0,0.2,0.1,0.4,0.2,0.6
				c0.2,0.2,0.3,0.2,0.6,0.2h2.3c0.2,0,0.4-0.1,0.6-0.2C322.4,68.7,322.5,68.5,322.5,68.3z"/>
			<path class="st7" d="M346.6,57.6v10.1c0,3.6-1.7,5.4-5.1,5.4h-4.7c-3.4,0-5.1-1.8-5.1-5.4V57.6c0-3.6,1.7-5.4,5.1-5.4h4.7
				C344.9,52.1,346.6,54,346.6,57.6z M341.1,68.8V56.4c0-0.2-0.1-0.4-0.2-0.6c-0.2-0.2-0.3-0.2-0.6-0.2H338c-0.2,0-0.4,0.1-0.6,0.2
				c-0.2,0.2-0.2,0.4-0.2,0.6v12.4c0,0.2,0.1,0.4,0.2,0.6c0.2,0.2,0.3,0.2,0.6,0.2h2.3c0.2,0,0.4-0.1,0.6-0.2
				C341,69.2,341.1,69,341.1,68.8z"/>
			<path class="st7" d="M359.1,61.7c-0.2,0-0.4,0.1-0.6,0.2c-0.2,0.2-0.2,0.4-0.2,0.6v2.3h-4.8v-2.3c0-3.6,1.7-5.4,5.1-5.4h0.2
				c0.2,0,0.4-0.1,0.6-0.2c0.2-0.2,0.2-0.4,0.2-0.6v-4.9c0-0.2-0.1-0.4-0.2-0.6c-0.2-0.2-0.3-0.2-0.6-0.2h-3.1
				c-0.2,0-0.4,0.1-0.6,0.2c-0.2,0.2-0.2,0.4-0.2,0.6v2.1h-5.1v-2c0-3.6,1.7-5.4,5.1-5.4h4.6c3.4,0,5.1,1.8,5.1,5.4v4.9
				c0,3.6-1.7,5.4-5.1,5.4h-0.4V61.7z M353,70.1c0-0.8,0.3-1.5,0.9-2.1s1.3-0.9,2.1-0.9c0.8,0,1.5,0.3,2.1,0.9s0.9,1.3,0.9,2.1
				c0,0.8-0.3,1.5-0.9,2.1s-1.3,0.9-2.1,0.9c-0.8,0-1.5-0.3-2.1-0.9S353,70.9,353,70.1z"/>
		</g>
	</g>
</g>
<g>
	<g>
		<g>
			<path class="st8" d="M459.7,217.7h10.2v2h-10.2V217.7z"/>
			<path class="st8" d="M481.1,210.3h2.3v17.8h-2.3V210.3z"/>
			<path class="st8" d="M497.6,220.2c0-2.9-1.6-4.3-3.9-4.3c-2.4,0-4,1.5-4,4.5v7.7h-2.3v-14h2.3v2c0.9-1.5,2.6-2.2,4.5-2.2
				c3.2,0,5.7,2,5.7,6v8.3h-2.3L497.6,220.2L497.6,220.2z"/>
			<path class="st8" d="M516,210.3h2.5l-6.7,17.8h-2.7l-6.7-17.8h2.5l5.6,15.4L516,210.3z"/>
			<path class="st8" d="M520.6,210.2c0-0.9,0.7-1.6,1.6-1.6c0.8,0,1.5,0.7,1.5,1.6s-0.7,1.6-1.5,1.6
				C521.3,211.8,520.6,211.1,520.6,210.2z M521,214.1h2.3v14H521V214.1z"/>
			<path class="st8" d="M532.3,228.3c-3.3,0-5.6-1.8-5.7-4.3h2.4c0.1,1.4,1.3,2.4,3.3,2.4c1.8,0,2.9-0.9,2.9-2.1
				c0-3.1-8.3-1.3-8.3-6.5c0-2.1,2-3.9,5.1-3.9s5.1,1.7,5.3,4.4H535c-0.1-1.4-1.2-2.4-3-2.4c-1.7,0-2.7,0.8-2.7,1.9
				c0,3.3,8.1,1.5,8.2,6.5C537.4,226.6,535.4,228.3,532.3,228.3z"/>
			<path class="st8" d="M540.3,210.2c0-0.9,0.7-1.6,1.6-1.6c0.8,0,1.5,0.7,1.5,1.6s-0.7,1.6-1.5,1.6
				C541,211.8,540.3,211.1,540.3,210.2z M540.6,214.1h2.3v14h-2.3V214.1z"/>
			<path class="st8" d="M553,228.3c-4,0-7-2.8-7-7.3c0-4.4,3.1-7.2,7.1-7.2s7.1,2.8,7.1,7.2C560.2,225.5,557,228.3,553,228.3z
				 M553,226.3c2.4,0,4.8-1.7,4.8-5.2s-2.3-5.2-4.7-5.2c-2.5,0-4.7,1.7-4.7,5.2C548.4,224.6,550.6,226.3,553,226.3z"/>
			<path class="st8" d="M573.5,220.2c0-2.9-1.6-4.3-3.9-4.3c-2.4,0-4,1.5-4,4.5v7.7h-2.3v-14h2.3v2c0.9-1.5,2.6-2.2,4.5-2.2
				c3.2,0,5.7,2,5.7,6v8.3h-2.3V220.2z"/>
			<path class="st8" d="M579.5,224.9h2.6l-2.9,6.9h-1.6L579.5,224.9z"/>
			<path class="st8" d="M597.2,228.3c-3.6,0-6.1-2-6.2-4.9h2.5c0.2,1.5,1.2,3,3.7,3c2.2,0,3.6-1.3,3.6-3c0-4.8-9.6-1.7-9.6-8.4
				c0-2.9,2.4-4.9,5.9-4.9c3.4,0,5.6,1.9,5.9,4.6h-2.6c-0.2-1.2-1.3-2.6-3.5-2.6c-1.9-0.1-3.4,0.9-3.4,2.9c0,4.6,9.6,1.7,9.6,8.3
				C603.1,225.8,601,228.3,597.2,228.3z"/>
			<path class="st8" d="M606.5,209.2h2.3v11.1l5.4-6.2h3.2l-6.6,7l6.6,7h-3.2l-5.5-6.2v6.2h-2.3L606.5,209.2L606.5,209.2z"/>
			<path class="st8" d="M625.8,228.3c-4,0-6.9-2.8-6.9-7.3c0-4.4,2.8-7.2,6.9-7.2c4.1,0,6.7,2.9,6.7,6.7c0,0.5,0,0.9-0.1,1.4h-11.2
				c0.2,2.8,2.2,4.4,4.5,4.4c2.1,0,3.4-1.1,3.9-2.6h2.5C631.5,226.3,629.2,228.3,625.8,228.3z M621.2,220.1h8.8c0-2.7-2-4.2-4.4-4.2
				C623.4,215.8,621.5,217.3,621.2,220.1z"/>
			<path class="st8" d="M636.1,216h-1.8v-1.9h1.8v-3.5h2.3v3.5h3.7v1.9h-3.7v8.3c0,1.4,0.5,1.9,1.9,1.9h1.7v2h-2.1
				c-2.5,0-3.9-1-3.9-3.8L636.1,216L636.1,216z"/>
			<path class="st8" d="M650.8,213.9c3.5,0,5.8,1.8,6.5,4.7h-2.5c-0.5-1.7-1.9-2.8-4-2.8c-2.6,0-4.4,1.8-4.4,5.2
				c0,3.5,1.9,5.3,4.4,5.3c2.1,0,3.5-1,4-2.8h2.5c-0.7,2.8-3,4.7-6.5,4.7c-4,0-6.8-2.8-6.8-7.3C644,216.7,646.8,213.9,650.8,213.9z"
				/>
			<path class="st8" d="M660.4,209.2h2.3v6.9c0.9-1.5,2.7-2.3,4.6-2.3c3.1,0,5.6,2,5.6,6v8.3h-2.3v-7.9c0-2.9-1.6-4.3-3.9-4.3
				c-2.4,0-4,1.5-4,4.5v7.7h-2.3L660.4,209.2L660.4,209.2z"/>
			<path class="st8" d="M676.6,224.9h2.6l-2.9,6.9h-1.6L676.6,224.9z"/>
			<path class="st8" d="M694.5,221.1l-4.1,7h-2.6l5.4-8.9l-5.5-8.9h2.6l4.3,7l4.1-7h2.6l-5.5,8.9l5.5,8.9h-2.6L694.5,221.1z"/>
			<path class="st8" d="M719.5,219.2c0,5.5-3.6,8.9-9.5,8.9h-5.5v-17.8h5.5C715.9,210.3,719.5,213.7,719.5,219.2z M710,226.2
				c4.7,0,7.1-2.6,7.1-7c0-4.3-2.4-7.1-7.1-7.1h-3.2v14h3.2V226.2z"/>
			<path class="st8" d="M722.4,224.9h2.6l-2.9,6.9h-1.6L722.4,224.9z"/>
			<path class="st8" d="M741.1,228.1h-6.6v-17.8h6.4c3.8,0,5.6,2,5.6,4.5c0,2.3-1.4,3.6-3.1,4.1c1.9,0.3,3.5,2.2,3.5,4.4
				C746.9,226,744.7,228.1,741.1,228.1z M740.6,212.2h-3.9v5.8h3.9c2.2,0,3.4-1.1,3.4-2.9C744.1,213.3,742.9,212.2,740.6,212.2z
				 M740.8,219.9h-4v6.3h4.1c2.3,0,3.7-1.2,3.7-3.1C744.5,221.1,743.1,219.9,740.8,219.9z"/>
			<path class="st8" d="M755.9,213.9c2.6,0,4.4,1.3,5.2,2.8v-2.6h2.4v14h-2.4v-2.6c-0.8,1.5-2.7,2.8-5.2,2.8c-3.7,0-6.6-2.9-6.6-7.3
				C749.2,216.7,752.1,213.9,755.9,213.9z M756.3,215.9c-2.6,0-4.7,1.9-4.7,5.2s2.2,5.2,4.7,5.2s4.8-1.9,4.8-5.2
				C761.1,217.8,758.9,215.9,756.3,215.9z"/>
			<path class="st8" d="M767.4,209.2h2.3v18.9h-2.3V209.2z"/>
			<path class="st8" d="M778.6,228.3c-3.3,0-5.6-1.8-5.7-4.3h2.4c0.1,1.4,1.3,2.4,3.3,2.4c1.8,0,2.9-0.9,2.9-2.1
				c0-3.1-8.3-1.3-8.3-6.5c0-2.1,2-3.9,5.1-3.9s5.1,1.7,5.3,4.4h-2.3c-0.1-1.4-1.2-2.4-3-2.4c-1.7,0-2.7,0.8-2.7,1.9
				c0,3.3,8.1,1.5,8.2,6.5C783.7,226.6,781.7,228.3,778.6,228.3z"/>
			<path class="st8" d="M792.8,213.9c2.6,0,4.4,1.3,5.2,2.8v-2.6h2.4v14H798v-2.6c-0.8,1.5-2.7,2.8-5.2,2.8c-3.7,0-6.6-2.9-6.6-7.3
				C786.1,216.7,789,213.9,792.8,213.9z M793.2,215.9c-2.6,0-4.7,1.9-4.7,5.2s2.2,5.2,4.7,5.2s4.8-1.9,4.8-5.2
				C798,217.8,795.8,215.9,793.2,215.9z"/>
			<path class="st8" d="M824.5,220.2c0-2.9-1.5-4.3-3.8-4.3c-2.4,0-4,1.5-4,4.5v7.7h-2.3v-7.9c0-2.9-1.5-4.3-3.8-4.3
				c-2.4,0-4,1.5-4,4.5v7.7h-2.3v-14h2.3v2c0.9-1.5,2.6-2.3,4.4-2.3c2.3,0,4.2,1,5.1,3.1c0.8-2,2.8-3.1,5-3.1c3.2,0,5.7,2,5.7,6v8.3
				h-2.3L824.5,220.2L824.5,220.2z"/>
			<path class="st8" d="M830.2,210.2c0-0.9,0.7-1.6,1.6-1.6c0.8,0,1.5,0.7,1.5,1.6s-0.7,1.6-1.5,1.6
				C830.9,211.8,830.2,211.1,830.2,210.2z M830.6,214.1h2.3v14h-2.3V214.1z"/>
			<path class="st8" d="M842.7,213.9c2.6,0,4.4,1.3,5.2,2.8v-2.6h2.4v20.7h-2.4v-9.2c-0.8,1.4-2.7,2.8-5.3,2.8
				c-3.7,0-6.6-2.9-6.6-7.3C836,216.7,838.9,213.9,842.7,213.9z M843.1,215.9c-2.6,0-4.7,1.9-4.7,5.2s2.2,5.2,4.7,5.2
				s4.8-1.9,4.8-5.2C847.9,217.8,845.7,215.9,843.1,215.9z"/>
			<path class="st8" d="M468.6,244.8c0.1-1.5-0.9-2.2-2.2-2.2c-1.4,0-2.3,0.9-2.3,2c0,1,0.6,1.9,1.8,3.2l5.3,5.3
				c0.2-0.2,0.3-0.5,0.5-0.7l1.7-2.9h2.5l-2.1,3.6c-0.3,0.6-0.7,1.1-1,1.6l4,4h-3l-2.3-2.4c-1.7,1.8-3.6,2.7-6.1,2.7
				c-3.7,0-6.2-2.1-6.2-5.4c0-2.5,1.4-4.4,4.2-5.5c-1.1-1.3-1.5-2.3-1.5-3.6c0-2.3,1.8-4,4.7-4c2.8,0,4.5,1.8,4.4,4.2L468.6,244.8
				L468.6,244.8z M470,254.9l-5.2-5.3c-2.2,0.8-3.3,2.2-3.3,4c0,2,1.6,3.5,3.9,3.5C467.2,257.1,468.7,256.4,470,254.9z"/>
			<path class="st8" d="M496.4,254.8h-7.8l-1.4,4h-2.5l6.4-17.7h2.7l6.4,17.7h-2.5L496.4,254.8z M492.5,243.9l-3.2,9h6.4
				L492.5,243.9z"/>
			<path class="st8" d="M507.1,253.5l-3.2,5.2h-2.4l4.5-7l-4.5-7.1h2.6l3.3,5.2l3.2-5.2h2.4l-4.5,6.9l4.5,7.1h-2.6L507.1,253.5z"/>
			<path class="st8" d="M527.8,258.8h-2.3v-2.1c-0.9,1.5-2.6,2.3-4.5,2.3c-3.2,0-5.8-2-5.8-6v-8.2h2.3v7.9c0,2.8,1.6,4.3,3.9,4.3
				c2.4,0,4-1.5,4-4.5v-7.7h2.3L527.8,258.8L527.8,258.8z"/>
			<path class="st8" d="M534.1,258.8h-2.3v-14h2.3v2.3c0.8-1.6,2.3-2.5,4.5-2.5v2.4H538c-2.2,0-3.9,1-3.9,4.2V258.8z"/>
			<path class="st8" d="M547.3,259c-4,0-6.9-2.8-6.9-7.3c0-4.4,2.8-7.2,6.9-7.2c4.1,0,6.7,2.9,6.7,6.7c0,0.5,0,0.9-0.1,1.4h-11.2
				c0.2,2.8,2.2,4.4,4.5,4.4c2.1,0,3.4-1.1,3.9-2.6h2.5C553,257,550.8,259,547.3,259z M542.8,250.7h8.8c0-2.7-2-4.2-4.4-4.2
				C544.9,246.5,543,248,542.8,250.7z"/>
			<path class="st8" d="M569.7,240.9c4.2,0,6.2,2.3,6.2,5.2c0,2.3-1.3,4.4-4.2,5.1l4.5,7.5h-2.8l-4.2-7.3h-2.8v7.3h-2.3v-17.8
				L569.7,240.9L569.7,240.9z M569.7,242.9h-3.4v6.7h3.4c2.6,0,3.8-1.4,3.8-3.4S572.3,242.9,569.7,242.9z"/>
			<path class="st8" d="M585.2,251.3h-3.4v7.4h-2.3v-17.8h5.8c4.2,0,6.2,2.3,6.2,5.2C591.4,248.9,589.6,251.3,585.2,251.3z
				 M585.2,249.4c2.7,0,3.8-1.3,3.8-3.2c0-2.1-1.1-3.3-3.8-3.3h-3.4v6.5H585.2z"/>
		</g>
		<g>
			<path class="st8" d="M459.7,129.8h10.2v2h-10.2V129.8z"/>
			<path class="st8" d="M486.8,132.7h-3.4v7.4h-2.3v-17.8h5.8c4.2,0,6.2,2.3,6.2,5.2C493,130.3,491.3,132.7,486.8,132.7z
				 M486.8,130.8c2.7,0,3.8-1.3,3.8-3.2c0-2.1-1.1-3.3-3.8-3.3h-3.4v6.5H486.8z"/>
			<path class="st8" d="M495.9,121.3h2.3v6.9c0.9-1.5,2.7-2.3,4.6-2.3c3.1,0,5.6,2,5.6,6v8.3h-2.3v-7.9c0-2.9-1.6-4.3-3.9-4.3
				c-2.4,0-4,1.5-4,4.5v7.7h-2.3L495.9,121.3L495.9,121.3z"/>
			<path class="st8" d="M518.4,140.4c-4,0-7-2.8-7-7.3c0-4.4,3.1-7.2,7.1-7.2s7.1,2.8,7.1,7.2C525.5,137.6,522.3,140.4,518.4,140.4z
				 M518.4,138.4c2.4,0,4.8-1.7,4.8-5.2s-2.3-5.2-4.7-5.2c-2.5,0-4.7,1.7-4.7,5.2S515.9,138.4,518.4,138.4z"/>
			<path class="st8" d="M529.1,128.1h-1.8v-1.9h1.8v-3.5h2.3v3.5h3.7v1.9h-3.7v8.3c0,1.4,0.5,1.9,1.9,1.9h1.7v2h-2
				c-2.5,0-3.9-1-3.9-3.8V128.1z"/>
			<path class="st8" d="M544,140.4c-4,0-7-2.8-7-7.3c0-4.4,3.1-7.2,7.1-7.2s7.1,2.8,7.1,7.2C551.2,137.6,548,140.4,544,140.4z
				 M544,138.4c2.4,0,4.8-1.7,4.8-5.2s-2.3-5.2-4.7-5.2c-2.5,0-4.7,1.7-4.7,5.2C539.4,136.7,541.6,138.4,544,138.4z"/>
			<path class="st8" d="M559.2,140.4c-3.3,0-5.6-1.8-5.7-4.3h2.4c0.1,1.4,1.3,2.4,3.3,2.4c1.8,0,2.9-0.9,2.9-2.1
				c0-3.1-8.3-1.3-8.3-6.5c0-2.1,2-3.9,5.1-3.9s5.1,1.7,5.3,4.4h-2.3c-0.1-1.4-1.2-2.4-3-2.4c-1.7,0-2.7,0.8-2.7,1.9
				c0,3.3,8.1,1.5,8.2,6.5C564.3,138.7,562.3,140.4,559.2,140.4z"/>
			<path class="st8" d="M567.6,121.3h2.3v6.9c0.9-1.5,2.7-2.3,4.6-2.3c3.1,0,5.6,2,5.6,6v8.3h-2.3v-7.9c0-2.9-1.6-4.3-3.9-4.3
				c-2.4,0-4,1.5-4,4.5v7.7h-2.3L567.6,121.3L567.6,121.3z"/>
			<path class="st8" d="M590.1,140.4c-4,0-7-2.8-7-7.3c0-4.4,3.1-7.2,7.1-7.2s7.1,2.8,7.1,7.2C597.3,137.6,594.1,140.4,590.1,140.4z
				 M590.1,138.4c2.4,0,4.8-1.7,4.8-5.2s-2.3-5.2-4.7-5.2c-2.5,0-4.7,1.7-4.7,5.2C585.5,136.7,587.6,138.4,590.1,138.4z"/>
			<path class="st8" d="M607.9,125.9c3.8,0,6.6,2.8,6.6,7.2c0,4.3-2.9,7.3-6.6,7.3c-2.6,0-4.4-1.4-5.2-2.8v9.2h-2.3v-20.7h2.3v2.6
				C603.5,127.3,605.3,125.9,607.9,125.9z M607.4,128c-2.5,0-4.8,1.9-4.8,5.2s2.2,5.2,4.8,5.2s4.8-1.9,4.8-5.2S610,128,607.4,128z"
				/>
			<path class="st8" d="M617.4,137h2.6l-2.9,6.9h-1.6L617.4,137z"/>
			<path class="st8" d="M629.5,122.4h2.3v17.8h-2.3V122.4z"/>
			<path class="st8" d="M635.8,121.3h2.3v18.9h-2.3V121.3z"/>
			<path class="st8" d="M642.1,121.3h2.3v18.9h-2.3V121.3z"/>
			<path class="st8" d="M660.8,140.2h-2.3v-2.1c-0.9,1.5-2.6,2.3-4.5,2.3c-3.2,0-5.8-2-5.8-6v-8.2h2.3v7.9c0,2.8,1.6,4.3,3.9,4.3
				c2.4,0,4-1.5,4-4.5v-7.7h2.3L660.8,140.2L660.8,140.2z"/>
			<path class="st8" d="M669.7,140.4c-3.3,0-5.6-1.8-5.7-4.3h2.4c0.1,1.4,1.3,2.4,3.3,2.4c1.8,0,2.9-0.9,2.9-2.1
				c0-3.1-8.3-1.3-8.3-6.5c0-2.1,2-3.9,5.1-3.9s5.1,1.7,5.3,4.4h-2.3c-0.1-1.4-1.2-2.4-3-2.4c-1.7,0-2.7,0.8-2.7,1.9
				c0,3.3,8.1,1.5,8.2,6.5C674.8,138.7,672.8,140.4,669.7,140.4z"/>
			<path class="st8" d="M678.6,128.1h-1.8v-1.9h1.8v-3.5h2.3v3.5h3.7v1.9h-3.7v8.3c0,1.4,0.5,1.9,1.9,1.9h1.7v2h-2.1
				c-2.5,0-3.9-1-3.9-3.8L678.6,128.1L678.6,128.1z"/>
			<path class="st8" d="M689.7,140.2h-2.3v-14h2.3v2.3c0.8-1.6,2.3-2.5,4.5-2.5v2.4h-0.6c-2.2,0-3.9,1-3.9,4.2V140.2z"/>
			<path class="st8" d="M702.7,125.9c2.6,0,4.4,1.3,5.2,2.8v-2.6h2.4v14h-2.4v-2.6c-0.8,1.5-2.7,2.8-5.2,2.8c-3.7,0-6.6-2.9-6.6-7.3
				C696,128.8,698.9,125.9,702.7,125.9z M703.1,128c-2.6,0-4.7,1.9-4.7,5.2s2.2,5.2,4.7,5.2s4.8-1.9,4.8-5.2
				C707.9,129.9,705.7,128,703.1,128z"/>
			<path class="st8" d="M714.7,128.1h-1.8v-1.9h1.8v-3.5h2.3v3.5h3.7v1.9H717v8.3c0,1.4,0.5,1.9,1.9,1.9h1.7v2h-2.1
				c-2.5,0-3.9-1-3.9-3.8L714.7,128.1L714.7,128.1z"/>
			<path class="st8" d="M729.6,140.4c-4,0-7-2.8-7-7.3c0-4.4,3.1-7.2,7.1-7.2s7.1,2.8,7.1,7.2C736.7,137.6,733.6,140.4,729.6,140.4z
				 M729.6,138.4c2.4,0,4.8-1.7,4.8-5.2s-2.3-5.2-4.7-5.2c-2.5,0-4.7,1.7-4.7,5.2C725,136.7,727.1,138.4,729.6,138.4z"/>
			<path class="st8" d="M742.1,140.2h-2.3v-14h2.3v2.3c0.8-1.6,2.3-2.5,4.5-2.5v2.4H746c-2.2,0-3.9,1-3.9,4.2V140.2z"/>
			<path class="st8" d="M749.2,137h2.6l-2.9,6.9h-1.6L749.2,137z"/>
			<path class="st8" d="M761.2,122.4h2.3v17.8h-2.3V122.4z"/>
			<path class="st8" d="M777.8,132.3c0-2.9-1.6-4.3-3.9-4.3c-2.4,0-4,1.5-4,4.5v7.7h-2.3v-14h2.3v2c0.9-1.5,2.6-2.2,4.5-2.2
				c3.2,0,5.7,2,5.7,6v8.3h-2.3V132.3z"/>
			<path class="st8" d="M798.9,131.3c0,5.5-3.6,8.9-9.5,8.9h-5.5v-17.8h5.5C795.3,122.4,798.9,125.8,798.9,131.3z M789.4,138.3
				c4.7,0,7.1-2.6,7.1-7c0-4.3-2.4-7.1-7.1-7.1h-3.2v14L789.4,138.3L789.4,138.3z"/>
			<path class="st8" d="M808,140.4c-4,0-6.9-2.8-6.9-7.3c0-4.4,2.8-7.2,6.9-7.2c4.1,0,6.7,2.9,6.7,6.7c0,0.5,0,0.9-0.1,1.4h-11.2
				c0.2,2.8,2.2,4.4,4.5,4.4c2.1,0,3.4-1.1,3.9-2.6h2.5C813.7,138.4,811.5,140.4,808,140.4z M803.5,132.2h8.8c0-2.7-2-4.2-4.4-4.2
				C805.6,127.9,803.7,129.4,803.5,132.2z"/>
			<path class="st8" d="M822.7,140.4c-3.3,0-5.6-1.8-5.7-4.3h2.4c0.1,1.4,1.3,2.4,3.3,2.4c1.8,0,2.9-0.9,2.9-2.1
				c0-3.1-8.3-1.3-8.3-6.5c0-2.1,2-3.9,5.1-3.9s5.1,1.7,5.3,4.4h-2.3c-0.1-1.4-1.2-2.4-3-2.4c-1.7,0-2.7,0.8-2.7,1.9
				c0,3.3,8.1,1.5,8.2,6.5C827.9,138.7,825.8,140.4,822.7,140.4z"/>
			<path class="st8" d="M830.7,122.3c0-0.9,0.7-1.6,1.6-1.6c0.8,0,1.5,0.7,1.5,1.6s-0.7,1.6-1.5,1.6
				C831.4,123.9,830.7,123.2,830.7,122.3z M831.1,126.2h2.3v14h-2.3V126.2z"/>
			<path class="st8" d="M843.2,125.9c2.6,0,4.4,1.3,5.2,2.8v-2.6h2.4v14.3c0,3.9-2.6,6.6-6.7,6.6c-3.7,0-6.3-1.9-6.8-4.9h2.3
				c0.5,1.7,2.2,2.8,4.5,2.8c2.5,0,4.3-1.6,4.3-4.6v-2.9c-0.8,1.5-2.7,2.9-5.2,2.9c-3.8,0-6.6-2.9-6.6-7.3
				C836.5,128.8,839.4,125.9,843.2,125.9z M843.7,128c-2.6,0-4.7,1.9-4.7,5.2s2.2,5.2,4.7,5.2s4.8-1.9,4.8-5.2
				C848.4,129.9,846.2,128,843.7,128z"/>
			<path class="st8" d="M864.9,132.3c0-2.9-1.6-4.3-3.9-4.3c-2.4,0-4,1.5-4,4.5v7.7h-2.3v-14h2.3v2c0.9-1.5,2.6-2.2,4.5-2.2
				c3.2,0,5.7,2,5.7,6v8.3h-2.3V132.3z"/>
			<path class="st8" d="M870.9,137h2.6l-2.9,6.9H869L870.9,137z"/>
			<path class="st8" d="M470.7,166.9h-7.8l-1.4,4H459l6.4-17.7h2.7l6.4,17.7H472L470.7,166.9z M466.8,156l-3.2,9h6.4L466.8,156z"/>
			<path class="st8" d="M477.8,158.8H476v-1.9h1.8v-1c0-3.1,1.5-4.5,5.1-4.5v1.9c-2.1,0-2.8,0.8-2.8,2.6v1h2.9v1.9h-2.9v12.1h-2.3
				L477.8,158.8L477.8,158.8z"/>
			<path class="st8" d="M486.3,158.8h-1.8v-1.9h1.8v-3.5h2.3v3.5h3.7v1.9h-3.7v8.3c0,1.4,0.5,1.9,1.9,1.9h1.7v2h-2.1
				c-2.5,0-3.9-1-3.9-3.8v-8.4H486.3z"/>
			<path class="st8" d="M501.2,171.1c-4,0-6.9-2.8-6.9-7.3c0-4.4,2.8-7.2,6.9-7.2s6.7,2.9,6.7,6.7c0,0.5,0,0.9-0.1,1.4h-11.2
				c0.2,2.8,2.2,4.4,4.5,4.4c2.1,0,3.4-1.1,3.9-2.6h2.5C506.9,169.1,504.7,171.1,501.2,171.1z M496.7,162.8h8.8c0-2.7-2-4.2-4.4-4.2
				C498.8,158.6,496.9,160.1,496.7,162.8z"/>
			<path class="st8" d="M513.3,170.9H511v-14h2.3v2.3c0.8-1.6,2.3-2.5,4.5-2.5v2.4h-0.6c-2.2,0-3.9,1-3.9,4.2V170.9z"/>
			<path class="st8" d="M536.9,154.9h-7.3v6h6.5v1.9h-6.5v6.1h7.3v1.9h-9.6V153h9.6V154.9z"/>
			<path class="st8" d="M540.9,158.8h-1.8v-1.9h1.8v-1c0-3.1,1.5-4.5,5.1-4.5v1.9c-2.1,0-2.8,0.8-2.8,2.6v1h2.9v1.9h-2.9v12.1h-2.3
				V158.8z"/>
			<path class="st8" d="M549.3,158.8h-1.8v-1.9h1.8v-1c0-3.1,1.5-4.5,5.1-4.5v1.9c-2.1,0-2.8,0.8-2.8,2.6v1h2.9v1.9h-2.9v12.1h-2.3
				V158.8z"/>
			<path class="st8" d="M563.3,171.1c-4,0-6.9-2.8-6.9-7.3c0-4.4,2.8-7.2,6.9-7.2c4.1,0,6.7,2.9,6.7,6.7c0,0.5,0,0.9-0.1,1.4h-11.2
				c0.2,2.8,2.2,4.4,4.5,4.4c2.1,0,3.4-1.1,3.9-2.6h2.5C569,169.1,566.8,171.1,563.3,171.1z M558.8,162.8h8.8c0-2.7-2-4.2-4.4-4.2
				C560.9,158.6,559,160.1,558.8,162.8z"/>
			<path class="st8" d="M579.1,156.6c3.5,0,5.8,1.8,6.5,4.7H583c-0.5-1.7-1.9-2.8-4-2.8c-2.6,0-4.4,1.8-4.4,5.2
				c0,3.5,1.9,5.3,4.4,5.3c2.1,0,3.5-1,4-2.8h2.5c-0.7,2.8-3,4.7-6.5,4.7c-4,0-6.8-2.8-6.8-7.3C572.2,159.4,575.1,156.6,579.1,156.6
				z"/>
			<path class="st8" d="M589.1,158.8h-1.8v-1.9h1.8v-3.5h2.3v3.5h3.7v1.9h-3.7v8.3c0,1.4,0.5,1.9,1.9,1.9h1.7v2h-2
				c-2.5,0-3.9-1-3.9-3.8V158.8z"/>
			<path class="st8" d="M602.9,171.1c-3.3,0-5.6-1.8-5.7-4.3h2.4c0.1,1.4,1.3,2.4,3.3,2.4c1.8,0,2.9-0.9,2.9-2.1
				c0-3.1-8.3-1.3-8.3-6.5c0-2.1,2-3.9,5.1-3.9s5.1,1.7,5.3,4.4h-2.3c-0.1-1.4-1.2-2.4-3-2.4c-1.7,0-2.7,0.8-2.7,1.9
				c0,3.3,8.1,1.5,8.2,6.5C608,169.3,606,171.1,602.9,171.1z"/>
			<path class="st8" d="M626.5,156.8c0.1-1.5-0.9-2.2-2.2-2.2c-1.4,0-2.3,0.9-2.3,2c0,1,0.6,1.9,1.8,3.2l5.3,5.3
				c0.2-0.2,0.3-0.5,0.5-0.7l1.7-2.9h2.5l-2.1,3.6c-0.3,0.6-0.7,1.1-1,1.6l4,4h-3l-2.3-2.4c-1.7,1.8-3.6,2.7-6.1,2.7
				c-3.7,0-6.2-2.1-6.2-5.4c0-2.5,1.4-4.4,4.2-5.5c-1.1-1.3-1.5-2.3-1.5-3.6c0-2.3,1.8-4,4.7-4c2.8,0,4.5,1.8,4.4,4.2L626.5,156.8
				L626.5,156.8z M627.9,167l-5.2-5.3c-2.2,0.8-3.3,2.2-3.3,4c0,2,1.6,3.5,3.9,3.5C625.1,169.2,626.6,168.4,627.9,167z"/>
			<path class="st8" d="M649.5,163.4h-3.4v7.4h-2.3V153h5.8c4.2,0,6.2,2.3,6.2,5.2C655.7,161,654,163.4,649.5,163.4z M649.5,161.5
				c2.7,0,3.8-1.3,3.8-3.2c0-2.1-1.1-3.3-3.8-3.3h-3.4v6.5H649.5z"/>
			<path class="st8" d="M660.9,170.9h-2.3v-14h2.3v2.3c0.8-1.6,2.3-2.5,4.5-2.5v2.4h-0.6c-2.2,0-3.9,1-3.9,4.2V170.9z"/>
			<path class="st8" d="M674.2,171.1c-4,0-6.9-2.8-6.9-7.3c0-4.4,2.8-7.2,6.9-7.2c4.1,0,6.7,2.9,6.7,6.7c0,0.5,0,0.9-0.1,1.4h-11.2
				c0.2,2.8,2.2,4.4,4.5,4.4c2.1,0,3.4-1.1,3.9-2.6h2.5C679.9,169.1,677.7,171.1,674.2,171.1z M669.7,162.8h8.8c0-2.7-2-4.2-4.4-4.2
				C671.8,158.6,669.9,160.1,669.7,162.8z"/>
			<path class="st8" d="M704.2,162.9c0-2.9-1.5-4.3-3.8-4.3c-2.4,0-4,1.5-4,4.5v7.7h-2.3v-7.9c0-2.9-1.5-4.3-3.8-4.3
				c-2.4,0-4,1.5-4,4.5v7.7H684v-14h2.3v2c0.9-1.5,2.6-2.3,4.4-2.3c2.3,0,4.2,1,5.1,3.1c0.8-2,2.8-3.1,5-3.1c3.2,0,5.7,2,5.7,6v8.3
				h-2.3V162.9z"/>
			<path class="st8" d="M709.9,153c0-0.9,0.7-1.6,1.6-1.6c0.8,0,1.5,0.7,1.5,1.6s-0.7,1.6-1.5,1.6
				C710.6,154.6,709.9,153.9,709.9,153z M710.3,156.8h2.3v14h-2.3V156.8z"/>
			<path class="st8" d="M722.6,171.1c-4,0-6.9-2.8-6.9-7.3c0-4.4,2.8-7.2,6.9-7.2c4.1,0,6.7,2.9,6.7,6.7c0,0.5,0,0.9-0.1,1.4H718
				c0.2,2.8,2.2,4.4,4.5,4.4c2.1,0,3.4-1.1,3.9-2.6h2.5C728.4,169.1,726.1,171.1,722.6,171.1z M718.1,162.8h8.8c0-2.7-2-4.2-4.4-4.2
				C720.3,158.6,718.4,160.1,718.1,162.8z"/>
			<path class="st8" d="M734.8,170.9h-2.3v-14h2.3v2.3c0.8-1.6,2.3-2.5,4.5-2.5v2.4h-0.6c-2.2,0-3.9,1-3.9,4.2V170.9z"/>
			<path class="st8" d="M748,171.1c-4,0-6.9-2.8-6.9-7.3c0-4.4,2.8-7.2,6.9-7.2c4.1,0,6.7,2.9,6.7,6.7c0,0.5,0,0.9-0.1,1.4h-11.2
				c0.2,2.8,2.2,4.4,4.5,4.4c2.1,0,3.4-1.1,3.9-2.6h2.5C753.7,169.1,751.5,171.1,748,171.1z M743.5,162.8h8.8c0-2.7-2-4.2-4.4-4.2
				C745.6,158.6,743.7,160.1,743.5,162.8z"/>
			<path class="st8" d="M770.4,163.4H767v7.4h-2.3V153h5.8c4.2,0,6.2,2.3,6.2,5.2C776.5,161,774.8,163.4,770.4,163.4z M770.4,161.5
				c2.7,0,3.8-1.3,3.8-3.2c0-2.1-1.1-3.3-3.8-3.3H767v6.5H770.4z"/>
			<path class="st8" d="M781.8,170.9h-2.3v-14h2.3v2.3c0.8-1.6,2.3-2.5,4.5-2.5v2.4h-0.6c-2.2,0-3.9,1-3.9,4.2V170.9z"/>
			<path class="st8" d="M795.1,171.1c-4,0-7-2.8-7-7.3c0-4.4,3.1-7.2,7.1-7.2s7.1,2.8,7.1,7.2C802.3,168.3,799.1,171.1,795.1,171.1z
				 M795.1,169c2.4,0,4.8-1.7,4.8-5.2s-2.3-5.2-4.7-5.2c-2.5,0-4.7,1.7-4.7,5.2C790.5,167.4,792.6,169,795.1,169z"/>
		</g>
		<g>
			<path class="st8" d="M459.7,305.2h10.2v2h-10.2V305.2z"/>
			<path class="st8" d="M492.5,307.5h-9.1v8.1h-2.3v-17.8h2.3v7.8h9.1v-7.8h2.3v17.8h-2.3V307.5z"/>
			<path class="st8" d="M497.7,297.8h12.1v1.9h-4.9v15.9h-2.3v-15.9h-4.9L497.7,297.8L497.7,297.8z"/>
			<path class="st8" d="M512.6,297.9h2.5l6.5,14.6l6.5-14.6h2.5v17.7h-2.3v-13.2l-5.9,13.2h-1.6l-5.9-13.2v13.2h-2.3V297.9z"/>
			<path class="st8" d="M536.9,297.8v15.9h6.2v1.9h-8.6v-17.8H536.9z"/>
			<path class="st8" d="M545.5,312.4h2.6l-2.9,6.9h-1.6L545.5,312.4z"/>
			<path class="st8" d="M565.5,297.5c3.9,0,6.9,1.9,8.3,5.4H571c-1-2.1-2.9-3.3-5.5-3.3c-3.7,0-6.5,2.7-6.5,7.1
				c0,4.3,2.8,7.1,6.5,7.1c2.6,0,4.5-1.2,5.5-3.3h2.8c-1.3,3.4-4.4,5.3-8.3,5.3c-5,0-8.9-3.7-8.9-9.1S560.6,297.5,565.5,297.5z"/>
			<path class="st8" d="M582.9,315.8c-3.6,0-6.1-2-6.2-4.9h2.5c0.2,1.5,1.2,3,3.7,3c2.2,0,3.6-1.3,3.6-3c0-4.8-9.6-1.7-9.6-8.4
				c0-2.9,2.4-4.9,5.9-4.9c3.4,0,5.6,1.9,5.9,4.6h-2.6c-0.2-1.2-1.3-2.6-3.5-2.6c-1.9-0.1-3.4,0.9-3.4,2.9c0,4.6,9.6,1.7,9.6,8.3
				C588.8,313.3,586.8,315.8,582.9,315.8z"/>
			<path class="st8" d="M597.9,315.8c-3.6,0-6.1-2-6.2-4.9h2.5c0.2,1.5,1.2,3,3.7,3c2.2,0,3.6-1.3,3.6-3c0-4.8-9.6-1.7-9.6-8.4
				c0-2.9,2.4-4.9,5.9-4.9c3.4,0,5.6,1.9,5.9,4.6h-2.6c-0.2-1.2-1.3-2.6-3.5-2.6c-1.9-0.1-3.4,0.9-3.4,2.9c0,4.6,9.6,1.7,9.6,8.3
				C603.8,313.3,601.8,315.8,597.9,315.8z"/>
			<path class="st8" d="M607.1,312.4h2.6l-2.9,6.9h-1.6L607.1,312.4z"/>
			<path class="st8" d="M621.5,301.6v17c0,2.5-1.3,3.6-3.7,3.6h-1.4v-2h1c1.3,0,1.8-0.5,1.8-1.7v-17h2.3V301.6z M618.8,297.7
				c0-0.9,0.7-1.6,1.6-1.6c0.9,0,1.6,0.7,1.6,1.6s-0.7,1.6-1.6,1.6C619.5,299.3,618.8,298.6,618.8,297.7z"/>
			<path class="st8" d="M638.3,314.5l4.5,4.5h-3l-3.6-3.6c-0.8,0.2-1.7,0.4-2.7,0.4c-5,0-8.9-3.8-8.9-9.1s3.9-9.1,8.9-9.1
				s8.9,3.8,8.9,9.1C642.5,310.1,640.8,313,638.3,314.5z M633.5,313.7c3.8,0,6.6-2.7,6.6-7.1s-2.8-7.1-6.6-7.1s-6.6,2.7-6.6,7.1
				C627,311,629.8,313.7,633.5,313.7z"/>
			<path class="st8" d="M658,315.6h-2.3v-2.1c-0.9,1.5-2.6,2.3-4.5,2.3c-3.2,0-5.8-2-5.8-6v-8.2h2.3v7.9c0,2.8,1.6,4.3,3.9,4.3
				c2.4,0,4-1.5,4-4.5v-7.7h2.3L658,315.6L658,315.6z"/>
			<path class="st8" d="M668,315.8c-4,0-6.9-2.8-6.9-7.3c0-4.4,2.8-7.2,6.9-7.2c4.1,0,6.7,2.9,6.7,6.7c0,0.5,0,0.9-0.1,1.4h-11.2
				c0.2,2.8,2.2,4.4,4.5,4.4c2.1,0,3.4-1.1,3.9-2.6h2.5C673.7,313.8,671.5,315.8,668,315.8z M663.5,307.6h8.8c0-2.7-2-4.2-4.4-4.2
				C665.6,303.3,663.8,304.8,663.5,307.6z"/>
			<path class="st8" d="M680.1,315.6h-2.3v-14h2.3v2.3c0.8-1.6,2.3-2.5,4.5-2.5v2.4H684c-2.2,0-3.9,1-3.9,4.2V315.6z"/>
			<path class="st8" d="M697,301.6h2.4l-8.4,20.6h-2.4l2.8-6.7l-5.6-13.9h2.6l4.4,11.3L697,301.6z"/>
			<path class="st8" d="M717,301.6c0.1-1.5-0.9-2.2-2.2-2.2c-1.4,0-2.3,0.9-2.3,2c0,1,0.6,1.9,1.8,3.2l5.3,5.3
				c0.2-0.2,0.3-0.5,0.5-0.7l1.7-2.9h2.5l-2.1,3.6c-0.3,0.6-0.7,1.1-1,1.6l4,4h-3l-2.3-2.4c-1.7,1.8-3.6,2.7-6.1,2.7
				c-3.7,0-6.2-2.1-6.2-5.4c0-2.5,1.4-4.4,4.2-5.5c-1.1-1.3-1.5-2.3-1.5-3.6c0-2.3,1.8-4,4.7-4c2.8,0,4.5,1.8,4.4,4.2L717,301.6
				L717,301.6z M718.4,311.7l-5.2-5.3c-2.2,0.8-3.3,2.2-3.3,4c0,2,1.6,3.5,3.9,3.5C715.6,313.9,717,313.2,718.4,311.7z"/>
			<path class="st8" d="M740.9,297.8h2.4V311c0,3-2,4.8-4.9,4.8c-3,0-5-1.9-5-5h2.3c0,1.6,0.8,2.9,2.6,2.9s2.6-1.3,2.6-2.8
				L740.9,297.8L740.9,297.8z"/>
			<path class="st8" d="M753.6,301.3c2.6,0,4.4,1.3,5.2,2.8v-2.6h2.4v14h-2.4V313c-0.8,1.5-2.7,2.8-5.2,2.8c-3.7,0-6.6-2.9-6.6-7.3
				C746.9,304.2,749.8,301.3,753.6,301.3z M754,303.4c-2.6,0-4.7,1.9-4.7,5.2c0,3.3,2.2,5.2,4.7,5.2s4.8-1.9,4.8-5.2
				S756.6,303.4,754,303.4z"/>
			<path class="st8" d="M765.9,301.6l4.4,11.9l4.3-11.9h2.5l-5.5,14h-2.7l-5.5-14H765.9z"/>
			<path class="st8" d="M785.2,301.3c2.6,0,4.4,1.3,5.2,2.8v-2.6h2.4v14h-2.4V313c-0.8,1.5-2.7,2.8-5.2,2.8c-3.7,0-6.6-2.9-6.6-7.3
				C778.6,304.2,781.4,301.3,785.2,301.3z M785.7,303.4c-2.6,0-4.7,1.9-4.7,5.2c0,3.3,2.2,5.2,4.7,5.2s4.8-1.9,4.8-5.2
				C790.4,305.3,788.2,303.4,785.7,303.4z"/>
			<path class="st8" d="M802.4,315.8c-3.6,0-6.1-2-6.2-4.9h2.5c0.2,1.5,1.2,3,3.7,3c2.2,0,3.6-1.3,3.6-3c0-4.8-9.6-1.7-9.6-8.4
				c0-2.9,2.4-4.9,5.9-4.9c3.4,0,5.6,1.9,5.9,4.6h-2.6c-0.2-1.2-1.3-2.6-3.5-2.6c-1.9-0.1-3.4,0.9-3.4,2.9c0,4.6,9.6,1.7,9.6,8.3
				C808.3,313.3,806.2,315.8,802.4,315.8z"/>
			<path class="st8" d="M817.7,301.3c3.5,0,5.8,1.8,6.5,4.7h-2.5c-0.5-1.7-1.9-2.8-4-2.8c-2.6,0-4.4,1.8-4.4,5.2
				c0,3.5,1.9,5.3,4.4,5.3c2.1,0,3.5-1,4-2.8h2.5c-0.7,2.8-3,4.7-6.5,4.7c-4,0-6.8-2.8-6.8-7.3C810.8,304.2,813.7,301.3,817.7,301.3
				z"/>
			<path class="st8" d="M829.5,315.6h-2.3v-14h2.3v2.3c0.8-1.6,2.3-2.5,4.5-2.5v2.4h-0.6c-2.2,0-3.9,1-3.9,4.2V315.6z"/>
			<path class="st8" d="M836.4,297.7c0-0.9,0.7-1.6,1.6-1.6c0.8,0,1.5,0.7,1.5,1.6s-0.7,1.6-1.5,1.6
				C837.1,299.3,836.4,298.6,836.4,297.7z M836.8,301.6h2.3v14h-2.3V301.6z"/>
			<path class="st8" d="M850.6,301.3c3.8,0,6.6,2.8,6.6,7.2c0,4.3-2.9,7.3-6.6,7.3c-2.6,0-4.4-1.4-5.2-2.8v9.2H843v-20.7h2.3v2.6
				C846.2,302.7,848,301.3,850.6,301.3z M850.1,303.4c-2.5,0-4.8,1.9-4.8,5.2c0,3.3,2.2,5.2,4.8,5.2s4.8-1.9,4.8-5.2
				C854.9,305.2,852.7,303.4,850.1,303.4z"/>
			<path class="st8" d="M860.8,303.5H859v-1.9h1.8V298h2.3v3.5h3.7v1.9h-3.7v8.3c0,1.4,0.5,1.9,1.9,1.9h1.7v2h-2.1
				c-2.5,0-3.9-1-3.9-3.8L860.8,303.5L860.8,303.5z"/>
		</g>
		<g>
			<path class="st8" d="M459.7,357.1h10.2v2h-10.2V357.1z"/>
			<path class="st8" d="M491.6,363.5h-7.8l-1.4,4H480l6.4-17.7h2.7l6.4,17.7H493L491.6,363.5z M487.7,352.6l-3.2,9h6.4L487.7,352.6z
				"/>
			<path class="st8" d="M510.7,367.5h-2.3v-2.1c-0.9,1.5-2.6,2.3-4.5,2.3c-3.2,0-5.8-2-5.8-6v-8.2h2.3v7.9c0,2.8,1.6,4.3,3.9,4.3
				c2.4,0,4-1.5,4-4.5v-7.7h2.3v14H510.7z"/>
			<path class="st8" d="M515.2,355.4h-1.8v-1.9h1.8V350h2.3v3.5h3.7v1.9h-3.7v8.3c0,1.4,0.5,1.9,1.9,1.9h1.7v2H519
				c-2.5,0-3.9-1-3.9-3.8L515.2,355.4L515.2,355.4z"/>
			<path class="st8" d="M530.1,367.7c-4,0-7-2.8-7-7.3c0-4.4,3.1-7.2,7.1-7.2s7.1,2.8,7.1,7.2C537.3,364.9,534.1,367.7,530.1,367.7z
				 M530.1,365.7c2.4,0,4.8-1.7,4.8-5.2s-2.3-5.2-4.7-5.2c-2.5,0-4.7,1.7-4.7,5.2C525.5,364,527.7,365.7,530.1,365.7z"/>
			<path class="st8" d="M546.1,353.2c2.2,0,4.2,1.1,5.2,2.7v-7.4h2.4v18.9h-2.4v-2.6c-0.8,1.6-2.7,2.9-5.2,2.9
				c-3.8,0-6.6-2.9-6.6-7.3C539.5,356.1,542.4,353.2,546.1,353.2z M546.6,355.3c-2.6,0-4.7,1.9-4.7,5.2c0,3.3,2.2,5.2,4.7,5.2
				s4.8-1.9,4.8-5.2C551.3,357.2,549.1,355.3,546.6,355.3z"/>
			<path class="st8" d="M563.7,367.7c-4,0-6.9-2.8-6.9-7.3c0-4.4,2.8-7.2,6.9-7.2c4.1,0,6.7,2.9,6.7,6.7c0,0.5,0,0.9-0.1,1.4h-11.2
				c0.2,2.8,2.2,4.4,4.5,4.4c2.1,0,3.4-1.1,3.9-2.6h2.5C569.4,365.7,567.1,367.7,563.7,367.7z M559.1,359.5h8.8c0-2.7-2-4.2-4.4-4.2
				C561.3,355.2,559.4,356.7,559.1,359.5z"/>
			<path class="st8" d="M578.4,367.7c-3.3,0-5.6-1.8-5.7-4.3h2.4c0.1,1.4,1.3,2.4,3.3,2.4c1.8,0,2.9-0.9,2.9-2.1
				c0-3.1-8.3-1.3-8.3-6.5c0-2.1,2-3.9,5.1-3.9s5.1,1.7,5.3,4.4h-2.3c-0.1-1.4-1.2-2.4-3-2.4c-1.7,0-2.7,0.8-2.7,1.9
				c0,3.3,8.1,1.5,8.2,6.5C583.5,366,581.5,367.7,578.4,367.7z"/>
			<path class="st8" d="M586.8,348.6h2.3v11.1l5.4-6.2h3.2l-6.6,7l6.6,7h-3.2l-5.5-6.2v6.2h-2.3L586.8,348.6L586.8,348.6z"/>
			<path class="st8" d="M606.8,349.8h2.5l6.5,14.6l6.5-14.6h2.5v17.7h-2.3v-13.2l-5.9,13.2H615l-5.9-13.2v13.2h-2.3V349.8z"/>
			<path class="st8" d="M634.6,353.2c2.6,0,4.4,1.3,5.2,2.8v-2.6h2.4v14h-2.4v-2.6c-0.8,1.5-2.7,2.8-5.2,2.8c-3.7,0-6.6-2.9-6.6-7.3
				C627.9,356.1,630.8,353.2,634.6,353.2z M635,355.3c-2.6,0-4.7,1.9-4.7,5.2c0,3.3,2.2,5.2,4.7,5.2s4.8-1.9,4.8-5.2
				C639.8,357.2,637.6,355.3,635,355.3z"/>
			<path class="st8" d="M655.7,353.5h2.4l-8.4,20.6h-2.4l2.8-6.7l-5.6-13.9h2.6l4.4,11.3L655.7,353.5z"/>
			<path class="st8" d="M666.2,353.2c2.6,0,4.4,1.3,5.2,2.8v-2.6h2.4v14h-2.4v-2.6c-0.8,1.5-2.7,2.8-5.2,2.8c-3.7,0-6.6-2.9-6.6-7.3
				C659.6,356.1,662.5,353.2,666.2,353.2z M666.7,355.3c-2.6,0-4.7,1.9-4.7,5.2c0,3.3,2.2,5.2,4.7,5.2s4.8-1.9,4.8-5.2
				C671.4,357.2,669.3,355.3,666.7,355.3z"/>
		</g>
		<g>
			<path class="st8" d="M459.7,477.9h10.2v2h-10.2V477.9z"/>
			<path class="st8" d="M481.1,470.6h2.5l6.5,14.6l6.5-14.6h2.5v17.7h-2.3v-13.2l-5.9,13.2h-1.6l-5.9-13.2v13.2h-2.3L481.1,470.6
				L481.1,470.6z"/>
			<path class="st8" d="M502.7,470.4c0-0.9,0.7-1.6,1.6-1.6c0.8,0,1.5,0.7,1.5,1.6s-0.7,1.6-1.5,1.6
				C503.4,472,502.7,471.3,502.7,470.4z M503.1,474.3h2.3v14h-2.3V474.3z"/>
			<path class="st8" d="M515.3,474c3.5,0,5.8,1.8,6.5,4.7h-2.5c-0.5-1.7-1.9-2.8-4-2.8c-2.6,0-4.4,1.8-4.4,5.2
				c0,3.5,1.9,5.3,4.4,5.3c2.1,0,3.5-1,4-2.8h2.5c-0.7,2.8-3,4.7-6.5,4.7c-4,0-6.8-2.8-6.8-7.3C508.5,476.8,511.4,474,515.3,474z"/>
			<path class="st8" d="M527.2,488.3h-2.3v-14h2.3v2.3c0.8-1.6,2.3-2.5,4.5-2.5v2.4h-0.6c-2.2,0-3.9,1-3.9,4.2V488.3z"/>
			<path class="st8" d="M540.5,488.5c-4,0-7-2.8-7-7.3c0-4.4,3.1-7.2,7.1-7.2s7.1,2.8,7.1,7.2C547.7,485.7,544.5,488.5,540.5,488.5z
				 M540.5,486.4c2.4,0,4.8-1.7,4.8-5.2s-2.3-5.2-4.7-5.2c-2.5,0-4.7,1.7-4.7,5.2C535.9,484.8,538.1,486.4,540.5,486.4z"/>
			<path class="st8" d="M555.7,488.5c-3.3,0-5.6-1.8-5.7-4.3h2.4c0.1,1.4,1.3,2.4,3.3,2.4c1.8,0,2.9-0.9,2.9-2.1
				c0-3.1-8.3-1.3-8.3-6.5c0-2.1,2-3.9,5.1-3.9s5.1,1.7,5.3,4.4h-2.3c-0.1-1.4-1.2-2.4-3-2.4c-1.7,0-2.7,0.8-2.7,1.9
				c0,3.3,8.1,1.5,8.2,6.5C560.9,486.8,558.8,488.5,555.7,488.5z"/>
			<path class="st8" d="M570.2,488.5c-4,0-7-2.8-7-7.3c0-4.4,3.1-7.2,7.1-7.2s7.1,2.8,7.1,7.2C577.4,485.7,574.2,488.5,570.2,488.5z
				 M570.2,486.4c2.4,0,4.8-1.7,4.8-5.2s-2.3-5.2-4.7-5.2c-2.5,0-4.7,1.7-4.7,5.2C565.6,484.8,567.8,486.4,570.2,486.4z"/>
			<path class="st8" d="M580.9,476.2h-1.8v-1.9h1.8v-1c0-3.1,1.5-4.5,5.1-4.5v1.9c-2.1,0-2.8,0.8-2.8,2.6v1h2.9v1.9h-2.9v12.1h-2.3
				V476.2z"/>
			<path class="st8" d="M589.4,476.2h-1.8v-1.9h1.8v-3.5h2.3v3.5h3.7v1.9h-3.7v8.3c0,1.4,0.5,1.9,1.9,1.9h1.7v2h-2.1
				c-2.5,0-3.9-1-3.9-3.8L589.4,476.2L589.4,476.2z"/>
			<path class="st8" d="M613.1,488.4c-5,0-8.9-3.8-8.9-9.1s3.9-9.1,8.9-9.1s8.9,3.8,8.9,9.1S618.1,488.4,613.1,488.4z M613.1,486.4
				c3.8,0,6.6-2.7,6.6-7.1s-2.8-7.1-6.6-7.1s-6.6,2.7-6.6,7.1C606.5,483.7,609.3,486.4,613.1,486.4z"/>
			<path class="st8" d="M625.5,476.2h-1.8v-1.9h1.8v-1c0-3.1,1.5-4.5,5.1-4.5v1.9c-2.1,0-2.8,0.8-2.8,2.6v1h2.9v1.9h-2.9v12.1h-2.3
				V476.2z"/>
			<path class="st8" d="M634,476.2h-1.8v-1.9h1.8v-1c0-3.1,1.5-4.5,5.1-4.5v1.9c-2.1,0-2.8,0.8-2.8,2.6v1h2.9v1.9h-2.9v12.1H634
				V476.2z"/>
			<path class="st8" d="M641.5,470.4c0-0.9,0.7-1.6,1.6-1.6c0.8,0,1.5,0.7,1.5,1.6s-0.7,1.6-1.5,1.6
				C642.2,472,641.5,471.3,641.5,470.4z M641.9,474.3h2.3v14h-2.3V474.3z"/>
			<path class="st8" d="M654.2,474c3.5,0,5.8,1.8,6.5,4.7h-2.5c-0.5-1.7-1.9-2.8-4-2.8c-2.6,0-4.4,1.8-4.4,5.2
				c0,3.5,1.9,5.3,4.4,5.3c2.1,0,3.5-1,4-2.8h2.5c-0.7,2.8-3,4.7-6.5,4.7c-4,0-6.8-2.8-6.8-7.3C647.3,476.8,650.2,474,654.2,474z"/>
			<path class="st8" d="M669.8,488.5c-4,0-6.9-2.8-6.9-7.3c0-4.4,2.8-7.2,6.9-7.2c4.1,0,6.7,2.9,6.7,6.7c0,0.5,0,0.9-0.1,1.4h-11.2
				c0.2,2.8,2.2,4.4,4.5,4.4c2.1,0,3.4-1.1,3.9-2.6h2.5C675.5,486.5,673.3,488.5,669.8,488.5z M665.3,480.2h8.8c0-2.7-2-4.2-4.4-4.2
				C667.4,476,665.5,477.5,665.3,480.2z"/>
		</g>
		<g>
			<path class="st8" d="M459.7,418.5h10.2v2h-10.2V418.5z"/>
			<path class="st8" d="M481,411.1h2.3v11.3c0,3.3,1.8,4.7,4.4,4.7s4.4-1.4,4.4-4.7v-11.3h2.3v11.2c0,4.6-3,6.7-6.7,6.7
				s-6.7-2.1-6.7-6.7L481,411.1L481,411.1z"/>
			<path class="st8" d="M508.6,421c0-2.9-1.6-4.3-3.9-4.3c-2.4,0-4,1.5-4,4.5v7.7h-2.3v-14h2.3v2c0.9-1.5,2.6-2.2,4.5-2.2
				c3.2,0,5.7,2,5.7,6v8.3h-2.3L508.6,421L508.6,421z"/>
			<path class="st8" d="M514.3,411c0-0.9,0.7-1.6,1.6-1.6c0.8,0,1.5,0.7,1.5,1.6s-0.7,1.6-1.5,1.6C515,412.6,514.3,411.9,514.3,411z
				 M514.7,414.9h2.3v14h-2.3V414.9z"/>
			<path class="st8" d="M521.5,416.8h-1.8v-1.9h1.8v-3.5h2.3v3.5h3.7v1.9h-3.7v8.3c0,1.4,0.5,1.9,1.9,1.9h1.7v2h-2.1
				c-2.5,0-3.9-1-3.9-3.8L521.5,416.8L521.5,416.8z"/>
			<path class="st8" d="M540,414.9h2.4l-8.4,20.6h-2.4l2.8-6.7l-5.6-13.9h2.6l4.4,11.3L540,414.9z"/>
		</g>
	</g>
	<g>
		<g>
			<path class="st8" d="M53.4,129.8h10.2v2H53.4V129.8z"/>
			<path class="st8" d="M74.7,122.4H77v11.3c0,3.3,1.8,4.7,4.4,4.7s4.4-1.4,4.4-4.7v-11.3h2.3v11.2c0,4.6-3,6.7-6.7,6.7
				s-6.7-2.1-6.7-6.7L74.7,122.4L74.7,122.4z"/>
			<path class="st8" d="M97.9,133.2l-4.1,7h-2.6l5.4-8.9l-5.5-8.9h2.6l4.3,7l4.1-7h2.6l-5.5,8.9l5.5,8.9h-2.6L97.9,133.2z"/>
			<path class="st8" d="M123.1,126.2c0.1-1.5-0.9-2.2-2.2-2.2c-1.4,0-2.3,0.9-2.3,2c0,1,0.6,1.9,1.8,3.2l5.3,5.3
				c0.2-0.2,0.3-0.5,0.5-0.7l1.7-2.9h2.5l-2.1,3.6c-0.3,0.6-0.7,1.1-1,1.6l4,4h-3l-2.3-2.4c-1.7,1.8-3.6,2.7-6.1,2.7
				c-3.7,0-6.2-2.1-6.2-5.4c0-2.5,1.4-4.4,4.2-5.5c-1.1-1.3-1.5-2.3-1.5-3.6c0-2.3,1.8-4,4.7-4c2.8,0,4.5,1.8,4.4,4.2L123.1,126.2
				L123.1,126.2z M124.5,136.3l-5.2-5.3c-2.2,0.8-3.3,2.2-3.3,4c0,2,1.6,3.5,3.9,3.5C121.8,138.5,123.2,137.8,124.5,136.3z"/>
			<path class="st8" d="M140.4,122.4h2.3v11.3c0,3.3,1.8,4.7,4.4,4.7c2.6,0,4.4-1.4,4.4-4.7v-11.3h2.3v11.2c0,4.6-3,6.7-6.7,6.7
				s-6.7-2.1-6.7-6.7V122.4z"/>
			<path class="st8" d="M157.7,122.4h2.3v17.8h-2.3V122.4z"/>
			<path class="st8" d="M185.8,131.3c0,5.5-3.6,8.9-9.5,8.9h-5.5v-17.8h5.5C182.2,122.4,185.8,125.8,185.8,131.3z M176.3,138.3
				c4.7,0,7.1-2.6,7.1-7c0-4.3-2.4-7.1-7.1-7.1h-3.2v14L176.3,138.3L176.3,138.3z"/>
			<path class="st8" d="M194.9,140.4c-4,0-6.9-2.8-6.9-7.3c0-4.4,2.8-7.2,6.9-7.2c4.1,0,6.7,2.9,6.7,6.7c0,0.5,0,0.9-0.1,1.4h-11.2
				c0.2,2.8,2.2,4.4,4.5,4.4c2.1,0,3.4-1.1,3.9-2.6h2.5C200.6,138.4,198.4,140.4,194.9,140.4z M190.4,132.2h8.8c0-2.7-2-4.2-4.4-4.2
				C192.5,127.9,190.7,129.4,190.4,132.2z"/>
			<path class="st8" d="M209.7,140.4c-3.3,0-5.6-1.8-5.7-4.3h2.4c0.1,1.4,1.3,2.4,3.3,2.4c1.8,0,2.9-0.9,2.9-2.1
				c0-3.1-8.3-1.3-8.3-6.5c0-2.1,2-3.9,5.1-3.9s5.1,1.7,5.3,4.4h-2.3c-0.1-1.4-1.2-2.4-3-2.4c-1.7,0-2.7,0.8-2.7,1.9
				c0,3.3,8.1,1.5,8.2,6.5C214.8,138.7,212.8,140.4,209.7,140.4z"/>
			<path class="st8" d="M217.7,122.3c0-0.9,0.7-1.6,1.6-1.6c0.8,0,1.5,0.7,1.5,1.6s-0.7,1.6-1.5,1.6
				C218.4,123.9,217.7,123.2,217.7,122.3z M218,126.2h2.3v14H218V126.2z"/>
			<path class="st8" d="M230.1,125.9c2.6,0,4.4,1.3,5.2,2.8v-2.6h2.4v14.3c0,3.9-2.6,6.6-6.7,6.6c-3.7,0-6.3-1.9-6.8-4.9h2.3
				c0.5,1.7,2.2,2.8,4.5,2.8c2.5,0,4.3-1.6,4.3-4.6v-2.9c-0.8,1.5-2.7,2.9-5.2,2.9c-3.8,0-6.6-2.9-6.6-7.3
				C223.5,128.8,226.4,125.9,230.1,125.9z M230.6,128c-2.6,0-4.7,1.9-4.7,5.2s2.2,5.2,4.7,5.2c2.6,0,4.8-1.9,4.8-5.2
				C235.3,129.9,233.1,128,230.6,128z"/>
			<path class="st8" d="M251.9,132.3c0-2.9-1.6-4.3-3.9-4.3c-2.4,0-4,1.5-4,4.5v7.7h-2.3v-14h2.3v2c0.9-1.5,2.6-2.2,4.5-2.2
				c3.2,0,5.7,2,5.7,6v8.3h-2.3V132.3z"/>
		</g>
		<g>
			<path class="st8" d="M53.4,269.6h10.2v2H53.4V269.6z"/>
			<path class="st8" d="M73.4,262.1h2.5l3.9,15.1l4.3-15.1h2.6l4.1,15.1l3.9-15.1h2.5L92,280h-2.6l-4.1-14.3L81,280h-2.6L73.4,262.1
				z"/>
			<path class="st8" d="M105.8,280.2c-4,0-6.9-2.8-6.9-7.3c0-4.4,2.8-7.2,6.9-7.2s6.7,2.9,6.7,6.7c0,0.5,0,0.9-0.1,1.4h-11.2
				c0.2,2.8,2.2,4.4,4.5,4.4c2.1,0,3.4-1.1,3.9-2.6h2.5C111.5,278.2,109.3,280.2,105.8,280.2z M101.3,271.9h8.8c0-2.7-2-4.2-4.4-4.2
				C103.4,267.7,101.5,269.2,101.3,271.9z"/>
			<path class="st8" d="M123.1,265.7c3.8,0,6.6,2.8,6.6,7.2c0,4.3-2.9,7.3-6.6,7.3c-2.6,0-4.4-1.3-5.2-2.8v2.6h-2.3v-19h2.3v7.5
				C118.8,267,120.7,265.7,123.1,265.7z M122.6,267.7c-2.5,0-4.8,1.9-4.8,5.2c0,3.3,2.2,5.2,4.8,5.2c2.6,0,4.8-1.9,4.8-5.2
				S125.2,267.7,122.6,267.7z"/>
			<path class="st8" d="M148.1,265.9c0.1-1.5-0.9-2.2-2.2-2.2c-1.4,0-2.3,0.9-2.3,2c0,1,0.6,1.9,1.8,3.2l5.3,5.3
				c0.2-0.2,0.3-0.5,0.5-0.7l1.7-2.9h2.5l-2.1,3.6c-0.3,0.6-0.7,1.1-1,1.6l4,4h-3l-2.3-2.4c-1.7,1.8-3.6,2.7-6.1,2.7
				c-3.7,0-6.2-2.1-6.2-5.4c0-2.5,1.4-4.4,4.2-5.5c-1.1-1.3-1.5-2.3-1.5-3.6c0-2.3,1.8-4,4.7-4c2.8,0,4.5,1.8,4.4,4.2L148.1,265.9
				L148.1,265.9z M149.5,276.1l-5.2-5.3c-2.2,0.8-3.3,2.2-3.3,4c0,2,1.6,3.5,3.9,3.5C146.7,278.3,148.2,277.6,149.5,276.1z"/>
			<path class="st8" d="M175.9,276h-7.8l-1.4,4h-2.5l6.4-17.7h2.7l6.4,17.7h-2.5L175.9,276z M172,265.1l-3.2,9h6.4L172,265.1z"/>
			<path class="st8" d="M190.2,265.7c3.8,0,6.6,2.8,6.6,7.2c0,4.3-2.9,7.3-6.6,7.3c-2.6,0-4.4-1.4-5.2-2.8v9.2h-2.3v-20.7h2.3v2.6
				C185.8,267,187.6,265.7,190.2,265.7z M189.7,267.7c-2.5,0-4.8,1.9-4.8,5.2c0,3.3,2.2,5.2,4.8,5.2s4.8-1.9,4.8-5.2
				C194.4,269.6,192.3,267.7,189.7,267.7z"/>
			<path class="st8" d="M207.4,265.7c3.8,0,6.6,2.8,6.6,7.2c0,4.3-2.9,7.3-6.6,7.3c-2.6,0-4.4-1.4-5.2-2.8v9.2h-2.3v-20.7h2.3v2.6
				C203,267,204.9,265.7,207.4,265.7z M207,267.7c-2.5,0-4.8,1.9-4.8,5.2c0,3.3,2.2,5.2,4.8,5.2s4.8-1.9,4.8-5.2
				C211.7,269.6,209.5,267.7,207,267.7z"/>
			<path class="st8" d="M239,271.1c0,5.5-3.6,8.9-9.5,8.9H224v-17.8h5.5C235.4,262.1,239,265.6,239,271.1z M229.5,278
				c4.7,0,7.1-2.6,7.1-7c0-4.3-2.4-7.1-7.1-7.1h-3.2v14h3.2V278z"/>
			<path class="st8" d="M248.1,280.2c-4,0-6.9-2.8-6.9-7.3c0-4.4,2.8-7.2,6.9-7.2c4.1,0,6.7,2.9,6.7,6.7c0,0.5,0,0.9-0.1,1.4h-11.2
				c0.2,2.8,2.2,4.4,4.5,4.4c2.1,0,3.4-1.1,3.9-2.6h2.5C253.8,278.2,251.6,280.2,248.1,280.2z M243.6,271.9h8.8c0-2.7-2-4.2-4.4-4.2
				C245.7,267.7,243.8,269.2,243.6,271.9z"/>
			<path class="st8" d="M262.9,280.2c-3.3,0-5.6-1.8-5.7-4.3h2.4c0.1,1.4,1.3,2.4,3.3,2.4c1.8,0,2.9-0.9,2.9-2.1
				c0-3.1-8.3-1.3-8.3-6.5c0-2.1,2-3.9,5.1-3.9s5.1,1.7,5.3,4.4h-2.3c-0.1-1.4-1.2-2.4-3-2.4c-1.7,0-2.7,0.8-2.7,1.9
				c0,3.3,8.1,1.5,8.2,6.5C268,278.4,265.9,280.2,262.9,280.2z"/>
			<path class="st8" d="M270.9,262.1c0-0.9,0.7-1.6,1.6-1.6c0.8,0,1.5,0.7,1.5,1.6s-0.7,1.6-1.5,1.6
				C271.5,263.7,270.9,263,270.9,262.1z M271.2,265.9h2.3v14h-2.3V265.9z"/>
			<path class="st8" d="M283.3,265.7c2.6,0,4.4,1.3,5.2,2.8v-2.6h2.4v14.3c0,3.9-2.6,6.6-6.7,6.6c-3.7,0-6.3-1.9-6.8-4.9h2.3
				c0.5,1.7,2.2,2.8,4.5,2.8c2.5,0,4.3-1.6,4.3-4.6v-2.9c-0.8,1.5-2.7,2.9-5.2,2.9c-3.8,0-6.6-2.9-6.6-7.3
				C276.7,268.5,279.5,265.7,283.3,265.7z M283.8,267.7c-2.6,0-4.7,1.9-4.7,5.2c0,3.3,2.2,5.2,4.7,5.2c2.6,0,4.8-1.9,4.8-5.2
				C288.5,269.7,286.3,267.7,283.8,267.7z"/>
			<path class="st8" d="M305,272c0-2.9-1.6-4.3-3.9-4.3c-2.4,0-4,1.5-4,4.5v7.7h-2.3v-14h2.3v2c0.9-1.5,2.6-2.2,4.5-2.2
				c3.2,0,5.7,2,5.7,6v8.3H305V272z"/>
		</g>
		<g>
			<path class="st8" d="M53.4,182.1h10.2v2H53.4V182.1z"/>
			<path class="st8" d="M74.8,174.6h2.3v17.8h-2.3V174.6z"/>
			<path class="st8" d="M91.6,188.5h-7.8l-1.4,4h-2.5l6.4-17.7H89l6.4,17.7H93L91.6,188.5z M87.7,177.6l-3.2,9h6.4L87.7,177.6z"/>
			<path class="st8" d="M98.1,189.2h2.6l-2.9,6.9h-1.6L98.1,189.2z"/>
			<path class="st8" d="M108.8,174.6h2.5l3.9,15.1l4.3-15.1h2.6l4.1,15.1l3.9-15.1h2.5l-5.2,17.8h-2.6l-4.1-14.3l-4.3,14.3h-2.6
				L108.8,174.6z"/>
			<path class="st8" d="M134.7,174.6c0-0.9,0.7-1.6,1.6-1.6c0.8,0,1.5,0.7,1.5,1.6s-0.7,1.6-1.5,1.6
				C135.4,176.2,134.7,175.5,134.7,174.6z M135.1,178.5h2.3v14h-2.3V178.5z"/>
			<path class="st8" d="M143.7,192.5h-2.3v-14h2.3v2.3c0.8-1.6,2.3-2.5,4.5-2.5v2.4h-0.6c-2.2,0-3.9,1-3.9,4.2V192.5z"/>
			<path class="st8" d="M157,192.7c-4,0-6.9-2.8-6.9-7.3c0-4.4,2.8-7.2,6.9-7.2c4.1,0,6.7,2.9,6.7,6.7c0,0.5,0,0.9-0.1,1.4h-11.2
				c0.2,2.8,2.2,4.4,4.5,4.4c2.1,0,3.4-1.1,3.9-2.6h2.5C162.7,190.7,160.5,192.7,157,192.7z M152.5,184.4h8.8c0-2.7-2-4.2-4.4-4.2
				C154.6,180.2,152.7,181.7,152.5,184.4z"/>
			<path class="st8" d="M167.2,180.4h-1.8v-1.9h1.8v-1c0-3.1,1.5-4.5,5.1-4.5v1.9c-2.1,0-2.8,0.8-2.8,2.6v1h2.9v1.9h-2.9v12.1h-2.3
				V180.4z"/>
			<path class="st8" d="M177.5,192.5h-2.3v-14h2.3v2.3c0.8-1.6,2.3-2.5,4.5-2.5v2.4h-0.6c-2.2,0-3.9,1-3.9,4.2V192.5z"/>
			<path class="st8" d="M190.5,178.2c2.6,0,4.4,1.3,5.2,2.8v-2.6h2.4v14h-2.4v-2.6c-0.8,1.5-2.7,2.8-5.2,2.8c-3.7,0-6.6-2.9-6.6-7.3
				C183.9,181,186.7,178.2,190.5,178.2z M191,180.2c-2.6,0-4.7,1.9-4.7,5.2s2.2,5.2,4.7,5.2c2.6,0,4.8-1.9,4.8-5.2
				C195.7,182.2,193.5,180.2,191,180.2z"/>
			<path class="st8" d="M222.2,184.5c0-2.9-1.5-4.3-3.8-4.3c-2.4,0-4,1.5-4,4.5v7.7h-2.3v-7.9c0-2.9-1.5-4.3-3.8-4.3
				c-2.4,0-4,1.5-4,4.5v7.7H202v-14h2.3v2c0.9-1.5,2.6-2.3,4.4-2.3c2.3,0,4.2,1,5.1,3.1c0.8-2,2.8-3.1,5-3.1c3.2,0,5.7,2,5.7,6v8.3
				h-2.3V184.5z"/>
			<path class="st8" d="M234.4,192.7c-4,0-6.9-2.8-6.9-7.3c0-4.4,2.8-7.2,6.9-7.2c4.1,0,6.7,2.9,6.7,6.7c0,0.5,0,0.9-0.1,1.4h-11.2
				c0.2,2.8,2.2,4.4,4.5,4.4c2.1,0,3.4-1.1,3.9-2.6h2.5C240.1,190.7,237.9,192.7,234.4,192.7z M229.9,184.4h8.8c0-2.7-2-4.2-4.4-4.2
				C232,180.2,230.1,181.7,229.9,184.4z"/>
			<path class="st8" d="M249.1,192.7c-3.3,0-5.6-1.8-5.7-4.3h2.4c0.1,1.4,1.3,2.4,3.3,2.4c1.8,0,2.9-0.9,2.9-2.1
				c0-3.1-8.3-1.3-8.3-6.5c0-2.1,2-3.9,5.1-3.9s5.1,1.7,5.3,4.4h-2.3c-0.1-1.4-1.2-2.4-3-2.4c-1.7,0-2.7,0.8-2.7,1.9
				c0,3.3,8.1,1.5,8.2,6.5C254.2,191,252.2,192.7,249.1,192.7z"/>
			<path class="st8" d="M257.4,189.2h2.6l-2.9,6.9h-1.6L257.4,189.2z"/>
			<path class="st8" d="M269.4,174.8h2.5l6.5,14.6l6.5-14.6h2.5v17.7h-2.3v-13.2l-5.9,13.2h-1.6l-5.9-13.2v13.2h-2.3L269.4,174.8
				L269.4,174.8z"/>
			<path class="st8" d="M297.5,192.7c-4,0-7-2.8-7-7.3c0-4.4,3.1-7.2,7.1-7.2s7.1,2.8,7.1,7.2C304.7,189.9,301.5,192.7,297.5,192.7z
				 M297.5,190.6c2.4,0,4.8-1.7,4.8-5.2s-2.3-5.2-4.7-5.2c-2.5,0-4.7,1.7-4.7,5.2C292.9,189,295.1,190.6,297.5,190.6z"/>
			<path class="st8" d="M313.7,178.2c3.5,0,5.8,1.8,6.5,4.7h-2.5c-0.5-1.7-1.9-2.8-4-2.8c-2.6,0-4.4,1.8-4.4,5.2
				c0,3.5,1.9,5.3,4.4,5.3c2.1,0,3.5-1,4-2.8h2.5c-0.7,2.8-3,4.7-6.5,4.7c-4,0-6.8-2.8-6.8-7.3C306.9,181,309.7,178.2,313.7,178.2z"
				/>
			<path class="st8" d="M323.3,173.5h2.3v11.1l5.4-6.2h3.2l-6.6,7l6.6,7H331l-5.5-6.2v6.2h-2.3v-18.9H323.3z"/>
			<path class="st8" d="M348.9,192.5h-2.3v-2.1c-0.9,1.5-2.6,2.3-4.5,2.3c-3.2,0-5.8-2-5.8-6v-8.2h2.3v7.9c0,2.8,1.6,4.3,3.9,4.3
				c2.4,0,4-1.5,4-4.5v-7.7h2.3v14H348.9z"/>
			<path class="st8" d="M360.4,178.2c3.8,0,6.6,2.8,6.6,7.2c0,4.3-2.9,7.3-6.6,7.3c-2.6,0-4.4-1.4-5.2-2.8v9.2h-2.3v-20.7h2.3v2.6
				C356,179.6,357.8,178.2,360.4,178.2z M359.9,180.2c-2.5,0-4.8,1.9-4.8,5.2s2.2,5.2,4.8,5.2c2.6,0,4.8-1.9,4.8-5.2
				S362.5,180.2,359.9,180.2z"/>
			<path class="st8" d="M375,192.7c-3.3,0-5.6-1.8-5.7-4.3h2.4c0.1,1.4,1.3,2.4,3.3,2.4c1.8,0,2.9-0.9,2.9-2.1
				c0-3.1-8.3-1.3-8.3-6.5c0-2.1,2-3.9,5.1-3.9s5.1,1.7,5.3,4.4h-2.3c-0.1-1.4-1.2-2.4-3-2.4c-1.7,0-2.7,0.8-2.7,1.9
				c0,3.3,8.1,1.5,8.2,6.5C380.1,191,378.1,192.7,375,192.7z"/>
			<path class="st8" d="M62.3,209.1c0.1-1.5-0.9-2.2-2.2-2.2c-1.4,0-2.3,0.9-2.3,2c0,1,0.6,1.9,1.8,3.2l5.3,5.3
				c0.2-0.2,0.3-0.5,0.5-0.7l1.7-2.9h2.5l-2.1,3.6c-0.3,0.6-0.7,1.1-1,1.6l4,4h-3l-2.3-2.4c-1.7,1.8-3.6,2.7-6.1,2.7
				c-3.7,0-6.2-2.1-6.2-5.4c0-2.5,1.4-4.4,4.2-5.5c-1.1-1.3-1.5-2.3-1.5-3.6c0-2.3,1.8-4,4.7-4c2.8,0,4.5,1.8,4.4,4.2L62.3,209.1
				L62.3,209.1z M63.7,219.2l-5.2-5.3c-2.2,0.8-3.3,2.2-3.3,4c0,2,1.6,3.5,3.9,3.5C60.9,221.4,62.4,220.7,63.7,219.2z"/>
			<path class="st8" d="M85.3,215.7h-3.4v7.4h-2.3v-17.8h5.8c4.2,0,6.2,2.3,6.2,5.2C91.5,213.2,89.8,215.7,85.3,215.7z M85.3,213.8
				c2.7,0,3.8-1.3,3.8-3.2c0-2.1-1.1-3.3-3.8-3.3h-3.4v6.5H85.3z"/>
			<path class="st8" d="M96.7,223.1h-2.3v-14h2.3v2.3c0.8-1.6,2.3-2.5,4.5-2.5v2.4h-0.6c-2.2,0-3.9,1-3.9,4.2V223.1z"/>
			<path class="st8" d="M110,223.4c-4,0-7-2.8-7-7.3c0-4.4,3.1-7.2,7.1-7.2s7.1,2.8,7.1,7.2C117.2,220.6,114,223.4,110,223.4z
				 M110,221.3c2.4,0,4.8-1.7,4.8-5.2s-2.3-5.2-4.7-5.2c-2.5,0-4.7,1.7-4.7,5.2C105.4,219.7,107.6,221.3,110,221.3z"/>
			<path class="st8" d="M120.8,211H119v-1.9h1.8v-3.5h2.3v3.5h3.7v1.9h-3.7v8.3c0,1.4,0.5,1.9,1.9,1.9h1.7v2h-2.1
				c-2.5,0-3.9-1-3.9-3.8L120.8,211L120.8,211z"/>
			<path class="st8" d="M135.7,223.4c-4,0-7-2.8-7-7.3c0-4.4,3.1-7.2,7.1-7.2s7.1,2.8,7.1,7.2C142.9,220.6,139.7,223.4,135.7,223.4z
				 M135.7,221.3c2.4,0,4.8-1.7,4.8-5.2s-2.3-5.2-4.7-5.2c-2.5,0-4.7,1.7-4.7,5.2C131.1,219.7,133.3,221.3,135.7,221.3z"/>
			<path class="st8" d="M146.4,211h-1.8v-1.9h1.8v-3.5h2.3v3.5h3.7v1.9h-3.7v8.3c0,1.4,0.5,1.9,1.9,1.9h1.7v2h-2.1
				c-2.5,0-3.9-1-3.9-3.8V211H146.4z"/>
			<path class="st8" d="M164.9,209.1h2.4l-8.4,20.6h-2.4l2.8-6.7l-5.6-13.9h2.6l4.4,11.3L164.9,209.1z"/>
			<path class="st8" d="M177.2,208.9c3.8,0,6.6,2.8,6.6,7.2c0,4.3-2.9,7.3-6.6,7.3c-2.6,0-4.4-1.4-5.2-2.8v9.2h-2.3v-20.7h2.3v2.6
				C172.8,210.2,174.6,208.9,177.2,208.9z M176.7,210.9c-2.5,0-4.8,1.9-4.8,5.2s2.2,5.2,4.8,5.2s4.8-1.9,4.8-5.2
				S179.3,210.9,176.7,210.9z"/>
			<path class="st8" d="M186.5,205.3c0-0.9,0.7-1.6,1.6-1.6c0.8,0,1.5,0.7,1.5,1.6s-0.7,1.6-1.5,1.6
				C187.2,206.9,186.5,206.2,186.5,205.3z M186.9,209.1h2.3v14h-2.3V209.1z"/>
			<path class="st8" d="M203.4,215.2c0-2.9-1.6-4.3-3.9-4.3c-2.4,0-4,1.5-4,4.5v7.7h-2.3v-14h2.3v2c0.9-1.5,2.6-2.2,4.5-2.2
				c3.2,0,5.7,2,5.7,6v8.3h-2.3V215.2z"/>
			<path class="st8" d="M215.3,208.9c2.6,0,4.4,1.3,5.2,2.8v-2.6h2.4v14.3c0,3.9-2.6,6.6-6.7,6.6c-3.7,0-6.3-1.9-6.8-4.9h2.3
				c0.5,1.7,2.2,2.8,4.5,2.8c2.5,0,4.3-1.6,4.3-4.6v-2.9c-0.8,1.5-2.7,2.9-5.2,2.9c-3.8,0-6.6-2.9-6.6-7.3
				C208.7,211.7,211.6,208.9,215.3,208.9z M215.8,210.9c-2.6,0-4.7,1.9-4.7,5.2s2.2,5.2,4.7,5.2c2.6,0,4.8-1.9,4.8-5.2
				C220.5,212.9,218.3,210.9,215.8,210.9z"/>
		</g>
		<g>
			<path class="st8" d="M53.4,321.5h10.2v2H53.4V321.5z"/>
			<path class="st8" d="M81.4,331.9h-6.6V314h6.4c3.8,0,5.6,2,5.6,4.5c0,2.2-1.4,3.6-3.1,4.1c1.9,0.3,3.5,2.2,3.5,4.4
				C87.2,329.8,85.1,331.9,81.4,331.9z M81,316h-3.9v5.8H81c2.2,0,3.4-1.1,3.4-2.9S83.2,316,81,316z M81.1,323.7h-4v6.3h4.1
				c2.3,0,3.7-1.2,3.7-3.1C84.9,324.9,83.4,323.7,81.1,323.7z"/>
			<path class="st8" d="M92.8,331.9h-2.3v-14h2.3v2.3c0.8-1.6,2.3-2.5,4.5-2.5v2.4h-0.6c-2.2,0-3.9,1-3.9,4.2V331.9z"/>
			<path class="st8" d="M105.7,317.6c2.6,0,4.4,1.3,5.2,2.8v-2.6h2.4v14H111v-2.6c-0.8,1.5-2.7,2.8-5.2,2.8c-3.7,0-6.6-2.9-6.6-7.3
				C99.1,320.4,102,317.6,105.7,317.6z M106.2,319.6c-2.6,0-4.7,1.9-4.7,5.2c0,3.3,2.2,5.2,4.7,5.2c2.6,0,4.8-1.9,4.8-5.2
				C111,321.6,108.8,319.6,106.2,319.6z"/>
			<path class="st8" d="M127.5,323.9c0-2.9-1.6-4.3-3.9-4.3c-2.4,0-4,1.5-4,4.5v7.7h-2.3v-14h2.3v2c0.9-1.5,2.6-2.2,4.5-2.2
				c3.2,0,5.7,2,5.7,6v8.3h-2.3V323.9z"/>
			<path class="st8" d="M139.4,317.6c2.2,0,4.2,1.1,5.2,2.7v-7.4h2.4v18.9h-2.4v-2.6c-0.8,1.6-2.7,2.9-5.2,2.9
				c-3.8,0-6.6-2.9-6.6-7.3C132.7,320.4,135.6,317.6,139.4,317.6z M139.8,319.6c-2.6,0-4.7,1.9-4.7,5.2c0,3.3,2.2,5.2,4.7,5.2
				c2.6,0,4.8-1.9,4.8-5.2C144.6,321.6,142.4,319.6,139.8,319.6z"/>
			<path class="st8" d="M150.5,314c0-0.9,0.7-1.6,1.6-1.6c0.8,0,1.5,0.7,1.5,1.6s-0.7,1.6-1.5,1.6
				C151.2,315.6,150.5,314.9,150.5,314z M150.9,317.8h2.3v14h-2.3V317.8z"/>
			<path class="st8" d="M167.4,323.9c0-2.9-1.6-4.3-3.9-4.3c-2.4,0-4,1.5-4,4.5v7.7h-2.3v-14h2.3v2c0.9-1.5,2.6-2.2,4.5-2.2
				c3.2,0,5.7,2,5.7,6v8.3h-2.3V323.9z"/>
			<path class="st8" d="M179.3,317.6c2.6,0,4.4,1.3,5.2,2.8v-2.6h2.4v14.3c0,3.9-2.6,6.6-6.7,6.6c-3.7,0-6.3-1.9-6.8-4.9h2.3
				c0.5,1.7,2.2,2.8,4.5,2.8c2.5,0,4.3-1.6,4.3-4.6v-2.9c-0.8,1.5-2.7,2.9-5.2,2.9c-3.8,0-6.6-2.9-6.6-7.3
				C172.7,320.4,175.5,317.6,179.3,317.6z M179.8,319.6c-2.6,0-4.7,1.9-4.7,5.2c0,3.3,2.2,5.2,4.7,5.2c2.6,0,4.8-1.9,4.8-5.2
				C184.5,321.6,182.3,319.6,179.8,319.6z"/>
		</g>
		<g>
			<path class="st8" d="M53.4,373.8h10.2v2H53.4V373.8z"/>
			<path class="st8" d="M74.7,366.3H77v11.3c0,3.3,1.8,4.7,4.4,4.7s4.4-1.4,4.4-4.7v-11.3h2.3v11.2c0,4.6-3,6.7-6.7,6.7
				s-6.7-2.1-6.7-6.7L74.7,366.3L74.7,366.3z"/>
			<path class="st8" d="M97,384.3c-3.3,0-5.6-1.8-5.7-4.3h2.4c0.1,1.4,1.3,2.4,3.3,2.4c1.8,0,2.9-0.9,2.9-2.1c0-3.1-8.3-1.3-8.3-6.5
				c0-2.1,2-3.9,5.1-3.9s5.1,1.7,5.3,4.4h-2.3c-0.1-1.4-1.2-2.4-3-2.4c-1.7,0-2.7,0.8-2.7,1.9c0,3.3,8.1,1.5,8.2,6.5
				C102.1,382.6,100.1,384.3,97,384.3z"/>
			<path class="st8" d="M111.1,369.9c2.6,0,4.4,1.3,5.2,2.8v-2.6h2.4v14h-2.4v-2.6c-0.8,1.5-2.7,2.8-5.2,2.8c-3.7,0-6.6-2.9-6.6-7.3
				C104.5,372.7,107.4,369.9,111.1,369.9z M111.6,371.9c-2.6,0-4.7,1.9-4.7,5.2c0,3.3,2.2,5.2,4.7,5.2c2.6,0,4.8-1.9,4.8-5.2
				S114.2,371.9,111.6,371.9z"/>
			<path class="st8" d="M130.2,369.9c3.8,0,6.6,2.8,6.6,7.2c0,4.3-2.9,7.3-6.6,7.3c-2.6,0-4.4-1.3-5.2-2.8v2.6h-2.3v-18.9h2.3v7.5
				C125.9,371.2,127.7,369.9,130.2,369.9z M129.7,371.9c-2.5,0-4.8,1.9-4.8,5.2c0,3.3,2.2,5.2,4.8,5.2s4.8-1.9,4.8-5.2
				S132.3,371.9,129.7,371.9z"/>
			<path class="st8" d="M139.5,366.2c0-0.9,0.7-1.6,1.6-1.6c0.8,0,1.5,0.7,1.5,1.6s-0.7,1.6-1.5,1.6
				C140.2,367.8,139.5,367.1,139.5,366.2z M139.9,370.1h2.3v14h-2.3V370.1z"/>
			<path class="st8" d="M146.2,365.2h2.3v18.9h-2.3V365.2z"/>
			<path class="st8" d="M152.1,366.2c0-0.9,0.7-1.6,1.6-1.6c0.8,0,1.5,0.7,1.5,1.6s-0.7,1.6-1.5,1.6
				C152.8,367.8,152.1,367.1,152.1,366.2z M152.5,370.1h2.3v14h-2.3V370.1z"/>
			<path class="st8" d="M159.3,372h-1.8v-1.9h1.8v-3.5h2.3v3.5h3.7v1.9h-3.7v8.3c0,1.4,0.5,1.9,1.9,1.9h1.7v2h-2.1
				c-2.5,0-3.9-1-3.9-3.8V372H159.3z"/>
			<path class="st8" d="M177.7,370.1h2.4l-8.4,20.6h-2.4l2.8-6.7l-5.6-13.9h2.6l4.4,11.3L177.7,370.1z"/>
			<path class="st8" d="M188.2,366.3h12.1v1.9h-4.9v15.9h-2.3v-15.9h-4.9L188.2,366.3L188.2,366.3z"/>
			<path class="st8" d="M209.2,384.3c-4,0-6.9-2.8-6.9-7.3c0-4.4,2.8-7.2,6.9-7.2c4.1,0,6.7,2.9,6.7,6.7c0,0.5,0,0.9-0.1,1.4h-11.2
				c0.2,2.8,2.2,4.4,4.5,4.4c2.1,0,3.4-1.1,3.9-2.6h2.5C214.9,382.3,212.7,384.3,209.2,384.3z M204.7,376.1h8.8c0-2.7-2-4.2-4.4-4.2
				C206.8,371.8,204.9,373.3,204.7,376.1z"/>
			<path class="st8" d="M223.9,384.3c-3.3,0-5.6-1.8-5.7-4.3h2.4c0.1,1.4,1.3,2.4,3.3,2.4c1.8,0,2.9-0.9,2.9-2.1
				c0-3.1-8.3-1.3-8.3-6.5c0-2.1,2-3.9,5.1-3.9s5.1,1.7,5.3,4.4h-2.3c-0.1-1.4-1.2-2.4-3-2.4c-1.7,0-2.7,0.8-2.7,1.9
				c0,3.3,8.1,1.5,8.2,6.5C229,382.6,227,384.3,223.9,384.3z"/>
			<path class="st8" d="M232.8,372H231v-1.9h1.8v-3.5h2.3v3.5h3.7v1.9h-3.7v8.3c0,1.4,0.5,1.9,1.9,1.9h1.7v2h-2.1
				c-2.5,0-3.9-1-3.9-3.8V372H232.8z"/>
			<path class="st8" d="M241.2,366.2c0-0.9,0.7-1.6,1.6-1.6c0.8,0,1.5,0.7,1.5,1.6s-0.7,1.6-1.5,1.6
				C241.9,367.8,241.2,367.1,241.2,366.2z M241.6,370.1h2.3v14h-2.3V370.1z"/>
			<path class="st8" d="M258.1,376.2c0-2.9-1.6-4.3-3.9-4.3c-2.4,0-4,1.5-4,4.5v7.7h-2.3v-14h2.3v2c0.9-1.5,2.6-2.2,4.5-2.2
				c3.2,0,5.7,2,5.7,6v8.3h-2.3L258.1,376.2L258.1,376.2z"/>
			<path class="st8" d="M270,369.9c2.6,0,4.4,1.3,5.2,2.8v-2.6h2.4v14.3c0,3.9-2.6,6.6-6.7,6.6c-3.7,0-6.3-1.9-6.8-4.9h2.3
				c0.5,1.7,2.2,2.8,4.5,2.8c2.5,0,4.3-1.6,4.3-4.6v-2.9c-0.8,1.5-2.7,2.9-5.2,2.9c-3.8,0-6.6-2.9-6.6-7.3
				C263.4,372.7,266.3,369.9,270,369.9z M270.5,371.9c-2.6,0-4.7,1.9-4.7,5.2c0,3.3,2.2,5.2,4.7,5.2c2.6,0,4.8-1.9,4.8-5.2
				C275.2,373.8,273,371.9,270.5,371.9z"/>
		</g>
		<g>
			<path class="st8" d="M53.4,425.9h10.2v2H53.4V425.9z"/>
			<path class="st8" d="M74.8,418.6h2.5l6.5,14.6l6.5-14.6h2.5v17.7h-2.3v-13.2l-5.9,13.2H83L77.1,423v13.2h-2.3
				C74.8,436.2,74.8,418.6,74.8,418.6z"/>
			<path class="st8" d="M102.9,436.5c-4,0-7-2.8-7-7.3c0-4.4,3.1-7.2,7.1-7.2s7.1,2.8,7.1,7.2C110.1,433.7,106.9,436.5,102.9,436.5z
				 M102.9,434.4c2.4,0,4.8-1.7,4.8-5.2s-2.3-5.2-4.7-5.2c-2.5,0-4.7,1.7-4.7,5.2C98.3,432.8,100.5,434.4,102.9,434.4z"/>
			<path class="st8" d="M113.6,424.2h-1.8v-1.9h1.8v-3.5h2.3v3.5h3.7v1.9H116v8.3c0,1.4,0.5,1.9,1.9,1.9h1.7v2h-2.1
				c-2.5,0-3.9-1-3.9-3.8V424.2z"/>
			<path class="st8" d="M122.1,418.4c0-0.9,0.7-1.6,1.6-1.6c0.8,0,1.5,0.7,1.5,1.6s-0.7,1.6-1.5,1.6
				C122.7,420,122.1,419.3,122.1,418.4z M122.4,422.2h2.3v14h-2.3V422.2z"/>
			<path class="st8" d="M134.8,436.5c-4,0-7-2.8-7-7.3c0-4.4,3.1-7.2,7.1-7.2s7.1,2.8,7.1,7.2C142,433.7,138.8,436.5,134.8,436.5z
				 M134.8,434.4c2.4,0,4.8-1.7,4.8-5.2s-2.3-5.2-4.7-5.2c-2.5,0-4.7,1.7-4.7,5.2C130.2,432.8,132.4,434.4,134.8,434.4z"/>
			<path class="st8" d="M155.3,428.3c0-2.9-1.6-4.3-3.9-4.3c-2.4,0-4,1.5-4,4.5v7.7h-2.3v-14h2.3v2c0.9-1.5,2.6-2.2,4.5-2.2
				c3.2,0,5.7,2,5.7,6v8.3h-2.3V428.3z"/>
			<path class="st8" d="M184.5,423.6h-2.8c-1-2.1-2.9-3.3-5.4-3.3c-3.8,0-6.6,2.7-6.6,7s2.8,7,6.6,7c3.5,0,5.9-2.2,6.3-5.8h-7.1
				v-1.9h9.6v1.8c-0.4,4.4-3.9,8-8.7,8c-5,0-8.9-3.7-8.9-9.1s3.9-9.1,8.9-9.1C180.1,418.2,183.2,420.2,184.5,423.6z"/>
			<path class="st8" d="M190.5,436.2h-2.3v-14h2.3v2.3c0.8-1.6,2.3-2.5,4.5-2.5v2.4h-0.6c-2.2,0-3.9,1-3.9,4.2V436.2z"/>
			<path class="st8" d="M203.5,422c2.6,0,4.4,1.3,5.2,2.8v-2.6h2.4v14h-2.4v-2.6c-0.8,1.5-2.7,2.8-5.2,2.8c-3.7,0-6.6-2.9-6.6-7.3
				C196.8,424.8,199.7,422,203.5,422z M203.9,424c-2.6,0-4.7,1.9-4.7,5.2c0,3.3,2.2,5.2,4.7,5.2c2.6,0,4.8-1.9,4.8-5.2
				C208.7,426,206.5,424,203.9,424z"/>
			<path class="st8" d="M222.5,422c3.8,0,6.6,2.8,6.6,7.2c0,4.3-2.9,7.3-6.6,7.3c-2.6,0-4.4-1.4-5.2-2.8v9.2H215v-20.7h2.3v2.6
				C218.1,423.3,220,422,222.5,422z M222,424c-2.5,0-4.8,1.9-4.8,5.2c0,3.3,2.2,5.2,4.8,5.2s4.8-1.9,4.8-5.2S224.6,424,222,424z"/>
			<path class="st8" d="M232.2,417.3h2.3v6.9c0.9-1.5,2.7-2.3,4.6-2.3c3.1,0,5.6,2,5.6,6v8.3h-2.3v-7.9c0-2.9-1.6-4.3-3.9-4.3
				c-2.4,0-4,1.5-4,4.5v7.7h-2.3L232.2,417.3L232.2,417.3z"/>
			<path class="st8" d="M248.2,418.4c0-0.9,0.7-1.6,1.6-1.6c0.8,0,1.5,0.7,1.5,1.6s-0.7,1.6-1.5,1.6
				C248.9,420,248.2,419.3,248.2,418.4z M248.6,422.2h2.3v14h-2.3V422.2z"/>
			<path class="st8" d="M260.8,422c3.5,0,5.8,1.8,6.5,4.7h-2.5c-0.5-1.7-1.9-2.8-4-2.8c-2.6,0-4.4,1.8-4.4,5.2
				c0,3.5,1.9,5.3,4.4,5.3c2.1,0,3.5-1,4-2.8h2.5c-0.7,2.8-3,4.7-6.5,4.7c-4,0-6.8-2.8-6.8-7.3C254,424.8,256.8,422,260.8,422z"/>
			<path class="st8" d="M275.4,436.5c-3.3,0-5.6-1.8-5.7-4.3h2.4c0.1,1.4,1.3,2.4,3.3,2.4c1.8,0,2.9-0.9,2.9-2.1
				c0-3.1-8.3-1.3-8.3-6.5c0-2.1,2-3.9,5.1-3.9s5.1,1.7,5.3,4.4H278c-0.1-1.4-1.2-2.4-3-2.4c-1.7,0-2.7,0.8-2.7,1.9
				c0,3.3,8.1,1.5,8.2,6.5C280.5,434.7,278.4,436.5,275.4,436.5z"/>
		</g>
		<g>
			<path class="st8" d="M53.4,477.9h10.2v2H53.4V477.9z"/>
			<path class="st8" d="M91.1,475.6h-2.8c-1-2.1-2.9-3.3-5.4-3.3c-3.8,0-6.6,2.7-6.6,7s2.8,7,6.6,7c3.5,0,5.9-2.2,6.3-5.8H82v-1.9
				h9.6v1.8c-0.4,4.4-3.9,8-8.7,8c-5,0-8.9-3.7-8.9-9.1s3.9-9.1,8.9-9.1C86.6,470.2,89.7,472.2,91.1,475.6z"/>
			<path class="st8" d="M100.4,474c2.6,0,4.4,1.3,5.2,2.8v-2.6h2.4v14h-2.4v-2.6c-0.8,1.5-2.7,2.8-5.2,2.8c-3.7,0-6.6-2.9-6.6-7.3
				C93.8,476.8,96.7,474,100.4,474z M100.9,476c-2.6,0-4.7,1.9-4.7,5.2c0,3.3,2.2,5.2,4.7,5.2c2.6,0,4.8-1.9,4.8-5.2
				C105.6,478,103.5,476,100.9,476z"/>
			<path class="st8" d="M132.2,480.3c0-2.9-1.5-4.3-3.8-4.3c-2.4,0-4,1.5-4,4.5v7.7h-2.3v-7.9c0-2.9-1.5-4.3-3.8-4.3
				c-2.4,0-4,1.5-4,4.5v7.7H112v-14h2.3v2c0.9-1.5,2.6-2.3,4.4-2.3c2.3,0,4.2,1,5.1,3.1c0.8-2,2.8-3.1,5-3.1c3.2,0,5.7,2,5.7,6v8.3
				h-2.3L132.2,480.3L132.2,480.3z"/>
			<path class="st8" d="M144.3,488.5c-4,0-6.9-2.8-6.9-7.3c0-4.4,2.8-7.2,6.9-7.2c4.1,0,6.7,2.9,6.7,6.7c0,0.5,0,0.9-0.1,1.4h-11.2
				c0.2,2.8,2.2,4.4,4.5,4.4c2.1,0,3.4-1.1,3.9-2.6h2.5C150,486.5,147.8,488.5,144.3,488.5z M139.8,480.2h8.8c0-2.7-2-4.2-4.4-4.2
				C141.9,476,140,477.5,139.8,480.2z"/>
			<path class="st8" d="M175.9,479.4c0,5.5-3.6,8.9-9.5,8.9h-5.5v-17.8h5.5C172.3,470.4,175.9,473.9,175.9,479.4z M166.5,486.3
				c4.7,0,7.1-2.6,7.1-7c0-4.3-2.4-7.1-7.1-7.1h-3.2v14h3.2V486.3z"/>
			<path class="st8" d="M185.1,488.5c-4,0-6.9-2.8-6.9-7.3c0-4.4,2.8-7.2,6.9-7.2c4.1,0,6.7,2.9,6.7,6.7c0,0.5,0,0.9-0.1,1.4h-11.2
				c0.2,2.8,2.2,4.4,4.5,4.4c2.1,0,3.4-1.1,3.9-2.6h2.5C190.8,486.5,188.5,488.5,185.1,488.5z M180.5,480.2h8.8c0-2.7-2-4.2-4.4-4.2
				C182.7,476,180.8,477.5,180.5,480.2z"/>
			<path class="st8" d="M199.8,488.5c-3.3,0-5.6-1.8-5.7-4.3h2.4c0.1,1.4,1.3,2.4,3.3,2.4c1.8,0,2.9-0.9,2.9-2.1
				c0-3.1-8.3-1.3-8.3-6.5c0-2.1,2-3.9,5.1-3.9s5.1,1.7,5.3,4.4h-2.3c-0.1-1.4-1.2-2.4-3-2.4c-1.7,0-2.7,0.8-2.7,1.9
				c0,3.3,8.1,1.5,8.2,6.5C204.9,486.8,202.9,488.5,199.8,488.5z"/>
			<path class="st8" d="M207.8,470.4c0-0.9,0.7-1.6,1.6-1.6c0.8,0,1.5,0.7,1.5,1.6s-0.7,1.6-1.5,1.6
				C208.5,472,207.8,471.3,207.8,470.4z M208.2,474.3h2.3v14h-2.3V474.3z"/>
			<path class="st8" d="M220.2,474c2.6,0,4.4,1.3,5.2,2.8v-2.6h2.4v14.3c0,3.9-2.6,6.6-6.7,6.6c-3.7,0-6.3-1.9-6.8-4.9h2.3
				c0.5,1.7,2.2,2.8,4.5,2.8c2.5,0,4.3-1.6,4.3-4.6v-2.9c-0.8,1.5-2.7,2.9-5.2,2.9c-3.8,0-6.6-2.9-6.6-7.3
				C213.6,476.8,216.5,474,220.2,474z M220.7,476c-2.6,0-4.7,1.9-4.7,5.2c0,3.3,2.2,5.2,4.7,5.2c2.6,0,4.8-1.9,4.8-5.2
				C225.5,478,223.3,476,220.7,476z"/>
			<path class="st8" d="M242,480.3c0-2.9-1.6-4.3-3.9-4.3c-2.4,0-4,1.5-4,4.5v7.7h-2.3v-14h2.3v2c0.9-1.5,2.6-2.2,4.5-2.2
				c3.2,0,5.7,2,5.7,6v8.3H242V480.3z"/>
		</g>
	</g>
</g>
</svg>
