<?xml version="1.0" encoding="utf-8"?>
<!-- Generator: Adobe Illustrator 22.0.1, SVG Export Plug-In . SVG Version: 6.00 Build 0)  -->
<svg version="1.1" id="Layer_1" xmlns="http://www.w3.org/2000/svg" xmlns:xlink="http://www.w3.org/1999/xlink" x="0px" y="0px"
	 viewBox="0 0 926.3 541.4" style="enable-background:new 0 0 926.3 541.4;" xml:space="preserve">
<style type="text/css">
	.st0{display:none;}
	.st1{display:inline;fill:none;stroke:#000000;stroke-width:5;stroke-opacity:5.000000e-02;}
	.st2{display:inline;fill:none;stroke:#000000;stroke-width:3;stroke-opacity:0.1;}
	.st3{display:inline;fill:none;stroke:#000000;stroke-opacity:0.15;}
	.st4{display:inline;fill:#FFFFFF;fill-opacity:0.85;}
	.st5{fill:#111216;}
	.st6{fill:#CC112C;}
	.st7{fill:#FFFFFF;}
	.st8{fill:#E5E5E5;}
</style>
<desc>Created with Highcharts 4.2.7</desc>
<g transform="translate(0,0)" class="st0">
	<path class="st1" d="M-160.6,53.5h10c3,0,3,0,3,3v10c0,3,0,3-3,3h-10c-3,0-3,0-3-3v-10C-163.6,53.5-163.6,53.5-160.6,53.5"/>
	<path class="st2" d="M-160.6,53.5h10c3,0,3,0,3,3v10c0,3,0,3-3,3h-10c-3,0-3,0-3-3v-10C-163.6,53.5-163.6,53.5-160.6,53.5"/>
	<path class="st3" d="M-160.6,53.5h10c3,0,3,0,3,3v10c0,3,0,3-3,3h-10c-3,0-3,0-3-3v-10C-163.6,53.5-163.6,53.5-160.6,53.5"/>
	<path class="st4" d="M-161.6,52.5h10c3,0,3,0,3,3v10c0,3,0,3-3,3h-10c-3,0-3,0-3-3v-10C-164.6,52.5-164.6,52.5-161.6,52.5"/>
</g>
<g>
	<rect class="st5" width="926.3" height="541.4"/>
	<g>
		<g>
			<g>
				<path class="st6" d="M629.8,62.2v10.5H624V46h5.8v11.2h4.6V46h5.8v26.7h-5.8V62.2H629.8z"/>
				<path class="st7" d="M654.3,52.6h4.7v20.1h-4.7v-1.5c-0.9,1.3-2.3,1.9-4.2,1.9h-0.9c-3.4,0-5.1-1.8-5.1-5.4V57.6
					c0-3.6,1.7-5.4,5.1-5.4h0.9c2,0,3.4,0.6,4.2,1.9V52.6z M653.4,68.3V56.9c0-0.2-0.1-0.4-0.2-0.6c-0.2-0.2-0.3-0.2-0.6-0.2h-2.3
					c-0.2,0-0.4,0.1-0.6,0.2c-0.2,0.2-0.2,0.4-0.2,0.6v11.4c0,0.2,0.1,0.4,0.2,0.6c0.2,0.2,0.3,0.2,0.6,0.2h2.3
					c0.2,0,0.4-0.1,0.6-0.2S653.4,68.5,653.4,68.3z"/>
				<path class="st7" d="M671.2,52.1h1.1v5.4h-2.7c-0.9,0-1.4,0.5-1.4,1.4v13.7h-5.5V52.6h5v1.9C668.5,52.9,669.7,52.1,671.2,52.1z"
					/>
				<path class="st7" d="M680.8,52.1c1.4,0,2.5,0.3,3.4,1V46h5.5v26.7H685v-1.5c-0.9,1.3-2.3,1.9-4.2,1.9h-0.9
					c-3.4,0-5.1-1.8-5.1-5.4V57.6c0-3.6,1.7-5.4,5.1-5.4H680.8z M684.1,68.3V56.9c0-0.2-0.1-0.4-0.2-0.6c-0.2-0.2-0.3-0.2-0.6-0.2
					h-2.3c-0.2,0-0.4,0.1-0.6,0.2c-0.2,0.2-0.2,0.4-0.2,0.6v11.4c0,0.2,0.1,0.4,0.2,0.6c0.2,0.2,0.3,0.2,0.6,0.2h2.3
					c0.2,0,0.4-0.1,0.6-0.2S684.1,68.5,684.1,68.3z"/>
				<path class="st7" d="M716.8,53h-5.5v-2.1c0-0.2-0.1-0.4-0.2-0.6c-0.2-0.2-0.3-0.2-0.6-0.2h-2.3c-0.2,0-0.4,0.1-0.6,0.2
					c-0.2,0.2-0.2,0.4-0.2,0.6v4.7c0,0.2,0.1,0.4,0.2,0.6c0.2,0.2,0.3,0.2,0.6,0.2h3.7c3.4,0.1,5.1,1.9,5.1,5.4v5.7
					c0,3.6-1.7,5.4-5.1,5.4h-4.9c-3.4,0-5.1-1.8-5.1-5.4v-2.8h5.5v3c0,0.2,0.1,0.4,0.2,0.6c0.2,0.2,0.3,0.2,0.6,0.2h2.6
					c0.2,0,0.4-0.1,0.6-0.2c0.2-0.2,0.2-0.4,0.2-0.6v-5.2c0-0.2-0.1-0.4-0.2-0.6c-0.2-0.2-0.3-0.2-0.6-0.2h-3.7
					c-3.4,0-5.1-1.8-5.1-5.4V51c0-3.6,1.7-5.4,5.1-5.4h4.6c3.4,0,5.1,1.8,5.1,5.4V53z"/>
				<path class="st7" d="M736.5,52.6l-4.1,9.4l4.8,10.7h-5.5l-3.8-8.4h-1.6v8.4h-5.5V46h5.5v13.8h1.9l3-7.2H736.5z"/>
				<path class="st7" d="M745,50c-0.6,0.6-1.3,0.9-2.1,0.9c-0.8,0-1.5-0.3-2.1-0.9c-0.6-0.6-0.9-1.3-0.9-2.1c0-0.8,0.3-1.6,0.9-2.1
					c0.6-0.6,1.3-0.9,2.1-0.9c0.8,0,1.5,0.3,2.1,0.9c0.6,0.6,0.9,1.3,0.9,2.2C745.9,48.7,745.6,49.5,745,50z M740.2,72.7V52.6h5.5
					v20.1H740.2z"/>
				<path class="st7" d="M755.1,72.7h-5.5V46h5.5V72.7z"/>
				<path class="st7" d="M764.3,72.7h-5.5V46h5.5V72.7z"/>
				<path class="st7" d="M777.5,60.1c3.4,0,5.1,1.8,5.1,5.4v2.1c0,3.6-1.7,5.4-5.1,5.4h-4.6c-3.4,0-5.1-1.8-5.1-5.4v-1.3h5.1v1.8
					c0,0.2,0.1,0.4,0.2,0.6c0.2,0.2,0.3,0.2,0.6,0.2h3.4c0.2,0,0.4-0.1,0.6-0.2c0.2-0.2,0.2-0.4,0.2-0.6v-2.5c0-0.2-0.1-0.4-0.2-0.6
					c-0.2-0.2-0.3-0.2-0.6-0.2h-4.2c-3.4,0-5.1-1.8-5.1-5.4v-1.9c0-3.6,1.7-5.4,5.1-5.4h4.3c3.4,0,5.1,1.8,5.1,5.4v0.7h-5.1V57
					c0-0.2-0.1-0.4-0.2-0.6c-0.2-0.2-0.3-0.2-0.6-0.2h-3.1c-0.2,0-0.4,0.1-0.6,0.2c-0.2,0.2-0.2,0.4-0.2,0.6v2.2
					c0,0.2,0.1,0.4,0.2,0.6c0.2,0.2,0.3,0.2,0.6,0.2H777.5z"/>
			</g>
		</g>
		<g>
			<g>
				<path class="st6" d="M154.2,46h5.1l3.1,20.1l2.3-20.1h5.6L166,72.7h-6.6l-2.7-16.4l-2.7,16.4h-6.6L143.2,46h5.6l2.3,20.1
					L154.2,46z"/>
				<path class="st7" d="M178.8,72.7h-5.5V46h5.5v7.1c0.8-0.7,2-1,3.4-1h0.9c3.4,0,5.1,1.8,5.1,5.4v15.1h-5.5V56.9
					c0-0.2-0.1-0.4-0.2-0.6c-0.2-0.2-0.3-0.2-0.6-0.2h-2.3c-0.5,0-0.7,0.2-0.8,0.7V72.7z"/>
				<path class="st7" d="M202.1,52.6h4.7v20.1h-4.7v-1.5c-0.9,1.3-2.3,1.9-4.2,1.9H197c-3.4,0-5.1-1.8-5.1-5.4V57.6
					c0-3.6,1.7-5.4,5.1-5.4h0.9c2,0,3.4,0.6,4.2,1.9V52.6z M201.3,68.3V56.9c0-0.2-0.1-0.4-0.2-0.6c-0.2-0.2-0.3-0.2-0.6-0.2h-2.3
					c-0.2,0-0.4,0.1-0.6,0.2c-0.2,0.2-0.2,0.4-0.2,0.6v11.4c0,0.2,0.1,0.4,0.2,0.6c0.2,0.2,0.3,0.2,0.6,0.2h2.3
					c0.2,0,0.4-0.1,0.6-0.2C201.2,68.7,201.3,68.5,201.3,68.3z"/>
				<path class="st7" d="M217.9,69.5h1.6v3.6h-3.9c-3.4,0-5.1-1.8-5.1-5.4V48.2h5.5v4.4h3.5v4h-3.5v11c0,0.8,0.2,1.3,0.5,1.6
					C216.8,69.4,217.3,69.5,217.9,69.5z"/>
				<path class="st7" d="M245.6,60.5h-5.5v-3.5c0-0.2-0.1-0.4-0.2-0.6c-0.2-0.2-0.3-0.2-0.6-0.2H237c-0.2,0-0.4,0.1-0.6,0.2
					c-0.2,0.2-0.2,0.4-0.2,0.6v11.4c0,0.2,0.1,0.4,0.2,0.6c0.2,0.2,0.3,0.2,0.6,0.2h2.3c0.2,0,0.4-0.1,0.6-0.2
					c0.2-0.2,0.2-0.4,0.2-0.6v-3.5h5.5v2.9c0,3.6-1.7,5.4-5.1,5.4h-4.7c-3.4,0-5.1-1.8-5.1-5.4V57.6c0-3.6,1.7-5.4,5.1-5.4h4.7
					c3.4,0,5.1,1.8,5.1,5.4V60.5z"/>
				<path class="st7" d="M259.3,52.6h4.7v20.1h-4.7v-1.5c-0.9,1.3-2.3,1.9-4.2,1.9h-0.9c-3.4,0-5.1-1.8-5.1-5.4V57.6
					c0-3.6,1.7-5.4,5.1-5.4h0.9c2,0,3.4,0.6,4.2,1.9V52.6z M258.5,68.3V56.9c0-0.2-0.1-0.4-0.2-0.6c-0.2-0.2-0.3-0.2-0.6-0.2h-2.3
					c-0.2,0-0.4,0.1-0.6,0.2c-0.2,0.2-0.2,0.4-0.2,0.6v11.4c0,0.2,0.1,0.4,0.2,0.6c0.2,0.2,0.3,0.2,0.6,0.2h2.3
					c0.2,0,0.4-0.1,0.6-0.2C258.4,68.7,258.5,68.5,258.5,68.3z"/>
				<path class="st7" d="M273.3,72.7h-5.5V52.6h5v1c0.9-1,2.1-1.4,3.9-1.4h0.9c3.4,0,5.1,1.8,5.1,5.4v15.1h-5.5V56.9
					c0-0.2-0.1-0.4-0.2-0.6c-0.2-0.2-0.3-0.2-0.6-0.2h-2.3c-0.2,0-0.4,0.1-0.6,0.2c-0.2,0.2-0.2,0.4-0.2,0.6V72.7z"/>
				<path class="st7" d="M300.7,46v26.7h-5.8V46H300.7z"/>
				<path class="st7" d="M319.1,52.1c1.4,0,2.5,0.3,3.4,1V46h5.5v26.7h-4.7v-1.5c-0.9,1.3-2.3,1.9-4.2,1.9h-0.9
					c-3.4,0-5.1-1.8-5.1-5.4V57.6c0-3.6,1.7-5.4,5.1-5.4H319.1z M322.5,68.3V56.9c0-0.2-0.1-0.4-0.2-0.6c-0.2-0.2-0.3-0.2-0.6-0.2
					h-2.3c-0.2,0-0.4,0.1-0.6,0.2c-0.2,0.2-0.2,0.4-0.2,0.6v11.4c0,0.2,0.1,0.4,0.2,0.6c0.2,0.2,0.3,0.2,0.6,0.2h2.3
					c0.2,0,0.4-0.1,0.6-0.2C322.4,68.7,322.5,68.5,322.5,68.3z"/>
				<path class="st7" d="M346.6,57.6v10.1c0,3.6-1.7,5.4-5.1,5.4h-4.7c-3.4,0-5.1-1.8-5.1-5.4V57.6c0-3.6,1.7-5.4,5.1-5.4h4.7
					C344.9,52.1,346.6,54,346.6,57.6z M341.1,68.8V56.4c0-0.2-0.1-0.4-0.2-0.6c-0.2-0.2-0.3-0.2-0.6-0.2H338c-0.2,0-0.4,0.1-0.6,0.2
					c-0.2,0.2-0.2,0.4-0.2,0.6v12.4c0,0.2,0.1,0.4,0.2,0.6c0.2,0.2,0.3,0.2,0.6,0.2h2.3c0.2,0,0.4-0.1,0.6-0.2
					C341,69.2,341.1,69,341.1,68.8z"/>
				<path class="st7" d="M359.1,61.7c-0.2,0-0.4,0.1-0.6,0.2c-0.2,0.2-0.2,0.4-0.2,0.6v2.3h-4.8v-2.3c0-3.6,1.7-5.4,5.1-5.4h0.2
					c0.2,0,0.4-0.1,0.6-0.2c0.2-0.2,0.2-0.4,0.2-0.6v-4.9c0-0.2-0.1-0.4-0.2-0.6c-0.2-0.2-0.3-0.2-0.6-0.2h-3.1
					c-0.2,0-0.4,0.1-0.6,0.2c-0.2,0.2-0.2,0.4-0.2,0.6v2.1h-5.1v-2c0-3.6,1.7-5.4,5.1-5.4h4.6c3.4,0,5.1,1.8,5.1,5.4v4.9
					c0,3.6-1.7,5.4-5.1,5.4H359.1z M353,70.1c0-0.8,0.3-1.5,0.9-2.1c0.6-0.6,1.3-0.9,2.1-0.9c0.8,0,1.5,0.3,2.1,0.9s0.9,1.3,0.9,2.1
					c0,0.8-0.3,1.5-0.9,2.1s-1.3,0.9-2.1,0.9c-0.8,0-1.5-0.3-2.1-0.9C353.3,71.6,353,70.9,353,70.1z"/>
			</g>
		</g>
	</g>
	<g>
		<g>
			<g>
				<path class="st8" d="M459.8,217.7H470v2h-10.2V217.7z"/>
				<path class="st8" d="M481.2,210.3h2.3v17.8h-2.3V210.3z"/>
				<path class="st8" d="M497.8,220.2c0-2.9-1.6-4.3-3.9-4.3c-2.4,0-4,1.5-4,4.5v7.7h-2.3v-14h2.3v2c0.9-1.5,2.6-2.2,4.5-2.2
					c3.2,0,5.7,2,5.7,6v8.3h-2.3V220.2z"/>
				<path class="st8" d="M516.1,210.3h2.5l-6.7,17.8h-2.7l-6.7-17.8h2.5l5.6,15.4L516.1,210.3z"/>
				<path class="st8" d="M520.8,210.2c0-0.9,0.7-1.6,1.6-1.6c0.8,0,1.5,0.7,1.5,1.6s-0.7,1.6-1.5,1.6
					C521.5,211.8,520.8,211.1,520.8,210.2z M521.1,214.1h2.3v14h-2.3V214.1z"/>
				<path class="st8" d="M532.4,228.3c-3.3,0-5.6-1.8-5.7-4.3h2.4c0.1,1.4,1.3,2.4,3.3,2.4c1.8,0,2.9-0.9,2.9-2.1
					c0-3.1-8.3-1.3-8.3-6.5c0-2.1,2-3.9,5.1-3.9c3.1,0,5.1,1.7,5.3,4.4H535c-0.1-1.4-1.2-2.4-3-2.4c-1.7,0-2.7,0.8-2.7,1.9
					c0,3.3,8.1,1.5,8.2,6.5C537.5,226.6,535.5,228.3,532.4,228.3z"/>
				<path class="st8" d="M540.4,210.2c0-0.9,0.7-1.6,1.6-1.6c0.8,0,1.5,0.7,1.5,1.6s-0.7,1.6-1.5,1.6
					C541.1,211.8,540.4,211.1,540.4,210.2z M540.8,214.1h2.3v14h-2.3V214.1z"/>
				<path class="st8" d="M553.2,228.3c-4,0-7-2.8-7-7.3c0-4.4,3.1-7.2,7.1-7.2c4,0,7.1,2.8,7.1,7.2
					C560.3,225.5,557.2,228.3,553.2,228.3z M553.2,226.3c2.4,0,4.8-1.7,4.8-5.2c0-3.5-2.3-5.2-4.7-5.2c-2.5,0-4.7,1.7-4.7,5.2
					C548.6,224.6,550.7,226.3,553.2,226.3z"/>
				<path class="st8" d="M573.7,220.2c0-2.9-1.6-4.3-3.9-4.3c-2.4,0-4,1.5-4,4.5v7.7h-2.3v-14h2.3v2c0.9-1.5,2.6-2.2,4.5-2.2
					c3.2,0,5.7,2,5.7,6v8.3h-2.3V220.2z"/>
				<path class="st8" d="M579.6,224.9h2.6l-2.9,6.9h-1.6L579.6,224.9z"/>
				<path class="st8" d="M597.3,228.3c-3.6,0-6.1-2-6.2-4.9h2.5c0.2,1.5,1.2,3,3.7,3c2.2,0,3.6-1.3,3.6-3c0-4.8-9.6-1.7-9.6-8.4
					c0-2.9,2.4-4.9,5.9-4.9c3.4,0,5.6,1.9,5.9,4.6h-2.6c-0.2-1.2-1.3-2.6-3.5-2.6c-1.9-0.1-3.4,0.9-3.4,2.9c0,4.6,9.6,1.7,9.6,8.3
					C603.2,225.8,601.2,228.3,597.3,228.3z"/>
				<path class="st8" d="M606.7,209.2h2.3v11.1l5.4-6.2h3.2l-6.6,7l6.6,7h-3.2l-5.5-6.2v6.2h-2.3V209.2z"/>
				<path class="st8" d="M625.9,228.3c-4,0-6.9-2.8-6.9-7.3c0-4.4,2.8-7.2,6.9-7.2c4.1,0,6.7,2.9,6.7,6.7c0,0.5,0,0.9-0.1,1.4h-11.2
					c0.2,2.8,2.2,4.4,4.5,4.4c2.1,0,3.4-1.1,3.9-2.6h2.5C631.6,226.3,629.4,228.3,625.9,228.3z M621.4,220.1h8.8
					c0-2.7-2-4.2-4.4-4.2C623.5,215.8,621.6,217.3,621.4,220.1z"/>
				<path class="st8" d="M636.2,216h-1.8v-1.9h1.8v-3.5h2.3v3.5h3.7v1.9h-3.7v8.3c0,1.4,0.5,1.9,1.9,1.9h1.7v2h-2.1
					c-2.5,0-3.9-1-3.9-3.8V216z"/>
				<path class="st8" d="M650.9,213.9c3.5,0,5.8,1.8,6.5,4.7h-2.5c-0.5-1.7-1.9-2.8-4-2.8c-2.6,0-4.4,1.8-4.4,5.2
					c0,3.5,1.9,5.3,4.4,5.3c2.1,0,3.5-1,4-2.8h2.5c-0.7,2.8-3,4.7-6.5,4.7c-4,0-6.8-2.8-6.8-7.3
					C644.1,216.7,646.9,213.9,650.9,213.9z"/>
				<path class="st8" d="M660.5,209.2h2.3v6.9c0.9-1.5,2.7-2.3,4.6-2.3c3.1,0,5.6,2,5.6,6v8.3h-2.3v-7.9c0-2.9-1.6-4.3-3.9-4.3
					c-2.4,0-4,1.5-4,4.5v7.7h-2.3V209.2z"/>
				<path class="st8" d="M676.7,224.9h2.6l-2.9,6.9h-1.6L676.7,224.9z"/>
				<path class="st8" d="M695.4,228.1h-6.6v-17.8h6.4c3.8,0,5.6,2,5.6,4.5c0,2.3-1.4,3.6-3.1,4.1c1.9,0.3,3.5,2.2,3.5,4.4
					C701.2,226,699.1,228.1,695.4,228.1z M694.9,212.2h-3.9v5.8h3.9c2.2,0,3.4-1.1,3.4-2.9C698.4,213.3,697.2,212.2,694.9,212.2z
					 M695.1,219.9h-4v6.3h4.1c2.3,0,3.7-1.2,3.7-3.1C698.8,221.1,697.4,219.9,695.1,219.9z"/>
				<path class="st8" d="M710.2,213.9c2.6,0,4.4,1.3,5.2,2.8v-2.6h2.4v14h-2.4v-2.6c-0.8,1.5-2.7,2.8-5.2,2.8
					c-3.7,0-6.6-2.9-6.6-7.3C703.5,216.7,706.4,213.9,710.2,213.9z M710.6,215.9c-2.6,0-4.7,1.9-4.7,5.2c0,3.3,2.2,5.2,4.7,5.2
					s4.8-1.9,4.8-5.2C715.4,217.8,713.2,215.9,710.6,215.9z"/>
				<path class="st8" d="M721.7,209.2h2.3v18.9h-2.3V209.2z"/>
				<path class="st8" d="M732.9,228.3c-3.3,0-5.6-1.8-5.7-4.3h2.4c0.1,1.4,1.3,2.4,3.3,2.4c1.8,0,2.9-0.9,2.9-2.1
					c0-3.1-8.3-1.3-8.3-6.5c0-2.1,2-3.9,5.1-3.9c3.1,0,5.1,1.7,5.3,4.4h-2.3c-0.1-1.4-1.2-2.4-3-2.4c-1.7,0-2.7,0.8-2.7,1.9
					c0,3.3,8.1,1.5,8.2,6.5C738,226.6,736,228.3,732.9,228.3z"/>
				<path class="st8" d="M747.1,213.9c2.6,0,4.4,1.3,5.2,2.8v-2.6h2.4v14h-2.4v-2.6c-0.8,1.5-2.7,2.8-5.2,2.8
					c-3.7,0-6.6-2.9-6.6-7.3C740.4,216.7,743.3,213.9,747.1,213.9z M747.5,215.9c-2.6,0-4.7,1.9-4.7,5.2c0,3.3,2.2,5.2,4.7,5.2
					s4.8-1.9,4.8-5.2C752.3,217.8,750.1,215.9,747.5,215.9z"/>
				<path class="st8" d="M778.8,220.2c0-2.9-1.5-4.3-3.8-4.3c-2.4,0-4,1.5-4,4.5v7.7h-2.3v-7.9c0-2.9-1.5-4.3-3.8-4.3
					c-2.4,0-4,1.5-4,4.5v7.7h-2.3v-14h2.3v2c0.9-1.5,2.6-2.3,4.4-2.3c2.3,0,4.2,1,5.1,3.1c0.8-2,2.8-3.1,5-3.1c3.2,0,5.7,2,5.7,6
					v8.3h-2.3V220.2z"/>
				<path class="st8" d="M784.5,210.2c0-0.9,0.7-1.6,1.6-1.6c0.8,0,1.5,0.7,1.5,1.6s-0.7,1.6-1.5,1.6
					C785.2,211.8,784.5,211.1,784.5,210.2z M784.9,214.1h2.3v14h-2.3V214.1z"/>
				<path class="st8" d="M797,213.9c2.6,0,4.4,1.3,5.2,2.8v-2.6h2.4v20.7h-2.4v-9.2c-0.8,1.4-2.7,2.8-5.3,2.8
					c-3.7,0-6.6-2.9-6.6-7.3C790.3,216.7,793.2,213.9,797,213.9z M797.4,215.9c-2.6,0-4.7,1.9-4.7,5.2c0,3.3,2.2,5.2,4.7,5.2
					s4.8-1.9,4.8-5.2C802.2,217.8,800,215.9,797.4,215.9z"/>
				<path class="st8" d="M808.3,224.9h2.6l-2.9,6.9h-1.6L808.3,224.9z"/>
				<path class="st8" d="M466.2,251.8l-4.1,7h-2.6l5.4-8.9l-5.5-8.9h2.6l4.3,7l4.1-7h2.6l-5.5,8.9l5.5,8.9h-2.6L466.2,251.8z"/>
				<path class="st8" d="M491.2,249.9c0,5.5-3.6,8.9-9.5,8.9h-5.5v-17.8h5.5C487.6,240.9,491.2,244.4,491.2,249.9z M481.7,256.8
					c4.7,0,7.1-2.6,7.1-7c0-4.3-2.4-7.1-7.1-7.1h-3.2v14H481.7z"/>
				<path class="st8" d="M509.5,244.8c0.1-1.5-0.9-2.2-2.2-2.2c-1.4,0-2.3,0.9-2.3,2c0,1,0.6,1.9,1.8,3.2l5.3,5.3
					c0.2-0.2,0.3-0.5,0.5-0.7l1.7-2.9h2.5l-2.1,3.6c-0.3,0.6-0.7,1.1-1,1.6l4,4h-3l-2.3-2.4c-1.7,1.8-3.6,2.7-6.1,2.7
					c-3.7,0-6.2-2.1-6.2-5.4c0-2.5,1.4-4.4,4.2-5.5c-1.1-1.3-1.5-2.3-1.5-3.6c0-2.3,1.8-4,4.7-4c2.8,0,4.5,1.8,4.4,4.2H509.5z
					 M510.9,254.9l-5.2-5.3c-2.2,0.8-3.3,2.2-3.3,4c0,2,1.6,3.5,3.9,3.5C508.1,257.1,509.6,256.4,510.9,254.9z"/>
				<path class="st8" d="M537.3,254.8h-7.8l-1.4,4h-2.5l6.4-17.7h2.7l6.4,17.7h-2.5L537.3,254.8z M533.4,243.9l-3.2,9h6.4
					L533.4,243.9z"/>
				<path class="st8" d="M548,253.5l-3.2,5.2h-2.4l4.5-7l-4.5-7.1h2.6l3.3,5.2l3.2-5.2h2.4l-4.5,6.9l4.5,7.1h-2.6L548,253.5z"/>
				<path class="st8" d="M568.7,258.8h-2.3v-2.1c-0.9,1.5-2.6,2.3-4.5,2.3c-3.2,0-5.8-2-5.8-6v-8.2h2.3v7.9c0,2.8,1.6,4.3,3.9,4.3
					c2.4,0,4-1.5,4-4.5v-7.7h2.3V258.8z"/>
				<path class="st8" d="M574.9,258.8h-2.3v-14h2.3v2.3c0.8-1.6,2.3-2.5,4.5-2.5v2.4h-0.6c-2.2,0-3.9,1-3.9,4.2V258.8z"/>
				<path class="st8" d="M588.2,259c-4,0-6.9-2.8-6.9-7.3c0-4.4,2.8-7.2,6.9-7.2c4.1,0,6.7,2.9,6.7,6.7c0,0.5,0,0.9-0.1,1.4h-11.2
					c0.2,2.8,2.2,4.4,4.5,4.4c2.1,0,3.4-1.1,3.9-2.6h2.5C593.9,257,591.7,259,588.2,259z M583.7,250.7h8.8c0-2.7-2-4.2-4.4-4.2
					C585.8,246.5,583.9,248,583.7,250.7z"/>
				<path class="st8" d="M610.6,240.9c4.2,0,6.2,2.3,6.2,5.2c0,2.3-1.3,4.4-4.2,5.1l4.5,7.5h-2.8l-4.2-7.3h-2.8v7.3h-2.3v-17.8
					H610.6z M610.6,242.9h-3.4v6.7h3.4c2.6,0,3.8-1.4,3.8-3.4C614.4,244.2,613.2,242.9,610.6,242.9z"/>
				<path class="st8" d="M626.1,251.3h-3.4v7.4h-2.3v-17.8h5.8c4.2,0,6.2,2.3,6.2,5.2C632.3,248.9,630.5,251.3,626.1,251.3z
					 M626.1,249.4c2.7,0,3.8-1.3,3.8-3.2c0-2.1-1.1-3.3-3.8-3.3h-3.4v6.5H626.1z"/>
			</g>
			<g>
				<path class="st8" d="M459.8,129.8H470v2h-10.2V129.8z"/>
				<path class="st8" d="M487,132.7h-3.4v7.4h-2.3v-17.8h5.8c4.2,0,6.2,2.3,6.2,5.2C493.1,130.3,491.4,132.7,487,132.7z M487,130.8
					c2.7,0,3.8-1.3,3.8-3.2c0-2.1-1.1-3.3-3.8-3.3h-3.4v6.5H487z"/>
				<path class="st8" d="M496,121.3h2.3v6.9c0.9-1.5,2.7-2.3,4.6-2.3c3.1,0,5.6,2,5.6,6v8.3h-2.3v-7.9c0-2.9-1.6-4.3-3.9-4.3
					c-2.4,0-4,1.5-4,4.5v7.7H496V121.3z"/>
				<path class="st8" d="M518.5,140.4c-4,0-7-2.8-7-7.3c0-4.4,3.1-7.2,7.1-7.2c4,0,7.1,2.8,7.1,7.2
					C525.7,137.6,522.5,140.4,518.5,140.4z M518.5,138.4c2.4,0,4.8-1.7,4.8-5.2c0-3.5-2.3-5.2-4.7-5.2c-2.5,0-4.7,1.7-4.7,5.2
					C513.9,136.7,516.1,138.4,518.5,138.4z"/>
				<path class="st8" d="M529.2,128.1h-1.8v-1.9h1.8v-3.5h2.3v3.5h3.7v1.9h-3.7v8.3c0,1.4,0.5,1.9,1.9,1.9h1.7v2h-2.1
					c-2.5,0-3.9-1-3.9-3.8V128.1z"/>
				<path class="st8" d="M544.1,140.4c-4,0-7-2.8-7-7.3c0-4.4,3.1-7.2,7.1-7.2c4,0,7.1,2.8,7.1,7.2
					C551.3,137.6,548.1,140.4,544.1,140.4z M544.1,138.4c2.4,0,4.8-1.7,4.8-5.2c0-3.5-2.3-5.2-4.7-5.2c-2.5,0-4.7,1.7-4.7,5.2
					C539.5,136.7,541.7,138.4,544.1,138.4z"/>
				<path class="st8" d="M559.4,140.4c-3.3,0-5.6-1.8-5.7-4.3h2.4c0.1,1.4,1.3,2.4,3.3,2.4c1.8,0,2.9-0.9,2.9-2.1
					c0-3.1-8.3-1.3-8.3-6.5c0-2.1,2-3.9,5.1-3.9c3.1,0,5.1,1.7,5.3,4.4H562c-0.1-1.4-1.2-2.4-3-2.4c-1.7,0-2.7,0.8-2.7,1.9
					c0,3.3,8.1,1.5,8.2,6.5C564.5,138.7,562.4,140.4,559.4,140.4z"/>
				<path class="st8" d="M567.7,121.3h2.3v6.9c0.9-1.5,2.7-2.3,4.6-2.3c3.1,0,5.6,2,5.6,6v8.3H578v-7.9c0-2.9-1.6-4.3-3.9-4.3
					c-2.4,0-4,1.5-4,4.5v7.7h-2.3V121.3z"/>
				<path class="st8" d="M590.2,140.4c-4,0-7-2.8-7-7.3c0-4.4,3.1-7.2,7.1-7.2c4,0,7.1,2.8,7.1,7.2
					C597.4,137.6,594.2,140.4,590.2,140.4z M590.2,138.4c2.4,0,4.8-1.7,4.8-5.2c0-3.5-2.3-5.2-4.7-5.2c-2.5,0-4.7,1.7-4.7,5.2
					C585.6,136.7,587.8,138.4,590.2,138.4z"/>
				<path class="st8" d="M608,125.9c3.8,0,6.6,2.8,6.6,7.2c0,4.3-2.9,7.3-6.6,7.3c-2.6,0-4.4-1.4-5.2-2.8v9.2h-2.3v-20.7h2.3v2.6
					C603.6,127.3,605.5,125.9,608,125.9z M607.5,128c-2.5,0-4.8,1.9-4.8,5.2c0,3.3,2.2,5.2,4.8,5.2c2.6,0,4.8-1.9,4.8-5.2
					S610.1,128,607.5,128z"/>
				<path class="st8" d="M617.6,137h2.6l-2.9,6.9h-1.6L617.6,137z"/>
				<path class="st8" d="M629.6,122.4h2.3v17.8h-2.3V122.4z"/>
				<path class="st8" d="M635.9,121.3h2.3v18.9h-2.3V121.3z"/>
				<path class="st8" d="M642.2,121.3h2.3v18.9h-2.3V121.3z"/>
				<path class="st8" d="M660.9,140.2h-2.3v-2.1c-0.9,1.5-2.6,2.3-4.5,2.3c-3.2,0-5.8-2-5.8-6v-8.2h2.3v7.9c0,2.8,1.6,4.3,3.9,4.3
					c2.4,0,4-1.5,4-4.5v-7.7h2.3V140.2z"/>
				<path class="st8" d="M669.8,140.4c-3.3,0-5.6-1.8-5.7-4.3h2.4c0.1,1.4,1.3,2.4,3.3,2.4c1.8,0,2.9-0.9,2.9-2.1
					c0-3.1-8.3-1.3-8.3-6.5c0-2.1,2-3.9,5.1-3.9c3.1,0,5.1,1.7,5.3,4.4h-2.3c-0.1-1.4-1.2-2.4-3-2.4c-1.7,0-2.7,0.8-2.7,1.9
					c0,3.3,8.1,1.5,8.2,6.5C674.9,138.7,672.9,140.4,669.8,140.4z"/>
				<path class="st8" d="M678.7,128.1h-1.8v-1.9h1.8v-3.5h2.3v3.5h3.7v1.9H681v8.3c0,1.4,0.5,1.9,1.9,1.9h1.7v2h-2.1
					c-2.5,0-3.9-1-3.9-3.8V128.1z"/>
				<path class="st8" d="M689.8,140.2h-2.3v-14h2.3v2.3c0.8-1.6,2.3-2.5,4.5-2.5v2.4h-0.6c-2.2,0-3.9,1-3.9,4.2V140.2z"/>
				<path class="st8" d="M702.8,125.9c2.6,0,4.4,1.3,5.2,2.8v-2.6h2.4v14H708v-2.6c-0.8,1.5-2.7,2.8-5.2,2.8c-3.7,0-6.6-2.9-6.6-7.3
					C696.1,128.8,699,125.9,702.8,125.9z M703.2,128c-2.6,0-4.7,1.9-4.7,5.2s2.2,5.2,4.7,5.2s4.8-1.9,4.8-5.2
					C708,129.9,705.8,128,703.2,128z"/>
				<path class="st8" d="M714.8,128.1H713v-1.9h1.8v-3.5h2.3v3.5h3.7v1.9h-3.7v8.3c0,1.4,0.5,1.9,1.9,1.9h1.7v2h-2.1
					c-2.5,0-3.9-1-3.9-3.8V128.1z"/>
				<path class="st8" d="M729.7,140.4c-4,0-7-2.8-7-7.3c0-4.4,3.1-7.2,7.1-7.2c4,0,7.1,2.8,7.1,7.2
					C736.9,137.6,733.7,140.4,729.7,140.4z M729.7,138.4c2.4,0,4.8-1.7,4.8-5.2c0-3.5-2.3-5.2-4.7-5.2c-2.5,0-4.7,1.7-4.7,5.2
					C725.1,136.7,727.3,138.4,729.7,138.4z"/>
				<path class="st8" d="M742.3,140.2h-2.3v-14h2.3v2.3c0.8-1.6,2.3-2.5,4.5-2.5v2.4h-0.6c-2.2,0-3.9,1-3.9,4.2V140.2z"/>
				<path class="st8" d="M749.3,137h2.6l-2.9,6.9h-1.6L749.3,137z"/>
				<path class="st8" d="M761.4,122.4h2.3v17.8h-2.3V122.4z"/>
				<path class="st8" d="M777.9,132.3c0-2.9-1.6-4.3-3.9-4.3c-2.4,0-4,1.5-4,4.5v7.7h-2.3v-14h2.3v2c0.9-1.5,2.6-2.2,4.5-2.2
					c3.2,0,5.7,2,5.7,6v8.3h-2.3V132.3z"/>
				<path class="st8" d="M799,131.3c0,5.5-3.6,8.9-9.5,8.9H784v-17.8h5.5C795.4,122.4,799,125.8,799,131.3z M789.5,138.3
					c4.7,0,7.1-2.6,7.1-7c0-4.3-2.4-7.1-7.1-7.1h-3.2v14H789.5z"/>
				<path class="st8" d="M808.1,140.4c-4,0-6.9-2.8-6.9-7.3c0-4.4,2.8-7.2,6.9-7.2c4.1,0,6.7,2.9,6.7,6.7c0,0.5,0,0.9-0.1,1.4h-11.2
					c0.2,2.8,2.2,4.4,4.5,4.4c2.1,0,3.4-1.1,3.9-2.6h2.5C813.9,138.4,811.6,140.4,808.1,140.4z M803.6,132.2h8.8
					c0-2.7-2-4.2-4.4-4.2C805.8,127.9,803.9,129.4,803.6,132.2z"/>
				<path class="st8" d="M822.9,140.4c-3.3,0-5.6-1.8-5.7-4.3h2.4c0.1,1.4,1.3,2.4,3.3,2.4c1.8,0,2.9-0.9,2.9-2.1
					c0-3.1-8.3-1.3-8.3-6.5c0-2.1,2-3.9,5.1-3.9c3.1,0,5.1,1.7,5.3,4.4h-2.3c-0.1-1.4-1.2-2.4-3-2.4c-1.7,0-2.7,0.8-2.7,1.9
					c0,3.3,8.1,1.5,8.2,6.5C828,138.7,826,140.4,822.9,140.4z"/>
				<path class="st8" d="M830.9,122.3c0-0.9,0.7-1.6,1.6-1.6c0.8,0,1.5,0.7,1.5,1.6s-0.7,1.6-1.5,1.6
					C831.6,123.9,830.9,123.2,830.9,122.3z M831.3,126.2h2.3v14h-2.3V126.2z"/>
				<path class="st8" d="M843.3,125.9c2.6,0,4.4,1.3,5.2,2.8v-2.6h2.4v14.3c0,3.9-2.6,6.6-6.7,6.6c-3.7,0-6.3-1.9-6.8-4.9h2.3
					c0.5,1.7,2.2,2.8,4.5,2.8c2.5,0,4.3-1.6,4.3-4.6v-2.9c-0.8,1.5-2.7,2.9-5.2,2.9c-3.8,0-6.6-2.9-6.6-7.3
					C836.7,128.8,839.6,125.9,843.3,125.9z M843.8,128c-2.6,0-4.7,1.9-4.7,5.2s2.2,5.2,4.7,5.2s4.8-1.9,4.8-5.2
					C848.5,129.9,846.3,128,843.8,128z"/>
				<path class="st8" d="M865.1,132.3c0-2.9-1.6-4.3-3.9-4.3c-2.4,0-4,1.5-4,4.5v7.7h-2.3v-14h2.3v2c0.9-1.5,2.6-2.2,4.5-2.2
					c3.2,0,5.7,2,5.7,6v8.3h-2.3V132.3z"/>
				<path class="st8" d="M871,137h2.6l-2.9,6.9h-1.6L871,137z"/>
				<path class="st8" d="M470.8,166.9h-7.8l-1.4,4h-2.5l6.4-17.7h2.7l6.4,17.7h-2.5L470.8,166.9z M467,156l-3.2,9h6.4L467,156z"/>
				<path class="st8" d="M478,158.8h-1.8v-1.9h1.8v-1c0-3.1,1.5-4.5,5.1-4.5v1.9c-2.1,0-2.8,0.8-2.8,2.6v1h2.9v1.9h-2.9v12.1H478
					V158.8z"/>
				<path class="st8" d="M486.5,158.8h-1.8v-1.9h1.8v-3.5h2.3v3.5h3.7v1.9h-3.7v8.3c0,1.4,0.5,1.9,1.9,1.9h1.7v2h-2.1
					c-2.5,0-3.9-1-3.9-3.8V158.8z"/>
				<path class="st8" d="M501.3,171.1c-4,0-6.9-2.8-6.9-7.3c0-4.4,2.8-7.2,6.9-7.2c4.1,0,6.7,2.9,6.7,6.7c0,0.5,0,0.9-0.1,1.4h-11.2
					c0.2,2.8,2.2,4.4,4.5,4.4c2.1,0,3.4-1.1,3.9-2.6h2.5C507,169.1,504.8,171.1,501.3,171.1z M496.8,162.8h8.8c0-2.7-2-4.2-4.4-4.2
					C498.9,158.6,497,160.1,496.8,162.8z"/>
				<path class="st8" d="M513.4,170.9h-2.3v-14h2.3v2.3c0.8-1.6,2.3-2.5,4.5-2.5v2.4h-0.6c-2.2,0-3.9,1-3.9,4.2V170.9z"/>
				<path class="st8" d="M537,154.9h-7.3v6h6.5v1.9h-6.5v6.1h7.3v1.9h-9.6V153h9.6V154.9z"/>
				<path class="st8" d="M541,158.8h-1.8v-1.9h1.8v-1c0-3.1,1.5-4.5,5.1-4.5v1.9c-2.1,0-2.8,0.8-2.8,2.6v1h2.9v1.9h-2.9v12.1H541
					V158.8z"/>
				<path class="st8" d="M549.4,158.8h-1.8v-1.9h1.8v-1c0-3.1,1.5-4.5,5.1-4.5v1.9c-2.1,0-2.8,0.8-2.8,2.6v1h2.9v1.9h-2.9v12.1h-2.3
					V158.8z"/>
				<path class="st8" d="M563.4,171.1c-4,0-6.9-2.8-6.9-7.3c0-4.4,2.8-7.2,6.9-7.2c4.1,0,6.7,2.9,6.7,6.7c0,0.5,0,0.9-0.1,1.4h-11.2
					c0.2,2.8,2.2,4.4,4.5,4.4c2.1,0,3.4-1.1,3.9-2.6h2.5C569.2,169.1,566.9,171.1,563.4,171.1z M558.9,162.8h8.8
					c0-2.7-2-4.2-4.4-4.2C561.1,158.6,559.2,160.1,558.9,162.8z"/>
				<path class="st8" d="M579.2,156.6c3.5,0,5.8,1.8,6.5,4.7h-2.5c-0.5-1.7-1.9-2.8-4-2.8c-2.6,0-4.4,1.8-4.4,5.2
					c0,3.5,1.9,5.3,4.4,5.3c2.1,0,3.5-1,4-2.8h2.5c-0.7,2.8-3,4.7-6.5,4.7c-4,0-6.8-2.8-6.8-7.3
					C572.4,159.4,575.2,156.6,579.2,156.6z"/>
				<path class="st8" d="M589.3,158.8h-1.8v-1.9h1.8v-3.5h2.3v3.5h3.7v1.9h-3.7v8.3c0,1.4,0.5,1.9,1.9,1.9h1.7v2h-2.1
					c-2.5,0-3.9-1-3.9-3.8V158.8z"/>
				<path class="st8" d="M603,171.1c-3.3,0-5.6-1.8-5.7-4.3h2.4c0.1,1.4,1.3,2.4,3.3,2.4c1.8,0,2.9-0.9,2.9-2.1
					c0-3.1-8.3-1.3-8.3-6.5c0-2.1,2-3.9,5.1-3.9c3.1,0,5.1,1.7,5.3,4.4h-2.3c-0.1-1.4-1.2-2.4-3-2.4c-1.7,0-2.7,0.8-2.7,1.9
					c0,3.3,8.1,1.5,8.2,6.5C608.1,169.3,606.1,171.1,603,171.1z"/>
				<path class="st8" d="M626.6,156.8c0.1-1.5-0.9-2.2-2.2-2.2c-1.4,0-2.3,0.9-2.3,2c0,1,0.6,1.9,1.8,3.2l5.3,5.3
					c0.2-0.2,0.3-0.5,0.5-0.7l1.7-2.9h2.5l-2.1,3.6c-0.3,0.6-0.7,1.1-1,1.6l4,4h-3l-2.3-2.4c-1.7,1.8-3.6,2.7-6.1,2.7
					c-3.7,0-6.2-2.1-6.2-5.4c0-2.5,1.4-4.4,4.2-5.5c-1.1-1.3-1.5-2.3-1.5-3.6c0-2.3,1.8-4,4.7-4c2.8,0,4.5,1.8,4.4,4.2H626.6z
					 M628,167l-5.2-5.3c-2.2,0.8-3.3,2.2-3.3,4c0,2,1.6,3.5,3.9,3.5C625.3,169.2,626.7,168.4,628,167z"/>
				<path class="st8" d="M649.7,163.4h-3.4v7.4h-2.3V153h5.8c4.2,0,6.2,2.3,6.2,5.2C655.8,161,654.1,163.4,649.7,163.4z
					 M649.7,161.5c2.7,0,3.8-1.3,3.8-3.2c0-2.1-1.1-3.3-3.8-3.3h-3.4v6.5H649.7z"/>
				<path class="st8" d="M661,170.9h-2.3v-14h2.3v2.3c0.8-1.6,2.3-2.5,4.5-2.5v2.4H665c-2.2,0-3.9,1-3.9,4.2V170.9z"/>
				<path class="st8" d="M674.3,171.1c-4,0-6.9-2.8-6.9-7.3c0-4.4,2.8-7.2,6.9-7.2c4.1,0,6.7,2.9,6.7,6.7c0,0.5,0,0.9-0.1,1.4h-11.2
					c0.2,2.8,2.2,4.4,4.5,4.4c2.1,0,3.4-1.1,3.9-2.6h2.5C680,169.1,677.8,171.1,674.3,171.1z M669.8,162.8h8.8c0-2.7-2-4.2-4.4-4.2
					C671.9,158.6,670,160.1,669.8,162.8z"/>
				<path class="st8" d="M704.3,162.9c0-2.9-1.5-4.3-3.8-4.3c-2.4,0-4,1.5-4,4.5v7.7h-2.3v-7.9c0-2.9-1.5-4.3-3.8-4.3
					c-2.4,0-4,1.5-4,4.5v7.7h-2.3v-14h2.3v2c0.9-1.5,2.6-2.3,4.4-2.3c2.3,0,4.2,1,5.1,3.1c0.8-2,2.8-3.1,5-3.1c3.2,0,5.7,2,5.7,6
					v8.3h-2.3V162.9z"/>
				<path class="st8" d="M710,153c0-0.9,0.7-1.6,1.6-1.6c0.8,0,1.5,0.7,1.5,1.6s-0.7,1.6-1.5,1.6C710.7,154.6,710,153.9,710,153z
					 M710.4,156.8h2.3v14h-2.3V156.8z"/>
				<path class="st8" d="M722.8,171.1c-4,0-6.9-2.8-6.9-7.3c0-4.4,2.8-7.2,6.9-7.2c4.1,0,6.7,2.9,6.7,6.7c0,0.5,0,0.9-0.1,1.4h-11.2
					c0.2,2.8,2.2,4.4,4.5,4.4c2.1,0,3.4-1.1,3.9-2.6h2.5C728.5,169.1,726.2,171.1,722.8,171.1z M718.2,162.8h8.8
					c0-2.7-2-4.2-4.4-4.2C720.4,158.6,718.5,160.1,718.2,162.8z"/>
				<path class="st8" d="M734.9,170.9h-2.3v-14h2.3v2.3c0.8-1.6,2.3-2.5,4.5-2.5v2.4h-0.6c-2.2,0-3.9,1-3.9,4.2V170.9z"/>
				<path class="st8" d="M748.1,171.1c-4,0-6.9-2.8-6.9-7.3c0-4.4,2.8-7.2,6.9-7.2c4.1,0,6.7,2.9,6.7,6.7c0,0.5,0,0.9-0.1,1.4h-11.2
					c0.2,2.8,2.2,4.4,4.5,4.4c2.1,0,3.4-1.1,3.9-2.6h2.5C753.9,169.1,751.6,171.1,748.1,171.1z M743.6,162.8h8.8
					c0-2.7-2-4.2-4.4-4.2C745.8,158.6,743.9,160.1,743.6,162.8z"/>
				<path class="st8" d="M770.5,163.4h-3.4v7.4h-2.3V153h5.8c4.2,0,6.2,2.3,6.2,5.2C776.7,161,774.9,163.4,770.5,163.4z
					 M770.5,161.5c2.7,0,3.8-1.3,3.8-3.2c0-2.1-1.1-3.3-3.8-3.3h-3.4v6.5H770.5z"/>
				<path class="st8" d="M781.9,170.9h-2.3v-14h2.3v2.3c0.8-1.6,2.3-2.5,4.5-2.5v2.4h-0.6c-2.2,0-3.9,1-3.9,4.2V170.9z"/>
				<path class="st8" d="M795.2,171.1c-4,0-7-2.8-7-7.3c0-4.4,3.1-7.2,7.1-7.2c4,0,7.1,2.8,7.1,7.2
					C802.4,168.3,799.2,171.1,795.2,171.1z M795.2,169c2.4,0,4.8-1.7,4.8-5.2c0-3.5-2.3-5.2-4.7-5.2c-2.5,0-4.7,1.7-4.7,5.2
					C790.6,167.4,792.8,169,795.2,169z"/>
			</g>
			<g>
				<path class="st8" d="M459.8,305.2H470v2h-10.2V305.2z"/>
				<path class="st8" d="M492.6,307.5h-9.1v8.1h-2.3v-17.8h2.3v7.8h9.1v-7.8h2.3v17.8h-2.3V307.5z"/>
				<path class="st8" d="M497.8,297.8h12.1v1.9H505v15.9h-2.3v-15.9h-4.9V297.8z"/>
				<path class="st8" d="M512.7,297.9h2.5l6.5,14.6l6.5-14.6h2.5v17.7h-2.3v-13.2l-5.9,13.2h-1.6l-5.9-13.2v13.2h-2.3V297.9z"/>
				<path class="st8" d="M537,297.8v15.9h6.2v1.9h-8.6v-17.8H537z"/>
				<path class="st8" d="M545.6,312.4h2.6l-2.9,6.9h-1.6L545.6,312.4z"/>
				<path class="st8" d="M565.7,297.5c3.9,0,6.9,1.9,8.3,5.4h-2.8c-1-2.1-2.9-3.3-5.5-3.3c-3.7,0-6.5,2.7-6.5,7.1
					c0,4.3,2.8,7.1,6.5,7.1c2.6,0,4.5-1.2,5.5-3.3h2.8c-1.3,3.4-4.4,5.3-8.3,5.3c-5,0-8.9-3.7-8.9-9.1S560.7,297.5,565.7,297.5z"/>
				<path class="st8" d="M583,315.8c-3.6,0-6.1-2-6.2-4.9h2.5c0.2,1.5,1.2,3,3.7,3c2.2,0,3.6-1.3,3.6-3c0-4.8-9.6-1.7-9.6-8.4
					c0-2.9,2.4-4.9,5.9-4.9c3.4,0,5.6,1.9,5.9,4.6h-2.6c-0.2-1.2-1.3-2.6-3.5-2.6c-1.9-0.1-3.4,0.9-3.4,2.9c0,4.6,9.6,1.7,9.6,8.3
					C588.9,313.3,586.9,315.8,583,315.8z"/>
				<path class="st8" d="M598,315.8c-3.6,0-6.1-2-6.2-4.9h2.5c0.2,1.5,1.2,3,3.7,3c2.2,0,3.6-1.3,3.6-3c0-4.8-9.6-1.7-9.6-8.4
					c0-2.9,2.4-4.9,5.9-4.9c3.4,0,5.6,1.9,5.9,4.6h-2.6c-0.2-1.2-1.3-2.6-3.5-2.6c-1.9-0.1-3.4,0.9-3.4,2.9c0,4.6,9.6,1.7,9.6,8.3
					C604,313.3,601.9,315.8,598,315.8z"/>
				<path class="st8" d="M607.2,312.4h2.6l-2.9,6.9h-1.6L607.2,312.4z"/>
				<path class="st8" d="M621.7,301.6v17c0,2.5-1.3,3.6-3.7,3.6h-1.4v-2h1c1.3,0,1.8-0.5,1.8-1.7v-17H621.7z M619,297.7
					c0-0.9,0.7-1.6,1.6-1.6c0.9,0,1.6,0.7,1.6,1.6s-0.7,1.6-1.6,1.6C619.6,299.3,619,298.6,619,297.7z"/>
				<path class="st8" d="M638.4,314.5l4.5,4.5h-3l-3.6-3.6c-0.8,0.2-1.7,0.4-2.7,0.4c-5,0-8.9-3.8-8.9-9.1s3.9-9.1,8.9-9.1
					c5,0,8.9,3.8,8.9,9.1C642.6,310.1,641,313,638.4,314.5z M633.7,313.7c3.8,0,6.6-2.7,6.6-7.1c0-4.4-2.8-7.1-6.6-7.1
					c-3.8,0-6.6,2.7-6.6,7.1C627.1,311,629.9,313.7,633.7,313.7z"/>
				<path class="st8" d="M658.2,315.6h-2.3v-2.1c-0.9,1.5-2.6,2.3-4.5,2.3c-3.2,0-5.8-2-5.8-6v-8.2h2.3v7.9c0,2.8,1.6,4.3,3.9,4.3
					c2.4,0,4-1.5,4-4.5v-7.7h2.3V315.6z"/>
				<path class="st8" d="M668.2,315.8c-4,0-6.9-2.8-6.9-7.3c0-4.4,2.8-7.2,6.9-7.2c4.1,0,6.7,2.9,6.7,6.7c0,0.5,0,0.9-0.1,1.4h-11.2
					c0.2,2.8,2.2,4.4,4.5,4.4c2.1,0,3.4-1.1,3.9-2.6h2.5C673.9,313.8,671.6,315.8,668.2,315.8z M663.6,307.6h8.8
					c0-2.7-2-4.2-4.4-4.2C665.8,303.3,663.9,304.8,663.6,307.6z"/>
				<path class="st8" d="M680.3,315.6h-2.3v-14h2.3v2.3c0.8-1.6,2.3-2.5,4.5-2.5v2.4h-0.6c-2.2,0-3.9,1-3.9,4.2V315.6z"/>
				<path class="st8" d="M697.1,301.6h2.4l-8.4,20.6h-2.4l2.8-6.7l-5.6-13.9h2.6l4.4,11.3L697.1,301.6z"/>
				<path class="st8" d="M717.1,301.6c0.1-1.5-0.9-2.2-2.2-2.2c-1.4,0-2.3,0.9-2.3,2c0,1,0.6,1.9,1.8,3.2l5.3,5.3
					c0.2-0.2,0.3-0.5,0.5-0.7l1.7-2.9h2.5l-2.1,3.6c-0.3,0.6-0.7,1.1-1,1.6l4,4h-3l-2.3-2.4c-1.7,1.8-3.6,2.7-6.1,2.7
					c-3.7,0-6.2-2.1-6.2-5.4c0-2.5,1.4-4.4,4.2-5.5c-1.1-1.3-1.5-2.3-1.5-3.6c0-2.3,1.8-4,4.7-4c2.8,0,4.5,1.8,4.4,4.2H717.1z
					 M718.5,311.7l-5.2-5.3c-2.2,0.8-3.3,2.2-3.3,4c0,2,1.6,3.5,3.9,3.5C715.7,313.9,717.2,313.2,718.5,311.7z"/>
				<path class="st8" d="M741,297.8h2.4v13.2c0,3-2,4.8-4.9,4.8c-3,0-5-1.9-5-5h2.3c0,1.6,0.8,2.9,2.6,2.9c1.8,0,2.6-1.3,2.6-2.8
					V297.8z"/>
				<path class="st8" d="M753.7,301.3c2.6,0,4.4,1.3,5.2,2.8v-2.6h2.4v14h-2.4V313c-0.8,1.5-2.7,2.8-5.2,2.8c-3.7,0-6.6-2.9-6.6-7.3
					C747.1,304.2,750,301.3,753.7,301.3z M754.2,303.4c-2.6,0-4.7,1.9-4.7,5.2c0,3.3,2.2,5.2,4.7,5.2s4.8-1.9,4.8-5.2
					C758.9,305.3,756.7,303.4,754.2,303.4z"/>
				<path class="st8" d="M766.1,301.6l4.4,11.9l4.3-11.9h2.5l-5.5,14h-2.7l-5.5-14H766.1z"/>
				<path class="st8" d="M785.3,301.3c2.6,0,4.4,1.3,5.2,2.8v-2.6h2.4v14h-2.4V313c-0.8,1.5-2.7,2.8-5.2,2.8c-3.7,0-6.6-2.9-6.6-7.3
					C778.7,304.2,781.6,301.3,785.3,301.3z M785.8,303.4c-2.6,0-4.7,1.9-4.7,5.2c0,3.3,2.2,5.2,4.7,5.2s4.8-1.9,4.8-5.2
					C790.5,305.3,788.3,303.4,785.8,303.4z"/>
				<path class="st8" d="M802.5,315.8c-3.6,0-6.1-2-6.2-4.9h2.5c0.2,1.5,1.2,3,3.7,3c2.2,0,3.6-1.3,3.6-3c0-4.8-9.6-1.7-9.6-8.4
					c0-2.9,2.4-4.9,5.9-4.9c3.4,0,5.6,1.9,5.9,4.6h-2.6c-0.2-1.2-1.3-2.6-3.5-2.6c-1.9-0.1-3.4,0.9-3.4,2.9c0,4.6,9.6,1.7,9.6,8.3
					C808.4,313.3,806.3,315.8,802.5,315.8z"/>
				<path class="st8" d="M817.8,301.3c3.5,0,5.8,1.8,6.5,4.7h-2.5c-0.5-1.7-1.9-2.8-4-2.8c-2.6,0-4.4,1.8-4.4,5.2
					c0,3.5,1.9,5.3,4.4,5.3c2.1,0,3.5-1,4-2.8h2.5c-0.7,2.8-3,4.7-6.5,4.7c-4,0-6.8-2.8-6.8-7.3C811,304.2,813.8,301.3,817.8,301.3z
					"/>
				<path class="st8" d="M829.7,315.6h-2.3v-14h2.3v2.3c0.8-1.6,2.3-2.5,4.5-2.5v2.4h-0.6c-2.2,0-3.9,1-3.9,4.2V315.6z"/>
				<path class="st8" d="M836.5,297.7c0-0.9,0.7-1.6,1.6-1.6c0.8,0,1.5,0.7,1.5,1.6s-0.7,1.6-1.5,1.6
					C837.2,299.3,836.5,298.6,836.5,297.7z M836.9,301.6h2.3v14h-2.3V301.6z"/>
				<path class="st8" d="M850.7,301.3c3.8,0,6.6,2.8,6.6,7.2c0,4.3-2.9,7.3-6.6,7.3c-2.6,0-4.4-1.4-5.2-2.8v9.2h-2.3v-20.7h2.3v2.6
					C846.3,302.7,848.2,301.3,850.7,301.3z M850.2,303.4c-2.5,0-4.8,1.9-4.8,5.2c0,3.3,2.2,5.2,4.8,5.2c2.6,0,4.8-1.9,4.8-5.2
					C855,305.2,852.8,303.4,850.2,303.4z"/>
				<path class="st8" d="M861,303.5h-1.8v-1.9h1.8V298h2.3v3.5h3.7v1.9h-3.7v8.3c0,1.4,0.5,1.9,1.9,1.9h1.7v2h-2.1
					c-2.5,0-3.9-1-3.9-3.8V303.5z"/>
			</g>
			<g>
				<path class="st8" d="M459.8,357.1H470v2h-10.2V357.1z"/>
				<path class="st8" d="M491.8,363.5H484l-1.4,4h-2.5l6.4-17.7h2.7l6.4,17.7h-2.5L491.8,363.5z M487.9,352.6l-3.2,9h6.4
					L487.9,352.6z"/>
				<path class="st8" d="M510.9,367.5h-2.3v-2.1c-0.9,1.5-2.6,2.3-4.5,2.3c-3.2,0-5.8-2-5.8-6v-8.2h2.3v7.9c0,2.8,1.6,4.3,3.9,4.3
					c2.4,0,4-1.5,4-4.5v-7.7h2.3V367.5z"/>
				<path class="st8" d="M515.3,355.4h-1.8v-1.9h1.8V350h2.3v3.5h3.7v1.9h-3.7v8.3c0,1.4,0.5,1.9,1.9,1.9h1.7v2h-2.1
					c-2.5,0-3.9-1-3.9-3.8V355.4z"/>
				<path class="st8" d="M530.2,367.7c-4,0-7-2.8-7-7.3c0-4.4,3.1-7.2,7.1-7.2c4,0,7.1,2.8,7.1,7.2
					C537.4,364.9,534.2,367.7,530.2,367.7z M530.2,365.7c2.4,0,4.8-1.7,4.8-5.2c0-3.5-2.3-5.2-4.7-5.2c-2.5,0-4.7,1.7-4.7,5.2
					C525.6,364,527.8,365.7,530.2,365.7z"/>
				<path class="st8" d="M546.3,353.2c2.2,0,4.2,1.1,5.2,2.7v-7.4h2.4v18.9h-2.4v-2.6c-0.8,1.6-2.7,2.9-5.2,2.9
					c-3.8,0-6.6-2.9-6.6-7.3C539.6,356.1,542.5,353.2,546.3,353.2z M546.7,355.3c-2.6,0-4.7,1.9-4.7,5.2c0,3.3,2.2,5.2,4.7,5.2
					s4.8-1.9,4.8-5.2C551.5,357.2,549.3,355.3,546.7,355.3z"/>
				<path class="st8" d="M563.8,367.7c-4,0-6.9-2.8-6.9-7.3c0-4.4,2.8-7.2,6.9-7.2c4.1,0,6.7,2.9,6.7,6.7c0,0.5,0,0.9-0.1,1.4h-11.2
					c0.2,2.8,2.2,4.4,4.5,4.4c2.1,0,3.4-1.1,3.9-2.6h2.5C569.5,365.7,567.3,367.7,563.8,367.7z M559.3,359.5h8.8
					c0-2.7-2-4.2-4.4-4.2C561.4,355.2,559.5,356.7,559.3,359.5z"/>
				<path class="st8" d="M578.5,367.7c-3.3,0-5.6-1.8-5.7-4.3h2.4c0.1,1.4,1.3,2.4,3.3,2.4c1.8,0,2.9-0.9,2.9-2.1
					c0-3.1-8.3-1.3-8.3-6.5c0-2.1,2-3.9,5.1-3.9c3.1,0,5.1,1.7,5.3,4.4h-2.3c-0.1-1.4-1.2-2.4-3-2.4c-1.7,0-2.7,0.8-2.7,1.9
					c0,3.3,8.1,1.5,8.2,6.5C583.7,366,581.6,367.7,578.5,367.7z"/>
				<path class="st8" d="M586.9,348.6h2.3v11.1l5.4-6.2h3.2l-6.6,7l6.6,7h-3.2l-5.5-6.2v6.2h-2.3V348.6z"/>
				<path class="st8" d="M606.9,349.8h2.5l6.5,14.6l6.5-14.6h2.5v17.7h-2.3v-13.2l-5.9,13.2h-1.6l-5.9-13.2v13.2h-2.3V349.8z"/>
				<path class="st8" d="M634.7,353.2c2.6,0,4.4,1.3,5.2,2.8v-2.6h2.4v14h-2.4v-2.6c-0.8,1.5-2.7,2.8-5.2,2.8
					c-3.7,0-6.6-2.9-6.6-7.3C628.1,356.1,630.9,353.2,634.7,353.2z M635.2,355.3c-2.6,0-4.7,1.9-4.7,5.2c0,3.3,2.2,5.2,4.7,5.2
					s4.8-1.9,4.8-5.2C639.9,357.2,637.7,355.3,635.2,355.3z"/>
				<path class="st8" d="M655.9,353.5h2.4l-8.4,20.6h-2.4l2.8-6.7l-5.6-13.9h2.6l4.4,11.3L655.9,353.5z"/>
				<path class="st8" d="M666.4,353.2c2.6,0,4.4,1.3,5.2,2.8v-2.6h2.4v14h-2.4v-2.6c-0.8,1.5-2.7,2.8-5.2,2.8
					c-3.7,0-6.6-2.9-6.6-7.3C659.7,356.1,662.6,353.2,666.4,353.2z M666.8,355.3c-2.6,0-4.7,1.9-4.7,5.2c0,3.3,2.2,5.2,4.7,5.2
					s4.8-1.9,4.8-5.2C671.6,357.2,669.4,355.3,666.8,355.3z"/>
			</g>
			<g>
				<path class="st8" d="M459.8,477.9H470v2h-10.2V477.9z"/>
				<path class="st8" d="M481.2,470.6h2.5l6.5,14.6l6.5-14.6h2.5v17.7H497v-13.2l-5.9,13.2h-1.6l-5.9-13.2v13.2h-2.3V470.6z"/>
				<path class="st8" d="M502.8,470.4c0-0.9,0.7-1.6,1.6-1.6c0.8,0,1.5,0.7,1.5,1.6s-0.7,1.6-1.5,1.6
					C503.5,472,502.8,471.3,502.8,470.4z M503.2,474.3h2.3v14h-2.3V474.3z"/>
				<path class="st8" d="M515.5,474c3.5,0,5.8,1.8,6.5,4.7h-2.5c-0.5-1.7-1.9-2.8-4-2.8c-2.6,0-4.4,1.8-4.4,5.2
					c0,3.5,1.9,5.3,4.4,5.3c2.1,0,3.5-1,4-2.8h2.5c-0.7,2.8-3,4.7-6.5,4.7c-4,0-6.8-2.8-6.8-7.3C508.6,476.8,511.5,474,515.5,474z"
					/>
				<path class="st8" d="M527.4,488.3H525v-14h2.3v2.3c0.8-1.6,2.3-2.5,4.5-2.5v2.4h-0.6c-2.2,0-3.9,1-3.9,4.2V488.3z"/>
				<path class="st8" d="M540.7,488.5c-4,0-7-2.8-7-7.3c0-4.4,3.1-7.2,7.1-7.2c4,0,7.1,2.8,7.1,7.2
					C547.9,485.7,544.7,488.5,540.7,488.5z M540.7,486.4c2.4,0,4.8-1.7,4.8-5.2c0-3.5-2.3-5.2-4.7-5.2c-2.5,0-4.7,1.7-4.7,5.2
					C536.1,484.8,538.2,486.4,540.7,486.4z"/>
				<path class="st8" d="M555.9,488.5c-3.3,0-5.6-1.8-5.7-4.3h2.4c0.1,1.4,1.3,2.4,3.3,2.4c1.8,0,2.9-0.9,2.9-2.1
					c0-3.1-8.3-1.3-8.3-6.5c0-2.1,2-3.9,5.1-3.9c3.1,0,5.1,1.7,5.3,4.4h-2.3c-0.1-1.4-1.2-2.4-3-2.4c-1.7,0-2.7,0.8-2.7,1.9
					c0,3.3,8.1,1.5,8.2,6.5C561,486.8,559,488.5,555.9,488.5z"/>
				<path class="st8" d="M570.4,488.5c-4,0-7-2.8-7-7.3c0-4.4,3.1-7.2,7.1-7.2c4,0,7.1,2.8,7.1,7.2
					C577.5,485.7,574.4,488.5,570.4,488.5z M570.4,486.4c2.4,0,4.8-1.7,4.8-5.2c0-3.5-2.3-5.2-4.7-5.2c-2.5,0-4.7,1.7-4.7,5.2
					C565.8,484.8,567.9,486.4,570.4,486.4z"/>
				<path class="st8" d="M581,476.2h-1.8v-1.9h1.8v-1c0-3.1,1.5-4.5,5.1-4.5v1.9c-2.1,0-2.8,0.8-2.8,2.6v1h2.9v1.9h-2.9v12.1H581
					V476.2z"/>
				<path class="st8" d="M589.5,476.2h-1.8v-1.9h1.8v-3.5h2.3v3.5h3.7v1.9h-3.7v8.3c0,1.4,0.5,1.9,1.9,1.9h1.7v2h-2.1
					c-2.5,0-3.9-1-3.9-3.8V476.2z"/>
				<path class="st8" d="M613.2,488.4c-5,0-8.9-3.8-8.9-9.1s3.9-9.1,8.9-9.1c5,0,8.9,3.8,8.9,9.1S618.3,488.4,613.2,488.4z
					 M613.2,486.4c3.8,0,6.6-2.7,6.6-7.1c0-4.4-2.8-7.1-6.6-7.1c-3.8,0-6.6,2.7-6.6,7.1C606.7,483.7,609.5,486.4,613.2,486.4z"/>
				<path class="st8" d="M625.7,476.2h-1.8v-1.9h1.8v-1c0-3.1,1.5-4.5,5.1-4.5v1.9c-2.1,0-2.8,0.8-2.8,2.6v1h2.9v1.9H628v12.1h-2.3
					V476.2z"/>
				<path class="st8" d="M634.1,476.2h-1.8v-1.9h1.8v-1c0-3.1,1.5-4.5,5.1-4.5v1.9c-2.1,0-2.8,0.8-2.8,2.6v1h2.9v1.9h-2.9v12.1h-2.3
					V476.2z"/>
				<path class="st8" d="M641.7,470.4c0-0.9,0.7-1.6,1.6-1.6c0.8,0,1.5,0.7,1.5,1.6s-0.7,1.6-1.5,1.6
					C642.4,472,641.7,471.3,641.7,470.4z M642.1,474.3h2.3v14h-2.3V474.3z"/>
				<path class="st8" d="M654.3,474c3.5,0,5.8,1.8,6.5,4.7h-2.5c-0.5-1.7-1.9-2.8-4-2.8c-2.6,0-4.4,1.8-4.4,5.2
					c0,3.5,1.9,5.3,4.4,5.3c2.1,0,3.5-1,4-2.8h2.5c-0.7,2.8-3,4.7-6.5,4.7c-4,0-6.8-2.8-6.8-7.3C647.5,476.8,650.3,474,654.3,474z"
					/>
				<path class="st8" d="M669.9,488.5c-4,0-6.9-2.8-6.9-7.3c0-4.4,2.8-7.2,6.9-7.2c4.1,0,6.7,2.9,6.7,6.7c0,0.5,0,0.9-0.1,1.4h-11.2
					c0.2,2.8,2.2,4.4,4.5,4.4c2.1,0,3.4-1.1,3.9-2.6h2.5C675.6,486.5,673.4,488.5,669.9,488.5z M665.4,480.2h8.8
					c0-2.7-2-4.2-4.4-4.2C667.5,476,665.6,477.5,665.4,480.2z"/>
			</g>
			<g>
				<path class="st8" d="M459.8,418.5H470v2h-10.2V418.5z"/>
				<path class="st8" d="M481.2,411.1h2.3v11.3c0,3.3,1.8,4.7,4.4,4.7s4.4-1.4,4.4-4.7v-11.3h2.3v11.2c0,4.6-3,6.7-6.7,6.7
					s-6.7-2.1-6.7-6.7V411.1z"/>
				<path class="st8" d="M508.7,421c0-2.9-1.6-4.3-3.9-4.3c-2.4,0-4,1.5-4,4.5v7.7h-2.3v-14h2.3v2c0.9-1.5,2.6-2.2,4.5-2.2
					c3.2,0,5.7,2,5.7,6v8.3h-2.3V421z"/>
				<path class="st8" d="M514.4,411c0-0.9,0.7-1.6,1.6-1.6c0.8,0,1.5,0.7,1.5,1.6s-0.7,1.6-1.5,1.6
					C515.1,412.6,514.4,411.9,514.4,411z M514.8,414.9h2.3v14h-2.3V414.9z"/>
				<path class="st8" d="M521.6,416.8h-1.8v-1.9h1.8v-3.5h2.3v3.5h3.7v1.9H524v8.3c0,1.4,0.5,1.9,1.9,1.9h1.7v2h-2.1
					c-2.5,0-3.9-1-3.9-3.8V416.8z"/>
				<path class="st8" d="M540.1,414.9h2.4l-8.4,20.6h-2.4l2.8-6.7l-5.6-13.9h2.6l4.4,11.3L540.1,414.9z"/>
			</g>
		</g>
		<g>
			<g>
				<path class="st8" d="M53.5,129.8h10.2v2H53.5V129.8z"/>
				<path class="st8" d="M74.9,122.4h2.3v11.3c0,3.3,1.8,4.7,4.4,4.7c2.6,0,4.4-1.4,4.4-4.7v-11.3h2.3v11.2c0,4.6-3,6.7-6.7,6.7
					c-3.7,0-6.7-2.1-6.7-6.7V122.4z"/>
				<path class="st8" d="M98,133.2l-4.1,7h-2.6l5.4-8.9l-5.5-8.9h2.6l4.3,7l4.1-7h2.6l-5.5,8.9l5.5,8.9h-2.6L98,133.2z"/>
				<path class="st8" d="M123.3,126.2c0.1-1.5-0.9-2.2-2.2-2.2c-1.4,0-2.3,0.9-2.3,2c0,1,0.6,1.9,1.8,3.2l5.3,5.3
					c0.2-0.2,0.3-0.5,0.5-0.7l1.7-2.9h2.5l-2.1,3.6c-0.3,0.6-0.7,1.1-1,1.6l4,4h-3l-2.3-2.4c-1.7,1.8-3.6,2.7-6.1,2.7
					c-3.7,0-6.2-2.1-6.2-5.4c0-2.5,1.4-4.4,4.2-5.5c-1.1-1.3-1.5-2.3-1.5-3.6c0-2.3,1.8-4,4.7-4c2.8,0,4.5,1.8,4.4,4.2H123.3z
					 M124.7,136.3l-5.2-5.3c-2.2,0.8-3.3,2.2-3.3,4c0,2,1.6,3.5,3.9,3.5C121.9,138.5,123.3,137.8,124.7,136.3z"/>
				<path class="st8" d="M140.5,122.4h2.3v11.3c0,3.3,1.8,4.7,4.4,4.7c2.6,0,4.4-1.4,4.4-4.7v-11.3h2.3v11.2c0,4.6-3,6.7-6.7,6.7
					c-3.7,0-6.7-2.1-6.7-6.7V122.4z"/>
				<path class="st8" d="M157.8,122.4h2.3v17.8h-2.3V122.4z"/>
				<path class="st8" d="M185.9,131.3c0,5.5-3.6,8.9-9.5,8.9h-5.5v-17.8h5.5C182.3,122.4,185.9,125.8,185.9,131.3z M176.5,138.3
					c4.7,0,7.1-2.6,7.1-7c0-4.3-2.4-7.1-7.1-7.1h-3.2v14H176.5z"/>
				<path class="st8" d="M195,140.4c-4,0-6.9-2.8-6.9-7.3c0-4.4,2.8-7.2,6.9-7.2c4.1,0,6.7,2.9,6.7,6.7c0,0.5,0,0.9-0.1,1.4h-11.2
					c0.2,2.8,2.2,4.4,4.5,4.4c2.1,0,3.4-1.1,3.9-2.6h2.5C200.8,138.4,198.5,140.4,195,140.4z M190.5,132.2h8.8c0-2.7-2-4.2-4.4-4.2
					C192.7,127.9,190.8,129.4,190.5,132.2z"/>
				<path class="st8" d="M209.8,140.4c-3.3,0-5.6-1.8-5.7-4.3h2.4c0.1,1.4,1.3,2.4,3.3,2.4c1.8,0,2.9-0.9,2.9-2.1
					c0-3.1-8.3-1.3-8.3-6.5c0-2.1,2-3.9,5.1-3.9c3.1,0,5.1,1.7,5.3,4.4h-2.3c-0.1-1.4-1.2-2.4-3-2.4c-1.7,0-2.7,0.8-2.7,1.9
					c0,3.3,8.1,1.5,8.2,6.5C214.9,138.7,212.9,140.4,209.8,140.4z"/>
				<path class="st8" d="M217.8,122.3c0-0.9,0.7-1.6,1.6-1.6c0.8,0,1.5,0.7,1.5,1.6s-0.7,1.6-1.5,1.6
					C218.5,123.9,217.8,123.2,217.8,122.3z M218.2,126.2h2.3v14h-2.3V126.2z"/>
				<path class="st8" d="M230.2,125.9c2.6,0,4.4,1.3,5.2,2.8v-2.6h2.4v14.3c0,3.9-2.6,6.6-6.7,6.6c-3.7,0-6.3-1.9-6.8-4.9h2.3
					c0.5,1.7,2.2,2.8,4.5,2.8c2.5,0,4.3-1.6,4.3-4.6v-2.9c-0.8,1.5-2.7,2.9-5.2,2.9c-3.8,0-6.6-2.9-6.6-7.3
					C223.6,128.8,226.5,125.9,230.2,125.9z M230.7,128c-2.6,0-4.7,1.9-4.7,5.2s2.2,5.2,4.7,5.2c2.6,0,4.8-1.9,4.8-5.2
					C235.5,129.9,233.3,128,230.7,128z"/>
				<path class="st8" d="M252,132.3c0-2.9-1.6-4.3-3.9-4.3c-2.4,0-4,1.5-4,4.5v7.7h-2.3v-14h2.3v2c0.9-1.5,2.6-2.2,4.5-2.2
					c3.2,0,5.7,2,5.7,6v8.3H252V132.3z"/>
			</g>
			<g>
				<path class="st8" d="M53.5,269.6h10.2v2H53.5V269.6z"/>
				<path class="st8" d="M73.5,262.1H76l3.9,15.1l4.3-15.1h2.6l4.1,15.1l3.9-15.1h2.5L92.1,280h-2.6l-4.1-14.3L81.1,280l-2.6,0
					L73.5,262.1z"/>
				<path class="st8" d="M105.9,280.2c-4,0-6.9-2.8-6.9-7.3c0-4.4,2.8-7.2,6.9-7.2c4.1,0,6.7,2.9,6.7,6.7c0,0.5,0,0.9-0.1,1.4h-11.2
					c0.2,2.8,2.2,4.4,4.5,4.4c2.1,0,3.4-1.1,3.9-2.6h2.5C111.6,278.2,109.4,280.2,105.9,280.2z M101.4,271.9h8.8
					c0-2.7-2-4.2-4.4-4.2C103.5,267.7,101.6,269.2,101.4,271.9z"/>
				<path class="st8" d="M123.3,265.7c3.8,0,6.6,2.8,6.6,7.2c0,4.3-2.9,7.3-6.6,7.3c-2.6,0-4.4-1.3-5.2-2.8v2.6h-2.3V261h2.3v7.5
					C118.9,267,120.8,265.7,123.3,265.7z M122.8,267.7c-2.5,0-4.8,1.9-4.8,5.2c0,3.3,2.2,5.2,4.8,5.2c2.6,0,4.8-1.9,4.8-5.2
					C127.5,269.6,125.4,267.7,122.8,267.7z"/>
				<path class="st8" d="M148.2,265.9c0.1-1.5-0.9-2.2-2.2-2.2c-1.4,0-2.3,0.9-2.3,2c0,1,0.6,1.9,1.8,3.2l5.3,5.3
					c0.2-0.2,0.3-0.5,0.5-0.7l1.7-2.9h2.5l-2.1,3.6c-0.3,0.6-0.7,1.1-1,1.6l4,4h-3l-2.3-2.4c-1.7,1.8-3.6,2.7-6.1,2.7
					c-3.7,0-6.2-2.1-6.2-5.4c0-2.5,1.4-4.4,4.2-5.5c-1.1-1.3-1.5-2.3-1.5-3.6c0-2.3,1.8-4,4.7-4c2.8,0,4.5,1.8,4.4,4.2H148.2z
					 M149.6,276.1l-5.2-5.3c-2.2,0.8-3.3,2.2-3.3,4c0,2,1.6,3.5,3.9,3.5C146.8,278.3,148.3,277.6,149.6,276.1z"/>
				<path class="st8" d="M176,276h-7.8l-1.4,4h-2.5l6.4-17.7h2.7l6.4,17.7h-2.5L176,276z M172.1,265.1l-3.2,9h6.4L172.1,265.1z"/>
				<path class="st8" d="M190.3,265.7c3.8,0,6.6,2.8,6.6,7.2c0,4.3-2.9,7.3-6.6,7.3c-2.6,0-4.4-1.4-5.2-2.8v9.2h-2.3v-20.7h2.3v2.6
					C185.9,267,187.7,265.7,190.3,265.7z M189.8,267.7c-2.5,0-4.8,1.9-4.8,5.2c0,3.3,2.2,5.2,4.8,5.2c2.6,0,4.8-1.9,4.8-5.2
					C194.6,269.6,192.4,267.7,189.8,267.7z"/>
				<path class="st8" d="M207.6,265.7c3.8,0,6.6,2.8,6.6,7.2c0,4.3-2.9,7.3-6.6,7.3c-2.6,0-4.4-1.4-5.2-2.8v9.2H200v-20.7h2.3v2.6
					C203.2,267,205,265.7,207.6,265.7z M207.1,267.7c-2.5,0-4.8,1.9-4.8,5.2c0,3.3,2.2,5.2,4.8,5.2c2.6,0,4.8-1.9,4.8-5.2
					C211.8,269.6,209.7,267.7,207.1,267.7z"/>
				<path class="st8" d="M239.1,271.1c0,5.5-3.6,8.9-9.5,8.9h-5.5v-17.8h5.5C235.5,262.1,239.1,265.6,239.1,271.1z M229.7,278
					c4.7,0,7.1-2.6,7.1-7c0-4.3-2.4-7.1-7.1-7.1h-3.2v14H229.7z"/>
				<path class="st8" d="M248.2,280.2c-4,0-6.9-2.8-6.9-7.3c0-4.4,2.8-7.2,6.9-7.2c4.1,0,6.7,2.9,6.7,6.7c0,0.5,0,0.9-0.1,1.4h-11.2
					c0.2,2.8,2.2,4.4,4.5,4.4c2.1,0,3.4-1.1,3.9-2.6h2.5C254,278.2,251.7,280.2,248.2,280.2z M243.7,271.9h8.8c0-2.7-2-4.2-4.4-4.2
					C245.9,267.7,244,269.2,243.7,271.9z"/>
				<path class="st8" d="M263,280.2c-3.3,0-5.6-1.8-5.7-4.3h2.4c0.1,1.4,1.3,2.4,3.3,2.4c1.8,0,2.9-0.9,2.9-2.1
					c0-3.1-8.3-1.3-8.3-6.5c0-2.1,2-3.9,5.1-3.9c3.1,0,5.1,1.7,5.3,4.4h-2.3c-0.1-1.4-1.2-2.4-3-2.4c-1.7,0-2.7,0.8-2.7,1.9
					c0,3.3,8.1,1.5,8.2,6.5C268.1,278.4,266.1,280.2,263,280.2z"/>
				<path class="st8" d="M271,262.1c0-0.9,0.7-1.6,1.6-1.6c0.8,0,1.5,0.7,1.5,1.6s-0.7,1.6-1.5,1.6C271.7,263.7,271,263,271,262.1z
					 M271.4,265.9h2.3v14h-2.3V265.9z"/>
				<path class="st8" d="M283.4,265.7c2.6,0,4.4,1.3,5.2,2.8v-2.6h2.4v14.3c0,3.9-2.6,6.6-6.7,6.6c-3.7,0-6.3-1.9-6.8-4.9h2.3
					c0.5,1.7,2.2,2.8,4.5,2.8c2.5,0,4.3-1.6,4.3-4.6v-2.9c-0.8,1.5-2.7,2.9-5.2,2.9c-3.8,0-6.6-2.9-6.6-7.3
					C276.8,268.5,279.7,265.7,283.4,265.7z M283.9,267.7c-2.6,0-4.7,1.9-4.7,5.2c0,3.3,2.2,5.2,4.7,5.2c2.6,0,4.8-1.9,4.8-5.2
					C288.6,269.7,286.4,267.7,283.9,267.7z"/>
				<path class="st8" d="M305.2,272c0-2.9-1.6-4.3-3.9-4.3c-2.4,0-4,1.5-4,4.5v7.7h-2.3v-14h2.3v2c0.9-1.5,2.6-2.2,4.5-2.2
					c3.2,0,5.7,2,5.7,6v8.3h-2.3V272z"/>
			</g>
			<g>
				<path class="st8" d="M53.5,182.1h10.2v2H53.5V182.1z"/>
				<path class="st8" d="M74.9,174.6h2.3v17.8h-2.3V174.6z"/>
				<path class="st8" d="M91.7,188.5h-7.8l-1.4,4h-2.5l6.4-17.7h2.7l6.4,17.7h-2.5L91.7,188.5z M87.8,177.6l-3.2,9h6.4L87.8,177.6z"
					/>
				<path class="st8" d="M98.3,189.2h2.6l-2.9,6.9h-1.6L98.3,189.2z"/>
				<path class="st8" d="M108.9,174.6h2.5l3.9,15.1l4.3-15.1h2.6l4.1,15.1l3.9-15.1h2.5l-5.2,17.8h-2.6l-4.1-14.3l-4.3,14.3l-2.6,0
					L108.9,174.6z"/>
				<path class="st8" d="M134.9,174.6c0-0.9,0.7-1.6,1.6-1.6c0.8,0,1.5,0.7,1.5,1.6s-0.7,1.6-1.5,1.6
					C135.6,176.2,134.9,175.5,134.9,174.6z M135.2,178.5h2.3v14h-2.3V178.5z"/>
				<path class="st8" d="M143.9,192.5h-2.3v-14h2.3v2.3c0.8-1.6,2.3-2.5,4.5-2.5v2.4h-0.6c-2.2,0-3.9,1-3.9,4.2V192.5z"/>
				<path class="st8" d="M157.1,192.7c-4,0-6.9-2.8-6.9-7.3c0-4.4,2.8-7.2,6.9-7.2c4.1,0,6.7,2.9,6.7,6.7c0,0.5,0,0.9-0.1,1.4h-11.2
					c0.2,2.8,2.2,4.4,4.5,4.4c2.1,0,3.4-1.1,3.9-2.6h2.5C162.8,190.7,160.6,192.7,157.1,192.7z M152.6,184.4h8.8
					c0-2.7-2-4.2-4.4-4.2C154.7,180.2,152.9,181.7,152.6,184.4z"/>
				<path class="st8" d="M167.3,180.4h-1.8v-1.9h1.8v-1c0-3.1,1.5-4.5,5.1-4.5v1.9c-2.1,0-2.8,0.8-2.8,2.6v1h2.9v1.9h-2.9v12.1h-2.3
					V180.4z"/>
				<path class="st8" d="M177.6,192.5h-2.3v-14h2.3v2.3c0.8-1.6,2.3-2.5,4.5-2.5v2.4h-0.6c-2.2,0-3.9,1-3.9,4.2V192.5z"/>
				<path class="st8" d="M190.6,178.2c2.6,0,4.4,1.3,5.2,2.8v-2.6h2.4v14h-2.4v-2.6c-0.8,1.5-2.7,2.8-5.2,2.8
					c-3.7,0-6.6-2.9-6.6-7.3C184,181,186.9,178.2,190.6,178.2z M191.1,180.2c-2.6,0-4.7,1.9-4.7,5.2s2.2,5.2,4.7,5.2
					c2.6,0,4.8-1.9,4.8-5.2C195.8,182.2,193.6,180.2,191.1,180.2z"/>
				<path class="st8" d="M222.3,184.5c0-2.9-1.5-4.3-3.8-4.3c-2.4,0-4,1.5-4,4.5v7.7h-2.3v-7.9c0-2.9-1.5-4.3-3.8-4.3
					c-2.4,0-4,1.5-4,4.5v7.7h-2.3v-14h2.3v2c0.9-1.5,2.6-2.3,4.4-2.3c2.3,0,4.2,1,5.1,3.1c0.8-2,2.8-3.1,5-3.1c3.2,0,5.7,2,5.7,6
					v8.3h-2.3V184.5z"/>
				<path class="st8" d="M234.5,192.7c-4,0-6.9-2.8-6.9-7.3c0-4.4,2.8-7.2,6.9-7.2c4.1,0,6.7,2.9,6.7,6.7c0,0.5,0,0.9-0.1,1.4H230
					c0.2,2.8,2.2,4.4,4.5,4.4c2.1,0,3.4-1.1,3.9-2.6h2.5C240.2,190.7,238,192.7,234.5,192.7z M230,184.4h8.8c0-2.7-2-4.2-4.4-4.2
					C232.1,180.2,230.2,181.7,230,184.4z"/>
				<path class="st8" d="M249.3,192.7c-3.3,0-5.6-1.8-5.7-4.3h2.4c0.1,1.4,1.3,2.4,3.3,2.4c1.8,0,2.9-0.9,2.9-2.1
					c0-3.1-8.3-1.3-8.3-6.5c0-2.1,2-3.9,5.1-3.9c3.1,0,5.1,1.7,5.3,4.4h-2.3c-0.1-1.4-1.2-2.4-3-2.4c-1.7,0-2.7,0.8-2.7,1.9
					c0,3.3,8.1,1.5,8.2,6.5C254.4,191,252.3,192.7,249.3,192.7z"/>
				<path class="st8" d="M257.5,189.2h2.6l-2.9,6.9h-1.6L257.5,189.2z"/>
				<path class="st8" d="M269.5,174.8h2.5l6.5,14.6l6.5-14.6h2.5v17.7h-2.3v-13.2l-5.9,13.2h-1.6l-5.9-13.2v13.2h-2.3V174.8z"/>
				<path class="st8" d="M297.6,192.7c-4,0-7-2.8-7-7.3c0-4.4,3.1-7.2,7.1-7.2c4,0,7.1,2.8,7.1,7.2
					C304.8,189.9,301.6,192.7,297.6,192.7z M297.6,190.6c2.4,0,4.8-1.7,4.8-5.2c0-3.5-2.3-5.2-4.7-5.2c-2.5,0-4.7,1.7-4.7,5.2
					C293,189,295.2,190.6,297.6,190.6z"/>
				<path class="st8" d="M313.8,178.2c3.5,0,5.8,1.8,6.5,4.7h-2.5c-0.5-1.7-1.9-2.8-4-2.8c-2.6,0-4.4,1.8-4.4,5.2
					c0,3.5,1.9,5.3,4.4,5.3c2.1,0,3.5-1,4-2.8h2.5c-0.7,2.8-3,4.7-6.5,4.7c-4,0-6.8-2.8-6.8-7.3C307,181,309.9,178.2,313.8,178.2z"
					/>
				<path class="st8" d="M323.4,173.5h2.3v11.1l5.4-6.2h3.2l-6.6,7l6.6,7h-3.2l-5.5-6.2v6.2h-2.3V173.5z"/>
				<path class="st8" d="M349,192.5h-2.3v-2.1c-0.9,1.5-2.6,2.3-4.5,2.3c-3.2,0-5.8-2-5.8-6v-8.2h2.3v7.9c0,2.8,1.6,4.3,3.9,4.3
					c2.4,0,4-1.5,4-4.5v-7.7h2.3V192.5z"/>
				<path class="st8" d="M360.5,178.2c3.8,0,6.6,2.8,6.6,7.2c0,4.3-2.9,7.3-6.6,7.3c-2.6,0-4.4-1.4-5.2-2.8v9.2h-2.3v-20.7h2.3v2.6
					C356.1,179.6,357.9,178.2,360.5,178.2z M360,180.2c-2.5,0-4.8,1.9-4.8,5.2c0,3.3,2.2,5.2,4.8,5.2c2.6,0,4.8-1.9,4.8-5.2
					S362.6,180.2,360,180.2z"/>
				<path class="st8" d="M375.2,192.7c-3.3,0-5.6-1.8-5.7-4.3h2.4c0.1,1.4,1.3,2.4,3.3,2.4c1.8,0,2.9-0.9,2.9-2.1
					c0-3.1-8.3-1.3-8.3-6.5c0-2.1,2-3.9,5.1-3.9c3.1,0,5.1,1.7,5.3,4.4h-2.3c-0.1-1.4-1.2-2.4-3-2.4c-1.7,0-2.7,0.8-2.7,1.9
					c0,3.3,8.1,1.5,8.2,6.5C380.3,191,378.2,192.7,375.2,192.7z"/>
				<path class="st8" d="M62.4,209.1c0.1-1.5-0.9-2.2-2.2-2.2c-1.4,0-2.3,0.9-2.3,2c0,1,0.6,1.9,1.8,3.2l5.3,5.3
					c0.2-0.2,0.3-0.5,0.5-0.7l1.7-2.9h2.5l-2.1,3.6c-0.3,0.6-0.7,1.1-1,1.6l4,4h-3l-2.3-2.4c-1.7,1.8-3.6,2.7-6.1,2.7
					c-3.7,0-6.2-2.1-6.2-5.4c0-2.5,1.4-4.4,4.2-5.5c-1.1-1.3-1.5-2.3-1.5-3.6c0-2.3,1.8-4,4.7-4c2.8,0,4.5,1.8,4.4,4.2H62.4z
					 M63.8,219.2l-5.2-5.3c-2.2,0.8-3.3,2.2-3.3,4c0,2,1.6,3.5,3.9,3.5C61,221.4,62.5,220.7,63.8,219.2z"/>
				<path class="st8" d="M85.5,215.7H82v7.4h-2.3v-17.8h5.8c4.2,0,6.2,2.3,6.2,5.2C91.6,213.2,89.9,215.7,85.5,215.7z M85.5,213.8
					c2.7,0,3.8-1.3,3.8-3.2c0-2.1-1.1-3.3-3.8-3.3H82v6.5H85.5z"/>
				<path class="st8" d="M96.8,223.1h-2.3v-14h2.3v2.3c0.8-1.6,2.3-2.5,4.5-2.5v2.4h-0.6c-2.2,0-3.9,1-3.9,4.2V223.1z"/>
				<path class="st8" d="M110.1,223.4c-4,0-7-2.8-7-7.3c0-4.4,3.1-7.2,7.1-7.2c4,0,7.1,2.8,7.1,7.2
					C117.3,220.6,114.1,223.4,110.1,223.4z M110.1,221.3c2.4,0,4.8-1.7,4.8-5.2c0-3.5-2.3-5.2-4.7-5.2c-2.5,0-4.7,1.7-4.7,5.2
					C105.5,219.7,107.7,221.3,110.1,221.3z"/>
				<path class="st8" d="M120.9,211h-1.8v-1.9h1.8v-3.5h2.3v3.5h3.7v1.9h-3.7v8.3c0,1.4,0.5,1.9,1.9,1.9h1.7v2h-2.1
					c-2.5,0-3.9-1-3.9-3.8V211z"/>
				<path class="st8" d="M135.8,223.4c-4,0-7-2.8-7-7.3c0-4.4,3.1-7.2,7.1-7.2c4,0,7.1,2.8,7.1,7.2
					C143,220.6,139.8,223.4,135.8,223.4z M135.8,221.3c2.4,0,4.8-1.7,4.8-5.2c0-3.5-2.3-5.2-4.7-5.2c-2.5,0-4.7,1.7-4.7,5.2
					C131.2,219.7,133.4,221.3,135.8,221.3z"/>
				<path class="st8" d="M146.6,211h-1.8v-1.9h1.8v-3.5h2.3v3.5h3.7v1.9h-3.7v8.3c0,1.4,0.5,1.9,1.9,1.9h1.7v2h-2.1
					c-2.5,0-3.9-1-3.9-3.8V211z"/>
				<path class="st8" d="M165,209.1h2.4l-8.4,20.6h-2.4l2.8-6.7l-5.6-13.9h2.6l4.4,11.3L165,209.1z"/>
				<path class="st8" d="M177.3,208.9c3.8,0,6.6,2.8,6.6,7.2c0,4.3-2.9,7.3-6.6,7.3c-2.6,0-4.4-1.4-5.2-2.8v9.2h-2.3v-20.7h2.3v2.6
					C172.9,210.2,174.8,208.9,177.3,208.9z M176.8,210.9c-2.5,0-4.8,1.9-4.8,5.2c0,3.3,2.2,5.2,4.8,5.2c2.6,0,4.8-1.9,4.8-5.2
					S179.4,210.9,176.8,210.9z"/>
				<path class="st8" d="M186.6,205.3c0-0.9,0.7-1.6,1.6-1.6c0.8,0,1.5,0.7,1.5,1.6s-0.7,1.6-1.5,1.6
					C187.3,206.9,186.6,206.2,186.6,205.3z M187,209.1h2.3v14H187V209.1z"/>
				<path class="st8" d="M203.6,215.2c0-2.9-1.6-4.3-3.9-4.3c-2.4,0-4,1.5-4,4.5v7.7h-2.3v-14h2.3v2c0.9-1.5,2.6-2.2,4.5-2.2
					c3.2,0,5.7,2,5.7,6v8.3h-2.3V215.2z"/>
				<path class="st8" d="M215.4,208.9c2.6,0,4.4,1.3,5.2,2.8v-2.6h2.4v14.3c0,3.9-2.6,6.6-6.7,6.6c-3.7,0-6.3-1.9-6.8-4.9h2.3
					c0.5,1.7,2.2,2.8,4.5,2.8c2.5,0,4.3-1.6,4.3-4.6v-2.9c-0.8,1.5-2.7,2.9-5.2,2.9c-3.8,0-6.6-2.9-6.6-7.3
					C208.8,211.7,211.7,208.9,215.4,208.9z M215.9,210.9c-2.6,0-4.7,1.9-4.7,5.2s2.2,5.2,4.7,5.2c2.6,0,4.8-1.9,4.8-5.2
					C220.7,212.9,218.5,210.9,215.9,210.9z"/>
			</g>
			<g>
				<path class="st8" d="M53.5,321.5h10.2v2H53.5V321.5z"/>
				<path class="st8" d="M81.5,331.9h-6.6V314h6.4c3.8,0,5.6,2,5.6,4.5c0,2.2-1.4,3.6-3.1,4.1c1.9,0.3,3.5,2.2,3.5,4.4
					C87.3,329.8,85.2,331.9,81.5,331.9z M81.1,316h-3.9v5.8h3.9c2.2,0,3.4-1.1,3.4-2.9C84.6,317.1,83.4,316,81.1,316z M81.3,323.7
					h-4v6.3h4.1c2.3,0,3.7-1.2,3.7-3.1C85,324.9,83.5,323.7,81.3,323.7z"/>
				<path class="st8" d="M92.9,331.9h-2.3v-14h2.3v2.3c0.8-1.6,2.3-2.5,4.5-2.5v2.4h-0.6c-2.2,0-3.9,1-3.9,4.2V331.9z"/>
				<path class="st8" d="M105.9,317.6c2.6,0,4.4,1.3,5.2,2.8v-2.6h2.4v14h-2.4v-2.6c-0.8,1.5-2.7,2.8-5.2,2.8
					c-3.7,0-6.6-2.9-6.6-7.3C99.2,320.4,102.1,317.6,105.9,317.6z M106.3,319.6c-2.6,0-4.7,1.9-4.7,5.2c0,3.3,2.2,5.2,4.7,5.2
					c2.6,0,4.8-1.9,4.8-5.2C111.1,321.6,108.9,319.6,106.3,319.6z"/>
				<path class="st8" d="M127.6,323.9c0-2.9-1.6-4.3-3.9-4.3c-2.4,0-4,1.5-4,4.5v7.7h-2.3v-14h2.3v2c0.9-1.5,2.6-2.2,4.5-2.2
					c3.2,0,5.7,2,5.7,6v8.3h-2.3V323.9z"/>
				<path class="st8" d="M139.5,317.6c2.2,0,4.2,1.1,5.2,2.7v-7.4h2.4v18.9h-2.4v-2.6c-0.8,1.6-2.7,2.9-5.2,2.9
					c-3.8,0-6.6-2.9-6.6-7.3C132.9,320.4,135.8,317.6,139.5,317.6z M140,319.6c-2.6,0-4.7,1.9-4.7,5.2c0,3.3,2.2,5.2,4.7,5.2
					c2.6,0,4.8-1.9,4.8-5.2C144.7,321.6,142.5,319.6,140,319.6z"/>
				<path class="st8" d="M150.6,314c0-0.9,0.7-1.6,1.6-1.6c0.8,0,1.5,0.7,1.5,1.6s-0.7,1.6-1.5,1.6
					C151.3,315.6,150.6,314.9,150.6,314z M151,317.8h2.3v14H151V317.8z"/>
				<path class="st8" d="M167.5,323.9c0-2.9-1.6-4.3-3.9-4.3c-2.4,0-4,1.5-4,4.5v7.7h-2.3v-14h2.3v2c0.9-1.5,2.6-2.2,4.5-2.2
					c3.2,0,5.7,2,5.7,6v8.3h-2.3V323.9z"/>
				<path class="st8" d="M179.4,317.6c2.6,0,4.4,1.3,5.2,2.8v-2.6h2.4v14.3c0,3.9-2.6,6.6-6.7,6.6c-3.7,0-6.3-1.9-6.8-4.9h2.3
					c0.5,1.7,2.2,2.8,4.5,2.8c2.5,0,4.3-1.6,4.3-4.6v-2.9c-0.8,1.5-2.7,2.9-5.2,2.9c-3.8,0-6.6-2.9-6.6-7.3
					C172.8,320.4,175.7,317.6,179.4,317.6z M179.9,319.6c-2.6,0-4.7,1.9-4.7,5.2c0,3.3,2.2,5.2,4.7,5.2c2.6,0,4.8-1.9,4.8-5.2
					C184.6,321.6,182.4,319.6,179.9,319.6z"/>
			</g>
			<g>
				<path class="st8" d="M53.5,373.8h10.2v2H53.5V373.8z"/>
				<path class="st8" d="M74.9,366.3h2.3v11.3c0,3.3,1.8,4.7,4.4,4.7c2.6,0,4.4-1.4,4.4-4.7v-11.3h2.3v11.2c0,4.6-3,6.7-6.7,6.7
					c-3.7,0-6.7-2.1-6.7-6.7V366.3z"/>
				<path class="st8" d="M97.1,384.3c-3.3,0-5.6-1.8-5.7-4.3h2.4c0.1,1.4,1.3,2.4,3.3,2.4c1.8,0,2.9-0.9,2.9-2.1
					c0-3.1-8.3-1.3-8.3-6.5c0-2.1,2-3.9,5.1-3.9c3.1,0,5.1,1.7,5.3,4.4h-2.3c-0.1-1.4-1.2-2.4-3-2.4c-1.7,0-2.7,0.8-2.7,1.9
					c0,3.3,8.1,1.5,8.2,6.5C102.2,382.6,100.2,384.3,97.1,384.3z"/>
				<path class="st8" d="M111.3,369.9c2.6,0,4.4,1.3,5.2,2.8v-2.6h2.4v14h-2.4v-2.6c-0.8,1.5-2.7,2.8-5.2,2.8
					c-3.7,0-6.6-2.9-6.6-7.3C104.6,372.7,107.5,369.9,111.3,369.9z M111.7,371.9c-2.6,0-4.7,1.9-4.7,5.2c0,3.3,2.2,5.2,4.7,5.2
					c2.6,0,4.8-1.9,4.8-5.2C116.5,373.8,114.3,371.9,111.7,371.9z"/>
				<path class="st8" d="M130.3,369.9c3.8,0,6.6,2.8,6.6,7.2c0,4.3-2.9,7.3-6.6,7.3c-2.6,0-4.4-1.3-5.2-2.8v2.6h-2.3v-18.9h2.3v7.5
					C126,371.2,127.9,369.9,130.3,369.9z M129.9,371.9c-2.5,0-4.8,1.9-4.8,5.2c0,3.3,2.2,5.2,4.8,5.2c2.6,0,4.8-1.9,4.8-5.2
					C134.6,373.8,132.4,371.9,129.9,371.9z"/>
				<path class="st8" d="M139.7,366.2c0-0.9,0.7-1.6,1.6-1.6c0.8,0,1.5,0.7,1.5,1.6s-0.7,1.6-1.5,1.6
					C140.4,367.8,139.7,367.1,139.7,366.2z M140,370.1h2.3v14H140V370.1z"/>
				<path class="st8" d="M146.3,365.2h2.3v18.9h-2.3V365.2z"/>
				<path class="st8" d="M152.2,366.2c0-0.9,0.7-1.6,1.6-1.6c0.8,0,1.5,0.7,1.5,1.6s-0.7,1.6-1.5,1.6
					C152.9,367.8,152.2,367.1,152.2,366.2z M152.6,370.1h2.3v14h-2.3V370.1z"/>
				<path class="st8" d="M159.4,372h-1.8v-1.9h1.8v-3.5h2.3v3.5h3.7v1.9h-3.7v8.3c0,1.4,0.5,1.9,1.9,1.9h1.7v2h-2.1
					c-2.5,0-3.9-1-3.9-3.8V372z"/>
				<path class="st8" d="M177.9,370.1h2.4l-8.4,20.6h-2.4l2.8-6.7l-5.6-13.9h2.6l4.4,11.3L177.9,370.1z"/>
				<path class="st8" d="M188.3,366.3h12.1v1.9h-4.9v15.9h-2.3v-15.9h-4.9V366.3z"/>
				<path class="st8" d="M209.3,384.3c-4,0-6.9-2.8-6.9-7.3c0-4.4,2.8-7.2,6.9-7.2c4.1,0,6.7,2.9,6.7,6.7c0,0.5,0,0.9-0.1,1.4h-11.2
					c0.2,2.8,2.2,4.4,4.5,4.4c2.1,0,3.4-1.1,3.9-2.6h2.5C215,382.3,212.8,384.3,209.3,384.3z M204.8,376.1h8.8c0-2.7-2-4.2-4.4-4.2
					C206.9,371.8,205,373.3,204.8,376.1z"/>
				<path class="st8" d="M224.1,384.3c-3.3,0-5.6-1.8-5.7-4.3h2.4c0.1,1.4,1.3,2.4,3.3,2.4c1.8,0,2.9-0.9,2.9-2.1
					c0-3.1-8.3-1.3-8.3-6.5c0-2.1,2-3.9,5.1-3.9c3.1,0,5.1,1.7,5.3,4.4h-2.3c-0.1-1.4-1.2-2.4-3-2.4c-1.7,0-2.7,0.8-2.7,1.9
					c0,3.3,8.1,1.5,8.2,6.5C229.2,382.6,227.1,384.3,224.1,384.3z"/>
				<path class="st8" d="M232.9,372h-1.8v-1.9h1.8v-3.5h2.3v3.5h3.7v1.9h-3.7v8.3c0,1.4,0.5,1.9,1.9,1.9h1.7v2h-2.1
					c-2.5,0-3.9-1-3.9-3.8V372z"/>
				<path class="st8" d="M241.4,366.2c0-0.9,0.7-1.6,1.6-1.6c0.8,0,1.5,0.7,1.5,1.6s-0.7,1.6-1.5,1.6
					C242,367.8,241.4,367.1,241.4,366.2z M241.7,370.1h2.3v14h-2.3V370.1z"/>
				<path class="st8" d="M258.3,376.2c0-2.9-1.6-4.3-3.9-4.3c-2.4,0-4,1.5-4,4.5v7.7H248v-14h2.3v2c0.9-1.5,2.6-2.2,4.5-2.2
					c3.2,0,5.7,2,5.7,6v8.3h-2.3V376.2z"/>
				<path class="st8" d="M270.2,369.9c2.6,0,4.4,1.3,5.2,2.8v-2.6h2.4v14.3c0,3.9-2.6,6.6-6.7,6.6c-3.7,0-6.3-1.9-6.8-4.9h2.3
					c0.5,1.7,2.2,2.8,4.5,2.8c2.5,0,4.3-1.6,4.3-4.6v-2.9c-0.8,1.5-2.7,2.9-5.2,2.9c-3.8,0-6.6-2.9-6.6-7.3
					C263.5,372.7,266.4,369.9,270.2,369.9z M270.6,371.9c-2.6,0-4.7,1.9-4.7,5.2c0,3.3,2.2,5.2,4.7,5.2c2.6,0,4.8-1.9,4.8-5.2
					C275.4,373.8,273.2,371.9,270.6,371.9z"/>
			</g>
			<g>
				<path class="st8" d="M53.5,425.9h10.2v2H53.5V425.9z"/>
				<path class="st8" d="M74.9,418.6h2.5l6.5,14.6l6.5-14.6H93v17.7h-2.3v-13.2l-5.9,13.2h-1.6L77.2,423v13.2h-2.3V418.6z"/>
				<path class="st8" d="M103,436.5c-4,0-7-2.8-7-7.3c0-4.4,3.1-7.2,7.1-7.2c4,0,7.1,2.8,7.1,7.2C110.2,433.7,107,436.5,103,436.5z
					 M103,434.4c2.4,0,4.8-1.7,4.8-5.2c0-3.5-2.3-5.2-4.7-5.2c-2.5,0-4.7,1.7-4.7,5.2C98.4,432.8,100.6,434.4,103,434.4z"/>
				<path class="st8" d="M113.8,424.2H112v-1.9h1.8v-3.5h2.3v3.5h3.7v1.9h-3.7v8.3c0,1.4,0.5,1.9,1.9,1.9h1.7v2h-2.1
					c-2.5,0-3.9-1-3.9-3.8V424.2z"/>
				<path class="st8" d="M122.2,418.4c0-0.9,0.7-1.6,1.6-1.6c0.8,0,1.5,0.7,1.5,1.6s-0.7,1.6-1.5,1.6
					C122.9,420,122.2,419.3,122.2,418.4z M122.6,422.2h2.3v14h-2.3V422.2z"/>
				<path class="st8" d="M135,436.5c-4,0-7-2.8-7-7.3c0-4.4,3.1-7.2,7.1-7.2c4,0,7.1,2.8,7.1,7.2C142.1,433.7,138.9,436.5,135,436.5
					z M135,434.4c2.4,0,4.8-1.7,4.8-5.2c0-3.5-2.3-5.2-4.7-5.2c-2.5,0-4.7,1.7-4.7,5.2C130.4,432.8,132.5,434.4,135,434.4z"/>
				<path class="st8" d="M155.5,428.3c0-2.9-1.6-4.3-3.9-4.3c-2.4,0-4,1.5-4,4.5v7.7h-2.3v-14h2.3v2c0.9-1.5,2.6-2.2,4.5-2.2
					c3.2,0,5.7,2,5.7,6v8.3h-2.3V428.3z"/>
				<path class="st8" d="M184.7,423.6h-2.8c-1-2.1-2.9-3.3-5.4-3.3c-3.8,0-6.6,2.7-6.6,7c0,4.3,2.8,7,6.6,7c3.5,0,5.9-2.2,6.3-5.8
					h-7.1v-1.9h9.6v1.8c-0.4,4.4-3.9,8-8.7,8c-5,0-8.9-3.7-8.9-9.1s3.9-9.1,8.9-9.1C180.2,418.2,183.3,420.2,184.7,423.6z"/>
				<path class="st8" d="M190.6,436.2h-2.3v-14h2.3v2.3c0.8-1.6,2.3-2.5,4.5-2.5v2.4h-0.6c-2.2,0-3.9,1-3.9,4.2V436.2z"/>
				<path class="st8" d="M203.6,422c2.6,0,4.4,1.3,5.2,2.8v-2.6h2.4v14h-2.4v-2.6c-0.8,1.5-2.7,2.8-5.2,2.8c-3.7,0-6.6-2.9-6.6-7.3
					C196.9,424.8,199.8,422,203.6,422z M204,424c-2.6,0-4.7,1.9-4.7,5.2c0,3.3,2.2,5.2,4.7,5.2c2.6,0,4.8-1.9,4.8-5.2
					C208.8,426,206.6,424,204,424z"/>
				<path class="st8" d="M222.7,422c3.8,0,6.6,2.8,6.6,7.2c0,4.3-2.9,7.3-6.6,7.3c-2.6,0-4.4-1.4-5.2-2.8v9.2h-2.3v-20.7h2.3v2.6
					C218.3,423.3,220.1,422,222.7,422z M222.2,424c-2.5,0-4.8,1.9-4.8,5.2c0,3.3,2.2,5.2,4.8,5.2c2.6,0,4.8-1.9,4.8-5.2
					C226.9,425.9,224.7,424,222.2,424z"/>
				<path class="st8" d="M232.4,417.3h2.3v6.9c0.9-1.5,2.7-2.3,4.6-2.3c3.1,0,5.6,2,5.6,6v8.3h-2.3v-7.9c0-2.9-1.6-4.3-3.9-4.3
					c-2.4,0-4,1.5-4,4.5v7.7h-2.3V417.3z"/>
				<path class="st8" d="M248.3,418.4c0-0.9,0.7-1.6,1.6-1.6c0.8,0,1.5,0.7,1.5,1.6s-0.7,1.6-1.5,1.6
					C249,420,248.3,419.3,248.3,418.4z M248.7,422.2h2.3v14h-2.3V422.2z"/>
				<path class="st8" d="M261,422c3.5,0,5.8,1.8,6.5,4.7h-2.5c-0.5-1.7-1.9-2.8-4-2.8c-2.6,0-4.4,1.8-4.4,5.2c0,3.5,1.9,5.3,4.4,5.3
					c2.1,0,3.5-1,4-2.8h2.5c-0.7,2.8-3,4.7-6.5,4.7c-4,0-6.8-2.8-6.8-7.3C254.1,424.8,257,422,261,422z"/>
				<path class="st8" d="M275.5,436.5c-3.3,0-5.6-1.8-5.7-4.3h2.4c0.1,1.4,1.3,2.4,3.3,2.4c1.8,0,2.9-0.9,2.9-2.1
					c0-3.1-8.3-1.3-8.3-6.5c0-2.1,2-3.9,5.1-3.9c3.1,0,5.1,1.7,5.3,4.4h-2.3c-0.1-1.4-1.2-2.4-3-2.4c-1.7,0-2.7,0.8-2.7,1.9
					c0,3.3,8.1,1.5,8.2,6.5C280.6,434.7,278.6,436.5,275.5,436.5z"/>
			</g>
			<g>
				<path class="st8" d="M53.5,477.9h10.2v2H53.5V477.9z"/>
				<path class="st8" d="M91.2,475.6h-2.8c-1-2.1-2.9-3.3-5.4-3.3c-3.8,0-6.6,2.7-6.6,7c0,4.3,2.8,7,6.6,7c3.5,0,5.9-2.2,6.3-5.8
					h-7.1v-1.9h9.6v1.8c-0.4,4.4-3.9,8-8.7,8c-5,0-8.9-3.7-8.9-9.1s3.9-9.1,8.9-9.1C86.7,470.2,89.9,472.2,91.2,475.6z"/>
				<path class="st8" d="M100.6,474c2.6,0,4.4,1.3,5.2,2.8v-2.6h2.4v14h-2.4v-2.6c-0.8,1.5-2.7,2.8-5.2,2.8c-3.7,0-6.6-2.9-6.6-7.3
					C93.9,476.8,96.8,474,100.6,474z M101,476c-2.6,0-4.7,1.9-4.7,5.2c0,3.3,2.2,5.2,4.7,5.2c2.6,0,4.8-1.9,4.8-5.2
					C105.8,478,103.6,476,101,476z"/>
				<path class="st8" d="M132.3,480.3c0-2.9-1.5-4.3-3.8-4.3c-2.4,0-4,1.5-4,4.5v7.7h-2.3v-7.9c0-2.9-1.5-4.3-3.8-4.3
					c-2.4,0-4,1.5-4,4.5v7.7h-2.3v-14h2.3v2c0.9-1.5,2.6-2.3,4.4-2.3c2.3,0,4.2,1,5.1,3.1c0.8-2,2.8-3.1,5-3.1c3.2,0,5.7,2,5.7,6
					v8.3h-2.3V480.3z"/>
				<path class="st8" d="M144.4,488.5c-4,0-6.9-2.8-6.9-7.3c0-4.4,2.8-7.2,6.9-7.2c4.1,0,6.7,2.9,6.7,6.7c0,0.5,0,0.9-0.1,1.4h-11.2
					c0.2,2.8,2.2,4.4,4.5,4.4c2.1,0,3.4-1.1,3.9-2.6h2.5C150.2,486.5,147.9,488.5,144.4,488.5z M139.9,480.2h8.8
					c0-2.7-2-4.2-4.4-4.2C142.1,476,140.2,477.5,139.9,480.2z"/>
				<path class="st8" d="M176.1,479.4c0,5.5-3.6,8.9-9.5,8.9h-5.5v-17.8h5.5C172.5,470.4,176.1,473.9,176.1,479.4z M166.6,486.3
					c4.7,0,7.1-2.6,7.1-7c0-4.3-2.4-7.1-7.1-7.1h-3.2v14H166.6z"/>
				<path class="st8" d="M185.2,488.5c-4,0-6.9-2.8-6.9-7.3c0-4.4,2.8-7.2,6.9-7.2c4.1,0,6.7,2.9,6.7,6.7c0,0.5,0,0.9-0.1,1.4h-11.2
					c0.2,2.8,2.2,4.4,4.5,4.4c2.1,0,3.4-1.1,3.9-2.6h2.5C190.9,486.5,188.7,488.5,185.2,488.5z M180.7,480.2h8.8
					c0-2.7-2-4.2-4.4-4.2C182.8,476,180.9,477.5,180.7,480.2z"/>
				<path class="st8" d="M199.9,488.5c-3.3,0-5.6-1.8-5.7-4.3h2.4c0.1,1.4,1.3,2.4,3.3,2.4c1.8,0,2.9-0.9,2.9-2.1
					c0-3.1-8.3-1.3-8.3-6.5c0-2.1,2-3.9,5.1-3.9c3.1,0,5.1,1.7,5.3,4.4h-2.3c-0.1-1.4-1.2-2.4-3-2.4c-1.7,0-2.7,0.8-2.7,1.9
					c0,3.3,8.1,1.5,8.2,6.5C205,486.8,203,488.5,199.9,488.5z"/>
				<path class="st8" d="M207.9,470.4c0-0.9,0.7-1.6,1.6-1.6c0.8,0,1.5,0.7,1.5,1.6s-0.7,1.6-1.5,1.6
					C208.6,472,207.9,471.3,207.9,470.4z M208.3,474.3h2.3v14h-2.3V474.3z"/>
				<path class="st8" d="M220.4,474c2.6,0,4.4,1.3,5.2,2.8v-2.6h2.4v14.3c0,3.9-2.6,6.6-6.7,6.6c-3.7,0-6.3-1.9-6.8-4.9h2.3
					c0.5,1.7,2.2,2.8,4.5,2.8c2.5,0,4.3-1.6,4.3-4.6v-2.9c-0.8,1.5-2.7,2.9-5.2,2.9c-3.8,0-6.6-2.9-6.6-7.3
					C213.7,476.8,216.6,474,220.4,474z M220.8,476c-2.6,0-4.7,1.9-4.7,5.2c0,3.3,2.2,5.2,4.7,5.2c2.6,0,4.8-1.9,4.8-5.2
					C225.6,478,223.4,476,220.8,476z"/>
				<path class="st8" d="M242.1,480.3c0-2.9-1.6-4.3-3.9-4.3c-2.4,0-4,1.5-4,4.5v7.7h-2.3v-14h2.3v2c0.9-1.5,2.6-2.2,4.5-2.2
					c3.2,0,5.7,2,5.7,6v8.3h-2.3V480.3z"/>
			</g>
		</g>
	</g>
</g>
</svg>
