<?xml version="1.0" encoding="utf-8"?>
<!-- Generator: Adobe Illustrator 22.0.1, SVG Export Plug-In . SVG Version: 6.00 Build 0)  -->
<svg version="1.1" id="Layer_1" xmlns="http://www.w3.org/2000/svg" xmlns:xlink="http://www.w3.org/1999/xlink" x="0px" y="0px"
	 viewBox="0 0 776.3 341.4" style="enable-background:new 0 0 776.3 341.4;" xml:space="preserve">
<style type="text/css">
	.st0{display:none;}
	.st1{display:inline;fill:none;stroke:#000000;stroke-width:5;stroke-opacity:5.000000e-02;}
	.st2{display:inline;fill:none;stroke:#000000;stroke-width:3;stroke-opacity:0.1;}
	.st3{display:inline;fill:none;stroke:#000000;stroke-opacity:0.15;}
	.st4{display:inline;fill:#FFFFFF;fill-opacity:0.85;}
	.st5{fill:#111216;}
	.st6{fill:#CC112C;}
	.st7{fill:#FFFFFF;}
	.st8{fill:#E5E5E5;}
</style>
<desc>Created with Highcharts 4.2.7</desc>
<g transform="translate(0,0)" class="st0">
	<path class="st1" d="M-235.6,10.5h10c3,0,3,0,3,3v10c0,3,0,3-3,3h-10c-3,0-3,0-3-3v-10C-238.6,10.5-238.6,10.5-235.6,10.5"/>
	<path class="st2" d="M-235.6,10.5h10c3,0,3,0,3,3v10c0,3,0,3-3,3h-10c-3,0-3,0-3-3v-10C-238.6,10.5-238.6,10.5-235.6,10.5"/>
	<path class="st3" d="M-235.6,10.5h10c3,0,3,0,3,3v10c0,3,0,3-3,3h-10c-3,0-3,0-3-3v-10C-238.6,10.5-238.6,10.5-235.6,10.5"/>
	<path class="st4" d="M-236.6,9.5h10c3,0,3,0,3,3v10c0,3,0,3-3,3h-10c-3,0-3,0-3-3v-10C-239.6,9.5-239.6,9.5-236.6,9.5"/>
</g>
<rect class="st5" width="776.3" height="341.4"/>
<g>
	<g>
		<path class="st6" d="M478.1,54.1v8.8h-4.9V40.4h4.9v9.4h3.9v-9.4h4.9v22.5h-4.9v-8.8H478.1z"/>
		<path class="st7" d="M498.7,46h3.9v16.9h-3.9v-1.2c-0.7,1.1-1.9,1.6-3.6,1.6h-0.7c-2.9,0-4.3-1.5-4.3-4.6v-8.5
			c0-3.1,1.4-4.6,4.3-4.6h0.7c1.7,0,2.9,0.5,3.6,1.6V46z M497.9,59.2v-9.6c0-0.2-0.1-0.3-0.2-0.5c-0.1-0.1-0.3-0.2-0.5-0.2h-1.9
			c-0.2,0-0.3,0.1-0.5,0.2c-0.1,0.1-0.2,0.3-0.2,0.5v9.6c0,0.2,0.1,0.3,0.2,0.5c0.1,0.1,0.3,0.2,0.5,0.2h1.9c0.2,0,0.3-0.1,0.5-0.2
			S497.9,59.4,497.9,59.2z"/>
		<path class="st7" d="M513,45.6h0.9v4.5h-2.3c-0.8,0-1.2,0.4-1.2,1.2v11.6h-4.7V46h4.2v1.6C510.7,46.3,511.7,45.6,513,45.6z"/>
		<path class="st7" d="M521,45.6c1.2,0,2.1,0.3,2.8,0.8v-6h4.7v22.5h-3.9v-1.2c-0.7,1.1-1.9,1.6-3.6,1.6h-0.7
			c-2.9,0-4.3-1.5-4.3-4.6v-8.5c0-3.1,1.4-4.6,4.3-4.6H521z M523.8,59.2v-9.6c0-0.2-0.1-0.3-0.2-0.5c-0.1-0.1-0.3-0.2-0.5-0.2h-1.9
			c-0.2,0-0.3,0.1-0.5,0.2c-0.1,0.1-0.2,0.3-0.2,0.5v9.6c0,0.2,0.1,0.3,0.2,0.5c0.1,0.1,0.3,0.2,0.5,0.2h1.9c0.2,0,0.3-0.1,0.5-0.2
			S523.8,59.4,523.8,59.2z"/>
		<path class="st7" d="M551.3,46.3h-4.6v-1.8c0-0.2-0.1-0.3-0.2-0.5s-0.3-0.2-0.5-0.2h-1.9c-0.2,0-0.3,0.1-0.5,0.2
			c-0.1,0.1-0.2,0.3-0.2,0.5v4c0,0.2,0.1,0.3,0.2,0.5c0.1,0.1,0.3,0.2,0.5,0.2h3.1c2.9,0,4.3,1.6,4.3,4.6v4.8c0,3.1-1.4,4.6-4.3,4.6
			h-4.1c-2.9,0-4.3-1.5-4.3-4.6v-2.3h4.6v2.5c0,0.2,0.1,0.3,0.2,0.5c0.1,0.1,0.3,0.2,0.5,0.2h2.2c0.2,0,0.3-0.1,0.5-0.2
			s0.2-0.3,0.2-0.5v-4.4c0-0.2-0.1-0.3-0.2-0.5c-0.1-0.1-0.3-0.2-0.5-0.2h-3.1c-2.9,0-4.3-1.5-4.3-4.6v-4.5c0-3.1,1.4-4.6,4.3-4.6
			h3.9c2.9,0,4.3,1.5,4.3,4.6V46.3z"/>
		<path class="st7" d="M567.9,46l-3.5,7.9l4,9h-4.7l-3.2-7h-1.4v7h-4.7V40.4h4.7V52h1.6l2.5-6.1H567.9z"/>
		<path class="st7" d="M575.1,43.8c-0.5,0.5-1.1,0.7-1.8,0.7s-1.3-0.2-1.8-0.7s-0.8-1.1-0.8-1.8c0-0.7,0.3-1.3,0.8-1.8
			s1.1-0.7,1.8-0.7s1.3,0.2,1.8,0.7c0.5,0.5,0.7,1.1,0.7,1.8S575.6,43.4,575.1,43.8z M571,62.9V46h4.7v16.9H571z"/>
		<path class="st7" d="M583.6,62.9h-4.7V40.4h4.7V62.9z"/>
		<path class="st7" d="M591.4,62.9h-4.7V40.4h4.7V62.9z"/>
		<path class="st7" d="M602.5,52.3c2.9,0,4.3,1.5,4.3,4.6v1.8c0,3.1-1.4,4.6-4.3,4.6h-3.9c-2.9,0-4.3-1.5-4.3-4.6v-1.1h4.3v1.5
			c0,0.2,0.1,0.3,0.2,0.5c0.1,0.1,0.3,0.2,0.5,0.2h2.8c0.2,0,0.3-0.1,0.5-0.2c0.1-0.1,0.2-0.3,0.2-0.5V57c0-0.2-0.1-0.3-0.2-0.5
			c-0.1-0.1-0.3-0.2-0.5-0.2h-3.6c-2.9,0-4.3-1.5-4.3-4.6v-1.6c0-3.1,1.4-4.6,4.3-4.6h3.6c2.9,0,4.3,1.5,4.3,4.6v0.6h-4.3v-1.1
			c0-0.2-0.1-0.3-0.2-0.5c-0.1-0.1-0.3-0.2-0.5-0.2h-2.6c-0.2,0-0.3,0.1-0.5,0.2c-0.1,0.1-0.2,0.3-0.2,0.5v1.8
			c0,0.2,0.1,0.3,0.2,0.5c0.1,0.1,0.3,0.2,0.5,0.2H602.5z"/>
	</g>
</g>
<g>
	<path class="st8" d="M368.9,138.4h8.6v1.7h-8.6V138.4z"/>
	<path class="st8" d="M386.9,132.1h2v15h-2V132.1z"/>
	<path class="st8" d="M400.9,140.4c0-2.4-1.3-3.6-3.3-3.6c-2,0-3.4,1.2-3.4,3.8v6.5h-2v-11.8h2v1.7c0.8-1.2,2.2-1.9,3.8-1.9
		c2.7,0,4.8,1.7,4.8,5.1v6.9h-1.9V140.4z"/>
	<path class="st8" d="M416.3,132.1h2.1l-5.7,15h-2.3l-5.7-15h2.1l4.7,12.9L416.3,132.1z"/>
	<path class="st8" d="M420.2,132.1c0-0.8,0.6-1.3,1.3-1.3c0.7,0,1.3,0.6,1.3,1.3c0,0.8-0.6,1.3-1.3,1.3
		C420.8,133.4,420.2,132.8,420.2,132.1z M420.5,135.3h2v11.8h-2V135.3z"/>
	<path class="st8" d="M430,147.3c-2.8,0-4.7-1.5-4.8-3.7h2c0.1,1.1,1.1,2,2.8,2c1.5,0,2.4-0.8,2.4-1.7c0-2.6-7-1.1-7-5.5
		c0-1.8,1.7-3.3,4.3-3.3c2.6,0,4.3,1.4,4.5,3.7h-2c-0.1-1.2-1-2-2.6-2c-1.4,0-2.3,0.7-2.3,1.6c0,2.8,6.8,1.3,6.9,5.5
		C434.3,145.8,432.6,147.3,430,147.3z"/>
	<path class="st8" d="M436.8,132.1c0-0.8,0.6-1.3,1.3-1.3c0.7,0,1.3,0.6,1.3,1.3c0,0.8-0.6,1.3-1.3,1.3
		C437.3,133.4,436.8,132.8,436.8,132.1z M437.1,135.3h2v11.8h-2V135.3z"/>
	<path class="st8" d="M447.5,147.3c-3.3,0-5.9-2.4-5.9-6.1c0-3.7,2.6-6.1,6-6.1c3.4,0,6,2.3,6,6.1
		C453.6,144.9,450.9,147.3,447.5,147.3z M447.5,145.6c2,0,4-1.4,4-4.4c0-3-2-4.4-4-4.4c-2.1,0-3.9,1.4-3.9,4.4
		C443.6,144.2,445.5,145.6,447.5,145.6z"/>
	<path class="st8" d="M464.8,140.4c0-2.4-1.3-3.6-3.3-3.6c-2,0-3.4,1.2-3.4,3.8v6.5h-2v-11.8h2v1.7c0.8-1.2,2.2-1.9,3.8-1.9
		c2.7,0,4.8,1.7,4.8,5.1v6.9h-1.9V140.4z"/>
	<path class="st8" d="M469.8,144.4h2.2l-2.4,5.8h-1.3L469.8,144.4z"/>
	<path class="st8" d="M484.7,147.2c-3,0-5.1-1.7-5.2-4.2h2.1c0.1,1.2,1,2.5,3.1,2.5c1.9,0,3-1.1,3-2.5c0-4-8.1-1.5-8.1-7
		c0-2.5,2-4.2,5-4.2c2.9,0,4.7,1.6,5,3.9h-2.2c-0.1-1-1.1-2.2-2.9-2.2c-1.6,0-2.9,0.8-2.9,2.4c0,3.9,8.1,1.5,8.1,7
		C489.7,145.1,487.9,147.2,484.7,147.2z"/>
	<path class="st8" d="M492.6,131.2h2v9.4l4.5-5.2h2.7l-5.6,5.9l5.6,5.9h-2.7l-4.6-5.2v5.2h-2V131.2z"/>
	<path class="st8" d="M508.7,147.3c-3.4,0-5.8-2.4-5.8-6.1c0-3.7,2.4-6.1,5.8-6.1c3.4,0,5.7,2.4,5.7,5.6c0,0.4,0,0.8-0.1,1.2h-9.4
		c0.2,2.4,1.8,3.7,3.8,3.7c1.8,0,2.9-0.9,3.3-2.2h2.1C513.6,145.6,511.7,147.3,508.7,147.3z M504.9,140.3h7.4c0-2.3-1.7-3.6-3.7-3.6
		C506.7,136.8,505.1,138,504.9,140.3z"/>
	<path class="st8" d="M517.4,136.9h-1.5v-1.6h1.5v-3h2v3h3.1v1.6h-3.1v6.9c0,1.2,0.4,1.6,1.6,1.6h1.4v1.7h-1.8
		c-2.1,0-3.3-0.9-3.3-3.2V136.9z"/>
	<path class="st8" d="M529.8,135.1c2.9,0,4.8,1.5,5.4,4h-2.1c-0.4-1.4-1.6-2.3-3.3-2.3c-2.2,0-3.7,1.5-3.7,4.4
		c0,2.9,1.6,4.5,3.7,4.5c1.7,0,2.9-0.8,3.3-2.3h2.1c-0.6,2.3-2.5,4-5.4,4c-3.4,0-5.7-2.4-5.7-6.1
		C524.1,137.5,526.5,135.1,529.8,135.1z"/>
	<path class="st8" d="M537.9,131.2h2v5.8c0.8-1.2,2.2-1.9,3.9-1.9c2.6,0,4.7,1.7,4.7,5.1v6.9h-1.9v-6.7c0-2.4-1.3-3.6-3.3-3.6
		c-2,0-3.4,1.2-3.4,3.8v6.5h-2V131.2z"/>
	<path class="st8" d="M551.5,144.4h2.2l-2.4,5.8h-1.3L551.5,144.4z"/>
	<path class="st8" d="M567.2,147.1h-5.6v-15h5.4c3.2,0,4.8,1.7,4.8,3.8c0,1.9-1.2,3-2.6,3.5c1.6,0.3,3,1.9,3,3.7
		C572.1,145.3,570.3,147.1,567.2,147.1z M566.9,133.7h-3.2v4.9h3.3c1.8,0,2.9-0.9,2.9-2.4C569.8,134.7,568.8,133.7,566.9,133.7z
		 M567,140.2h-3.4v5.3h3.5c1.9,0,3.1-1,3.1-2.6C570.2,141.2,568.9,140.2,567,140.2z"/>
	<path class="st8" d="M579.7,135.1c2.2,0,3.7,1.1,4.4,2.3v-2.2h2v11.8h-2v-2.2c-0.7,1.3-2.2,2.4-4.4,2.4c-3.1,0-5.6-2.5-5.6-6.1
		C574.1,137.5,576.5,135.1,579.7,135.1z M580.1,136.8c-2.2,0-4,1.6-4,4.3s1.8,4.4,4,4.4s4-1.6,4-4.4
		C584.1,138.5,582.2,136.8,580.1,136.8z"/>
	<path class="st8" d="M589.4,131.2h2v15.9h-2V131.2z"/>
	<path class="st8" d="M598.9,147.3c-2.8,0-4.7-1.5-4.8-3.7h2c0.1,1.1,1.1,2,2.8,2c1.5,0,2.4-0.8,2.4-1.7c0-2.6-7-1.1-7-5.5
		c0-1.8,1.7-3.3,4.3-3.3c2.6,0,4.3,1.4,4.5,3.7h-2c-0.1-1.2-1-2-2.6-2c-1.4,0-2.3,0.7-2.3,1.6c0,2.8,6.8,1.3,6.9,5.5
		C603.2,145.8,601.5,147.3,598.9,147.3z"/>
	<path class="st8" d="M610.8,135.1c2.2,0,3.7,1.1,4.4,2.3v-2.2h2v11.8h-2v-2.2c-0.7,1.3-2.2,2.4-4.4,2.4c-3.1,0-5.6-2.5-5.6-6.1
		C605.2,137.5,607.6,135.1,610.8,135.1z M611.2,136.8c-2.2,0-4,1.6-4,4.3s1.8,4.4,4,4.4s4-1.6,4-4.4
		C615.2,138.5,613.3,136.8,611.2,136.8z"/>
	<path class="st8" d="M637.5,140.4c0-2.4-1.3-3.6-3.2-3.6c-2,0-3.3,1.3-3.3,3.8v6.5H629v-6.7c0-2.4-1.3-3.6-3.2-3.6
		c-2,0-3.3,1.3-3.3,3.8v6.5h-2v-11.8h2v1.7c0.8-1.2,2.2-1.9,3.7-1.9c1.9,0,3.5,0.9,4.3,2.6c0.7-1.7,2.4-2.6,4.2-2.6
		c2.7,0,4.8,1.7,4.8,5.1v6.9h-1.9V140.4z"/>
	<path class="st8" d="M642.3,132.1c0-0.8,0.6-1.3,1.3-1.3c0.7,0,1.3,0.6,1.3,1.3c0,0.8-0.6,1.3-1.3,1.3
		C642.9,133.4,642.3,132.8,642.3,132.1z M642.6,135.3h2v11.8h-2V135.3z"/>
	<path class="st8" d="M652.8,135.1c2.2,0,3.7,1.1,4.4,2.3v-2.2h2v17.4h-2v-7.8c-0.7,1.2-2.2,2.4-4.4,2.4c-3.1,0-5.6-2.5-5.6-6.1
		C647.2,137.5,649.6,135.1,652.8,135.1z M653.2,136.8c-2.2,0-4,1.6-4,4.3s1.8,4.4,4,4.4s4-1.6,4-4.4
		C657.2,138.5,655.3,136.8,653.2,136.8z"/>
	<path class="st8" d="M675.3,135.3c0-1.2-0.8-1.9-1.8-1.9c-1.2,0-1.9,0.7-1.9,1.7c0,0.9,0.5,1.6,1.5,2.7l4.5,4.5
		c0.1-0.2,0.3-0.4,0.4-0.6l1.5-2.5h2.1l-1.8,3.1c-0.3,0.5-0.6,0.9-0.9,1.4l3.4,3.4h-2.6l-2-2c-1.4,1.5-3.1,2.2-5.2,2.2
		c-3.1,0-5.3-1.8-5.3-4.6c0-2.1,1.2-3.7,3.5-4.6c-0.9-1.1-1.3-1.9-1.3-3c0-1.9,1.5-3.3,4-3.3c2.4,0,3.8,1.5,3.7,3.5H675.3z
		 M676.5,143.8l-4.4-4.4c-1.9,0.7-2.8,1.8-2.8,3.3c0,1.7,1.3,2.9,3.3,2.9C674.2,145.7,675.4,145.1,676.5,143.8z"/>
	<path class="st8" d="M698.7,143.8h-6.5l-1.2,3.3h-2.1l5.4-14.9h2.3l5.4,14.9h-2.1L698.7,143.8z M695.5,134.6l-2.7,7.6h5.4
		L695.5,134.6z"/>
	<path class="st8" d="M707.7,142.7l-2.7,4.4h-2l3.8-5.9l-3.8-5.9h2.2l2.8,4.4l2.7-4.4h2l-3.8,5.8l3.8,6h-2.2L707.7,142.7z"/>
	<path class="st8" d="M725.1,147.1h-2v-1.7c-0.8,1.2-2.2,1.9-3.8,1.9c-2.7,0-4.8-1.7-4.8-5.1v-6.9h1.9v6.6c0,2.4,1.3,3.6,3.3,3.6
		c2,0,3.4-1.2,3.4-3.8v-6.5h2V147.1z"/>
	<path class="st8" d="M730.4,147.1h-2v-11.8h2v1.9c0.7-1.3,1.9-2.1,3.8-2.1v2h-0.5c-1.9,0-3.3,0.8-3.3,3.6V147.1z"/>
	<path class="st8" d="M741.6,147.3c-3.4,0-5.8-2.4-5.8-6.1c0-3.7,2.4-6.1,5.8-6.1c3.4,0,5.7,2.4,5.7,5.6c0,0.4,0,0.8-0.1,1.2h-9.4
		c0.2,2.4,1.8,3.7,3.8,3.7c1.8,0,2.9-0.9,3.3-2.2h2.1C746.4,145.6,744.5,147.3,741.6,147.3z M737.8,140.3h7.4c0-2.3-1.7-3.6-3.7-3.6
		C739.6,136.8,738,138,737.8,140.3z"/>
</g>
<g>
	<path class="st8" d="M368.9,104.4h8.6v1.7h-8.6V104.4z"/>
	<path class="st8" d="M395.8,109.7h-6.5l-1.2,3.3H386l5.4-14.9h2.3l5.4,14.9H397L395.8,109.7z M392.5,100.6l-2.7,7.6h5.4
		L392.5,100.6z"/>
	<path class="st8" d="M406.3,101.1c1.8,0,3.5,0.9,4.4,2.3v-6.2h2v15.9h-2v-2.2c-0.7,1.3-2.2,2.4-4.4,2.4c-3.2,0-5.6-2.5-5.6-6.1
		C400.7,103.5,403.1,101.1,406.3,101.1z M406.7,102.8c-2.2,0-4,1.6-4,4.3s1.8,4.4,4,4.4s4-1.6,4-4.4
		C410.7,104.4,408.8,102.8,406.7,102.8z"/>
	<path class="st8" d="M421.1,113.3c-3.3,0-5.9-2.4-5.9-6.1c0-3.7,2.6-6.1,6-6.1c3.4,0,6,2.3,6,6.1
		C427.2,110.9,424.5,113.3,421.1,113.3z M421.1,111.6c2,0,4-1.4,4-4.4c0-3-2-4.4-4-4.4c-2.1,0-3.9,1.4-3.9,4.4
		C417.3,110.2,419.1,111.6,421.1,111.6z"/>
	<path class="st8" d="M436.1,101.1c3.2,0,5.6,2.4,5.6,6c0,3.7-2.4,6.1-5.6,6.1c-2.2,0-3.7-1.1-4.4-2.4v2.2h-2V97.2h2v6.3
		C432.5,102.2,434,101.1,436.1,101.1z M435.7,102.8c-2.1,0-4,1.6-4,4.4c0,2.8,1.9,4.4,4,4.4c2.2,0,4-1.6,4-4.4
		S437.9,102.8,435.7,102.8z"/>
	<path class="st8" d="M449.4,113.3c-3.4,0-5.8-2.4-5.8-6.1c0-3.7,2.4-6.1,5.8-6.1c3.4,0,5.7,2.4,5.7,5.6c0,0.4,0,0.8-0.1,1.2h-9.4
		c0.2,2.4,1.8,3.7,3.8,3.7c1.8,0,2.9-0.9,3.3-2.2h2.1C454.2,111.6,452.3,113.3,449.4,113.3z M445.6,106.3h7.4c0-2.3-1.7-3.6-3.7-3.6
		C447.4,102.8,445.8,104,445.6,106.3z"/>
	<path class="st8" d="M470.1,97.9c3.2,0,5.8,1.6,6.9,4.5h-2.3c-0.8-1.8-2.4-2.8-4.6-2.8c-3.1,0-5.5,2.3-5.5,6c0,3.7,2.3,5.9,5.5,5.9
		c2.2,0,3.8-1,4.6-2.8h2.3c-1.1,2.9-3.7,4.5-6.9,4.5c-4.2,0-7.5-3.1-7.5-7.6S466,97.9,470.1,97.9z"/>
	<path class="st8" d="M486.8,97.9c3.2,0,5.8,1.6,6.9,4.5h-2.3c-0.8-1.8-2.4-2.8-4.6-2.8c-3.1,0-5.5,2.3-5.5,6c0,3.7,2.3,5.9,5.5,5.9
		c2.2,0,3.8-1,4.6-2.8h2.3c-1.1,2.9-3.7,4.5-6.9,4.5c-4.2,0-7.5-3.1-7.5-7.6S482.6,97.9,486.8,97.9z"/>
</g>
<g>
	<path class="st8" d="M368.9,172h8.6v1.7h-8.6V172z"/>
	<path class="st8" d="M396.5,173.9h-7.6v6.8h-2v-15h2v6.6h7.6v-6.6h2v15h-2V173.9z"/>
	<path class="st8" d="M400.9,165.7H411v1.6h-4.1v13.4h-2v-13.4h-4.1V165.7z"/>
	<path class="st8" d="M413.4,165.8h2.1l5.5,12.3l5.5-12.3h2.1v14.9h-2v-11.1l-4.9,11.1h-1.4l-5-11.1v11.1h-2V165.8z"/>
	<path class="st8" d="M433.9,165.7v13.4h5.3v1.6H432v-15H433.9z"/>
	<path class="st8" d="M441.1,178h2.2l-2.4,5.8h-1.3L441.1,178z"/>
	<path class="st8" d="M458,165.5c3.2,0,5.8,1.6,6.9,4.5h-2.3c-0.8-1.8-2.4-2.8-4.6-2.8c-3.1,0-5.5,2.3-5.5,6c0,3.7,2.3,5.9,5.5,5.9
		c2.2,0,3.8-1,4.6-2.8h2.3c-1.1,2.9-3.7,4.5-6.9,4.5c-4.2,0-7.5-3.1-7.5-7.6C450.5,168.7,453.8,165.5,458,165.5z"/>
	<path class="st8" d="M472.6,180.8c-3,0-5.1-1.7-5.2-4.2h2.1c0.1,1.2,1,2.5,3.1,2.5c1.9,0,3-1.1,3-2.5c0-4-8.1-1.5-8.1-7
		c0-2.5,2-4.2,5-4.2c2.9,0,4.7,1.6,5,3.9h-2.2c-0.1-1-1.1-2.2-2.9-2.2c-1.6,0-2.9,0.8-2.9,2.4c0,3.9,8.1,1.5,8.1,7
		C477.6,178.7,475.9,180.8,472.6,180.8z"/>
	<path class="st8" d="M485.3,180.8c-3,0-5.1-1.7-5.2-4.2h2.1c0.1,1.2,1,2.5,3.1,2.5c1.9,0,3-1.1,3-2.5c0-4-8.1-1.5-8.1-7
		c0-2.5,2-4.2,5-4.2c2.9,0,4.7,1.6,5,3.9H488c-0.1-1-1.1-2.2-2.9-2.2c-1.6,0-2.9,0.8-2.9,2.4c0,3.9,8.1,1.5,8.1,7
		C490.3,178.7,488.5,180.8,485.3,180.8z"/>
	<path class="st8" d="M493,178h2.2l-2.4,5.8h-1.3L493,178z"/>
	<path class="st8" d="M505.2,168.9v14.3c0,2.1-1.1,3-3.1,3h-1.1v-1.7h0.8c1.1,0,1.5-0.4,1.5-1.4v-14.3H505.2z M502.9,165.6
		c0-0.8,0.6-1.3,1.3-1.3s1.3,0.6,1.3,1.3c0,0.8-0.6,1.3-1.3,1.3S502.9,166.4,502.9,165.6z"/>
	<path class="st8" d="M519.3,179.7l3.8,3.8h-2.5l-3-3c-0.7,0.2-1.5,0.3-2.2,0.3c-4.2,0-7.5-3.2-7.5-7.7c0-4.5,3.3-7.7,7.5-7.7
		c4.2,0,7.5,3.2,7.5,7.7C522.8,176.1,521.4,178.5,519.3,179.7z M515.3,179.1c3.2,0,5.5-2.3,5.5-6c0-3.7-2.4-6-5.5-6
		c-3.2,0-5.5,2.3-5.5,6C509.8,176.8,512.1,179.1,515.3,179.1z"/>
	<path class="st8" d="M535.9,180.7h-2v-1.7c-0.8,1.2-2.2,1.9-3.8,1.9c-2.7,0-4.8-1.7-4.8-5.1v-6.9h1.9v6.6c0,2.4,1.3,3.6,3.3,3.6
		c2,0,3.4-1.2,3.4-3.8v-6.5h2V180.7z"/>
	<path class="st8" d="M544.3,180.9c-3.4,0-5.8-2.4-5.8-6.1c0-3.7,2.4-6.1,5.8-6.1c3.4,0,5.7,2.4,5.7,5.6c0,0.4,0,0.8-0.1,1.2h-9.4
		c0.2,2.4,1.8,3.7,3.8,3.7c1.8,0,2.9-0.9,3.3-2.2h2.1C549.1,179.2,547.3,180.9,544.3,180.9z M540.5,173.9h7.4c0-2.3-1.7-3.6-3.7-3.6
		C542.3,170.3,540.7,171.6,540.5,173.9z"/>
	<path class="st8" d="M554.5,180.7h-2v-11.8h2v1.9c0.7-1.3,1.9-2.1,3.8-2.1v2h-0.5c-1.9,0-3.3,0.8-3.3,3.6V180.7z"/>
	<path class="st8" d="M568.7,168.9h2l-7.1,17.3h-2l2.3-5.7l-4.8-11.7h2.2l3.7,9.6L568.7,168.9z"/>
	<path class="st8" d="M585.5,168.9c0-1.2-0.8-1.9-1.8-1.9c-1.2,0-1.9,0.7-1.9,1.7c0,0.9,0.5,1.6,1.5,2.7l4.5,4.5
		c0.1-0.2,0.3-0.4,0.4-0.6l1.5-2.5h2.1l-1.8,3.1c-0.3,0.5-0.6,0.9-0.9,1.4l3.4,3.4H590l-2-2c-1.4,1.5-3.1,2.2-5.2,2.2
		c-3.1,0-5.3-1.8-5.3-4.6c0-2.1,1.2-3.7,3.5-4.6c-0.9-1.1-1.3-1.9-1.3-3c0-1.9,1.5-3.3,4-3.3c2.4,0,3.8,1.5,3.7,3.5H585.5z
		 M586.7,177.4l-4.4-4.4c-1.9,0.7-2.8,1.8-2.8,3.3c0,1.7,1.3,2.9,3.3,2.9C584.4,179.3,585.6,178.6,586.7,177.4z"/>
	<path class="st8" d="M605.7,165.7h2v11.1c0,2.5-1.7,4.1-4.2,4.1c-2.5,0-4.2-1.6-4.2-4.2h2c0,1.4,0.7,2.5,2.2,2.5
		c1.5,0,2.2-1.1,2.2-2.3V165.7z"/>
	<path class="st8" d="M616.4,168.7c2.2,0,3.7,1.1,4.4,2.3v-2.2h2v11.8h-2v-2.2c-0.7,1.3-2.2,2.4-4.4,2.4c-3.1,0-5.6-2.5-5.6-6.1
		C610.8,171.1,613.2,168.7,616.4,168.7z M616.8,170.4c-2.2,0-4,1.6-4,4.3c0,2.8,1.8,4.4,4,4.4s4-1.6,4-4.4
		C620.8,172,618.9,170.4,616.8,170.4z"/>
	<path class="st8" d="M626.8,168.9l3.7,10l3.7-10h2.1l-4.6,11.8h-2.3l-4.6-11.8H626.8z"/>
	<path class="st8" d="M643,168.7c2.2,0,3.7,1.1,4.4,2.3v-2.2h2v11.8h-2v-2.2c-0.7,1.3-2.2,2.4-4.4,2.4c-3.1,0-5.6-2.5-5.6-6.1
		C637.4,171.1,639.8,168.7,643,168.7z M643.4,170.4c-2.2,0-4,1.6-4,4.3c0,2.8,1.8,4.4,4,4.4s4-1.6,4-4.4
		C647.4,172,645.5,170.4,643.4,170.4z"/>
	<path class="st8" d="M657.4,180.8c-3,0-5.1-1.7-5.2-4.2h2.1c0.1,1.2,1,2.5,3.1,2.5c1.9,0,3-1.1,3-2.5c0-4-8.1-1.5-8.1-7
		c0-2.5,2-4.2,5-4.2c2.9,0,4.7,1.6,5,3.9h-2.2c-0.1-1-1.1-2.2-2.9-2.2c-1.6,0-2.9,0.8-2.9,2.4c0,3.9,8.1,1.5,8.1,7
		C662.4,178.7,660.7,180.8,657.4,180.8z"/>
	<path class="st8" d="M670.3,168.7c2.9,0,4.8,1.5,5.4,4h-2.1c-0.4-1.4-1.6-2.3-3.3-2.3c-2.2,0-3.7,1.5-3.7,4.4
		c0,2.9,1.6,4.5,3.7,4.5c1.7,0,2.9-0.8,3.3-2.3h2.1c-0.6,2.3-2.5,4-5.4,4c-3.4,0-5.7-2.4-5.7-6.1C664.6,171.1,667,168.7,670.3,168.7
		z"/>
	<path class="st8" d="M680.3,180.7h-2v-11.8h2v1.9c0.7-1.3,1.9-2.1,3.8-2.1v2h-0.5c-1.9,0-3.3,0.8-3.3,3.6V180.7z"/>
	<path class="st8" d="M686.1,165.6c0-0.8,0.6-1.3,1.3-1.3c0.7,0,1.3,0.6,1.3,1.3c0,0.8-0.6,1.3-1.3,1.3
		C686.7,167,686.1,166.4,686.1,165.6z M686.4,168.9h2v11.8h-2V168.9z"/>
	<path class="st8" d="M698.1,168.7c3.2,0,5.6,2.4,5.6,6c0,3.7-2.4,6.1-5.6,6.1c-2.2,0-3.7-1.2-4.4-2.4v7.8h-2v-17.4h2v2.2
		C694.4,169.8,695.9,168.7,698.1,168.7z M697.7,170.4c-2.1,0-4,1.6-4,4.4c0,2.8,1.9,4.4,4,4.4c2.2,0,4-1.6,4-4.4
		C701.7,172,699.8,170.4,697.7,170.4z"/>
	<path class="st8" d="M706.7,170.5h-1.5v-1.6h1.5v-3h2v3h3.1v1.6h-3.1v6.9c0,1.2,0.4,1.6,1.6,1.6h1.4v1.7h-1.8
		c-2.1,0-3.3-0.9-3.3-3.2V170.5z"/>
</g>
<g>
	<path class="st8" d="M368.9,205.8h8.6v1.7h-8.6V205.8z"/>
	<path class="st8" d="M395.8,211.2h-6.5l-1.2,3.3H386l5.4-14.9h2.3l5.4,14.9H397L395.8,211.2z M392.5,202l-2.7,7.6h5.4L392.5,202z"
		/>
	<path class="st8" d="M411.9,214.5h-2v-1.7c-0.8,1.2-2.2,1.9-3.8,1.9c-2.7,0-4.8-1.7-4.8-5.1v-6.9h1.9v6.6c0,2.4,1.3,3.6,3.3,3.6
		c2,0,3.4-1.2,3.4-3.8v-6.5h2V214.5z"/>
	<path class="st8" d="M415.6,204.3h-1.5v-1.6h1.5v-3h2v3h3.1v1.6h-3.1v6.9c0,1.2,0.4,1.6,1.6,1.6h1.4v1.7h-1.8
		c-2.1,0-3.3-0.9-3.3-3.2V204.3z"/>
	<path class="st8" d="M428.2,214.7c-3.3,0-5.9-2.4-5.9-6.1c0-3.7,2.6-6.1,6-6.1c3.4,0,6,2.3,6,6.1
		C434.2,212.3,431.5,214.7,428.2,214.7z M428.2,213c2,0,4-1.4,4-4.4c0-3-2-4.4-4-4.4c-2.1,0-3.9,1.4-3.9,4.4
		C424.3,211.6,426.1,213,428.2,213z"/>
	<path class="st8" d="M441.7,202.5c1.8,0,3.5,0.9,4.4,2.3v-6.2h2v15.9h-2v-2.2c-0.7,1.3-2.2,2.4-4.4,2.4c-3.2,0-5.6-2.5-5.6-6.1
		C436.1,204.9,438.5,202.5,441.7,202.5z M442.1,204.2c-2.2,0-4,1.6-4,4.3s1.8,4.4,4,4.4s4-1.6,4-4.4
		C446.1,205.8,444.2,204.2,442.1,204.2z"/>
	<path class="st8" d="M456.5,214.7c-3.4,0-5.8-2.4-5.8-6.1c0-3.7,2.4-6.1,5.8-6.1c3.4,0,5.7,2.4,5.7,5.6c0,0.4,0,0.8-0.1,1.2h-9.4
		c0.2,2.4,1.8,3.7,3.8,3.7c1.8,0,2.9-0.9,3.3-2.2h2.1C461.3,213,459.4,214.7,456.5,214.7z M452.7,207.7h7.4c0-2.3-1.7-3.6-3.7-3.6
		C454.5,204.2,452.9,205.4,452.7,207.7z"/>
	<path class="st8" d="M468.9,214.7c-2.8,0-4.7-1.5-4.8-3.7h2c0.1,1.1,1.1,2,2.8,2c1.5,0,2.4-0.8,2.4-1.7c0-2.6-7-1.1-7-5.5
		c0-1.8,1.7-3.3,4.3-3.3c2.6,0,4.3,1.4,4.5,3.7h-2c-0.1-1.2-1-2-2.6-2c-1.4,0-2.3,0.7-2.3,1.6c0,2.8,6.8,1.3,6.9,5.5
		C473.2,213.2,471.5,214.7,468.9,214.7z"/>
	<path class="st8" d="M475.9,198.6h2v9.4l4.5-5.2h2.7l-5.6,5.9l5.6,5.9h-2.7l-4.6-5.2v5.2h-2V198.6z"/>
	<path class="st8" d="M492.8,199.6h2.1l5.5,12.3l5.5-12.3h2.1v14.9h-2v-11.1l-4.9,11.1h-1.4l-5-11.1v11.1h-2V199.6z"/>
	<path class="st8" d="M516.2,202.5c2.2,0,3.7,1.1,4.4,2.3v-2.2h2v11.8h-2v-2.2c-0.7,1.3-2.2,2.4-4.4,2.4c-3.1,0-5.6-2.5-5.6-6.1
		C510.6,204.9,513,202.5,516.2,202.5z M516.5,204.2c-2.2,0-4,1.6-4,4.3s1.8,4.4,4,4.4s4-1.6,4-4.4
		C520.5,205.8,518.7,204.2,516.5,204.2z"/>
	<path class="st8" d="M534,202.7h2l-7.1,17.3h-2l2.3-5.7l-4.8-11.7h2.2l3.7,9.6L534,202.7z"/>
	<path class="st8" d="M542.8,202.5c2.2,0,3.7,1.1,4.4,2.3v-2.2h2v11.8h-2v-2.2c-0.7,1.3-2.2,2.4-4.4,2.4c-3.1,0-5.6-2.5-5.6-6.1
		C537.2,204.9,539.7,202.5,542.8,202.5z M543.2,204.2c-2.2,0-4,1.6-4,4.3s1.8,4.4,4,4.4s4-1.6,4-4.4
		C547.2,205.8,545.4,204.2,543.2,204.2z"/>
</g>
<g>
	<path class="st8" d="M368.9,239.8h8.6v1.7h-8.6V239.8z"/>
	<path class="st8" d="M386.9,233.5h2v9.5c0,2.8,1.5,3.9,3.7,3.9c2.2,0,3.7-1.2,3.7-3.9v-9.5h2v9.5c0,3.9-2.6,5.7-5.7,5.7
		c-3.1,0-5.6-1.8-5.6-5.7V233.5z"/>
	<path class="st8" d="M410.1,241.8c0-2.4-1.3-3.6-3.3-3.6c-2,0-3.4,1.2-3.4,3.8v6.5h-2v-11.8h2v1.7c0.8-1.2,2.2-1.9,3.8-1.9
		c2.7,0,4.8,1.7,4.8,5.1v6.9h-1.9V241.8z"/>
	<path class="st8" d="M414.9,233.4c0-0.8,0.6-1.3,1.3-1.3c0.7,0,1.3,0.6,1.3,1.3s-0.6,1.3-1.3,1.3
		C415.5,234.8,414.9,234.2,414.9,233.4z M415.2,236.7h2v11.8h-2V236.7z"/>
	<path class="st8" d="M421,238.3h-1.5v-1.6h1.5v-3h2v3h3.1v1.6h-3.1v6.9c0,1.2,0.4,1.6,1.6,1.6h1.4v1.7h-1.8c-2.1,0-3.3-0.9-3.3-3.2
		V238.3z"/>
	<path class="st8" d="M436.5,236.7h2l-7.1,17.3h-2l2.3-5.7l-4.8-11.7h2.2l3.7,9.6L436.5,236.7z"/>
</g>
<g>
	<path class="st8" d="M368.9,273.7h8.6v1.7h-8.6V273.7z"/>
	<path class="st8" d="M391.7,282.5c-3,0-5.1-1.7-5.2-4.2h2.1c0.1,1.2,1,2.5,3.1,2.5c1.9,0,3-1.1,3-2.5c0-4-8.1-1.5-8.1-7
		c0-2.5,2-4.2,5-4.2c2.9,0,4.7,1.6,5,3.9h-2.2c-0.1-1-1.1-2.2-2.9-2.2c-1.6,0-2.9,0.8-2.9,2.4c0,3.9,8.1,1.5,8.1,7
		C396.7,280.4,394.9,282.5,391.7,282.5z"/>
	<path class="st8" d="M399.6,266.4h2v9.4l4.5-5.2h2.7l-5.6,5.9l5.6,5.9h-2.7l-4.6-5.2v5.2h-2V266.4z"/>
	<path class="st8" d="M415.7,282.6c-3.4,0-5.8-2.4-5.8-6.1c0-3.7,2.4-6.1,5.8-6.1c3.4,0,5.7,2.4,5.7,5.6c0,0.4,0,0.8-0.1,1.2h-9.4
		c0.2,2.4,1.8,3.7,3.8,3.7c1.8,0,2.9-0.9,3.3-2.2h2.1C420.6,280.9,418.7,282.6,415.7,282.6z M411.9,275.6h7.4c0-2.3-1.7-3.6-3.7-3.6
		C413.7,272,412.2,273.3,411.9,275.6z"/>
	<path class="st8" d="M424.4,272.2h-1.5v-1.6h1.5v-3h2v3h3.1v1.6h-3.1v6.9c0,1.2,0.4,1.6,1.6,1.6h1.4v1.7h-1.8
		c-2.1,0-3.3-0.9-3.3-3.2V272.2z"/>
	<path class="st8" d="M436.8,270.4c2.9,0,4.8,1.5,5.4,4h-2.1c-0.4-1.4-1.6-2.3-3.3-2.3c-2.2,0-3.7,1.5-3.7,4.4
		c0,2.9,1.6,4.5,3.7,4.5c1.7,0,2.9-0.8,3.3-2.3h2.1c-0.6,2.3-2.5,4-5.4,4c-3.4,0-5.7-2.4-5.7-6.1
		C431.1,272.8,433.5,270.4,436.8,270.4z"/>
	<path class="st8" d="M444.9,266.4h2v5.8c0.8-1.2,2.2-1.9,3.9-1.9c2.6,0,4.7,1.7,4.7,5.1v6.9h-1.9v-6.7c0-2.4-1.3-3.6-3.3-3.6
		c-2,0-3.4,1.2-3.4,3.8v6.5h-2V266.4z"/>
	<path class="st8" d="M458.6,267.4h2v9.5c0,2.8,1.5,3.9,3.7,3.9c2.2,0,3.7-1.2,3.7-3.9v-9.5h2v9.5c0,3.9-2.6,5.7-5.7,5.7
		c-3.1,0-5.6-1.8-5.6-5.7V267.4z"/>
	<path class="st8" d="M479.6,270.4c3.2,0,5.6,2.4,5.6,6c0,3.7-2.4,6.1-5.6,6.1c-2.2,0-3.7-1.2-4.4-2.4v7.8h-2v-17.4h2v2.2
		C475.9,271.5,477.4,270.4,479.6,270.4z M479.1,272.1c-2.1,0-4,1.6-4,4.4c0,2.8,1.9,4.4,4,4.4c2.2,0,4-1.6,4-4.4
		S481.3,272.1,479.1,272.1z"/>
</g>
<g>
	<path class="st8" d="M368.9,307.5h8.6v1.7h-8.6V307.5z"/>
	<path class="st8" d="M386.9,301.3h2.1l5.5,12.3l5.5-12.3h2.1v14.9h-2v-11.1l-4.9,11.1h-1.4l-5-11.1v11.1h-2V301.3z"/>
	<path class="st8" d="M405.1,301.1c0-0.8,0.6-1.3,1.3-1.3c0.7,0,1.3,0.6,1.3,1.3c0,0.8-0.6,1.3-1.3,1.3
		C405.7,302.5,405.1,301.9,405.1,301.1z M405.5,304.4h2v11.8h-2V304.4z"/>
	<path class="st8" d="M415.8,304.2c2.9,0,4.8,1.5,5.4,4h-2.1c-0.4-1.4-1.6-2.3-3.3-2.3c-2.2,0-3.7,1.5-3.7,4.4
		c0,2.9,1.6,4.5,3.7,4.5c1.7,0,2.9-0.8,3.3-2.3h2.1c-0.6,2.3-2.5,4-5.4,4c-3.4,0-5.7-2.4-5.7-6.1C410,306.6,412.4,304.2,415.8,304.2
		z"/>
	<path class="st8" d="M425.8,316.2h-2v-11.8h2v1.9c0.7-1.3,1.9-2.1,3.8-2.1v2h-0.5c-1.9,0-3.3,0.8-3.3,3.6V316.2z"/>
	<path class="st8" d="M437,316.4c-3.3,0-5.9-2.4-5.9-6.1c0-3.7,2.6-6.1,6-6.1c3.4,0,6,2.3,6,6.1C443,314,440.3,316.4,437,316.4z
		 M437,314.6c2,0,4-1.4,4-4.4c0-3-2-4.4-4-4.4c-2.1,0-3.9,1.4-3.9,4.4C433.1,313.2,434.9,314.6,437,314.6z"/>
	<path class="st8" d="M449.8,316.4c-2.8,0-4.7-1.5-4.8-3.7h2c0.1,1.1,1.1,2,2.8,2c1.5,0,2.4-0.8,2.4-1.7c0-2.6-7-1.1-7-5.5
		c0-1.8,1.7-3.3,4.3-3.3c2.6,0,4.3,1.4,4.5,3.7h-2c-0.1-1.2-1-2-2.6-2c-1.4,0-2.3,0.7-2.3,1.6c0,2.8,6.8,1.3,6.9,5.5
		C454.1,314.9,452.4,316.4,449.8,316.4z"/>
	<path class="st8" d="M462,316.4c-3.3,0-5.9-2.4-5.9-6.1c0-3.7,2.6-6.1,6-6.1c3.4,0,6,2.3,6,6.1C468,314,465.3,316.4,462,316.4z
		 M462,314.6c2,0,4-1.4,4-4.4c0-3-2-4.4-4-4.4c-2.1,0-3.9,1.4-3.9,4.4C458.1,313.2,459.9,314.6,462,314.6z"/>
	<path class="st8" d="M471,306h-1.5v-1.6h1.5v-0.8c0-2.6,1.3-3.8,4.3-3.8v1.6c-1.8,0-2.3,0.6-2.3,2.2v0.8h2.5v1.6h-2.5v10.2h-2V306z
		"/>
	<path class="st8" d="M478.1,306h-1.5v-1.6h1.5v-3h2v3h3.1v1.6h-3.1v7c0,1.2,0.4,1.6,1.6,1.6h1.4v1.7h-1.8c-2.1,0-3.3-0.9-3.3-3.2
		V306z"/>
	<path class="st8" d="M498.1,316.3c-4.2,0-7.5-3.2-7.5-7.7c0-4.5,3.3-7.7,7.5-7.7c4.2,0,7.5,3.2,7.5,7.7
		C505.6,313.2,502.3,316.3,498.1,316.3z M498.1,314.6c3.2,0,5.5-2.3,5.5-6c0-3.7-2.4-6-5.5-6c-3.2,0-5.5,2.3-5.5,6
		C492.6,312.3,494.9,314.6,498.1,314.6z"/>
	<path class="st8" d="M508.6,306H507v-1.6h1.5v-0.8c0-2.6,1.3-3.8,4.3-3.8v1.6c-1.8,0-2.3,0.6-2.3,2.2v0.8h2.5v1.6h-2.5v10.2h-2V306
		z"/>
	<path class="st8" d="M515.6,306h-1.5v-1.6h1.5v-0.8c0-2.6,1.3-3.8,4.3-3.8v1.6c-1.8,0-2.3,0.6-2.3,2.2v0.8h2.5v1.6h-2.5v10.2h-2
		V306z"/>
	<path class="st8" d="M522,301.1c0-0.8,0.6-1.3,1.3-1.3c0.7,0,1.3,0.6,1.3,1.3c0,0.8-0.6,1.3-1.3,1.3
		C522.6,302.5,522,301.9,522,301.1z M522.4,304.4h2v11.8h-2V304.4z"/>
	<path class="st8" d="M532.7,304.2c2.9,0,4.8,1.5,5.4,4H536c-0.4-1.4-1.6-2.3-3.3-2.3c-2.2,0-3.7,1.5-3.7,4.4c0,2.9,1.6,4.5,3.7,4.5
		c1.7,0,2.9-0.8,3.3-2.3h2.1c-0.6,2.3-2.5,4-5.4,4c-3.4,0-5.7-2.4-5.7-6.1C526.9,306.6,529.3,304.2,532.7,304.2z"/>
	<path class="st8" d="M545.8,316.4c-3.4,0-5.8-2.4-5.8-6.1c0-3.7,2.4-6.1,5.8-6.1c3.4,0,5.7,2.4,5.7,5.6c0,0.4,0,0.8-0.1,1.2H542
		c0.2,2.4,1.8,3.7,3.8,3.7c1.8,0,2.9-0.9,3.3-2.2h2.1C550.6,314.7,548.7,316.4,545.8,316.4z M542,309.4h7.4c0-2.3-1.7-3.6-3.7-3.6
		C543.8,305.8,542.2,307.1,542,309.4z"/>
</g>
<g>
	<g>
		<path class="st6" d="M151,40.4h4.3l2.6,16.9l1.9-16.9h4.7l-3.6,22.5h-5.5l-2.3-13.8l-2.3,13.8h-5.5l-3.6-22.5h4.7l1.9,16.9
			L151,40.4z"/>
		<path class="st7" d="M171.7,62.9H167V40.4h4.7v6c0.7-0.6,1.6-0.8,2.8-0.8h0.7c2.9,0,4.3,1.5,4.3,4.6v12.7h-4.7V49.6
			c0-0.2-0.1-0.3-0.2-0.5c-0.1-0.1-0.3-0.2-0.5-0.2h-1.9c-0.4,0-0.6,0.2-0.7,0.6V62.9z"/>
		<path class="st7" d="M191.3,46h3.9v16.9h-3.9v-1.2c-0.7,1.1-1.9,1.6-3.6,1.6H187c-2.9,0-4.3-1.5-4.3-4.6v-8.5
			c0-3.1,1.4-4.6,4.3-4.6h0.7c1.7,0,2.9,0.5,3.6,1.6V46z M190.6,59.2v-9.6c0-0.2-0.1-0.3-0.2-0.5c-0.1-0.1-0.3-0.2-0.5-0.2H188
			c-0.2,0-0.3,0.1-0.5,0.2c-0.1,0.1-0.2,0.3-0.2,0.5v9.6c0,0.2,0.1,0.3,0.2,0.5c0.1,0.1,0.3,0.2,0.5,0.2h1.9c0.2,0,0.3-0.1,0.5-0.2
			C190.5,59.6,190.6,59.4,190.6,59.2z"/>
		<path class="st7" d="M204.6,60.2h1.4v3h-3.3c-2.9,0-4.3-1.5-4.3-4.6V42.3h4.7V46h2.9v3.4h-2.9v9.2c0,0.6,0.1,1.1,0.4,1.3
			C203.7,60.1,204.1,60.2,204.6,60.2z"/>
		<path class="st7" d="M227.9,52.6h-4.7v-3c0-0.2-0.1-0.3-0.2-0.5c-0.1-0.1-0.3-0.2-0.5-0.2h-1.9c-0.2,0-0.3,0.1-0.5,0.2
			c-0.1,0.1-0.2,0.3-0.2,0.5v9.6c0,0.2,0.1,0.3,0.2,0.5c0.1,0.1,0.3,0.2,0.5,0.2h1.9c0.2,0,0.3-0.1,0.5-0.2c0.1-0.1,0.2-0.3,0.2-0.5
			v-3h4.7v2.4c0,3.1-1.4,4.6-4.3,4.6h-3.9c-2.9,0-4.3-1.5-4.3-4.6v-8.5c0-3.1,1.4-4.6,4.3-4.6h3.9c2.9,0,4.3,1.5,4.3,4.6V52.6z"/>
		<path class="st7" d="M239.5,46h3.9v16.9h-3.9v-1.2c-0.7,1.1-1.9,1.6-3.6,1.6h-0.7c-2.9,0-4.3-1.5-4.3-4.6v-8.5
			c0-3.1,1.4-4.6,4.3-4.6h0.7c1.7,0,2.9,0.5,3.6,1.6V46z M238.8,59.2v-9.6c0-0.2-0.1-0.3-0.2-0.5c-0.1-0.1-0.3-0.2-0.5-0.2h-1.9
			c-0.2,0-0.3,0.1-0.5,0.2c-0.1,0.1-0.2,0.3-0.2,0.5v9.6c0,0.2,0.1,0.3,0.2,0.5c0.1,0.1,0.3,0.2,0.5,0.2h1.9c0.2,0,0.3-0.1,0.5-0.2
			C238.7,59.6,238.8,59.4,238.8,59.2z"/>
		<path class="st7" d="M251.2,62.9h-4.7V46h4.2v0.9c0.7-0.8,1.8-1.2,3.3-1.2h0.7c2.9,0,4.3,1.5,4.3,4.6v12.7h-4.7V49.6
			c0-0.2-0.1-0.3-0.2-0.5c-0.1-0.1-0.3-0.2-0.5-0.2h-1.9c-0.2,0-0.3,0.1-0.5,0.2c-0.1,0.1-0.2,0.3-0.2,0.5V62.9z"/>
		<path class="st7" d="M274.3,40.4v22.5h-4.9V40.4H274.3z"/>
		<path class="st7" d="M289.8,45.6c1.2,0,2.1,0.3,2.8,0.8v-6h4.7v22.5h-3.9v-1.2c-0.7,1.1-1.9,1.6-3.6,1.6h-0.7
			c-2.9,0-4.3-1.5-4.3-4.6v-8.5c0-3.1,1.4-4.6,4.3-4.6H289.8z M292.6,59.2v-9.6c0-0.2-0.1-0.3-0.2-0.5c-0.1-0.1-0.3-0.2-0.5-0.2
			h-1.9c-0.2,0-0.3,0.1-0.5,0.2c-0.1,0.1-0.2,0.3-0.2,0.5v9.6c0,0.2,0.1,0.3,0.2,0.5c0.1,0.1,0.3,0.2,0.5,0.2h1.9
			c0.2,0,0.3-0.1,0.5-0.2C292.6,59.6,292.6,59.4,292.6,59.2z"/>
		<path class="st7" d="M313,50.2v8.5c0,3.1-1.4,4.6-4.3,4.6h-3.9c-2.9,0-4.3-1.5-4.3-4.6v-8.5c0-3.1,1.4-4.6,4.3-4.6h3.9
			C311.5,45.6,313,47.1,313,50.2z M308.3,59.6V49.2c0-0.2-0.1-0.3-0.2-0.5c-0.1-0.1-0.3-0.2-0.5-0.2h-1.9c-0.2,0-0.3,0.1-0.5,0.2
			c-0.1,0.1-0.2,0.3-0.2,0.5v10.4c0,0.2,0.1,0.3,0.2,0.5c0.1,0.1,0.3,0.2,0.5,0.2h1.9c0.2,0,0.3-0.1,0.5-0.2
			C308.3,60,308.3,59.8,308.3,59.6z"/>
		<path class="st7" d="M323.5,53.7c-0.2,0-0.3,0.1-0.5,0.2c-0.1,0.1-0.2,0.3-0.2,0.5v1.9h-4.1v-2c0-3.1,1.4-4.6,4.3-4.6h0.2
			c0.2,0,0.3-0.1,0.5-0.2c0.1-0.1,0.2-0.3,0.2-0.5v-4.1c0-0.2-0.1-0.3-0.2-0.5c-0.1-0.1-0.3-0.2-0.5-0.2h-2.6
			c-0.2,0-0.3,0.1-0.5,0.2c-0.1,0.1-0.2,0.3-0.2,0.5v1.8h-4.3V45c0-3.1,1.4-4.6,4.3-4.6h3.9c2.9,0,4.3,1.5,4.3,4.6v4.1
			c0,3.1-1.4,4.6-4.3,4.6H323.5z M318.4,60.7c0-0.7,0.2-1.3,0.7-1.8c0.5-0.5,1.1-0.7,1.8-0.7s1.3,0.2,1.8,0.7s0.7,1.1,0.7,1.8
			c0,0.7-0.2,1.3-0.7,1.8s-1.1,0.7-1.8,0.7s-1.3-0.2-1.8-0.7C318.6,62,318.4,61.4,318.4,60.7z"/>
	</g>
</g>
<g>
	<g>
		<path class="st8" d="M36.8,104.4h8.6v1.7h-8.6V104.4z"/>
		<path class="st8" d="M54.8,98.1h2v9.5c0,2.8,1.5,3.9,3.7,3.9c2.2,0,3.7-1.2,3.7-3.9v-9.5h2v9.5c0,3.9-2.6,5.7-5.7,5.7
			s-5.6-1.8-5.6-5.7V98.1z"/>
		<path class="st8" d="M74.3,107.2l-3.4,5.9h-2.2l4.6-7.5l-4.6-7.5h2.2l3.6,5.9l3.4-5.9h2.2l-4.6,7.5l4.6,7.5h-2.2L74.3,107.2z"/>
		<path class="st8" d="M95.6,101.3c0-1.2-0.8-1.9-1.8-1.9c-1.2,0-1.9,0.7-1.9,1.7c0,0.9,0.5,1.6,1.5,2.7l4.5,4.5
			c0.1-0.2,0.3-0.4,0.4-0.6l1.5-2.5h2.1l-1.8,3.1c-0.3,0.5-0.6,0.9-0.9,1.4l3.4,3.4H100l-2-2c-1.4,1.5-3.1,2.2-5.2,2.2
			c-3.1,0-5.3-1.8-5.3-4.6c0-2.1,1.2-3.7,3.5-4.6c-0.9-1.1-1.3-1.9-1.3-3c0-1.9,1.5-3.3,4-3.3c2.4,0,3.8,1.5,3.7,3.5H95.6z
			 M96.7,109.8l-4.4-4.4c-1.9,0.7-2.8,1.8-2.8,3.3c0,1.7,1.3,2.9,3.3,2.9C94.4,111.7,95.6,111.1,96.7,109.8z"/>
		<path class="st8" d="M110.1,98.1h2v9.5c0,2.8,1.5,3.9,3.7,3.9c2.2,0,3.7-1.2,3.7-3.9v-9.5h2v9.5c0,3.9-2.6,5.7-5.7,5.7
			c-3.1,0-5.6-1.8-5.6-5.7V98.1z"/>
		<path class="st8" d="M124.7,98.1h2v15h-2V98.1z"/>
		<path class="st8" d="M148.3,105.6c0,4.6-3,7.5-8,7.5h-4.7v-15h4.7C145.3,98.1,148.3,101,148.3,105.6z M140.4,111.5
			c3.9,0,6-2.2,6-5.9c0-3.7-2-5.9-6-5.9h-2.7v11.8H140.4z"/>
		<path class="st8" d="M156,113.3c-3.4,0-5.8-2.4-5.8-6.1c0-3.7,2.4-6.1,5.8-6.1c3.4,0,5.7,2.4,5.7,5.6c0,0.4,0,0.8-0.1,1.2h-9.4
			c0.2,2.4,1.8,3.7,3.8,3.7c1.8,0,2.9-0.9,3.3-2.2h2.1C160.8,111.6,158.9,113.3,156,113.3z M152.2,106.3h7.4c0-2.3-1.7-3.6-3.7-3.6
			C154,102.8,152.4,104,152.2,106.3z"/>
		<path class="st8" d="M168.4,113.3c-2.8,0-4.7-1.5-4.8-3.7h2c0.1,1.1,1.1,2,2.8,2c1.5,0,2.4-0.8,2.4-1.7c0-2.6-7-1.1-7-5.5
			c0-1.8,1.7-3.3,4.3-3.3c2.6,0,4.3,1.4,4.5,3.7h-2c-0.1-1.2-1-2-2.6-2c-1.4,0-2.3,0.7-2.3,1.6c0,2.8,6.8,1.3,6.9,5.5
			C172.7,111.8,171,113.3,168.4,113.3z"/>
		<path class="st8" d="M175.2,98c0-0.8,0.6-1.3,1.3-1.3c0.7,0,1.3,0.6,1.3,1.3c0,0.8-0.6,1.3-1.3,1.3
			C175.7,99.4,175.2,98.8,175.2,98z M175.5,101.3h2v11.8h-2V101.3z"/>
		<path class="st8" d="M185.6,101.1c2.2,0,3.7,1.1,4.4,2.3v-2.2h2v12c0,3.2-2.2,5.6-5.6,5.6c-3.1,0-5.3-1.6-5.7-4.1h1.9
			c0.4,1.4,1.8,2.4,3.8,2.4c2.1,0,3.7-1.3,3.7-3.9v-2.5c-0.7,1.3-2.2,2.4-4.4,2.4c-3.2,0-5.6-2.5-5.6-6.1
			C180,103.5,182.5,101.1,185.6,101.1z M186,102.8c-2.2,0-4,1.6-4,4.3s1.8,4.4,4,4.4s4-1.6,4-4.4C190,104.4,188.2,102.8,186,102.8z"
			/>
		<path class="st8" d="M204,106.4c0-2.4-1.3-3.6-3.3-3.6c-2,0-3.4,1.2-3.4,3.8v6.5h-2v-11.8h2v1.7c0.8-1.2,2.2-1.9,3.8-1.9
			c2.7,0,4.8,1.7,4.8,5.1v6.9H204V106.4z"/>
	</g>
	<g>
		<path class="st8" d="M36.8,138.4h8.6v1.7h-8.6V138.4z"/>
		<path class="st8" d="M53.7,132.1h2.1l3.3,12.7l3.6-12.7h2.2l3.4,12.7l3.3-12.7h2.1l-4.3,15h-2.2L63.7,135L60,147.1l-2.2,0
			L53.7,132.1z"/>
		<path class="st8" d="M80.9,147.3c-3.4,0-5.8-2.4-5.8-6.1c0-3.7,2.4-6.1,5.8-6.1c3.4,0,5.7,2.4,5.7,5.6c0,0.4,0,0.8-0.1,1.2h-9.4
			c0.2,2.4,1.8,3.7,3.8,3.7c1.8,0,2.9-0.9,3.3-2.2h2.1C85.8,145.6,83.9,147.3,80.9,147.3z M77.1,140.3h7.4c0-2.3-1.7-3.6-3.7-3.6
			C78.9,136.8,77.4,138,77.1,140.3z"/>
		<path class="st8" d="M95.6,135.1c3.2,0,5.6,2.4,5.6,6c0,3.7-2.4,6.1-5.6,6.1c-2.2,0-3.7-1.1-4.4-2.4v2.2h-2v-15.9h2v6.3
			C91.9,136.2,93.5,135.1,95.6,135.1z M95.1,136.8c-2.1,0-4,1.6-4,4.4c0,2.8,1.9,4.4,4,4.4c2.2,0,4-1.6,4-4.4S97.3,136.8,95.1,136.8
			z"/>
		<path class="st8" d="M116.6,135.3c0-1.2-0.8-1.9-1.8-1.9c-1.2,0-1.9,0.7-1.9,1.7c0,0.9,0.5,1.6,1.5,2.7l4.5,4.5
			c0.1-0.2,0.3-0.4,0.4-0.6l1.5-2.5h2.1l-1.8,3.1c-0.3,0.5-0.6,0.9-0.9,1.4l3.4,3.4H121l-2-2c-1.4,1.5-3.1,2.2-5.2,2.2
			c-3.1,0-5.3-1.8-5.3-4.6c0-2.1,1.2-3.7,3.5-4.6c-0.9-1.1-1.3-1.9-1.3-3c0-1.9,1.5-3.3,4-3.3c2.4,0,3.8,1.5,3.7,3.5H116.6z
			 M117.7,143.8l-4.4-4.4c-1.9,0.7-2.8,1.8-2.8,3.3c0,1.7,1.3,2.9,3.3,2.9C115.4,145.7,116.6,145.1,117.7,143.8z"/>
		<path class="st8" d="M140,143.8h-6.5l-1.2,3.3h-2.1l5.4-14.9h2.3l5.4,14.9h-2.1L140,143.8z M136.7,134.6l-2.7,7.6h5.4L136.7,134.6
			z"/>
		<path class="st8" d="M152,135.1c3.2,0,5.6,2.4,5.6,6c0,3.7-2.4,6.1-5.6,6.1c-2.2,0-3.7-1.2-4.4-2.4v7.8h-2v-17.4h2v2.2
			C148.3,136.2,149.9,135.1,152,135.1z M151.6,136.8c-2.1,0-4,1.6-4,4.4c0,2.8,1.9,4.4,4,4.4c2.2,0,4-1.6,4-4.4
			S153.8,136.8,151.6,136.8z"/>
		<path class="st8" d="M166.6,135.1c3.2,0,5.6,2.4,5.6,6c0,3.7-2.4,6.1-5.6,6.1c-2.2,0-3.7-1.2-4.4-2.4v7.8h-2v-17.4h2v2.2
			C162.8,136.2,164.4,135.1,166.6,135.1z M166.1,136.8c-2.1,0-4,1.6-4,4.4c0,2.8,1.9,4.4,4,4.4c2.2,0,4-1.6,4-4.4
			S168.3,136.8,166.1,136.8z"/>
		<path class="st8" d="M193.1,139.6c0,4.6-3,7.5-8,7.5h-4.7v-15h4.7C190.1,132.1,193.1,135,193.1,139.6z M185.1,145.5
			c3.9,0,6-2.2,6-5.9c0-3.7-2-5.9-6-5.9h-2.7v11.8H185.1z"/>
		<path class="st8" d="M200.8,147.3c-3.4,0-5.8-2.4-5.8-6.1c0-3.7,2.4-6.1,5.8-6.1c3.4,0,5.7,2.4,5.7,5.6c0,0.4,0,0.8-0.1,1.2H197
			c0.2,2.4,1.8,3.7,3.8,3.7c1.8,0,2.9-0.9,3.3-2.2h2.1C205.6,145.6,203.7,147.3,200.8,147.3z M197,140.3h7.4c0-2.3-1.7-3.6-3.7-3.6
			C198.8,136.8,197.2,138,197,140.3z"/>
		<path class="st8" d="M213.2,147.3c-2.8,0-4.7-1.5-4.8-3.7h2c0.1,1.1,1.1,2,2.8,2c1.5,0,2.4-0.8,2.4-1.7c0-2.6-7-1.1-7-5.5
			c0-1.8,1.7-3.3,4.3-3.3c2.6,0,4.3,1.4,4.5,3.7h-2c-0.1-1.2-1-2-2.6-2c-1.4,0-2.3,0.7-2.3,1.6c0,2.8,6.8,1.3,6.9,5.5
			C217.5,145.8,215.8,147.3,213.2,147.3z"/>
		<path class="st8" d="M219.9,132.1c0-0.8,0.6-1.3,1.3-1.3c0.7,0,1.3,0.6,1.3,1.3c0,0.8-0.6,1.3-1.3,1.3
			C220.5,133.4,219.9,132.8,219.9,132.1z M220.3,135.3h2v11.8h-2V135.3z"/>
		<path class="st8" d="M230.4,135.1c2.2,0,3.7,1.1,4.4,2.3v-2.2h2v12c0,3.2-2.2,5.6-5.6,5.6c-3.1,0-5.3-1.6-5.7-4.1h1.9
			c0.4,1.4,1.8,2.4,3.8,2.4c2.1,0,3.7-1.3,3.7-3.9v-2.5c-0.7,1.3-2.2,2.4-4.4,2.4c-3.2,0-5.6-2.5-5.6-6.1
			C224.8,137.5,227.3,135.1,230.4,135.1z M230.8,136.8c-2.2,0-4,1.6-4,4.3s1.8,4.4,4,4.4s4-1.6,4-4.4
			C234.8,138.4,233,136.8,230.8,136.8z"/>
		<path class="st8" d="M248.7,140.4c0-2.4-1.3-3.6-3.3-3.6c-2,0-3.4,1.2-3.4,3.8v6.5h-2v-11.8h2v1.7c0.8-1.2,2.2-1.9,3.8-1.9
			c2.7,0,4.8,1.7,4.8,5.1v6.9h-1.9V140.4z"/>
	</g>
	<g>
		<path class="st8" d="M36.8,172.1h8.6v1.7h-8.6V172.1z"/>
		<path class="st8" d="M53.7,165.8h2.1l3.3,12.7l3.6-12.7h2.2l3.4,12.7l3.3-12.7h2.1l-4.3,15h-2.2l-3.5-12.1L60,180.8l-2.2,0
			L53.7,165.8z"/>
		<path class="st8" d="M75.5,165.7c0-0.8,0.6-1.3,1.3-1.3c0.7,0,1.3,0.6,1.3,1.3c0,0.8-0.6,1.3-1.3,1.3
			C76.1,167.1,75.5,166.5,75.5,165.7z M75.8,169h2v11.8h-2V169z"/>
		<path class="st8" d="M83.1,180.8h-2V169h2v1.9c0.7-1.3,1.9-2.1,3.8-2.1v2h-0.5c-1.9,0-3.3,0.8-3.3,3.6V180.8z"/>
		<path class="st8" d="M94.3,181c-3.4,0-5.8-2.4-5.8-6.1c0-3.7,2.4-6.1,5.8-6.1c3.4,0,5.7,2.4,5.7,5.6c0,0.4,0,0.8-0.1,1.2h-9.4
			c0.2,2.4,1.8,3.7,3.8,3.7c1.8,0,2.9-0.9,3.3-2.2h2.1C99.1,179.3,97.2,181,94.3,181z M90.5,174h7.4c0-2.3-1.7-3.6-3.7-3.6
			C92.3,170.4,90.7,171.7,90.5,174z"/>
		<path class="st8" d="M102.9,170.6h-1.5V169h1.5v-0.8c0-2.6,1.3-3.8,4.3-3.8v1.6c-1.8,0-2.3,0.6-2.3,2.2v0.8h2.5v1.6h-2.5v10.2h-2
			V170.6z"/>
		<path class="st8" d="M111.5,180.8h-2V169h2v1.9c0.7-1.3,1.9-2.1,3.8-2.1v2h-0.5c-1.9,0-3.3,0.8-3.3,3.6V180.8z"/>
		<path class="st8" d="M122.5,168.8c2.2,0,3.7,1.1,4.4,2.3V169h2v11.8h-2v-2.2c-0.7,1.3-2.2,2.4-4.4,2.4c-3.1,0-5.6-2.5-5.6-6.1
			C116.9,171.2,119.3,168.8,122.5,168.8z M122.9,170.5c-2.2,0-4,1.6-4,4.3s1.8,4.4,4,4.4s4-1.6,4-4.4
			C126.9,172.1,125,170.5,122.9,170.5z"/>
		<path class="st8" d="M149.2,174.1c0-2.4-1.3-3.6-3.2-3.6c-2,0-3.3,1.3-3.3,3.8v6.5h-1.9v-6.7c0-2.4-1.3-3.6-3.2-3.6
			c-2,0-3.3,1.3-3.3,3.8v6.5h-2V169h2v1.7c0.8-1.2,2.2-1.9,3.7-1.9c1.9,0,3.5,0.9,4.3,2.6c0.7-1.7,2.4-2.6,4.2-2.6
			c2.7,0,4.8,1.7,4.8,5.1v6.9h-1.9V174.1z"/>
		<path class="st8" d="M159.4,181c-3.4,0-5.8-2.4-5.8-6.1c0-3.7,2.4-6.1,5.8-6.1c3.4,0,5.7,2.4,5.7,5.6c0,0.4,0,0.8-0.1,1.2h-9.4
			c0.2,2.4,1.8,3.7,3.8,3.7c1.8,0,2.9-0.9,3.3-2.2h2.1C164.2,179.3,162.4,181,159.4,181z M155.6,174h7.4c0-2.3-1.7-3.6-3.7-3.6
			C157.4,170.4,155.8,171.7,155.6,174z"/>
		<path class="st8" d="M171.8,181c-2.8,0-4.7-1.5-4.8-3.7h2c0.1,1.1,1.1,2,2.8,2c1.5,0,2.4-0.8,2.4-1.7c0-2.6-7-1.1-7-5.5
			c0-1.8,1.7-3.3,4.3-3.3c2.6,0,4.3,1.4,4.5,3.7h-2c-0.1-1.2-1-2-2.6-2c-1.4,0-2.3,0.7-2.3,1.6c0,2.8,6.8,1.3,6.9,5.5
			C176.1,179.5,174.4,181,171.8,181z"/>
		<path class="st8" d="M191.7,169c0-1.2-0.8-1.9-1.8-1.9c-1.2,0-1.9,0.7-1.9,1.7c0,0.9,0.5,1.6,1.5,2.7l4.5,4.5
			c0.1-0.2,0.3-0.4,0.4-0.6l1.5-2.5h2.1l-1.8,3.1c-0.3,0.5-0.6,0.9-0.9,1.4l3.4,3.4h-2.6l-2-2c-1.4,1.5-3.1,2.2-5.2,2.2
			c-3.1,0-5.3-1.8-5.3-4.6c0-2.1,1.2-3.7,3.5-4.6c-0.9-1.1-1.3-1.9-1.3-3c0-1.9,1.5-3.3,4-3.3c2.4,0,3.8,1.5,3.7,3.5H191.7z
			 M192.9,177.5l-4.4-4.4c-1.9,0.7-2.8,1.8-2.8,3.3c0,1.7,1.3,2.9,3.3,2.9C190.6,179.3,191.8,178.7,192.9,177.5z"/>
		<path class="st8" d="M206.3,165.9h2.1l5.5,12.3l5.5-12.3h2.1v14.9h-2v-11.1l-4.9,11.1h-1.4l-5-11.1v11.1h-2V165.9z"/>
		<path class="st8" d="M230,181c-3.3,0-5.9-2.4-5.9-6.1c0-3.7,2.6-6.1,6-6.1c3.4,0,6,2.3,6,6.1C236,178.6,233.3,181,230,181z
			 M230,179.2c2,0,4-1.4,4-4.4c0-3-2-4.4-4-4.4c-2.1,0-3.9,1.4-3.9,4.4C226.1,177.8,227.9,179.2,230,179.2z"/>
		<path class="st8" d="M243.6,168.8c2.9,0,4.8,1.5,5.4,4h-2.1c-0.4-1.4-1.6-2.3-3.3-2.3c-2.2,0-3.7,1.5-3.7,4.4
			c0,2.9,1.6,4.5,3.7,4.5c1.7,0,2.9-0.8,3.3-2.3h2.1c-0.6,2.3-2.5,4-5.4,4c-3.4,0-5.7-2.4-5.7-6.1
			C237.9,171.2,240.3,168.8,243.6,168.8z"/>
		<path class="st8" d="M251.7,164.8h2v9.4l4.5-5.2h2.7l-5.6,5.9l5.6,5.9h-2.7l-4.6-5.2v5.2h-2V164.8z"/>
		<path class="st8" d="M273.2,180.8h-2V179c-0.8,1.2-2.2,1.9-3.8,1.9c-2.7,0-4.8-1.7-4.8-5.1V169h1.9v6.6c0,2.4,1.3,3.6,3.3,3.6
			c2,0,3.4-1.2,3.4-3.8V169h2V180.8z"/>
		<path class="st8" d="M282.9,168.8c3.2,0,5.6,2.4,5.6,6c0,3.7-2.4,6.1-5.6,6.1c-2.2,0-3.7-1.2-4.4-2.4v7.8h-2V169h2v2.2
			C279.2,169.9,280.7,168.8,282.9,168.8z M282.5,170.5c-2.1,0-4,1.6-4,4.4c0,2.8,1.9,4.4,4,4.4c2.2,0,4-1.6,4-4.4
			S284.7,170.5,282.5,170.5z"/>
		<path class="st8" d="M295.2,181c-2.8,0-4.7-1.5-4.8-3.7h2c0.1,1.1,1.1,2,2.8,2c1.5,0,2.4-0.8,2.4-1.7c0-2.6-7-1.1-7-5.5
			c0-1.8,1.7-3.3,4.3-3.3c2.6,0,4.3,1.4,4.5,3.7h-2c-0.1-1.2-1-2-2.6-2c-1.4,0-2.3,0.7-2.3,1.6c0,2.8,6.8,1.3,6.9,5.5
			C299.5,179.5,297.8,181,295.2,181z"/>
	</g>
	<g>
		<path class="st8" d="M36.8,205.8h8.6v1.7h-8.6V205.8z"/>
		<path class="st8" d="M60.4,214.5h-5.6v-15h5.4c3.2,0,4.8,1.7,4.8,3.8c0,1.9-1.2,3-2.6,3.5c1.6,0.3,3,1.9,3,3.7
			C65.3,212.7,63.5,214.5,60.4,214.5z M60,201.1h-3.2v4.9h3.3c1.8,0,2.9-0.9,2.9-2.4C63,202,62,201.1,60,201.1z M60.2,207.6h-3.4
			v5.3h3.5c1.9,0,3.1-1,3.1-2.6C63.4,208.6,62.1,207.6,60.2,207.6z"/>
		<path class="st8" d="M70,214.5h-2v-11.8h2v1.9c0.7-1.3,1.9-2.1,3.8-2.1v2h-0.5c-1.9,0-3.3,0.8-3.3,3.6V214.5z"/>
		<path class="st8" d="M80.9,202.5c2.2,0,3.7,1.1,4.4,2.3v-2.2h2v11.8h-2v-2.2c-0.7,1.3-2.2,2.4-4.4,2.4c-3.1,0-5.6-2.5-5.6-6.1
			C75.3,204.9,77.8,202.5,80.9,202.5z M81.3,204.2c-2.2,0-4,1.6-4,4.3s1.8,4.4,4,4.4s4-1.6,4-4.4C85.3,205.8,83.5,204.2,81.3,204.2z
			"/>
		<path class="st8" d="M99.2,207.8c0-2.4-1.3-3.6-3.3-3.6c-2,0-3.4,1.2-3.4,3.8v6.5h-2v-11.8h2v1.7c0.8-1.2,2.2-1.9,3.8-1.9
			c2.7,0,4.8,1.7,4.8,5.1v6.9h-1.9V207.8z"/>
		<path class="st8" d="M109.3,202.5c1.8,0,3.5,0.9,4.4,2.3v-6.2h2v15.9h-2v-2.2c-0.7,1.3-2.2,2.4-4.4,2.4c-3.2,0-5.6-2.5-5.6-6.1
			C103.6,204.9,106.1,202.5,109.3,202.5z M109.6,204.2c-2.2,0-4,1.6-4,4.3s1.8,4.4,4,4.4s4-1.6,4-4.4
			C113.6,205.8,111.8,204.2,109.6,204.2z"/>
		<path class="st8" d="M118.6,199.4c0-0.8,0.6-1.3,1.3-1.3c0.7,0,1.3,0.6,1.3,1.3c0,0.8-0.6,1.3-1.3,1.3
			C119.2,200.8,118.6,200.2,118.6,199.4z M118.9,202.7h2v11.8h-2V202.7z"/>
		<path class="st8" d="M132.8,207.8c0-2.4-1.3-3.6-3.3-3.6c-2,0-3.4,1.2-3.4,3.8v6.5h-2v-11.8h2v1.7c0.8-1.2,2.2-1.9,3.8-1.9
			c2.7,0,4.8,1.7,4.8,5.1v6.9h-1.9V207.8z"/>
		<path class="st8" d="M142.9,202.5c2.2,0,3.7,1.1,4.4,2.3v-2.2h2v12c0,3.2-2.2,5.6-5.6,5.6c-3.1,0-5.3-1.6-5.7-4.1h1.9
			c0.4,1.4,1.8,2.4,3.8,2.4c2.1,0,3.7-1.3,3.7-3.9v-2.5c-0.7,1.3-2.2,2.4-4.4,2.4c-3.2,0-5.6-2.5-5.6-6.1
			C137.3,204.9,139.7,202.5,142.9,202.5z M143.2,204.2c-2.2,0-4,1.6-4,4.3s1.8,4.4,4,4.4s4-1.6,4-4.4
			C147.2,205.8,145.4,204.2,143.2,204.2z"/>
	</g>
	<g>
		<path class="st8" d="M36.8,239.8h8.6v1.7h-8.6V239.8z"/>
		<path class="st8" d="M61.6,233.3c3.2,0,5.8,1.6,6.9,4.5h-2.3c-0.8-1.8-2.4-2.8-4.6-2.8c-3.1,0-5.5,2.3-5.5,6
			c0,3.7,2.3,5.9,5.5,5.9c2.2,0,3.8-1,4.6-2.8h2.3c-1.1,2.9-3.7,4.5-6.9,4.5c-4.2,0-7.5-3.1-7.5-7.6
			C54.1,236.5,57.4,233.3,61.6,233.3z"/>
		<path class="st8" d="M76.3,236.5c2.2,0,3.7,1.1,4.4,2.3v-2.2h2v11.8h-2v-2.2c-0.7,1.3-2.2,2.4-4.4,2.4c-3.1,0-5.6-2.5-5.6-6.1
			C70.7,238.9,73.2,236.5,76.3,236.5z M76.7,238.2c-2.2,0-4,1.6-4,4.3s1.8,4.4,4,4.4c2.2,0,4-1.6,4-4.4
			C80.7,239.8,78.9,238.2,76.7,238.2z"/>
		<path class="st8" d="M90.2,248.7c-2.8,0-4.7-1.5-4.8-3.7h2c0.1,1.1,1.1,2,2.8,2c1.5,0,2.4-0.8,2.4-1.7c0-2.6-7-1.1-7-5.5
			c0-1.8,1.7-3.3,4.3-3.3c2.6,0,4.3,1.4,4.5,3.7h-2c-0.1-1.2-1-2-2.6-2c-1.4,0-2.3,0.7-2.3,1.6c0,2.8,6.8,1.3,6.9,5.5
			C94.5,247.2,92.8,248.7,90.2,248.7z"/>
		<path class="st8" d="M102.3,248.7c-3.4,0-5.8-2.4-5.8-6.1c0-3.7,2.4-6.1,5.8-6.1c3.4,0,5.7,2.4,5.7,5.6c0,0.4,0,0.8-0.1,1.2h-9.4
			c0.2,2.4,1.8,3.7,3.8,3.7c1.8,0,2.9-0.9,3.3-2.2h2.1C107.2,247,105.3,248.7,102.3,248.7z M98.5,241.7h7.4c0-2.3-1.7-3.6-3.7-3.6
			C100.3,238.1,98.7,239.4,98.5,241.7z"/>
		<path class="st8" d="M121.1,248.6c-3,0-5.1-1.7-5.2-4.2h2.1c0.1,1.2,1,2.5,3.1,2.5c1.9,0,3-1.1,3-2.5c0-4-8.1-1.5-8.1-7
			c0-2.5,2-4.2,5-4.2c2.9,0,4.7,1.6,5,3.9h-2.2c-0.1-1-1.1-2.2-2.9-2.2c-1.6,0-2.9,0.8-2.9,2.4c0,3.9,8.1,1.5,8.1,7
			C126.1,246.5,124.3,248.6,121.1,248.6z"/>
		<path class="st8" d="M129.4,238.3h-1.5v-1.6h1.5v-3h2v3h3.1v1.6h-3.1v7c0,1.2,0.4,1.6,1.6,1.6h1.4v1.7h-1.8
			c-2.1,0-3.3-0.9-3.3-3.2V238.3z"/>
		<path class="st8" d="M147.2,248.5h-2v-1.7c-0.8,1.2-2.2,1.9-3.8,1.9c-2.7,0-4.8-1.7-4.8-5.1v-6.9h1.9v6.6c0,2.4,1.3,3.6,3.3,3.6
			c2,0,3.4-1.2,3.4-3.8v-6.5h2V248.5z"/>
		<path class="st8" d="M155.4,236.5c1.9,0,3.6,0.9,4.4,2.3v-6.2h2v15.9h-2v-2.2c-0.7,1.3-2.2,2.4-4.4,2.4c-3.2,0-5.6-2.5-5.6-6.1
			C149.8,238.9,152.3,236.5,155.4,236.5z M155.8,238.2c-2.2,0-4,1.6-4,4.3s1.8,4.4,4,4.4s4-1.6,4-4.4
			C159.8,239.8,158,238.2,155.8,238.2z"/>
		<path class="st8" d="M164.8,233.4c0-0.8,0.6-1.3,1.3-1.3c0.7,0,1.3,0.6,1.3,1.3c0,0.8-0.6,1.3-1.3,1.3
			C165.4,234.8,164.8,234.2,164.8,233.4z M165.1,236.7h2v11.8h-2V236.7z"/>
		<path class="st8" d="M175.5,248.7c-3.4,0-5.8-2.4-5.8-6.1c0-3.7,2.4-6.1,5.8-6.1c3.4,0,5.7,2.4,5.7,5.6c0,0.4,0,0.8-0.1,1.2h-9.4
			c0.2,2.4,1.8,3.7,3.8,3.7c1.8,0,2.9-0.9,3.3-2.2h2.1C180.3,247,178.4,248.7,175.5,248.7z M171.7,241.7h7.4c0-2.3-1.7-3.6-3.7-3.6
			C173.5,238.1,171.9,239.4,171.7,241.7z"/>
		<path class="st8" d="M187.9,248.7c-2.8,0-4.7-1.5-4.8-3.7h2c0.1,1.1,1.1,2,2.8,2c1.5,0,2.4-0.8,2.4-1.7c0-2.6-7-1.1-7-5.5
			c0-1.8,1.7-3.3,4.3-3.3c2.6,0,4.3,1.4,4.5,3.7h-2c-0.1-1.2-1-2-2.6-2c-1.4,0-2.3,0.7-2.3,1.6c0,2.8,6.8,1.3,6.9,5.5
			C192.2,247.2,190.5,248.7,187.9,248.7z"/>
	</g>
	<g>
		<path class="st8" d="M36.8,273.7h8.6v1.7h-8.6V273.7z"/>
		<path class="st8" d="M68.5,271.7h-2.3c-0.8-1.7-2.5-2.8-4.6-2.8c-3.2,0-5.5,2.3-5.5,5.9c0,3.6,2.4,5.9,5.5,5.9
			c2.9,0,5-1.9,5.3-4.9h-6v-1.6H69v1.5c-0.3,3.7-3.3,6.7-7.4,6.7c-4.2,0-7.5-3.1-7.5-7.6c0-4.5,3.3-7.7,7.5-7.7
			C64.8,267.2,67.4,268.8,68.5,271.7z"/>
		<path class="st8" d="M76.4,270.4c2.2,0,3.7,1.1,4.4,2.3v-2.2h2v11.8h-2v-2.2c-0.7,1.3-2.2,2.4-4.4,2.4c-3.1,0-5.6-2.5-5.6-6.1
			C70.9,272.8,73.3,270.4,76.4,270.4z M76.8,272.1c-2.2,0-4,1.6-4,4.3s1.8,4.4,4,4.4s4-1.6,4-4.4C80.8,273.7,79,272.1,76.8,272.1z"
			/>
		<path class="st8" d="M103.1,275.7c0-2.4-1.3-3.6-3.2-3.6c-2,0-3.3,1.3-3.3,3.8v6.5h-1.9v-6.7c0-2.4-1.3-3.6-3.2-3.6
			c-2,0-3.3,1.3-3.3,3.8v6.5h-2v-11.8h2v1.7c0.8-1.2,2.2-1.9,3.7-1.9c1.9,0,3.5,0.9,4.3,2.6c0.7-1.7,2.4-2.6,4.2-2.6
			c2.7,0,4.8,1.7,4.8,5.1v6.9h-1.9V275.7z"/>
		<path class="st8" d="M113.4,282.6c-3.4,0-5.8-2.4-5.8-6.1c0-3.7,2.4-6.1,5.8-6.1c3.4,0,5.7,2.4,5.7,5.6c0,0.4,0,0.8-0.1,1.2h-9.4
			c0.2,2.4,1.8,3.7,3.8,3.7c1.8,0,2.9-0.9,3.3-2.2h2.1C118.2,280.9,116.3,282.6,113.4,282.6z M109.6,275.6h7.4
			c0-2.3-1.7-3.6-3.7-3.6C111.4,272,109.8,273.3,109.6,275.6z"/>
		<path class="st8" d="M140,274.9c0,4.6-3,7.5-8,7.5h-4.7v-15h4.7C137,267.4,140,270.3,140,274.9z M132.1,280.8c3.9,0,6-2.2,6-5.9
			s-2-5.9-6-5.9h-2.7v11.8H132.1z"/>
		<path class="st8" d="M147.7,282.6c-3.4,0-5.8-2.4-5.8-6.1c0-3.7,2.4-6.1,5.8-6.1c3.4,0,5.7,2.4,5.7,5.6c0,0.4,0,0.8-0.1,1.2h-9.4
			c0.2,2.4,1.8,3.7,3.8,3.7c1.8,0,2.9-0.9,3.3-2.2h2.1C152.5,280.9,150.6,282.6,147.7,282.6z M143.9,275.6h7.4
			c0-2.3-1.7-3.6-3.7-3.6C145.7,272,144.1,273.3,143.9,275.6z"/>
		<path class="st8" d="M160.1,282.6c-2.8,0-4.7-1.5-4.8-3.7h2c0.1,1.1,1.1,2,2.8,2c1.5,0,2.4-0.8,2.4-1.7c0-2.6-7-1.1-7-5.5
			c0-1.8,1.7-3.3,4.3-3.3c2.6,0,4.3,1.4,4.5,3.7h-2c-0.1-1.2-1-2-2.6-2c-1.4,0-2.3,0.7-2.3,1.6c0,2.8,6.8,1.3,6.9,5.5
			C164.4,281.1,162.7,282.6,160.1,282.6z"/>
		<path class="st8" d="M166.9,267.3c0-0.8,0.6-1.3,1.3-1.3c0.7,0,1.3,0.6,1.3,1.3s-0.6,1.3-1.3,1.3
			C167.4,268.7,166.9,268.1,166.9,267.3z M167.2,270.6h2v11.8h-2V270.6z"/>
		<path class="st8" d="M177.3,270.4c2.2,0,3.7,1.1,4.4,2.3v-2.2h2v12c0,3.2-2.2,5.6-5.6,5.6c-3.1,0-5.3-1.6-5.7-4.1h1.9
			c0.4,1.4,1.8,2.4,3.8,2.4c2.1,0,3.7-1.3,3.7-3.9v-2.5c-0.7,1.3-2.2,2.4-4.4,2.4c-3.2,0-5.6-2.5-5.6-6.1
			C171.7,272.8,174.2,270.4,177.3,270.4z M177.7,272.1c-2.2,0-4,1.6-4,4.3s1.8,4.4,4,4.4s4-1.6,4-4.4
			C181.7,273.7,179.9,272.1,177.7,272.1z"/>
		<path class="st8" d="M195.6,275.7c0-2.4-1.3-3.6-3.3-3.6c-2,0-3.4,1.2-3.4,3.8v6.5h-2v-11.8h2v1.7c0.8-1.2,2.2-1.9,3.8-1.9
			c2.7,0,4.8,1.7,4.8,5.1v6.9h-1.9V275.7z"/>
	</g>
	<g>
		<path class="st8" d="M36.8,307.5h8.6v1.7h-8.6V307.5z"/>
		<path class="st8" d="M54.8,301.3h2.1l5.5,12.3l5.5-12.3h2.1v14.9h-2v-11.1l-4.9,11.1h-1.4l-5-11.1v11.1h-2V301.3z"/>
		<path class="st8" d="M78.5,316.4c-3.3,0-5.9-2.4-5.9-6.1c0-3.7,2.6-6.1,6-6.1c3.4,0,6,2.3,6,6.1C84.6,314,81.9,316.4,78.5,316.4z
			 M78.5,314.6c2,0,4-1.4,4-4.4c0-3-2-4.4-4-4.4c-2.1,0-3.9,1.4-3.9,4.4C74.6,313.2,76.5,314.6,78.5,314.6z"/>
		<path class="st8" d="M87.6,306H86v-1.6h1.5v-3h2v3h3.1v1.6h-3.1v7c0,1.2,0.4,1.6,1.6,1.6h1.4v1.7h-1.8c-2.1,0-3.3-0.9-3.3-3.2V306
			z"/>
		<path class="st8" d="M94.7,301.1c0-0.8,0.6-1.3,1.3-1.3c0.7,0,1.3,0.6,1.3,1.3c0,0.8-0.6,1.3-1.3,1.3
			C95.2,302.5,94.7,301.9,94.7,301.1z M95,304.4h2v11.8h-2V304.4z"/>
		<path class="st8" d="M105.4,316.4c-3.3,0-5.9-2.4-5.9-6.1c0-3.7,2.6-6.1,6-6.1c3.4,0,6,2.3,6,6.1
			C111.5,314,108.8,316.4,105.4,316.4z M105.4,314.6c2,0,4-1.4,4-4.4c0-3-2-4.4-4-4.4c-2.1,0-3.9,1.4-3.9,4.4
			C101.5,313.2,103.4,314.6,105.4,314.6z"/>
		<path class="st8" d="M122.7,309.5c0-2.4-1.3-3.6-3.3-3.6c-2,0-3.4,1.2-3.4,3.8v6.5h-2v-11.8h2v1.7c0.8-1.2,2.2-1.9,3.8-1.9
			c2.7,0,4.8,1.7,4.8,5.1v6.9h-1.9V309.5z"/>
		<path class="st8" d="M147.3,305.5h-2.3c-0.8-1.7-2.5-2.8-4.6-2.8c-3.2,0-5.5,2.3-5.5,5.9c0,3.6,2.4,5.9,5.5,5.9
			c2.9,0,5-1.9,5.3-4.9h-6v-1.6h8.1v1.5c-0.3,3.7-3.3,6.7-7.4,6.7c-4.2,0-7.5-3.1-7.5-7.6c0-4.5,3.3-7.7,7.5-7.7
			C143.5,301,146.1,302.6,147.3,305.5z"/>
		<path class="st8" d="M152.3,316.2h-2v-11.8h2v1.9c0.7-1.3,1.9-2.1,3.8-2.1v2h-0.5c-1.9,0-3.3,0.8-3.3,3.6V316.2z"/>
		<path class="st8" d="M163.2,304.2c2.2,0,3.7,1.1,4.4,2.3v-2.2h2v11.8h-2V314c-0.7,1.3-2.2,2.4-4.4,2.4c-3.1,0-5.6-2.5-5.6-6.1
			C157.6,306.6,160,304.2,163.2,304.2z M163.6,305.9c-2.2,0-4,1.6-4,4.3s1.8,4.4,4,4.4s4-1.6,4-4.4
			C167.6,307.5,165.7,305.9,163.6,305.9z"/>
		<path class="st8" d="M179.2,304.2c3.2,0,5.6,2.4,5.6,6c0,3.7-2.4,6.1-5.6,6.1c-2.2,0-3.7-1.2-4.4-2.4v7.8h-2v-17.4h2v2.2
			C175.5,305.3,177.1,304.2,179.2,304.2z M178.8,305.9c-2.1,0-4,1.6-4,4.4c0,2.8,1.9,4.4,4,4.4c2.2,0,4-1.6,4-4.4
			S181,305.9,178.8,305.9z"/>
		<path class="st8" d="M187.4,300.2h2v5.8c0.8-1.2,2.2-1.9,3.9-1.9c2.6,0,4.7,1.7,4.7,5.1v6.9h-1.9v-6.7c0-2.4-1.3-3.6-3.3-3.6
			c-2,0-3.4,1.2-3.4,3.8v6.5h-2V300.2z"/>
		<path class="st8" d="M200.9,301.1c0-0.8,0.6-1.3,1.3-1.3c0.7,0,1.3,0.6,1.3,1.3c0,0.8-0.6,1.3-1.3,1.3
			C201.5,302.5,200.9,301.9,200.9,301.1z M201.2,304.4h2v11.8h-2V304.4z"/>
		<path class="st8" d="M211.5,304.2c2.9,0,4.8,1.5,5.4,4h-2.1c-0.4-1.4-1.6-2.3-3.3-2.3c-2.2,0-3.7,1.5-3.7,4.4
			c0,2.9,1.6,4.5,3.7,4.5c1.7,0,2.9-0.8,3.3-2.3h2.1c-0.6,2.3-2.5,4-5.4,4c-3.4,0-5.7-2.4-5.7-6.1
			C205.8,306.6,208.1,304.2,211.5,304.2z"/>
		<path class="st8" d="M223.7,316.4c-2.8,0-4.7-1.5-4.8-3.7h2c0.1,1.1,1.1,2,2.8,2c1.5,0,2.4-0.8,2.4-1.7c0-2.6-7-1.1-7-5.5
			c0-1.8,1.7-3.3,4.3-3.3c2.6,0,4.3,1.4,4.5,3.7h-2c-0.1-1.2-1-2-2.6-2c-1.4,0-2.3,0.7-2.3,1.6c0,2.8,6.8,1.3,6.9,5.5
			C228,314.9,226.3,316.4,223.7,316.4z"/>
	</g>
</g>
</svg>
