<?xml version="1.0" encoding="utf-8"?>
<!-- Generator: Adobe Illustrator 22.0.1, SVG Export Plug-In . SVG Version: 6.00 Build 0)  -->
<svg version="1.1" id="Layer_1" xmlns="http://www.w3.org/2000/svg" xmlns:xlink="http://www.w3.org/1999/xlink" x="0px" y="0px"
	 viewBox="0 0 684.3 341.4" style="enable-background:new 0 0 684.3 341.4;" xml:space="preserve">
<style type="text/css">
	.st0{display:none;}
	.st1{display:inline;fill:none;stroke:#000000;stroke-width:5;stroke-opacity:5.000000e-02;}
	.st2{display:inline;fill:none;stroke:#000000;stroke-width:3;stroke-opacity:0.1;}
	.st3{display:inline;fill:none;stroke:#000000;stroke-opacity:0.15;}
	.st4{display:inline;fill:#FFFFFF;fill-opacity:0.85;}
	.st5{fill:#BC2032;}
	.st6{fill:#E5E5E5;}
</style>
<desc>Created with Highcharts 4.2.7</desc>
<g transform="translate(0,0)" class="st0">
	<path class="st1" d="M-281.6,10.5h10c3,0,3,0,3,3v10c0,3,0,3-3,3h-10c-3,0-3,0-3-3v-10C-284.6,10.5-284.6,10.5-281.6,10.5"/>
	<path class="st2" d="M-281.6,10.5h10c3,0,3,0,3,3v10c0,3,0,3-3,3h-10c-3,0-3,0-3-3v-10C-284.6,10.5-284.6,10.5-281.6,10.5"/>
	<path class="st3" d="M-281.6,10.5h10c3,0,3,0,3,3v10c0,3,0,3-3,3h-10c-3,0-3,0-3-3v-10C-284.6,10.5-284.6,10.5-281.6,10.5"/>
	<path class="st4" d="M-282.6,9.5h10c3,0,3,0,3,3v10c0,3,0,3-3,3h-10c-3,0-3,0-3-3v-10C-285.6,9.5-285.6,9.5-282.6,9.5"/>
</g>
<g>
	<g>
		<g>
			<path class="st5" d="M123.5,35.7l-4.1,15.4h-3.8l-2.6-9.9c-0.1-0.5-0.2-1.1-0.2-1.7l0,0c-0.1,0.7-0.2,1.3-0.3,1.7l-2.6,9.9h-4
				l-4-15.4h3.8l2.2,10.2c0.1,0.4,0.2,1,0.2,1.8h0.1c0-0.6,0.1-1.2,0.3-1.8l2.8-10.2h3.7l2.5,10.3c0.1,0.4,0.2,0.9,0.2,1.7l0,0
				c0-0.6,0.1-1.1,0.2-1.7l2.1-10.3C120,35.7,123.5,35.7,123.5,35.7z"/>
			<path class="st5" d="M135.7,51h-3.4v-6.2c0-1.6-0.6-2.4-1.8-2.4c-0.6,0-1.1,0.2-1.5,0.7s-0.6,1-0.6,1.7v6.3H125V34.8h3.4v6.9l0,0
				c0.8-1.3,2-1.9,3.4-1.9c2.5,0,3.7,1.5,3.7,4.5V51H135.7z"/>
			<path class="st5" d="M147.5,51h-3.2v-1.6l0,0c-0.7,1.2-1.8,1.8-3.3,1.8c-1.1,0-1.9-0.3-2.5-0.9c-0.6-0.6-0.9-1.4-0.9-2.4
				c0-2.1,1.3-3.4,3.8-3.7l3-0.4c0-1.2-0.7-1.8-2-1.8s-2.6,0.4-3.7,1.2v-2.6c0.5-0.2,1.1-0.5,1.9-0.6c0.8-0.2,1.6-0.3,2.2-0.3
				c3.1,0,4.7,1.6,4.7,4.7V51z M144.3,46.6v-0.8l-2,0.3c-1.1,0.1-1.7,0.6-1.7,1.5c0,0.4,0.1,0.7,0.4,0.9c0.3,0.2,0.6,0.4,1.1,0.4
				c0.6,0,1.2-0.2,1.6-0.7C144.1,47.8,144.3,47.2,144.3,46.6z"/>
			<path class="st5" d="M156.8,50.9c-0.5,0.3-1.3,0.4-2.3,0.4c-2.4,0-3.6-1.2-3.6-3.7v-5h-1.8v-2.5h1.8v-2.4l3.4-1V40h2.5v2.5h-2.5
				v4.4c0,1.1,0.5,1.7,1.4,1.7c0.4,0,0.7-0.1,1.1-0.3L156.8,50.9L156.8,50.9z"/>
			<path class="st5" d="M173.1,50.6c-0.8,0.4-1.9,0.7-3.3,0.7c-1.7,0-3.1-0.5-4.1-1.5s-1.6-2.3-1.6-4c0-1.9,0.6-3.3,1.7-4.4
				c1.1-1.1,2.6-1.6,4.5-1.6c1.3,0,2.2,0.2,2.8,0.5v2.9c-0.7-0.5-1.5-0.8-2.4-0.8c-1,0-1.7,0.3-2.3,0.9s-0.9,1.4-0.9,2.4
				s0.3,1.7,0.8,2.3s1.3,0.8,2.2,0.8c0.8,0,1.7-0.3,2.5-0.8v2.6C173,50.6,173.1,50.6,173.1,50.6z"/>
			<path class="st5" d="M184.5,51h-3.2v-1.6l0,0c-0.7,1.2-1.8,1.8-3.3,1.8c-1.1,0-1.9-0.3-2.5-0.9c-0.6-0.6-0.9-1.4-0.9-2.4
				c0-2.1,1.3-3.4,3.8-3.7l3-0.4c0-1.2-0.7-1.8-2-1.8s-2.6,0.4-3.7,1.2v-2.6c0.5-0.2,1.1-0.5,1.9-0.6c0.8-0.2,1.6-0.3,2.2-0.3
				c3.1,0,4.7,1.6,4.7,4.7V51z M181.3,46.6v-0.8l-2,0.3c-1.1,0.1-1.7,0.6-1.7,1.5c0,0.4,0.1,0.7,0.4,0.9c0.3,0.2,0.6,0.4,1.1,0.4
				c0.6,0,1.2-0.2,1.6-0.7C181.1,47.8,181.3,47.2,181.3,46.6z"/>
			<path class="st5" d="M197.8,51h-3.4v-6.1c0-1.7-0.6-2.6-1.8-2.6c-0.6,0-1.1,0.2-1.4,0.7c-0.4,0.5-0.6,1-0.6,1.7V51h-3.4V40h3.4
				v1.8l0,0c0.8-1.3,2-2,3.5-2c2.4,0,3.6,1.5,3.6,4.5L197.8,51L197.8,51z"/>
			<path class="st5" d="M211.6,35.7v2.7h-1.3v10h1.3v2.7h-6v-2.7h1.3v-10h-1.3v-2.7H211.6z"/>
			<path class="st5" d="M230.3,51h-3.4v-1.5l0,0c-0.8,1.2-1.9,1.8-3.4,1.8c-1.4,0-2.5-0.5-3.3-1.5s-1.3-2.3-1.3-4.1s0.5-3.3,1.4-4.4
				c0.9-1.1,2.1-1.6,3.6-1.6c1.4,0,2.4,0.5,3,1.5l0,0v-6.4h3.4V51z M226.9,45.7v-0.8c0-0.7-0.2-1.3-0.6-1.8c-0.4-0.5-1-0.7-1.6-0.7
				c-0.8,0-1.3,0.3-1.8,0.9s-0.6,1.4-0.6,2.4s0.2,1.7,0.6,2.2c0.4,0.5,1,0.8,1.7,0.8s1.2-0.3,1.7-0.8S226.9,46.6,226.9,45.7z"/>
			<path class="st5" d="M238.4,51.3c-1.8,0-3.3-0.5-4.3-1.5s-1.6-2.4-1.6-4.2s0.5-3.2,1.6-4.3c1.1-1,2.6-1.5,4.4-1.5
				c1.8,0,3.3,0.5,4.3,1.5s1.6,2.4,1.6,4.1c0,1.8-0.5,3.3-1.6,4.3C241.7,50.8,240.2,51.3,238.4,51.3z M238.4,42.4
				c-0.8,0-1.4,0.3-1.9,0.8s-0.7,1.3-0.7,2.3c0,2.1,0.9,3.2,2.6,3.2c1.6,0,2.4-1.1,2.4-3.3C240.9,43.4,240.1,42.4,238.4,42.4z"/>
			<path class="st5" d="M248,46.6c-0.1-0.2-0.1-0.4-0.2-0.6c0-0.2-0.1-0.5-0.1-0.7c0-0.3,0-0.6,0.1-0.9c0.1-0.3,0.2-0.5,0.3-0.8
				c0.1-0.2,0.3-0.5,0.5-0.7s0.4-0.4,0.7-0.6c0.3-0.2,0.5-0.4,0.7-0.6c0.2-0.2,0.4-0.4,0.5-0.6c0.1-0.2,0.3-0.4,0.3-0.6
				s0.1-0.4,0.1-0.7c0-0.2,0-0.4-0.1-0.6c-0.1-0.2-0.2-0.4-0.3-0.5s-0.3-0.2-0.5-0.3s-0.4-0.1-0.7-0.1c-0.6,0-1.1,0.1-1.7,0.3
				c-0.6,0.2-1.2,0.6-1.7,1.1v-3.2c0.6-0.3,1.2-0.6,1.8-0.7c0.7-0.2,1.3-0.2,2-0.2s1.3,0.1,1.9,0.2s1.1,0.4,1.5,0.7s0.8,0.7,1,1.2
				s0.4,1.1,0.4,1.8c0,0.4-0.1,0.8-0.2,1.2c-0.1,0.4-0.2,0.7-0.4,1s-0.4,0.6-0.7,0.9c-0.3,0.3-0.6,0.6-1,0.9
				c-0.3,0.2-0.5,0.4-0.7,0.6c-0.2,0.2-0.3,0.4-0.5,0.5c-0.1,0.2-0.2,0.4-0.3,0.6c-0.1,0.2-0.1,0.4-0.1,0.7c0,0.2,0,0.3,0.1,0.5
				c0,0.2,0.1,0.3,0.2,0.5H248V46.6z M249.5,51.3c-0.6,0-1-0.2-1.4-0.5c-0.4-0.4-0.6-0.8-0.6-1.3s0.2-0.9,0.6-1.3s0.9-0.5,1.4-0.5
				c0.6,0,1,0.2,1.4,0.5s0.6,0.7,0.6,1.3c0,0.5-0.2,0.9-0.5,1.3C250.6,51.1,250.1,51.3,249.5,51.3z"/>
		</g>
		<g>
			<g>
				<path class="st5" d="M470.6,51h-3.5v-6.2h-6.4v6.3h-3.5V35.7h3.5v6.1h6.4v-6.1h3.5V51z"/>
				<path class="st5" d="M482.9,51h-3.2v-1.6l0,0c-0.7,1.2-1.8,1.8-3.3,1.8c-1.1,0-1.9-0.3-2.5-0.9c-0.6-0.6-0.9-1.4-0.9-2.4
					c0-2.1,1.3-3.4,3.8-3.7l3-0.4c0-1.2-0.7-1.8-2-1.8s-2.6,0.4-3.7,1.2v-2.6c0.5-0.2,1.1-0.5,1.9-0.6c0.8-0.2,1.6-0.3,2.2-0.3
					c3.1,0,4.7,1.6,4.7,4.7V51z M479.7,46.6v-0.8l-2,0.3c-1.1,0.1-1.7,0.6-1.7,1.5c0,0.4,0.1,0.7,0.4,0.9s0.6,0.4,1.1,0.4
					c0.6,0,1.2-0.2,1.6-0.7C479.5,47.8,479.7,47.2,479.7,46.6z"/>
				<path class="st5" d="M492.8,43.1c-0.4-0.2-0.9-0.3-1.4-0.3c-0.7,0-1.3,0.3-1.7,0.8s-0.7,1.3-0.7,2.2V51h-3.4V40h3.4v2l0,0
					c0.5-1.5,1.5-2.2,2.9-2.2c0.4,0,0.6,0,0.8,0.1v3.2H492.8z"/>
				<path class="st5" d="M505.1,51h-3.4v-1.5l0,0c-0.8,1.2-1.9,1.8-3.4,1.8c-1.4,0-2.5-0.5-3.3-1.5s-1.3-2.3-1.3-4.1
					s0.5-3.3,1.4-4.4c0.9-1.1,2.1-1.6,3.6-1.6c1.4,0,2.4,0.5,3,1.5l0,0v-6.4h3.4L505.1,51L505.1,51z M501.8,45.7v-0.8
					c0-0.7-0.2-1.3-0.6-1.8s-1-0.7-1.6-0.7c-0.8,0-1.3,0.3-1.8,0.9s-0.6,1.4-0.6,2.4s0.2,1.7,0.6,2.2s1,0.8,1.7,0.8s1.2-0.3,1.7-0.8
					S501.8,46.6,501.8,45.7z"/>
				<path class="st5" d="M513.6,50.4V47c0.6,0.5,1.3,0.9,2,1.2s1.5,0.4,2.2,0.4c0.4,0,0.8,0,1.1-0.1s0.6-0.2,0.8-0.3
					s0.4-0.3,0.5-0.5s0.2-0.4,0.2-0.6c0-0.3-0.1-0.6-0.3-0.8s-0.4-0.5-0.7-0.7s-0.6-0.4-1.1-0.6c-0.4-0.2-0.8-0.4-1.3-0.6
					c-1.2-0.5-2.1-1.1-2.7-1.8c-0.6-0.7-0.9-1.6-0.9-2.6c0-0.8,0.2-1.5,0.5-2.1s0.8-1,1.3-1.4c0.6-0.4,1.2-0.6,1.9-0.8
					s1.5-0.3,2.3-0.3s1.5,0,2.1,0.1s1.2,0.2,1.7,0.4v3.2c-0.3-0.2-0.5-0.3-0.8-0.5s-0.6-0.2-0.9-0.3c-0.3-0.1-0.6-0.2-1-0.2
					c-0.3,0-0.6-0.1-0.9-0.1c-0.4,0-0.8,0-1.1,0.1s-0.6,0.2-0.8,0.3s-0.4,0.3-0.5,0.5s-0.2,0.4-0.2,0.6c0,0.3,0.1,0.5,0.2,0.7
					s0.3,0.4,0.6,0.6s0.6,0.4,0.9,0.5c0.4,0.2,0.8,0.4,1.2,0.5c0.6,0.3,1.2,0.5,1.7,0.8s0.9,0.6,1.3,1c0.4,0.4,0.6,0.8,0.8,1.3
					s0.3,1,0.3,1.6c0,0.9-0.2,1.6-0.5,2.2c-0.3,0.6-0.8,1.1-1.3,1.4c-0.6,0.4-1.2,0.6-1.9,0.8s-1.5,0.2-2.3,0.2s-1.6-0.1-2.4-0.2
					S514.2,50.7,513.6,50.4z"/>
				<path class="st5" d="M537.3,51h-4.1l-3.5-5.4l0,0V51h-3.4V34.8h3.4v10.4l0,0l3.3-5.1h4l-3.9,5.2L537.3,51z"/>
				<path class="st5" d="M540.3,38.3c-0.6,0-1-0.2-1.4-0.5s-0.5-0.8-0.5-1.2c0-0.5,0.2-0.9,0.5-1.2c0.4-0.3,0.8-0.5,1.4-0.5
					c0.6,0,1,0.2,1.4,0.5s0.5,0.7,0.5,1.2s-0.2,0.9-0.5,1.3S540.9,38.3,540.3,38.3z M542,51h-3.4V40h3.4V51z"/>
				<path class="st5" d="M548.2,51h-3.4V34.8h3.4V51z"/>
				<path class="st5" d="M554.5,51h-3.4V34.8h3.4V51z"/>
				<path class="st5" d="M556.6,50.7V48c0.6,0.3,1.1,0.6,1.7,0.8c0.6,0.2,1.1,0.2,1.6,0.2c0.6,0,1.1-0.1,1.4-0.2
					c0.3-0.2,0.5-0.4,0.5-0.8c0-0.2-0.1-0.4-0.2-0.5c-0.2-0.1-0.4-0.3-0.6-0.4c-0.2-0.1-0.5-0.2-0.8-0.3s-0.6-0.2-0.8-0.3
					c-0.4-0.2-0.8-0.3-1.2-0.5c-0.3-0.2-0.6-0.4-0.8-0.7s-0.4-0.5-0.5-0.9c-0.1-0.3-0.2-0.7-0.2-1.2c0-0.6,0.1-1.1,0.4-1.6
					c0.3-0.4,0.6-0.8,1.1-1.1c0.4-0.3,1-0.5,1.5-0.6c0.6-0.1,1.2-0.2,1.8-0.2c0.5,0,1,0,1.5,0.1s1,0.2,1.5,0.3v2.7
					c-0.4-0.3-0.9-0.4-1.4-0.6c-0.5-0.1-1-0.2-1.4-0.2c-0.2,0-0.4,0-0.6,0.1c-0.2,0-0.4,0.1-0.5,0.2c-0.2,0.1-0.3,0.2-0.4,0.3
					c-0.1,0.1-0.1,0.3-0.1,0.4c0,0.2,0.1,0.4,0.2,0.5c0.1,0.1,0.3,0.3,0.5,0.4c0.2,0.1,0.4,0.2,0.7,0.3s0.5,0.2,0.8,0.3
					c0.5,0.2,0.9,0.3,1.2,0.5c0.4,0.2,0.7,0.4,0.9,0.7c0.3,0.3,0.5,0.5,0.6,0.9c0.1,0.3,0.2,0.7,0.2,1.2c0,0.7-0.1,1.2-0.4,1.7
					s-0.7,0.8-1.1,1.1c-0.5,0.3-1,0.5-1.6,0.6s-1.2,0.2-1.9,0.2C558.8,51.3,557.6,51.1,556.6,50.7z"/>
				<path class="st5" d="M568.5,43.5c-0.6,0-1-0.2-1.4-0.5s-0.6-0.8-0.6-1.3s0.2-0.9,0.6-1.3c0.4-0.3,0.9-0.5,1.4-0.5
					c0.6,0,1.1,0.2,1.4,0.5c0.4,0.3,0.6,0.8,0.6,1.3s-0.2,0.9-0.6,1.3C569.6,43.3,569.1,43.5,568.5,43.5z M568.5,51.3
					c-0.6,0-1-0.2-1.4-0.5s-0.6-0.8-0.6-1.3s0.2-0.9,0.6-1.3s0.9-0.5,1.4-0.5c0.6,0,1.1,0.2,1.4,0.5c0.4,0.3,0.6,0.8,0.6,1.3
					s-0.2,0.9-0.6,1.3C569.6,51.1,569.1,51.3,568.5,51.3z"/>
			</g>
		</g>
		<g>
			<path class="st6" d="M38.8,93.4h-5.9V92h5.9V93.4z"/>
			<path class="st6" d="M59.5,92.6c0,4.3-1.9,6.5-5.8,6.5c-3.7,0-5.6-2.1-5.6-6.2v-9.4h1.8v9.3c0,3.2,1.3,4.7,4,4.7
				c2.6,0,3.9-1.5,3.9-4.6v-9.5h1.8v9.2H59.5z"/>
			<path class="st6" d="M73.9,98.8h-2.2l-3.5-5.9c-0.1-0.2-0.2-0.4-0.4-0.8l0,0c-0.1,0.2-0.2,0.4-0.4,0.8l-3.6,5.9h-2.2l5.1-7.7
				L62,83.4h2.2l3.1,5.4c0.2,0.4,0.4,0.7,0.5,1.1l0,0c0.2-0.5,0.4-0.8,0.6-1.1l3.3-5.4h2.1L69,91.1L73.9,98.8z"/>
			<path class="st6" d="M95.8,99.1c-0.4,0-0.8-0.1-1.1-0.2c-0.3-0.1-0.6-0.3-0.9-0.5s-0.5-0.5-0.8-0.7c-0.2-0.3-0.5-0.6-0.8-1
				c-0.3,0.3-0.6,0.6-1,0.9s-0.8,0.5-1.3,0.8s-1,0.4-1.5,0.5s-1.1,0.2-1.8,0.2c-0.8,0-1.5-0.1-2.1-0.3s-1.2-0.5-1.7-0.9
				s-0.8-0.8-1.1-1.4s-0.4-1.2-0.4-1.9c0-1.1,0.3-2,0.9-2.8s1.5-1.4,2.6-1.9c-0.2-0.2-0.4-0.3-0.6-0.6s-0.4-0.5-0.6-0.7
				s-0.3-0.6-0.4-0.9S83,87,83,86.6c0-0.6,0.1-1.1,0.3-1.5c0.2-0.4,0.5-0.8,0.8-1.1c0.4-0.3,0.8-0.5,1.3-0.7s1-0.2,1.6-0.2
				s1.1,0.1,1.5,0.2c0.5,0.2,0.9,0.4,1.2,0.7c0.3,0.3,0.6,0.6,0.8,1c0.2,0.4,0.3,0.8,0.3,1.3c0,0.9-0.2,1.6-0.7,2.1
				s-1.2,1.1-2.2,1.5c0.5,0.2,0.9,0.4,1.3,0.7c0.4,0.3,0.8,0.6,1.1,0.9c0.3,0.3,0.7,0.7,0.9,1.1c0.3,0.4,0.6,0.8,0.9,1.2
				c0.6-0.8,1-1.7,1.3-2.7s0.4-2,0.4-3.1c0-0.3,0-0.5,0-0.8c0-0.2-0.1-0.5-0.1-0.7h1.7c0.1,0.2,0.1,0.5,0.1,0.7s0,0.5,0,0.8
				c0,0.7-0.1,1.3-0.2,2s-0.3,1.3-0.5,1.9s-0.5,1.2-0.8,1.8c-0.3,0.6-0.6,1.1-1,1.5c0.3,0.3,0.5,0.6,0.7,0.9s0.4,0.5,0.6,0.6
				c0.2,0.2,0.4,0.3,0.7,0.4s0.5,0.1,0.8,0.1c0.2,0,0.4,0,0.7-0.1c0.2-0.1,0.5-0.1,0.7-0.2v1.6c-0.3,0.1-0.5,0.2-0.8,0.2
				C96.3,99.1,96,99.1,95.8,99.1z M86.8,97.6c0.5,0,1-0.1,1.5-0.2s0.9-0.3,1.3-0.5s0.7-0.4,1.1-0.7c0.3-0.3,0.6-0.5,0.9-0.8
				c-0.4-0.7-0.8-1.3-1.2-1.7s-0.7-0.9-1.1-1.3c-0.4-0.3-0.8-0.7-1.2-0.9c-0.4-0.3-0.9-0.5-1.5-0.7c-0.5,0.2-0.9,0.4-1.2,0.6
				c-0.4,0.2-0.7,0.5-1,0.8s-0.5,0.6-0.6,1s-0.2,0.9-0.2,1.4s0.1,0.9,0.3,1.3c0.2,0.4,0.4,0.7,0.7,0.9c0.3,0.2,0.7,0.4,1.1,0.6
				C85.8,97.5,86.3,97.6,86.8,97.6z M89.5,86.6c0-0.4-0.1-0.7-0.2-0.9c-0.1-0.3-0.3-0.5-0.5-0.6c-0.2-0.2-0.4-0.3-0.7-0.4
				c-0.3-0.1-0.5-0.1-0.7-0.1c-0.7,0-1.3,0.2-1.7,0.6c-0.4,0.4-0.6,0.9-0.6,1.5c0,0.3,0,0.6,0.1,0.8c0.1,0.3,0.2,0.5,0.4,0.7
				s0.3,0.4,0.6,0.6c0.2,0.2,0.4,0.3,0.7,0.4c0.9-0.3,1.6-0.7,2-1.1C89.2,87.8,89.5,87.2,89.5,86.6z"/>
			<path class="st6" d="M117.1,92.6c0,4.3-1.9,6.5-5.8,6.5c-3.7,0-5.6-2.1-5.6-6.2v-9.4h1.8v9.3c0,3.2,1.3,4.7,4,4.7
				c2.6,0,3.9-1.5,3.9-4.6v-9.5h1.8v9.2H117.1z"/>
			<path class="st6" d="M124.3,83.4v1.5h-1.5v12.3h1.5v1.5h-4.8v-1.5h1.5V85h-1.5v-1.5L124.3,83.4L124.3,83.4z"/>
			<path class="st6" d="M132.8,98.8V83.4h4.2c5.4,0,8.1,2.5,8.1,7.5c0,2.4-0.8,4.3-2.3,5.7c-1.5,1.4-3.5,2.2-6,2.2
				C136.8,98.8,132.8,98.8,132.8,98.8z M134.6,85.1v12.1h2.3c2,0,3.6-0.5,4.7-1.6c1.1-1.1,1.7-2.6,1.7-4.6c0-3.9-2.1-5.9-6.3-5.9
				H134.6z"/>
			<path class="st6" d="M156.8,93.8H149c0,1.2,0.4,2.2,1,2.8c0.6,0.7,1.5,1,2.6,1c1.2,0,2.4-0.4,3.4-1.2v1.7c-1,0.7-2.2,1.1-3.8,1.1
				s-2.8-0.5-3.7-1.5s-1.3-2.4-1.3-4.2c0-1.7,0.5-3.1,1.5-4.2s2.2-1.6,3.6-1.6s2.5,0.5,3.3,1.4s1.2,2.2,1.2,3.9V93.8z M155,92.3
				c0-1-0.3-1.8-0.7-2.4c-0.5-0.6-1.2-0.8-2-0.8s-1.5,0.3-2.1,0.9s-0.9,1.4-1.1,2.3H155z"/>
			<path class="st6" d="M158.8,98.4v-1.9c1,0.7,2,1.1,3.2,1.1c1.5,0,2.3-0.5,2.3-1.5c0-0.3-0.1-0.5-0.2-0.7
				c-0.1-0.2-0.3-0.4-0.5-0.5s-0.5-0.3-0.8-0.4s-0.6-0.3-1-0.4c-0.5-0.2-0.9-0.4-1.3-0.6c-0.4-0.2-0.7-0.4-0.9-0.7
				c-0.2-0.2-0.4-0.5-0.6-0.8c-0.1-0.3-0.2-0.7-0.2-1.1c0-0.5,0.1-1,0.4-1.4s0.6-0.7,0.9-1c0.4-0.3,0.8-0.5,1.3-0.6s1-0.2,1.6-0.2
				c1,0,1.8,0.2,2.6,0.5V90c-0.8-0.5-1.7-0.8-2.8-0.8c-0.3,0-0.6,0-0.9,0.1s-0.5,0.2-0.7,0.3c-0.2,0.1-0.3,0.3-0.4,0.5
				s-0.2,0.4-0.2,0.6c0,0.3,0.1,0.5,0.2,0.7c0.1,0.2,0.3,0.4,0.5,0.5s0.4,0.3,0.7,0.4s0.6,0.3,1,0.4c0.5,0.2,0.9,0.4,1.3,0.6
				c0.4,0.2,0.7,0.4,1,0.7c0.3,0.2,0.5,0.5,0.6,0.9c0.1,0.3,0.2,0.7,0.2,1.1c0,0.5-0.1,1-0.4,1.4s-0.6,0.7-1,1s-0.9,0.5-1.4,0.6
				s-1.1,0.2-1.6,0.2C160.6,99.1,159.7,98.9,158.8,98.4z"/>
			<path class="st6" d="M169.7,85.1c-0.3,0-0.6-0.1-0.8-0.3c-0.2-0.2-0.3-0.5-0.3-0.8s0.1-0.6,0.3-0.8c0.2-0.2,0.5-0.3,0.8-0.3
				s0.6,0.1,0.8,0.3c0.2,0.2,0.3,0.5,0.3,0.8s-0.1,0.6-0.3,0.8C170.3,84.9,170,85.1,169.7,85.1z M170.6,98.8h-1.8v-11h1.8V98.8z"/>
			<path class="st6" d="M183.5,98c0,4-1.9,6.1-5.8,6.1c-1.4,0-2.5-0.3-3.6-0.8v-1.8c1.2,0.7,2.4,1,3.5,1c2.7,0,4.1-1.4,4.1-4.3V97
				l0,0c-0.8,1.4-2.1,2.1-3.8,2.1c-1.4,0-2.5-0.5-3.3-1.5s-1.2-2.3-1.2-3.9c0-1.9,0.4-3.3,1.3-4.5s2.1-1.7,3.7-1.7
				c1.5,0,2.6,0.6,3.3,1.8l0,0v-1.5h1.8V98z M181.8,93.9v-1.6c0-0.9-0.3-1.6-0.9-2.2s-1.3-0.9-2.2-0.9c-1.1,0-1.9,0.4-2.6,1.2
				c-0.6,0.8-0.9,1.9-0.9,3.3c0,1.2,0.3,2.2,0.9,2.9s1.4,1.1,2.3,1.1c1,0,1.8-0.4,2.4-1.1C181.5,95.9,181.8,95,181.8,93.9z"/>
			<path class="st6" d="M196.2,98.8h-1.8v-6.3c0-2.3-0.9-3.5-2.6-3.5c-0.9,0-1.6,0.3-2.2,1c-0.6,0.7-0.9,1.5-0.9,2.5v6.3h-1.8v-11
				h1.8v1.8l0,0c0.8-1.4,2-2.1,3.6-2.1c1.2,0,2.1,0.4,2.8,1.2c0.6,0.8,1,1.9,1,3.4L196.2,98.8L196.2,98.8z"/>
			<path class="st6" d="M38.8,127.2h-5.9v-1.4h5.9V127.2z"/>
			<path class="st6" d="M66.5,117.2l-4.3,15.4H60l-3.2-11.2c-0.1-0.5-0.2-1-0.2-1.6l0,0c0,0.5-0.1,1-0.3,1.5l-3.2,11.3H51l-4.5-15.4
				h2l3.3,11.8c0.1,0.5,0.2,1,0.3,1.5h0.1c0-0.4,0.1-0.9,0.3-1.5l3.4-11.8h1.7l3.3,11.9c0.1,0.4,0.2,0.9,0.3,1.4l0,0
				c0-0.4,0.1-0.9,0.3-1.5l3.1-11.8L66.5,117.2L66.5,117.2z"/>
			<path class="st6" d="M77.3,127.5h-7.8c0,1.2,0.4,2.2,1,2.8c0.6,0.7,1.5,1,2.6,1c1.2,0,2.4-0.4,3.4-1.2v1.7
				c-1,0.7-2.2,1.1-3.8,1.1c-1.6,0-2.8-0.5-3.7-1.5c-0.9-1-1.3-2.4-1.3-4.2c0-1.7,0.5-3.1,1.5-4.2s2.2-1.6,3.6-1.6s2.5,0.5,3.3,1.4
				s1.2,2.2,1.2,3.9C77.3,126.7,77.3,127.5,77.3,127.5z M75.5,126c0-1-0.3-1.8-0.7-2.4c-0.5-0.6-1.2-0.8-2-0.8s-1.5,0.3-2.1,0.9
				s-0.9,1.4-1.1,2.3H75.5z"/>
			<path class="st6" d="M81.8,131L81.8,131v1.6H80v-16.3h1.8v7.2l0,0c0.9-1.5,2.1-2.2,3.8-2.2c1.4,0,2.5,0.5,3.3,1.5s1.2,2.3,1.2,4
				c0,1.8-0.4,3.3-1.3,4.4c-0.9,1.1-2.1,1.7-3.7,1.7C83.6,132.8,82.5,132.2,81.8,131z M81.8,126.6v1.5c0,0.9,0.3,1.7,0.9,2.3
				s1.3,0.9,2.2,0.9c1.1,0,1.9-0.4,2.5-1.2s0.9-1.9,0.9-3.4c0-1.2-0.3-2.2-0.8-2.9c-0.6-0.7-1.3-1-2.3-1s-1.8,0.4-2.5,1.1
				C82.1,124.6,81.8,125.5,81.8,126.6z"/>
			<path class="st6" d="M99.2,132.6v-15.4h4.2c5.4,0,8.1,2.5,8.1,7.5c0,2.4-0.8,4.3-2.3,5.7c-1.5,1.4-3.5,2.2-6,2.2H99.2z
				 M101,118.8v12.1h2.3c2,0,3.6-0.5,4.7-1.6s1.7-2.6,1.7-4.6c0-3.9-2.1-5.9-6.3-5.9H101z"/>
			<path class="st6" d="M123.2,127.5h-7.8c0,1.2,0.4,2.2,1,2.8c0.6,0.7,1.5,1,2.6,1c1.2,0,2.4-0.4,3.4-1.2v1.7
				c-1,0.7-2.2,1.1-3.8,1.1c-1.6,0-2.8-0.5-3.7-1.5c-0.9-1-1.3-2.4-1.3-4.2c0-1.7,0.5-3.1,1.5-4.2s2.2-1.6,3.6-1.6s2.5,0.5,3.3,1.4
				s1.2,2.2,1.2,3.9C123.2,126.7,123.2,127.5,123.2,127.5z M121.4,126c0-1-0.3-1.8-0.7-2.4c-0.5-0.6-1.2-0.8-2-0.8s-1.5,0.3-2.1,0.9
				s-0.9,1.4-1.1,2.3H121.4z"/>
			<path class="st6" d="M125.2,132.2v-1.9c1,0.7,2,1.1,3.2,1.1c1.5,0,2.3-0.5,2.3-1.5c0-0.3-0.1-0.5-0.2-0.7
				c-0.1-0.2-0.3-0.4-0.5-0.5s-0.5-0.3-0.8-0.4s-0.6-0.3-1-0.4c-0.5-0.2-0.9-0.4-1.3-0.6s-0.7-0.4-0.9-0.7c-0.2-0.2-0.4-0.5-0.6-0.8
				c-0.1-0.3-0.2-0.7-0.2-1.1c0-0.5,0.1-1,0.4-1.4s0.6-0.7,0.9-1c0.4-0.3,0.8-0.5,1.3-0.6s1-0.2,1.6-0.2c1,0,1.8,0.2,2.6,0.5v1.8
				c-0.8-0.5-1.7-0.8-2.8-0.8c-0.3,0-0.6,0-0.9,0.1c-0.3,0.1-0.5,0.2-0.7,0.3c-0.2,0.1-0.3,0.3-0.4,0.5s-0.2,0.4-0.2,0.6
				c0,0.3,0.1,0.5,0.2,0.7s0.3,0.4,0.5,0.5s0.4,0.3,0.7,0.4s0.6,0.3,1,0.4c0.5,0.2,0.9,0.4,1.3,0.6c0.4,0.2,0.7,0.4,1,0.7
				c0.3,0.2,0.5,0.5,0.6,0.9c0.1,0.3,0.2,0.7,0.2,1.1c0,0.5-0.1,1-0.4,1.4s-0.6,0.7-1,1s-0.9,0.5-1.4,0.6s-1.1,0.2-1.6,0.2
				C127,132.8,126,132.6,125.2,132.2z"/>
			<path class="st6" d="M136,118.8c-0.3,0-0.6-0.1-0.8-0.3c-0.2-0.2-0.3-0.5-0.3-0.8s0.1-0.6,0.3-0.8c0.2-0.2,0.5-0.3,0.8-0.3
				s0.6,0.1,0.8,0.3c0.2,0.2,0.3,0.5,0.3,0.8s-0.1,0.6-0.3,0.8S136.4,118.8,136,118.8z M136.9,132.6h-1.8v-11h1.8V132.6z"/>
			<path class="st6" d="M149.8,131.7c0,4-1.9,6.1-5.8,6.1c-1.4,0-2.5-0.3-3.6-0.8v-1.8c1.2,0.7,2.4,1,3.5,1c2.7,0,4.1-1.4,4.1-4.3
				v-1.2l0,0c-0.8,1.4-2.1,2.1-3.8,2.1c-1.4,0-2.5-0.5-3.3-1.5s-1.2-2.3-1.2-3.9c0-1.9,0.4-3.3,1.3-4.5s2.1-1.7,3.7-1.7
				c1.5,0,2.6,0.6,3.3,1.8l0,0v-1.5h1.8V131.7z M148.1,127.6V126c0-0.9-0.3-1.6-0.9-2.2s-1.3-0.9-2.2-0.9c-1.1,0-1.9,0.4-2.6,1.2
				c-0.6,0.8-0.9,1.9-0.9,3.3c0,1.2,0.3,2.2,0.9,2.9s1.4,1.1,2.3,1.1c1,0,1.8-0.4,2.4-1.1C147.8,129.6,148.1,128.7,148.1,127.6z"/>
			<path class="st6" d="M162.5,132.6h-1.8v-6.3c0-2.3-0.9-3.5-2.6-3.5c-0.9,0-1.6,0.3-2.2,1c-0.6,0.7-0.9,1.5-0.9,2.5v6.3h-1.8v-11
				h1.8v1.8l0,0c0.8-1.4,2-2.1,3.6-2.1c1.2,0,2.1,0.4,2.8,1.2c0.6,0.8,1,1.9,1,3.4L162.5,132.6L162.5,132.6z"/>
			<path class="st6" d="M185.6,132.8c-0.4,0-0.8-0.1-1.1-0.2c-0.3-0.1-0.6-0.3-0.9-0.5c-0.3-0.2-0.5-0.5-0.8-0.7
				c-0.2-0.3-0.5-0.6-0.8-1c-0.3,0.3-0.6,0.6-1,0.9c-0.4,0.3-0.8,0.5-1.3,0.8s-1,0.4-1.5,0.5s-1.1,0.2-1.8,0.2
				c-0.8,0-1.5-0.1-2.1-0.3s-1.2-0.5-1.7-0.9s-0.8-0.8-1.1-1.4s-0.4-1.2-0.4-1.9c0-1.1,0.3-2,0.9-2.8c0.6-0.8,1.5-1.4,2.6-1.9
				c-0.2-0.2-0.4-0.3-0.6-0.6s-0.4-0.5-0.6-0.7s-0.3-0.6-0.4-0.9c-0.1-0.3-0.2-0.7-0.2-1.1c0-0.6,0.1-1.1,0.3-1.5s0.5-0.8,0.8-1.1
				c0.4-0.3,0.8-0.5,1.3-0.7s1-0.2,1.6-0.2s1.1,0.1,1.5,0.2c0.5,0.2,0.9,0.4,1.2,0.7c0.3,0.3,0.6,0.6,0.8,1s0.3,0.8,0.3,1.3
				c0,0.9-0.2,1.6-0.7,2.1s-1.2,1.1-2.2,1.5c0.5,0.2,0.9,0.4,1.3,0.7c0.4,0.3,0.8,0.6,1.1,0.9s0.7,0.7,0.9,1.1
				c0.3,0.4,0.6,0.8,0.9,1.2c0.6-0.8,1-1.7,1.3-2.7s0.4-2,0.4-3.1c0-0.3,0-0.5,0-0.8c0-0.2-0.1-0.5-0.1-0.7h1.7
				c0.1,0.2,0.1,0.5,0.1,0.7s0,0.5,0,0.8c0,0.7-0.1,1.3-0.2,2c-0.1,0.7-0.3,1.3-0.5,1.9s-0.5,1.2-0.8,1.8s-0.6,1.1-1,1.5
				c0.3,0.3,0.5,0.6,0.7,0.9c0.2,0.3,0.4,0.5,0.6,0.6c0.2,0.2,0.4,0.3,0.7,0.4s0.5,0.1,0.8,0.1c0.2,0,0.4,0,0.7-0.1
				c0.2-0.1,0.5-0.1,0.7-0.2v1.6c-0.3,0.1-0.5,0.2-0.8,0.2C186.1,132.8,185.8,132.8,185.6,132.8z M176.6,131.3c0.5,0,1-0.1,1.5-0.2
				c0.5-0.1,0.9-0.3,1.3-0.5c0.4-0.2,0.7-0.4,1.1-0.7c0.3-0.3,0.6-0.5,0.9-0.8c-0.4-0.7-0.8-1.3-1.2-1.7s-0.7-0.9-1.1-1.3
				c-0.4-0.3-0.8-0.7-1.2-0.9c-0.4-0.3-0.9-0.5-1.5-0.7c-0.5,0.2-0.9,0.4-1.2,0.6c-0.4,0.2-0.7,0.5-1,0.8s-0.5,0.6-0.6,1
				s-0.2,0.9-0.2,1.4c0,0.5,0.1,0.9,0.3,1.3c0.2,0.4,0.4,0.7,0.7,0.9s0.7,0.4,1.1,0.6C175.6,131.2,176.1,131.3,176.6,131.3z
				 M179.3,120.4c0-0.4-0.1-0.7-0.2-0.9c-0.1-0.3-0.3-0.5-0.5-0.6c-0.2-0.2-0.4-0.3-0.7-0.4s-0.5-0.1-0.7-0.1
				c-0.7,0-1.3,0.2-1.7,0.6s-0.6,0.9-0.6,1.5c0,0.3,0,0.6,0.1,0.8c0.1,0.3,0.2,0.5,0.4,0.7s0.3,0.4,0.6,0.6c0.2,0.2,0.4,0.3,0.7,0.4
				c0.9-0.3,1.6-0.7,2-1.1C179,121.5,179.3,121,179.3,120.4z"/>
			<path class="st6" d="M195.7,132.6v-15.4h4.2c5.4,0,8.1,2.5,8.1,7.5c0,2.4-0.8,4.3-2.3,5.7c-1.5,1.4-3.5,2.2-6,2.2H195.7z
				 M197.5,118.8v12.1h2.3c2,0,3.6-0.5,4.7-1.6c1.1-1.1,1.7-2.6,1.7-4.6c0-3.9-2.1-5.9-6.3-5.9H197.5z"/>
			<path class="st6" d="M219.7,127.5h-7.8c0,1.2,0.4,2.2,1,2.8c0.6,0.7,1.5,1,2.6,1c1.2,0,2.4-0.4,3.4-1.2v1.7
				c-1,0.7-2.2,1.1-3.8,1.1s-2.8-0.5-3.7-1.5s-1.3-2.4-1.3-4.2c0-1.7,0.5-3.1,1.5-4.2s2.2-1.6,3.6-1.6s2.5,0.5,3.3,1.4
				s1.2,2.2,1.2,3.9V127.5z M217.9,126c0-1-0.3-1.8-0.7-2.4c-0.5-0.6-1.2-0.8-2-0.8s-1.5,0.3-2.1,0.9s-0.9,1.4-1.1,2.3H217.9z"/>
			<path class="st6" d="M231,121.6l-4.4,11h-1.7l-4.2-11h1.9l2.8,8c0.2,0.6,0.3,1.1,0.4,1.5l0,0c0.1-0.6,0.2-1,0.3-1.5l2.9-8
				C229,121.6,231,121.6,231,121.6z"/>
			<path class="st6" d="M241.7,127.5h-7.8c0,1.2,0.4,2.2,1,2.8c0.6,0.7,1.5,1,2.6,1c1.2,0,2.4-0.4,3.4-1.2v1.7
				c-1,0.7-2.2,1.1-3.8,1.1s-2.8-0.5-3.7-1.5s-1.3-2.4-1.3-4.2c0-1.7,0.5-3.1,1.5-4.2s2.2-1.6,3.6-1.6s2.5,0.5,3.3,1.4
				s1.2,2.2,1.2,3.9V127.5z M239.9,126c0-1-0.3-1.8-0.7-2.4c-0.5-0.6-1.2-0.8-2-0.8s-1.5,0.3-2.1,0.9s-0.9,1.4-1.1,2.3H239.9z"/>
			<path class="st6" d="M246.1,132.6h-1.8v-16.3h1.8V132.6z"/>
			<path class="st6" d="M254.3,132.8c-1.6,0-2.9-0.5-3.9-1.5s-1.5-2.4-1.5-4.1c0-1.8,0.5-3.3,1.5-4.3s2.4-1.6,4.1-1.6
				c1.6,0,2.9,0.5,3.8,1.5s1.4,2.4,1.4,4.2c0,1.8-0.5,3.2-1.5,4.2C257.3,132.3,255.9,132.8,254.3,132.8z M254.4,122.8
				c-1.1,0-2,0.4-2.7,1.2c-0.7,0.8-1,1.8-1,3.2c0,1.3,0.3,2.3,1,3.1s1.6,1.1,2.7,1.1c1.1,0,2-0.4,2.6-1.1c0.6-0.7,0.9-1.8,0.9-3.1
				c0-1.4-0.3-2.4-0.9-3.2S255.5,122.8,254.4,122.8z"/>
			<path class="st6" d="M264.4,131L264.4,131v6.6h-1.8v-16h1.8v1.9l0,0c0.9-1.5,2.1-2.2,3.8-2.2c1.4,0,2.5,0.5,3.3,1.5
				s1.2,2.3,1.2,4c0,1.8-0.4,3.3-1.3,4.4s-2.1,1.7-3.7,1.7C266.2,132.8,265.1,132.2,264.4,131z M264.3,126.6v1.5
				c0,0.9,0.3,1.7,0.9,2.3s1.3,0.9,2.2,0.9c1.1,0,1.9-0.4,2.5-1.2s0.9-1.9,0.9-3.4c0-1.2-0.3-2.2-0.8-2.9c-0.6-0.7-1.3-1-2.3-1
				s-1.8,0.4-2.5,1.1C264.6,124.6,264.3,125.5,264.3,126.6z"/>
			<path class="st6" d="M291.1,132.6h-1.8v-6.3c0-1.2-0.2-2.1-0.6-2.6s-1-0.8-1.9-0.8c-0.8,0-1.4,0.3-1.9,1s-0.8,1.5-0.8,2.5v6.3
				h-1.8v-6.5c0-2.2-0.8-3.2-2.5-3.2c-0.8,0-1.4,0.3-1.9,1c-0.5,0.6-0.8,1.5-0.8,2.5v6.3h-1.8v-11h1.8v1.7l0,0c0.8-1.3,1.9-2,3.4-2
				c0.8,0,1.4,0.2,2,0.6s0.9,1,1.1,1.6c0.8-1.5,2-2.3,3.6-2.3c2.4,0,3.6,1.5,3.6,4.5v6.7L291.1,132.6L291.1,132.6z"/>
			<path class="st6" d="M303.2,127.5h-7.8c0,1.2,0.4,2.2,1,2.8c0.6,0.7,1.5,1,2.6,1c1.2,0,2.4-0.4,3.4-1.2v1.7
				c-1,0.7-2.2,1.1-3.8,1.1c-1.6,0-2.8-0.5-3.7-1.5c-0.9-1-1.3-2.4-1.3-4.2c0-1.7,0.5-3.1,1.5-4.2s2.2-1.6,3.6-1.6s2.5,0.5,3.3,1.4
				s1.2,2.2,1.2,3.9L303.2,127.5L303.2,127.5z M301.4,126c0-1-0.3-1.8-0.7-2.4c-0.5-0.6-1.2-0.8-2-0.8s-1.5,0.3-2.1,0.9
				s-0.9,1.4-1.1,2.3H301.4z"/>
			<path class="st6" d="M315,132.6h-1.8v-6.3c0-2.3-0.9-3.5-2.6-3.5c-0.9,0-1.6,0.3-2.2,1s-0.9,1.5-0.9,2.5v6.3h-1.8v-11h1.8v1.8
				l0,0c0.8-1.4,2-2.1,3.6-2.1c1.2,0,2.1,0.4,2.8,1.2c0.6,0.8,1,1.9,1,3.4v6.7H315z"/>
			<path class="st6" d="M323.4,132.5c-0.4,0.2-1,0.3-1.6,0.3c-1.9,0-2.9-1.1-2.9-3.2v-6.5H317v-1.5h1.9v-2.7l1.8-0.6v3.3h2.8v1.5
				h-2.8v6.2c0,0.7,0.1,1.3,0.4,1.6s0.7,0.5,1.2,0.5c0.4,0,0.8-0.1,1.1-0.4V132.5z"/>
			<path class="st6" d="M38.8,160.9h-5.9v-1.4h5.9V160.9z"/>
			<path class="st6" d="M48.2,166.3v-15.4h4.4c1.3,0,2.4,0.3,3.2,1s1.2,1.5,1.2,2.5c0,0.9-0.2,1.6-0.7,2.3c-0.5,0.6-1.1,1.1-2,1.4
				l0,0c1,0.1,1.9,0.5,2.5,1.2s0.9,1.5,0.9,2.6c0,1.3-0.5,2.4-1.4,3.2s-2.1,1.2-3.6,1.2H48.2z M50,152.6v5h1.8c1,0,1.8-0.2,2.3-0.7
				c0.6-0.5,0.8-1.1,0.8-2c0-1.5-1-2.2-2.9-2.2h-2C50,152.7,50,152.6,50,152.6z M50,159.2v5.5h2.4c1.1,0,1.9-0.3,2.5-0.8
				s0.9-1.2,0.9-2.1c0-1.8-1.2-2.7-3.7-2.7H50V159.2z"/>
			<path class="st6" d="M66.3,157.1c-0.3-0.2-0.8-0.4-1.3-0.4c-0.8,0-1.4,0.4-1.9,1.1c-0.5,0.7-0.8,1.7-0.8,2.9v5.6h-1.8v-11h1.8
				v2.3l0,0c0.3-0.8,0.6-1.4,1.1-1.8s1.1-0.6,1.7-0.6c0.5,0,0.8,0,1.1,0.2v1.7H66.3z"/>
			<path class="st6" d="M76.1,166.3h-1.8v-1.7l0,0c-0.8,1.3-1.9,2-3.4,2c-1.1,0-2-0.3-2.6-0.9c-0.6-0.6-0.9-1.3-0.9-2.3
				c0-2.1,1.2-3.2,3.6-3.6l3.3-0.5c0-1.9-0.8-2.8-2.3-2.8c-1.3,0-2.5,0.5-3.6,1.4v-1.8c1.1-0.7,2.3-1,3.7-1c2.6,0,3.9,1.4,3.9,4.1
				v7.1H76.1z M74.3,160.8l-2.7,0.4c-0.8,0.1-1.4,0.3-1.8,0.6s-0.6,0.8-0.6,1.5c0,0.5,0.2,1,0.6,1.3s0.9,0.5,1.5,0.5
				c0.9,0,1.6-0.3,2.2-0.9c0.6-0.6,0.9-1.4,0.9-2.3L74.3,160.8L74.3,160.8z"/>
			<path class="st6" d="M88.5,166.3h-1.8V160c0-2.3-0.9-3.5-2.6-3.5c-0.9,0-1.6,0.3-2.2,1S81,159,81,160v6.3h-1.8v-11H81v1.8l0,0
				c0.8-1.4,2-2.1,3.6-2.1c1.2,0,2.1,0.4,2.8,1.2c0.6,0.8,1,1.9,1,3.4L88.5,166.3L88.5,166.3z"/>
			<path class="st6" d="M101.2,166.3h-1.8v-1.9l0,0c-0.8,1.4-2.1,2.1-3.8,2.1c-1.4,0-2.5-0.5-3.3-1.5s-1.2-2.3-1.2-4
				c0-1.8,0.5-3.3,1.4-4.4c0.9-1.1,2.1-1.6,3.7-1.6c1.5,0,2.6,0.6,3.3,1.8l0,0V150h1.8L101.2,166.3L101.2,166.3z M99.4,161.4v-1.6
				c0-0.9-0.3-1.6-0.9-2.3c-0.6-0.6-1.3-0.9-2.2-0.9c-1.1,0-1.9,0.4-2.5,1.2s-0.9,1.9-0.9,3.3c0,1.3,0.3,2.3,0.9,3s1.4,1.1,2.4,1.1
				s1.8-0.4,2.4-1.1S99.4,162.5,99.4,161.4z"/>
			<path class="st6" d="M105.7,152.6c-0.3,0-0.6-0.1-0.8-0.3c-0.2-0.2-0.3-0.5-0.3-0.8s0.1-0.6,0.3-0.8c0.2-0.2,0.5-0.3,0.8-0.3
				s0.6,0.1,0.8,0.3c0.2,0.2,0.3,0.5,0.3,0.8s-0.1,0.6-0.3,0.8C106.3,152.5,106,152.6,105.7,152.6z M106.5,166.3h-1.8v-11h1.8V166.3
				z"/>
			<path class="st6" d="M119.2,166.3h-1.8V160c0-2.3-0.9-3.5-2.6-3.5c-0.9,0-1.6,0.3-2.2,1s-0.9,1.5-0.9,2.5v6.3h-1.8v-11h1.8v1.8
				l0,0c0.8-1.4,2-2.1,3.6-2.1c1.2,0,2.1,0.4,2.8,1.2c0.6,0.8,1,1.9,1,3.4L119.2,166.3L119.2,166.3z"/>
			<path class="st6" d="M131.9,165.5c0,4-1.9,6.1-5.8,6.1c-1.4,0-2.5-0.3-3.6-0.8V169c1.2,0.7,2.4,1,3.5,1c2.7,0,4.1-1.4,4.1-4.3
				v-1.2l0,0c-0.8,1.4-2.1,2.1-3.8,2.1c-1.4,0-2.5-0.5-3.3-1.5s-1.2-2.3-1.2-3.9c0-1.9,0.4-3.3,1.3-4.5s2.1-1.7,3.7-1.7
				c1.5,0,2.6,0.6,3.3,1.8l0,0v-1.5h1.8V165.5z M130.1,161.4v-1.6c0-0.9-0.3-1.6-0.9-2.2s-1.3-0.9-2.2-0.9c-1.1,0-1.9,0.4-2.6,1.2
				c-0.6,0.8-0.9,1.9-0.9,3.3c0,1.2,0.3,2.2,0.9,2.9s1.4,1.1,2.3,1.1c1,0,1.8-0.4,2.4-1.1C129.8,163.4,130.1,162.5,130.1,161.4z"/>
			<path class="st6" d="M38.8,194.7h-5.9v-1.4h5.9V194.7z"/>
			<path class="st6" d="M58.7,199.5c-1.1,0.6-2.6,0.9-4.2,0.9c-2.2,0-3.9-0.7-5.3-2.1c-1.3-1.4-2-3.3-2-5.5c0-2.5,0.7-4.4,2.2-6
				c1.5-1.5,3.4-2.3,5.6-2.3c1.5,0,2.7,0.2,3.6,0.6v1.9c-1.1-0.6-2.3-0.9-3.6-0.9c-1.8,0-3.2,0.6-4.3,1.8s-1.6,2.8-1.6,4.7
				s0.5,3.4,1.5,4.5s2.4,1.7,4,1.7c1.5,0,2.9-0.3,4-1L58.7,199.5L58.7,199.5z"/>
			<path class="st6" d="M69.4,200.1h-1.8v-1.7l0,0c-0.8,1.3-1.9,2-3.4,2c-1.1,0-2-0.3-2.6-0.9c-0.6-0.6-0.9-1.3-0.9-2.3
				c0-2.1,1.2-3.2,3.6-3.6l3.3-0.5c0-1.9-0.8-2.8-2.3-2.8c-1.3,0-2.5,0.5-3.6,1.4v-1.8c1.1-0.7,2.3-1,3.7-1c2.6,0,3.9,1.4,3.9,4.1
				v7.1H69.4z M67.7,194.6L65,195c-0.8,0.1-1.4,0.3-1.8,0.6s-0.6,0.8-0.6,1.5c0,0.5,0.2,1,0.6,1.3s0.9,0.5,1.5,0.5
				c0.9,0,1.6-0.3,2.2-0.9c0.6-0.6,0.9-1.4,0.9-2.3L67.7,194.6L67.7,194.6z"/>
			<path class="st6" d="M72.1,199.7v-1.9c1,0.7,2,1.1,3.2,1.1c1.5,0,2.3-0.5,2.3-1.5c0-0.3-0.1-0.5-0.2-0.7s-0.3-0.4-0.5-0.5
				s-0.5-0.3-0.8-0.4s-0.6-0.3-1-0.4c-0.5-0.2-0.9-0.4-1.3-0.6c-0.4-0.2-0.7-0.4-0.9-0.7c-0.2-0.2-0.4-0.5-0.6-0.8
				c-0.1-0.3-0.2-0.7-0.2-1.1c0-0.5,0.1-1,0.4-1.4s0.6-0.7,0.9-1c0.4-0.3,0.8-0.5,1.3-0.6s1-0.2,1.6-0.2c1,0,1.8,0.2,2.6,0.5v1.8
				c-0.8-0.5-1.7-0.8-2.8-0.8c-0.3,0-0.6,0-0.9,0.1s-0.5,0.2-0.7,0.3s-0.3,0.3-0.4,0.5s-0.2,0.4-0.2,0.6c0,0.3,0.1,0.5,0.2,0.7
				s0.3,0.4,0.5,0.5s0.4,0.3,0.7,0.4c0.3,0.1,0.6,0.3,1,0.4c0.5,0.2,0.9,0.4,1.3,0.6c0.4,0.2,0.7,0.4,1,0.7c0.3,0.2,0.5,0.5,0.6,0.9
				c0.1,0.3,0.2,0.7,0.2,1.1c0,0.5-0.1,1-0.4,1.4s-0.6,0.7-1,1s-0.9,0.5-1.4,0.6s-1.1,0.2-1.6,0.2C73.9,200.4,72.9,200.1,72.1,199.7
				z"/>
			<path class="st6" d="M90.9,195.1h-7.8c0,1.2,0.4,2.2,1,2.8c0.6,0.7,1.5,1,2.6,1c1.2,0,2.4-0.4,3.4-1.2v1.7
				c-1,0.7-2.2,1.1-3.8,1.1c-1.6,0-2.8-0.5-3.7-1.5c-0.9-1-1.3-2.4-1.3-4.2c0-1.7,0.5-3.1,1.5-4.2c1-1.1,2.2-1.6,3.6-1.6
				s2.5,0.5,3.3,1.4s1.2,2.2,1.2,3.9C90.9,194.3,90.9,195.1,90.9,195.1z M89.1,193.6c0-1-0.3-1.8-0.7-2.4c-0.5-0.6-1.2-0.8-2-0.8
				s-1.5,0.3-2.1,0.9c-0.6,0.6-0.9,1.4-1.1,2.3H89.1z"/>
			<path class="st6" d="M99.1,199.5v-2.1c0.2,0.2,0.5,0.4,0.9,0.6s0.7,0.3,1.1,0.4c0.4,0.1,0.8,0.2,1.1,0.3c0.4,0.1,0.7,0.1,1.1,0.1
				c1.1,0,1.9-0.2,2.5-0.6c0.5-0.4,0.8-1,0.8-1.8c0-0.4-0.1-0.8-0.3-1.1c-0.2-0.3-0.4-0.6-0.8-0.8c-0.3-0.3-0.7-0.5-1.1-0.7
				s-0.9-0.5-1.4-0.7c-0.5-0.3-1-0.5-1.5-0.8s-0.9-0.6-1.2-0.9c-0.3-0.3-0.6-0.7-0.8-1.1c-0.2-0.4-0.3-0.9-0.3-1.5
				c0-0.7,0.2-1.3,0.5-1.8s0.7-0.9,1.2-1.3c0.5-0.3,1.1-0.6,1.7-0.8s1.3-0.2,2-0.2c1.5,0,2.6,0.2,3.3,0.5v2
				c-0.9-0.6-2.1-0.9-3.5-0.9c-0.4,0-0.8,0-1.2,0.1c-0.4,0.1-0.7,0.2-1.1,0.4c-0.3,0.2-0.6,0.4-0.8,0.7c-0.2,0.3-0.3,0.7-0.3,1.1
				c0,0.4,0.1,0.7,0.2,1s0.4,0.5,0.6,0.8c0.3,0.2,0.6,0.5,1,0.7s0.9,0.5,1.4,0.7c0.5,0.3,1.1,0.6,1.6,0.9c0.5,0.3,0.9,0.6,1.3,1
				s0.7,0.8,0.9,1.2c0.2,0.4,0.3,1,0.3,1.5c0,0.8-0.1,1.4-0.4,1.9s-0.7,1-1.2,1.3s-1.1,0.6-1.7,0.7c-0.7,0.1-1.4,0.2-2.1,0.2
				c-0.2,0-0.5,0-0.9-0.1s-0.7-0.1-1.1-0.2c-0.4-0.1-0.7-0.2-1.1-0.3C99.6,199.7,99.3,199.6,99.1,199.5z"/>
			<path class="st6" d="M116.4,200c-0.4,0.2-1,0.3-1.6,0.3c-1.9,0-2.9-1.1-2.9-3.2v-6.5H110v-1.5h1.9v-2.7l1.8-0.6v3.3h2.8v1.5h-2.8
				v6.2c0,0.7,0.1,1.3,0.4,1.6s0.7,0.5,1.2,0.5c0.4,0,0.8-0.1,1.1-0.4V200z"/>
			<path class="st6" d="M127.6,200.1h-1.8v-1.7l0,0c-0.7,1.3-1.9,2-3.4,2c-2.6,0-3.9-1.6-3.9-4.7v-6.6h1.7v6.3
				c0,2.3,0.9,3.5,2.7,3.5c0.9,0,1.6-0.3,2.1-0.9c0.6-0.6,0.8-1.5,0.8-2.5v-6.3h1.8L127.6,200.1L127.6,200.1z"/>
			<path class="st6" d="M140.5,200.1h-1.8v-1.9l0,0c-0.8,1.4-2.1,2.1-3.8,2.1c-1.4,0-2.5-0.5-3.3-1.5s-1.2-2.3-1.2-4
				c0-1.8,0.5-3.3,1.4-4.4c0.9-1.1,2.1-1.6,3.7-1.6c1.5,0,2.6,0.6,3.3,1.8l0,0v-6.8h1.8L140.5,200.1L140.5,200.1z M138.8,195.1v-1.6
				c0-0.9-0.3-1.6-0.9-2.3c-0.6-0.6-1.3-0.9-2.2-0.9c-1.1,0-1.9,0.4-2.5,1.2s-0.9,1.9-0.9,3.3c0,1.3,0.3,2.3,0.9,3s1.4,1.1,2.4,1.1
				s1.8-0.4,2.4-1.1S138.8,196.2,138.8,195.1z"/>
			<path class="st6" d="M145,186.3c-0.3,0-0.6-0.1-0.8-0.3s-0.3-0.5-0.3-0.8s0.1-0.6,0.3-0.8s0.5-0.3,0.8-0.3s0.6,0.1,0.8,0.3
				s0.3,0.5,0.3,0.8s-0.1,0.6-0.3,0.8S145.3,186.3,145,186.3z M145.8,200.1H144v-11h1.8V200.1z"/>
			<path class="st6" d="M158.2,195.1h-7.8c0,1.2,0.4,2.2,1,2.8c0.6,0.7,1.5,1,2.6,1c1.2,0,2.4-0.4,3.4-1.2v1.7
				c-1,0.7-2.2,1.1-3.8,1.1s-2.8-0.5-3.7-1.5s-1.3-2.4-1.3-4.2c0-1.7,0.5-3.1,1.5-4.2c1-1.1,2.2-1.6,3.6-1.6s2.5,0.5,3.3,1.4
				s1.2,2.2,1.2,3.9V195.1z M156.4,193.6c0-1-0.3-1.8-0.7-2.4c-0.5-0.6-1.2-0.8-2-0.8s-1.5,0.3-2.1,0.9c-0.6,0.6-0.9,1.4-1.1,2.3
				H156.4z"/>
			<path class="st6" d="M160.2,199.7v-1.9c1,0.7,2,1.1,3.2,1.1c1.5,0,2.3-0.5,2.3-1.5c0-0.3-0.1-0.5-0.2-0.7
				c-0.1-0.2-0.3-0.4-0.5-0.5s-0.5-0.3-0.8-0.4s-0.6-0.3-1-0.4c-0.5-0.2-0.9-0.4-1.3-0.6c-0.4-0.2-0.7-0.4-0.9-0.7
				c-0.2-0.2-0.4-0.5-0.6-0.8c-0.1-0.3-0.2-0.7-0.2-1.1c0-0.5,0.1-1,0.4-1.4s0.6-0.7,0.9-1c0.4-0.3,0.8-0.5,1.3-0.6s1-0.2,1.6-0.2
				c1,0,1.8,0.2,2.6,0.5v1.8c-0.8-0.5-1.7-0.8-2.8-0.8c-0.3,0-0.6,0-0.9,0.1s-0.5,0.2-0.7,0.3s-0.3,0.3-0.4,0.5s-0.2,0.4-0.2,0.6
				c0,0.3,0.1,0.5,0.2,0.7c0.1,0.2,0.3,0.4,0.5,0.5s0.4,0.3,0.7,0.4c0.3,0.1,0.6,0.3,1,0.4c0.5,0.2,0.9,0.4,1.3,0.6
				c0.4,0.2,0.7,0.4,1,0.7c0.3,0.2,0.5,0.5,0.6,0.9c0.1,0.3,0.2,0.7,0.2,1.1c0,0.5-0.1,1-0.4,1.4s-0.6,0.7-1,1s-0.9,0.5-1.4,0.6
				s-1.1,0.2-1.6,0.2C162,200.4,161.1,200.1,160.2,199.7z"/>
			<path class="st6" d="M38.8,228.4h-5.9V227h5.9V228.4z"/>
			<path class="st6" d="M59.7,232.8c-1.5,0.9-3.3,1.3-5.1,1.3c-2.2,0-4-0.7-5.3-2.1s-2-3.3-2-5.6c0-2.4,0.8-4.3,2.3-5.9
				c1.5-1.5,3.4-2.3,5.7-2.3c1.7,0,3.1,0.3,4.2,0.8v2c-1.2-0.8-2.7-1.2-4.4-1.2s-3.1,0.6-4.2,1.8c-1.1,1.2-1.7,2.7-1.7,4.6
				c0,1.9,0.5,3.5,1.5,4.6s2.4,1.7,4.2,1.7c1.2,0,2.2-0.2,3.1-0.7v-4.3h-3.4v-1.7h5.2L59.7,232.8L59.7,232.8z"/>
			<path class="st6" d="M70.9,233.9h-1.8v-1.7l0,0c-0.8,1.3-1.9,2-3.4,2c-1.1,0-2-0.3-2.6-0.9c-0.6-0.6-0.9-1.3-0.9-2.3
				c0-2.1,1.2-3.2,3.6-3.6l3.3-0.5c0-1.9-0.8-2.8-2.3-2.8c-1.3,0-2.5,0.5-3.6,1.4v-1.8c1.1-0.7,2.3-1,3.7-1c2.6,0,3.9,1.4,3.9,4.1
				v7.1H70.9z M69.2,228.3l-2.7,0.4c-0.8,0.1-1.4,0.3-1.8,0.6s-0.6,0.8-0.6,1.5c0,0.5,0.2,1,0.6,1.3s0.9,0.5,1.5,0.5
				c0.9,0,1.6-0.3,2.2-0.9c0.6-0.6,0.9-1.4,0.9-2.3L69.2,228.3L69.2,228.3z"/>
			<path class="st6" d="M89.8,233.9H88v-6.3c0-1.2-0.2-2.1-0.6-2.6s-1-0.8-1.9-0.8c-0.8,0-1.4,0.3-1.9,1s-0.8,1.5-0.8,2.5v6.3H81
				v-6.5c0-2.2-0.8-3.2-2.5-3.2c-0.8,0-1.4,0.3-1.9,1c-0.5,0.6-0.8,1.5-0.8,2.5v6.3H74v-11h2v1.7l0,0c0.8-1.3,1.9-2,3.4-2
				c0.8,0,1.4,0.2,2,0.6c0.6,0.4,0.9,1,1.1,1.6c0.8-1.5,2-2.3,3.6-2.3c2.4,0,3.6,1.5,3.6,4.5v6.7H89.8z"/>
			<path class="st6" d="M102,228.8h-7.8c0,1.2,0.4,2.2,1,2.8c0.6,0.7,1.5,1,2.6,1c1.2,0,2.4-0.4,3.4-1.2v1.7c-1,0.7-2.2,1.1-3.8,1.1
				c-1.6,0-2.8-0.5-3.7-1.5c-0.9-1-1.3-2.4-1.3-4.2c0-1.7,0.5-3.1,1.5-4.2c1-1.1,2.2-1.6,3.6-1.6s2.5,0.5,3.3,1.4s1.2,2.2,1.2,3.9
				C102,228,102,228.8,102,228.8z M100.2,227.3c0-1-0.3-1.8-0.7-2.4c-0.5-0.6-1.2-0.8-2-0.8s-1.5,0.3-2.1,0.9
				c-0.6,0.6-0.9,1.4-1.1,2.3H100.2z"/>
			<path class="st6" d="M110.9,233.9v-15.4h4.2c5.4,0,8.1,2.5,8.1,7.5c0,2.4-0.8,4.3-2.3,5.7s-3.5,2.2-6,2.2H110.9z M112.7,220.1
				v12.1h2.3c2,0,3.6-0.5,4.7-1.6s1.7-2.6,1.7-4.6c0-3.9-2.1-5.9-6.3-5.9H112.7z"/>
			<path class="st6" d="M134.9,228.8h-7.8c0,1.2,0.4,2.2,1,2.8c0.6,0.7,1.5,1,2.6,1c1.2,0,2.4-0.4,3.4-1.2v1.7
				c-1,0.7-2.2,1.1-3.8,1.1s-2.8-0.5-3.7-1.5c-0.9-1-1.3-2.4-1.3-4.2c0-1.7,0.5-3.1,1.5-4.2c1-1.1,2.2-1.6,3.6-1.6s2.5,0.5,3.3,1.4
				s1.2,2.2,1.2,3.9V228.8z M133.1,227.3c0-1-0.3-1.8-0.7-2.4c-0.5-0.6-1.2-0.8-2-0.8s-1.5,0.3-2.1,0.9c-0.6,0.6-0.9,1.4-1.1,2.3
				H133.1z"/>
			<path class="st6" d="M136.9,233.5v-1.9c1,0.7,2,1.1,3.2,1.1c1.5,0,2.3-0.5,2.3-1.5c0-0.3-0.1-0.5-0.2-0.7
				c-0.1-0.2-0.3-0.4-0.5-0.5s-0.5-0.3-0.8-0.4s-0.6-0.3-1-0.4c-0.5-0.2-0.9-0.4-1.3-0.6c-0.4-0.2-0.7-0.4-0.9-0.7
				c-0.2-0.2-0.4-0.5-0.6-0.8c-0.1-0.3-0.2-0.7-0.2-1.1c0-0.5,0.1-1,0.4-1.4s0.6-0.7,0.9-1c0.4-0.3,0.8-0.5,1.3-0.6s1-0.2,1.6-0.2
				c1,0,1.8,0.2,2.6,0.5v1.8c-0.8-0.5-1.7-0.8-2.8-0.8c-0.3,0-0.6,0-0.9,0.1s-0.5,0.2-0.7,0.3s-0.3,0.3-0.4,0.5s-0.2,0.4-0.2,0.6
				c0,0.3,0.1,0.5,0.2,0.7c0.1,0.2,0.3,0.4,0.5,0.5s0.4,0.3,0.7,0.4c0.3,0.1,0.6,0.3,1,0.4c0.5,0.2,0.9,0.4,1.3,0.6
				c0.4,0.2,0.7,0.4,1,0.7c0.3,0.2,0.5,0.5,0.6,0.9c0.1,0.3,0.2,0.7,0.2,1.1c0,0.5-0.1,1-0.4,1.4s-0.6,0.7-1,1s-0.9,0.5-1.4,0.6
				s-1.1,0.2-1.6,0.2C138.7,234.1,137.7,233.9,136.9,233.5z"/>
			<path class="st6" d="M147.8,220.1c-0.3,0-0.6-0.1-0.8-0.3s-0.3-0.5-0.3-0.8s0.1-0.6,0.3-0.8s0.5-0.3,0.8-0.3s0.6,0.1,0.8,0.3
				s0.3,0.5,0.3,0.8s-0.1,0.6-0.3,0.8C148.4,220,148.1,220.1,147.8,220.1z M148.6,233.9h-1.8v-11h1.8V233.9z"/>
			<path class="st6" d="M161.6,233c0,4-1.9,6.1-5.8,6.1c-1.4,0-2.5-0.3-3.6-0.8v-1.8c1.2,0.7,2.4,1,3.5,1c2.7,0,4.1-1.4,4.1-4.3V232
				l0,0c-0.8,1.4-2.1,2.1-3.8,2.1c-1.4,0-2.5-0.5-3.3-1.5s-1.2-2.3-1.2-3.9c0-1.9,0.4-3.3,1.3-4.5s2.1-1.7,3.7-1.7
				c1.5,0,2.6,0.6,3.3,1.8l0,0v-1.5h1.8V233z M159.8,228.9v-1.6c0-0.9-0.3-1.6-0.9-2.2s-1.3-0.9-2.2-0.9c-1.1,0-1.9,0.4-2.6,1.2
				c-0.6,0.8-0.9,1.9-0.9,3.3c0,1.2,0.3,2.2,0.9,2.9s1.4,1.1,2.3,1.1c1,0,1.8-0.4,2.4-1.1C159.5,230.9,159.8,230,159.8,228.9z"/>
			<path class="st6" d="M174.3,233.9h-1.8v-6.3c0-2.3-0.9-3.5-2.6-3.5c-0.9,0-1.6,0.3-2.2,1c-0.6,0.7-0.9,1.5-0.9,2.5v6.3H165v-11
				h1.8v1.8l0,0c0.8-1.4,2-2.1,3.6-2.1c1.2,0,2.1,0.4,2.8,1.2c0.6,0.8,1,1.9,1,3.4L174.3,233.9L174.3,233.9z"/>
			<path class="st6" d="M38.8,262.2h-5.9v-1.4h5.9V262.2z"/>
			<path class="st6" d="M63.9,267.6h-1.8v-10.3c0-0.8,0-1.8,0.2-3l0,0c-0.2,0.7-0.3,1.2-0.5,1.5l-5.3,11.8h-0.9l-5.2-11.7
				c-0.2-0.3-0.3-0.9-0.5-1.6l0,0c0.1,0.6,0.1,1.6,0.1,3v10.3h-1.7v-15.4h2.4l4.7,10.7c0.4,0.8,0.6,1.4,0.7,1.8h0.1
				c0.3-0.8,0.6-1.5,0.7-1.9l4.8-10.7H64L63.9,267.6L63.9,267.6z"/>
			<path class="st6" d="M72.3,267.9c-1.6,0-2.9-0.5-3.9-1.5s-1.5-2.4-1.5-4.1c0-1.8,0.5-3.3,1.5-4.3s2.4-1.6,4.1-1.6
				c1.6,0,2.9,0.5,3.8,1.5s1.4,2.4,1.4,4.2c0,1.8-0.5,3.2-1.5,4.2C75.3,267.4,74,267.9,72.3,267.9z M72.4,257.9
				c-1.1,0-2,0.4-2.7,1.2c-0.7,0.8-1,1.8-1,3.2c0,1.3,0.3,2.3,1,3.1c0.7,0.8,1.6,1.1,2.7,1.1s2-0.4,2.6-1.1s0.9-1.8,0.9-3.1
				c0-1.4-0.3-2.4-0.9-3.2C74.4,258.2,73.6,257.9,72.4,257.9z"/>
			<path class="st6" d="M85.7,267.5c-0.4,0.2-1,0.3-1.6,0.3c-1.9,0-2.9-1.1-2.9-3.2v-6.5h-1.9v-1.5h1.9v-2.7l1.8-0.6v3.3h2.8v1.5H83
				v6.2c0,0.7,0.1,1.3,0.4,1.6c0.3,0.3,0.7,0.5,1.2,0.5c0.4,0,0.8-0.1,1.1-0.4V267.5z"/>
			<path class="st6" d="M88.9,253.9c-0.3,0-0.6-0.1-0.8-0.3c-0.2-0.2-0.3-0.5-0.3-0.8s0.1-0.6,0.3-0.8c0.2-0.2,0.5-0.3,0.8-0.3
				s0.6,0.1,0.8,0.3c0.2,0.2,0.3,0.5,0.3,0.8s-0.1,0.6-0.3,0.8C89.5,253.7,89.3,253.9,88.9,253.9z M89.8,267.6H88v-11h1.8V267.6z"/>
			<path class="st6" d="M97.9,267.9c-1.6,0-2.9-0.5-3.9-1.5s-1.5-2.4-1.5-4.1c0-1.8,0.5-3.3,1.5-4.3s2.4-1.6,4.1-1.6
				c1.6,0,2.9,0.5,3.8,1.5s1.4,2.4,1.4,4.2c0,1.8-0.5,3.2-1.5,4.2C100.9,267.4,99.6,267.9,97.9,267.9z M98.1,257.9
				c-1.1,0-2,0.4-2.7,1.2c-0.7,0.8-1,1.8-1,3.2c0,1.3,0.3,2.3,1,3.1c0.7,0.8,1.6,1.1,2.7,1.1s2-0.4,2.6-1.1s0.9-1.8,0.9-3.1
				c0-1.4-0.3-2.4-0.9-3.2C100.1,258.2,99.2,257.9,98.1,257.9z"/>
			<path class="st6" d="M115.3,267.6h-1.8v-6.3c0-2.3-0.9-3.5-2.6-3.5c-0.9,0-1.6,0.3-2.2,1s-0.9,1.5-0.9,2.5v6.3H106v-11h1.8v1.8
				l0,0c0.8-1.4,2-2.1,3.6-2.1c1.2,0,2.1,0.4,2.8,1.2c0.6,0.8,1,1.9,1,3.4L115.3,267.6L115.3,267.6z"/>
			<path class="st6" d="M136.4,266.6c-1.5,0.9-3.3,1.3-5.1,1.3c-2.2,0-4-0.7-5.3-2.1s-2-3.3-2-5.6c0-2.4,0.8-4.3,2.3-5.9
				c1.5-1.5,3.4-2.3,5.7-2.3c1.7,0,3.1,0.3,4.2,0.8v2c-1.2-0.8-2.7-1.2-4.4-1.2s-3.1,0.6-4.2,1.8c-1.1,1.2-1.7,2.7-1.7,4.6
				s0.5,3.5,1.5,4.6s2.4,1.7,4.2,1.7c1.2,0,2.2-0.2,3.1-0.7v-4.3h-3.4v-1.6h5.2v6.9H136.4z"/>
			<path class="st6" d="M145.5,258.4c-0.3-0.2-0.8-0.4-1.3-0.4c-0.8,0-1.4,0.4-1.9,1.1s-0.8,1.7-0.8,2.9v5.6h-1.8v-11h1.8v2.3l0,0
				c0.3-0.8,0.6-1.4,1.1-1.8s1.1-0.6,1.7-0.6c0.5,0,0.8,0,1.1,0.2L145.5,258.4L145.5,258.4z"/>
			<path class="st6" d="M155.2,267.6h-1.8v-1.7l0,0c-0.8,1.3-1.9,2-3.4,2c-1.1,0-2-0.3-2.6-0.9s-0.9-1.3-0.9-2.3
				c0-2.1,1.2-3.2,3.6-3.6l3.3-0.5c0-1.9-0.8-2.8-2.3-2.8c-1.3,0-2.5,0.5-3.6,1.4v-1.8c1.1-0.7,2.3-1,3.7-1c2.6,0,3.9,1.4,3.9,4.1
				v7.1L155.2,267.6L155.2,267.6z M153.5,262.1l-2.7,0.4c-0.8,0.1-1.4,0.3-1.8,0.6c-0.4,0.3-0.6,0.8-0.6,1.5c0,0.5,0.2,1,0.6,1.3
				c0.4,0.3,0.9,0.5,1.5,0.5c0.9,0,1.6-0.3,2.2-0.9c0.6-0.6,0.9-1.4,0.9-2.3L153.5,262.1L153.5,262.1z"/>
			<path class="st6" d="M160.4,266L160.4,266v6.6h-1.8v-16h1.8v1.9l0,0c0.9-1.5,2.1-2.2,3.8-2.2c1.4,0,2.5,0.5,3.3,1.5
				s1.2,2.3,1.2,4c0,1.8-0.4,3.3-1.3,4.4c-0.9,1.1-2.1,1.7-3.7,1.7C162.2,267.9,161.1,267.3,160.4,266z M160.3,261.6v1.5
				c0,0.9,0.3,1.7,0.9,2.3s1.3,0.9,2.2,0.9c1.1,0,1.9-0.4,2.5-1.2c0.6-0.8,0.9-1.9,0.9-3.4c0-1.2-0.3-2.2-0.8-2.9
				c-0.6-0.7-1.3-1-2.3-1s-1.8,0.4-2.5,1.1C160.6,259.6,160.3,260.5,160.3,261.6z"/>
			<path class="st6" d="M180.6,267.6h-1.8v-6.3c0-2.3-0.9-3.4-2.6-3.4c-0.9,0-1.6,0.3-2.2,1c-0.6,0.7-0.9,1.5-0.9,2.5v6.2h-1.8
				v-16.3h1.8v7.1l0,0c0.8-1.4,2-2.1,3.6-2.1c2.5,0,3.7,1.5,3.7,4.5v6.8H180.6z"/>
			<path class="st6" d="M184.8,253.9c-0.3,0-0.6-0.1-0.8-0.3s-0.3-0.5-0.3-0.8s0.1-0.6,0.3-0.8s0.5-0.3,0.8-0.3s0.6,0.1,0.8,0.3
				s0.3,0.5,0.3,0.8s-0.1,0.6-0.3,0.8C185.4,253.7,185.1,253.9,184.8,253.9z M185.7,267.6h-1.8v-11h1.8V267.6z"/>
			<path class="st6" d="M196.7,267.1c-0.8,0.5-1.8,0.8-3,0.8c-1.6,0-2.8-0.5-3.8-1.5s-1.4-2.3-1.4-4c0-1.8,0.5-3.3,1.6-4.4
				s2.4-1.6,4.2-1.6c1,0,1.8,0.2,2.6,0.5v1.8c-0.8-0.6-1.7-0.9-2.6-0.9c-1.1,0-2,0.4-2.8,1.2s-1.1,1.9-1.1,3.2c0,1.3,0.3,2.3,1,3
				s1.6,1.1,2.7,1.1c1,0,1.9-0.3,2.7-1L196.7,267.1L196.7,267.1z"/>
			<path class="st6" d="M198.7,267.2v-1.9c1,0.7,2,1.1,3.2,1.1c1.5,0,2.3-0.5,2.3-1.5c0-0.3-0.1-0.5-0.2-0.7
				c-0.1-0.2-0.3-0.4-0.5-0.5s-0.5-0.3-0.8-0.4s-0.6-0.3-1-0.4c-0.5-0.2-0.9-0.4-1.3-0.6c-0.4-0.2-0.7-0.4-0.9-0.7
				c-0.2-0.2-0.4-0.5-0.6-0.8c-0.1-0.3-0.2-0.7-0.2-1.1c0-0.5,0.1-1,0.4-1.4s0.6-0.7,0.9-1c0.4-0.3,0.8-0.5,1.3-0.6s1-0.2,1.6-0.2
				c1,0,1.8,0.2,2.6,0.5v1.8c-0.8-0.5-1.7-0.8-2.8-0.8c-0.3,0-0.6,0-0.9,0.1s-0.5,0.2-0.7,0.3c-0.2,0.1-0.3,0.3-0.4,0.5
				s-0.2,0.4-0.2,0.6c0,0.3,0.1,0.5,0.2,0.7c0.1,0.2,0.3,0.4,0.5,0.5s0.4,0.3,0.7,0.4s0.6,0.3,1,0.4c0.5,0.2,0.9,0.4,1.3,0.6
				c0.4,0.2,0.7,0.4,1,0.7c0.3,0.2,0.5,0.5,0.6,0.9c0.1,0.3,0.2,0.7,0.2,1.1c0,0.5-0.1,1-0.4,1.4s-0.6,0.7-1,1s-0.9,0.5-1.4,0.6
				s-1.1,0.2-1.6,0.2C200.5,267.9,199.5,267.7,198.7,267.2z"/>
			<path class="st6" d="M38.8,296h-5.9v-1.4h5.9V296z"/>
			<path class="st6" d="M59.5,295.2c0,4.3-1.9,6.5-5.8,6.5c-3.7,0-5.6-2.1-5.6-6.2v-9.4h1.8v9.3c0,3.2,1.3,4.7,4,4.7
				c2.6,0,3.9-1.5,3.9-4.6V286h1.8v9.2H59.5z"/>
			<path class="st6" d="M62.4,301v-1.9c1,0.7,2,1.1,3.2,1.1c1.5,0,2.3-0.5,2.3-1.5c0-0.3-0.1-0.5-0.2-0.7s-0.3-0.4-0.5-0.5
				s-0.5-0.3-0.8-0.4s-0.6-0.3-1-0.4c-0.5-0.2-0.9-0.4-1.3-0.6s-0.7-0.4-0.9-0.7c-0.2-0.2-0.4-0.5-0.6-0.8c-0.1-0.3-0.2-0.7-0.2-1.1
				c0-0.5,0.1-1,0.4-1.4s0.6-0.7,0.9-1c0.4-0.3,0.8-0.5,1.3-0.6s1-0.2,1.6-0.2c1,0,1.8,0.2,2.6,0.5v1.8c-0.8-0.5-1.7-0.8-2.8-0.8
				c-0.3,0-0.6,0-0.9,0.1s-0.5,0.2-0.7,0.3c-0.2,0.1-0.3,0.3-0.4,0.5s-0.2,0.4-0.2,0.6c0,0.3,0.1,0.5,0.2,0.7s0.3,0.4,0.5,0.5
				s0.4,0.3,0.7,0.4c0.3,0.1,0.6,0.3,1,0.4c0.5,0.2,0.9,0.4,1.3,0.6s0.7,0.4,1,0.7c0.3,0.2,0.5,0.5,0.6,0.9c0.1,0.3,0.2,0.7,0.2,1.1
				c0,0.5-0.1,1-0.4,1.4s-0.6,0.7-1,1s-0.9,0.5-1.4,0.6s-1.1,0.2-1.6,0.2C64.2,301.6,63.2,301.4,62.4,301z"/>
			<path class="st6" d="M80.3,301.4h-1.8v-1.7l0,0c-0.8,1.3-1.9,2-3.4,2c-1.1,0-2-0.3-2.6-0.9s-0.9-1.3-0.9-2.3
				c0-2.1,1.2-3.2,3.6-3.6l3.3-0.5c0-1.9-0.8-2.8-2.3-2.8c-1.3,0-2.5,0.5-3.6,1.4v-1.8c1.1-0.7,2.3-1,3.7-1c2.6,0,3.9,1.4,3.9,4.1
				v7.1L80.3,301.4L80.3,301.4z M78.5,295.8l-2.7,0.4c-0.8,0.1-1.4,0.3-1.8,0.6c-0.4,0.3-0.6,0.8-0.6,1.5c0,0.5,0.2,1,0.6,1.3
				s0.9,0.5,1.5,0.5c0.9,0,1.6-0.3,2.2-0.9s0.9-1.4,0.9-2.3L78.5,295.8L78.5,295.8z"/>
			<path class="st6" d="M85.4,299.8L85.4,299.8v1.6h-1.8v-16.3h1.8v7.2l0,0c0.9-1.5,2.1-2.2,3.8-2.2c1.4,0,2.5,0.5,3.3,1.5
				s1.2,2.3,1.2,4c0,1.8-0.4,3.3-1.3,4.4s-2.1,1.7-3.7,1.7C87.2,301.6,86.1,301,85.4,299.8z M85.3,295.4v1.5c0,0.9,0.3,1.7,0.9,2.3
				s1.3,0.9,2.2,0.9c1.1,0,1.9-0.4,2.5-1.2c0.6-0.8,0.9-1.9,0.9-3.4c0-1.2-0.3-2.2-0.8-2.9c-0.6-0.7-1.3-1-2.3-1s-1.8,0.4-2.5,1.1
				C85.6,293.4,85.3,294.3,85.3,295.4z"/>
			<path class="st6" d="M97.4,287.6c-0.3,0-0.6-0.1-0.8-0.3c-0.2-0.2-0.3-0.5-0.3-0.8s0.1-0.6,0.3-0.8c0.2-0.2,0.5-0.3,0.8-0.3
				s0.6,0.1,0.8,0.3c0.2,0.2,0.3,0.5,0.3,0.8s-0.1,0.6-0.3,0.8S97.7,287.6,97.4,287.6z M98.3,301.4h-1.8v-11h1.8V301.4z"/>
			<path class="st6" d="M103.6,301.4h-1.8v-16.3h1.8V301.4z"/>
			<path class="st6" d="M108,287.6c-0.3,0-0.6-0.1-0.8-0.3c-0.2-0.2-0.3-0.5-0.3-0.8s0.1-0.6,0.3-0.8c0.2-0.2,0.5-0.3,0.8-0.3
				s0.6,0.1,0.8,0.3c0.2,0.2,0.3,0.5,0.3,0.8s-0.1,0.6-0.3,0.8S108.4,287.6,108,287.6z M108.9,301.4h-1.8v-11h1.8V301.4z"/>
			<path class="st6" d="M117.6,301.3c-0.4,0.2-1,0.3-1.6,0.3c-1.9,0-2.9-1.1-2.9-3.2v-6.5h-1.9v-1.5h1.9v-2.7l1.8-0.6v3.3h2.8v1.5
				h-2.8v6.2c0,0.7,0.1,1.3,0.4,1.6c0.3,0.3,0.7,0.5,1.2,0.5c0.4,0,0.8-0.1,1.1-0.4V301.3z"/>
			<path class="st6" d="M128.6,290.4l-5.1,12.7c-0.9,2.3-2.2,3.4-3.8,3.4c-0.5,0-0.8,0-1.1-0.1v-1.6c0.4,0.1,0.7,0.2,1,0.2
				c0.9,0,1.6-0.5,2-1.6l0.9-2.1l-4.3-11h2l3,8.5c0,0.1,0.1,0.4,0.2,0.8h0.1c0-0.2,0.1-0.4,0.2-0.8l3.1-8.5h1.8L128.6,290.4
				L128.6,290.4z"/>
			<path class="st6" d="M145.9,287.6h-4.4v13.8h-1.8v-13.8h-4.4V286H146v1.6H145.9z"/>
			<path class="st6" d="M156.9,296.3h-7.8c0,1.2,0.4,2.2,1,2.8c0.6,0.7,1.5,1,2.6,1c1.2,0,2.4-0.4,3.4-1.2v1.7
				c-1,0.7-2.2,1.1-3.8,1.1s-2.8-0.5-3.7-1.5s-1.3-2.4-1.3-4.2c0-1.7,0.5-3.1,1.5-4.2s2.2-1.6,3.6-1.6s2.5,0.5,3.3,1.4
				s1.2,2.2,1.2,3.9V296.3z M155.1,294.8c0-1-0.3-1.8-0.7-2.4c-0.5-0.6-1.2-0.8-2-0.8s-1.5,0.3-2.1,0.9s-0.9,1.4-1.1,2.3H155.1z"/>
			<path class="st6" d="M158.9,301v-1.9c1,0.7,2,1.1,3.2,1.1c1.5,0,2.3-0.5,2.3-1.5c0-0.3-0.1-0.5-0.2-0.7c-0.1-0.2-0.3-0.4-0.5-0.5
				s-0.5-0.3-0.8-0.4s-0.6-0.3-1-0.4c-0.5-0.2-0.9-0.4-1.3-0.6c-0.4-0.2-0.7-0.4-0.9-0.7c-0.2-0.2-0.4-0.5-0.6-0.8
				c-0.1-0.3-0.2-0.7-0.2-1.1c0-0.5,0.1-1,0.4-1.4s0.6-0.7,0.9-1c0.4-0.3,0.8-0.5,1.3-0.6s1-0.2,1.6-0.2c1,0,1.8,0.2,2.6,0.5v1.8
				c-0.8-0.5-1.7-0.8-2.8-0.8c-0.3,0-0.6,0-0.9,0.1s-0.5,0.2-0.7,0.3c-0.2,0.1-0.3,0.3-0.4,0.5s-0.2,0.4-0.2,0.6
				c0,0.3,0.1,0.5,0.2,0.7c0.1,0.2,0.3,0.4,0.5,0.5s0.4,0.3,0.7,0.4s0.6,0.3,1,0.4c0.5,0.2,0.9,0.4,1.3,0.6c0.4,0.2,0.7,0.4,1,0.7
				c0.3,0.2,0.5,0.5,0.6,0.9c0.1,0.3,0.2,0.7,0.2,1.1c0,0.5-0.1,1-0.4,1.4s-0.6,0.7-1,1s-0.9,0.5-1.4,0.6s-1.1,0.2-1.6,0.2
				C160.7,301.6,159.7,301.4,158.9,301z"/>
			<path class="st6" d="M174,301.3c-0.4,0.2-1,0.3-1.6,0.3c-1.9,0-2.9-1.1-2.9-3.2v-6.5h-1.9v-1.5h1.9v-2.7l1.8-0.6v3.3h2.8v1.5
				h-2.8v6.2c0,0.7,0.1,1.3,0.4,1.6c0.3,0.3,0.7,0.5,1.2,0.5c0.4,0,0.8-0.1,1.1-0.4V301.3z"/>
			<path class="st6" d="M177.2,287.6c-0.3,0-0.6-0.1-0.8-0.3c-0.2-0.2-0.3-0.5-0.3-0.8s0.1-0.6,0.3-0.8c0.2-0.2,0.5-0.3,0.8-0.3
				s0.6,0.1,0.8,0.3c0.2,0.2,0.3,0.5,0.3,0.8s-0.1,0.6-0.3,0.8S177.5,287.6,177.2,287.6z M178.1,301.4h-1.8v-11h1.8V301.4z"/>
			<path class="st6" d="M190.8,301.4H189v-6.3c0-2.3-0.9-3.5-2.6-3.5c-0.9,0-1.6,0.3-2.2,1c-0.6,0.7-0.9,1.5-0.9,2.5v6.3h-1.8v-11
				h1.8v1.8l0,0c0.8-1.4,2-2.1,3.6-2.1c1.2,0,2.1,0.4,2.8,1.2c0.6,0.8,1,1.9,1,3.4L190.8,301.4L190.8,301.4z"/>
			<path class="st6" d="M203.4,300.5c0,4-1.9,6.1-5.8,6.1c-1.4,0-2.5-0.3-3.6-0.8V304c1.2,0.7,2.4,1,3.5,1c2.7,0,4.1-1.4,4.1-4.3
				v-1.2l0,0c-0.8,1.4-2.1,2.1-3.8,2.1c-1.4,0-2.5-0.5-3.3-1.5s-1.2-2.3-1.2-3.9c0-1.9,0.4-3.3,1.3-4.5s2.1-1.7,3.7-1.7
				c1.5,0,2.6,0.6,3.3,1.8l0,0v-1.5h1.8V300.5z M201.7,296.4v-1.6c0-0.9-0.3-1.6-0.9-2.2s-1.3-0.9-2.2-0.9c-1.1,0-1.9,0.4-2.6,1.2
				c-0.6,0.8-0.9,1.9-0.9,3.3c0,1.2,0.3,2.2,0.9,2.9s1.4,1.1,2.3,1.1c1,0,1.8-0.4,2.4-1.1C201.4,298.4,201.7,297.5,201.7,296.4z"/>
		</g>
		<g>
			<g>
				<path class="st6" d="M382.2,93.4h-5.9V92h5.9V93.4z"/>
				<path class="st6" d="M403.5,98.8h-2l-1.6-4.3h-6.5l-1.5,4.3h-2l5.9-15.4h1.9L403.5,98.8z M399.3,92.9l-2.4-6.6
					c-0.1-0.2-0.2-0.6-0.2-1l0,0c-0.1,0.4-0.2,0.8-0.2,1l-2.4,6.6H399.3z"/>
				<path class="st6" d="M414.9,98.8h-1.8v-1.9l0,0c-0.8,1.4-2.1,2.1-3.8,2.1c-1.4,0-2.5-0.5-3.3-1.5s-1.2-2.3-1.2-4
					c0-1.8,0.5-3.3,1.4-4.4s2.1-1.6,3.7-1.6c1.5,0,2.6,0.6,3.3,1.8l0,0v-6.8h1.8v16.3H414.9z M413.2,93.9v-1.6
					c0-0.9-0.3-1.6-0.9-2.3c-0.6-0.6-1.3-0.9-2.2-0.9c-1.1,0-1.9,0.4-2.5,1.2c-0.6,0.8-0.9,1.9-0.9,3.3c0,1.3,0.3,2.3,0.9,3
					s1.4,1.1,2.4,1.1s1.8-0.4,2.4-1.1S413.2,94.9,413.2,93.9z"/>
				<path class="st6" d="M423.1,99.1c-1.6,0-2.9-0.5-3.9-1.5s-1.5-2.4-1.5-4.1c0-1.8,0.5-3.3,1.5-4.3s2.4-1.6,4.1-1.6
					c1.6,0,2.9,0.5,3.8,1.5s1.4,2.4,1.4,4.2c0,1.8-0.5,3.2-1.5,4.2C426.1,98.6,424.7,99.1,423.1,99.1z M423.2,89.1
					c-1.1,0-2,0.4-2.7,1.2c-0.7,0.8-1,1.8-1,3.2c0,1.3,0.3,2.3,1,3.1c0.7,0.8,1.6,1.1,2.7,1.1s2-0.4,2.6-1.1s0.9-1.8,0.9-3.1
					c0-1.4-0.3-2.4-0.9-3.2C425.2,89.4,424.3,89.1,423.2,89.1z"/>
				<path class="st6" d="M433.2,97.2L433.2,97.2v1.6h-1.8V82.6h1.8v7.2l0,0c0.9-1.5,2.1-2.2,3.8-2.2c1.4,0,2.5,0.5,3.3,1.5
					s1.2,2.3,1.2,4c0,1.8-0.4,3.3-1.3,4.4s-2.1,1.7-3.7,1.7C435,99.1,433.9,98.5,433.2,97.2z M433.1,92.8v1.5c0,0.9,0.3,1.7,0.9,2.3
					s1.3,0.9,2.2,0.9c1.1,0,1.9-0.4,2.5-1.2c0.6-0.8,0.9-1.9,0.9-3.4c0-1.2-0.3-2.2-0.8-2.9c-0.6-0.7-1.3-1-2.3-1s-1.8,0.4-2.5,1.1
					C433.4,90.8,433.1,91.7,433.1,92.8z"/>
				<path class="st6" d="M453.1,93.8h-7.8c0,1.2,0.4,2.2,1,2.8c0.6,0.7,1.5,1,2.6,1c1.2,0,2.4-0.4,3.4-1.2v1.7
					c-1,0.7-2.2,1.1-3.8,1.1c-1.6,0-2.8-0.5-3.7-1.5c-0.9-1-1.3-2.4-1.3-4.2c0-1.7,0.5-3.1,1.5-4.2s2.2-1.6,3.6-1.6s2.5,0.5,3.3,1.4
					s1.2,2.2,1.2,3.9L453.1,93.8L453.1,93.8z M451.3,92.3c0-1-0.3-1.8-0.7-2.4c-0.5-0.6-1.2-0.8-2-0.8s-1.5,0.3-2.1,0.9
					s-0.9,1.4-1.1,2.3H451.3z"/>
				<path class="st6" d="M472.5,98.2c-1.1,0.6-2.6,0.9-4.2,0.9c-2.2,0-3.9-0.7-5.3-2.1c-1.3-1.4-2-3.3-2-5.5c0-2.5,0.7-4.4,2.2-6
					c1.5-1.5,3.4-2.3,5.6-2.3c1.5,0,2.7,0.2,3.6,0.6v1.9c-1.1-0.6-2.3-0.9-3.6-0.9c-1.8,0-3.2,0.6-4.3,1.8c-1.1,1.2-1.6,2.8-1.6,4.7
					c0,1.9,0.5,3.4,1.5,4.5s2.4,1.7,4,1.7c1.5,0,2.9-0.3,4-1L472.5,98.2L472.5,98.2z"/>
				<path class="st6" d="M486.1,98.2c-1.1,0.6-2.6,0.9-4.2,0.9c-2.2,0-3.9-0.7-5.3-2.1c-1.3-1.4-2-3.3-2-5.5c0-2.5,0.7-4.4,2.2-6
					c1.5-1.5,3.4-2.3,5.6-2.3c1.5,0,2.7,0.2,3.6,0.6v1.9c-1.1-0.6-2.3-0.9-3.6-0.9c-1.8,0-3.2,0.6-4.3,1.8c-1.1,1.2-1.6,2.8-1.6,4.7
					c0,1.9,0.5,3.4,1.5,4.5s2.4,1.7,4,1.7c1.5,0,2.9-0.3,4-1L486.1,98.2L486.1,98.2z"/>
				<path class="st6" d="M382.2,127.2h-5.9v-1.4h5.9V127.2z"/>
				<path class="st6" d="M382.2,160.9h-5.9v-1.4h5.9V160.9z"/>
				<path class="st6" d="M403.2,166.3h-1.8v-7h-8v7h-1.8v-15.4h1.8v6.7h8v-6.7h1.8V166.3z"/>
				<path class="st6" d="M416.3,152.6h-4.4v13.8h-1.8v-13.8h-4.4V151h10.7v1.6H416.3z"/>
				<path class="st6" d="M434.4,166.3h-1.8V156c0-0.8,0-1.8,0.2-3l0,0c-0.2,0.7-0.3,1.2-0.5,1.5l-5.3,11.8h-0.9l-5.2-11.7
					c-0.2-0.3-0.3-0.9-0.5-1.6l0,0c0.1,0.6,0.1,1.6,0.1,3v10.3h-1.8v-15.4h2.4l4.7,10.7c0.4,0.8,0.6,1.4,0.7,1.8h0.1
					c0.3-0.8,0.6-1.5,0.7-1.9l4.8-10.7h2.3L434.4,166.3L434.4,166.3z"/>
				<path class="st6" d="M446.4,166.3h-8v-15.4h1.8v13.8h6.2V166.3z"/>
				<path class="st6" d="M450.2,163.9l-1.7,5.3h-1.3l1.3-5.3H450.2z"/>
				<path class="st6" d="M470,165.7c-1.1,0.6-2.6,0.9-4.2,0.9c-2.2,0-3.9-0.7-5.3-2.1c-1.3-1.4-2-3.3-2-5.5c0-2.5,0.7-4.4,2.2-6
					c1.5-1.5,3.4-2.3,5.6-2.3c1.5,0,2.7,0.2,3.6,0.6v1.9c-1.1-0.6-2.3-0.9-3.6-0.9c-1.8,0-3.2,0.6-4.3,1.8c-1.1,1.2-1.6,2.8-1.6,4.7
					s0.5,3.4,1.5,4.5s2.4,1.7,4,1.7c1.5,0,2.9-0.3,4-1L470,165.7L470,165.7z"/>
				<path class="st6" d="M472.5,165.7v-2.1c0.2,0.2,0.5,0.4,0.9,0.6s0.7,0.3,1.1,0.4c0.4,0.1,0.8,0.2,1.1,0.3
					c0.4,0.1,0.7,0.1,1.1,0.1c1.1,0,1.9-0.2,2.5-0.6c0.5-0.4,0.8-1,0.8-1.8c0-0.4-0.1-0.8-0.3-1.1c-0.2-0.3-0.4-0.6-0.8-0.8
					c-0.3-0.3-0.7-0.5-1.1-0.7s-0.9-0.5-1.4-0.7c-0.5-0.3-1-0.5-1.5-0.8s-0.9-0.6-1.2-0.9c-0.3-0.3-0.6-0.7-0.8-1.1
					c-0.2-0.4-0.3-0.9-0.3-1.5c0-0.7,0.2-1.3,0.5-1.8s0.7-0.9,1.2-1.3c0.5-0.3,1.1-0.6,1.7-0.8s1.3-0.2,2-0.2c1.5,0,2.6,0.2,3.3,0.5
					v2c-0.9-0.6-2.1-0.9-3.5-0.9c-0.4,0-0.8,0-1.2,0.1c-0.4,0.1-0.7,0.2-1.1,0.4c-0.3,0.2-0.6,0.4-0.8,0.7c-0.2,0.3-0.3,0.7-0.3,1.1
					c0,0.4,0.1,0.7,0.2,1s0.4,0.5,0.6,0.8c0.3,0.2,0.6,0.5,1,0.7s0.9,0.5,1.4,0.7c0.5,0.3,1.1,0.6,1.6,0.9c0.5,0.3,0.9,0.6,1.3,1
					s0.7,0.8,0.9,1.2c0.2,0.4,0.3,1,0.3,1.5c0,0.8-0.1,1.4-0.4,1.9s-0.7,1-1.2,1.3s-1.1,0.6-1.7,0.7c-0.7,0.1-1.4,0.2-2.1,0.2
					c-0.2,0-0.5,0-0.9-0.1s-0.7-0.1-1.1-0.2c-0.4-0.1-0.7-0.2-1.1-0.3C472.9,166,472.7,165.9,472.5,165.7z"/>
				<path class="st6" d="M484.1,165.7v-2.1c0.2,0.2,0.5,0.4,0.9,0.6c0.4,0.2,0.7,0.3,1.1,0.4c0.4,0.1,0.8,0.2,1.1,0.3
					c0.4,0.1,0.7,0.1,1.1,0.1c1.1,0,1.9-0.2,2.5-0.6c0.5-0.4,0.8-1,0.8-1.8c0-0.4-0.1-0.8-0.3-1.1s-0.4-0.6-0.8-0.8
					c-0.3-0.3-0.7-0.5-1.1-0.7s-0.9-0.5-1.4-0.7c-0.5-0.3-1-0.5-1.5-0.8s-0.9-0.6-1.2-0.9c-0.3-0.3-0.6-0.7-0.8-1.1
					c-0.2-0.4-0.3-0.9-0.3-1.5c0-0.7,0.2-1.3,0.5-1.8s0.7-0.9,1.2-1.3c0.5-0.3,1.1-0.6,1.7-0.8s1.3-0.2,2-0.2c1.5,0,2.6,0.2,3.3,0.5
					v2c-0.9-0.6-2.1-0.9-3.5-0.9c-0.4,0-0.8,0-1.2,0.1s-0.7,0.2-1.1,0.4c-0.3,0.2-0.6,0.4-0.8,0.7s-0.3,0.7-0.3,1.1
					c0,0.4,0.1,0.7,0.2,1s0.4,0.5,0.6,0.8c0.3,0.2,0.6,0.5,1,0.7s0.9,0.5,1.4,0.7c0.5,0.3,1.1,0.6,1.6,0.9c0.5,0.3,0.9,0.6,1.3,1
					s0.7,0.8,0.9,1.2s0.3,1,0.3,1.5c0,0.8-0.1,1.4-0.4,1.9s-0.7,1-1.2,1.3s-1.1,0.6-1.7,0.7c-0.7,0.1-1.4,0.2-2.1,0.2
					c-0.2,0-0.5,0-0.9-0.1s-0.7-0.1-1.1-0.2c-0.4-0.1-0.7-0.2-1.1-0.3C484.6,166,484.3,165.9,484.1,165.7z"/>
				<path class="st6" d="M516,166.6c-0.4,0-0.8-0.1-1.1-0.2c-0.3-0.1-0.6-0.3-0.9-0.5c-0.3-0.2-0.5-0.5-0.8-0.7
					c-0.2-0.3-0.5-0.6-0.8-1c-0.3,0.3-0.6,0.6-1,0.9c-0.4,0.3-0.8,0.5-1.3,0.8s-1,0.4-1.5,0.5s-1.1,0.2-1.8,0.2
					c-0.8,0-1.5-0.1-2.1-0.3s-1.2-0.5-1.7-0.9s-0.8-0.8-1.1-1.4s-0.4-1.2-0.4-1.9c0-1.1,0.3-2,0.9-2.8s1.5-1.4,2.6-1.9
					c-0.2-0.2-0.4-0.3-0.6-0.6s-0.4-0.5-0.6-0.7s-0.3-0.6-0.4-0.9c-0.1-0.3-0.2-0.7-0.2-1.1c0-0.6,0.1-1.1,0.3-1.5s0.5-0.8,0.8-1.1
					c0.4-0.3,0.8-0.5,1.3-0.7s1-0.2,1.6-0.2s1.1,0.1,1.5,0.2c0.5,0.2,0.9,0.4,1.2,0.7s0.6,0.6,0.8,1s0.3,0.8,0.3,1.3
					c0,0.9-0.2,1.6-0.7,2.1s-1.2,1.1-2.2,1.5c0.5,0.2,0.9,0.4,1.3,0.7s0.8,0.6,1.1,0.9c0.3,0.3,0.7,0.7,0.9,1.1
					c0.3,0.4,0.6,0.8,0.9,1.2c0.6-0.8,1-1.7,1.3-2.7s0.4-2,0.4-3.1c0-0.3,0-0.5,0-0.8c0-0.2-0.1-0.5-0.1-0.7h1.7
					c0.1,0.2,0.1,0.5,0.1,0.7s0,0.5,0,0.8c0,0.7-0.1,1.3-0.2,2c-0.1,0.7-0.3,1.3-0.5,1.9c-0.2,0.6-0.5,1.2-0.8,1.8s-0.6,1.1-1,1.5
					c0.3,0.3,0.5,0.6,0.7,0.9c0.2,0.3,0.4,0.5,0.6,0.6c0.2,0.2,0.4,0.3,0.7,0.4s0.5,0.1,0.8,0.1c0.2,0,0.4,0,0.7-0.1
					c0.2-0.1,0.5-0.1,0.7-0.2v1.6c-0.3,0.1-0.5,0.2-0.8,0.2C516.6,166.6,516.3,166.6,516,166.6z M507,165.1c0.5,0,1-0.1,1.5-0.2
					c0.5-0.1,0.9-0.3,1.3-0.5s0.7-0.4,1.1-0.7c0.3-0.3,0.6-0.5,0.9-0.8c-0.4-0.7-0.8-1.3-1.2-1.7s-0.7-0.9-1.1-1.3
					c-0.4-0.3-0.8-0.7-1.2-0.9c-0.4-0.3-0.9-0.5-1.5-0.7c-0.5,0.2-0.9,0.4-1.2,0.6c-0.4,0.2-0.7,0.5-1,0.8s-0.5,0.6-0.6,1
					s-0.2,0.9-0.2,1.4s0.1,0.9,0.3,1.3c0.2,0.4,0.4,0.7,0.7,0.9s0.7,0.4,1.1,0.6C506.1,165,506.5,165.1,507,165.1z M509.7,154.1
					c0-0.4-0.1-0.7-0.2-0.9c-0.1-0.3-0.3-0.5-0.5-0.6c-0.2-0.2-0.4-0.3-0.7-0.4c-0.3-0.1-0.5-0.1-0.7-0.1c-0.7,0-1.3,0.2-1.7,0.6
					c-0.4,0.4-0.6,0.9-0.6,1.5c0,0.3,0,0.6,0.1,0.8c0.1,0.3,0.2,0.5,0.4,0.7s0.3,0.4,0.6,0.6c0.2,0.2,0.4,0.3,0.7,0.4
					c0.9-0.3,1.6-0.7,2-1.1C509.5,155.3,509.7,154.8,509.7,154.1z"/>
				<path class="st6" d="M382.2,194.7h-5.9v-1.4h5.9V194.7z"/>
				<path class="st6" d="M403.5,200.1h-2l-1.6-4.3h-6.5l-1.5,4.3h-2l5.9-15.4h1.9L403.5,200.1z M399.3,194.2l-2.4-6.6
					c-0.1-0.2-0.2-0.6-0.2-1l0,0c-0.1,0.4-0.2,0.8-0.2,1l-2.4,6.6H399.3z"/>
				<path class="st6" d="M414.4,200.1h-1.7v-1.7l0,0c-0.7,1.3-1.9,2-3.4,2c-2.6,0-3.9-1.6-3.9-4.7v-6.6h1.7v6.3
					c0,2.3,0.9,3.5,2.7,3.5c0.9,0,1.6-0.3,2.1-0.9c0.6-0.6,0.8-1.5,0.8-2.5v-6.3h1.8v10.9H414.4z"/>
				<path class="st6" d="M423.1,200c-0.4,0.2-1,0.3-1.6,0.3c-1.9,0-2.9-1.1-2.9-3.2v-6.5h-1.9v-1.5h1.9v-2.7l1.8-0.6v3.3h2.8v1.5
					h-2.8v6.2c0,0.7,0.1,1.3,0.4,1.6s0.7,0.5,1.2,0.5c0.4,0,0.8-0.1,1.1-0.4V200z"/>
				<path class="st6" d="M430,200.4c-1.6,0-2.9-0.5-3.9-1.5s-1.5-2.4-1.5-4.1c0-1.8,0.5-3.3,1.5-4.3s2.4-1.6,4.1-1.6
					c1.6,0,2.9,0.5,3.8,1.5s1.4,2.4,1.4,4.2s-0.5,3.2-1.5,4.2C433,199.8,431.7,200.4,430,200.4z M430.1,190.3c-1.1,0-2,0.4-2.7,1.2
					s-1,1.8-1,3.2c0,1.3,0.3,2.3,1,3.1s1.6,1.1,2.7,1.1s2-0.4,2.6-1.1c0.6-0.7,0.9-1.8,0.9-3.1c0-1.4-0.3-2.4-0.9-3.2
					C432.2,190.7,431.3,190.3,430.1,190.3z"/>
				<path class="st6" d="M447.7,200.1h-1.8v-1.9l0,0c-0.8,1.4-2.1,2.1-3.8,2.1c-1.4,0-2.5-0.5-3.3-1.5s-1.2-2.3-1.2-4
					c0-1.8,0.5-3.3,1.4-4.4c0.9-1.1,2.1-1.6,3.7-1.6c1.5,0,2.6,0.6,3.3,1.8l0,0v-6.8h1.8v16.3L447.7,200.1L447.7,200.1z
					 M445.9,195.1v-1.6c0-0.9-0.3-1.6-0.9-2.3c-0.6-0.6-1.3-0.9-2.2-0.9c-1.1,0-1.9,0.4-2.5,1.2s-0.9,1.9-0.9,3.3
					c0,1.3,0.3,2.3,0.9,3s1.4,1.1,2.4,1.1s1.8-0.4,2.4-1.1S445.9,196.2,445.9,195.1z"/>
				<path class="st6" d="M460.1,195.1h-7.8c0,1.2,0.4,2.2,1,2.8c0.6,0.7,1.5,1,2.6,1c1.2,0,2.4-0.4,3.4-1.2v1.7
					c-1,0.7-2.2,1.1-3.8,1.1c-1.6,0-2.8-0.5-3.7-1.5c-0.9-1-1.3-2.4-1.3-4.2c0-1.7,0.5-3.1,1.5-4.2c1-1.1,2.2-1.6,3.6-1.6
					s2.5,0.5,3.3,1.4s1.2,2.2,1.2,3.9L460.1,195.1L460.1,195.1z M458.3,193.6c0-1-0.3-1.8-0.7-2.4c-0.5-0.6-1.2-0.8-2-0.8
					s-1.5,0.3-2.1,0.9c-0.6,0.6-0.9,1.4-1.1,2.3H458.3z"/>
				<path class="st6" d="M462.1,199.7v-1.9c1,0.7,2,1.1,3.2,1.1c1.5,0,2.3-0.5,2.3-1.5c0-0.3-0.1-0.5-0.2-0.7s-0.3-0.4-0.5-0.5
					s-0.5-0.3-0.8-0.4s-0.6-0.3-1-0.4c-0.5-0.2-0.9-0.4-1.3-0.6c-0.4-0.2-0.7-0.4-0.9-0.7c-0.2-0.2-0.4-0.5-0.6-0.8
					c-0.1-0.3-0.2-0.7-0.2-1.1c0-0.5,0.1-1,0.4-1.4s0.6-0.7,0.9-1c0.4-0.3,0.8-0.5,1.3-0.6s1-0.2,1.6-0.2c1,0,1.8,0.2,2.6,0.5v1.8
					c-0.8-0.5-1.7-0.8-2.8-0.8c-0.3,0-0.6,0-0.9,0.1s-0.5,0.2-0.7,0.3s-0.3,0.3-0.4,0.5s-0.2,0.4-0.2,0.6c0,0.3,0.1,0.5,0.2,0.7
					s0.3,0.4,0.5,0.5s0.4,0.3,0.7,0.4c0.3,0.1,0.6,0.3,1,0.4c0.5,0.2,0.9,0.4,1.3,0.6c0.4,0.2,0.7,0.4,1,0.7
					c0.3,0.2,0.5,0.5,0.6,0.9c0.1,0.3,0.2,0.7,0.2,1.1c0,0.5-0.1,1-0.4,1.4s-0.6,0.7-1,1s-0.9,0.5-1.4,0.6s-1.1,0.2-1.6,0.2
					C463.9,200.4,462.9,200.1,462.1,199.7z"/>
				<path class="st6" d="M481.2,200.1h-2.5l-4.8-5.3l0,0v5.3h-1.8v-16.3h1.8v10.3l0,0l4.6-5h2.3l-5.1,5.3L481.2,200.1z"/>
				<path class="st6" d="M504.9,200.1h-1.8v-10.3c0-0.8,0-1.8,0.2-3l0,0c-0.2,0.7-0.3,1.2-0.5,1.5l-5.3,11.8h-0.9l-5.2-11.7
					c-0.2-0.3-0.3-0.9-0.5-1.6l0,0c0.1,0.6,0.1,1.6,0.1,3v10.3h-1.7v-15.4h2.4l4.7,10.7c0.4,0.8,0.6,1.4,0.7,1.8h0.1
					c0.3-0.8,0.6-1.5,0.7-1.9l4.8-10.7h2.3L504.9,200.1L504.9,200.1z"/>
				<path class="st6" d="M516.6,200.1h-1.8v-1.7l0,0c-0.8,1.3-1.9,2-3.4,2c-1.1,0-2-0.3-2.6-0.9c-0.6-0.6-0.9-1.3-0.9-2.3
					c0-2.1,1.2-3.2,3.6-3.6l3.3-0.5c0-1.9-0.8-2.8-2.3-2.8c-1.3,0-2.5,0.5-3.6,1.4v-1.8c1.1-0.7,2.3-1,3.7-1c2.6,0,3.9,1.4,3.9,4.1
					L516.6,200.1L516.6,200.1z M514.8,194.6l-2.7,0.4c-0.8,0.1-1.4,0.3-1.8,0.6s-0.6,0.8-0.6,1.5c0,0.5,0.2,1,0.6,1.3
					s0.9,0.5,1.5,0.5c0.9,0,1.6-0.3,2.2-0.9c0.6-0.6,0.9-1.4,0.9-2.3v-1.1H514.8z"/>
				<path class="st6" d="M528.6,189.1l-5.1,12.7c-0.9,2.3-2.2,3.4-3.8,3.4c-0.5,0-0.8,0-1.1-0.1v-1.6c0.4,0.1,0.7,0.2,1,0.2
					c0.9,0,1.6-0.5,2-1.6l0.9-2.1l-4.3-11h2l3,8.5c0,0.1,0.1,0.4,0.2,0.8h0.1c0-0.2,0.1-0.4,0.2-0.8l3.1-8.5h1.8L528.6,189.1
					L528.6,189.1z"/>
				<path class="st6" d="M538.4,200.1h-1.8v-1.7l0,0c-0.8,1.3-1.9,2-3.4,2c-1.1,0-2-0.3-2.6-0.9c-0.6-0.6-0.9-1.3-0.9-2.3
					c0-2.1,1.2-3.2,3.6-3.6l3.3-0.5c0-1.9-0.8-2.8-2.3-2.8c-1.3,0-2.5,0.5-3.6,1.4v-1.8c1.1-0.7,2.3-1,3.7-1c2.6,0,3.9,1.4,3.9,4.1
					L538.4,200.1L538.4,200.1z M536.6,194.6l-2.7,0.4c-0.8,0.1-1.4,0.3-1.8,0.6c-0.4,0.3-0.6,0.8-0.6,1.5c0,0.5,0.2,1,0.6,1.3
					c0.4,0.3,0.9,0.5,1.5,0.5c0.9,0,1.6-0.3,2.2-0.9c0.6-0.6,0.9-1.4,0.9-2.3v-1.1H536.6z"/>
				<path class="st6" d="M382.2,228.4h-5.9V227h5.9V228.4z"/>
				<path class="st6" d="M402.9,227.6c0,4.3-1.9,6.5-5.8,6.5c-3.7,0-5.6-2.1-5.6-6.2v-9.4h1.8v9.3c0,3.2,1.3,4.7,4,4.7
					c2.6,0,3.9-1.5,3.9-4.6v-9.5h1.8L402.9,227.6L402.9,227.6z"/>
				<path class="st6" d="M415.6,233.9h-1.8v-6.3c0-2.3-0.9-3.5-2.6-3.5c-0.9,0-1.6,0.3-2.2,1s-0.9,1.5-0.9,2.5v6.3h-1.8v-11h1.8v1.8
					l0,0c0.8-1.4,2-2.1,3.6-2.1c1.2,0,2.1,0.4,2.8,1.2c0.6,0.8,1,1.9,1,3.4v6.7L415.6,233.9L415.6,233.9z"/>
				<path class="st6" d="M419.8,220.1c-0.3,0-0.6-0.1-0.8-0.3c-0.2-0.2-0.3-0.5-0.3-0.8s0.1-0.6,0.3-0.8c0.2-0.2,0.5-0.3,0.8-0.3
					s0.6,0.1,0.8,0.3c0.2,0.2,0.3,0.5,0.3,0.8s-0.1,0.6-0.3,0.8S420.1,220.1,419.8,220.1z M420.7,233.9h-1.8v-11h1.8V233.9z"/>
				<path class="st6" d="M429.3,233.8c-0.4,0.2-1,0.3-1.6,0.3c-1.9,0-2.9-1.1-2.9-3.2v-6.5h-1.9v-1.5h1.9v-2.7l1.8-0.6v3.3h2.8v1.5
					h-2.8v6.2c0,0.7,0.1,1.3,0.4,1.6s0.7,0.5,1.2,0.5c0.4,0,0.8-0.1,1.1-0.4V233.8z"/>
				<path class="st6" d="M440.4,222.9l-5.1,12.7c-0.9,2.3-2.2,3.4-3.8,3.4c-0.5,0-0.8,0-1.1-0.1v-1.6c0.4,0.1,0.7,0.2,1,0.2
					c0.9,0,1.6-0.5,2-1.6l0.9-2.1l-4.3-11h2l3,8.5c0,0.1,0.1,0.4,0.2,0.8h0.1c0-0.2,0.1-0.4,0.2-0.8l3.1-8.5h1.8L440.4,222.9
					L440.4,222.9z"/>
				<path class="st6" d="M382.2,262.2h-5.9v-1.4h5.9V262.2z"/>
				<path class="st6" d="M390.9,267v-2.1c0.2,0.2,0.5,0.4,0.9,0.6s0.7,0.3,1.1,0.4s0.8,0.2,1.1,0.3c0.4,0.1,0.7,0.1,1.1,0.1
					c1.1,0,1.9-0.2,2.5-0.6c0.5-0.4,0.8-1,0.8-1.8c0-0.4-0.1-0.8-0.3-1.1c-0.2-0.3-0.4-0.6-0.8-0.8c-0.3-0.3-0.7-0.5-1.1-0.7
					s-0.9-0.5-1.4-0.7c-0.5-0.3-1-0.5-1.5-0.8s-0.9-0.6-1.2-0.9c-0.3-0.3-0.6-0.7-0.8-1.1c-0.2-0.4-0.3-0.9-0.3-1.5
					c0-0.7,0.2-1.3,0.5-1.8s0.7-0.9,1.2-1.3c0.5-0.3,1.1-0.6,1.7-0.8s1.3-0.2,2-0.2c1.5,0,2.6,0.2,3.3,0.5v2
					c-0.9-0.6-2.1-0.9-3.5-0.9c-0.4,0-0.8,0-1.2,0.1c-0.4,0.1-0.7,0.2-1.1,0.4c-0.3,0.2-0.6,0.4-0.8,0.7c-0.2,0.3-0.3,0.7-0.3,1.1
					s0.1,0.7,0.2,1s0.4,0.5,0.6,0.8c0.3,0.2,0.6,0.5,1,0.7s0.9,0.5,1.4,0.7c0.5,0.3,1.1,0.6,1.6,0.9s0.9,0.6,1.3,1s0.7,0.8,0.9,1.2
					c0.2,0.4,0.3,1,0.3,1.5c0,0.8-0.1,1.4-0.4,1.9s-0.7,1-1.2,1.3s-1.1,0.6-1.7,0.7c-0.7,0.1-1.4,0.2-2.1,0.2c-0.2,0-0.5,0-0.9-0.1
					s-0.7-0.1-1.1-0.2s-0.7-0.2-1.1-0.3C391.4,267.3,391.1,267.1,390.9,267z"/>
				<path class="st6" d="M412.2,267.6h-2.5l-4.8-5.3l0,0v5.3h-1.8v-16.3h1.8v10.3l0,0l4.6-5h2.3l-5.1,5.3L412.2,267.6z"/>
				<path class="st6" d="M422.8,262.6H415c0,1.2,0.4,2.2,1,2.8c0.6,0.7,1.5,1,2.6,1c1.2,0,2.4-0.4,3.4-1.2v1.7
					c-1,0.7-2.2,1.1-3.8,1.1c-1.6,0-2.8-0.5-3.7-1.5c-0.9-1-1.3-2.4-1.3-4.2c0-1.7,0.5-3.1,1.5-4.2s2.2-1.6,3.6-1.6s2.5,0.5,3.3,1.4
					s1.2,2.2,1.2,3.9L422.8,262.6L422.8,262.6z M421,261.1c0-1-0.3-1.8-0.7-2.4c-0.5-0.6-1.2-0.8-2-0.8s-1.5,0.3-2.1,0.9
					s-0.9,1.4-1.1,2.3H421z"/>
				<path class="st6" d="M430.6,267.5c-0.4,0.2-1,0.3-1.6,0.3c-1.9,0-2.9-1.1-2.9-3.2v-6.5h-1.9v-1.5h1.9v-2.7l1.8-0.6v3.3h2.8v1.5
					h-2.8v6.2c0,0.7,0.1,1.3,0.4,1.6c0.3,0.3,0.7,0.5,1.2,0.5c0.4,0,0.8-0.1,1.1-0.4V267.5z"/>
				<path class="st6" d="M440.4,267.1c-0.8,0.5-1.8,0.8-3,0.8c-1.6,0-2.8-0.5-3.8-1.5s-1.4-2.3-1.4-4c0-1.8,0.5-3.3,1.6-4.4
					s2.4-1.6,4.2-1.6c1,0,1.8,0.2,2.6,0.5v1.8c-0.8-0.6-1.7-0.9-2.6-0.9c-1.1,0-2,0.4-2.8,1.2s-1.1,1.9-1.1,3.2c0,1.3,0.3,2.3,1,3
					s1.6,1.1,2.7,1.1c1,0,1.9-0.3,2.7-1v1.8H440.4z"/>
				<path class="st6" d="M452.2,267.6h-1.8v-6.3c0-2.3-0.9-3.4-2.6-3.4c-0.9,0-1.6,0.3-2.2,1s-0.9,1.5-0.9,2.5v6.2h-1.8v-16.3h1.8
					v7.1l0,0c0.8-1.4,2-2.1,3.6-2.1c2.5,0,3.7,1.5,3.7,4.5v6.8H452.2z"/>
				<path class="st6" d="M467,261.4c0,4.3-1.9,6.5-5.8,6.5c-3.7,0-5.6-2.1-5.6-6.2v-9.4h1.8v9.3c0,3.2,1.3,4.7,4,4.7
					c2.6,0,3.9-1.5,3.9-4.6v-9.5h1.8L467,261.4L467,261.4z"/>
				<path class="st6" d="M472.4,266L472.4,266v6.6h-1.8v-16h1.8v1.9l0,0c0.9-1.5,2.1-2.2,3.8-2.2c1.4,0,2.5,0.5,3.3,1.5
					s1.2,2.3,1.2,4c0,1.8-0.4,3.3-1.3,4.4s-2.1,1.7-3.7,1.7C474.3,267.9,473.2,267.3,472.4,266z M472.3,261.6v1.5
					c0,0.9,0.3,1.7,0.9,2.3s1.3,0.9,2.2,0.9c1.1,0,1.9-0.4,2.5-1.2c0.6-0.8,0.9-1.9,0.9-3.4c0-1.2-0.3-2.2-0.8-2.9
					c-0.6-0.7-1.3-1-2.3-1s-1.8,0.4-2.5,1.1C472.6,259.6,472.3,260.5,472.3,261.6z"/>
				<path class="st6" d="M382.2,296h-5.9v-1.4h5.9V296z"/>
				<path class="st6" d="M407.3,301.4h-1.8v-10.3c0-0.8,0-1.8,0.2-3l0,0c-0.2,0.7-0.3,1.2-0.5,1.5l-5.3,11.8H399l-5.2-11.7
					c-0.2-0.3-0.3-0.9-0.5-1.6l0,0c0.1,0.6,0.1,1.6,0.1,3v10.3h-1.7V286h2.4l4.7,10.7c0.4,0.8,0.6,1.4,0.7,1.8h0.1
					c0.3-0.8,0.6-1.5,0.7-1.9l4.8-10.7h2.3v15.5H407.3z"/>
				<path class="st6" d="M412,287.6c-0.3,0-0.6-0.1-0.8-0.3c-0.2-0.2-0.3-0.5-0.3-0.8s0.1-0.6,0.3-0.8c0.2-0.2,0.5-0.3,0.8-0.3
					s0.6,0.1,0.8,0.3c0.2,0.2,0.3,0.5,0.3,0.8s-0.1,0.6-0.3,0.8S412.3,287.6,412,287.6z M412.9,301.4h-1.8v-11h1.8V301.4z"/>
				<path class="st6" d="M423.9,300.9c-0.8,0.5-1.8,0.8-3,0.8c-1.6,0-2.8-0.5-3.8-1.5s-1.4-2.3-1.4-4c0-1.8,0.5-3.3,1.6-4.4
					s2.4-1.6,4.2-1.6c1,0,1.8,0.2,2.6,0.5v1.8c-0.8-0.6-1.7-0.9-2.6-0.9c-1.1,0-2,0.4-2.8,1.2s-1.1,1.9-1.1,3.2c0,1.3,0.3,2.3,1,3
					s1.6,1.1,2.7,1.1c1,0,1.9-0.3,2.7-1v1.8H423.9z"/>
				<path class="st6" d="M432.3,292.2c-0.3-0.2-0.8-0.4-1.3-0.4c-0.8,0-1.4,0.4-1.9,1.1s-0.8,1.7-0.8,2.9v5.6h-1.8v-11h1.8v2.3l0,0
					c0.3-0.8,0.6-1.4,1.1-1.8s1.1-0.6,1.7-0.6c0.5,0,0.8,0,1.1,0.2L432.3,292.2L432.3,292.2z"/>
				<path class="st6" d="M438.8,301.6c-1.6,0-2.9-0.5-3.9-1.5s-1.5-2.4-1.5-4.1c0-1.8,0.5-3.3,1.5-4.3s2.4-1.6,4.1-1.6
					c1.6,0,2.9,0.5,3.8,1.5s1.4,2.4,1.4,4.2c0,1.8-0.5,3.2-1.5,4.2C441.8,301.1,440.5,301.6,438.8,301.6z M438.9,291.6
					c-1.1,0-2,0.4-2.7,1.2c-0.7,0.8-1,1.8-1,3.2c0,1.3,0.3,2.3,1,3.1c0.7,0.8,1.6,1.1,2.7,1.1s2-0.4,2.6-1.1s0.9-1.8,0.9-3.1
					c0-1.4-0.3-2.4-0.9-3.2S440.1,291.6,438.9,291.6z"/>
				<path class="st6" d="M446.4,301v-1.9c1,0.7,2,1.1,3.2,1.1c1.5,0,2.3-0.5,2.3-1.5c0-0.3-0.1-0.5-0.2-0.7s-0.3-0.4-0.5-0.5
					s-0.5-0.3-0.8-0.4s-0.6-0.3-1-0.4c-0.5-0.2-0.9-0.4-1.3-0.6s-0.7-0.4-0.9-0.7c-0.2-0.2-0.4-0.5-0.6-0.8
					c-0.1-0.3-0.2-0.7-0.2-1.1c0-0.5,0.1-1,0.4-1.4s0.6-0.7,0.9-1c0.4-0.3,0.8-0.5,1.3-0.6s1-0.2,1.6-0.2c1,0,1.8,0.2,2.6,0.5v1.8
					c-0.8-0.5-1.7-0.8-2.8-0.8c-0.3,0-0.6,0-0.9,0.1s-0.5,0.2-0.7,0.3c-0.2,0.1-0.3,0.3-0.4,0.5s-0.2,0.4-0.2,0.6
					c0,0.3,0.1,0.5,0.2,0.7s0.3,0.4,0.5,0.5s0.4,0.3,0.7,0.4c0.3,0.1,0.6,0.3,1,0.4c0.5,0.2,0.9,0.4,1.3,0.6s0.7,0.4,1,0.7
					c0.3,0.2,0.5,0.5,0.6,0.9c0.1,0.3,0.2,0.7,0.2,1.1c0,0.5-0.1,1-0.4,1.4s-0.6,0.7-1,1s-0.9,0.5-1.4,0.6s-1.1,0.2-1.6,0.2
					C448.2,301.6,447.3,301.4,446.4,301z"/>
				<path class="st6" d="M461,301.6c-1.6,0-2.9-0.5-3.9-1.5s-1.5-2.4-1.5-4.1c0-1.8,0.5-3.3,1.5-4.3s2.4-1.6,4.1-1.6
					c1.6,0,2.9,0.5,3.8,1.5s1.4,2.4,1.4,4.2c0,1.8-0.5,3.2-1.5,4.2C464,301.1,462.7,301.6,461,301.6z M461.1,291.6
					c-1.1,0-2,0.4-2.7,1.2c-0.7,0.8-1,1.8-1,3.2c0,1.3,0.3,2.3,1,3.1c0.7,0.8,1.6,1.1,2.7,1.1s2-0.4,2.6-1.1s0.9-1.8,0.9-3.1
					c0-1.4-0.3-2.4-0.9-3.2S462.3,291.6,461.1,291.6z"/>
				<path class="st6" d="M474.7,286.7c-0.3-0.2-0.7-0.3-1.2-0.3c-1.2,0-1.8,0.8-1.8,2.3v1.7h2.6v1.5h-2.6v9.5H470v-9.5h-1.9v-1.5
					h1.9v-1.8c0-1.2,0.3-2.1,1-2.7s1.5-1,2.5-1c0.5,0,1,0.1,1.3,0.2L474.7,286.7L474.7,286.7z"/>
				<path class="st6" d="M481.3,301.3c-0.4,0.2-1,0.3-1.6,0.3c-1.9,0-2.9-1.1-2.9-3.2v-6.5h-1.9v-1.5h1.9v-2.7l1.8-0.6v3.3h2.8v1.5
					h-2.8v6.2c0,0.7,0.1,1.3,0.4,1.6c0.3,0.3,0.7,0.5,1.2,0.5c0.4,0,0.8-0.1,1.1-0.4V301.3z"/>
				<path class="st6" d="M496.1,301.6c-2.2,0-3.9-0.7-5.2-2.2s-2-3.3-2-5.6c0-2.5,0.7-4.4,2-5.9s3.2-2.2,5.5-2.2
					c2.1,0,3.8,0.7,5.1,2.1s1.9,3.3,1.9,5.6c0,2.5-0.7,4.5-2,6S498.3,301.6,496.1,301.6z M496.2,287.4c-1.6,0-2.9,0.6-3.9,1.7
					c-1,1.2-1.5,2.7-1.5,4.6s0.5,3.4,1.5,4.6s2.3,1.7,3.8,1.7c1.7,0,3-0.6,4-1.7s1.5-2.6,1.5-4.6s-0.5-3.6-1.4-4.7
					C499.1,287.9,497.8,287.4,496.2,287.4z"/>
				<path class="st6" d="M511.6,286.7c-0.3-0.2-0.7-0.3-1.2-0.3c-1.2,0-1.8,0.8-1.8,2.3v1.7h2.6v1.5h-2.6v9.5h-1.7v-9.5H505v-1.5
					h1.9v-1.8c0-1.2,0.3-2.1,1-2.7s1.5-1,2.5-1c0.5,0,1,0.1,1.3,0.2L511.6,286.7L511.6,286.7z"/>
				<path class="st6" d="M518.5,286.7c-0.3-0.2-0.7-0.3-1.2-0.3c-1.2,0-1.8,0.8-1.8,2.3v1.7h2.6v1.5h-2.6v9.5h-1.8v-9.5h-1.9v-1.5
					h1.9v-1.8c0-1.2,0.3-2.1,1-2.7s1.5-1,2.5-1c0.5,0,1,0.1,1.3,0.2V286.7z"/>
				<path class="st6" d="M520.8,287.6c-0.3,0-0.6-0.1-0.8-0.3c-0.2-0.2-0.3-0.5-0.3-0.8s0.1-0.6,0.3-0.8c0.2-0.2,0.5-0.3,0.8-0.3
					s0.6,0.1,0.8,0.3c0.2,0.2,0.3,0.5,0.3,0.8s-0.1,0.6-0.3,0.8C521.4,287.5,521.2,287.6,520.8,287.6z M521.7,301.4h-1.8v-11h1.8
					V301.4z"/>
				<path class="st6" d="M532.7,300.9c-0.8,0.5-1.8,0.8-3,0.8c-1.6,0-2.8-0.5-3.8-1.5s-1.4-2.3-1.4-4c0-1.8,0.5-3.3,1.6-4.4
					s2.4-1.6,4.2-1.6c1,0,1.8,0.2,2.6,0.5v1.8c-0.8-0.6-1.7-0.9-2.6-0.9c-1.1,0-2,0.4-2.8,1.2s-1.1,1.9-1.1,3.2c0,1.3,0.3,2.3,1,3
					s1.6,1.1,2.7,1.1c1,0,1.9-0.3,2.7-1v1.8H532.7z"/>
				<path class="st6" d="M544.2,296.3h-7.8c0,1.2,0.4,2.2,1,2.8c0.6,0.7,1.5,1,2.6,1c1.2,0,2.4-0.4,3.4-1.2v1.7
					c-1,0.7-2.2,1.1-3.8,1.1s-2.8-0.5-3.7-1.5s-1.3-2.4-1.3-4.2c0-1.7,0.5-3.1,1.5-4.2s2.2-1.6,3.6-1.6s2.5,0.5,3.3,1.4
					s1.2,2.2,1.2,3.9V296.3z M542.4,294.8c0-1-0.3-1.8-0.7-2.4c-0.5-0.6-1.2-0.8-2-0.8s-1.5,0.3-2.1,0.9s-0.9,1.4-1.1,2.3H542.4z"/>
			</g>
			<g>
				<path class="st6" d="M394.9,117.4v1.5h-1.5V131h1.5v1.5h-4.7V131h1.5v-12.1h-1.5v-1.5H394.9z"/>
				<path class="st6" d="M406.1,132.5h-1.7v-6.1c0-2.3-0.8-3.4-2.5-3.4c-0.9,0-1.6,0.3-2.1,1c-0.6,0.6-0.8,1.5-0.8,2.5v6.1h-1.7
					v-10.8h1.7v1.8l0,0c0.8-1.4,2-2,3.5-2c1.2,0,2.1,0.4,2.7,1.1c0.6,0.8,0.9,1.9,0.9,3.3V132.5z"/>
				<path class="st6" d="M420.8,117.4l-5.6,15.1h-1.9l-5.5-15.1h2l4.2,12c0.1,0.4,0.2,0.8,0.3,1.3l0,0c0.1-0.4,0.2-0.9,0.3-1.4
					l4.3-12L420.8,117.4L420.8,117.4z"/>
				<path class="st6" d="M423.6,119c-0.3,0-0.6-0.1-0.8-0.3c-0.2-0.2-0.3-0.5-0.3-0.8s0.1-0.6,0.3-0.8c0.2-0.2,0.5-0.3,0.8-0.3
					s0.6,0.1,0.8,0.3c0.2,0.2,0.3,0.5,0.3,0.8s-0.1,0.6-0.3,0.8S424,119,423.6,119z M424.5,132.5h-1.7v-10.8h1.7V132.5z"/>
				<path class="st6" d="M427.3,132.1v-1.9c0.9,0.7,2,1,3.1,1c1.5,0,2.3-0.5,2.3-1.5c0-0.3-0.1-0.5-0.2-0.7s-0.3-0.4-0.5-0.5
					c-0.2-0.2-0.5-0.3-0.8-0.4c-0.3-0.1-0.6-0.3-1-0.4c-0.5-0.2-0.9-0.4-1.3-0.6s-0.7-0.4-0.9-0.7s-0.4-0.5-0.5-0.8
					s-0.2-0.7-0.2-1.1c0-0.5,0.1-1,0.3-1.3s0.5-0.7,0.9-1s0.8-0.5,1.3-0.6s1-0.2,1.5-0.2c0.9,0,1.8,0.2,2.5,0.5v1.7
					c-0.8-0.5-1.7-0.8-2.7-0.8c-0.3,0-0.6,0-0.9,0.1s-0.5,0.2-0.7,0.3c-0.2,0.1-0.3,0.3-0.4,0.5s-0.2,0.4-0.2,0.6
					c0,0.3,0.1,0.5,0.2,0.7s0.3,0.4,0.4,0.5s0.4,0.3,0.7,0.4c0.3,0.1,0.6,0.2,1,0.4c0.5,0.2,0.9,0.4,1.3,0.6s0.7,0.4,1,0.7
					c0.3,0.2,0.5,0.5,0.6,0.8s0.2,0.7,0.2,1.1c0,0.5-0.1,1-0.4,1.4s-0.5,0.7-0.9,1s-0.8,0.5-1.4,0.6c-0.5,0.1-1,0.2-1.6,0.2
					C429.1,132.8,428.1,132.5,427.3,132.1z"/>
				<path class="st6" d="M438,119c-0.3,0-0.6-0.1-0.8-0.3c-0.2-0.2-0.3-0.5-0.3-0.8s0.1-0.6,0.3-0.8c0.2-0.2,0.5-0.3,0.8-0.3
					s0.6,0.1,0.8,0.3c0.2,0.2,0.3,0.5,0.3,0.8s-0.1,0.6-0.3,0.8S438.3,119,438,119z M438.9,132.5h-1.7v-10.8h1.7V132.5z"/>
				<path class="st6" d="M446.9,132.8c-1.6,0-2.9-0.5-3.8-1.5s-1.4-2.3-1.4-4c0-1.8,0.5-3.2,1.5-4.2s2.3-1.5,4-1.5
					c1.6,0,2.9,0.5,3.8,1.5s1.4,2.4,1.4,4.1c0,1.7-0.5,3.1-1.5,4.1S448.5,132.8,446.9,132.8z M447,122.9c-1.1,0-2,0.4-2.6,1.1
					c-0.6,0.8-1,1.8-1,3.1s0.3,2.3,1,3c0.7,0.7,1.5,1.1,2.6,1.1s2-0.4,2.6-1.1c0.6-0.7,0.9-1.8,0.9-3.1c0-1.3-0.3-2.4-0.9-3.1
					C449,123.3,448.1,122.9,447,122.9z"/>
				<path class="st6" d="M463.9,132.5h-1.7v-6.1c0-2.3-0.8-3.4-2.5-3.4c-0.9,0-1.6,0.3-2.1,1c-0.6,0.6-0.8,1.5-0.8,2.5v6.1H455
					v-10.8h1.7v1.8l0,0c0.8-1.4,2-2,3.5-2c1.2,0,2.1,0.4,2.7,1.1c0.6,0.8,0.9,1.9,0.9,3.3L463.9,132.5L463.9,132.5z"/>
				<path class="st6" d="M468.8,130.1l-1.7,5.2h-1.2l1.2-5.2H468.8z"/>
				<path class="st6" d="M477.3,131.9v-2.1c0.2,0.2,0.5,0.4,0.9,0.6c0.3,0.2,0.7,0.3,1.1,0.4c0.4,0.1,0.7,0.2,1.1,0.3s0.7,0.1,1,0.1
					c1.1,0,1.9-0.2,2.4-0.6c0.5-0.4,0.8-1,0.8-1.7c0-0.4-0.1-0.8-0.3-1.1c-0.2-0.3-0.4-0.6-0.7-0.8c-0.3-0.2-0.7-0.5-1.1-0.7
					s-0.9-0.5-1.4-0.7c-0.5-0.3-1-0.5-1.5-0.8s-0.9-0.6-1.2-0.9c-0.3-0.3-0.6-0.7-0.8-1.1c-0.2-0.4-0.3-0.9-0.3-1.5
					c0-0.7,0.2-1.3,0.5-1.8s0.7-0.9,1.2-1.3s1.1-0.6,1.7-0.7c0.6-0.2,1.3-0.2,1.9-0.2c1.5,0,2.6,0.2,3.3,0.5v2
					c-0.9-0.6-2-0.9-3.4-0.9c-0.4,0-0.8,0-1.2,0.1c-0.4,0.1-0.7,0.2-1,0.4s-0.5,0.4-0.7,0.7c-0.2,0.3-0.3,0.6-0.3,1.1
					c0,0.4,0.1,0.7,0.2,1s0.4,0.5,0.6,0.8c0.3,0.2,0.6,0.5,1,0.7s0.9,0.5,1.4,0.7c0.5,0.3,1.1,0.5,1.5,0.8c0.5,0.3,0.9,0.6,1.3,1
					s0.7,0.8,0.9,1.2c0.2,0.4,0.3,0.9,0.3,1.5c0,0.7-0.1,1.4-0.4,1.9s-0.7,0.9-1.2,1.3c-0.5,0.3-1.1,0.6-1.7,0.7
					c-0.6,0.1-1.3,0.2-2,0.2c-0.2,0-0.5,0-0.9-0.1c-0.4,0-0.7-0.1-1.1-0.2s-0.7-0.2-1-0.3C477.8,132.1,477.5,132,477.3,131.9z"/>
				<path class="st6" d="M498.2,132.5h-2.4l-4.8-5.2l0,0v5.2h-1.7v-16h1.7v10.1l0,0l4.5-4.9h2.3l-5,5.2L498.2,132.5z"/>
				<path class="st6" d="M508.6,127.5H501c0,1.2,0.4,2.1,1,2.8s1.5,1,2.5,1c1.2,0,2.3-0.4,3.3-1.2v1.6c-0.9,0.7-2.2,1-3.8,1
					c-1.5,0-2.7-0.5-3.6-1.5s-1.3-2.4-1.3-4.1c0-1.7,0.5-3,1.4-4.1c1-1.1,2.1-1.6,3.5-1.6s2.5,0.5,3.3,1.4s1.2,2.2,1.2,3.8v0.9
					H508.6z M506.9,126.1c0-1-0.2-1.8-0.7-2.3c-0.5-0.6-1.1-0.8-2-0.8c-0.8,0-1.5,0.3-2.1,0.9s-0.9,1.3-1.1,2.3L506.9,126.1
					L506.9,126.1z"/>
				<path class="st6" d="M516.2,132.4c-0.4,0.2-0.9,0.3-1.6,0.3c-1.9,0-2.8-1.1-2.8-3.2v-6.4h-1.9v-1.5h1.9V119l1.7-0.6v3.2h2.7v1.5
					h-2.7v6.1c0,0.7,0.1,1.2,0.4,1.5c0.2,0.3,0.7,0.5,1.2,0.5c0.4,0,0.8-0.1,1.1-0.4L516.2,132.4L516.2,132.4z"/>
				<path class="st6" d="M525.9,132c-0.8,0.5-1.8,0.7-2.9,0.7c-1.5,0-2.8-0.5-3.7-1.5s-1.4-2.3-1.4-3.9c0-1.8,0.5-3.2,1.5-4.3
					c1-1.1,2.4-1.6,4.1-1.6c0.9,0,1.8,0.2,2.5,0.5v1.8c-0.8-0.6-1.7-0.8-2.6-0.8c-1.1,0-2,0.4-2.7,1.2c-0.7,0.8-1.1,1.8-1.1,3.1
					s0.3,2.3,1,3s1.6,1.1,2.7,1.1c0.9,0,1.8-0.3,2.7-0.9L525.9,132L525.9,132z"/>
				<path class="st6" d="M537.4,132.5h-1.7v-6.2c0-2.2-0.8-3.4-2.5-3.4c-0.8,0-1.6,0.3-2.1,1c-0.6,0.6-0.9,1.5-0.9,2.5v6.1h-1.7v-16
					h1.7v7l0,0c0.8-1.4,2-2,3.5-2c2.4,0,3.6,1.5,3.6,4.4v6.6H537.4z"/>
				<path class="st6" d="M560.1,132.7c-0.4,0-0.8-0.1-1.1-0.2c-0.3-0.1-0.6-0.3-0.8-0.5c-0.3-0.2-0.5-0.4-0.8-0.7
					c-0.2-0.3-0.5-0.6-0.8-1c-0.3,0.3-0.6,0.6-1,0.9c-0.4,0.3-0.8,0.5-1.2,0.7c-0.5,0.2-0.9,0.4-1.5,0.5s-1.1,0.2-1.7,0.2
					c-0.8,0-1.5-0.1-2.1-0.3s-1.2-0.5-1.6-0.8c-0.4-0.4-0.8-0.8-1-1.4s-0.4-1.2-0.4-1.9c0-1.1,0.3-2,0.9-2.8s1.5-1.4,2.6-1.9
					c-0.2-0.2-0.4-0.3-0.6-0.5c-0.2-0.2-0.4-0.4-0.6-0.7s-0.3-0.6-0.4-0.9s-0.2-0.7-0.2-1c0-0.6,0.1-1,0.3-1.5
					c0.2-0.4,0.5-0.8,0.8-1.1c0.4-0.3,0.8-0.5,1.2-0.7c0.5-0.2,1-0.2,1.5-0.2s1,0.1,1.5,0.2s0.8,0.4,1.2,0.6s0.6,0.6,0.8,1
					s0.3,0.8,0.3,1.3c0,0.8-0.2,1.5-0.7,2.1s-1.2,1-2.2,1.4c0.5,0.2,0.9,0.4,1.3,0.7c0.4,0.3,0.8,0.6,1.1,0.9s0.6,0.7,0.9,1.1
					c0.3,0.4,0.6,0.8,0.9,1.2c0.6-0.8,1-1.7,1.3-2.6c0.3-1,0.4-2,0.4-3c0-0.3,0-0.5,0-0.8c0-0.2-0.1-0.5-0.1-0.7h1.7
					c0.1,0.2,0.1,0.5,0.1,0.7s0,0.5,0,0.7c0,0.6-0.1,1.3-0.2,1.9c-0.1,0.6-0.3,1.3-0.5,1.9s-0.5,1.2-0.8,1.7s-0.6,1-0.9,1.5
					c0.2,0.3,0.5,0.6,0.7,0.9c0.2,0.2,0.4,0.5,0.6,0.6s0.4,0.3,0.6,0.4c0.2,0.1,0.5,0.1,0.8,0.1c0.2,0,0.4,0,0.6-0.1
					s0.4-0.1,0.7-0.2v1.6c-0.3,0.1-0.5,0.2-0.8,0.2C560.6,132.7,560.3,132.7,560.1,132.7z M551.2,131.2c0.5,0,1-0.1,1.5-0.2
					s0.9-0.3,1.2-0.5c0.4-0.2,0.7-0.4,1-0.7s0.6-0.5,0.8-0.8c-0.4-0.7-0.8-1.2-1.2-1.7s-0.7-0.9-1.1-1.2c-0.4-0.3-0.8-0.6-1.2-0.9
					s-0.9-0.5-1.4-0.7c-0.4,0.2-0.8,0.4-1.2,0.6s-0.7,0.5-1,0.8s-0.5,0.6-0.6,1c-0.2,0.4-0.2,0.8-0.2,1.4c0,0.5,0.1,0.9,0.3,1.3
					c0.2,0.4,0.4,0.7,0.7,0.9s0.7,0.4,1.1,0.5C550.3,131.2,550.8,131.2,551.2,131.2z M553.9,120.5c0-0.4-0.1-0.6-0.2-0.9
					s-0.3-0.4-0.5-0.6s-0.4-0.3-0.7-0.4c-0.2-0.1-0.5-0.1-0.7-0.1c-0.7,0-1.2,0.2-1.6,0.6c-0.4,0.4-0.6,0.9-0.6,1.5
					c0,0.3,0,0.6,0.1,0.8c0.1,0.3,0.2,0.5,0.4,0.7s0.3,0.4,0.6,0.6s0.4,0.3,0.7,0.4c0.9-0.3,1.5-0.7,2-1.1S553.9,121.1,553.9,120.5z
					"/>
				<path class="st6" d="M570,132.5v-15.1h4.3c1.3,0,2.3,0.3,3.1,1c0.8,0.6,1.1,1.5,1.1,2.5c0,0.9-0.2,1.6-0.7,2.2s-1.1,1.1-1.9,1.3
					l0,0c1,0.1,1.8,0.5,2.4,1.2c0.6,0.6,0.9,1.5,0.9,2.5c0,1.3-0.5,2.3-1.4,3.1s-2.1,1.2-3.5,1.2L570,132.5L570,132.5z M571.8,119
					v4.9h1.8c1,0,1.7-0.2,2.3-0.7s0.8-1.1,0.8-2c0-1.5-1-2.2-2.9-2.2C573.8,119,571.8,119,571.8,119z M571.8,125.5v5.4h2.4
					c1,0,1.8-0.2,2.4-0.7s0.9-1.2,0.9-2c0-1.8-1.2-2.7-3.6-2.7H571.8z"/>
				<path class="st6" d="M589.9,132.5h-1.7v-1.7l0,0c-0.8,1.3-1.9,1.9-3.3,1.9c-1.1,0-1.9-0.3-2.5-0.9c-0.6-0.6-0.9-1.3-0.9-2.3
					c0-2,1.2-3.2,3.6-3.5l3.2-0.5c0-1.8-0.7-2.7-2.2-2.7c-1.3,0-2.5,0.4-3.5,1.3v-1.8c1.1-0.7,2.3-1,3.7-1c2.5,0,3.8,1.3,3.8,4v7.2
					H589.9z M588.1,127l-2.6,0.4c-0.8,0.1-1.4,0.3-1.8,0.6c-0.4,0.3-0.6,0.8-0.6,1.5c0,0.5,0.2,1,0.6,1.3c0.4,0.3,0.9,0.5,1.5,0.5
					c0.9,0,1.6-0.3,2.1-0.9c0.6-0.6,0.8-1.4,0.8-2.3V127z"/>
				<path class="st6" d="M594.8,132.5h-1.7v-16h1.7V132.5z"/>
				<path class="st6" d="M597.7,132.1v-1.9c0.9,0.7,2,1,3.1,1c1.5,0,2.3-0.5,2.3-1.5c0-0.3-0.1-0.5-0.2-0.7
					c-0.1-0.2-0.3-0.4-0.5-0.5c-0.2-0.2-0.5-0.3-0.8-0.4c-0.3-0.1-0.6-0.3-1-0.4c-0.5-0.2-0.9-0.4-1.3-0.6c-0.4-0.2-0.7-0.4-0.9-0.7
					s-0.4-0.5-0.5-0.8s-0.2-0.7-0.2-1.1c0-0.5,0.1-1,0.3-1.3s0.5-0.7,0.9-1s0.8-0.5,1.3-0.6s1-0.2,1.5-0.2c0.9,0,1.8,0.2,2.5,0.5
					v1.7c-0.8-0.5-1.7-0.8-2.7-0.8c-0.3,0-0.6,0-0.9,0.1s-0.5,0.2-0.7,0.3c-0.2,0.1-0.3,0.3-0.4,0.5c-0.1,0.2-0.2,0.4-0.2,0.6
					c0,0.3,0.1,0.5,0.2,0.7c0.1,0.2,0.3,0.4,0.4,0.5s0.4,0.3,0.7,0.4s0.6,0.2,1,0.4c0.5,0.2,0.9,0.4,1.3,0.6c0.4,0.2,0.7,0.4,1,0.7
					c0.3,0.2,0.5,0.5,0.6,0.8s0.2,0.7,0.2,1.1c0,0.5-0.1,1-0.4,1.4s-0.5,0.7-0.9,1s-0.8,0.5-1.4,0.6c-0.5,0.1-1,0.2-1.6,0.2
					C599.5,132.8,598.5,132.5,597.7,132.1z"/>
				<path class="st6" d="M615.2,132.5h-1.7v-1.7l0,0c-0.8,1.3-1.9,1.9-3.3,1.9c-1.1,0-1.9-0.3-2.5-0.9c-0.6-0.6-0.9-1.3-0.9-2.3
					c0-2,1.2-3.2,3.6-3.5l3.2-0.5c0-1.8-0.7-2.7-2.2-2.7c-1.3,0-2.5,0.4-3.5,1.3v-1.8c1.1-0.7,2.3-1,3.7-1c2.5,0,3.8,1.3,3.8,4v7.2
					H615.2z M613.5,127l-2.6,0.4c-0.8,0.1-1.4,0.3-1.8,0.6c-0.4,0.3-0.6,0.8-0.6,1.5c0,0.5,0.2,1,0.6,1.3c0.4,0.3,0.9,0.5,1.5,0.5
					c0.9,0,1.6-0.3,2.1-0.9c0.6-0.6,0.8-1.4,0.8-2.3V127z"/>
				<path class="st6" d="M633.8,132.5H632v-6.2c0-1.2-0.2-2.1-0.6-2.6c-0.4-0.5-1-0.8-1.9-0.8c-0.7,0-1.4,0.3-1.9,1
					s-0.8,1.5-0.8,2.4v6.1h-1.7V126c0-2.1-0.8-3.2-2.5-3.2c-0.8,0-1.4,0.3-1.9,1s-0.7,1.5-0.7,2.5v6.1h-1.7v-10.8h1.7v1.7l0,0
					c0.8-1.3,1.9-2,3.3-2c0.7,0,1.4,0.2,1.9,0.6s0.9,0.9,1.1,1.6c0.8-1.5,2-2.2,3.6-2.2c2.4,0,3.6,1.5,3.6,4.4v6.8H633.8z"/>
				<path class="st6" d="M637.9,119c-0.3,0-0.6-0.1-0.8-0.3c-0.2-0.2-0.3-0.5-0.3-0.8s0.1-0.6,0.3-0.8c0.2-0.2,0.5-0.3,0.8-0.3
					s0.6,0.1,0.8,0.3c0.2,0.2,0.3,0.5,0.3,0.8s-0.1,0.6-0.3,0.8S638.2,119,637.9,119z M638.8,132.5H637v-10.8h1.7L638.8,132.5
					L638.8,132.5z"/>
				<path class="st6" d="M651.4,137.5h-1.7v-6.8l0,0c-0.8,1.4-2,2.1-3.7,2.1c-1.4,0-2.4-0.5-3.3-1.4c-0.8-1-1.2-2.3-1.2-3.9
					c0-1.8,0.4-3.2,1.3-4.3c0.9-1.1,2.1-1.6,3.6-1.6s2.5,0.6,3.2,1.7l0,0v-1.5h1.7v15.7H651.4z M649.7,127.6V126
					c0-0.9-0.3-1.6-0.9-2.2c-0.6-0.6-1.3-0.9-2.2-0.9c-1,0-1.9,0.4-2.5,1.2c-0.6,0.8-0.9,1.9-0.9,3.2c0,1.2,0.3,2.2,0.9,2.9
					c0.6,0.7,1.3,1.1,2.3,1.1s1.8-0.3,2.4-1S649.7,128.7,649.7,127.6z"/>
			</g>
		</g>
	</g>
	<g>
		<path class="st6" d="M530,160.5c0,1.9-0.4,3.4-1.2,4.4c-0.8,1-1.9,1.6-3.2,1.6c-0.6,0-1.1-0.1-1.5-0.3v-1.8
			c0.4,0.3,0.9,0.4,1.6,0.4c1.7,0,2.5-1.4,2.5-4.3v-10.2h1.9V160.5z"/>
		<path class="st6" d="M542,166.2h-1.8v-1.8h0c-0.8,1.4-2,2-3.5,2c-1.1,0-2-0.3-2.7-0.9s-1-1.4-1-2.4c0-2.1,1.2-3.4,3.7-3.7l3.4-0.5
			c0-1.9-0.8-2.9-2.3-2.9c-1.4,0-2.6,0.5-3.7,1.4v-1.9c1.1-0.7,2.4-1.1,3.9-1.1c2.7,0,4,1.4,4,4.2V166.2z M540.1,160.5l-2.7,0.4
			c-0.8,0.1-1.5,0.3-1.9,0.6s-0.6,0.8-0.6,1.6c0,0.6,0.2,1,0.6,1.4c0.4,0.4,0.9,0.5,1.6,0.5c0.9,0,1.6-0.3,2.2-0.9s0.9-1.4,0.9-2.4
			V160.5z"/>
		<path class="st6" d="M554.3,154.8l-4.5,11.4H548l-4.3-11.4h2l2.9,8.3c0.2,0.6,0.3,1.1,0.4,1.6h0c0.1-0.6,0.2-1.1,0.4-1.5l3-8.3
			H554.3z"/>
		<path class="st6" d="M564.4,166.2h-1.8v-1.8h0c-0.8,1.4-2,2-3.5,2c-1.1,0-2-0.3-2.7-0.9s-1-1.4-1-2.4c0-2.1,1.2-3.4,3.7-3.7
			l3.4-0.5c0-1.9-0.8-2.9-2.3-2.9c-1.4,0-2.6,0.5-3.7,1.4v-1.9c1.1-0.7,2.4-1.1,3.9-1.1c2.7,0,4,1.4,4,4.2V166.2z M562.6,160.5
			l-2.7,0.4c-0.8,0.1-1.5,0.3-1.9,0.6s-0.6,0.8-0.6,1.6c0,0.6,0.2,1,0.6,1.4c0.4,0.4,0.9,0.5,1.6,0.5c0.9,0,1.6-0.3,2.2-0.9
			s0.9-1.4,0.9-2.4V160.5z"/>
		<path class="st6" d="M567.3,165.6v-2.2c0.3,0.2,0.6,0.4,0.9,0.6c0.4,0.2,0.7,0.3,1.1,0.4c0.4,0.1,0.8,0.2,1.2,0.3
			c0.4,0.1,0.8,0.1,1.1,0.1c1.1,0,2-0.2,2.6-0.6s0.8-1,0.8-1.8c0-0.4-0.1-0.8-0.3-1.1c-0.2-0.3-0.4-0.6-0.8-0.9
			c-0.3-0.3-0.7-0.5-1.2-0.8c-0.5-0.2-0.9-0.5-1.5-0.8c-0.6-0.3-1.1-0.6-1.6-0.9c-0.5-0.3-0.9-0.6-1.3-1c-0.4-0.3-0.6-0.7-0.8-1.2
			s-0.3-1-0.3-1.5c0-0.7,0.2-1.4,0.5-1.9c0.3-0.5,0.7-1,1.3-1.3c0.5-0.3,1.1-0.6,1.8-0.8c0.7-0.2,1.3-0.3,2-0.3
			c1.6,0,2.7,0.2,3.4,0.6v2.1c-0.9-0.7-2.1-1-3.6-1c-0.4,0-0.8,0-1.2,0.1s-0.8,0.2-1.1,0.4c-0.3,0.2-0.6,0.4-0.8,0.7
			c-0.2,0.3-0.3,0.7-0.3,1.1c0,0.4,0.1,0.8,0.2,1.1c0.2,0.3,0.4,0.6,0.7,0.8c0.3,0.2,0.7,0.5,1.1,0.7c0.4,0.2,0.9,0.5,1.5,0.8
			c0.6,0.3,1.1,0.6,1.6,0.9s1,0.7,1.3,1c0.4,0.4,0.7,0.8,0.9,1.3c0.2,0.5,0.3,1,0.3,1.6c0,0.8-0.2,1.4-0.5,2c-0.3,0.5-0.7,1-1.2,1.3
			s-1.1,0.6-1.8,0.7c-0.7,0.2-1.4,0.2-2.2,0.2c-0.3,0-0.6,0-0.9-0.1c-0.4,0-0.7-0.1-1.1-0.2c-0.4-0.1-0.7-0.2-1.1-0.3
			C567.8,165.8,567.5,165.7,567.3,165.6z"/>
		<path class="st6" d="M587.6,165.7c-0.9,0.5-1.9,0.8-3.1,0.8c-1.6,0-2.9-0.5-3.9-1.6c-1-1.1-1.5-2.4-1.5-4.1c0-1.9,0.5-3.4,1.6-4.5
			c1.1-1.1,2.5-1.7,4.3-1.7c1,0,1.9,0.2,2.6,0.6v1.9c-0.8-0.6-1.7-0.9-2.7-0.9c-1.2,0-2.1,0.4-2.9,1.2c-0.7,0.8-1.1,1.9-1.1,3.3
			c0,1.3,0.3,2.4,1,3.1c0.7,0.8,1.6,1.2,2.8,1.2c1,0,1.9-0.3,2.8-1V165.7z"/>
		<path class="st6" d="M596.3,156.7c-0.3-0.2-0.8-0.4-1.4-0.4c-0.8,0-1.4,0.4-1.9,1.1c-0.5,0.7-0.8,1.7-0.8,3v5.8h-1.8v-11.4h1.8
			v2.3h0c0.3-0.8,0.7-1.4,1.2-1.9c0.5-0.4,1.1-0.7,1.8-0.7c0.5,0,0.8,0.1,1.1,0.2V156.7z"/>
		<path class="st6" d="M599.2,152c-0.3,0-0.6-0.1-0.8-0.3s-0.3-0.5-0.3-0.8s0.1-0.6,0.3-0.8s0.5-0.3,0.8-0.3c0.3,0,0.6,0.1,0.8,0.3
			c0.2,0.2,0.3,0.5,0.3,0.8c0,0.3-0.1,0.6-0.3,0.8C599.8,151.9,599.5,152,599.2,152z M600.1,166.2h-1.8v-11.4h1.8V166.2z"/>
		<path class="st6" d="M605.6,164.6L605.6,164.6l0,6.9h-1.8v-16.6h1.8v2h0c0.9-1.5,2.2-2.3,3.9-2.3c1.5,0,2.6,0.5,3.4,1.5
			s1.2,2.4,1.2,4.1c0,1.9-0.5,3.4-1.4,4.6c-0.9,1.1-2.2,1.7-3.8,1.7C607.6,166.5,606.4,165.8,605.6,164.6z M605.6,160v1.6
			c0,0.9,0.3,1.7,0.9,2.4c0.6,0.7,1.4,1,2.3,1c1.1,0,2-0.4,2.6-1.3c0.6-0.8,0.9-2,0.9-3.5c0-1.3-0.3-2.3-0.9-3s-1.4-1.1-2.4-1.1
			c-1.1,0-1.9,0.4-2.5,1.1C605.9,158,605.6,158.9,605.6,160z"/>
		<path class="st6" d="M622.4,166.1c-0.4,0.2-1,0.4-1.7,0.4c-2,0-3-1.1-3-3.3v-6.7h-2v-1.6h2v-2.8l1.8-0.6v3.4h2.9v1.6h-2.9v6.4
			c0,0.8,0.1,1.3,0.4,1.6s0.7,0.5,1.3,0.5c0.5,0,0.9-0.1,1.2-0.4V166.1z"/>
	</g>
</g>
</svg>
