<svg xmlns="http://www.w3.org/2000/svg" viewBox="0 0 481.35 540.54"><defs><style>.cls-1{fill:#cc112c;}.cls-2{fill:#fff;}</style></defs><title>Asset 4</title><g id="Layer_2" data-name="Layer 2"><g id="Layer_1-2" data-name="Layer 1"><path class="cls-1" d="M481.33,442.44l-12.22-44.51a.72.72,0,0,0-.88-.5L157.49,482.74,43.37,67.08,0,79,126.73,540.54l19.78-5.43,334.32-91.79A.72.72,0,0,0,481.33,442.44Z"/><path class="cls-2" d="M269.83,4.88q83.75-23,107.18,62.31l9.59,34.94q6.63,24.16,1.13,43.35t-23.81,33.06q47.91,3.42,62.31,55.84L437.37,275q22.31,81.19-62,104.33l-186,51.07L86.38,55.25Zm-52,376.23,140.29-38.52q51.9-14.23,38.5-63.06L385.76,240q-12.69-46.25-68.19-31l-.62.11a3.81,3.81,0,0,1-4.69-2.67l-7.43-27.07a3.81,3.81,0,0,1,2.67-4.69l.61-.11q53.44-14.67,41.59-57.84l-9-32.89q-14.54-52.92-66.44-38.67L136,83.07Z"/></g></g></svg>