<?xml version="1.0" encoding="utf-8"?>
<!-- Generator: Adobe Illustrator 22.0.1, SVG Export Plug-In . SVG Version: 6.00 Build 0)  -->
<svg version="1.1" id="Layer_1" xmlns="http://www.w3.org/2000/svg" xmlns:xlink="http://www.w3.org/1999/xlink" x="0px" y="0px"
	 viewBox="0 0 481.4 540.5" style="enable-background:new 0 0 481.4 540.5;" xml:space="preserve">
<style type="text/css">
	.st0{fill:#BC2032;}
	.st1{fill:#FFFFFF;}
</style>
<title>Asset 4</title>
<g id="Layer_2_1_">
	<g id="Layer_1-2">
		<path class="st0" d="M481.3,442.4l-12.2-44.5c-0.1-0.4-0.5-0.6-0.9-0.5l-310.7,85.3L43.4,67.1L0,79l126.7,461.5l19.8-5.4
			l334.3-91.8C481.2,443.2,481.4,442.8,481.3,442.4z"/>
		<path class="st1" d="M269.8,4.9c55.8-15.3,91.6,5.4,107.2,62.3l9.6,34.9c4.4,16.1,4.8,30.6,1.1,43.4s-11.6,23.8-23.8,33.1
			c31.9,2.3,52.7,20.9,62.3,55.8l11.1,40.6c14.9,54.1-5.8,88.9-62,104.3l-186,51.1L86.4,55.3L269.8,4.9z M217.8,381.1l140.3-38.5
			c34.6-9.5,47.4-30.5,38.5-63.1L385.8,240c-8.5-30.8-31.2-41.2-68.2-31l-0.6,0.1c-2,0.6-4.1-0.6-4.7-2.7c0,0,0,0,0,0l-7.4-27.1
			c-0.6-2,0.6-4.1,2.7-4.7c0,0,0,0,0,0l0.6-0.1c35.6-9.8,49.5-29.1,41.6-57.8l-9-32.9c-9.7-35.3-31.8-48.2-66.4-38.7L136,83.1
			L217.8,381.1z"/>
	</g>
</g>
</svg>
