<?xml version="1.0" encoding="utf-8"?>
<!-- Generator: Adobe Illustrator 22.1.0, SVG Export Plug-In . SVG Version: 6.00 Build 0)  -->
<svg version="1.1" id="Layer_1" xmlns="http://www.w3.org/2000/svg" xmlns:xlink="http://www.w3.org/1999/xlink" x="0px" y="0px"
	 viewBox="0 0 2777.5 865" style="enable-background:new 0 0 2777.5 865;" xml:space="preserve">
<style type="text/css">
	.st0{fill:none;}
	.st1{fill:#111A24;}
</style>
<title>Asset 6</title>
<rect x="202.5" y="242.2" class="st0" width="506.2" height="380.9"/>
<path class="st1" d="M708.7,242.2l-254.2,2.7L328.4,246l-125.8,0.8l4.5-4.5l0.6,190.4l0.2,190.4l-5.3-5.3l126.5,0.1
	c42.2,0,84.4,0.1,126.5,0.2l126.5,0.4l126.5,0.7l-3.8,3.8c0.1-31.5,0.5-63,0.7-94.6l0.9-94.9L708.7,242.2z M708.7,242.2l2.1,189.6
	l0.9,95.5c0.3,31.9,0.6,63.8,0.7,95.8v3.8h-3.8l-126.5,0.7L455.6,628c-42.2,0.2-84.4,0.3-126.5,0.2l-126.5,0.1h-5.3v-5.3l0.2-190.4
	l0.6-190.4v-4.5h4.4l127.2,0.8l126.9,1.1L708.7,242.2z"/>
<rect x="290.5" y="242.2" class="st0" width="214.7" height="161.8"/>
<path class="st1" d="M505.2,242.2l-108.5,2.7l-26.7,0.6c-8.9,0.2-17.8,0.4-26.6,0.5l-53,0.8l4.5-4.5l0.6,80.9l0.2,80.9l-5.3-5.3
	l53.7,0.1c17.9,0.1,35.8,0.1,53.7,0.2l53.7,0.4l53.7,0.7l-3.8,3.8c0.2-13.3,0.5-26.5,0.7-39.9c0.3-13.4,0.6-26.7,0.9-40.2
	L505.2,242.2z M505.2,242.2l2.1,80c0.4,13.5,0.7,27.1,0.9,40.7c0.3,13.6,0.6,27.3,0.7,41l0,3.7l-3.8,0.1l-53.7,0.7l-53.7,0.4
	c-17.9,0.2-35.8,0.2-53.7,0.2l-53.7,0.1h-5.3V404l0.2-80.9l0.6-80.9v-4.5l4.4,0.1l54.4,0.8c9,0.1,18.1,0.3,27.1,0.5l27,0.6l53.5,1.3
	L505.2,242.2z"/>
<rect x="202.5" y="469.9" class="st0" width="186.1" height="153.1"/>
<path class="st1" d="M388.6,469.9l-94.1,2.6l-46.1,1.1l-45.8,0.7l4.4-4.4c0.2,12.8,0.2,25.5,0.4,38.3l0.3,38.3l0.2,76.6l-5.3-5.3
	l46.5,0.1c15.5,0.1,31,0.1,46.5,0.3l46.5,0.4c15.5,0.1,31,0.4,46.5,0.6l-3.9,3.9l0.3-18.8l0.4-18.9c0.3-12.6,0.6-25.2,1-38
	L388.6,469.9z M388.6,469.9l2.2,75.7c0.4,12.8,0.6,25.7,1,38.6l0.4,19.4l0.3,19.4l0.1,3.8l-3.9,0.1c-15.5,0.2-31,0.5-46.5,0.6
	l-46.5,0.4c-15.5,0.2-31,0.2-46.5,0.3l-46.5,0.1h-5.3v-5.3l0.2-76.6l0.3-38.3c0.1-12.8,0.2-25.5,0.4-38.3l0.1-4.4l4.3,0.1l47.2,0.7
	l46.9,1.1l46.3,1.2L388.6,469.9z"/>
<rect x="202.5" y="242.2" class="st0" width="87.9" height="161.8"/>
<path class="st1" d="M202.5,242.2l43.2-1.8l22.2-0.9l22.5-0.6l3.2-0.1l0.1,3.4c0.4,13.5,0.6,27,0.9,40.4c0.3,13.5,0.5,27,0.6,40.5
	c0.2,13.5,0.3,27,0.3,40.4c0.1,13.5,0.1,27,0.1,40.4v5.3h-5.3c-14.7,0-29.3,0-44-0.1l-22-0.2l-22-0.2l-4.8-0.1l0.1-4.7l0.3-20.6
	l0.5-20.6l0.5-20.5l0.6-20.4l0.7-20.2l0.7-20L202.5,242.2z M202.5,242.2l1.5,41.5l0.7,20.4l0.6,20.2l0.6,20.1l0.5,19.9l0.5,19.9
	l0.3,19.8l-4.8-4.8l22-0.2l22-0.2c14.7-0.1,29.3-0.1,44-0.1l-5.3,5.3c0-13.5,0-27,0.1-40.4c0.1-13.5,0.2-27,0.3-40.4
	c0.1-13.5,0.3-27,0.6-40.5c0.3-13.5,0.5-27,0.9-40.4l3.3,3.3l-21.5-0.7l-21.7-0.9L202.5,242.2z"/>
<path class="st1" d="M358.5,397.1c-0.9-3.8-1.6-7.5-2.2-11.3c-0.6-3.8-1.1-7.5-1.5-11.3c-0.4-3.8-0.7-7.6-0.9-11.3
	c-0.1-1.9-0.2-3.8-0.3-5.7s-0.2-3.8-0.2-5.7l6.4,5l-0.7,0.2l-0.8,0.3l-1.7,0.6c-1.1,0.4-2.3,0.9-3.4,1.4c-2.3,1-4.5,2.1-6.6,3.3
	c-4.3,2.3-8.3,5.2-11.9,8.5c-3.6,3.3-6.7,7.1-9.1,11.4c-2.5,4.6-4.4,9.5-5.6,14.6c-0.7-2.7-1-5.5-1-8.3c0-2.9,0.4-5.7,1.1-8.5
	c1.5-5.7,4.2-11,8-15.5c3.8-4.5,8.2-8.3,13.3-11.3c2.5-1.5,5-2.8,7.7-3.9c1.3-0.6,2.7-1.1,4-1.6c0.7-0.2,1.4-0.5,2.1-0.7l1.1-0.3
	l1.2-0.3l6.5-1.7l-0.2,6.7c0,1.9-0.1,3.8-0.2,5.7s-0.2,3.8-0.3,5.7c-0.2,3.8-0.6,7.6-0.9,11.3c-0.4,3.8-0.9,7.5-1.5,11.3
	S359.4,393.3,358.5,397.1z"/>
<path class="st1" d="M705.2,400.1c-4.3,0.9-8.5,1.6-12.8,2.2c-4.3,0.6-8.5,1.1-12.8,1.5c-4.3,0.4-8.5,0.7-12.8,0.9
	c-2.1,0.1-4.3,0.2-6.4,0.3c-2.1,0.1-4.3,0.2-6.4,0.2l5-6.4l0.3,0.9l0.3,1l0.7,2c0.5,1.3,1,2.6,1.6,3.9c1.1,2.6,2.4,5.1,3.7,7.5
	c2.7,4.9,5.9,9.4,9.7,13.5c3.8,4.1,8.3,7.6,13.2,10.2c5.3,2.7,10.9,4.7,16.7,6c-6.2,1.3-12.7,1.1-18.8-0.5
	c-6.3-1.7-12.2-4.8-17.2-9.1c-5-4.2-9.3-9.3-12.6-14.9c-1.7-2.8-3.1-5.7-4.4-8.6c-0.6-1.5-1.2-3-1.8-4.5c-0.3-0.8-0.5-1.5-0.8-2.3
	l-0.3-1.2l-0.3-1.3l-1.7-6.5l6.8,0.1c2.1,0,4.3,0.1,6.4,0.2c2.1,0.1,4.3,0.2,6.4,0.3c4.3,0.2,8.5,0.6,12.8,0.9s8.5,0.9,12.8,1.5
	S700.9,399.2,705.2,400.1z"/>
<path class="st1" d="M303.5,474.4c0.9,3.8,1.6,7.5,2.2,11.3c0.6,3.8,1.1,7.5,1.5,11.3c0.4,3.8,0.7,7.6,0.9,11.3
	c0.1,1.9,0.2,3.8,0.3,5.7s0.2,3.8,0.2,5.7l-6.4-5l0.7-0.2l0.8-0.3l1.7-0.6c1.1-0.4,2.3-0.9,3.4-1.4c2.3-1,4.5-2.1,6.6-3.3
	c4.3-2.3,8.3-5.2,11.9-8.4c3.6-3.3,6.7-7.1,9.1-11.4c2.5-4.6,4.4-9.5,5.6-14.6c0.7,2.7,1,5.5,1,8.3c0,2.9-0.4,5.7-1.1,8.5
	c-1.5,5.7-4.2,11-8,15.5c-3.7,4.5-8.2,8.3-13.3,11.3c-2.5,1.5-5,2.8-7.7,3.9c-1.3,0.6-2.7,1.1-4,1.6c-0.7,0.2-1.4,0.5-2.1,0.7
	l-1.1,0.3l-1.2,0.3l-6.5,1.7l0.2-6.7c0-1.9,0.1-3.8,0.2-5.7s0.2-3.8,0.3-5.7c0.2-3.8,0.6-7.5,0.9-11.3s0.9-7.5,1.5-11.3
	S302.5,478.2,303.5,474.4z"/>
<path class="st1" d="M283.7,282c-3.4,0.9-6.8,1.6-10.2,2.2c-3.4,0.6-6.8,1.1-10.2,1.5c-3.4,0.4-6.8,0.7-10.2,0.9
	c-1.7,0.1-3.4,0.2-5.1,0.3c-1.7,0.1-3.4,0.2-5.1,0.2l5-6.4l0.2,0.6l0.3,0.8l0.6,1.5c0.4,1,0.8,2,1.2,3c0.9,2,1.8,4,2.9,5.9
	c2.1,3.8,4.6,7.4,7.4,10.6c2.9,3.3,6.3,6.1,10.1,8.3c4.1,2.3,8.5,4.1,13.1,5.3c-5,1.3-10.2,1.4-15.2,0.2c-5.2-1.3-10-3.7-14.1-7.1
	c-4.1-3.4-7.6-7.4-10.3-12c-1.3-2.2-2.5-4.6-3.5-7c-0.5-1.2-1-2.4-1.4-3.7c-0.2-0.6-0.4-1.3-0.6-1.9l-0.3-1l-0.3-1.1l-1.7-6.6
	l6.7,0.2c1.7,0,3.4,0.1,5.1,0.2c1.7,0.1,3.4,0.2,5.1,0.3c3.4,0.2,6.8,0.6,10.2,0.9c3.4,0.4,6.8,0.9,10.2,1.5
	C277,280.4,280.3,281.1,283.7,282z"/>
<rect x="278.3" y="616.3" class="st0" width="60.9" height="13"/>
<path class="st1" d="M339.2,629.3c-4.4,0.7-9.1,1.3-14,1.8s-9.9,1.1-15,1.6c-5.1,0.5-10.4,0.9-15.8,1.1c-2.7,0.2-5.3,0.3-8,0.4
	s-5.4,0.2-8.1,0.2l-5.1,0.1l-0.1-5.2c0-2.2-0.1-4.3-0.1-6.5l0-6.5V611h5.3c5.1,0,10.2,0.1,15.2,0.2c5.1,0.1,10.2,0.3,15.2,0.6
	c5.1,0.3,10.1,0.6,15.2,1s10.2,0.9,15.2,1.6l2.1,0.3l-0.2,1.7c-0.3,2.4-0.6,4.7-1,6.9C339.9,625.4,339.5,627.4,339.2,629.3z
	 M339.2,629.3c-0.3-2.4-0.7-4.8-1-6.9c-0.4-2.1-0.7-4.1-1-6.1l2,2c-5.1,0.6-10.1,1.1-15.2,1.6c-5.1,0.5-10.2,0.8-15.2,1
	c-5.1,0.3-10.1,0.4-15.2,0.6c-5.1,0.1-10.1,0.2-15.2,0.2l5.3-5.3l0,6.5c0,2.2-0.1,4.3-0.1,6.5l-5.2-5.2c2.4,0,4.8,0.1,7.2,0.2
	c2.4,0.1,4.8,0.2,7.2,0.4c4.8,0.3,9.7,0.7,14.7,1.1c5,0.5,10.1,1,15.4,1.6L339.2,629.3z"/>
<rect x="403.2" y="235.8" class="st0" width="51.3" height="13"/>
<path class="st1" d="M454.5,248.7c-7.3,1.3-15.6,2.4-24.3,3.3c-4.4,0.5-8.8,0.9-13.4,1.1s-9.1,0.5-13.7,0.6l-5,0.1l-0.1-5.2
	c0-2.2-0.1-4.3-0.1-6.5l0-6.5l0-5.3h5.3c4.3,0,8.6,0.1,12.8,0.2c4.3,0.1,8.5,0.3,12.8,0.5c8.6,0.5,17.1,1.2,25.6,2.4l2.4,0.3
	l-0.2,1.9c-0.3,2.4-0.7,4.8-1.1,6.9L454.5,248.7z M454.5,248.7c-0.2-1.3-0.3-2.4-0.5-3.6l-0.6-3.3c-0.4-2.1-0.8-4.1-1.1-6l2.2,2.2
	c-8.6,1.1-17.1,1.9-25.6,2.4c-4.3,0.2-8.6,0.4-12.8,0.5c-4.3,0.1-8.5,0.2-12.8,0.2l5.3-5.3l-0.1,6.5c0,2.2-0.1,4.3-0.1,6.5l-5.1-5.1
	c4,0.1,8,0.3,12,0.6s8.1,0.7,12.3,1.1C435.9,246.3,444.7,247.4,454.5,248.7z"/>
<rect x="534.1" y="616.3" class="st0" width="67.1" height="13"/>
<path class="st1" d="M601.2,629.3c-4.9,0.7-10.1,1.3-15.5,1.9s-10.9,1.1-16.6,1.6c-2.8,0.2-5.7,0.5-8.6,0.6
	c-2.9,0.2-5.8,0.4-8.7,0.5c-5.8,0.3-11.7,0.5-17.7,0.6l-5,0.1l-0.1-5.2c-0.1-4.3-0.1-8.6-0.1-13l-0.1-5.3h5.4
	c5.6,0,11.2,0.1,16.8,0.2c5.6,0.1,11.2,0.3,16.8,0.6l8.4,0.5c2.8,0.2,5.6,0.4,8.4,0.6c5.6,0.4,11.2,1,16.8,1.6l2,0.2l-0.2,1.6
	c-0.2,2.4-0.6,4.7-0.9,6.9S601.5,627.4,601.2,629.3z M601.2,629.3c-0.3-2.4-0.6-4.7-0.9-6.9s-0.7-4.2-0.9-6.1l1.8,1.8
	c-5.6,0.6-11.2,1.2-16.8,1.6c-2.8,0.2-5.6,0.4-8.4,0.6l-8.4,0.5c-5.6,0.3-11.2,0.5-16.8,0.6c-5.6,0.1-11.2,0.2-16.8,0.2l5.3-5.3
	c0,4.3,0,8.6-0.1,13l-5.2-5.2c5.3,0.1,10.6,0.3,15.9,0.6c2.7,0.1,5.3,0.3,8,0.5s5.4,0.4,8.2,0.6c5.5,0.5,11.1,1,16.9,1.6
	C589,628,594.9,628.6,601.2,629.3z"/>
<g id="Layer_1-2_1_">
	<rect x="1472" y="527.2" class="st0" width="157.5" height="95.2"/>
	<path class="st1" d="M1629.9,622.8c-12.2,0.9-25,1.6-37.9,2.3c-12.9,0.7-26.2,1.1-39.5,1.5l-10,0.2l-10.1,0.2
		c-6.7,0.1-13.4,0.1-20.2,0c-13.5-0.2-27-0.9-40.3-1.6l-3.1-0.2l0.2-2.8c0.2-4,0.4-7.9,0.6-11.9c0.2-4,0.3-7.9,0.5-11.9
		c0.2-7.9,0.3-15.9,0.3-23.8c0-4-0.1-8-0.1-11.9L1470,551l-0.4-11.9l-0.5-11.9l-0.1-2.8l3-0.1c13.1-0.6,26.3-1.2,39.4-1.6
		s26.3-0.5,39.4-0.8l19.7-0.3c6.6-0.1,13.1-0.1,19.7-0.1c13.1,0,26.3,0.2,39.4,0.5l5.3,0.1l-0.1,5c-0.2,8.2-0.4,16.5-0.8,24.6
		l-0.5,12.2c-0.2,4.1-0.4,8.1-0.6,12.1c-0.4,8-0.9,15.9-1.4,23.7L1629.9,622.8z M1629.1,622l-1.5-24.7c-0.5-8.1-1-16-1.4-23.9
		l-0.6-11.7l-0.5-11.6c-0.4-7.7-0.5-15.3-0.8-23l5.2,5.2c-13.1,0.3-26.3,0.5-39.4,0.5c-6.6,0-13.1,0-19.7-0.1l-19.7-0.3
		c-13.1-0.3-26.3-0.5-39.4-0.8c-13.1-0.4-26.3-1-39.4-1.6l2.9-2.9l-0.5,11.9l-0.4,11.9l-0.3,11.9c-0.1,4-0.1,8-0.1,11.9
		c0,7.9,0.1,15.9,0.3,23.8c0.1,4,0.3,7.9,0.5,11.9c0.2,4,0.4,8,0.6,11.9l-3-2.9c13-0.7,25.8-1.4,38.5-1.6c6.4-0.1,12.8-0.1,19.2,0
		l9.6,0.2l9.7,0.2c12.9,0.3,26,0.9,39.3,1.5C1601.6,620.3,1615.1,621.1,1629.1,622z"/>
	<rect x="1629.5" y="527.2" class="st0" width="157.5" height="95.2"/>
	<path class="st1" d="M1787.4,622.8c-12.2,0.9-25,1.6-37.9,2.3c-12.9,0.7-26.2,1.1-39.5,1.5l-10,0.2l-10,0.2
		c-6.7,0.1-13.4,0.1-20.2,0c-13.5-0.2-27-0.9-40.3-1.6l-3.1-0.2l0.2-2.8c0.2-4,0.4-7.9,0.6-11.9c0.2-4,0.3-7.9,0.5-11.9
		c0.2-8,0.3-15.9,0.3-23.8c0-4-0.1-8-0.1-11.9l-0.3-11.9l-0.4-11.9l-0.5-11.9l-0.1-2.8l3-0.1c13.1-0.6,26.3-1.2,39.4-1.6
		s26.3-0.5,39.4-0.8l19.7-0.3c6.6-0.1,13.1-0.1,19.7-0.1c13.1,0,26.3,0.2,39.4,0.5l5.3,0.1l-0.1,5c-0.2,8.2-0.4,16.5-0.8,24.6
		l-0.5,12.2c-0.2,4.1-0.4,8.1-0.6,12.1c-0.4,8-0.9,15.9-1.4,23.7L1787.4,622.8z M1786.7,622l-1.5-24.7c-0.5-8.1-1-16-1.4-23.9
		l-0.6-11.7l-0.5-11.6c-0.4-7.7-0.5-15.3-0.8-23l5.1,5.2c-13.1,0.3-26.3,0.5-39.4,0.5c-6.6,0-13.1,0-19.7-0.1l-19.7-0.3
		c-13.1-0.3-26.3-0.5-39.4-0.8c-13.1-0.4-26.3-1-39.4-1.6l2.9-2.9l-0.5,11.9l-0.4,11.9l-0.3,11.9c-0.1,4-0.1,8-0.1,11.9
		c0,8,0.1,15.9,0.3,23.8c0.1,4,0.3,7.9,0.5,11.9c0.2,4,0.4,8,0.6,11.9l-3-2.9c13-0.7,25.7-1.4,38.5-1.6c6.4-0.1,12.8-0.1,19.2,0
		l9.6,0.2l9.7,0.2c12.9,0.3,26,0.9,39.3,1.5C1759.2,620.3,1772.7,621.1,1786.7,622z"/>
	<rect x="1550.7" y="432" class="st0" width="157.5" height="95.2"/>
	<path class="st1" d="M1708.7,527.6c-12.2,0.9-25,1.6-37.9,2.3c-12.9,0.7-26.2,1.1-39.5,1.5l-10,0.2l-10,0.2
		c-6.7,0.1-13.4,0.1-20.2,0c-13.5-0.2-27-0.9-40.3-1.6l-3.1-0.2l0.2-2.8c0.2-4,0.4-8,0.6-11.9c0.2-3.9,0.3-8,0.5-11.9
		c0.2-7.9,0.3-15.9,0.3-23.8c0-4,0-8-0.1-11.9l-0.3-11.9l-0.4-11.9l-0.5-11.9l-0.1-2.8l3-0.1c13.1-0.6,26.3-1.2,39.4-1.6
		c13.1-0.3,26.3-0.5,39.4-0.8l19.7-0.3c6.6-0.1,13.1-0.1,19.7-0.1c13.1,0,26.3,0.2,39.4,0.5l5.3,0.1l-0.1,5
		c-0.2,8.2-0.4,16.5-0.8,24.6l-0.5,12.2c-0.2,4.1-0.4,8.1-0.6,12.1c-0.4,8-0.9,15.9-1.4,23.7L1708.7,527.6z M1707.9,526.8l-1.5-24.7
		c-0.5-8.1-1-16-1.4-23.9l-0.6-11.7l-0.5-11.6c-0.4-7.7-0.5-15.3-0.8-23l5.2,5.2c-13.1,0.3-26.3,0.5-39.4,0.5
		c-6.6,0-13.1,0-19.7-0.1l-19.7-0.3c-13.1-0.3-26.3-0.5-39.4-0.8s-26.3-1-39.4-1.6l2.9-2.9l-0.5,11.9l-0.4,11.9l-0.3,11.9
		c-0.1,4-0.1,8-0.1,11.9c0,7.9,0.1,15.9,0.3,23.8c0.1,4,0.3,7.9,0.5,11.9c0.2,4,0.4,7.9,0.6,11.9l-2.9-2.9c13-0.7,25.7-1.4,38.5-1.6
		c6.4-0.1,12.8-0.1,19.2,0l9.6,0.2l9.7,0.2c12.9,0.4,26,0.9,39.3,1.5C1680.4,525.1,1693.9,525.9,1707.9,526.8L1707.9,526.8z"/>
	<rect x="1708.3" y="432" class="st0" width="157.5" height="95.2"/>
	<path class="st1" d="M1865.5,432.3c-14,0.9-27.5,1.6-40.8,2.3c-13.3,0.7-26.4,1.1-39.3,1.5l-9.7,0.2l-9.6,0.2
		c-6.4,0.1-12.8,0.1-19.2,0c-12.8-0.2-25.6-0.9-38.5-1.6l3-3c-0.2,4-0.4,7.9-0.6,11.9c-0.2,4-0.3,8-0.5,11.9
		c-0.2,8-0.3,15.9-0.3,23.8c0,4,0,7.9,0.1,11.9l0.3,11.9l0.4,11.9l0.5,11.9l-2.9-2.9c13.1-0.6,26.3-1.2,39.4-1.6
		c13.1-0.4,26.3-0.5,39.4-0.8l19.7-0.3c6.6-0.1,13.1-0.1,19.7-0.1c13.1,0,26.3,0.2,39.4,0.5l-5.2,5.2c0.2-7.6,0.4-15.3,0.8-23
		l0.5-11.6l0.7-11.7c0.4-7.8,0.9-15.8,1.4-23.9L1865.5,432.3z M1866.2,431.6l1.5,22.9c0.5,7.8,1,15.7,1.4,23.7c0.2,4,0.4,8,0.6,12.1
		l0.5,12.2c0.4,8.2,0.5,16.4,0.8,24.6l0.1,5l-5.3,0.1c-13.1,0.3-26.3,0.5-39.4,0.5c-6.6,0-13.1,0-19.7-0.1l-19.7-0.3
		c-13.1-0.3-26.3-0.5-39.4-0.8c-13.1-0.4-26.3-1-39.4-1.6l-3-0.1l0.1-2.8l0.5-11.9l0.4-11.9l0.3-11.9c0.1-4,0.1-8,0.1-11.9
		c0-8-0.1-15.9-0.3-23.8c-0.1-4-0.3-7.9-0.5-11.9c-0.2-4-0.4-7.9-0.6-11.9l-0.2-2.8l3.1-0.2c13.3-0.7,26.8-1.4,40.3-1.6
		c6.7-0.1,13.5-0.1,20.2,0l10.1,0.2l10,0.2c13.3,0.4,26.5,0.9,39.5,1.5C1841.2,429.9,1854,430.7,1866.2,431.6L1866.2,431.6z"/>
	<rect x="1865.8" y="432" class="st0" width="157.5" height="95.2"/>
	<path class="st1" d="M2023,432.3c-14,0.9-27.5,1.6-40.8,2.3c-13.3,0.7-26.4,1.1-39.3,1.5l-9.7,0.2l-9.6,0.2
		c-6.4,0.1-12.8,0.1-19.2,0c-12.8-0.2-25.6-0.9-38.5-1.6l2.9-3c-0.2,4-0.4,7.9-0.6,11.9c-0.2,4-0.3,7.9-0.5,11.9
		c-0.2,8-0.3,15.9-0.3,23.8c0,4,0.1,8,0.1,11.9l0.3,11.9l0.4,11.9l0.5,11.9l-2.9-2.9c13.1-0.6,26.3-1.2,39.4-1.6
		c13.1-0.4,26.3-0.5,39.4-0.8l19.7-0.3c6.6-0.1,13.1-0.1,19.7-0.1c13.1,0,26.3,0.2,39.4,0.5l-5.1,5.2c0.2-7.6,0.4-15.3,0.8-23
		l0.5-11.6l0.6-11.7c0.4-7.8,0.9-15.8,1.4-23.9L2023,432.3z M2023.8,431.6l1.5,22.9c0.5,7.8,1,15.7,1.4,23.7c0.2,4,0.4,8,0.6,12.1
		l0.5,12.2c0.4,8.2,0.5,16.4,0.8,24.6l0.1,5l-5.3,0.1c-13.1,0.3-26.2,0.5-39.4,0.5c-6.6,0-13.1,0-19.7-0.1l-19.7-0.3
		c-13.1-0.3-26.3-0.5-39.4-0.8c-13.1-0.4-26.3-1-39.4-1.6l-3-0.1l0.1-2.8l0.5-11.9l0.4-11.9l0.3-11.9c0.1-4,0.1-7.9,0.1-11.9
		c0-8-0.1-15.9-0.3-23.8c-0.1-4-0.3-8-0.5-11.9c-0.2-3.9-0.4-8-0.6-11.9l-0.2-2.8l3.1-0.2c13.3-0.7,26.8-1.4,40.3-1.6
		c6.7-0.1,13.5-0.1,20.2,0l10,0.2l10,0.2c13.3,0.4,26.5,0.9,39.5,1.5C1998.8,429.9,2011.5,430.7,2023.8,431.6z"/>
	<rect x="1787.1" y="527.2" class="st0" width="157.5" height="95.2"/>
	<path class="st1" d="M1944.2,527.6c-14,0.9-27.5,1.6-40.8,2.3c-13.3,0.7-26.4,1.1-39.3,1.5l-9.7,0.2l-9.6,0.2
		c-6.4,0.1-12.8,0.1-19.2,0c-12.8-0.2-25.5-0.9-38.5-1.6l2.9-3c-0.2,4-0.4,7.9-0.6,11.9c-0.2,4-0.3,7.9-0.5,11.9
		c-0.2,7.9-0.3,15.9-0.3,23.8c0,4,0.1,8,0.1,11.9l0.3,11.9l0.4,11.9l0.5,11.9l-2.9-2.9c13.1-0.6,26.3-1.2,39.4-1.6
		c13.1-0.4,26.3-0.5,39.4-0.8l19.7-0.3c6.6-0.1,13.1-0.1,19.7-0.1c13.1,0,26.3,0.2,39.4,0.5l-5.1,5.2c0.2-7.6,0.4-15.3,0.8-23
		l0.5-11.6l0.6-11.7c0.4-7.8,0.9-15.8,1.4-23.9L1944.2,527.6z M1945,526.8l1.5,22.9c0.5,7.8,1,15.7,1.4,23.7c0.2,4,0.5,8,0.6,12.1
		l0.5,12.2c0.4,8.2,0.5,16.4,0.8,24.6l0.1,5l-5.3,0.1c-13.1,0.3-26.3,0.5-39.4,0.5c-6.6,0-13.1,0-19.7-0.1l-19.7-0.3
		c-13.1-0.3-26.3-0.5-39.4-0.8s-26.3-1-39.4-1.6l-3-0.1l0.1-2.8l0.5-11.9l0.4-11.9l0.3-11.9c0.1-4,0.1-8,0.1-11.9
		c0-7.9-0.1-15.9-0.3-23.8c-0.1-4-0.3-7.9-0.5-11.9c-0.2-4-0.4-7.9-0.6-11.9l-0.2-2.8l3.1-0.2c13.3-0.7,26.8-1.4,40.3-1.6
		c6.7-0.1,13.5-0.1,20.2,0l10,0.2l10,0.2c13.3,0.4,26.5,0.9,39.5,1.5C1920,525.1,1932.7,525.9,1945,526.8L1945,526.8z"/>
	<rect x="1629.5" y="336.8" class="st0" width="157.5" height="95.2"/>
	<path class="st1" d="M1787.4,432.3c-12.2,0.9-25,1.6-37.9,2.3s-26.2,1.1-39.5,1.5l-10,0.2l-10,0.2c-6.7,0.1-13.4,0.1-20.2,0
		c-13.5-0.2-27-0.9-40.3-1.6l-3.1-0.2l0.2-2.8c0.2-4,0.4-7.9,0.6-11.9c0.2-4,0.3-7.9,0.5-11.9c0.2-8,0.3-15.9,0.3-23.8
		c0-4-0.1-8-0.1-11.9l-0.3-11.9l-0.4-11.9l-0.5-11.9l-0.1-2.8l3-0.1c13.1-0.6,26.3-1.2,39.4-1.6s26.3-0.5,39.4-0.8l19.7-0.3
		c6.6-0.1,13.1-0.1,19.7-0.1c13.1,0,26.3,0.2,39.4,0.5l5.3,0.1l-0.1,5c-0.2,8.2-0.4,16.5-0.8,24.6l-0.5,12.2
		c-0.2,4.1-0.4,8.1-0.6,12.1c-0.4,8-0.9,15.9-1.4,23.7L1787.4,432.3z M1786.7,431.6l-1.5-24.7c-0.5-8.1-1-16-1.4-23.9l-0.6-11.7
		l-0.5-11.6c-0.4-7.7-0.5-15.3-0.8-23l5.1,5.1c-13.1,0.3-26.3,0.5-39.4,0.5c-6.6,0-13.1,0-19.7-0.1l-19.7-0.3
		c-13.1-0.3-26.3-0.5-39.4-0.8s-26.3-1-39.4-1.6l2.9-2.9l-0.5,11.9l-0.4,11.9l-0.3,11.9c-0.1,4-0.1,8-0.1,11.9
		c0,8,0.1,15.9,0.3,23.8c0.1,4,0.3,7.9,0.5,11.9c0.2,4,0.4,8,0.6,11.9l-3-3c13-0.7,25.7-1.4,38.5-1.6c6.4-0.1,12.8-0.1,19.2,0
		l9.6,0.2l9.7,0.2c12.9,0.4,26,0.9,39.3,1.5C1759.2,429.9,1772.7,430.7,1786.7,431.6z"/>
	<rect x="1708.3" y="241.5" class="st0" width="157.5" height="95.2"/>
	<path class="st1" d="M1865.5,241.9c-14,0.9-27.5,1.6-40.8,2.3c-13.3,0.7-26.4,1.1-39.3,1.5l-9.7,0.2l-9.6,0.2
		c-6.4,0.1-12.8,0.1-19.2,0c-12.8-0.2-25.6-0.9-38.5-1.6l3-3c-0.2,4-0.4,7.9-0.6,11.9c-0.2,4-0.3,8-0.5,11.9
		c-0.2,8-0.3,15.9-0.3,23.8c0,4,0,7.9,0.1,11.9l0.3,11.9l0.4,11.9l0.5,11.9l-2.9-2.9c13.1-0.6,26.3-1.2,39.4-1.6
		c13.1-0.3,26.3-0.5,39.4-0.8l19.7-0.3c6.6-0.1,13.1-0.1,19.7-0.1c13.1,0,26.3,0.2,39.4,0.5l-5.2,5.2c0.2-7.6,0.4-15.3,0.8-23
		l0.5-11.6l0.6-11.7c0.4-7.8,0.9-15.8,1.4-23.9L1865.5,241.9z M1866.2,241.2l1.5,22.9c0.5,7.8,1,15.7,1.4,23.7c0.2,4,0.4,8,0.6,12.1
		l0.5,12.2c0.4,8.2,0.5,16.4,0.8,24.6l0.1,5l-5.3,0.1c-13.1,0.3-26.3,0.5-39.4,0.5c-6.6,0-13.1,0-19.7-0.1l-19.7-0.3
		c-13.1-0.3-26.3-0.5-39.4-0.8s-26.3-1-39.4-1.6l-3-0.1l0.1-2.8l0.5-11.9l0.4-11.9l0.3-11.9c0.1-4,0.1-8,0.1-11.9
		c0-8-0.1-15.9-0.3-23.8c-0.1-4-0.3-7.9-0.5-11.9s-0.4-7.9-0.6-11.9l-0.2-2.8l3.1-0.2c13.3-0.7,26.8-1.4,40.3-1.6
		c6.7-0.1,13.5-0.1,20.2,0l10.1,0.2l10,0.2c13.3,0.3,26.5,0.9,39.5,1.5C1841.2,239.5,1854,240.2,1866.2,241.2L1866.2,241.2z"/>
	<rect x="1787.1" y="336.8" class="st0" width="157.5" height="95.2"/>
	<path class="st1" d="M1944.2,337.1c-14,0.9-27.5,1.6-40.8,2.3s-26.4,1.1-39.3,1.5l-9.7,0.2l-9.6,0.2c-6.4,0.1-12.8,0.1-19.2,0
		c-12.8-0.2-25.5-0.9-38.5-1.6l2.9-2.9c-0.2,4-0.4,7.9-0.6,11.9c-0.2,4-0.3,7.9-0.5,11.9c-0.2,7.9-0.3,15.9-0.3,23.8
		c0,4,0.1,8,0.1,11.9l0.3,11.9l0.4,11.9l0.5,11.9l-2.9-2.9c13.1-0.6,26.3-1.2,39.4-1.6c13.1-0.3,26.3-0.5,39.4-0.8l19.7-0.3
		c6.6-0.1,13.1-0.1,19.7-0.1c13.1,0,26.3,0.2,39.4,0.5l-5.1,5.2c0.2-7.6,0.4-15.3,0.8-23l0.5-11.6l0.6-11.7
		c0.4-7.8,0.9-15.8,1.4-23.9L1944.2,337.1z M1945,336.4l1.5,22.9c0.5,7.8,1,15.7,1.4,23.7c0.2,4,0.5,8,0.6,12.1l0.5,12.2
		c0.4,8.2,0.5,16.4,0.8,24.6l0.1,5l-5.3,0.1c-13.1,0.3-26.3,0.5-39.4,0.5c-6.6,0-13.1,0-19.7-0.1l-19.7-0.3
		c-13.1-0.3-26.3-0.5-39.4-0.8s-26.3-1-39.4-1.6l-3-0.1l0.1-2.8l0.5-11.9l0.4-11.9l0.3-11.9c0.1-4,0.1-8,0.1-11.9
		c0-7.9-0.1-15.9-0.3-23.8c-0.1-4-0.3-7.9-0.5-11.9c-0.2-4-0.4-7.9-0.6-11.9l-0.2-2.8l3.1-0.2c13.3-0.7,26.8-1.4,40.3-1.6
		c6.7-0.1,13.5-0.1,20.2,0l10,0.2l10,0.2c13.3,0.4,26.5,0.9,39.5,1.5C1920,334.7,1932.7,335.5,1945,336.4L1945,336.4z"/>
	<rect x="1944.6" y="527.2" class="st0" width="157.5" height="95.2"/>
	<path class="st1" d="M2101.8,527.6c-14,0.9-27.5,1.6-40.8,2.3c-13.3,0.7-26.4,1.1-39.3,1.5l-9.7,0.2l-9.6,0.2
		c-6.4,0.1-12.8,0.1-19.2,0c-12.8-0.2-25.6-0.9-38.5-1.6l3-3c-0.2,4-0.4,7.9-0.6,11.9c-0.2,4-0.3,7.9-0.5,11.9
		c-0.2,8-0.3,15.9-0.3,23.8c0,4,0.1,8,0.1,11.9l0.3,11.9l0.4,11.9l0.5,11.9l-2.9-2.9c13.1-0.6,26.3-1.2,39.4-1.6
		c13.1-0.4,26.3-0.5,39.4-0.8l19.7-0.3c6.6-0.1,13.1-0.1,19.7-0.1c13.1,0,26.3,0.2,39.4,0.5l-5.2,5.1c0.2-7.6,0.4-15.3,0.8-23
		l0.5-11.6l0.6-11.7c0.4-7.8,0.9-15.8,1.4-23.9L2101.8,527.6z M2102.5,526.8l1.5,22.9c0.5,7.8,1,15.7,1.4,23.7c0.2,4,0.4,8,0.6,12.1
		l0.5,12.2c0.4,8.2,0.5,16.4,0.8,24.6l0.1,5l-5.3,0.1c-13.1,0.3-26.3,0.5-39.4,0.5c-6.6,0-13.1,0-19.7-0.1l-19.7-0.3
		c-13.1-0.3-26.3-0.5-39.4-0.8s-26.3-1-39.4-1.6l-3-0.1l0.1-2.8l0.5-11.9l0.4-11.9l0.3-11.9c0.1-4,0.1-8,0.1-11.9
		c0-8-0.1-15.9-0.3-23.8c-0.1-4-0.3-7.9-0.5-11.9c-0.2-4-0.4-8-0.6-11.9l-0.2-2.8l3.1-0.2c13.3-0.7,26.8-1.4,40.3-1.6
		c6.7-0.1,13.5-0.1,20.2,0l10,0.2l10,0.2c13.3,0.4,26.5,0.9,39.5,1.5C2077.5,525.1,2090.3,525.9,2102.5,526.8L2102.5,526.8z"/>
</g>
<g id="Layer_1-2_2_">
	<rect x="2231.3" y="213.1" class="st0" width="369.8" height="438"/>
	<path class="st1" d="M2600.7,213.5c-31.5,0.7-62.6,1.3-93.6,1.8l-46.3,0.8l-46.1,0.7c-30.7,0.3-61.3,0.7-91.8,0.9l-45.8,0.2h-22.9
		l-22.9-0.1l4.7-4.7c-0.1,18.3-0.2,36.5-0.5,54.8c-0.3,18.3-0.5,36.5-0.8,54.7l-0.9,54.8l-0.4,27.4l-0.2,27.4
		c-0.2,18.2-0.2,36.5-0.3,54.7l0.2,54.8c0.2,36.5,0.6,73,1.2,109.5l-2.9-3.1c30.8-0.4,61.6-0.9,92.4-1.3l23.1-0.3l23.1-0.2l46.2-0.3
		l92.4-0.5l46.2-0.2l46.2-0.1l-5.7,5.7c0-36.2,0.2-72.3,0.5-108.5l0.5-54.4l0.3-27.2l0.4-27.3l0.8-54.7l0.9-54.9L2600.7,213.5z
		 M2601.4,212.8l2,108.3l0.9,54.6l0.8,54.8l0.4,27.5l0.3,27.5l0.5,55.1c0.3,36.8,0.5,73.7,0.5,110.5v5.7h-5.7l-46.2-0.1l-46.2-0.2
		l-92.4-0.5l-46.2-0.3l-23.1-0.2l-23.1-0.3c-30.8-0.3-61.6-0.8-92.4-1.3h-2.9v-2.9c0.5-36.5,0.9-73,1.2-109.5l0.1-54.8
		c0-18.2-0.1-36.5-0.2-54.7l-0.3-27.4l-0.4-27.4l-0.9-54.8c-0.3-18.3-0.6-36.5-0.8-54.7c-0.3-18.2-0.4-36.5-0.5-54.8v-4.7h4.7
		l23.3-0.1h23.3l46.6,0.2c31.1,0.1,62.1,0.5,93.1,0.9l46.3,0.7l46.1,0.8C2540.7,211.5,2571.2,212,2601.4,212.8z"/>
	<rect x="2267.3" y="255.8" class="st0" width="297.7" height="352.6"/>
	<path class="st1" d="M2564.6,256.2c-25.5,0.7-50.6,1.3-75.5,1.8l-37.3,0.8l-37.1,0.7c-24.7,0.3-49.3,0.7-73.8,0.9l-36.8,0.2h-18.4
		l-18.4-0.1l4.7-4.7c-0.1,14.7-0.2,29.4-0.5,44.1s-0.5,29.4-0.8,44.1l-0.9,44.1l-0.4,22l-0.3,22c-0.2,14.7-0.2,29.4-0.2,44.1
		l0.1,44.1c0.2,29.4,0.6,58.8,1.2,88.1l-2.9-2.9c24.8-0.4,49.6-0.9,74.4-1.3l18.6-0.3l18.6-0.2l37.2-0.3l74.4-0.5l37.2-0.2l37.2-0.1
		l-5.6,5.7c0-29,0.2-58.1,0.5-87.1l0.5-43.7l0.3-21.9l0.4-21.9l0.8-44l0.9-44.2L2564.6,256.2z M2565.3,255.5l1,43.3l0.9,43.6
		l0.9,43.9l0.8,44.2l0.4,22.1l0.3,22.2l0.5,44.5c0.3,29.7,0.5,59.4,0.5,89.1v5.7h-5.7l-37.2-0.1l-37.2-0.2l-74.4-0.5l-37.2-0.3
		l-18.6-0.2l-18.6-0.3c-24.8-0.3-49.6-0.9-74.4-1.3l-3-0.1l0.1-2.9c0.5-29.4,1-58.8,1.2-88.1l0.2-44.1c0-14.7-0.1-29.4-0.3-44.1
		l-0.2-22l-0.4-22L2264,344c-0.3-14.7-0.6-29.4-0.8-44.1c-0.3-14.7-0.4-29.4-0.5-44.1v-4.7h4.7l18.8-0.1h18.8l37.6,0.2
		c25.1,0.1,50.1,0.5,75.1,0.9l37.3,0.7l37.1,0.8C2516.7,254.2,2541.2,254.7,2565.3,255.5z"/>
	<polyline class="st0" points="2285.5,493.3 2358.6,409.6 2403.6,467.3 2472.6,376.2 2546.8,480.9 	"/>
	<path class="st1" d="M2285.1,493c5.3-7.7,10.8-15.1,16.5-22.5c5.6-7.4,11.4-14.6,17.3-21.8c5.9-7.2,11.8-14.3,17.9-21.3
		c6-7,12.2-13.9,18.7-20.6l3.7-3.8l2.8,4c3.5,5,7,10,10.4,15.1l5.2,7.6l5.2,7.5c3.5,5,7.1,9.9,10.8,14.7c3.7,4.9,7.5,9.6,11.3,14.4
		h-2.7c5.6-7.7,11-15.6,16.3-23.5c5.3-7.9,10.6-15.8,16.1-23.6c5.5-7.8,11.1-15.5,16.6-23.2c5.6-7.7,11.2-15.4,16.8-23.1l4.5-6.2
		l4.6,6.3c6.3,8.7,12.4,17.4,18.4,26.2c6,8.8,11.9,17.8,17.8,26.7l8.7,13.5l8.5,13.6c5.6,9.1,11.2,18.3,16.5,27.6l-0.9,0.6
		c-7.1-8.1-13.9-16.4-20.6-24.7l-10-12.6l-9.8-12.6c-6.5-8.5-12.9-17-19.3-25.6c-6.3-8.6-12.5-17.3-18.6-26.1l9.1,0.2
		c-5.9,7.5-11.8,15-17.7,22.5c-5.9,7.4-11.8,14.9-17.9,22.3c-6,7.4-12.3,14.6-18.4,21.9c-6.1,7.3-12.3,14.6-18.2,22.1l-1.4,1.8
		l-1.3-1.8c-3.7-4.9-7.4-9.7-11.2-14.5s-7.7-9.5-11.6-14.1l-6-6.9l-6.1-6.9c-4-4.6-8.1-9.2-12.1-13.8l6.5,0.2
		c-5.7,7.3-11.7,14.4-17.9,21.3c-6.2,6.9-12.4,13.8-18.7,20.6c-6.3,6.8-12.7,13.5-19.3,20.1s-13.2,13.1-20.1,19.4L2285.1,493z"/>
	<circle class="st0" cx="2331.2" cy="350.4" r="25.6"/>
	<path class="st1" d="M2357.4,350.4c0,3.5-0.4,6.9-1.2,10.3l-0.7,2.6c-0.3,0.9-0.6,1.7-0.9,2.6s-0.8,1.7-1.2,2.5s-1,1.6-1.5,2.4
		c-2.3,3.2-5.3,5.8-8.9,7.5c-3.6,1.7-7.6,2.4-11.6,2c-3.9-0.4-7.6-1.6-10.9-3.7c-6.2-3.9-11.2-9.4-14.4-15.9
		c-1.6-3.3-2.7-6.8-3.2-10.5c-0.5-3.8-0.2-7.7,0.9-11.4c1.2-3.8,3.2-7.3,5.9-10.2c2.7-3,6-5.4,9.7-7.1c7.6-3.4,16.3-3.3,23.7,0.4
		c3.6,1.8,6.6,4.5,8.8,7.8c2.1,3.1,3.6,6.6,4.4,10.3C2357,343.4,2357.4,346.9,2357.4,350.4z M2356.3,350.4c0-3.3-1-6.5-2.7-9.3
		c-1.7-2.6-4-4.8-6.7-6.4c-2.4-1.4-5.1-2.5-7.8-3.3c-2.5-0.8-5.2-1.1-7.8-1c-2.6,0.1-5.2,0.6-7.7,1.4c-2.5,0.9-4.9,2.2-6.9,4
		c-2.1,1.8-3.8,4-5.2,6.4c-1.5,2.5-2.5,5.3-3,8.2c-0.5,3.1-0.3,6.2,0.7,9.1c1,3,2.8,5.7,5.1,7.8c2.3,2.1,5.2,3.5,8.2,4.1
		c2.9,0.6,5.8,0.6,8.7,0.2c2.7-0.3,5.4-1,8-1.9c2.7-0.9,5.3-2.1,7.7-3.6l1.9-1.3c0.6-0.5,1.2-1,1.8-1.5s1.1-1.1,1.6-1.7
		c0.5-0.6,1-1.3,1.4-1.9C2355.4,356.9,2356.3,353.7,2356.3,350.4L2356.3,350.4z"/>
</g>
<rect x="905.8" y="436.6" class="st0" width="369.8" height="219"/>
<path class="st1" d="M1275.7,445.3l-0.2-8.7l-0.1,8.7C1275.5,445.3,1275.6,445.3,1275.7,445.3z"/>
<polygon class="st1" points="1275.6,652.1 1272.2,652.1 1272.1,655.6 "/>
<polygon class="st1" points="911.1,655.6 911.1,650.3 905.8,650.3 "/>
<polygon class="st1" points="910.5,441.2 910.5,441.2 910.5,441.2 "/>
<path class="st1" d="M1278.3,600.2c-0.2-18.4-0.6-36.7-0.9-55l-1.7-100c-0.1,0-0.2,0-0.3,0l-1.7,101.6c-0.3,18.3-0.7,36.4-0.9,54.5
	l-0.6,50.7l3.4,0l-3.5,3.5l0-3.5l-89-0.8l-23.1-0.2l-23.1-0.1l-46.2-0.2l-46.2-0.2l-46.2-0.1l-87.1-0.1l0,5.3l-5.3-5.3l5.3,0
	l-0.2-104.2l-0.1-27.4l-0.1-27.4l-0.3-49.7c-3.1,0-6.2,0.1-9.3,0.1l-0.3,49.5l-0.1,27.4l-0.1,27.4l-0.2,109.5v5.3h5.3l92.4-0.2
	l46.2-0.1l46.2-0.2l46.2-0.2l23.1-0.1l23.1-0.2l92.4-0.8h3.5l0-3.4L1278.3,600.2z"/>
<polyline class="st0" points="857.1,443.7 1089,211.7 1324.3,447 "/>
<path class="st1" d="M857.1,443.7c18.6-20.1,37.4-40,56.2-59.8l28.4-29.6c9.4-9.9,19-19.6,28.5-29.5c19-19.7,38.2-39.1,57.3-58.6
	s38.5-38.9,57.8-58.2l3.7-3.7l3.7,3.7l29.4,29.5l29.3,29.5l29.2,29.7l14.6,14.8l14.5,14.9c9.7,10,19.4,19.9,28.9,29.9l28.8,30
	c19.1,20.1,38.2,40.2,57,60.7c-20.4-18.8-40.5-37.9-60.7-57l-30-28.8c-10-9.6-19.9-19.3-29.9-28.9l-14.9-14.5l-14.8-14.6l-29.7-29.2
	l-29.6-29.3l-29.4-29.4h7.5c-19.4,19.3-38.8,38.5-58.2,57.7c-19.5,19.1-38.9,38.4-58.6,57.4c-9.8,9.5-19.6,19.1-29.5,28.5
	l-29.6,28.4C897.1,406.3,877.3,425.2,857.1,443.7z"/>
<polyline class="st0" points="1200.6,292.7 1200.6,246.1 1257.2,246.1 1257.2,345.7 "/>
<path class="st1" d="M1200.6,292.7c-0.5-3.9-1-7.8-1.4-11.6c-0.4-3.9-0.7-7.8-1.1-11.6c-0.3-3.9-0.6-7.7-0.9-11.6
	c-0.3-3.9-0.5-7.8-0.7-11.6l-0.2-3.7l4.1-0.2c4.7-0.2,9.4-0.5,14.1-0.6l7.1-0.2l7.1-0.2c4.7-0.1,9.4-0.2,14.1-0.2l14.1-0.1h5.3v5.3
	c0,8.3-0.1,16.6-0.3,24.9s-0.5,16.6-0.9,24.9c-0.4,8.3-0.9,16.6-1.6,24.9c-0.7,8.3-1.4,16.6-2.6,24.9c-1.1-8.3-1.9-16.6-2.6-24.9
	s-1.1-16.6-1.6-24.9c-0.4-8.3-0.7-16.6-0.9-24.9c-0.2-8.3-0.3-16.6-0.3-24.9l5.3,5.3l-14.1-0.1c-4.7-0.1-9.4-0.1-14.1-0.2l-7.1-0.2
	l-7.1-0.2c-4.7-0.2-9.4-0.4-14.1-0.6l3.9-3.9c-0.2,3.9-0.4,7.8-0.7,11.6c-0.2,3.9-0.5,7.7-0.9,11.6s-0.7,7.8-1.1,11.6
	C1201.5,285,1201.2,288.8,1200.6,292.7z"/>
</svg>
