<?xml version="1.0" encoding="utf-8"?>
<!-- Generator: Adobe Illustrator 22.0.1, SVG Export Plug-In . SVG Version: 6.00 Build 0)  -->
<svg version="1.1" id="Layer_1" xmlns="http://www.w3.org/2000/svg" xmlns:xlink="http://www.w3.org/1999/xlink" x="0px" y="0px"
	 viewBox="0 0 684.3 341.4" style="enable-background:new 0 0 684.3 341.4;" xml:space="preserve">
<style type="text/css">
	.st0{display:none;}
	.st1{display:inline;fill:none;stroke:#000000;stroke-width:5;stroke-opacity:5.000000e-02;}
	.st2{display:inline;fill:none;stroke:#000000;stroke-width:3;stroke-opacity:0.1;}
	.st3{display:inline;fill:none;stroke:#000000;stroke-opacity:0.15;}
	.st4{display:inline;fill:#FFFFFF;fill-opacity:0.85;}
	.st5{fill:#FFFFFF;}
	.st6{fill:#E8ECEF;}
	.st7{opacity:0.3;fill:#E8ECEF;}
	.st8{opacity:0.29;fill:none;stroke:#BC1330;stroke-width:8.274;stroke-miterlimit:10;}
	.st9{opacity:0.75;fill:#BC1330;}
	.st10{fill:#BC2032;}
	.st11{fill:#E5E5E5;}
	.st12{fill:#ECEBF0;}
</style>
<image style="overflow:visible;" width="1920" height="1080" xlink:href="CABF5CEB.jpg"  transform="matrix(1 0 0 1 1923.0795 -228.3186)">
</image>
<desc>Created with Highcharts 4.2.7</desc>
<g transform="translate(0,0)" class="st0">
	<path class="st1" d="M-281.6,10.5h10c3,0,3,0,3,3v10c0,3,0,3-3,3h-10c-3,0-3,0-3-3v-10C-284.6,10.5-284.6,10.5-281.6,10.5"/>
	<path class="st2" d="M-281.6,10.5h10c3,0,3,0,3,3v10c0,3,0,3-3,3h-10c-3,0-3,0-3-3v-10C-284.6,10.5-284.6,10.5-281.6,10.5"/>
	<path class="st3" d="M-281.6,10.5h10c3,0,3,0,3,3v10c0,3,0,3-3,3h-10c-3,0-3,0-3-3v-10C-284.6,10.5-284.6,10.5-281.6,10.5"/>
	<path class="st4" d="M-282.6,9.5h10c3,0,3,0,3,3v10c0,3,0,3-3,3h-10c-3,0-3,0-3-3v-10C-285.6,9.5-285.6,9.5-282.6,9.5"/>
</g>
<rect x="-787.9" y="-2398.5" class="st5" width="3378.4" height="2196.6"/>
<g>
	<defs>
		<circle id="SVGID_1_" cx="-269.6" cy="-1636.2" r="394.4"/>
	</defs>
	<clipPath id="SVGID_2_">
		<use xlink:href="#SVGID_1_"  style="overflow:visible;"/>
	</clipPath>
	<g transform="matrix(1 0 0 1 0 -1.220703e-04)" style="clip-path:url(#SVGID_2_);">
		
			<image style="overflow:visible;" width="3657" height="2438" xlink:href="../../../../Downloads/beautiful-blazer-blonde-hair-975657.jpg"  transform="matrix(0.4412 0 0 0.4412 -1068.4867 -2038.014)">
		</image>
	</g>
</g>
<rect x="-628.8" y="-714.8" class="st6" width="301.3" height="88.9"/>
<rect x="268.2" y="-2175.9" class="st7" width="2189.9" height="1974"/>
<text transform="matrix(1 0 0 1 -652.9504 -2201.291)" style="fill:#BC1330; font-family:'Gadugi-Bold'; font-size:78.2401px;">Jessica Gold</text>
<line class="st8" x1="-661.2" y1="-2175.9" x2="2458.1" y2="-2175.9"/>
<rect x="-29.6" y="-2127.1" class="st9" width="2620.1" height="570.9"/>
<g>
	<text transform="matrix(1 0 0 1 375.7888 -1812.7345)"><tspan x="0" y="0" class="st5" style="font-family:'Gadugi-Bold'; font-size:78.2401px;">I believe that the TTC needs to improve in some areas.</tspan><tspan x="0" y="93.9" class="st5" style="font-family:'Gadugi-Bold'; font-size:78.2401px;">Waiting a long time for buses and realize that they </tspan><tspan x="0" y="187.8" class="st5" style="font-family:'Gadugi-Bold'; font-size:78.2401px;">are crowded is a frustrating morning experience...  </tspan><tspan x="1879" y="187.8" class="st5" style="font-family:'Gabriola'; font-size:78.2401px;">”</tspan></text>
</g>
<g>
	<g>
		<path class="st5" d="M430.7-2058.8c-5.8,4.6-10.9,9.5-15.5,14.9c-4.6,5.3-8.4,10.8-11.6,16.4c-3.2,5.6-5.6,11.3-7.3,17.1
			c-1.7,5.8-2.5,11.3-2.5,16.7c0,4.8,0.6,8.7,1.9,11.8c1.2,3.1,2.9,5.7,4.8,7.8c2,2.2,4,4.1,6.2,5.8c2.2,1.7,4.2,3.5,6.2,5.6
			c2,2,3.6,4.4,4.8,7.2c1.3,2.8,1.9,6.3,1.9,10.5c0,3.2-0.7,6.2-2,9.2c-1.3,3-3.1,5.6-5.4,7.9s-5,4.1-8.2,5.6
			c-3.2,1.4-6.6,2.1-10.3,2.1c-5.3,0-10-1.1-14-3.2c-4-2.1-7.4-5.1-10.1-8.9c-2.7-3.8-4.8-8.3-6.1-13.6c-1.4-5.2-2-10.9-2-17
			c0-8.3,1.2-17,3.7-26.3c2.4-9.3,6.2-18.5,11.2-27.8c5-9.3,11.4-18.3,19.1-27c7.7-8.8,16.9-16.8,27.4-24.1L430.7-2058.8z
			 M515.5-2058.8c-5.8,4.6-10.9,9.5-15.5,14.9c-4.6,5.3-8.4,10.8-11.6,16.4c-3.2,5.6-5.6,11.3-7.3,17.1c-1.7,5.8-2.5,11.3-2.5,16.7
			c0,4.8,0.6,8.7,1.9,11.8c1.3,3.1,2.9,5.7,4.8,7.8c2,2.2,4,4.1,6.2,5.8c2.2,1.7,4.3,3.5,6.2,5.6c2,2,3.6,4.4,4.8,7.2
			c1.2,2.8,1.9,6.3,1.9,10.5c0,3.2-0.7,6.2-2,9.2c-1.3,3-3.1,5.6-5.4,7.9s-5,4.1-8.2,5.6c-3.2,1.4-6.6,2.1-10.3,2.1
			c-5.3,0-10-1.1-14-3.2c-4-2.1-7.4-5.1-10.1-8.9c-2.7-3.8-4.8-8.3-6.1-13.6c-1.4-5.2-2-10.9-2-17c0-8.3,1.2-17,3.7-26.3
			c2.4-9.3,6.2-18.5,11.2-27.8c5-9.3,11.4-18.3,19.1-27c7.7-8.8,16.9-16.8,27.4-24.1L515.5-2058.8z"/>
	</g>
</g>
<rect x="348.2" y="-1495.6" style="fill:none;" width="2005.1" height="532.3"/>
<text transform="matrix(1 0 0 1 348.2097 -1454.7321)"><tspan x="0" y="0" style="font-family:'Gadugi'; font-size:55.1601px;">Jessica is a Graphic Designer working on an Advertising company in Toronto. </tspan><tspan x="0" y="74.5" style="font-family:'Gadugi'; font-size:55.1601px;">During the week she spends a great deal of time commuting and using the TTC </tspan><tspan x="0" y="148.9" style="font-family:'Gadugi'; font-size:55.1601px;">services. Jessica does not own a car and relies on public transportation to move </tspan><tspan x="0" y="223.4" style="font-family:'Gadugi'; font-size:55.1601px;">around the city. On weekends she enjoys hanging out with her friends and </tspan><tspan x="0" y="297.9" style="font-family:'Gadugi'; font-size:55.1601px;">attending music / food festivals &amp; attractions across Toronto.</tspan></text>
<text transform="matrix(1 0 0 1 351.8875 -1012.9132)" style="font-family:'Gadugi'; font-size:57.9181px;">Goals</text>
<text transform="matrix(1 0 0 1 671.8162 -944.882)"><tspan x="0" y="0" style="font-family:'Gadugi'; font-size:66.1922px;">•</tspan><tspan x="26.9" y="0" style="font-family:'Gadugi'; font-size:55.1601px;">    Have a comfortable experience during her commute</tspan></text>
<text transform="matrix(1 0 0 1 671.8162 -834.5616)"><tspan x="0" y="0" style="font-family:'Gadugi'; font-size:66.1922px;">•</tspan><tspan x="26.9" y="0" style="font-family:'Gadugi'; font-size:55.1601px;">    Reduce her stress due to TTC delays and crowded vehicles</tspan></text>
<text transform="matrix(1 0 0 1 671.8162 -724.2413)"><tspan x="0" y="0" style="font-family:'Gadugi'; font-size:66.1922px;">•</tspan><tspan x="26.9" y="0" style="font-family:'Gadugi'; font-size:55.1601px;">    Improve her skills and grow professionally</tspan></text>
<text transform="matrix(1 0 0 1 671.8162 -476.0206)"><tspan x="0" y="0" style="font-family:'Gadugi'; font-size:66.1922px;">•</tspan><tspan x="26.9" y="0" style="font-family:'Gadugi'; font-size:55.1601px;">    Arriving late at work because of TTC problems</tspan></text>
<text transform="matrix(1 0 0 1 671.8162 -365.7003)"><tspan x="0" y="0" style="font-family:'Gadugi'; font-size:66.1922px;">•</tspan><tspan x="26.9" y="0" style="font-family:'Gadugi'; font-size:55.1601px;">    Having to wait a long time for an available bus</tspan></text>
<text transform="matrix(1 0 0 1 351.8875 -580.8253)" style="font-family:'Gadugi'; font-size:57.9181px;">Frustrations</text>
<g>
	<g>
		<path class="st10" d="M121.7,36.9l-4.1,15.4h-3.8l-2.6-9.9c-0.1-0.5-0.2-1.1-0.2-1.7h0c-0.1,0.7-0.2,1.3-0.3,1.7l-2.6,9.9h-4
			l-4-15.4h3.8l2.2,10.2c0.1,0.4,0.2,1,0.2,1.8h0.1c0-0.6,0.1-1.2,0.3-1.8l2.8-10.2h3.7l2.5,10.3c0.1,0.4,0.2,0.9,0.2,1.7h0
			c0-0.6,0.1-1.1,0.2-1.7l2.1-10.3H121.7z"/>
		<path class="st10" d="M133.9,52.2h-3.4V46c0-1.6-0.6-2.4-1.8-2.4c-0.6,0-1.1,0.2-1.5,0.7c-0.4,0.5-0.6,1-0.6,1.7v6.3h-3.4V36h3.4
			v6.9h0c0.8-1.3,2-1.9,3.4-1.9c2.5,0,3.7,1.5,3.7,4.5V52.2z"/>
		<path class="st10" d="M145.7,52.2h-3.2v-1.6h0c-0.7,1.2-1.8,1.8-3.3,1.8c-1.1,0-1.9-0.3-2.5-0.9c-0.6-0.6-0.9-1.4-0.9-2.4
			c0-2.1,1.3-3.4,3.8-3.7l3-0.4c0-1.2-0.7-1.8-2-1.8c-1.3,0-2.6,0.4-3.7,1.2v-2.6c0.5-0.2,1.1-0.5,1.9-0.6c0.8-0.2,1.6-0.3,2.2-0.3
			c3.1,0,4.7,1.6,4.7,4.7V52.2z M142.5,47.8V47l-2,0.3c-1.1,0.1-1.7,0.6-1.7,1.5c0,0.4,0.1,0.7,0.4,0.9c0.3,0.2,0.6,0.4,1.1,0.4
			c0.6,0,1.2-0.2,1.6-0.7C142.3,49,142.5,48.4,142.5,47.8z"/>
		<path class="st10" d="M155,52.1c-0.5,0.3-1.3,0.4-2.3,0.4c-2.4,0-3.6-1.2-3.6-3.7v-5h-1.8v-2.5h1.8v-2.4l3.4-1v3.3h2.5v2.5h-2.5
			v4.4c0,1.1,0.5,1.7,1.4,1.7c0.4,0,0.7-0.1,1.1-0.3V52.1z"/>
		<path class="st10" d="M171.3,51.8c-0.8,0.4-1.9,0.7-3.3,0.7c-1.7,0-3.1-0.5-4.1-1.5c-1-1-1.6-2.3-1.6-4c0-1.9,0.6-3.3,1.7-4.4
			c1.1-1.1,2.6-1.6,4.5-1.6c1.3,0,2.2,0.2,2.8,0.5v2.9c-0.7-0.5-1.5-0.8-2.4-0.8c-1,0-1.7,0.3-2.3,0.9s-0.9,1.4-0.9,2.4
			c0,1,0.3,1.7,0.8,2.3c0.5,0.6,1.3,0.8,2.2,0.8c0.8,0,1.7-0.3,2.5-0.8V51.8z"/>
		<path class="st10" d="M182.7,52.2h-3.2v-1.6h0c-0.7,1.2-1.8,1.8-3.3,1.8c-1.1,0-1.9-0.3-2.5-0.9c-0.6-0.6-0.9-1.4-0.9-2.4
			c0-2.1,1.3-3.4,3.8-3.7l3-0.4c0-1.2-0.7-1.8-2-1.8c-1.3,0-2.6,0.4-3.7,1.2v-2.6c0.5-0.2,1.1-0.5,1.9-0.6c0.8-0.2,1.6-0.3,2.2-0.3
			c3.1,0,4.7,1.6,4.7,4.7V52.2z M179.5,47.8V47l-2,0.3c-1.1,0.1-1.7,0.6-1.7,1.5c0,0.4,0.1,0.7,0.4,0.9c0.3,0.2,0.6,0.4,1.1,0.4
			c0.6,0,1.2-0.2,1.6-0.7C179.3,49,179.5,48.4,179.5,47.8z"/>
		<path class="st10" d="M196,52.2h-3.4v-6.1c0-1.7-0.6-2.6-1.8-2.6c-0.6,0-1.1,0.2-1.4,0.7c-0.4,0.5-0.6,1-0.6,1.7v6.3h-3.4v-11h3.4
			V43h0c0.8-1.3,2-2,3.5-2c2.4,0,3.6,1.5,3.6,4.5V52.2z"/>
		<path class="st10" d="M209.8,36.9v2.7h-1.3v10h1.3v2.7h-6v-2.7h1.3v-10h-1.3v-2.7H209.8z"/>
		<path class="st10" d="M228.5,52.2h-3.4v-1.5h0c-0.8,1.2-1.9,1.8-3.4,1.8c-1.4,0-2.5-0.5-3.3-1.5c-0.8-1-1.3-2.3-1.3-4.1
			c0-1.8,0.5-3.3,1.4-4.4c0.9-1.1,2.1-1.6,3.6-1.6c1.4,0,2.4,0.5,3,1.5h0V36h3.4V52.2z M225.1,46.9v-0.8c0-0.7-0.2-1.3-0.6-1.8
			c-0.4-0.5-1-0.7-1.6-0.7c-0.8,0-1.3,0.3-1.8,0.9s-0.6,1.4-0.6,2.4c0,1,0.2,1.7,0.6,2.2c0.4,0.5,1,0.8,1.7,0.8
			c0.7,0,1.2-0.3,1.7-0.8S225.1,47.8,225.1,46.9z"/>
		<path class="st10" d="M236.6,52.5c-1.8,0-3.3-0.5-4.3-1.5c-1-1-1.6-2.4-1.6-4.2c0-1.8,0.5-3.2,1.6-4.3c1.1-1,2.6-1.5,4.4-1.5
			c1.8,0,3.3,0.5,4.3,1.5c1,1,1.6,2.4,1.6,4.1c0,1.8-0.5,3.3-1.6,4.3C239.9,52,238.4,52.5,236.6,52.5z M236.6,43.6
			c-0.8,0-1.4,0.3-1.9,0.8s-0.7,1.3-0.7,2.3c0,2.1,0.9,3.2,2.6,3.2c1.6,0,2.4-1.1,2.4-3.3C239.1,44.6,238.3,43.6,236.6,43.6z"/>
		<path class="st10" d="M246.2,47.8c-0.1-0.2-0.1-0.4-0.2-0.6c0-0.2-0.1-0.5-0.1-0.7c0-0.3,0-0.6,0.1-0.9c0.1-0.3,0.2-0.5,0.3-0.8
			c0.1-0.2,0.3-0.5,0.5-0.7c0.2-0.2,0.4-0.4,0.7-0.6c0.3-0.2,0.5-0.4,0.7-0.6c0.2-0.2,0.4-0.4,0.5-0.6c0.1-0.2,0.3-0.4,0.3-0.6
			s0.1-0.4,0.1-0.7c0-0.2,0-0.4-0.1-0.6c-0.1-0.2-0.2-0.4-0.3-0.5s-0.3-0.2-0.5-0.3c-0.2-0.1-0.4-0.1-0.7-0.1
			c-0.6,0-1.1,0.1-1.7,0.3c-0.6,0.2-1.2,0.6-1.7,1.1v-3.2c0.6-0.3,1.2-0.6,1.8-0.7c0.7-0.2,1.3-0.2,2-0.2c0.7,0,1.3,0.1,1.9,0.2
			s1.1,0.4,1.5,0.7s0.8,0.7,1,1.2c0.2,0.5,0.4,1.1,0.4,1.8c0,0.4-0.1,0.8-0.2,1.2c-0.1,0.4-0.2,0.7-0.4,1c-0.2,0.3-0.4,0.6-0.7,0.9
			c-0.3,0.3-0.6,0.6-1,0.9c-0.3,0.2-0.5,0.4-0.7,0.6c-0.2,0.2-0.3,0.4-0.5,0.5c-0.1,0.2-0.2,0.4-0.3,0.6c-0.1,0.2-0.1,0.4-0.1,0.7
			c0,0.2,0,0.3,0.1,0.5c0,0.2,0.1,0.3,0.2,0.5H246.2z M247.7,52.5c-0.6,0-1-0.2-1.4-0.5c-0.4-0.4-0.6-0.8-0.6-1.3
			c0-0.5,0.2-0.9,0.6-1.3s0.9-0.5,1.4-0.5c0.6,0,1,0.2,1.4,0.5c0.4,0.3,0.6,0.7,0.6,1.3c0,0.5-0.2,0.9-0.5,1.3
			C248.8,52.3,248.3,52.5,247.7,52.5z"/>
	</g>
	<g>
		<g>
			<path class="st10" d="M483.6,52.2h-3.5V46h-6.4v6.3h-3.5V36.9h3.5V43h6.4v-6.1h3.5V52.2z"/>
			<path class="st10" d="M495.9,52.2h-3.2v-1.6h0c-0.7,1.2-1.8,1.8-3.3,1.8c-1.1,0-1.9-0.3-2.5-0.9c-0.6-0.6-0.9-1.4-0.9-2.4
				c0-2.1,1.3-3.4,3.8-3.7l3-0.4c0-1.2-0.7-1.8-2-1.8c-1.3,0-2.6,0.4-3.7,1.2v-2.6c0.5-0.2,1.1-0.5,1.9-0.6c0.8-0.2,1.6-0.3,2.2-0.3
				c3.1,0,4.7,1.6,4.7,4.7V52.2z M492.7,47.8V47l-2,0.3c-1.1,0.1-1.7,0.6-1.7,1.5c0,0.4,0.1,0.7,0.4,0.9c0.3,0.2,0.6,0.4,1.1,0.4
				c0.6,0,1.2-0.2,1.6-0.7C492.5,49,492.7,48.4,492.7,47.8z"/>
			<path class="st10" d="M505.8,44.3c-0.4-0.2-0.9-0.3-1.4-0.3c-0.7,0-1.3,0.3-1.7,0.8S502,46.1,502,47v5.2h-3.4v-11h3.4v2h0
				c0.5-1.5,1.5-2.2,2.9-2.2c0.4,0,0.6,0,0.8,0.1V44.3z"/>
			<path class="st10" d="M518.1,52.2h-3.4v-1.5h0c-0.8,1.2-1.9,1.8-3.4,1.8c-1.4,0-2.5-0.5-3.3-1.5c-0.8-1-1.3-2.3-1.3-4.1
				c0-1.8,0.5-3.3,1.4-4.4c0.9-1.1,2.1-1.6,3.6-1.6c1.4,0,2.4,0.5,3,1.5h0V36h3.4V52.2z M514.8,46.9v-0.8c0-0.7-0.2-1.3-0.6-1.8
				c-0.4-0.5-1-0.7-1.6-0.7c-0.8,0-1.3,0.3-1.8,0.9s-0.6,1.4-0.6,2.4c0,1,0.2,1.7,0.6,2.2c0.4,0.5,1,0.8,1.7,0.8
				c0.7,0,1.2-0.3,1.7-0.8S514.8,47.8,514.8,46.9z"/>
			<path class="st10" d="M526.6,51.6v-3.4c0.6,0.5,1.3,0.9,2,1.2c0.7,0.3,1.5,0.4,2.2,0.4c0.4,0,0.8,0,1.1-0.1
				c0.3-0.1,0.6-0.2,0.8-0.3c0.2-0.1,0.4-0.3,0.5-0.5s0.2-0.4,0.2-0.6c0-0.3-0.1-0.6-0.3-0.8s-0.4-0.5-0.7-0.7
				c-0.3-0.2-0.6-0.4-1.1-0.6c-0.4-0.2-0.8-0.4-1.3-0.6c-1.2-0.5-2.1-1.1-2.7-1.8c-0.6-0.7-0.9-1.6-0.9-2.6c0-0.8,0.2-1.5,0.5-2.1
				c0.3-0.6,0.8-1,1.3-1.4c0.6-0.4,1.2-0.6,1.9-0.8c0.7-0.2,1.5-0.3,2.3-0.3c0.8,0,1.5,0,2.1,0.1c0.6,0.1,1.2,0.2,1.7,0.4v3.2
				c-0.3-0.2-0.5-0.3-0.8-0.5s-0.6-0.2-0.9-0.3c-0.3-0.1-0.6-0.2-1-0.2c-0.3,0-0.6-0.1-0.9-0.1c-0.4,0-0.8,0-1.1,0.1
				c-0.3,0.1-0.6,0.2-0.8,0.3s-0.4,0.3-0.5,0.5s-0.2,0.4-0.2,0.6c0,0.3,0.1,0.5,0.2,0.7s0.3,0.4,0.6,0.6s0.6,0.4,0.9,0.5
				c0.4,0.2,0.8,0.4,1.2,0.5c0.6,0.3,1.2,0.5,1.7,0.8c0.5,0.3,0.9,0.6,1.3,1c0.4,0.4,0.6,0.8,0.8,1.3c0.2,0.5,0.3,1,0.3,1.6
				c0,0.9-0.2,1.6-0.5,2.2c-0.3,0.6-0.8,1.1-1.3,1.4c-0.6,0.4-1.2,0.6-1.9,0.8s-1.5,0.2-2.3,0.2c-0.8,0-1.6-0.1-2.4-0.2
				S527.2,51.9,526.6,51.6z"/>
			<path class="st10" d="M550.3,52.2h-4.1l-3.5-5.4h0v5.4h-3.4V36h3.4v10.4h0l3.3-5.1h4l-3.9,5.2L550.3,52.2z"/>
			<path class="st10" d="M553.3,39.5c-0.6,0-1-0.2-1.4-0.5c-0.4-0.3-0.5-0.8-0.5-1.2c0-0.5,0.2-0.9,0.5-1.2c0.4-0.3,0.8-0.5,1.4-0.5
				c0.6,0,1,0.2,1.4,0.5c0.4,0.3,0.5,0.7,0.5,1.2c0,0.5-0.2,0.9-0.5,1.3S553.9,39.5,553.3,39.5z M555,52.2h-3.4v-11h3.4V52.2z"/>
			<path class="st10" d="M561.2,52.2h-3.4V36h3.4V52.2z"/>
			<path class="st10" d="M567.5,52.2h-3.4V36h3.4V52.2z"/>
			<path class="st10" d="M569.6,51.9v-2.7c0.6,0.3,1.1,0.6,1.7,0.8c0.6,0.2,1.1,0.2,1.6,0.2c0.6,0,1.1-0.1,1.4-0.2
				c0.3-0.2,0.5-0.4,0.5-0.8c0-0.2-0.1-0.4-0.2-0.5c-0.2-0.1-0.4-0.3-0.6-0.4c-0.2-0.1-0.5-0.2-0.8-0.3s-0.6-0.2-0.8-0.3
				c-0.4-0.2-0.8-0.3-1.2-0.5c-0.3-0.2-0.6-0.4-0.8-0.7c-0.2-0.3-0.4-0.5-0.5-0.9c-0.1-0.3-0.2-0.7-0.2-1.2c0-0.6,0.1-1.1,0.4-1.6
				c0.3-0.4,0.6-0.8,1.1-1.1c0.4-0.3,1-0.5,1.5-0.6c0.6-0.1,1.2-0.2,1.8-0.2c0.5,0,1,0,1.5,0.1c0.5,0.1,1,0.2,1.5,0.3V44
				c-0.4-0.3-0.9-0.4-1.4-0.6c-0.5-0.1-1-0.2-1.4-0.2c-0.2,0-0.4,0-0.6,0.1c-0.2,0-0.4,0.1-0.5,0.2c-0.2,0.1-0.3,0.2-0.4,0.3
				c-0.1,0.1-0.1,0.3-0.1,0.4c0,0.2,0.1,0.4,0.2,0.5c0.1,0.1,0.3,0.3,0.5,0.4c0.2,0.1,0.4,0.2,0.7,0.3c0.3,0.1,0.5,0.2,0.8,0.3
				c0.5,0.2,0.9,0.3,1.2,0.5c0.4,0.2,0.7,0.4,0.9,0.7c0.3,0.3,0.5,0.5,0.6,0.9c0.1,0.3,0.2,0.7,0.2,1.2c0,0.7-0.1,1.2-0.4,1.7
				s-0.7,0.8-1.1,1.1c-0.5,0.3-1,0.5-1.6,0.6c-0.6,0.1-1.2,0.2-1.9,0.2C571.8,52.5,570.6,52.3,569.6,51.9z"/>
			<path class="st10" d="M581.5,44.7c-0.6,0-1-0.2-1.4-0.5c-0.4-0.3-0.6-0.8-0.6-1.3c0-0.5,0.2-0.9,0.6-1.3c0.4-0.3,0.9-0.5,1.4-0.5
				c0.6,0,1.1,0.2,1.4,0.5c0.4,0.3,0.6,0.8,0.6,1.3c0,0.5-0.2,0.9-0.6,1.3C582.6,44.5,582.1,44.7,581.5,44.7z M581.5,52.5
				c-0.6,0-1-0.2-1.4-0.5c-0.4-0.3-0.6-0.8-0.6-1.3c0-0.5,0.2-0.9,0.6-1.3s0.9-0.5,1.4-0.5c0.6,0,1.1,0.2,1.4,0.5
				c0.4,0.3,0.6,0.8,0.6,1.3c0,0.5-0.2,0.9-0.6,1.3C582.6,52.3,582.1,52.5,581.5,52.5z"/>
		</g>
	</g>
</g>
<g>
	<g>
		<path class="st11" d="M40.8,94.6h-5.9v-1.4h5.9V94.6z"/>
		<path class="st11" d="M61.5,93.8c0,4.3-1.9,6.5-5.8,6.5c-3.7,0-5.6-2.1-5.6-6.2v-9.4h1.8v9.3c0,3.2,1.3,4.7,4,4.7
			c2.6,0,3.9-1.5,3.9-4.6v-9.5h1.8V93.8z"/>
		<path class="st11" d="M75.9,100h-2.2l-3.5-5.9c-0.1-0.2-0.2-0.4-0.4-0.8h0c-0.1,0.2-0.2,0.4-0.4,0.8l-3.6,5.9h-2.2l5.1-7.7
			L64,84.6h2.2l3.1,5.4c0.2,0.4,0.4,0.7,0.5,1.1h0c0.2-0.5,0.4-0.8,0.6-1.1l3.3-5.4h2.1L71,92.3L75.9,100z"/>
		<path class="st11" d="M97.8,100.3c-0.4,0-0.8-0.1-1.1-0.2c-0.3-0.1-0.6-0.3-0.9-0.5c-0.3-0.2-0.5-0.5-0.8-0.7
			c-0.2-0.3-0.5-0.6-0.8-1c-0.3,0.3-0.6,0.6-1,0.9c-0.4,0.3-0.8,0.5-1.3,0.8s-1,0.4-1.5,0.5c-0.5,0.1-1.1,0.2-1.8,0.2
			c-0.8,0-1.5-0.1-2.1-0.3s-1.2-0.5-1.7-0.9c-0.5-0.4-0.8-0.8-1.1-1.4s-0.4-1.2-0.4-1.9c0-1.1,0.3-2,0.9-2.8
			c0.6-0.8,1.5-1.4,2.6-1.9c-0.2-0.2-0.4-0.3-0.6-0.6s-0.4-0.5-0.6-0.7s-0.3-0.6-0.4-0.9c-0.1-0.3-0.2-0.7-0.2-1.1
			c0-0.6,0.1-1.1,0.3-1.5c0.2-0.4,0.5-0.8,0.8-1.1c0.4-0.3,0.8-0.5,1.3-0.7c0.5-0.2,1-0.2,1.6-0.2c0.6,0,1.1,0.1,1.5,0.2
			c0.5,0.2,0.9,0.4,1.2,0.7c0.3,0.3,0.6,0.6,0.8,1c0.2,0.4,0.3,0.8,0.3,1.3c0,0.9-0.2,1.6-0.7,2.1s-1.2,1.1-2.2,1.5
			c0.5,0.2,0.9,0.4,1.3,0.7c0.4,0.3,0.8,0.6,1.1,0.9c0.3,0.3,0.7,0.7,0.9,1.1c0.3,0.4,0.6,0.8,0.9,1.2c0.6-0.8,1-1.7,1.3-2.7
			c0.3-1,0.4-2,0.4-3.1c0-0.3,0-0.5,0-0.8c0-0.2-0.1-0.5-0.1-0.7h1.7c0.1,0.2,0.1,0.5,0.1,0.7s0,0.5,0,0.8c0,0.7-0.1,1.3-0.2,2
			c-0.1,0.7-0.3,1.3-0.5,1.9c-0.2,0.6-0.5,1.2-0.8,1.8c-0.3,0.6-0.6,1.1-1,1.5c0.3,0.3,0.5,0.6,0.7,0.9c0.2,0.3,0.4,0.5,0.6,0.6
			c0.2,0.2,0.4,0.3,0.7,0.4s0.5,0.1,0.8,0.1c0.2,0,0.4,0,0.7-0.1c0.2-0.1,0.5-0.1,0.7-0.2v1.6c-0.3,0.1-0.5,0.2-0.8,0.2
			C98.3,100.3,98,100.3,97.8,100.3z M88.8,98.8c0.5,0,1-0.1,1.5-0.2c0.5-0.1,0.9-0.3,1.3-0.5c0.4-0.2,0.7-0.4,1.1-0.7
			c0.3-0.3,0.6-0.5,0.9-0.8c-0.4-0.7-0.8-1.3-1.2-1.7s-0.7-0.9-1.1-1.3c-0.4-0.3-0.8-0.7-1.2-0.9c-0.4-0.3-0.9-0.5-1.5-0.7
			c-0.5,0.2-0.9,0.4-1.2,0.6c-0.4,0.2-0.7,0.5-1,0.8s-0.5,0.6-0.6,1s-0.2,0.9-0.2,1.4c0,0.5,0.1,0.9,0.3,1.3
			c0.2,0.4,0.4,0.7,0.7,0.9c0.3,0.2,0.7,0.4,1.1,0.6C87.8,98.7,88.3,98.8,88.8,98.8z M91.5,87.8c0-0.4-0.1-0.7-0.2-0.9
			c-0.1-0.3-0.3-0.5-0.5-0.6c-0.2-0.2-0.4-0.3-0.7-0.4c-0.3-0.1-0.5-0.1-0.7-0.1c-0.7,0-1.3,0.2-1.7,0.6c-0.4,0.4-0.6,0.9-0.6,1.5
			c0,0.3,0,0.6,0.1,0.8c0.1,0.3,0.2,0.5,0.4,0.7s0.3,0.4,0.6,0.6c0.2,0.2,0.4,0.3,0.7,0.4c0.9-0.3,1.6-0.7,2-1.1
			C91.2,89,91.5,88.4,91.5,87.8z"/>
		<path class="st11" d="M119.1,93.8c0,4.3-1.9,6.5-5.8,6.5c-3.7,0-5.6-2.1-5.6-6.2v-9.4h1.8v9.3c0,3.2,1.3,4.7,4,4.7
			c2.6,0,3.9-1.5,3.9-4.6v-9.5h1.8V93.8z"/>
		<path class="st11" d="M126.3,84.6v1.5h-1.5v12.3h1.5v1.5h-4.8v-1.5h1.5V86.2h-1.5v-1.5H126.3z"/>
		<path class="st11" d="M134.8,100V84.6h4.2c5.4,0,8.1,2.5,8.1,7.5c0,2.4-0.8,4.3-2.3,5.7c-1.5,1.4-3.5,2.2-6,2.2H134.8z
			 M136.6,86.3v12.1h2.3c2,0,3.6-0.5,4.7-1.6c1.1-1.1,1.7-2.6,1.7-4.6c0-3.9-2.1-5.9-6.3-5.9H136.6z"/>
		<path class="st11" d="M158.8,95h-7.8c0,1.2,0.4,2.2,1,2.8c0.6,0.7,1.5,1,2.6,1c1.2,0,2.4-0.4,3.4-1.2v1.7c-1,0.7-2.2,1.1-3.8,1.1
			c-1.6,0-2.8-0.5-3.7-1.5c-0.9-1-1.3-2.4-1.3-4.2c0-1.7,0.5-3.1,1.5-4.2c1-1.1,2.2-1.6,3.6-1.6s2.5,0.5,3.3,1.4
			c0.8,0.9,1.2,2.2,1.2,3.9V95z M157,93.5c0-1-0.3-1.8-0.7-2.4c-0.5-0.6-1.2-0.8-2-0.8c-0.8,0-1.5,0.3-2.1,0.9
			c-0.6,0.6-0.9,1.4-1.1,2.3H157z"/>
		<path class="st11" d="M160.8,99.6v-1.9c1,0.7,2,1.1,3.2,1.1c1.5,0,2.3-0.5,2.3-1.5c0-0.3-0.1-0.5-0.2-0.7
			c-0.1-0.2-0.3-0.4-0.5-0.5s-0.5-0.3-0.8-0.4s-0.6-0.3-1-0.4c-0.5-0.2-0.9-0.4-1.3-0.6c-0.4-0.2-0.7-0.4-0.9-0.7
			c-0.2-0.2-0.4-0.5-0.6-0.8c-0.1-0.3-0.2-0.7-0.2-1.1c0-0.5,0.1-1,0.4-1.4s0.6-0.7,0.9-1c0.4-0.3,0.8-0.5,1.3-0.6s1-0.2,1.6-0.2
			c1,0,1.8,0.2,2.6,0.5v1.8c-0.8-0.5-1.7-0.8-2.8-0.8c-0.3,0-0.6,0-0.9,0.1s-0.5,0.2-0.7,0.3c-0.2,0.1-0.3,0.3-0.4,0.5
			s-0.2,0.4-0.2,0.6c0,0.3,0.1,0.5,0.2,0.7c0.1,0.2,0.3,0.4,0.5,0.5s0.4,0.3,0.7,0.4c0.3,0.1,0.6,0.3,1,0.4c0.5,0.2,0.9,0.4,1.3,0.6
			c0.4,0.2,0.7,0.4,1,0.7c0.3,0.2,0.5,0.5,0.6,0.9c0.1,0.3,0.2,0.7,0.2,1.1c0,0.5-0.1,1-0.4,1.4s-0.6,0.7-1,1s-0.9,0.5-1.4,0.6
			c-0.5,0.1-1.1,0.2-1.6,0.2C162.6,100.3,161.7,100.1,160.8,99.6z"/>
		<path class="st11" d="M171.7,86.3c-0.3,0-0.6-0.1-0.8-0.3c-0.2-0.2-0.3-0.5-0.3-0.8c0-0.3,0.1-0.6,0.3-0.8
			c0.2-0.2,0.5-0.3,0.8-0.3c0.3,0,0.6,0.1,0.8,0.3c0.2,0.2,0.3,0.5,0.3,0.8c0,0.3-0.1,0.6-0.3,0.8C172.3,86.1,172,86.3,171.7,86.3z
			 M172.6,100h-1.8V89h1.8V100z"/>
		<path class="st11" d="M185.5,99.2c0,4-1.9,6.1-5.8,6.1c-1.4,0-2.5-0.3-3.6-0.8v-1.8c1.2,0.7,2.4,1,3.5,1c2.7,0,4.1-1.4,4.1-4.3
			v-1.2h0c-0.8,1.4-2.1,2.1-3.8,2.1c-1.4,0-2.5-0.5-3.3-1.5c-0.8-1-1.2-2.3-1.2-3.9c0-1.9,0.4-3.3,1.3-4.5s2.1-1.7,3.7-1.7
			c1.5,0,2.6,0.6,3.3,1.8h0V89h1.8V99.2z M183.8,95.1v-1.6c0-0.9-0.3-1.6-0.9-2.2s-1.3-0.9-2.2-0.9c-1.1,0-1.9,0.4-2.6,1.2
			c-0.6,0.8-0.9,1.9-0.9,3.3c0,1.2,0.3,2.2,0.9,2.9s1.4,1.1,2.3,1.1c1,0,1.8-0.4,2.4-1.1C183.5,97.1,183.8,96.2,183.8,95.1z"/>
		<path class="st11" d="M198.2,100h-1.8v-6.3c0-2.3-0.9-3.5-2.6-3.5c-0.9,0-1.6,0.3-2.2,1c-0.6,0.7-0.9,1.5-0.9,2.5v6.3h-1.8V89h1.8
			v1.8h0c0.8-1.4,2-2.1,3.6-2.1c1.2,0,2.1,0.4,2.8,1.2c0.6,0.8,1,1.9,1,3.4V100z"/>
		<path class="st11" d="M40.8,128.4h-5.9V127h5.9V128.4z"/>
		<path class="st11" d="M68.5,118.4l-4.3,15.4H62l-3.2-11.2c-0.1-0.5-0.2-1-0.2-1.6h0c0,0.5-0.1,1-0.3,1.5l-3.2,11.3H53l-4.5-15.4h2
			l3.3,11.8c0.1,0.5,0.2,1,0.3,1.5h0.1c0-0.4,0.1-0.9,0.3-1.5l3.4-11.8h1.7l3.3,11.9c0.1,0.4,0.2,0.9,0.3,1.4h0
			c0-0.4,0.1-0.9,0.3-1.5l3.1-11.8H68.5z"/>
		<path class="st11" d="M79.3,128.7h-7.8c0,1.2,0.4,2.2,1,2.8c0.6,0.7,1.5,1,2.6,1c1.2,0,2.4-0.4,3.4-1.2v1.7
			c-1,0.7-2.2,1.1-3.8,1.1c-1.6,0-2.8-0.5-3.7-1.5c-0.9-1-1.3-2.4-1.3-4.2c0-1.7,0.5-3.1,1.5-4.2c1-1.1,2.2-1.6,3.6-1.6
			s2.5,0.5,3.3,1.4c0.8,0.9,1.2,2.2,1.2,3.9V128.7z M77.5,127.2c0-1-0.3-1.8-0.7-2.4c-0.5-0.6-1.2-0.8-2-0.8c-0.8,0-1.5,0.3-2.1,0.9
			c-0.6,0.6-0.9,1.4-1.1,2.3H77.5z"/>
		<path class="st11" d="M83.8,132.2L83.8,132.2l0,1.6H82v-16.3h1.8v7.2h0c0.9-1.5,2.1-2.2,3.8-2.2c1.4,0,2.5,0.5,3.3,1.5
			c0.8,1,1.2,2.3,1.2,4c0,1.8-0.4,3.3-1.3,4.4c-0.9,1.1-2.1,1.7-3.7,1.7C85.6,134,84.5,133.4,83.8,132.2z M83.8,127.8v1.5
			c0,0.9,0.3,1.7,0.9,2.3s1.3,0.9,2.2,0.9c1.1,0,1.9-0.4,2.5-1.2c0.6-0.8,0.9-1.9,0.9-3.4c0-1.2-0.3-2.2-0.8-2.9
			c-0.6-0.7-1.3-1-2.3-1c-1,0-1.8,0.4-2.5,1.1C84.1,125.8,83.8,126.7,83.8,127.8z"/>
		<path class="st11" d="M101.2,133.8v-15.4h4.2c5.4,0,8.1,2.5,8.1,7.5c0,2.4-0.8,4.3-2.3,5.7c-1.5,1.4-3.5,2.2-6,2.2H101.2z
			 M103,120v12.1h2.3c2,0,3.6-0.5,4.7-1.6c1.1-1.1,1.7-2.6,1.7-4.6c0-3.9-2.1-5.9-6.3-5.9H103z"/>
		<path class="st11" d="M125.2,128.7h-7.8c0,1.2,0.4,2.2,1,2.8c0.6,0.7,1.5,1,2.6,1c1.2,0,2.4-0.4,3.4-1.2v1.7
			c-1,0.7-2.2,1.1-3.8,1.1c-1.6,0-2.8-0.5-3.7-1.5c-0.9-1-1.3-2.4-1.3-4.2c0-1.7,0.5-3.1,1.5-4.2c1-1.1,2.2-1.6,3.6-1.6
			s2.5,0.5,3.3,1.4c0.8,0.9,1.2,2.2,1.2,3.9V128.7z M123.4,127.2c0-1-0.3-1.8-0.7-2.4c-0.5-0.6-1.2-0.8-2-0.8
			c-0.8,0-1.5,0.3-2.1,0.9c-0.6,0.6-0.9,1.4-1.1,2.3H123.4z"/>
		<path class="st11" d="M127.2,133.4v-1.9c1,0.7,2,1.1,3.2,1.1c1.5,0,2.3-0.5,2.3-1.5c0-0.3-0.1-0.5-0.2-0.7
			c-0.1-0.2-0.3-0.4-0.5-0.5s-0.5-0.3-0.8-0.4s-0.6-0.3-1-0.4c-0.5-0.2-0.9-0.4-1.3-0.6c-0.4-0.2-0.7-0.4-0.9-0.7
			c-0.2-0.2-0.4-0.5-0.6-0.8c-0.1-0.3-0.2-0.7-0.2-1.1c0-0.5,0.1-1,0.4-1.4s0.6-0.7,0.9-1c0.4-0.3,0.8-0.5,1.3-0.6s1-0.2,1.6-0.2
			c1,0,1.8,0.2,2.6,0.5v1.8c-0.8-0.5-1.7-0.8-2.8-0.8c-0.3,0-0.6,0-0.9,0.1s-0.5,0.2-0.7,0.3c-0.2,0.1-0.3,0.3-0.4,0.5
			s-0.2,0.4-0.2,0.6c0,0.3,0.1,0.5,0.2,0.7c0.1,0.2,0.3,0.4,0.5,0.5s0.4,0.3,0.7,0.4c0.3,0.1,0.6,0.3,1,0.4c0.5,0.2,0.9,0.4,1.3,0.6
			c0.4,0.2,0.7,0.4,1,0.7c0.3,0.2,0.5,0.5,0.6,0.9c0.1,0.3,0.2,0.7,0.2,1.1c0,0.5-0.1,1-0.4,1.4s-0.6,0.7-1,1s-0.9,0.5-1.4,0.6
			c-0.5,0.1-1.1,0.2-1.6,0.2C129,134,128,133.8,127.2,133.4z"/>
		<path class="st11" d="M138,120c-0.3,0-0.6-0.1-0.8-0.3c-0.2-0.2-0.3-0.5-0.3-0.8c0-0.3,0.1-0.6,0.3-0.8c0.2-0.2,0.5-0.3,0.8-0.3
			c0.3,0,0.6,0.1,0.8,0.3c0.2,0.2,0.3,0.5,0.3,0.8c0,0.3-0.1,0.6-0.3,0.8C138.6,119.9,138.4,120,138,120z M138.9,133.8h-1.8v-11h1.8
			V133.8z"/>
		<path class="st11" d="M151.8,132.9c0,4-1.9,6.1-5.8,6.1c-1.4,0-2.5-0.3-3.6-0.8v-1.8c1.2,0.7,2.4,1,3.5,1c2.7,0,4.1-1.4,4.1-4.3
			v-1.2h0c-0.8,1.4-2.1,2.1-3.8,2.1c-1.4,0-2.5-0.5-3.3-1.5c-0.8-1-1.2-2.3-1.2-3.9c0-1.9,0.4-3.3,1.3-4.5s2.1-1.7,3.7-1.7
			c1.5,0,2.6,0.6,3.3,1.8h0v-1.5h1.8V132.9z M150.1,128.8v-1.6c0-0.9-0.3-1.6-0.9-2.2s-1.3-0.9-2.2-0.9c-1.1,0-1.9,0.4-2.6,1.2
			c-0.6,0.8-0.9,1.9-0.9,3.3c0,1.2,0.3,2.2,0.9,2.9s1.4,1.1,2.3,1.1c1,0,1.8-0.4,2.4-1.1C149.8,130.8,150.1,129.9,150.1,128.8z"/>
		<path class="st11" d="M164.5,133.8h-1.8v-6.3c0-2.3-0.9-3.5-2.6-3.5c-0.9,0-1.6,0.3-2.2,1c-0.6,0.7-0.9,1.5-0.9,2.5v6.3h-1.8v-11
			h1.8v1.8h0c0.8-1.4,2-2.1,3.6-2.1c1.2,0,2.1,0.4,2.8,1.2c0.6,0.8,1,1.9,1,3.4V133.8z"/>
		<path class="st11" d="M187.6,134c-0.4,0-0.8-0.1-1.1-0.2c-0.3-0.1-0.6-0.3-0.9-0.5c-0.3-0.2-0.5-0.5-0.8-0.7
			c-0.2-0.3-0.5-0.6-0.8-1c-0.3,0.3-0.6,0.6-1,0.9c-0.4,0.3-0.8,0.5-1.3,0.8s-1,0.4-1.5,0.5c-0.5,0.1-1.1,0.2-1.8,0.2
			c-0.8,0-1.5-0.1-2.1-0.3s-1.2-0.5-1.7-0.9c-0.5-0.4-0.8-0.8-1.1-1.4s-0.4-1.2-0.4-1.9c0-1.1,0.3-2,0.9-2.8
			c0.6-0.8,1.5-1.4,2.6-1.9c-0.2-0.2-0.4-0.3-0.6-0.6s-0.4-0.5-0.6-0.7s-0.3-0.6-0.4-0.9c-0.1-0.3-0.2-0.7-0.2-1.1
			c0-0.6,0.1-1.1,0.3-1.5c0.2-0.4,0.5-0.8,0.8-1.1c0.4-0.3,0.8-0.5,1.3-0.7c0.5-0.2,1-0.2,1.6-0.2c0.6,0,1.1,0.1,1.5,0.2
			c0.5,0.2,0.9,0.4,1.2,0.7c0.3,0.3,0.6,0.6,0.8,1c0.2,0.4,0.3,0.8,0.3,1.3c0,0.9-0.2,1.6-0.7,2.1s-1.2,1.1-2.2,1.5
			c0.5,0.2,0.9,0.4,1.3,0.7c0.4,0.3,0.8,0.6,1.1,0.9c0.3,0.3,0.7,0.7,0.9,1.1c0.3,0.4,0.6,0.8,0.9,1.2c0.6-0.8,1-1.7,1.3-2.7
			c0.3-1,0.4-2,0.4-3.1c0-0.3,0-0.5,0-0.8c0-0.2-0.1-0.5-0.1-0.7h1.7c0.1,0.2,0.1,0.5,0.1,0.7s0,0.5,0,0.8c0,0.7-0.1,1.3-0.2,2
			c-0.1,0.7-0.3,1.3-0.5,1.9c-0.2,0.6-0.5,1.2-0.8,1.8c-0.3,0.6-0.6,1.1-1,1.5c0.3,0.3,0.5,0.6,0.7,0.9c0.2,0.3,0.4,0.5,0.6,0.6
			c0.2,0.2,0.4,0.3,0.7,0.4s0.5,0.1,0.8,0.1c0.2,0,0.4,0,0.7-0.1c0.2-0.1,0.5-0.1,0.7-0.2v1.6c-0.3,0.1-0.5,0.2-0.8,0.2
			C188.1,134,187.8,134,187.6,134z M178.6,132.5c0.5,0,1-0.1,1.5-0.2c0.5-0.1,0.9-0.3,1.3-0.5c0.4-0.2,0.7-0.4,1.1-0.7
			c0.3-0.3,0.6-0.5,0.9-0.8c-0.4-0.7-0.8-1.3-1.2-1.7s-0.7-0.9-1.1-1.3c-0.4-0.3-0.8-0.7-1.2-0.9c-0.4-0.3-0.9-0.5-1.5-0.7
			c-0.5,0.2-0.9,0.4-1.2,0.6c-0.4,0.2-0.7,0.5-1,0.8s-0.5,0.6-0.6,1s-0.2,0.9-0.2,1.4c0,0.5,0.1,0.9,0.3,1.3
			c0.2,0.4,0.4,0.7,0.7,0.9c0.3,0.2,0.7,0.4,1.1,0.6C177.6,132.4,178.1,132.5,178.6,132.5z M181.3,121.6c0-0.4-0.1-0.7-0.2-0.9
			c-0.1-0.3-0.3-0.5-0.5-0.6c-0.2-0.2-0.4-0.3-0.7-0.4c-0.3-0.1-0.5-0.1-0.7-0.1c-0.7,0-1.3,0.2-1.7,0.6c-0.4,0.4-0.6,0.9-0.6,1.5
			c0,0.3,0,0.6,0.1,0.8c0.1,0.3,0.2,0.5,0.4,0.7s0.3,0.4,0.6,0.6c0.2,0.2,0.4,0.3,0.7,0.4c0.9-0.3,1.6-0.7,2-1.1
			C181,122.7,181.3,122.2,181.3,121.6z"/>
		<path class="st11" d="M197.7,133.8v-15.4h4.2c5.4,0,8.1,2.5,8.1,7.5c0,2.4-0.8,4.3-2.3,5.7c-1.5,1.4-3.5,2.2-6,2.2H197.7z
			 M199.5,120v12.1h2.3c2,0,3.6-0.5,4.7-1.6c1.1-1.1,1.7-2.6,1.7-4.6c0-3.9-2.1-5.9-6.3-5.9H199.5z"/>
		<path class="st11" d="M221.7,128.7h-7.8c0,1.2,0.4,2.2,1,2.8c0.6,0.7,1.5,1,2.6,1c1.2,0,2.4-0.4,3.4-1.2v1.7
			c-1,0.7-2.2,1.1-3.8,1.1c-1.6,0-2.8-0.5-3.7-1.5c-0.9-1-1.3-2.4-1.3-4.2c0-1.7,0.5-3.1,1.5-4.2c1-1.1,2.2-1.6,3.6-1.6
			s2.5,0.5,3.3,1.4c0.8,0.9,1.2,2.2,1.2,3.9V128.7z M219.9,127.2c0-1-0.3-1.8-0.7-2.4c-0.5-0.6-1.2-0.8-2-0.8
			c-0.8,0-1.5,0.3-2.1,0.9c-0.6,0.6-0.9,1.4-1.1,2.3H219.9z"/>
		<path class="st11" d="M233,122.8l-4.4,11h-1.7l-4.2-11h1.9l2.8,8c0.2,0.6,0.3,1.1,0.4,1.5h0c0.1-0.6,0.2-1,0.3-1.5l2.9-8H233z"/>
		<path class="st11" d="M243.7,128.7h-7.8c0,1.2,0.4,2.2,1,2.8c0.6,0.7,1.5,1,2.6,1c1.2,0,2.4-0.4,3.4-1.2v1.7
			c-1,0.7-2.2,1.1-3.8,1.1c-1.6,0-2.8-0.5-3.7-1.5c-0.9-1-1.3-2.4-1.3-4.2c0-1.7,0.5-3.1,1.5-4.2c1-1.1,2.2-1.6,3.6-1.6
			s2.5,0.5,3.3,1.4c0.8,0.9,1.2,2.2,1.2,3.9V128.7z M241.9,127.2c0-1-0.3-1.8-0.7-2.4c-0.5-0.6-1.2-0.8-2-0.8
			c-0.8,0-1.5,0.3-2.1,0.9c-0.6,0.6-0.9,1.4-1.1,2.3H241.9z"/>
		<path class="st11" d="M248.1,133.8h-1.8v-16.3h1.8V133.8z"/>
		<path class="st11" d="M256.3,134c-1.6,0-2.9-0.5-3.9-1.5c-1-1-1.5-2.4-1.5-4.1c0-1.8,0.5-3.3,1.5-4.3c1-1,2.4-1.6,4.1-1.6
			c1.6,0,2.9,0.5,3.8,1.5s1.4,2.4,1.4,4.2c0,1.8-0.5,3.2-1.5,4.2C259.3,133.5,257.9,134,256.3,134z M256.4,124c-1.1,0-2,0.4-2.7,1.2
			c-0.7,0.8-1,1.8-1,3.2c0,1.3,0.3,2.3,1,3.1c0.7,0.8,1.6,1.1,2.7,1.1c1.1,0,2-0.4,2.6-1.1c0.6-0.7,0.9-1.8,0.9-3.1
			c0-1.4-0.3-2.4-0.9-3.2C258.4,124.4,257.5,124,256.4,124z"/>
		<path class="st11" d="M266.4,132.2L266.4,132.2l0,6.6h-1.8v-16h1.8v1.9h0c0.9-1.5,2.1-2.2,3.8-2.2c1.4,0,2.5,0.5,3.3,1.5
			s1.2,2.3,1.2,4c0,1.8-0.4,3.3-1.3,4.4c-0.9,1.1-2.1,1.7-3.7,1.7C268.2,134,267.1,133.4,266.4,132.2z M266.3,127.8v1.5
			c0,0.9,0.3,1.7,0.9,2.3s1.3,0.9,2.2,0.9c1.1,0,1.9-0.4,2.5-1.2c0.6-0.8,0.9-1.9,0.9-3.4c0-1.2-0.3-2.2-0.8-2.9
			c-0.6-0.7-1.3-1-2.3-1c-1,0-1.8,0.4-2.5,1.1C266.6,125.8,266.3,126.7,266.3,127.8z"/>
		<path class="st11" d="M293.1,133.8h-1.8v-6.3c0-1.2-0.2-2.1-0.6-2.6c-0.4-0.5-1-0.8-1.9-0.8c-0.8,0-1.4,0.3-1.9,1
			c-0.5,0.7-0.8,1.5-0.8,2.5v6.3h-1.8v-6.5c0-2.2-0.8-3.2-2.5-3.2c-0.8,0-1.4,0.3-1.9,1c-0.5,0.6-0.8,1.5-0.8,2.5v6.3h-1.8v-11h1.8
			v1.7h0c0.8-1.3,1.9-2,3.4-2c0.8,0,1.4,0.2,2,0.6c0.6,0.4,0.9,1,1.1,1.6c0.8-1.5,2-2.3,3.6-2.3c2.4,0,3.6,1.5,3.6,4.5V133.8z"/>
		<path class="st11" d="M305.2,128.7h-7.8c0,1.2,0.4,2.2,1,2.8c0.6,0.7,1.5,1,2.6,1c1.2,0,2.4-0.4,3.4-1.2v1.7
			c-1,0.7-2.2,1.1-3.8,1.1c-1.6,0-2.8-0.5-3.7-1.5c-0.9-1-1.3-2.4-1.3-4.2c0-1.7,0.5-3.1,1.5-4.2c1-1.1,2.2-1.6,3.6-1.6
			s2.5,0.5,3.3,1.4c0.8,0.9,1.2,2.2,1.2,3.9V128.7z M303.4,127.2c0-1-0.3-1.8-0.7-2.4c-0.5-0.6-1.2-0.8-2-0.8
			c-0.8,0-1.5,0.3-2.1,0.9c-0.6,0.6-0.9,1.4-1.1,2.3H303.4z"/>
		<path class="st11" d="M317,133.8h-1.8v-6.3c0-2.3-0.9-3.5-2.6-3.5c-0.9,0-1.6,0.3-2.2,1c-0.6,0.7-0.9,1.5-0.9,2.5v6.3h-1.8v-11
			h1.8v1.8h0c0.8-1.4,2-2.1,3.6-2.1c1.2,0,2.1,0.4,2.8,1.2c0.6,0.8,1,1.9,1,3.4V133.8z"/>
		<path class="st11" d="M325.4,133.7c-0.4,0.2-1,0.3-1.6,0.3c-1.9,0-2.9-1.1-2.9-3.2v-6.5H319v-1.5h1.9v-2.7l1.8-0.6v3.3h2.8v1.5
			h-2.8v6.2c0,0.7,0.1,1.3,0.4,1.6c0.3,0.3,0.7,0.5,1.2,0.5c0.4,0,0.8-0.1,1.1-0.4V133.7z"/>
		<path class="st11" d="M40.8,162.1h-5.9v-1.4h5.9V162.1z"/>
		<path class="st11" d="M50.2,167.5v-15.4h4.4c1.3,0,2.4,0.3,3.2,1c0.8,0.7,1.2,1.5,1.2,2.5c0,0.9-0.2,1.6-0.7,2.3
			c-0.5,0.6-1.1,1.1-2,1.4v0c1,0.1,1.9,0.5,2.5,1.2c0.6,0.7,0.9,1.5,0.9,2.6c0,1.3-0.5,2.4-1.4,3.2c-0.9,0.8-2.1,1.2-3.6,1.2H50.2z
			 M52,153.8v5h1.8c1,0,1.8-0.2,2.3-0.7c0.6-0.5,0.8-1.1,0.8-2c0-1.5-1-2.2-2.9-2.2H52z M52,160.4v5.5h2.4c1.1,0,1.9-0.3,2.5-0.8
			c0.6-0.5,0.9-1.2,0.9-2.1c0-1.8-1.2-2.7-3.7-2.7H52z"/>
		<path class="st11" d="M68.3,158.3c-0.3-0.2-0.8-0.4-1.3-0.4c-0.8,0-1.4,0.4-1.9,1.1c-0.5,0.7-0.8,1.7-0.8,2.9v5.6h-1.8v-11h1.8
			v2.3h0c0.3-0.8,0.6-1.4,1.1-1.8s1.1-0.6,1.7-0.6c0.5,0,0.8,0,1.1,0.2V158.3z"/>
		<path class="st11" d="M78.1,167.5h-1.8v-1.7h0c-0.8,1.3-1.9,2-3.4,2c-1.1,0-2-0.3-2.6-0.9c-0.6-0.6-0.9-1.3-0.9-2.3
			c0-2.1,1.2-3.2,3.6-3.6l3.3-0.5c0-1.9-0.8-2.8-2.3-2.8c-1.3,0-2.5,0.5-3.6,1.4v-1.8c1.1-0.7,2.3-1,3.7-1c2.6,0,3.9,1.4,3.9,4.1
			V167.5z M76.3,162l-2.7,0.4c-0.8,0.1-1.4,0.3-1.8,0.6c-0.4,0.3-0.6,0.8-0.6,1.5c0,0.5,0.2,1,0.6,1.3c0.4,0.3,0.9,0.5,1.5,0.5
			c0.9,0,1.6-0.3,2.2-0.9c0.6-0.6,0.9-1.4,0.9-2.3V162z"/>
		<path class="st11" d="M90.5,167.5h-1.8v-6.3c0-2.3-0.9-3.5-2.6-3.5c-0.9,0-1.6,0.3-2.2,1c-0.6,0.7-0.9,1.5-0.9,2.5v6.3h-1.8v-11
			h1.8v1.8h0c0.8-1.4,2-2.1,3.6-2.1c1.2,0,2.1,0.4,2.8,1.2c0.6,0.8,1,1.9,1,3.4V167.5z"/>
		<path class="st11" d="M103.2,167.5h-1.8v-1.9h0c-0.8,1.4-2.1,2.1-3.8,2.1c-1.4,0-2.5-0.5-3.3-1.5s-1.2-2.3-1.2-4
			c0-1.8,0.5-3.3,1.4-4.4c0.9-1.1,2.1-1.6,3.7-1.6c1.5,0,2.6,0.6,3.3,1.8h0v-6.8h1.8V167.5z M101.4,162.6V161c0-0.9-0.3-1.6-0.9-2.3
			c-0.6-0.6-1.3-0.9-2.2-0.9c-1.1,0-1.9,0.4-2.5,1.2c-0.6,0.8-0.9,1.9-0.9,3.3c0,1.3,0.3,2.3,0.9,3s1.4,1.1,2.4,1.1
			c1,0,1.8-0.4,2.4-1.1S101.4,163.7,101.4,162.6z"/>
		<path class="st11" d="M107.7,153.8c-0.3,0-0.6-0.1-0.8-0.3c-0.2-0.2-0.3-0.5-0.3-0.8c0-0.3,0.1-0.6,0.3-0.8
			c0.2-0.2,0.5-0.3,0.8-0.3c0.3,0,0.6,0.1,0.8,0.3c0.2,0.2,0.3,0.5,0.3,0.8c0,0.3-0.1,0.6-0.3,0.8
			C108.3,153.7,108,153.8,107.7,153.8z M108.5,167.5h-1.8v-11h1.8V167.5z"/>
		<path class="st11" d="M121.2,167.5h-1.8v-6.3c0-2.3-0.9-3.5-2.6-3.5c-0.9,0-1.6,0.3-2.2,1c-0.6,0.7-0.9,1.5-0.9,2.5v6.3h-1.8v-11
			h1.8v1.8h0c0.8-1.4,2-2.1,3.6-2.1c1.2,0,2.1,0.4,2.8,1.2c0.6,0.8,1,1.9,1,3.4V167.5z"/>
		<path class="st11" d="M133.9,166.7c0,4-1.9,6.1-5.8,6.1c-1.4,0-2.5-0.3-3.6-0.8v-1.8c1.2,0.7,2.4,1,3.5,1c2.7,0,4.1-1.4,4.1-4.3
			v-1.2h0c-0.8,1.4-2.1,2.1-3.8,2.1c-1.4,0-2.5-0.5-3.3-1.5c-0.8-1-1.2-2.3-1.2-3.9c0-1.9,0.4-3.3,1.3-4.5s2.1-1.7,3.7-1.7
			c1.5,0,2.6,0.6,3.3,1.8h0v-1.5h1.8V166.7z M132.1,162.6V161c0-0.9-0.3-1.6-0.9-2.2s-1.3-0.9-2.2-0.9c-1.1,0-1.9,0.4-2.6,1.2
			c-0.6,0.8-0.9,1.9-0.9,3.3c0,1.2,0.3,2.2,0.9,2.9s1.4,1.1,2.3,1.1c1,0,1.8-0.4,2.4-1.1C131.8,164.6,132.1,163.7,132.1,162.6z"/>
		<path class="st11" d="M40.8,195.9h-5.9v-1.4h5.9V195.9z"/>
		<path class="st11" d="M60.7,200.7c-1.1,0.6-2.6,0.9-4.2,0.9c-2.2,0-3.9-0.7-5.3-2.1c-1.3-1.4-2-3.3-2-5.5c0-2.5,0.7-4.4,2.2-6
			c1.5-1.5,3.4-2.3,5.6-2.3c1.5,0,2.7,0.2,3.6,0.6v1.9c-1.1-0.6-2.3-0.9-3.6-0.9c-1.8,0-3.2,0.6-4.3,1.8c-1.1,1.2-1.6,2.8-1.6,4.7
			c0,1.9,0.5,3.4,1.5,4.5s2.4,1.7,4,1.7c1.5,0,2.9-0.3,4-1V200.7z"/>
		<path class="st11" d="M71.4,201.3h-1.8v-1.7h0c-0.8,1.3-1.9,2-3.4,2c-1.1,0-2-0.3-2.6-0.9c-0.6-0.6-0.9-1.3-0.9-2.3
			c0-2.1,1.2-3.2,3.6-3.6l3.3-0.5c0-1.9-0.8-2.8-2.3-2.8c-1.3,0-2.5,0.5-3.6,1.4v-1.8c1.1-0.7,2.3-1,3.7-1c2.6,0,3.9,1.4,3.9,4.1
			V201.3z M69.7,195.8l-2.7,0.4c-0.8,0.1-1.4,0.3-1.8,0.6c-0.4,0.3-0.6,0.8-0.6,1.5c0,0.5,0.2,1,0.6,1.3c0.4,0.3,0.9,0.5,1.5,0.5
			c0.9,0,1.6-0.3,2.2-0.9c0.6-0.6,0.9-1.4,0.9-2.3V195.8z"/>
		<path class="st11" d="M74.1,200.9V199c1,0.7,2,1.1,3.2,1.1c1.5,0,2.3-0.5,2.3-1.5c0-0.3-0.1-0.5-0.2-0.7c-0.1-0.2-0.3-0.4-0.5-0.5
			s-0.5-0.3-0.8-0.4s-0.6-0.3-1-0.4c-0.5-0.2-0.9-0.4-1.3-0.6c-0.4-0.2-0.7-0.4-0.9-0.7c-0.2-0.2-0.4-0.5-0.6-0.8
			c-0.1-0.3-0.2-0.7-0.2-1.1c0-0.5,0.1-1,0.4-1.4s0.6-0.7,0.9-1c0.4-0.3,0.8-0.5,1.3-0.6s1-0.2,1.6-0.2c1,0,1.8,0.2,2.6,0.5v1.8
			c-0.8-0.5-1.7-0.8-2.8-0.8c-0.3,0-0.6,0-0.9,0.1s-0.5,0.2-0.7,0.3c-0.2,0.1-0.3,0.3-0.4,0.5s-0.2,0.4-0.2,0.6
			c0,0.3,0.1,0.5,0.2,0.7c0.1,0.2,0.3,0.4,0.5,0.5s0.4,0.3,0.7,0.4c0.3,0.1,0.6,0.3,1,0.4c0.5,0.2,0.9,0.4,1.3,0.6
			c0.4,0.2,0.7,0.4,1,0.7c0.3,0.2,0.5,0.5,0.6,0.9c0.1,0.3,0.2,0.7,0.2,1.1c0,0.5-0.1,1-0.4,1.4s-0.6,0.7-1,1s-0.9,0.5-1.4,0.6
			c-0.5,0.1-1.1,0.2-1.6,0.2C75.9,201.6,74.9,201.3,74.1,200.9z"/>
		<path class="st11" d="M92.9,196.3h-7.8c0,1.2,0.4,2.2,1,2.8c0.6,0.7,1.5,1,2.6,1c1.2,0,2.4-0.4,3.4-1.2v1.7
			c-1,0.7-2.2,1.1-3.8,1.1c-1.6,0-2.8-0.5-3.7-1.5c-0.9-1-1.3-2.4-1.3-4.2c0-1.7,0.5-3.1,1.5-4.2c1-1.1,2.2-1.6,3.6-1.6
			s2.5,0.5,3.3,1.4c0.8,0.9,1.2,2.2,1.2,3.9V196.3z M91.1,194.8c0-1-0.3-1.8-0.7-2.4c-0.5-0.6-1.2-0.8-2-0.8c-0.8,0-1.5,0.3-2.1,0.9
			c-0.6,0.6-0.9,1.4-1.1,2.3H91.1z"/>
		<path class="st11" d="M101.1,200.7v-2.1c0.2,0.2,0.5,0.4,0.9,0.6s0.7,0.3,1.1,0.4c0.4,0.1,0.8,0.2,1.1,0.3
			c0.4,0.1,0.7,0.1,1.1,0.1c1.1,0,1.9-0.2,2.5-0.6c0.5-0.4,0.8-1,0.8-1.8c0-0.4-0.1-0.8-0.3-1.1c-0.2-0.3-0.4-0.6-0.8-0.8
			c-0.3-0.3-0.7-0.5-1.1-0.7s-0.9-0.5-1.4-0.7c-0.5-0.3-1-0.5-1.5-0.8c-0.5-0.3-0.9-0.6-1.2-0.9c-0.3-0.3-0.6-0.7-0.8-1.1
			c-0.2-0.4-0.3-0.9-0.3-1.5c0-0.7,0.2-1.3,0.5-1.8s0.7-0.9,1.2-1.3c0.5-0.3,1.1-0.6,1.7-0.8c0.6-0.2,1.3-0.2,2-0.2
			c1.5,0,2.6,0.2,3.3,0.5v2c-0.9-0.6-2.1-0.9-3.5-0.9c-0.4,0-0.8,0-1.2,0.1c-0.4,0.1-0.7,0.2-1.1,0.4c-0.3,0.2-0.6,0.4-0.8,0.7
			c-0.2,0.3-0.3,0.7-0.3,1.1c0,0.4,0.1,0.7,0.2,1c0.1,0.3,0.4,0.5,0.6,0.8c0.3,0.2,0.6,0.5,1,0.7s0.9,0.5,1.4,0.7
			c0.5,0.3,1.1,0.6,1.6,0.9c0.5,0.3,0.9,0.6,1.3,1c0.4,0.4,0.7,0.8,0.9,1.2c0.2,0.4,0.3,1,0.3,1.5c0,0.8-0.1,1.4-0.4,1.9
			c-0.3,0.5-0.7,1-1.2,1.3c-0.5,0.3-1.1,0.6-1.7,0.7c-0.7,0.1-1.4,0.2-2.1,0.2c-0.2,0-0.5,0-0.9-0.1s-0.7-0.1-1.1-0.2
			c-0.4-0.1-0.7-0.2-1.1-0.3C101.6,200.9,101.3,200.8,101.1,200.7z"/>
		<path class="st11" d="M118.4,201.2c-0.4,0.2-1,0.3-1.6,0.3c-1.9,0-2.9-1.1-2.9-3.2v-6.5h-1.9v-1.5h1.9v-2.7l1.8-0.6v3.3h2.8v1.5
			h-2.8v6.2c0,0.7,0.1,1.3,0.4,1.6c0.3,0.3,0.7,0.5,1.2,0.5c0.4,0,0.8-0.1,1.1-0.4V201.2z"/>
		<path class="st11" d="M129.6,201.3h-1.8v-1.7h0c-0.7,1.3-1.9,2-3.4,2c-2.6,0-3.9-1.6-3.9-4.7v-6.6h1.7v6.3c0,2.3,0.9,3.5,2.7,3.5
			c0.9,0,1.6-0.3,2.1-0.9c0.6-0.6,0.8-1.5,0.8-2.5v-6.3h1.8V201.3z"/>
		<path class="st11" d="M142.5,201.3h-1.8v-1.9h0c-0.8,1.4-2.1,2.1-3.8,2.1c-1.4,0-2.5-0.5-3.3-1.5s-1.2-2.3-1.2-4
			c0-1.8,0.5-3.3,1.4-4.4c0.9-1.1,2.1-1.6,3.7-1.6c1.5,0,2.6,0.6,3.3,1.8h0V185h1.8V201.3z M140.8,196.3v-1.6c0-0.9-0.3-1.6-0.9-2.3
			c-0.6-0.6-1.3-0.9-2.2-0.9c-1.1,0-1.9,0.4-2.5,1.2c-0.6,0.8-0.9,1.9-0.9,3.3c0,1.3,0.3,2.3,0.9,3s1.4,1.1,2.4,1.1
			c1,0,1.8-0.4,2.4-1.1S140.8,197.4,140.8,196.3z"/>
		<path class="st11" d="M147,187.5c-0.3,0-0.6-0.1-0.8-0.3c-0.2-0.2-0.3-0.5-0.3-0.8c0-0.3,0.1-0.6,0.3-0.8c0.2-0.2,0.5-0.3,0.8-0.3
			c0.3,0,0.6,0.1,0.8,0.3c0.2,0.2,0.3,0.5,0.3,0.8c0,0.3-0.1,0.6-0.3,0.8C147.6,187.4,147.3,187.5,147,187.5z M147.8,201.3h-1.8v-11
			h1.8V201.3z"/>
		<path class="st11" d="M160.2,196.3h-7.8c0,1.2,0.4,2.2,1,2.8c0.6,0.7,1.5,1,2.6,1c1.2,0,2.4-0.4,3.4-1.2v1.7
			c-1,0.7-2.2,1.1-3.8,1.1c-1.6,0-2.8-0.5-3.7-1.5c-0.9-1-1.3-2.4-1.3-4.2c0-1.7,0.5-3.1,1.5-4.2c1-1.1,2.2-1.6,3.6-1.6
			s2.5,0.5,3.3,1.4c0.8,0.9,1.2,2.2,1.2,3.9V196.3z M158.4,194.8c0-1-0.3-1.8-0.7-2.4c-0.5-0.6-1.2-0.8-2-0.8
			c-0.8,0-1.5,0.3-2.1,0.9c-0.6,0.6-0.9,1.4-1.1,2.3H158.4z"/>
		<path class="st11" d="M162.2,200.9V199c1,0.7,2,1.1,3.2,1.1c1.5,0,2.3-0.5,2.3-1.5c0-0.3-0.1-0.5-0.2-0.7
			c-0.1-0.2-0.3-0.4-0.5-0.5s-0.5-0.3-0.8-0.4s-0.6-0.3-1-0.4c-0.5-0.2-0.9-0.4-1.3-0.6c-0.4-0.2-0.7-0.4-0.9-0.7
			c-0.2-0.2-0.4-0.5-0.6-0.8c-0.1-0.3-0.2-0.7-0.2-1.1c0-0.5,0.1-1,0.4-1.4s0.6-0.7,0.9-1c0.4-0.3,0.8-0.5,1.3-0.6s1-0.2,1.6-0.2
			c1,0,1.8,0.2,2.6,0.5v1.8c-0.8-0.5-1.7-0.8-2.8-0.8c-0.3,0-0.6,0-0.9,0.1s-0.5,0.2-0.7,0.3c-0.2,0.1-0.3,0.3-0.4,0.5
			s-0.2,0.4-0.2,0.6c0,0.3,0.1,0.5,0.2,0.7c0.1,0.2,0.3,0.4,0.5,0.5s0.4,0.3,0.7,0.4c0.3,0.1,0.6,0.3,1,0.4c0.5,0.2,0.9,0.4,1.3,0.6
			c0.4,0.2,0.7,0.4,1,0.7c0.3,0.2,0.5,0.5,0.6,0.9c0.1,0.3,0.2,0.7,0.2,1.1c0,0.5-0.1,1-0.4,1.4s-0.6,0.7-1,1s-0.9,0.5-1.4,0.6
			c-0.5,0.1-1.1,0.2-1.6,0.2C164,201.6,163.1,201.3,162.2,200.9z"/>
		<path class="st11" d="M40.8,229.6h-5.9v-1.4h5.9V229.6z"/>
		<path class="st11" d="M61.7,234c-1.5,0.9-3.3,1.3-5.1,1.3c-2.2,0-4-0.7-5.3-2.1s-2-3.3-2-5.6c0-2.4,0.8-4.3,2.3-5.9
			c1.5-1.5,3.4-2.3,5.7-2.3c1.7,0,3.1,0.3,4.2,0.8v2c-1.2-0.8-2.7-1.2-4.4-1.2c-1.7,0-3.1,0.6-4.2,1.8c-1.1,1.2-1.7,2.7-1.7,4.6
			c0,1.9,0.5,3.5,1.5,4.6c1,1.1,2.4,1.7,4.2,1.7c1.2,0,2.2-0.2,3.1-0.7v-4.3h-3.4V227h5.2V234z"/>
		<path class="st11" d="M72.9,235.1h-1.8v-1.7h0c-0.8,1.3-1.9,2-3.4,2c-1.1,0-2-0.3-2.6-0.9c-0.6-0.6-0.9-1.3-0.9-2.3
			c0-2.1,1.2-3.2,3.6-3.6l3.3-0.5c0-1.9-0.8-2.8-2.3-2.8c-1.3,0-2.5,0.5-3.6,1.4v-1.8c1.1-0.7,2.3-1,3.7-1c2.6,0,3.9,1.4,3.9,4.1
			V235.1z M71.2,229.5l-2.7,0.4c-0.8,0.1-1.4,0.3-1.8,0.6c-0.4,0.3-0.6,0.8-0.6,1.5c0,0.5,0.2,1,0.6,1.3c0.4,0.3,0.9,0.5,1.5,0.5
			c0.9,0,1.6-0.3,2.2-0.9c0.6-0.6,0.9-1.4,0.9-2.3V229.5z"/>
		<path class="st11" d="M91.8,235.1h-1.8v-6.3c0-1.2-0.2-2.1-0.6-2.6c-0.4-0.5-1-0.8-1.9-0.8c-0.8,0-1.4,0.3-1.9,1
			c-0.5,0.7-0.8,1.5-0.8,2.5v6.3h-1.8v-6.5c0-2.2-0.8-3.2-2.5-3.2c-0.8,0-1.4,0.3-1.9,1c-0.5,0.6-0.8,1.5-0.8,2.5v6.3h-1.8v-11H78
			v1.7h0c0.8-1.3,1.9-2,3.4-2c0.8,0,1.4,0.2,2,0.6c0.6,0.4,0.9,1,1.1,1.6c0.8-1.5,2-2.3,3.6-2.3c2.4,0,3.6,1.5,3.6,4.5V235.1z"/>
		<path class="st11" d="M104,230h-7.8c0,1.2,0.4,2.2,1,2.8c0.6,0.7,1.5,1,2.6,1c1.2,0,2.4-0.4,3.4-1.2v1.7c-1,0.7-2.2,1.1-3.8,1.1
			c-1.6,0-2.8-0.5-3.7-1.5c-0.9-1-1.3-2.4-1.3-4.2c0-1.7,0.5-3.1,1.5-4.2c1-1.1,2.2-1.6,3.6-1.6s2.5,0.5,3.3,1.4
			c0.8,0.9,1.2,2.2,1.2,3.9V230z M102.2,228.5c0-1-0.3-1.8-0.7-2.4c-0.5-0.6-1.2-0.8-2-0.8c-0.8,0-1.5,0.3-2.1,0.9
			c-0.6,0.6-0.9,1.4-1.1,2.3H102.2z"/>
		<path class="st11" d="M112.9,235.1v-15.4h4.2c5.4,0,8.1,2.5,8.1,7.5c0,2.4-0.8,4.3-2.3,5.7c-1.5,1.4-3.5,2.2-6,2.2H112.9z
			 M114.7,221.3v12.1h2.3c2,0,3.6-0.5,4.7-1.6c1.1-1.1,1.7-2.6,1.7-4.6c0-3.9-2.1-5.9-6.3-5.9H114.7z"/>
		<path class="st11" d="M136.9,230h-7.8c0,1.2,0.4,2.2,1,2.8c0.6,0.7,1.5,1,2.6,1c1.2,0,2.4-0.4,3.4-1.2v1.7c-1,0.7-2.2,1.1-3.8,1.1
			c-1.6,0-2.8-0.5-3.7-1.5c-0.9-1-1.3-2.4-1.3-4.2c0-1.7,0.5-3.1,1.5-4.2c1-1.1,2.2-1.6,3.6-1.6s2.5,0.5,3.3,1.4
			c0.8,0.9,1.2,2.2,1.2,3.9V230z M135.1,228.5c0-1-0.3-1.8-0.7-2.4c-0.5-0.6-1.2-0.8-2-0.8c-0.8,0-1.5,0.3-2.1,0.9
			c-0.6,0.6-0.9,1.4-1.1,2.3H135.1z"/>
		<path class="st11" d="M138.9,234.7v-1.9c1,0.7,2,1.1,3.2,1.1c1.5,0,2.3-0.5,2.3-1.5c0-0.3-0.1-0.5-0.2-0.7
			c-0.1-0.2-0.3-0.4-0.5-0.5s-0.5-0.3-0.8-0.4s-0.6-0.3-1-0.4c-0.5-0.2-0.9-0.4-1.3-0.6c-0.4-0.2-0.7-0.4-0.9-0.7
			c-0.2-0.2-0.4-0.5-0.6-0.8c-0.1-0.3-0.2-0.7-0.2-1.1c0-0.5,0.1-1,0.4-1.4s0.6-0.7,0.9-1c0.4-0.3,0.8-0.5,1.3-0.6s1-0.2,1.6-0.2
			c1,0,1.8,0.2,2.6,0.5v1.8c-0.8-0.5-1.7-0.8-2.8-0.8c-0.3,0-0.6,0-0.9,0.1s-0.5,0.2-0.7,0.3c-0.2,0.1-0.3,0.3-0.4,0.5
			s-0.2,0.4-0.2,0.6c0,0.3,0.1,0.5,0.2,0.7c0.1,0.2,0.3,0.4,0.5,0.5s0.4,0.3,0.7,0.4c0.3,0.1,0.6,0.3,1,0.4c0.5,0.2,0.9,0.4,1.3,0.6
			c0.4,0.2,0.7,0.4,1,0.7c0.3,0.2,0.5,0.5,0.6,0.9c0.1,0.3,0.2,0.7,0.2,1.1c0,0.5-0.1,1-0.4,1.4s-0.6,0.7-1,1s-0.9,0.5-1.4,0.6
			c-0.5,0.1-1.1,0.2-1.6,0.2C140.7,235.3,139.7,235.1,138.9,234.7z"/>
		<path class="st11" d="M149.8,221.3c-0.3,0-0.6-0.1-0.8-0.3c-0.2-0.2-0.3-0.5-0.3-0.8c0-0.3,0.1-0.6,0.3-0.8
			c0.2-0.2,0.5-0.3,0.8-0.3c0.3,0,0.6,0.1,0.8,0.3c0.2,0.2,0.3,0.5,0.3,0.8c0,0.3-0.1,0.6-0.3,0.8
			C150.4,221.2,150.1,221.3,149.8,221.3z M150.6,235.1h-1.8v-11h1.8V235.1z"/>
		<path class="st11" d="M163.6,234.2c0,4-1.9,6.1-5.8,6.1c-1.4,0-2.5-0.3-3.6-0.8v-1.8c1.2,0.7,2.4,1,3.5,1c2.7,0,4.1-1.4,4.1-4.3
			v-1.2h0c-0.8,1.4-2.1,2.1-3.8,2.1c-1.4,0-2.5-0.5-3.3-1.5c-0.8-1-1.2-2.3-1.2-3.9c0-1.9,0.4-3.3,1.3-4.5s2.1-1.7,3.7-1.7
			c1.5,0,2.6,0.6,3.3,1.8h0v-1.5h1.8V234.2z M161.8,230.1v-1.6c0-0.9-0.3-1.6-0.9-2.2s-1.3-0.9-2.2-0.9c-1.1,0-1.9,0.4-2.6,1.2
			c-0.6,0.8-0.9,1.9-0.9,3.3c0,1.2,0.3,2.2,0.9,2.9s1.4,1.1,2.3,1.1c1,0,1.8-0.4,2.4-1.1C161.5,232.1,161.8,231.2,161.8,230.1z"/>
		<path class="st11" d="M176.3,235.1h-1.8v-6.3c0-2.3-0.9-3.5-2.6-3.5c-0.9,0-1.6,0.3-2.2,1c-0.6,0.7-0.9,1.5-0.9,2.5v6.3h-1.8v-11
			h1.8v1.8h0c0.8-1.4,2-2.1,3.6-2.1c1.2,0,2.1,0.4,2.8,1.2c0.6,0.8,1,1.9,1,3.4V235.1z"/>
		<path class="st11" d="M40.8,263.4h-5.9V262h5.9V263.4z"/>
		<path class="st11" d="M65.9,268.8h-1.8v-10.3c0-0.8,0-1.8,0.2-3h0c-0.2,0.7-0.3,1.2-0.5,1.5l-5.3,11.8h-0.9l-5.2-11.7
			c-0.2-0.3-0.3-0.9-0.5-1.6h0c0.1,0.6,0.1,1.6,0.1,3v10.3h-1.7v-15.4h2.4l4.7,10.7c0.4,0.8,0.6,1.4,0.7,1.8h0.1
			c0.3-0.8,0.6-1.5,0.7-1.9l4.8-10.7h2.3V268.8z"/>
		<path class="st11" d="M74.3,269.1c-1.6,0-2.9-0.5-3.9-1.5c-1-1-1.5-2.4-1.5-4.1c0-1.8,0.5-3.3,1.5-4.3c1-1,2.4-1.6,4.1-1.6
			c1.6,0,2.9,0.5,3.8,1.5s1.4,2.4,1.4,4.2c0,1.8-0.5,3.2-1.5,4.2C77.3,268.6,76,269.1,74.3,269.1z M74.4,259.1c-1.1,0-2,0.4-2.7,1.2
			c-0.7,0.8-1,1.8-1,3.2c0,1.3,0.3,2.3,1,3.1c0.7,0.8,1.6,1.1,2.7,1.1c1.1,0,2-0.4,2.6-1.1c0.6-0.7,0.9-1.8,0.9-3.1
			c0-1.4-0.3-2.4-0.9-3.2C76.4,259.4,75.6,259.1,74.4,259.1z"/>
		<path class="st11" d="M87.7,268.7c-0.4,0.2-1,0.3-1.6,0.3c-1.9,0-2.9-1.1-2.9-3.2v-6.5h-1.9v-1.5h1.9v-2.7l1.8-0.6v3.3h2.8v1.5
			h-2.8v6.2c0,0.7,0.1,1.3,0.4,1.6c0.3,0.3,0.7,0.5,1.2,0.5c0.4,0,0.8-0.1,1.1-0.4V268.7z"/>
		<path class="st11" d="M90.9,255.1c-0.3,0-0.6-0.1-0.8-0.3c-0.2-0.2-0.3-0.5-0.3-0.8c0-0.3,0.1-0.6,0.3-0.8
			c0.2-0.2,0.5-0.3,0.8-0.3c0.3,0,0.6,0.1,0.8,0.3c0.2,0.2,0.3,0.5,0.3,0.8c0,0.3-0.1,0.6-0.3,0.8C91.5,254.9,91.3,255.1,90.9,255.1
			z M91.8,268.8H90v-11h1.8V268.8z"/>
		<path class="st11" d="M99.9,269.1c-1.6,0-2.9-0.5-3.9-1.5c-1-1-1.5-2.4-1.5-4.1c0-1.8,0.5-3.3,1.5-4.3c1-1,2.4-1.6,4.1-1.6
			c1.6,0,2.9,0.5,3.8,1.5s1.4,2.4,1.4,4.2c0,1.8-0.5,3.2-1.5,4.2C102.9,268.6,101.6,269.1,99.9,269.1z M100.1,259.1
			c-1.1,0-2,0.4-2.7,1.2c-0.7,0.8-1,1.8-1,3.2c0,1.3,0.3,2.3,1,3.1c0.7,0.8,1.6,1.1,2.7,1.1c1.1,0,2-0.4,2.6-1.1
			c0.6-0.7,0.9-1.8,0.9-3.1c0-1.4-0.3-2.4-0.9-3.2C102.1,259.4,101.2,259.1,100.1,259.1z"/>
		<path class="st11" d="M117.3,268.8h-1.8v-6.3c0-2.3-0.9-3.5-2.6-3.5c-0.9,0-1.6,0.3-2.2,1c-0.6,0.7-0.9,1.5-0.9,2.5v6.3h-1.8v-11
			h1.8v1.8h0c0.8-1.4,2-2.1,3.6-2.1c1.2,0,2.1,0.4,2.8,1.2c0.6,0.8,1,1.9,1,3.4V268.8z"/>
		<path class="st11" d="M138.4,267.8c-1.5,0.9-3.3,1.3-5.1,1.3c-2.2,0-4-0.7-5.3-2.1s-2-3.3-2-5.6c0-2.4,0.8-4.3,2.3-5.9
			c1.5-1.5,3.4-2.3,5.7-2.3c1.7,0,3.1,0.3,4.2,0.8v2c-1.2-0.8-2.7-1.2-4.4-1.2c-1.7,0-3.1,0.6-4.2,1.8c-1.1,1.2-1.7,2.7-1.7,4.6
			c0,1.9,0.5,3.5,1.5,4.6c1,1.1,2.4,1.7,4.2,1.7c1.2,0,2.2-0.2,3.1-0.7v-4.3h-3.4v-1.6h5.2V267.8z"/>
		<path class="st11" d="M147.5,259.6c-0.3-0.2-0.8-0.4-1.3-0.4c-0.8,0-1.4,0.4-1.9,1.1c-0.5,0.7-0.8,1.7-0.8,2.9v5.6h-1.8v-11h1.8
			v2.3h0c0.3-0.8,0.6-1.4,1.1-1.8s1.1-0.6,1.7-0.6c0.5,0,0.8,0,1.1,0.2V259.6z"/>
		<path class="st11" d="M157.2,268.8h-1.8v-1.7h0c-0.8,1.3-1.9,2-3.4,2c-1.1,0-2-0.3-2.6-0.9c-0.6-0.6-0.9-1.3-0.9-2.3
			c0-2.1,1.2-3.2,3.6-3.6l3.3-0.5c0-1.9-0.8-2.8-2.3-2.8c-1.3,0-2.5,0.5-3.6,1.4v-1.8c1.1-0.7,2.3-1,3.7-1c2.6,0,3.9,1.4,3.9,4.1
			V268.8z M155.5,263.3l-2.7,0.4c-0.8,0.1-1.4,0.3-1.8,0.6c-0.4,0.3-0.6,0.8-0.6,1.5c0,0.5,0.2,1,0.6,1.3c0.4,0.3,0.9,0.5,1.5,0.5
			c0.9,0,1.6-0.3,2.2-0.9c0.6-0.6,0.9-1.4,0.9-2.3V263.3z"/>
		<path class="st11" d="M162.4,267.2L162.4,267.2l0,6.6h-1.8v-16h1.8v1.9h0c0.9-1.5,2.1-2.2,3.8-2.2c1.4,0,2.5,0.5,3.3,1.5
			s1.2,2.3,1.2,4c0,1.8-0.4,3.3-1.3,4.4c-0.9,1.1-2.1,1.7-3.7,1.7C164.2,269.1,163.1,268.5,162.4,267.2z M162.3,262.8v1.5
			c0,0.9,0.3,1.7,0.9,2.3s1.3,0.9,2.2,0.9c1.1,0,1.9-0.4,2.5-1.2c0.6-0.8,0.9-1.9,0.9-3.4c0-1.2-0.3-2.2-0.8-2.9
			c-0.6-0.7-1.3-1-2.3-1c-1,0-1.8,0.4-2.5,1.1C162.6,260.8,162.3,261.7,162.3,262.8z"/>
		<path class="st11" d="M182.6,268.8h-1.8v-6.3c0-2.3-0.9-3.4-2.6-3.4c-0.9,0-1.6,0.3-2.2,1c-0.6,0.7-0.9,1.5-0.9,2.5v6.2h-1.8
			v-16.3h1.8v7.1h0c0.8-1.4,2-2.1,3.6-2.1c2.5,0,3.7,1.5,3.7,4.5V268.8z"/>
		<path class="st11" d="M186.8,255.1c-0.3,0-0.6-0.1-0.8-0.3c-0.2-0.2-0.3-0.5-0.3-0.8c0-0.3,0.1-0.6,0.3-0.8
			c0.2-0.2,0.5-0.3,0.8-0.3c0.3,0,0.6,0.1,0.8,0.3c0.2,0.2,0.3,0.5,0.3,0.8c0,0.3-0.1,0.6-0.3,0.8
			C187.4,254.9,187.1,255.1,186.8,255.1z M187.7,268.8h-1.8v-11h1.8V268.8z"/>
		<path class="st11" d="M198.7,268.3c-0.8,0.5-1.8,0.8-3,0.8c-1.6,0-2.8-0.5-3.8-1.5c-1-1-1.4-2.3-1.4-4c0-1.8,0.5-3.3,1.6-4.4
			s2.4-1.6,4.2-1.6c1,0,1.8,0.2,2.6,0.5v1.8c-0.8-0.6-1.7-0.9-2.6-0.9c-1.1,0-2,0.4-2.8,1.2s-1.1,1.9-1.1,3.2c0,1.3,0.3,2.3,1,3
			c0.7,0.7,1.6,1.1,2.7,1.1c1,0,1.9-0.3,2.7-1V268.3z"/>
		<path class="st11" d="M200.7,268.4v-1.9c1,0.7,2,1.1,3.2,1.1c1.5,0,2.3-0.5,2.3-1.5c0-0.3-0.1-0.5-0.2-0.7
			c-0.1-0.2-0.3-0.4-0.5-0.5s-0.5-0.3-0.8-0.4s-0.6-0.3-1-0.4c-0.5-0.2-0.9-0.4-1.3-0.6c-0.4-0.2-0.7-0.4-0.9-0.7
			c-0.2-0.2-0.4-0.5-0.6-0.8c-0.1-0.3-0.2-0.7-0.2-1.1c0-0.5,0.1-1,0.4-1.4s0.6-0.7,0.9-1c0.4-0.3,0.8-0.5,1.3-0.6s1-0.2,1.6-0.2
			c1,0,1.8,0.2,2.6,0.5v1.8c-0.8-0.5-1.7-0.8-2.8-0.8c-0.3,0-0.6,0-0.9,0.1s-0.5,0.2-0.7,0.3c-0.2,0.1-0.3,0.3-0.4,0.5
			s-0.2,0.4-0.2,0.6c0,0.3,0.1,0.5,0.2,0.7c0.1,0.2,0.3,0.4,0.5,0.5s0.4,0.3,0.7,0.4c0.3,0.1,0.6,0.3,1,0.4c0.5,0.2,0.9,0.4,1.3,0.6
			c0.4,0.2,0.7,0.4,1,0.7c0.3,0.2,0.5,0.5,0.6,0.9c0.1,0.3,0.2,0.7,0.2,1.1c0,0.5-0.1,1-0.4,1.4s-0.6,0.7-1,1s-0.9,0.5-1.4,0.6
			c-0.5,0.1-1.1,0.2-1.6,0.2C202.5,269.1,201.5,268.9,200.7,268.4z"/>
		<path class="st11" d="M40.8,297.2h-5.9v-1.4h5.9V297.2z"/>
		<path class="st11" d="M61.5,296.4c0,4.3-1.9,6.5-5.8,6.5c-3.7,0-5.6-2.1-5.6-6.2v-9.4h1.8v9.3c0,3.2,1.3,4.7,4,4.7
			c2.6,0,3.9-1.5,3.9-4.6v-9.5h1.8V296.4z"/>
		<path class="st11" d="M64.4,302.2v-1.9c1,0.7,2,1.1,3.2,1.1c1.5,0,2.3-0.5,2.3-1.5c0-0.3-0.1-0.5-0.2-0.7
			c-0.1-0.2-0.3-0.4-0.5-0.5s-0.5-0.3-0.8-0.4s-0.6-0.3-1-0.4c-0.5-0.2-0.9-0.4-1.3-0.6c-0.4-0.2-0.7-0.4-0.9-0.7
			c-0.2-0.2-0.4-0.5-0.6-0.8c-0.1-0.3-0.2-0.7-0.2-1.1c0-0.5,0.1-1,0.4-1.4s0.6-0.7,0.9-1c0.4-0.3,0.8-0.5,1.3-0.6s1-0.2,1.6-0.2
			c1,0,1.8,0.2,2.6,0.5v1.8c-0.8-0.5-1.7-0.8-2.8-0.8c-0.3,0-0.6,0-0.9,0.1s-0.5,0.2-0.7,0.3c-0.2,0.1-0.3,0.3-0.4,0.5
			s-0.2,0.4-0.2,0.6c0,0.3,0.1,0.5,0.2,0.7c0.1,0.2,0.3,0.4,0.5,0.5s0.4,0.3,0.7,0.4c0.3,0.1,0.6,0.3,1,0.4c0.5,0.2,0.9,0.4,1.3,0.6
			c0.4,0.2,0.7,0.4,1,0.7c0.3,0.2,0.5,0.5,0.6,0.9c0.1,0.3,0.2,0.7,0.2,1.1c0,0.5-0.1,1-0.4,1.4s-0.6,0.7-1,1s-0.9,0.5-1.4,0.6
			c-0.5,0.1-1.1,0.2-1.6,0.2C66.2,302.8,65.2,302.6,64.4,302.2z"/>
		<path class="st11" d="M82.3,302.6h-1.8v-1.7h0c-0.8,1.3-1.9,2-3.4,2c-1.1,0-2-0.3-2.6-0.9c-0.6-0.6-0.9-1.3-0.9-2.3
			c0-2.1,1.2-3.2,3.6-3.6l3.3-0.5c0-1.9-0.8-2.8-2.3-2.8c-1.3,0-2.5,0.5-3.6,1.4v-1.8c1.1-0.7,2.3-1,3.7-1c2.6,0,3.9,1.4,3.9,4.1
			V302.6z M80.5,297l-2.7,0.4c-0.8,0.1-1.4,0.3-1.8,0.6c-0.4,0.3-0.6,0.8-0.6,1.5c0,0.5,0.2,1,0.6,1.3c0.4,0.3,0.9,0.5,1.5,0.5
			c0.9,0,1.6-0.3,2.2-0.9c0.6-0.6,0.9-1.4,0.9-2.3V297z"/>
		<path class="st11" d="M87.4,301L87.4,301l0,1.6h-1.8v-16.3h1.8v7.2h0c0.9-1.5,2.1-2.2,3.8-2.2c1.4,0,2.5,0.5,3.3,1.5
			c0.8,1,1.2,2.3,1.2,4c0,1.8-0.4,3.3-1.3,4.4c-0.9,1.1-2.1,1.7-3.7,1.7C89.2,302.8,88.1,302.2,87.4,301z M87.3,296.6v1.5
			c0,0.9,0.3,1.7,0.9,2.3s1.3,0.9,2.2,0.9c1.1,0,1.9-0.4,2.5-1.2c0.6-0.8,0.9-1.9,0.9-3.4c0-1.2-0.3-2.2-0.8-2.9
			c-0.6-0.7-1.3-1-2.3-1c-1,0-1.8,0.4-2.5,1.1C87.6,294.6,87.3,295.5,87.3,296.6z"/>
		<path class="st11" d="M99.4,288.8c-0.3,0-0.6-0.1-0.8-0.3c-0.2-0.2-0.3-0.5-0.3-0.8c0-0.3,0.1-0.6,0.3-0.8
			c0.2-0.2,0.5-0.3,0.8-0.3c0.3,0,0.6,0.1,0.8,0.3c0.2,0.2,0.3,0.5,0.3,0.8c0,0.3-0.1,0.6-0.3,0.8C100,288.7,99.7,288.8,99.4,288.8z
			 M100.3,302.6h-1.8v-11h1.8V302.6z"/>
		<path class="st11" d="M105.6,302.6h-1.8v-16.3h1.8V302.6z"/>
		<path class="st11" d="M110,288.8c-0.3,0-0.6-0.1-0.8-0.3c-0.2-0.2-0.3-0.5-0.3-0.8c0-0.3,0.1-0.6,0.3-0.8c0.2-0.2,0.5-0.3,0.8-0.3
			c0.3,0,0.6,0.1,0.8,0.3c0.2,0.2,0.3,0.5,0.3,0.8c0,0.3-0.1,0.6-0.3,0.8C110.6,288.7,110.4,288.8,110,288.8z M110.9,302.6h-1.8v-11
			h1.8V302.6z"/>
		<path class="st11" d="M119.6,302.5c-0.4,0.2-1,0.3-1.6,0.3c-1.9,0-2.9-1.1-2.9-3.2v-6.5h-1.9v-1.5h1.9v-2.7l1.8-0.6v3.3h2.8v1.5
			h-2.8v6.2c0,0.7,0.1,1.3,0.4,1.6c0.3,0.3,0.7,0.5,1.2,0.5c0.4,0,0.8-0.1,1.1-0.4V302.5z"/>
		<path class="st11" d="M130.6,291.6l-5.1,12.7c-0.9,2.3-2.2,3.4-3.8,3.4c-0.5,0-0.8,0-1.1-0.1V306c0.4,0.1,0.7,0.2,1,0.2
			c0.9,0,1.6-0.5,2-1.6l0.9-2.1l-4.3-11h2l3,8.5c0,0.1,0.1,0.4,0.2,0.8h0.1c0-0.2,0.1-0.4,0.2-0.8l3.1-8.5H130.6z"/>
		<path class="st11" d="M147.9,288.8h-4.4v13.8h-1.8v-13.8h-4.4v-1.6h10.7V288.8z"/>
		<path class="st11" d="M158.9,297.5h-7.8c0,1.2,0.4,2.2,1,2.8c0.6,0.7,1.5,1,2.6,1c1.2,0,2.4-0.4,3.4-1.2v1.7
			c-1,0.7-2.2,1.1-3.8,1.1c-1.6,0-2.8-0.5-3.7-1.5c-0.9-1-1.3-2.4-1.3-4.2c0-1.7,0.5-3.1,1.5-4.2c1-1.1,2.2-1.6,3.6-1.6
			s2.5,0.5,3.3,1.4c0.8,0.9,1.2,2.2,1.2,3.9V297.5z M157.1,296c0-1-0.3-1.8-0.7-2.4c-0.5-0.6-1.2-0.8-2-0.8c-0.8,0-1.5,0.3-2.1,0.9
			c-0.6,0.6-0.9,1.4-1.1,2.3H157.1z"/>
		<path class="st11" d="M160.9,302.2v-1.9c1,0.7,2,1.1,3.2,1.1c1.5,0,2.3-0.5,2.3-1.5c0-0.3-0.1-0.5-0.2-0.7
			c-0.1-0.2-0.3-0.4-0.5-0.5s-0.5-0.3-0.8-0.4s-0.6-0.3-1-0.4c-0.5-0.2-0.9-0.4-1.3-0.6c-0.4-0.2-0.7-0.4-0.9-0.7
			c-0.2-0.2-0.4-0.5-0.6-0.8c-0.1-0.3-0.2-0.7-0.2-1.1c0-0.5,0.1-1,0.4-1.4s0.6-0.7,0.9-1c0.4-0.3,0.8-0.5,1.3-0.6s1-0.2,1.6-0.2
			c1,0,1.8,0.2,2.6,0.5v1.8c-0.8-0.5-1.7-0.8-2.8-0.8c-0.3,0-0.6,0-0.9,0.1s-0.5,0.2-0.7,0.3c-0.2,0.1-0.3,0.3-0.4,0.5
			s-0.2,0.4-0.2,0.6c0,0.3,0.1,0.5,0.2,0.7c0.1,0.2,0.3,0.4,0.5,0.5s0.4,0.3,0.7,0.4c0.3,0.1,0.6,0.3,1,0.4c0.5,0.2,0.9,0.4,1.3,0.6
			c0.4,0.2,0.7,0.4,1,0.7c0.3,0.2,0.5,0.5,0.6,0.9c0.1,0.3,0.2,0.7,0.2,1.1c0,0.5-0.1,1-0.4,1.4s-0.6,0.7-1,1s-0.9,0.5-1.4,0.6
			c-0.5,0.1-1.1,0.2-1.6,0.2C162.7,302.8,161.7,302.6,160.9,302.2z"/>
		<path class="st11" d="M176,302.5c-0.4,0.2-1,0.3-1.6,0.3c-1.9,0-2.9-1.1-2.9-3.2v-6.5h-1.9v-1.5h1.9v-2.7l1.8-0.6v3.3h2.8v1.5
			h-2.8v6.2c0,0.7,0.1,1.3,0.4,1.6c0.3,0.3,0.7,0.5,1.2,0.5c0.4,0,0.8-0.1,1.1-0.4V302.5z"/>
		<path class="st11" d="M179.2,288.8c-0.3,0-0.6-0.1-0.8-0.3c-0.2-0.2-0.3-0.5-0.3-0.8c0-0.3,0.1-0.6,0.3-0.8
			c0.2-0.2,0.5-0.3,0.8-0.3c0.3,0,0.6,0.1,0.8,0.3c0.2,0.2,0.3,0.5,0.3,0.8c0,0.3-0.1,0.6-0.3,0.8
			C179.8,288.7,179.5,288.8,179.2,288.8z M180.1,302.6h-1.8v-11h1.8V302.6z"/>
		<path class="st11" d="M192.8,302.6H191v-6.3c0-2.3-0.9-3.5-2.6-3.5c-0.9,0-1.6,0.3-2.2,1c-0.6,0.7-0.9,1.5-0.9,2.5v6.3h-1.8v-11
			h1.8v1.8h0c0.8-1.4,2-2.1,3.6-2.1c1.2,0,2.1,0.4,2.8,1.2c0.6,0.8,1,1.9,1,3.4V302.6z"/>
		<path class="st11" d="M205.4,301.7c0,4-1.9,6.1-5.8,6.1c-1.4,0-2.5-0.3-3.6-0.8v-1.8c1.2,0.7,2.4,1,3.5,1c2.7,0,4.1-1.4,4.1-4.3
			v-1.2h0c-0.8,1.4-2.1,2.1-3.8,2.1c-1.4,0-2.5-0.5-3.3-1.5c-0.8-1-1.2-2.3-1.2-3.9c0-1.9,0.4-3.3,1.3-4.5s2.1-1.7,3.7-1.7
			c1.5,0,2.6,0.6,3.3,1.8h0v-1.5h1.8V301.7z M203.7,297.6V296c0-0.9-0.3-1.6-0.9-2.2s-1.3-0.9-2.2-0.9c-1.1,0-1.9,0.4-2.6,1.2
			c-0.6,0.8-0.9,1.9-0.9,3.3c0,1.2,0.3,2.2,0.9,2.9s1.4,1.1,2.3,1.1c1,0,1.8-0.4,2.4-1.1C203.4,299.6,203.7,298.7,203.7,297.6z"/>
	</g>
	<g>
		<path class="st11" d="M409.5,94.6h-5.9v-1.4h5.9V94.6z"/>
		<path class="st11" d="M430.8,100h-2l-1.6-4.3h-6.5l-1.5,4.3h-2l5.9-15.4h1.9L430.8,100z M426.6,94.1l-2.4-6.6
			c-0.1-0.2-0.2-0.6-0.2-1h0c-0.1,0.4-0.2,0.8-0.2,1l-2.4,6.6H426.6z"/>
		<path class="st11" d="M442.2,100h-1.8v-1.9h0c-0.8,1.4-2.1,2.1-3.8,2.1c-1.4,0-2.5-0.5-3.3-1.5s-1.2-2.3-1.2-4
			c0-1.8,0.5-3.3,1.4-4.4c0.9-1.1,2.1-1.6,3.7-1.6c1.5,0,2.6,0.6,3.3,1.8h0v-6.8h1.8V100z M440.5,95.1v-1.6c0-0.9-0.3-1.6-0.9-2.3
			c-0.6-0.6-1.3-0.9-2.2-0.9c-1.1,0-1.9,0.4-2.5,1.2c-0.6,0.8-0.9,1.9-0.9,3.3c0,1.3,0.3,2.3,0.9,3s1.4,1.1,2.4,1.1
			c1,0,1.8-0.4,2.4-1.1S440.5,96.1,440.5,95.1z"/>
		<path class="st11" d="M450.4,100.3c-1.6,0-2.9-0.5-3.9-1.5c-1-1-1.5-2.4-1.5-4.1c0-1.8,0.5-3.3,1.5-4.3c1-1,2.4-1.6,4.1-1.6
			c1.6,0,2.9,0.5,3.8,1.5s1.4,2.4,1.4,4.2c0,1.8-0.5,3.2-1.5,4.2C453.4,99.8,452,100.3,450.4,100.3z M450.5,90.3
			c-1.1,0-2,0.4-2.7,1.2c-0.7,0.8-1,1.8-1,3.2c0,1.3,0.3,2.3,1,3.1c0.7,0.8,1.6,1.1,2.7,1.1c1.1,0,2-0.4,2.6-1.1
			c0.6-0.7,0.9-1.8,0.9-3.1c0-1.4-0.3-2.4-0.9-3.2C452.5,90.6,451.6,90.3,450.5,90.3z"/>
		<path class="st11" d="M460.5,98.4L460.5,98.4l0,1.6h-1.8V83.8h1.8V91h0c0.9-1.5,2.1-2.2,3.8-2.2c1.4,0,2.5,0.5,3.3,1.5
			c0.8,1,1.2,2.3,1.2,4c0,1.8-0.4,3.3-1.3,4.4c-0.9,1.1-2.1,1.7-3.7,1.7C462.3,100.3,461.2,99.7,460.5,98.4z M460.4,94v1.5
			c0,0.9,0.3,1.7,0.9,2.3s1.3,0.9,2.2,0.9c1.1,0,1.9-0.4,2.5-1.2c0.6-0.8,0.9-1.9,0.9-3.4c0-1.2-0.3-2.2-0.8-2.9
			c-0.6-0.7-1.3-1-2.3-1c-1,0-1.8,0.4-2.5,1.1C460.7,92,460.4,92.9,460.4,94z"/>
		<path class="st11" d="M480.4,95h-7.8c0,1.2,0.4,2.2,1,2.8c0.6,0.7,1.5,1,2.6,1c1.2,0,2.4-0.4,3.4-1.2v1.7c-1,0.7-2.2,1.1-3.8,1.1
			c-1.6,0-2.8-0.5-3.7-1.5c-0.9-1-1.3-2.4-1.3-4.2c0-1.7,0.5-3.1,1.5-4.2c1-1.1,2.2-1.6,3.6-1.6s2.5,0.5,3.3,1.4
			c0.8,0.9,1.2,2.2,1.2,3.9V95z M478.6,93.5c0-1-0.3-1.8-0.7-2.4c-0.5-0.6-1.2-0.8-2-0.8c-0.8,0-1.5,0.3-2.1,0.9
			c-0.6,0.6-0.9,1.4-1.1,2.3H478.6z"/>
		<path class="st11" d="M499.8,99.4c-1.1,0.6-2.6,0.9-4.2,0.9c-2.2,0-3.9-0.7-5.3-2.1c-1.3-1.4-2-3.3-2-5.5c0-2.5,0.7-4.4,2.2-6
			c1.5-1.5,3.4-2.3,5.6-2.3c1.5,0,2.7,0.2,3.6,0.6v1.9c-1.1-0.6-2.3-0.9-3.6-0.9c-1.8,0-3.2,0.6-4.3,1.8c-1.1,1.2-1.6,2.8-1.6,4.7
			c0,1.9,0.5,3.4,1.5,4.5s2.4,1.7,4,1.7c1.5,0,2.9-0.3,4-1V99.4z"/>
		<path class="st11" d="M513.4,99.4c-1.1,0.6-2.6,0.9-4.2,0.9c-2.2,0-3.9-0.7-5.3-2.1c-1.3-1.4-2-3.3-2-5.5c0-2.5,0.7-4.4,2.2-6
			c1.5-1.5,3.4-2.3,5.6-2.3c1.5,0,2.7,0.2,3.6,0.6v1.9c-1.1-0.6-2.3-0.9-3.6-0.9c-1.8,0-3.2,0.6-4.3,1.8c-1.1,1.2-1.6,2.8-1.6,4.7
			c0,1.9,0.5,3.4,1.5,4.5s2.4,1.7,4,1.7c1.5,0,2.9-0.3,4-1V99.4z"/>
		<path class="st11" d="M409.5,128.4h-5.9V127h5.9V128.4z"/>
		<path class="st11" d="M422.2,118.4v1.5h-1.5v12.3h1.5v1.5h-4.8v-1.5h1.5V120h-1.5v-1.5H422.2z"/>
		<path class="st11" d="M433.6,133.8h-1.8v-6.3c0-2.3-0.9-3.5-2.6-3.5c-0.9,0-1.6,0.3-2.2,1c-0.6,0.7-0.9,1.5-0.9,2.5v6.3h-1.8v-11
			h1.8v1.8h0c0.8-1.4,2-2.1,3.6-2.1c1.2,0,2.1,0.4,2.8,1.2c0.6,0.8,1,1.9,1,3.4V133.8z"/>
		<path class="st11" d="M448.6,118.4l-5.7,15.4h-2l-5.6-15.4h2l4.3,12.2c0.1,0.4,0.2,0.8,0.3,1.4h0c0.1-0.4,0.2-0.9,0.4-1.4
			l4.3-12.2H448.6z"/>
		<path class="st11" d="M451.5,120c-0.3,0-0.6-0.1-0.8-0.3c-0.2-0.2-0.3-0.5-0.3-0.8c0-0.3,0.1-0.6,0.3-0.8c0.2-0.2,0.5-0.3,0.8-0.3
			c0.3,0,0.6,0.1,0.8,0.3c0.2,0.2,0.3,0.5,0.3,0.8c0,0.3-0.1,0.6-0.3,0.8C452.1,119.9,451.8,120,451.5,120z M452.4,133.8h-1.8v-11
			h1.8V133.8z"/>
		<path class="st11" d="M455.3,133.4v-1.9c1,0.7,2,1.1,3.2,1.1c1.5,0,2.3-0.5,2.3-1.5c0-0.3-0.1-0.5-0.2-0.7
			c-0.1-0.2-0.3-0.4-0.5-0.5s-0.5-0.3-0.8-0.4s-0.6-0.3-1-0.4c-0.5-0.2-0.9-0.4-1.3-0.6c-0.4-0.2-0.7-0.4-0.9-0.7
			c-0.2-0.2-0.4-0.5-0.6-0.8c-0.1-0.3-0.2-0.7-0.2-1.1c0-0.5,0.1-1,0.4-1.4s0.6-0.7,0.9-1c0.4-0.3,0.8-0.5,1.3-0.6s1-0.2,1.6-0.2
			c1,0,1.8,0.2,2.6,0.5v1.8c-0.8-0.5-1.7-0.8-2.8-0.8c-0.3,0-0.6,0-0.9,0.1s-0.5,0.2-0.7,0.3c-0.2,0.1-0.3,0.3-0.4,0.5
			s-0.2,0.4-0.2,0.6c0,0.3,0.1,0.5,0.2,0.7c0.1,0.2,0.3,0.4,0.5,0.5s0.4,0.3,0.7,0.4c0.3,0.1,0.6,0.3,1,0.4c0.5,0.2,0.9,0.4,1.3,0.6
			c0.4,0.2,0.7,0.4,1,0.7c0.3,0.2,0.5,0.5,0.6,0.9c0.1,0.3,0.2,0.7,0.2,1.1c0,0.5-0.1,1-0.4,1.4s-0.6,0.7-1,1s-0.9,0.5-1.4,0.6
			c-0.5,0.1-1.1,0.2-1.6,0.2C457.1,134,456.1,133.8,455.3,133.4z"/>
		<path class="st11" d="M466.1,120c-0.3,0-0.6-0.1-0.8-0.3c-0.2-0.2-0.3-0.5-0.3-0.8c0-0.3,0.1-0.6,0.3-0.8c0.2-0.2,0.5-0.3,0.8-0.3
			c0.3,0,0.6,0.1,0.8,0.3c0.2,0.2,0.3,0.5,0.3,0.8c0,0.3-0.1,0.6-0.3,0.8C466.7,119.9,466.5,120,466.1,120z M467,133.8h-1.8v-11h1.8
			V133.8z"/>
		<path class="st11" d="M475.2,134c-1.6,0-2.9-0.5-3.9-1.5c-1-1-1.5-2.4-1.5-4.1c0-1.8,0.5-3.3,1.5-4.3c1-1,2.4-1.6,4.1-1.6
			c1.6,0,2.9,0.5,3.8,1.5s1.4,2.4,1.4,4.2c0,1.8-0.5,3.2-1.5,4.2C478.2,133.5,476.8,134,475.2,134z M475.3,124c-1.1,0-2,0.4-2.7,1.2
			c-0.7,0.8-1,1.8-1,3.2c0,1.3,0.3,2.3,1,3.1c0.7,0.8,1.6,1.1,2.7,1.1c1.1,0,2-0.4,2.6-1.1c0.6-0.7,0.9-1.8,0.9-3.1
			c0-1.4-0.3-2.4-0.9-3.2C477.3,124.4,476.4,124,475.3,124z"/>
		<path class="st11" d="M492.6,133.8h-1.8v-6.3c0-2.3-0.9-3.5-2.6-3.5c-0.9,0-1.6,0.3-2.2,1c-0.6,0.7-0.9,1.5-0.9,2.5v6.3h-1.8v-11
			h1.8v1.8h0c0.8-1.4,2-2.1,3.6-2.1c1.2,0,2.1,0.4,2.8,1.2c0.6,0.8,1,1.9,1,3.4V133.8z"/>
		<path class="st11" d="M515.6,134c-0.4,0-0.8-0.1-1.1-0.2c-0.3-0.1-0.6-0.3-0.9-0.5c-0.3-0.2-0.5-0.5-0.8-0.7
			c-0.2-0.3-0.5-0.6-0.8-1c-0.3,0.3-0.6,0.6-1,0.9c-0.4,0.3-0.8,0.5-1.3,0.8s-1,0.4-1.5,0.5c-0.5,0.1-1.1,0.2-1.8,0.2
			c-0.8,0-1.5-0.1-2.1-0.3s-1.2-0.5-1.7-0.9c-0.5-0.4-0.8-0.8-1.1-1.4s-0.4-1.2-0.4-1.9c0-1.1,0.3-2,0.9-2.8
			c0.6-0.8,1.5-1.4,2.6-1.9c-0.2-0.2-0.4-0.3-0.6-0.6s-0.4-0.5-0.6-0.7s-0.3-0.6-0.4-0.9c-0.1-0.3-0.2-0.7-0.2-1.1
			c0-0.6,0.1-1.1,0.3-1.5c0.2-0.4,0.5-0.8,0.8-1.1c0.4-0.3,0.8-0.5,1.3-0.7c0.5-0.2,1-0.2,1.6-0.2c0.6,0,1.1,0.1,1.5,0.2
			c0.5,0.2,0.9,0.4,1.2,0.7c0.3,0.3,0.6,0.6,0.8,1c0.2,0.4,0.3,0.8,0.3,1.3c0,0.9-0.2,1.6-0.7,2.1s-1.2,1.1-2.2,1.5
			c0.5,0.2,0.9,0.4,1.3,0.7c0.4,0.3,0.8,0.6,1.1,0.9c0.3,0.3,0.7,0.7,0.9,1.1c0.3,0.4,0.6,0.8,0.9,1.2c0.6-0.8,1-1.7,1.3-2.7
			c0.3-1,0.4-2,0.4-3.1c0-0.3,0-0.5,0-0.8c0-0.2-0.1-0.5-0.1-0.7h1.7c0.1,0.2,0.1,0.5,0.1,0.7s0,0.5,0,0.8c0,0.7-0.1,1.3-0.2,2
			c-0.1,0.7-0.3,1.3-0.5,1.9c-0.2,0.6-0.5,1.2-0.8,1.8c-0.3,0.6-0.6,1.1-1,1.5c0.3,0.3,0.5,0.6,0.7,0.9c0.2,0.3,0.4,0.5,0.6,0.6
			c0.2,0.2,0.4,0.3,0.7,0.4s0.5,0.1,0.8,0.1c0.2,0,0.4,0,0.7-0.1c0.2-0.1,0.5-0.1,0.7-0.2v1.6c-0.3,0.1-0.5,0.2-0.8,0.2
			C516.2,134,515.9,134,515.6,134z M506.6,132.5c0.5,0,1-0.1,1.5-0.2c0.5-0.1,0.9-0.3,1.3-0.5c0.4-0.2,0.7-0.4,1.1-0.7
			c0.3-0.3,0.6-0.5,0.9-0.8c-0.4-0.7-0.8-1.3-1.2-1.7s-0.7-0.9-1.1-1.3c-0.4-0.3-0.8-0.7-1.2-0.9c-0.4-0.3-0.9-0.5-1.5-0.7
			c-0.5,0.2-0.9,0.4-1.2,0.6c-0.4,0.2-0.7,0.5-1,0.8s-0.5,0.6-0.6,1s-0.2,0.9-0.2,1.4c0,0.5,0.1,0.9,0.3,1.3
			c0.2,0.4,0.4,0.7,0.7,0.9c0.3,0.2,0.7,0.4,1.1,0.6C505.7,132.4,506.1,132.5,506.6,132.5z M509.3,121.6c0-0.4-0.1-0.7-0.2-0.9
			c-0.1-0.3-0.3-0.5-0.5-0.6c-0.2-0.2-0.4-0.3-0.7-0.4c-0.3-0.1-0.5-0.1-0.7-0.1c-0.7,0-1.3,0.2-1.7,0.6c-0.4,0.4-0.6,0.9-0.6,1.5
			c0,0.3,0,0.6,0.1,0.8c0.1,0.3,0.2,0.5,0.4,0.7s0.3,0.4,0.6,0.6c0.2,0.2,0.4,0.3,0.7,0.4c0.9-0.3,1.6-0.7,2-1.1
			C509.1,122.7,509.3,122.2,509.3,121.6z"/>
		<path class="st11" d="M525,133.2V131c0.2,0.2,0.5,0.4,0.9,0.6s0.7,0.3,1.1,0.4c0.4,0.1,0.8,0.2,1.1,0.3c0.4,0.1,0.7,0.1,1.1,0.1
			c1.1,0,1.9-0.2,2.5-0.6c0.5-0.4,0.8-1,0.8-1.8c0-0.4-0.1-0.8-0.3-1.1c-0.2-0.3-0.4-0.6-0.8-0.8c-0.3-0.3-0.7-0.5-1.1-0.7
			s-0.9-0.5-1.4-0.7c-0.5-0.3-1-0.5-1.5-0.8c-0.5-0.3-0.9-0.6-1.2-0.9c-0.3-0.3-0.6-0.7-0.8-1.1c-0.2-0.4-0.3-0.9-0.3-1.5
			c0-0.7,0.2-1.3,0.5-1.8s0.7-0.9,1.2-1.3c0.5-0.3,1.1-0.6,1.7-0.8c0.6-0.2,1.3-0.2,2-0.2c1.5,0,2.6,0.2,3.3,0.5v2
			c-0.9-0.6-2.1-0.9-3.5-0.9c-0.4,0-0.8,0-1.2,0.1c-0.4,0.1-0.7,0.2-1.1,0.4c-0.3,0.2-0.6,0.4-0.8,0.7c-0.2,0.3-0.3,0.7-0.3,1.1
			c0,0.4,0.1,0.7,0.2,1c0.1,0.3,0.4,0.5,0.6,0.8c0.3,0.2,0.6,0.5,1,0.7s0.9,0.5,1.4,0.7c0.5,0.3,1.1,0.6,1.6,0.9
			c0.5,0.3,0.9,0.6,1.3,1c0.4,0.4,0.7,0.8,0.9,1.2c0.2,0.4,0.3,1,0.3,1.5c0,0.8-0.1,1.4-0.4,1.9c-0.3,0.5-0.7,1-1.2,1.3
			c-0.5,0.3-1.1,0.6-1.7,0.7c-0.7,0.1-1.4,0.2-2.1,0.2c-0.2,0-0.5,0-0.9-0.1s-0.7-0.1-1.1-0.2c-0.4-0.1-0.7-0.2-1.1-0.3
			C525.5,133.4,525.2,133.3,525,133.2z"/>
		<path class="st11" d="M546.3,133.8h-2.5l-4.8-5.3h0v5.3h-1.8v-16.3h1.8v10.3h0l4.6-5h2.3l-5.1,5.3L546.3,133.8z"/>
		<path class="st11" d="M556.9,128.7h-7.8c0,1.2,0.4,2.2,1,2.8c0.6,0.7,1.5,1,2.6,1c1.2,0,2.4-0.4,3.4-1.2v1.7
			c-1,0.7-2.2,1.1-3.8,1.1c-1.6,0-2.8-0.5-3.7-1.5c-0.9-1-1.3-2.4-1.3-4.2c0-1.7,0.5-3.1,1.5-4.2c1-1.1,2.2-1.6,3.6-1.6
			s2.5,0.5,3.3,1.4c0.8,0.9,1.2,2.2,1.2,3.9V128.7z M555.1,127.2c0-1-0.3-1.8-0.7-2.4c-0.5-0.6-1.2-0.8-2-0.8
			c-0.8,0-1.5,0.3-2.1,0.9c-0.6,0.6-0.9,1.4-1.1,2.3H555.1z"/>
		<path class="st11" d="M564.7,133.7c-0.4,0.2-1,0.3-1.6,0.3c-1.9,0-2.9-1.1-2.9-3.2v-6.5h-1.9v-1.5h1.9v-2.7l1.8-0.6v3.3h2.8v1.5
			h-2.8v6.2c0,0.7,0.1,1.3,0.4,1.6c0.3,0.3,0.7,0.5,1.2,0.5c0.4,0,0.8-0.1,1.1-0.4V133.7z"/>
		<path class="st11" d="M574.5,133.3c-0.8,0.5-1.8,0.8-3,0.8c-1.6,0-2.8-0.5-3.8-1.5c-1-1-1.4-2.3-1.4-4c0-1.8,0.5-3.3,1.6-4.4
			s2.4-1.6,4.2-1.6c1,0,1.8,0.2,2.6,0.5v1.8c-0.8-0.6-1.7-0.9-2.6-0.9c-1.1,0-2,0.4-2.8,1.2s-1.1,1.9-1.1,3.2c0,1.3,0.3,2.3,1,3
			c0.7,0.7,1.6,1.1,2.7,1.1c1,0,1.9-0.3,2.7-1V133.3z"/>
		<path class="st11" d="M586.3,133.8h-1.8v-6.3c0-2.3-0.9-3.4-2.6-3.4c-0.9,0-1.6,0.3-2.2,1c-0.6,0.7-0.9,1.5-0.9,2.5v6.2h-1.8
			v-16.3h1.8v7.1h0c0.8-1.4,2-2.1,3.6-2.1c2.5,0,3.7,1.5,3.7,4.5V133.8z"/>
		<path class="st11" d="M409.5,162.1h-5.9v-1.4h5.9V162.1z"/>
		<path class="st11" d="M430.5,167.5h-1.8v-7h-8v7h-1.8v-15.4h1.8v6.7h8v-6.7h1.8V167.5z"/>
		<path class="st11" d="M443.6,153.8h-4.4v13.8h-1.8v-13.8h-4.4v-1.6h10.7V153.8z"/>
		<path class="st11" d="M461.7,167.5h-1.8v-10.3c0-0.8,0-1.8,0.2-3h0c-0.2,0.7-0.3,1.2-0.5,1.5l-5.3,11.8h-0.9l-5.2-11.7
			c-0.2-0.3-0.3-0.9-0.5-1.6h0c0.1,0.6,0.1,1.6,0.1,3v10.3H446v-15.4h2.4l4.7,10.7c0.4,0.8,0.6,1.4,0.7,1.8h0.1
			c0.3-0.8,0.6-1.5,0.7-1.9l4.8-10.7h2.3V167.5z"/>
		<path class="st11" d="M473.7,167.5h-8v-15.4h1.8v13.8h6.2V167.5z"/>
		<path class="st11" d="M477.5,165.1l-1.7,5.3h-1.3l1.3-5.3H477.5z"/>
		<path class="st11" d="M497.3,166.9c-1.1,0.6-2.6,0.9-4.2,0.9c-2.2,0-3.9-0.7-5.3-2.1c-1.3-1.4-2-3.3-2-5.5c0-2.5,0.7-4.4,2.2-6
			c1.5-1.5,3.4-2.3,5.6-2.3c1.5,0,2.7,0.2,3.6,0.6v1.9c-1.1-0.6-2.3-0.9-3.6-0.9c-1.8,0-3.2,0.6-4.3,1.8c-1.1,1.2-1.6,2.8-1.6,4.7
			c0,1.9,0.5,3.4,1.5,4.5s2.4,1.7,4,1.7c1.5,0,2.9-0.3,4-1V166.9z"/>
		<path class="st11" d="M499.8,166.9v-2.1c0.2,0.2,0.5,0.4,0.9,0.6s0.7,0.3,1.1,0.4c0.4,0.1,0.8,0.2,1.1,0.3
			c0.4,0.1,0.7,0.1,1.1,0.1c1.1,0,1.9-0.2,2.5-0.6c0.5-0.4,0.8-1,0.8-1.8c0-0.4-0.1-0.8-0.3-1.1c-0.2-0.3-0.4-0.6-0.8-0.8
			c-0.3-0.3-0.7-0.5-1.1-0.7s-0.9-0.5-1.4-0.7c-0.5-0.3-1-0.5-1.5-0.8c-0.5-0.3-0.9-0.6-1.2-0.9c-0.3-0.3-0.6-0.7-0.8-1.1
			c-0.2-0.4-0.3-0.9-0.3-1.5c0-0.7,0.2-1.3,0.5-1.8s0.7-0.9,1.2-1.3c0.5-0.3,1.1-0.6,1.7-0.8c0.6-0.2,1.3-0.2,2-0.2
			c1.5,0,2.6,0.2,3.3,0.5v2c-0.9-0.6-2.1-0.9-3.5-0.9c-0.4,0-0.8,0-1.2,0.1c-0.4,0.1-0.7,0.2-1.1,0.4c-0.3,0.2-0.6,0.4-0.8,0.7
			c-0.2,0.3-0.3,0.7-0.3,1.1c0,0.4,0.1,0.7,0.2,1c0.1,0.3,0.4,0.5,0.6,0.8c0.3,0.2,0.6,0.5,1,0.7s0.9,0.5,1.4,0.7
			c0.5,0.3,1.1,0.6,1.6,0.9c0.5,0.3,0.9,0.6,1.3,1c0.4,0.4,0.7,0.8,0.9,1.2c0.2,0.4,0.3,1,0.3,1.5c0,0.8-0.1,1.4-0.4,1.9
			c-0.3,0.5-0.7,1-1.2,1.3c-0.5,0.3-1.1,0.6-1.7,0.7c-0.7,0.1-1.4,0.2-2.1,0.2c-0.2,0-0.5,0-0.9-0.1s-0.7-0.1-1.1-0.2
			c-0.4-0.1-0.7-0.2-1.1-0.3C500.2,167.2,500,167.1,499.8,166.9z"/>
		<path class="st11" d="M511.4,166.9v-2.1c0.2,0.2,0.5,0.4,0.9,0.6s0.7,0.3,1.1,0.4c0.4,0.1,0.8,0.2,1.1,0.3
			c0.4,0.1,0.7,0.1,1.1,0.1c1.1,0,1.9-0.2,2.5-0.6c0.5-0.4,0.8-1,0.8-1.8c0-0.4-0.1-0.8-0.3-1.1c-0.2-0.3-0.4-0.6-0.8-0.8
			c-0.3-0.3-0.7-0.5-1.1-0.7s-0.9-0.5-1.4-0.7c-0.5-0.3-1-0.5-1.5-0.8c-0.5-0.3-0.9-0.6-1.2-0.9c-0.3-0.3-0.6-0.7-0.8-1.1
			c-0.2-0.4-0.3-0.9-0.3-1.5c0-0.7,0.2-1.3,0.5-1.8s0.7-0.9,1.2-1.3c0.5-0.3,1.1-0.6,1.7-0.8c0.6-0.2,1.3-0.2,2-0.2
			c1.5,0,2.6,0.2,3.3,0.5v2c-0.9-0.6-2.1-0.9-3.5-0.9c-0.4,0-0.8,0-1.2,0.1c-0.4,0.1-0.7,0.2-1.1,0.4c-0.3,0.2-0.6,0.4-0.8,0.7
			c-0.2,0.3-0.3,0.7-0.3,1.1c0,0.4,0.1,0.7,0.2,1c0.1,0.3,0.4,0.5,0.6,0.8c0.3,0.2,0.6,0.5,1,0.7s0.9,0.5,1.4,0.7
			c0.5,0.3,1.1,0.6,1.6,0.9c0.5,0.3,0.9,0.6,1.3,1c0.4,0.4,0.7,0.8,0.9,1.2c0.2,0.4,0.3,1,0.3,1.5c0,0.8-0.1,1.4-0.4,1.9
			c-0.3,0.5-0.7,1-1.2,1.3c-0.5,0.3-1.1,0.6-1.7,0.7c-0.7,0.1-1.4,0.2-2.1,0.2c-0.2,0-0.5,0-0.9-0.1s-0.7-0.1-1.1-0.2
			c-0.4-0.1-0.7-0.2-1.1-0.3C511.9,167.2,511.6,167.1,511.4,166.9z"/>
		<path class="st11" d="M543.3,167.8c-0.4,0-0.8-0.1-1.1-0.2c-0.3-0.1-0.6-0.3-0.9-0.5c-0.3-0.2-0.5-0.5-0.8-0.7
			c-0.2-0.3-0.5-0.6-0.8-1c-0.3,0.3-0.6,0.6-1,0.9c-0.4,0.3-0.8,0.5-1.3,0.8s-1,0.4-1.5,0.5c-0.5,0.1-1.1,0.2-1.8,0.2
			c-0.8,0-1.5-0.1-2.1-0.3s-1.2-0.5-1.7-0.9c-0.5-0.4-0.8-0.8-1.1-1.4s-0.4-1.2-0.4-1.9c0-1.1,0.3-2,0.9-2.8
			c0.6-0.8,1.5-1.4,2.6-1.9c-0.2-0.2-0.4-0.3-0.6-0.6s-0.4-0.5-0.6-0.7s-0.3-0.6-0.4-0.9c-0.1-0.3-0.2-0.7-0.2-1.1
			c0-0.6,0.1-1.1,0.3-1.5c0.2-0.4,0.5-0.8,0.8-1.1c0.4-0.3,0.8-0.5,1.3-0.7c0.5-0.2,1-0.2,1.6-0.2c0.6,0,1.1,0.1,1.5,0.2
			c0.5,0.2,0.9,0.4,1.2,0.7c0.3,0.3,0.6,0.6,0.8,1c0.2,0.4,0.3,0.8,0.3,1.3c0,0.9-0.2,1.6-0.7,2.1s-1.2,1.1-2.2,1.5
			c0.5,0.2,0.9,0.4,1.3,0.7c0.4,0.3,0.8,0.6,1.1,0.9c0.3,0.3,0.7,0.7,0.9,1.1c0.3,0.4,0.6,0.8,0.9,1.2c0.6-0.8,1-1.7,1.3-2.7
			c0.3-1,0.4-2,0.4-3.1c0-0.3,0-0.5,0-0.8c0-0.2-0.1-0.5-0.1-0.7h1.7c0.1,0.2,0.1,0.5,0.1,0.7s0,0.5,0,0.8c0,0.7-0.1,1.3-0.2,2
			c-0.1,0.7-0.3,1.3-0.5,1.9c-0.2,0.6-0.5,1.2-0.8,1.8c-0.3,0.6-0.6,1.1-1,1.5c0.3,0.3,0.5,0.6,0.7,0.9c0.2,0.3,0.4,0.5,0.6,0.6
			c0.2,0.2,0.4,0.3,0.7,0.4s0.5,0.1,0.8,0.1c0.2,0,0.4,0,0.7-0.1c0.2-0.1,0.5-0.1,0.7-0.2v1.6c-0.3,0.1-0.5,0.2-0.8,0.2
			C543.9,167.8,543.6,167.8,543.3,167.8z M534.3,166.3c0.5,0,1-0.1,1.5-0.2c0.5-0.1,0.9-0.3,1.3-0.5c0.4-0.2,0.7-0.4,1.1-0.7
			c0.3-0.3,0.6-0.5,0.9-0.8c-0.4-0.7-0.8-1.3-1.2-1.7s-0.7-0.9-1.1-1.3c-0.4-0.3-0.8-0.7-1.2-0.9c-0.4-0.3-0.9-0.5-1.5-0.7
			c-0.5,0.2-0.9,0.4-1.2,0.6c-0.4,0.2-0.7,0.5-1,0.8s-0.5,0.6-0.6,1s-0.2,0.9-0.2,1.4c0,0.5,0.1,0.9,0.3,1.3
			c0.2,0.4,0.4,0.7,0.7,0.9c0.3,0.2,0.7,0.4,1.1,0.6C533.4,166.2,533.8,166.3,534.3,166.3z M537,155.3c0-0.4-0.1-0.7-0.2-0.9
			c-0.1-0.3-0.3-0.5-0.5-0.6c-0.2-0.2-0.4-0.3-0.7-0.4c-0.3-0.1-0.5-0.1-0.7-0.1c-0.7,0-1.3,0.2-1.7,0.6c-0.4,0.4-0.6,0.9-0.6,1.5
			c0,0.3,0,0.6,0.1,0.8c0.1,0.3,0.2,0.5,0.4,0.7s0.3,0.4,0.6,0.6c0.2,0.2,0.4,0.3,0.7,0.4c0.9-0.3,1.6-0.7,2-1.1
			C536.8,156.5,537,156,537,155.3z"/>
		<path class="st11" d="M557.4,162c0,1.8-0.4,3.2-1.2,4.3c-0.8,1-1.8,1.5-3.1,1.5c-0.6,0-1.1-0.1-1.5-0.3v-1.8
			c0.4,0.3,0.9,0.4,1.5,0.4c1.6,0,2.4-1.4,2.4-4.1v-9.9h1.8V162z"/>
		<path class="st11" d="M568.9,167.5h-1.8v-1.7h0c-0.8,1.3-1.9,2-3.4,2c-1.1,0-2-0.3-2.6-0.9c-0.6-0.6-0.9-1.3-0.9-2.3
			c0-2.1,1.2-3.2,3.6-3.6l3.3-0.5c0-1.9-0.8-2.8-2.3-2.8c-1.3,0-2.5,0.5-3.6,1.4v-1.8c1.1-0.7,2.3-1,3.7-1c2.6,0,3.9,1.4,3.9,4.1
			V167.5z M567.1,162l-2.7,0.4c-0.8,0.1-1.4,0.3-1.8,0.6c-0.4,0.3-0.6,0.8-0.6,1.5c0,0.5,0.2,1,0.6,1.3c0.4,0.3,0.9,0.5,1.5,0.5
			c0.9,0,1.6-0.3,2.2-0.9c0.6-0.6,0.9-1.4,0.9-2.3V162z"/>
		<path class="st11" d="M580.9,156.6l-4.4,11h-1.7l-4.2-11h1.9l2.8,8c0.2,0.6,0.3,1.1,0.4,1.5h0c0.1-0.6,0.2-1,0.3-1.5l2.9-8H580.9z
			"/>
		<path class="st11" d="M590.6,167.5h-1.8v-1.7h0c-0.8,1.3-1.9,2-3.4,2c-1.1,0-2-0.3-2.6-0.9c-0.6-0.6-0.9-1.3-0.9-2.3
			c0-2.1,1.2-3.2,3.6-3.6l3.3-0.5c0-1.9-0.8-2.8-2.3-2.8c-1.3,0-2.5,0.5-3.6,1.4v-1.8c1.1-0.7,2.3-1,3.7-1c2.6,0,3.9,1.4,3.9,4.1
			V167.5z M588.8,162l-2.7,0.4c-0.8,0.1-1.4,0.3-1.8,0.6c-0.4,0.3-0.6,0.8-0.6,1.5c0,0.5,0.2,1,0.6,1.3c0.4,0.3,0.9,0.5,1.5,0.5
			c0.9,0,1.6-0.3,2.2-0.9c0.6-0.6,0.9-1.4,0.9-2.3V162z"/>
		<path class="st11" d="M593.3,167.2v-1.9c1,0.7,2,1.1,3.2,1.1c1.5,0,2.3-0.5,2.3-1.5c0-0.3-0.1-0.5-0.2-0.7
			c-0.1-0.2-0.3-0.4-0.5-0.5s-0.5-0.3-0.8-0.4s-0.6-0.3-1-0.4c-0.5-0.2-0.9-0.4-1.3-0.6c-0.4-0.2-0.7-0.4-0.9-0.7
			c-0.2-0.2-0.4-0.5-0.6-0.8c-0.1-0.3-0.2-0.7-0.2-1.1c0-0.5,0.1-1,0.4-1.4s0.6-0.7,0.9-1c0.4-0.3,0.8-0.5,1.3-0.6s1-0.2,1.6-0.2
			c1,0,1.8,0.2,2.6,0.5v1.8c-0.8-0.5-1.7-0.8-2.8-0.8c-0.3,0-0.6,0-0.9,0.1s-0.5,0.2-0.7,0.3c-0.2,0.1-0.3,0.3-0.4,0.5
			s-0.2,0.4-0.2,0.6c0,0.3,0.1,0.5,0.2,0.7c0.1,0.2,0.3,0.4,0.5,0.5s0.4,0.3,0.7,0.4c0.3,0.1,0.6,0.3,1,0.4c0.5,0.2,0.9,0.4,1.3,0.6
			c0.4,0.2,0.7,0.4,1,0.7c0.3,0.2,0.5,0.5,0.6,0.9c0.1,0.3,0.2,0.7,0.2,1.1c0,0.5-0.1,1-0.4,1.4s-0.6,0.7-1,1s-0.9,0.5-1.4,0.6
			c-0.5,0.1-1.1,0.2-1.6,0.2C595.1,167.8,594.1,167.6,593.3,167.2z"/>
		<path class="st11" d="M610.7,167c-0.8,0.5-1.8,0.8-3,0.8c-1.6,0-2.8-0.5-3.8-1.5c-1-1-1.4-2.3-1.4-4c0-1.8,0.5-3.3,1.6-4.4
			s2.4-1.6,4.2-1.6c1,0,1.8,0.2,2.6,0.5v1.8c-0.8-0.6-1.7-0.9-2.6-0.9c-1.1,0-2,0.4-2.8,1.2s-1.1,1.9-1.1,3.2c0,1.3,0.3,2.3,1,3
			c0.7,0.7,1.6,1.1,2.7,1.1c1,0,1.9-0.3,2.7-1V167z"/>
		<path class="st11" d="M619.1,158.3c-0.3-0.2-0.8-0.4-1.3-0.4c-0.8,0-1.4,0.4-1.9,1.1c-0.5,0.7-0.8,1.7-0.8,2.9v5.6h-1.8v-11h1.8
			v2.3h0c0.3-0.8,0.6-1.4,1.1-1.8s1.1-0.6,1.7-0.6c0.5,0,0.8,0,1.1,0.2V158.3z"/>
		<path class="st11" d="M621.9,153.8c-0.3,0-0.6-0.1-0.8-0.3c-0.2-0.2-0.3-0.5-0.3-0.8c0-0.3,0.1-0.6,0.3-0.8
			c0.2-0.2,0.5-0.3,0.8-0.3c0.3,0,0.6,0.1,0.8,0.3c0.2,0.2,0.3,0.5,0.3,0.8c0,0.3-0.1,0.6-0.3,0.8
			C622.5,153.7,622.2,153.8,621.9,153.8z M622.8,167.5H621v-11h1.8V167.5z"/>
		<path class="st11" d="M628.1,166L628.1,166l0,6.6h-1.8v-16h1.8v1.9h0c0.9-1.5,2.1-2.2,3.8-2.2c1.4,0,2.5,0.5,3.3,1.5
			s1.2,2.3,1.2,4c0,1.8-0.4,3.3-1.3,4.4c-0.9,1.1-2.1,1.7-3.7,1.7C630,167.8,628.9,167.2,628.1,166z M628.1,161.5v1.5
			c0,0.9,0.3,1.7,0.9,2.3s1.3,0.9,2.2,0.9c1.1,0,1.9-0.4,2.5-1.2c0.6-0.8,0.9-1.9,0.9-3.4c0-1.2-0.3-2.2-0.8-2.9
			c-0.6-0.7-1.3-1-2.3-1c-1,0-1.8,0.4-2.5,1.1C628.4,159.6,628.1,160.5,628.1,161.5z"/>
		<path class="st11" d="M644.4,167.4c-0.4,0.2-1,0.3-1.6,0.3c-1.9,0-2.9-1.1-2.9-3.2v-6.5h-1.9v-1.5h1.9v-2.7l1.8-0.6v3.3h2.8v1.5
			h-2.8v6.2c0,0.7,0.1,1.3,0.4,1.6c0.3,0.3,0.7,0.5,1.2,0.5c0.4,0,0.8-0.1,1.1-0.4V167.4z"/>
		<path class="st11" d="M409.5,195.9h-5.9v-1.4h5.9V195.9z"/>
		<path class="st11" d="M430.8,201.3h-2l-1.6-4.3h-6.5l-1.5,4.3h-2l5.9-15.4h1.9L430.8,201.3z M426.6,195.4l-2.4-6.6
			c-0.1-0.2-0.2-0.6-0.2-1h0c-0.1,0.4-0.2,0.8-0.2,1l-2.4,6.6H426.6z"/>
		<path class="st11" d="M441.7,201.3H440v-1.7h0c-0.7,1.3-1.9,2-3.4,2c-2.6,0-3.9-1.6-3.9-4.7v-6.6h1.7v6.3c0,2.3,0.9,3.5,2.7,3.5
			c0.9,0,1.6-0.3,2.1-0.9c0.6-0.6,0.8-1.5,0.8-2.5v-6.3h1.8V201.3z"/>
		<path class="st11" d="M450.4,201.2c-0.4,0.2-1,0.3-1.6,0.3c-1.9,0-2.9-1.1-2.9-3.2v-6.5H444v-1.5h1.9v-2.7l1.8-0.6v3.3h2.8v1.5
			h-2.8v6.2c0,0.7,0.1,1.3,0.4,1.6c0.3,0.3,0.7,0.5,1.2,0.5c0.4,0,0.8-0.1,1.1-0.4V201.2z"/>
		<path class="st11" d="M457.3,201.6c-1.6,0-2.9-0.5-3.9-1.5c-1-1-1.5-2.4-1.5-4.1c0-1.8,0.5-3.3,1.5-4.3c1-1,2.4-1.6,4.1-1.6
			c1.6,0,2.9,0.5,3.8,1.5s1.4,2.4,1.4,4.2c0,1.8-0.5,3.2-1.5,4.2C460.3,201,459,201.6,457.3,201.6z M457.4,191.5
			c-1.1,0-2,0.4-2.7,1.2c-0.7,0.8-1,1.8-1,3.2c0,1.3,0.3,2.3,1,3.1c0.7,0.8,1.6,1.1,2.7,1.1c1.1,0,2-0.4,2.6-1.1
			c0.6-0.7,0.9-1.8,0.9-3.1c0-1.4-0.3-2.4-0.9-3.2C459.5,191.9,458.6,191.5,457.4,191.5z"/>
		<path class="st11" d="M475,201.3h-1.8v-1.9h0c-0.8,1.4-2.1,2.1-3.8,2.1c-1.4,0-2.5-0.5-3.3-1.5s-1.2-2.3-1.2-4
			c0-1.8,0.5-3.3,1.4-4.4c0.9-1.1,2.1-1.6,3.7-1.6c1.5,0,2.6,0.6,3.3,1.8h0V185h1.8V201.3z M473.2,196.3v-1.6c0-0.9-0.3-1.6-0.9-2.3
			c-0.6-0.6-1.3-0.9-2.2-0.9c-1.1,0-1.9,0.4-2.5,1.2c-0.6,0.8-0.9,1.9-0.9,3.3c0,1.3,0.3,2.3,0.9,3s1.4,1.1,2.4,1.1
			c1,0,1.8-0.4,2.4-1.1S473.2,197.4,473.2,196.3z"/>
		<path class="st11" d="M487.4,196.3h-7.8c0,1.2,0.4,2.2,1,2.8c0.6,0.7,1.5,1,2.6,1c1.2,0,2.4-0.4,3.4-1.2v1.7
			c-1,0.7-2.2,1.1-3.8,1.1c-1.6,0-2.8-0.5-3.7-1.5c-0.9-1-1.3-2.4-1.3-4.2c0-1.7,0.5-3.1,1.5-4.2c1-1.1,2.2-1.6,3.6-1.6
			s2.5,0.5,3.3,1.4c0.8,0.9,1.2,2.2,1.2,3.9V196.3z M485.6,194.8c0-1-0.3-1.8-0.7-2.4c-0.5-0.6-1.2-0.8-2-0.8
			c-0.8,0-1.5,0.3-2.1,0.9c-0.6,0.6-0.9,1.4-1.1,2.3H485.6z"/>
		<path class="st11" d="M489.4,200.9V199c1,0.7,2,1.1,3.2,1.1c1.5,0,2.3-0.5,2.3-1.5c0-0.3-0.1-0.5-0.2-0.7
			c-0.1-0.2-0.3-0.4-0.5-0.5s-0.5-0.3-0.8-0.4s-0.6-0.3-1-0.4c-0.5-0.2-0.9-0.4-1.3-0.6c-0.4-0.2-0.7-0.4-0.9-0.7
			c-0.2-0.2-0.4-0.5-0.6-0.8c-0.1-0.3-0.2-0.7-0.2-1.1c0-0.5,0.1-1,0.4-1.4s0.6-0.7,0.9-1c0.4-0.3,0.8-0.5,1.3-0.6s1-0.2,1.6-0.2
			c1,0,1.8,0.2,2.6,0.5v1.8c-0.8-0.5-1.7-0.8-2.8-0.8c-0.3,0-0.6,0-0.9,0.1s-0.5,0.2-0.7,0.3c-0.2,0.1-0.3,0.3-0.4,0.5
			s-0.2,0.4-0.2,0.6c0,0.3,0.1,0.5,0.2,0.7c0.1,0.2,0.3,0.4,0.5,0.5s0.4,0.3,0.7,0.4c0.3,0.1,0.6,0.3,1,0.4c0.5,0.2,0.9,0.4,1.3,0.6
			c0.4,0.2,0.7,0.4,1,0.7c0.3,0.2,0.5,0.5,0.6,0.9c0.1,0.3,0.2,0.7,0.2,1.1c0,0.5-0.1,1-0.4,1.4s-0.6,0.7-1,1s-0.9,0.5-1.4,0.6
			c-0.5,0.1-1.1,0.2-1.6,0.2C491.2,201.6,490.2,201.3,489.4,200.9z"/>
		<path class="st11" d="M508.5,201.3H506l-4.8-5.3h0v5.3h-1.8V185h1.8v10.3h0l4.6-5h2.3l-5.1,5.3L508.5,201.3z"/>
		<path class="st11" d="M532.2,201.3h-1.8V191c0-0.8,0-1.8,0.2-3h0c-0.2,0.7-0.3,1.2-0.5,1.5l-5.3,11.8h-0.9l-5.2-11.7
			c-0.2-0.3-0.3-0.9-0.5-1.6h0c0.1,0.6,0.1,1.6,0.1,3v10.3h-1.7v-15.4h2.4l4.7,10.7c0.4,0.8,0.6,1.4,0.7,1.8h0.1
			c0.3-0.8,0.6-1.5,0.7-1.9l4.8-10.7h2.3V201.3z"/>
		<path class="st11" d="M543.9,201.3h-1.8v-1.7h0c-0.8,1.3-1.9,2-3.4,2c-1.1,0-2-0.3-2.6-0.9c-0.6-0.6-0.9-1.3-0.9-2.3
			c0-2.1,1.2-3.2,3.6-3.6l3.3-0.5c0-1.9-0.8-2.8-2.3-2.8c-1.3,0-2.5,0.5-3.6,1.4v-1.8c1.1-0.7,2.3-1,3.7-1c2.6,0,3.9,1.4,3.9,4.1
			V201.3z M542.1,195.8l-2.7,0.4c-0.8,0.1-1.4,0.3-1.8,0.6c-0.4,0.3-0.6,0.8-0.6,1.5c0,0.5,0.2,1,0.6,1.3c0.4,0.3,0.9,0.5,1.5,0.5
			c0.9,0,1.6-0.3,2.2-0.9c0.6-0.6,0.9-1.4,0.9-2.3V195.8z"/>
		<path class="st11" d="M555.9,190.3l-5.1,12.7c-0.9,2.3-2.2,3.4-3.8,3.4c-0.5,0-0.8,0-1.1-0.1v-1.6c0.4,0.1,0.7,0.2,1,0.2
			c0.9,0,1.6-0.5,2-1.6l0.9-2.1l-4.3-11h2l3,8.5c0,0.1,0.1,0.4,0.2,0.8h0.1c0-0.2,0.1-0.4,0.2-0.8l3.1-8.5H555.9z"/>
		<path class="st11" d="M565.7,201.3h-1.8v-1.7h0c-0.8,1.3-1.9,2-3.4,2c-1.1,0-2-0.3-2.6-0.9c-0.6-0.6-0.9-1.3-0.9-2.3
			c0-2.1,1.2-3.2,3.6-3.6l3.3-0.5c0-1.9-0.8-2.8-2.3-2.8c-1.3,0-2.5,0.5-3.6,1.4v-1.8c1.1-0.7,2.3-1,3.7-1c2.6,0,3.9,1.4,3.9,4.1
			V201.3z M563.9,195.8l-2.7,0.4c-0.8,0.1-1.4,0.3-1.8,0.6c-0.4,0.3-0.6,0.8-0.6,1.5c0,0.5,0.2,1,0.6,1.3c0.4,0.3,0.9,0.5,1.5,0.5
			c0.9,0,1.6-0.3,2.2-0.9c0.6-0.6,0.9-1.4,0.9-2.3V195.8z"/>
		<path class="st11" d="M409.5,229.6h-5.9v-1.4h5.9V229.6z"/>
		<path class="st11" d="M430.2,228.8c0,4.3-1.9,6.5-5.8,6.5c-3.7,0-5.6-2.1-5.6-6.2v-9.4h1.8v9.3c0,3.2,1.3,4.7,4,4.7
			c2.6,0,3.9-1.5,3.9-4.6v-9.5h1.8V228.8z"/>
		<path class="st11" d="M442.9,235.1h-1.8v-6.3c0-2.3-0.9-3.5-2.6-3.5c-0.9,0-1.6,0.3-2.2,1c-0.6,0.7-0.9,1.5-0.9,2.5v6.3h-1.8v-11
			h1.8v1.8h0c0.8-1.4,2-2.1,3.6-2.1c1.2,0,2.1,0.4,2.8,1.2c0.6,0.8,1,1.9,1,3.4V235.1z"/>
		<path class="st11" d="M447.1,221.3c-0.3,0-0.6-0.1-0.8-0.3c-0.2-0.2-0.3-0.5-0.3-0.8c0-0.3,0.1-0.6,0.3-0.8
			c0.2-0.2,0.5-0.3,0.8-0.3c0.3,0,0.6,0.1,0.8,0.3c0.2,0.2,0.3,0.5,0.3,0.8c0,0.3-0.1,0.6-0.3,0.8
			C447.7,221.2,447.4,221.3,447.1,221.3z M448,235.1h-1.8v-11h1.8V235.1z"/>
		<path class="st11" d="M456.6,235c-0.4,0.2-1,0.3-1.6,0.3c-1.9,0-2.9-1.1-2.9-3.2v-6.5h-1.9v-1.5h1.9v-2.7l1.8-0.6v3.3h2.8v1.5
			h-2.8v6.2c0,0.7,0.1,1.3,0.4,1.6c0.3,0.3,0.7,0.5,1.2,0.5c0.4,0,0.8-0.1,1.1-0.4V235z"/>
		<path class="st11" d="M467.7,224.1l-5.1,12.7c-0.9,2.3-2.2,3.4-3.8,3.4c-0.5,0-0.8,0-1.1-0.1v-1.6c0.4,0.1,0.7,0.2,1,0.2
			c0.9,0,1.6-0.5,2-1.6l0.9-2.1l-4.3-11h2l3,8.5c0,0.1,0.1,0.4,0.2,0.8h0.1c0-0.2,0.1-0.4,0.2-0.8l3.1-8.5H467.7z"/>
		<path class="st11" d="M409.5,263.4h-5.9V262h5.9V263.4z"/>
		<path class="st11" d="M418.2,268.2v-2.1c0.2,0.2,0.5,0.4,0.9,0.6s0.7,0.3,1.1,0.4c0.4,0.1,0.8,0.2,1.1,0.3
			c0.4,0.1,0.7,0.1,1.1,0.1c1.1,0,1.9-0.2,2.5-0.6c0.5-0.4,0.8-1,0.8-1.8c0-0.4-0.1-0.8-0.3-1.1c-0.2-0.3-0.4-0.6-0.8-0.8
			c-0.3-0.3-0.7-0.5-1.1-0.7s-0.9-0.5-1.4-0.7c-0.5-0.3-1-0.5-1.5-0.8c-0.5-0.3-0.9-0.6-1.2-0.9c-0.3-0.3-0.6-0.7-0.8-1.1
			c-0.2-0.4-0.3-0.9-0.3-1.5c0-0.7,0.2-1.3,0.5-1.8s0.7-0.9,1.2-1.3c0.5-0.3,1.1-0.6,1.7-0.8c0.6-0.2,1.3-0.2,2-0.2
			c1.5,0,2.6,0.2,3.3,0.5v2c-0.9-0.6-2.1-0.9-3.5-0.9c-0.4,0-0.8,0-1.2,0.1c-0.4,0.1-0.7,0.2-1.1,0.4c-0.3,0.2-0.6,0.4-0.8,0.7
			c-0.2,0.3-0.3,0.7-0.3,1.1c0,0.4,0.1,0.7,0.2,1c0.1,0.3,0.4,0.5,0.6,0.8c0.3,0.2,0.6,0.5,1,0.7s0.9,0.5,1.4,0.7
			c0.5,0.3,1.1,0.6,1.6,0.9c0.5,0.3,0.9,0.6,1.3,1c0.4,0.4,0.7,0.8,0.9,1.2c0.2,0.4,0.3,1,0.3,1.5c0,0.8-0.1,1.4-0.4,1.9
			c-0.3,0.5-0.7,1-1.2,1.3c-0.5,0.3-1.1,0.6-1.7,0.7c-0.7,0.1-1.4,0.2-2.1,0.2c-0.2,0-0.5,0-0.9-0.1s-0.7-0.1-1.1-0.2
			c-0.4-0.1-0.7-0.2-1.1-0.3C418.7,268.5,418.4,268.3,418.2,268.2z"/>
		<path class="st11" d="M439.5,268.8H437l-4.8-5.3h0v5.3h-1.8v-16.3h1.8v10.3h0l4.6-5h2.3l-5.1,5.3L439.5,268.8z"/>
		<path class="st11" d="M450.1,263.8h-7.8c0,1.2,0.4,2.2,1,2.8c0.6,0.7,1.5,1,2.6,1c1.2,0,2.4-0.4,3.4-1.2v1.7
			c-1,0.7-2.2,1.1-3.8,1.1c-1.6,0-2.8-0.5-3.7-1.5c-0.9-1-1.3-2.4-1.3-4.2c0-1.7,0.5-3.1,1.5-4.2c1-1.1,2.2-1.6,3.6-1.6
			s2.5,0.5,3.3,1.4c0.8,0.9,1.2,2.2,1.2,3.9V263.8z M448.3,262.3c0-1-0.3-1.8-0.7-2.4c-0.5-0.6-1.2-0.8-2-0.8
			c-0.8,0-1.5,0.3-2.1,0.9c-0.6,0.6-0.9,1.4-1.1,2.3H448.3z"/>
		<path class="st11" d="M457.9,268.7c-0.4,0.2-1,0.3-1.6,0.3c-1.9,0-2.9-1.1-2.9-3.2v-6.5h-1.9v-1.5h1.9v-2.7l1.8-0.6v3.3h2.8v1.5
			h-2.8v6.2c0,0.7,0.1,1.3,0.4,1.6c0.3,0.3,0.7,0.5,1.2,0.5c0.4,0,0.8-0.1,1.1-0.4V268.7z"/>
		<path class="st11" d="M467.7,268.3c-0.8,0.5-1.8,0.8-3,0.8c-1.6,0-2.8-0.5-3.8-1.5c-1-1-1.4-2.3-1.4-4c0-1.8,0.5-3.3,1.6-4.4
			s2.4-1.6,4.2-1.6c1,0,1.8,0.2,2.6,0.5v1.8c-0.8-0.6-1.7-0.9-2.6-0.9c-1.1,0-2,0.4-2.8,1.2s-1.1,1.9-1.1,3.2c0,1.3,0.3,2.3,1,3
			c0.7,0.7,1.6,1.1,2.7,1.1c1,0,1.9-0.3,2.7-1V268.3z"/>
		<path class="st11" d="M479.5,268.8h-1.8v-6.3c0-2.3-0.9-3.4-2.6-3.4c-0.9,0-1.6,0.3-2.2,1c-0.6,0.7-0.9,1.5-0.9,2.5v6.2h-1.8
			v-16.3h1.8v7.1h0c0.8-1.4,2-2.1,3.6-2.1c2.5,0,3.7,1.5,3.7,4.5V268.8z"/>
		<path class="st11" d="M494.3,262.6c0,4.3-1.9,6.5-5.8,6.5c-3.7,0-5.6-2.1-5.6-6.2v-9.4h1.8v9.3c0,3.2,1.3,4.7,4,4.7
			c2.6,0,3.9-1.5,3.9-4.6v-9.5h1.8V262.6z"/>
		<path class="st11" d="M499.7,267.2L499.7,267.2l0,6.6h-1.8v-16h1.8v1.9h0c0.9-1.5,2.1-2.2,3.8-2.2c1.4,0,2.5,0.5,3.3,1.5
			s1.2,2.3,1.2,4c0,1.8-0.4,3.3-1.3,4.4c-0.9,1.1-2.1,1.7-3.7,1.7C501.6,269.1,500.5,268.5,499.7,267.2z M499.6,262.8v1.5
			c0,0.9,0.3,1.7,0.9,2.3s1.3,0.9,2.2,0.9c1.1,0,1.9-0.4,2.5-1.2c0.6-0.8,0.9-1.9,0.9-3.4c0-1.2-0.3-2.2-0.8-2.9
			c-0.6-0.7-1.3-1-2.3-1c-1,0-1.8,0.4-2.5,1.1C499.9,260.8,499.6,261.7,499.6,262.8z"/>
		<path class="st11" d="M409.5,297.2h-5.9v-1.4h5.9V297.2z"/>
		<path class="st11" d="M434.6,302.6h-1.8v-10.3c0-0.8,0-1.8,0.2-3h0c-0.2,0.7-0.3,1.2-0.5,1.5l-5.3,11.8h-0.9l-5.2-11.7
			c-0.2-0.3-0.3-0.9-0.5-1.6h0c0.1,0.6,0.1,1.6,0.1,3v10.3h-1.7v-15.4h2.4l4.7,10.7c0.4,0.8,0.6,1.4,0.7,1.8h0.1
			c0.3-0.8,0.6-1.5,0.7-1.9l4.8-10.7h2.3V302.6z"/>
		<path class="st11" d="M439.3,288.8c-0.3,0-0.6-0.1-0.8-0.3c-0.2-0.2-0.3-0.5-0.3-0.8c0-0.3,0.1-0.6,0.3-0.8
			c0.2-0.2,0.5-0.3,0.8-0.3c0.3,0,0.6,0.1,0.8,0.3c0.2,0.2,0.3,0.5,0.3,0.8c0,0.3-0.1,0.6-0.3,0.8
			C439.9,288.7,439.6,288.8,439.3,288.8z M440.2,302.6h-1.8v-11h1.8V302.6z"/>
		<path class="st11" d="M451.2,302.1c-0.8,0.5-1.8,0.8-3,0.8c-1.6,0-2.8-0.5-3.8-1.5c-1-1-1.4-2.3-1.4-4c0-1.8,0.5-3.3,1.6-4.4
			s2.4-1.6,4.2-1.6c1,0,1.8,0.2,2.6,0.5v1.8c-0.8-0.6-1.7-0.9-2.6-0.9c-1.1,0-2,0.4-2.8,1.2s-1.1,1.9-1.1,3.2c0,1.3,0.3,2.3,1,3
			c0.7,0.7,1.6,1.1,2.7,1.1c1,0,1.9-0.3,2.7-1V302.1z"/>
		<path class="st11" d="M459.6,293.4c-0.3-0.2-0.8-0.4-1.3-0.4c-0.8,0-1.4,0.4-1.9,1.1c-0.5,0.7-0.8,1.7-0.8,2.9v5.6h-1.8v-11h1.8
			v2.3h0c0.3-0.8,0.6-1.4,1.1-1.8s1.1-0.6,1.7-0.6c0.5,0,0.8,0,1.1,0.2V293.4z"/>
		<path class="st11" d="M466.1,302.8c-1.6,0-2.9-0.5-3.9-1.5c-1-1-1.5-2.4-1.5-4.1c0-1.8,0.5-3.3,1.5-4.3c1-1,2.4-1.6,4.1-1.6
			c1.6,0,2.9,0.5,3.8,1.5s1.4,2.4,1.4,4.2c0,1.8-0.5,3.2-1.5,4.2C469.1,302.3,467.8,302.8,466.1,302.8z M466.2,292.8
			c-1.1,0-2,0.4-2.7,1.2c-0.7,0.8-1,1.8-1,3.2c0,1.3,0.3,2.3,1,3.1c0.7,0.8,1.6,1.1,2.7,1.1c1.1,0,2-0.4,2.6-1.1
			c0.6-0.7,0.9-1.8,0.9-3.1c0-1.4-0.3-2.4-0.9-3.2C468.2,293.2,467.4,292.8,466.2,292.8z"/>
		<path class="st11" d="M473.7,302.2v-1.9c1,0.7,2,1.1,3.2,1.1c1.5,0,2.3-0.5,2.3-1.5c0-0.3-0.1-0.5-0.2-0.7
			c-0.1-0.2-0.3-0.4-0.5-0.5s-0.5-0.3-0.8-0.4s-0.6-0.3-1-0.4c-0.5-0.2-0.9-0.4-1.3-0.6c-0.4-0.2-0.7-0.4-0.9-0.7
			c-0.2-0.2-0.4-0.5-0.6-0.8c-0.1-0.3-0.2-0.7-0.2-1.1c0-0.5,0.1-1,0.4-1.4s0.6-0.7,0.9-1c0.4-0.3,0.8-0.5,1.3-0.6s1-0.2,1.6-0.2
			c1,0,1.8,0.2,2.6,0.5v1.8c-0.8-0.5-1.7-0.8-2.8-0.8c-0.3,0-0.6,0-0.9,0.1s-0.5,0.2-0.7,0.3c-0.2,0.1-0.3,0.3-0.4,0.5
			s-0.2,0.4-0.2,0.6c0,0.3,0.1,0.5,0.2,0.7c0.1,0.2,0.3,0.4,0.5,0.5s0.4,0.3,0.7,0.4c0.3,0.1,0.6,0.3,1,0.4c0.5,0.2,0.9,0.4,1.3,0.6
			c0.4,0.2,0.7,0.4,1,0.7c0.3,0.2,0.5,0.5,0.6,0.9c0.1,0.3,0.2,0.7,0.2,1.1c0,0.5-0.1,1-0.4,1.4s-0.6,0.7-1,1s-0.9,0.5-1.4,0.6
			c-0.5,0.1-1.1,0.2-1.6,0.2C475.5,302.8,474.6,302.6,473.7,302.2z"/>
		<path class="st11" d="M488.3,302.8c-1.6,0-2.9-0.5-3.9-1.5c-1-1-1.5-2.4-1.5-4.1c0-1.8,0.5-3.3,1.5-4.3c1-1,2.4-1.6,4.1-1.6
			c1.6,0,2.9,0.5,3.8,1.5s1.4,2.4,1.4,4.2c0,1.8-0.5,3.2-1.5,4.2C491.3,302.3,490,302.8,488.3,302.8z M488.4,292.8
			c-1.1,0-2,0.4-2.7,1.2c-0.7,0.8-1,1.8-1,3.2c0,1.3,0.3,2.3,1,3.1c0.7,0.8,1.6,1.1,2.7,1.1c1.1,0,2-0.4,2.6-1.1
			c0.6-0.7,0.9-1.8,0.9-3.1c0-1.4-0.3-2.4-0.9-3.2C490.4,293.2,489.6,292.8,488.4,292.8z"/>
		<path class="st11" d="M502,287.9c-0.3-0.2-0.7-0.3-1.2-0.3c-1.2,0-1.8,0.8-1.8,2.3v1.7h2.6v1.5H499v9.5h-1.7v-9.5h-1.9v-1.5h1.9
			v-1.8c0-1.2,0.3-2.1,1-2.7s1.5-1,2.5-1c0.5,0,1,0.1,1.3,0.2V287.9z"/>
		<path class="st11" d="M508.6,302.5c-0.4,0.2-1,0.3-1.6,0.3c-1.9,0-2.9-1.1-2.9-3.2v-6.5h-1.9v-1.5h1.9v-2.7l1.8-0.6v3.3h2.8v1.5
			h-2.8v6.2c0,0.7,0.1,1.3,0.4,1.6c0.3,0.3,0.7,0.5,1.2,0.5c0.4,0,0.8-0.1,1.1-0.4V302.5z"/>
		<path class="st11" d="M523.4,302.8c-2.2,0-3.9-0.7-5.2-2.2s-2-3.3-2-5.6c0-2.5,0.7-4.4,2-5.9c1.3-1.5,3.2-2.2,5.5-2.2
			c2.1,0,3.8,0.7,5.1,2.1c1.3,1.4,1.9,3.3,1.9,5.6c0,2.5-0.7,4.5-2,6C527.4,302.1,525.6,302.8,523.4,302.8z M523.5,288.6
			c-1.6,0-2.9,0.6-3.9,1.7c-1,1.2-1.5,2.7-1.5,4.6c0,1.9,0.5,3.4,1.5,4.6s2.3,1.7,3.8,1.7c1.7,0,3-0.6,4-1.7c1-1.1,1.5-2.6,1.5-4.6
			c0-2-0.5-3.6-1.4-4.7C526.4,289.1,525.1,288.6,523.5,288.6z"/>
		<path class="st11" d="M538.9,287.9c-0.3-0.2-0.7-0.3-1.2-0.3c-1.2,0-1.8,0.8-1.8,2.3v1.7h2.6v1.5h-2.6v9.5h-1.7v-9.5h-1.9v-1.5
			h1.9v-1.8c0-1.2,0.3-2.1,1-2.7s1.5-1,2.5-1c0.5,0,1,0.1,1.3,0.2V287.9z"/>
		<path class="st11" d="M545.8,287.9c-0.3-0.2-0.7-0.3-1.2-0.3c-1.2,0-1.8,0.8-1.8,2.3v1.7h2.6v1.5h-2.6v9.5H541v-9.5h-1.9v-1.5h1.9
			v-1.8c0-1.2,0.3-2.1,1-2.7s1.5-1,2.5-1c0.5,0,1,0.1,1.3,0.2V287.9z"/>
		<path class="st11" d="M548.1,288.8c-0.3,0-0.6-0.1-0.8-0.3c-0.2-0.2-0.3-0.5-0.3-0.8c0-0.3,0.1-0.6,0.3-0.8
			c0.2-0.2,0.5-0.3,0.8-0.3c0.3,0,0.6,0.1,0.8,0.3c0.2,0.2,0.3,0.5,0.3,0.8c0,0.3-0.1,0.6-0.3,0.8
			C548.7,288.7,548.5,288.8,548.1,288.8z M549,302.6h-1.8v-11h1.8V302.6z"/>
		<path class="st11" d="M560,302.1c-0.8,0.5-1.8,0.8-3,0.8c-1.6,0-2.8-0.5-3.8-1.5c-1-1-1.4-2.3-1.4-4c0-1.8,0.5-3.3,1.6-4.4
			s2.4-1.6,4.2-1.6c1,0,1.8,0.2,2.6,0.5v1.8c-0.8-0.6-1.7-0.9-2.6-0.9c-1.1,0-2,0.4-2.8,1.2s-1.1,1.9-1.1,3.2c0,1.3,0.3,2.3,1,3
			c0.7,0.7,1.6,1.1,2.7,1.1c1,0,1.9-0.3,2.7-1V302.1z"/>
		<path class="st11" d="M571.5,297.5h-7.8c0,1.2,0.4,2.2,1,2.8c0.6,0.7,1.5,1,2.6,1c1.2,0,2.4-0.4,3.4-1.2v1.7
			c-1,0.7-2.2,1.1-3.8,1.1c-1.6,0-2.8-0.5-3.7-1.5c-0.9-1-1.3-2.4-1.3-4.2c0-1.7,0.5-3.1,1.5-4.2c1-1.1,2.2-1.6,3.6-1.6
			s2.5,0.5,3.3,1.4c0.8,0.9,1.2,2.2,1.2,3.9V297.5z M569.7,296c0-1-0.3-1.8-0.7-2.4c-0.5-0.6-1.2-0.8-2-0.8c-0.8,0-1.5,0.3-2.1,0.9
			c-0.6,0.6-0.9,1.4-1.1,2.3H569.7z"/>
	</g>
</g>
<text transform="matrix(1 0 0 1 -635.4788 -764.6915)" style="font-family:'Gadugi'; font-size:55.1601px;">Personality</text>
<text transform="matrix(1 0 0 1 -540.7961 -656.3224)" style="font-family:'Gadugi'; font-size:42.0426px;">Caring</text>
<rect x="-240.6" y="-714.8" class="st6" width="301.3" height="88.9"/>
<text transform="matrix(1 0 0 1 -163.6389 -656.3224)" style="font-family:'Gadugi'; font-size:42.0426px;">Decisive</text>
<rect x="-628.8" y="-589.6" class="st6" width="301.3" height="88.9"/>
<text transform="matrix(1 0 0 1 -582.8557 -531.0626)" style="font-family:'Gadugi'; font-size:42.0426px;">Extroverted</text>
<rect x="-240.6" y="-589.6" class="st6" width="301.3" height="88.9"/>
<text transform="matrix(1 0 0 1 -157.4338 -531.0626)" style="font-family:'Gadugi'; font-size:42.0426px;">Friendly</text>
<text transform="matrix(1 0 0 1 -628.8127 -1023.9445)" style="font-family:'Gadugi'; font-size:49.6441px;">Occupation:      Graphic Designer</text>
<text transform="matrix(1 0 0 1 -628.8127 -960.5109)" style="font-family:'Gadugi'; font-size:49.6441px;">Location:           Toronto, ON</text>
<text transform="matrix(1 0 0 1 -628.8127 -897.0763)" style="font-family:'Gadugi'; font-size:49.6441px;">Archetype:          </text>
<text transform="matrix(1 0 0 1 -281.7639 -897.0763)" style="font-family:'Gadugi'; font-size:49.6441px;">The Realist        </text>
<text transform="matrix(1 0 0 1 -628.8127 -1087.379)" style="font-family:'Gadugi'; font-size:49.6441px;">Age:                  28</text>
<line class="st12" x1="-647.4" y1="-815.7" x2="109.6" y2="-815.7"/>
</svg>
